<svg viewBox="0 0 2600 2760.837" xmlns="http://www.w3.org/2000/svg"><path d="M1780.5 1156.5q-83.5 119.5-275.5 216.5 221 116 322.5 248t101.5 290q0 246-171.5 397.5t-457.5 151.5q-298 0-463.5-142.5t-165.5-395.5q0-170 95-307t293-231q-178-114-250-238t-72-268q0-219 159-349t404-130q250 0 407 129t157 353q0 156-83.5 275.5z m-198.5 1009q103-88.5 103-251.5 0-126-89-222t-291-193l-41-19q-172 82-260 188t-88 257q0 157 97 243t282 86q184 0 287-88.5z m-569-1123q32 63.5 91 113t199 115.5q180-83 249-174t69-207q0-137-86-210t-238-73q-145 0-230.5 72.5t-85.5 210.5q0 89 32 152.5z"/></svg>