<svg viewBox="0 0 2600 2760.837" xmlns="http://www.w3.org/2000/svg"><path d="M2201 1942q-140 242-381.5 381.5t-519.5 139.5q-281 0-525-143t-380.5-384.5-136.5-515.5 136.5-515.5 380.5-384.5 525-143q278 0 519.5 139.5t381.5 381.5 140 522-140 522z m-86.5-992.5q-126.5-218.5-345-345.5t-469.5-127q-249 0-468.5 126.5t-346.5 345-127 471.5 127 471.5 346.5 345 468.5 126.5q251 0 469.5-127t345-345.5 126.5-470.5-126.5-470.5z m-266.5 1043.5q6 6 6 16 0 11-8.5 19.5t-19.5 8.5h-259q-15 0-23-11l-297-396h-103v379q0 11-7.5 18.5t-18.5 7.5h-259q-11 0-18.5-7.5t-7.5-18.5v-1193q0-11 7.5-19.5t18.5-8.5h529q175 0 300.5 124.5t125.5 296.5q0 126-71.5 232.5t-191.5 156.5z m-486-611q65 0 112.5-51t47.5-122q0-76-46.5-125t-120.5-49h-206q-6 0-6 7v334q0 4 3 5t12 1h204z"/></svg>