<svg viewBox="0 0 2600 2760.837" xmlns="http://www.w3.org/2000/svg"><path d="M2143 701q51 23 81.5 68.5t30.5 106.5v436q0 80-3.5 125.5t-39.5 90.5l-678 910q-32 46-93.5 75t-121.5 29q-59 0-108-25l-752-356q-53-25-83.5-70t-30.5-102v-539q0-30 10.5-60t30.5-56l681-910q36-48 94.5-76t122.5-28q58 0 106 23z m-1633 820l752 358q12 6 27 8.5t30 2.5q36 0 68.5-15t52.5-41l681-910q19-26 19-53 0-22-12.5-37t-35.5-26l-751-358q-27-12-57-12-38 0-70 15t-51 41l-682 910q-11 14-14.5 25t-3.5 24q0 23 12.5 40.5t34.5 27.5z m1628-422l-604 806q-36 48-90.5 76t-120.5 28q-29 0-58-6t-54-19l-748-354v226q0 21 12.5 38t34.5 27l752 358q12 6 27 9t30 3q36 0 68.5-15t52.5-41l678-909q11-14 15-27t4-27z m-1254 33q-9-3-9-13 0-2 1-5l2-4 234-316q4-6 11-6 4 0 7 2l243 116 164-215q4-5 11-5 4 0 7 1l149 71q2 2 4.5 6t2.5 8q0 5-3 8l-160 210 234 112 5 5q2 3 2 8t-3 8l-233 318q-3 5-12 5-4 0-5-1l-246-118-187 245q-6 6-11 6-2 0-3-1t-3-1l-149-71q-3-2-6.5-5.5t-3.5-8.5q0-3 1-5l187-243z m588 131q3 2 5 2t3-2l80-106q2 0 2-5t-4-7l-94-44-89 116z m-273-131l89-116-96-46q-2 0-3-1-2 0-3 1l-4 3-77 103-1 3q0 2-1 4 0 6 7 7z"/></svg>