<svg viewBox="0 0 2600 2760.837" xmlns="http://www.w3.org/2000/svg"><path d="M1986 289q66 0 116.5 48.5t50.5 118.5v1945q0 69-49.5 117.5t-117.5 48.5h-1372q-68 0-117.5-48.5t-49.5-117.5v-1945q0-69 50-118t117-49h1372z m52 167q0-21-15.5-36.5t-36.5-15.5h-1372q-21 0-36.5 15.5t-15.5 36.5v1945q0 20 15.5 35.5t36.5 15.5h1372q21 0 36.5-15.5t15.5-35.5v-1945z m-287.5 1623q-18.5 19-44.5 19-27 0-46.5-19t-19.5-46q0-8 2-15t5-14q-99-37-137.5-117.5t-81.5-118.5q-14 38-20 78t-6 91q0 53-25.5 103.5t-69.5 86.5q14 17 14 38 0 26-19.5 45.5t-45.5 19.5q-27 0-46.5-19.5t-19.5-45.5 19-44.5 45-19.5q0-28-6.5-50t-16.5-45l-22-48q-14-29-25-72t-11-82v-13q0-6 1-12-49 34-90 121t-141 124q4 8 4 21 0 27-19 46t-46 19q-26 0-45-19t-19-46 19-46 45-19q12 0 24 5 30-38 36-124t46-148q-17 11-58.5 41t-107.5 30q-18 0-32.5-2.5t-26.5-5.5q-9 13-23.5 21t-31.5 8q-27 0-46-19t-19-46 19-46 46-19q26 0 44.5 17.5t20.5 43.5q18-8 30.5-22.5t24.5-32.5l23-36q18-28 45.5-50.5t78.5-37.5q-15-42-19-77t-4-78q0-77 14.5-138.5t43.5-134.5 48.5-109 19.5-68q0-35-18.5-57t-53.5-22q-29 0-57.5 21t-47.5 46q25 23 25 58 0 32-22.5 54.5t-54.5 22.5q-33 0-56-22.5t-23-54.5 22.5-55 54.5-24q22-121 82-183.5t156-62.5q58 0 107 30.5t82 81.5q42-102 120.5-154.5t187.5-52.5q20 0 36.5 1.5t28.5 3.5q10-18 28-29.5t40-11.5q32 0 55 23t23 56q0 32-23 55.5t-55 23.5q-24 0-43.5-13.5t-28.5-34.5q-66 30-102 95.5t-44 157.5q14-6 47.5-14t73.5-8q95 0 167 62.5t72 159.5q0 38-9 74t-17 57q14 11 22.5 27t8.5 35q0 32-23 55.5t-56 23.5q-32 0-54.5-23.5t-22.5-55.5q0-30 19.5-52t49.5-25q0-5 1-18 0-42-31-74.5t-60-32.5q-32 0-51 38t-19 102q0 17 3 38l13 91q3 23 3 42 0 39-5.5 70.5t-13.5 54.5q61 4 117 58t106 61q4-23 21.5-39t42.5-16q26 0 45.5 19.5t19.5 46.5q0 26-19.5 45.5t-45.5 19.5-45-19q-18 12-41 22t-49 10q-41 0-92-28.5t-85-35.5q22 31 36 64.5t18 65.5l7 60q3 30 10.5 56.5t26.5 47.5l9-2h9q26 0 44.5 19t18.5 46-18.5 46z m-633-451.5q79.5 69.5 172.5 69.5 103 0 180.5-81.5t77.5-210.5q0-99-38-158.5t-85-59.5q-34 0-68 20t-67 76q-14-42-47-76t-72-34q-58 0-95.5 74t-37.5 151q0 160 79.5 229.5z m64.5-211.5q-23-2-40.5-16t-17.5-42q0-31 18.5-49t45.5-18q37 0 60.5 33t23.5 74q0 30-10.5 51t-10.5 36q0 18 20 18 16 0 27-8t25-8q5 0 5 6 0 24-76 58 0 5 15.5 9t27.5 4q33 0 61.5-15t47.5-31l10-8q5-3 12-3 5 0 9.5 3t4.5 16q0 45-49 75t-90 30q-52 0-103-35t-51-79q0-5 1.5-8.5t4.5-3.5q6 0 11 6.5t11 6.5q4 0 5-2t20-39l14-30q4-11 4-20t-7-9z m172.5-102q23.5-22 55.5-22 20 0 28 13.5t8 30.5q0 32-20.5 51.5t-46.5 19.5q-23 0-35.5-12.5t-12.5-30.5q0-28 23.5-50z m-704.5-695.5q14-14.5 37-14.5t36.5 14.5 13.5 34.5q0 21-13.5 35.5t-36.5 14.5-37-14.5-14-35.5q0-20 14-34.5z m-3 311.5q0-2 3-2h40q14 0 23.5 9t9.5 23q0 22-20 30l23 30v2l-2 1h-18q-3 0-4-1l-23-29h-8v28q0 2-2 2h-19q-3 0-3-2v-91z m23-216q2 0 2 2v35l24-36 4-1h20q2 0 2 1v2l-27 40 31 49q0 3-4 3h-18q-4 0-5-3l-27-43v44q0 2-2 2h-20q-2 0-2-2v-91q0-2 2-2h20z m7 126v18h32q2 0 2 2v15q0 2-2 2h-32v20h42q2 0 2 2v16q0 2-2 2h-64q-2 0-2-2v-93q0-2 2-2h64q2 0 2 2v16q0 2-2 2h-42z m-29-274q0-2 5-3l15-5q2 0 6 6t11 6q10 0 12-6.5t2-18.5v-47q0-2 2-2h22q3 0 3 2v49q0 46-40 46-15 0-25.5-7.5t-12.5-19.5z m20 105.5q7 7.5 19 7.5t19-7.5 7-18.5-7-18-19-7-19 7-7 18 7 18.5z m3 302.5h17q5 0 9-3.5t4-10.5q0-6-4-9.5t-9-3.5h-17v27z m1293 1262.5q-14 14.5-37 14.5t-36.5-14.5-13.5-34.5q0-21 13.5-35.5t36.5-14.5 37 14.5 14 35.5q0 20-14 34.5z m3-311.5q0 2-3 2h-40q-14 0-23.5-9t-9.5-23q0-22 20-30l-23-30v-2l2-1h18q3 0 4 1l23 29h8v-28q0-2 2-2h19q3 0 3 2v91z m-23 216q-2 0-2-2v-35l-24 36-4 1h-20q-2 0-2-1v-2l27-40-31-49q0-3 4-3h18q3 0 5 3l27 43v-44q0-2 2-2h20q2 0 2 2v91q0 2-2 2h-20z m-7-126v-18h-32q-2 0-2-2v-15q0-2 2-2h32v-20h-42q-2 0-2-2v-16q0-2 2-2h64q2 0 2 2v93q0 2-2 2h-64q-2 0-2-2v-16q0-2 2-2h42z m29 274q0 2-5 3l-15 5q-2 0-6-6t-11-6q-10 0-12 6.5t-2 18.5v47q0 2-2 2h-22q-3 0-3-2v-49q0-46 40-46 15 0 25.5 7.5t12.5 19.5z m-20-105.5q-7-7.5-19-7.5t-19 7.5-7 18.5 7 18 19 7 19-7 7-18-7-18.5z m-3-302.5h-17q-5 0-9 3.5t-4 10.5q0 6 4 9.5t9 3.5h17v-27z"/></svg>