<svg viewBox="0 0 2600 2760.837" xmlns="http://www.w3.org/2000/svg"><path d="M2121 2315q8 11 8 22 0 12-8 21.5t-19 12.5l-289 84h-6l-4 1q-20 0-30-15l-106-149q-82 29-174 44.5t-194 15.5q-281 0-502.5-120t-345.5-339.5-124-484.5 123.5-483.5 344.5-339.5 504-121q281 0 503 120.5t346 339.5 124 484q0 209-76.5 388.5t-219.5 310.5z m-733-423l-162-233q-7-10-7-22 0-13 7.5-21.5t18.5-13.5l289-83q3 0 10-1 19 0 32 16l126 182q49-64 75.5-142t26.5-166q0-211-140.5-351t-364.5-140q-223 0-363.5 140t-140.5 351q0 212 141 351t363 139q45 0 89-6z"/></svg>