<svg viewBox="0 0 2600 2760.837" xmlns="http://www.w3.org/2000/svg"><path d="M2222 394q47 0 79.5 33t32.5 78v1845q0 45-32.5 78t-79.5 33h-1845q-47 0-79-33t-32-78v-1845q0-45 32-78t79-33h1845z m-800 1811q202 0 347.5-130t145.5-314q0-108-54-202.5t-151-157.5q63-60 99-138.5t36-167.5q0-182-145-313.5t-348-131.5h-559q-14 0-23.5 9.5t-9.5 23.5v1489q0 14 9.5 23.5t23.5 9.5h629z m-81-651q66 0 116.5 54t50.5 128q0 76-50 129.5t-117 53.5h-218q-7 0-7-9v-348q0-8 7-8h218z m-219-292q-3 0-5-2t-2-4v-300q0-2 2-5.5t5-3.5h207q62 0 105.5 47.5t43.5 110.5q0 62-43.5 109.5t-105.5 47.5h-207z"/></svg>