<svg viewBox="0 0 2600 2760.837" xmlns="http://www.w3.org/2000/svg"><path d="M2222 393q45 0 78 32.5t33 79.5v1845q0 47-32 79t-79 32h-1845q-47 0-79-33t-32-78v-1845q0-45 33-78.5t78-33.5h1845z m33 112q0-14-9.5-23.5t-23.5-9.5h-1845q-14 0-23.5 9.5t-9.5 23.5v1845q0 14 9.5 23.5t23.5 9.5h1845q14 0 23.5-9.5t9.5-23.5v-1845z m-823 199q8 0 14 5.5t6 13.5v237q0 7-6 12.5t-14 5.5h-237v304h181q8 0 13.5 5.5t5.5 13.5v236q0 9-5.5 14.5t-13.5 5.5h-181v336h237q8 0 14 5.5t6 13.5v236q0 8-6 13.5t-14 5.5h-374q-8 0-14.5-5.5t-6.5-13.5v-1425q0-8 6.5-13.5t14.5-5.5h374z m-472-2q8 0 14.5 6.5t6.5 14.5v1425q0 8-6.5 14t-14.5 6h-117q-16 0-20-16l-202-835v831q0 8-6.5 14t-15.5 6h-117q-8 0-14-6t-6-14v-1425q0-8 6-14.5t14-6.5h117q8 0 13.5 4.5t6.5 10.5l203 836v-830q0-8 6.5-14.5t14.5-6.5h117z m1183 8q9 0 14.5 6.5t5.5 15.5l-126 1410q0 9-6.5 14t-13.5 5h-102q-19 0-19-19l-67-705-64 705q0 3-4.5 11t-16.5 8h-101q-19-8-19-19l-127-1410q0-8 4.5-15t15.5-7h126q8 0 14 5t6 13l43 589 59-589q0-7 5.5-12.5t13.5-5.5h92q7 0 13.5 4t6.5 14l59 589 41-589q3-18 21-18h126z"/></svg>