<svg viewBox="0 0 2600 2760.837" xmlns="http://www.w3.org/2000/svg"><path d="M2222 393q45 0 78 32t33 79v1845q0 47-33 79.5t-78 32.5h-1845q-45 0-78-33.5t-33-78.5v-1845q0-45 33-78t78-33h1845z m33 111q0-14-9.5-23.5t-23.5-9.5h-1845q-14 0-23.5 9.5t-9.5 23.5v1845q0 14 9.5 23.5t23.5 9.5h1845q14 0 23.5-9.5t9.5-23.5v-1845z m-626 222q115 0 196 136t81 333q0 199-81.5 335.5t-195.5 136.5h-151v440q0 9-7 15t-15 6h-165q-10 0-17-6t-7-15v-1360q0-9 7-15t17-6h338z m-22 665q44 0 77-58t33-138-33-137.5-77-57.5h-131q-6 0-6 6v379q0 6 6 6h131z m-423-671q9 0 16 6.5t7 15.5v745q-6 328-108 487.5t-255 159.5q-152 0-254.5-156t-108.5-494l-1-72v-670q0-9 7-15.5t16-6.5h186q9 0 15.5 6.5t6.5 15.5v670q0 142 12.5 215t37.5 103.5 83 30.5q57 0 81.5-31t37-103.5 12.5-214.5v-670q0-9 6.5-15.5t15.5-6.5h187z m924 1378.5q-25 24.5-60 24.5-36 0-60.5-24.5t-24.5-60.5q0-35 24.5-60t60.5-25q35 0 60 25t25 60q0 36-25 60.5z m52-1227.5q-1 6-1 12l-89 982q0 8-7 14t-15 6-14.5-6-8.5-14l-88-982-2-12q0-6-1-13 0-56 33.5-95t80.5-39q45 0 79 39t34 95q0 7-1 13z"/></svg>