<svg viewBox="0 0 2600 2760.837" xmlns="http://www.w3.org/2000/svg"><path d="M2222 393q45 0 78 32t33 79v1845q0 47-33 79.5t-78 32.5h-1845q-45 0-78-33.5t-33-78.5v-1845q0-45 33-78t78-33h1845z m33 111q0-14-9.5-23.5t-23.5-9.5h-1845q-14 0-23.5 9.5t-9.5 23.5v1845q0 14 9.5 23.5t23.5 9.5h1845q14 0 23.5-9.5t9.5-23.5v-1845z m-1012.5 1423.5q-56.5 196.5-143.5 196.5t-143.5-196.5-56.5-500.5q0-303 56.5-501t143.5-198 143.5 198 56.5 501q0 304-56.5 500.5z m442.5-1q-56 197.5-144 197.5-87 0-142.5-198t-55.5-499 55.5-500 142.5-199q88 0 144 198.5t56 500.5-56 499.5z m-844-285.5q6 2 8 8l54 288v4q-76 176-188 176-118 0-194.5-194.5t-76.5-503.5q0-308 76-503.5t195-195.5q56 0 100.5 37.5t80.5 109.5v7l-59 293q-2 8-8 8-11 0-16-17.5t-36-61.5-60-44q-49 0-81.5 102.5t-32.5 264.5q0 160 32.5 263.5t81.5 103.5q27 0 66-56t43.5-72.5 14.5-16.5z m1295 207q18 0 18 16v222q0 8-5 13t-13 5h-333q-8 0-13-5t-5-13v-1336q0-7 5-11.5t13-4.5h105q17 0 17 16v1098h211z m-991-709.5q-18-111.5-46-111.5-27 0-46 109.5t-19 290.5 19 290.5 46 109.5q28 0 46-113t18-287q0-177-18-288.5z m443 0q-18-111.5-47-111.5-27 0-45 111.5t-18 288.5 18 288.5 45 111.5q29 0 47-111.5t18-288.5-18-288.5z"/></svg>