<svg viewBox="0 0 2600 2760.837" xmlns="http://www.w3.org/2000/svg"><path d="M2222 393q45 0 78 32.5t33 79.5v1845q0 47-33 79t-78 32h-1845q-45 0-78-33t-33-78v-1845q0-45 33-78.5t78-33.5h1845z m33 112q0-14-9.5-24t-23.5-10h-1845q-14 0-23.5 10t-9.5 24v1845q0 13 9.5 22.5t23.5 9.5h1845q14 0 23.5-9.5t9.5-22.5v-1845z m-740 160q261 0 437 203.5t176 559.5-176 560.5-437 204.5h-527q-13 0-21-9t-8-21v-1469q0-11 8-20t21-9h527z m-15 1169l23-1q62-2 130.5-45.5t111.5-136.5 43-223q0-185-88.5-294.5t-219.5-109.5h-192q-11 0-19.5 9t-8.5 20v752q0 11 8.5 20t19.5 9h192z m-681-1169q13 0 22.5 9t9.5 21v1481q0 14-9.5 23t-22.5 9h-297q-14 0-22.5-9t-8.5-23v-1481q0-12 8.5-21t22.5-9h297z"/></svg>