<svg viewBox="0 0 2600 2760.837" xmlns="http://www.w3.org/2000/svg"><path d="M2222 393q45 0 78 32.5t33 79.5v1845q0 47-33 79t-78 32h-1845q-45 0-78-33t-33-78v-1845q0-45 33-78.5t78-33.5h1845z m33 112q0-14-9.5-23.5t-23.5-9.5h-1845q-14 0-23.5 9.5t-9.5 23.5v1845q0 14 9.5 23t23.5 9h1845q14 0 23.5-9t9.5-23v-1845z m-919 1497v5 4t-3 4q-142 198-347 198-221 0-363.5-221.5t-142.5-574.5q0-351 142.5-572.5t363.5-221.5q98 0 172 34.5t120.5 83 46.5 56.5q-2 3-2 4l-112 334q-5 10-15 10-9 0-22.5-21t-67-54-120.5-33q-100 0-167.5 107t-67.5 273q0 167 67 275t168 108q61 0 125-41.5t81.5-66.5 30.5-25q9 0 11 9z m741-113q11 0 18.5 7t7.5 17v246q0 10-7.5 18t-18.5 8h-627q-11 0-19-8t-8-18v-1481q0-11 8-18.5t19-7.5h197q10 0 18 7.5t8 18.5v1211h404z"/></svg>