<svg viewBox="0 0 2600 2760.837" xmlns="http://www.w3.org/2000/svg"><path d="M2222 393q47 0 79 32t32 79v1845q0 47-32 79t-79 32h-1845q-47 0-79-32t-32-79v-1845q0-47 32-79t79-32h1845z m-211 1008q42-60 65-138.5t23-169.5q0-180-88.5-308.5t-211.5-128.5h-333q-11 0-18 7.5t-7 18.5v1489q0 11 7 18.5t18 7.5h375q122 0 211-128.5t89-309.5q0-112-35.5-205.5t-94.5-152.5z m-993-718q-2-8-9.5-14t-16.5-6h-204q-10 0-17 6t-9 14l-330 1481q0 13 8 19t18 6h216q20 0 25-21l50-254h283l49 254q2 10 9.5 15.5t15.5 5.5h217q8 0 16-6t8-19v-5z m775 872q41 0 70.5 50.5t29.5 129.5-29.5 129.5-70.5 50.5h-130q-5 0-5-6v-349q0-5 5-5h130z m-130-296q-7 0-7-6v-300q0-5 7-5h122q36 0 63.5 45t27.5 111q0 65-27.5 110t-63.5 45h-122z m-772-58l82 414h-165z"/></svg>