<svg viewBox="0 0 2600 2760.837" xmlns="http://www.w3.org/2000/svg"><path d="M2176 433q52 0 87.5 37.5t35.5 86.5v1750q0 49-35.5 86.5t-87.5 37.5h-1753q-52 0-87.5-37.5t-35.5-86.5v-1750q0-49 35.5-86.5t87.5-37.5h1753z m45 124q0-19-13.5-32.5t-31.5-13.5h-1753q-18 0-30.5 13.5t-12.5 32.5v1750q0 19 12.5 32.5t30.5 13.5h1753q18 0 31.5-13.5t13.5-32.5v-1750z m-313 927q8 0 16.5 6t8.5 19v587q0 11-8.5 17.5t-16.5 6.5h-643q-8 0-16.5-6.5t-8.5-17.5v-587q0-13 8.5-19t16.5-6h643z m-731 59q0 3 1 10 0 7-3.5 13.5t-11.5 9.5l-116 52v345q0 63-33.5 96.5t-71.5 37.5l-23 3h-145q-8 0-15.5-5.5t-9.5-16.5l-24-183v-3q0-11 7-18.5t17-7.5h63v-144l-97 45q-6 3-11 3-8 0-13.5-4.5t-8.5-10.5l-56-123q0-3-1-11 0-16 15-22l172-78v-278h-152q-8 0-16-8t-8-17v-136q0-9 8-16.5t16-7.5h152v-261q0-9 8-16t17-7h185q11 0 18 7.5t7 15.5v261h107q7 0 15.5 6.5t8.5 17.5v136q0 11-8.5 18t-15.5 7h-107v174l41-20q2 0 7-1 20 0 26 14z m793-347q17 6 17 25v6q-49 113-77.5 148t-73.5 51.5-95 16.5h-368q-61 0-92.5-35t-31.5-80v-491q0-9 8.5-16.5t16.5-7.5h163q8 0 16.5 6.5t8.5 17.5v121l400-115 7-1q8 0 14.5 5t8.5 12l38 130q0 2 1 4t1 3q0 19-19 24l-451 130v81h212l26-2q37 0 51.5-12t27.5-40l9-18q7-15 22-15 5 0 8 2z m-229 677l-7-3h-295l-7 3-2 7v73l2 6 7 2h295l7-2 2-6v-73z m2-145v-74l-2-6-7-2h-295l-7 2-2 6v74l2 5 7 3h295l7-3z"/></svg>