<svg viewBox="0 0 2600 2760.837" xmlns="http://www.w3.org/2000/svg"><path d="M2176 432q52 0 87.5 37.5t35.5 85.5v1751q0 50-36.5 87.5t-86.5 37.5h-1753q-50 0-86.5-37.5t-36.5-87.5v-1751q0-48 35.5-85.5t87.5-37.5h1753z m45 123q0-18-13.5-31.5t-31.5-13.5h-1753q-18 0-30.5 13.5t-12.5 31.5v1751q0 19 12.5 33t30.5 14h1753q18 0 31.5-14t13.5-33v-1751z m-995 347q10 0 16.5 7t6.5 18v1089q0 11-6.5 17.5t-16.5 6.5h-627q-10 0-17.5-6.5t-7.5-17.5v-241q0-8 7-16.5t18-8.5h348v-558h-348q-11 0-18-8t-7-16v-241q0-10 7-17.5t18-7.5h627z m776 0q10 0 17 7t7 18v1089q0 11-7 17.5t-17 6.5h-626q-25 0-25-24v-241q0-8 6-16.5t19-8.5h348v-558h-348q-13 0-19-8t-6-16v-241q0-11 6.5-18t18.5-7h626z"/></svg>