<svg viewBox="0 0 2600 2760.837" xmlns="http://www.w3.org/2000/svg"><path d="M2176 432q50 0 86.5 36.5t36.5 86.5v1753q0 49-36 86t-87 37h-1753q-51 0-87-37t-36-86v-1753q0-50 36.5-86.5t86.5-36.5h1753z m45 123q0-17-13.5-30t-31.5-13h-1753q-18 0-31.5 13t-13.5 30v1753q0 18 13.5 31.5t31.5 13.5h1753q18 0 31.5-13.5t13.5-31.5v-1753z m-280 291q11 0 18.5 7.5t7.5 16.5v1125q0 59-30.5 88.5t-64.5 33.5l-20 2h-202q-10 0-17-6t-8-15l-22-170q0-12 7-19.5t18-7.5h127v-1031q0-10 7-17t18-7h161z m-289 918h-161q-11 0-18-8t-7-18v-868q0-9 7-16.5t18-7.5h161q11 0 18 7t7 17v868q0 10-7.5 18t-17.5 8z m-298-19q10 0 17 8t7 16v329q0 11-7.5 18t-16.5 7h-665q-24 0-24-25v-329q0-8 6-16t18-8h665z m-169 137l-5-3h-317l-7 3-2 6v91l2 7 7 2h317l5-2 3-7v-91z m208-965q11 0 18 8.5t7 16.5v259q0 10-7.5 17t-17.5 7h-112q-9 0-17-6.5t-8-17.5v-99h-144v60h76q12 0 18.5 8.5t6.5 16.5v97q0 11-7 18.5t-18 7.5h-76v43h153q8 0 16 6.5t8 17.5v98q0 12-8 18t-16 6h-153v44h242q10 0 17 8.5t7 16.5v97q0 11-7.5 18t-16.5 7h-665q-24 0-24-25v-97q0-8 5.5-16.5t18.5-8.5h241v-44h-153q-9 0-17-6t-8-18v-98q0-11 8.5-17.5t16.5-6.5h153v-43h-76q-10 0-17.5-6.5t-7.5-19.5v-97q0-9 6.5-17t18.5-8h76v-60h-142v99q0 10-8 17t-17 7h-112q-10 0-17.5-6.5t-7.5-17.5v-259q0-8 7-16.5t19-8.5h278v-89q0-8 6.5-16.5t18.5-8.5h133q11 0 17.5 8.5t6.5 16.5v89h281z"/></svg>