<svg viewBox="0 0 2600 2760.837" xmlns="http://www.w3.org/2000/svg"><path d="M2176 432q50 0 86.5 37.5t36.5 87.5v1751q0 49-36 86t-87 37h-1753q-51 0-87-37t-36-86v-1751q0-50 36.5-87.5t86.5-37.5h1753z m45 125q0-19-13.5-32t-31.5-13h-1753q-18 0-30.5 13t-12.5 32v1751q0 18 12.5 31.5t30.5 13.5h1753q18 0 31.5-13.5t13.5-31.5v-1751z m-197 503q10 0 17 7.5t7 16.5v229q0 9-7.5 16t-16.5 7h-251q-3 190-52 348.5t-133.5 269.5-174 170-106.5 59q-3 0-8 1-6 0-12-3t-9-8l-126-191q-2-2-3-6t-1-7q0-9 6-15t57-34 118-101 114-197 50-286h-368v333q0 11-8 18t-17 7h-229q-11 0-17.5-7.5t-6.5-17.5v-333h-273q-8 0-16.5-7t-8.5-16v-229q0-9 8-16.5t17-7.5h273v-233q0-11 7-18.5t17-7.5h229q8 0 16.5 6.5t8.5 19.5v233h370v-233q0-11 7-18.5t17-7.5h229q8 0 16.5 7.5t8.5 18.5v233h251z"/></svg>