<svg viewBox="0 0 2600 2760.837" xmlns="http://www.w3.org/2000/svg"><path d="M2176 433q52 0 87.5 37.5t35.5 86.5v1750q0 49-35.5 86.5t-87.5 37.5h-1753q-52 0-87.5-37.5t-35.5-86.5v-1750q0-49 35.5-86.5t87.5-37.5h1753z m45 124q0-19-13.5-32.5t-31.5-13.5h-1753q-18 0-31.5 13.5t-13.5 32.5v1750q0 19 13.5 32.5t31.5 13.5h1753q18 0 31.5-13.5t13.5-32.5v-1750z m-247 357q11 0 18 7.5t7 18.5v848q0 11-7 18t-18 7h-507v342q0 11-7 18t-17 7h-267q-11 0-18-7.5t-7-17.5v-342h-507q-9 0-17-6t-8-19v-848q0-11 8-18.5t17-7.5h507v-209q0-11 7.5-18t17.5-7h267q8 0 16 6t8 19v209h507z m-823 212h-282q-7 0-12 4t-5 12v113q0 8 5 11.5t12 3.5h282v-144z m-299 461q0 8 5 11.5t12 3.5h282v-144h-282q-7 0-12 3.5t-5 11.5v114z m615 15h284q6 0 10.5-4t4.5-11v-114q0-6-4.5-10.5t-10.5-4.5h-284v144z m284-332q5 0 10-3.5t5-11.5v-113q0-7-4.5-11.5t-10.5-4.5h-284v144h284z"/></svg>