<svg viewBox="0 0 2600 2760.837" xmlns="http://www.w3.org/2000/svg"><path d="M2176 432q52 0 87.5 37.5t35.5 85.5v1751q0 50-36.5 87.5t-86.5 37.5h-1751q-51 0-88-37t-37-88v-1751q0-49 36-86t89-37h1751z m43 123q0-18-13-31.5t-30-13.5h-1751q-20 0-33.5 13.5t-13.5 31.5v1751q0 19 13.5 32t33.5 13h1751q17 0 30-13t13-32v-1751z m-1264 937q-8 0-12-5.5t-4-10.5v-153q0-5 4-11t12-6h740q9 0 13.5 6t4.5 11v153q0 5-5.5 10.5t-12.5 5.5h-740z m900 88q6 0 11 6t5 12v484q0 16-16 16h-1059q-8 0-13-4t-5-12v-484q0-8 6-13t12-5h1059z m-204 191l-6-3h-639l-7 3-3 5v127l3 6 7 3h639l6-3 3-6v-127z m445-540l-111 179q-4 8-15 8-21 0-220.5-109t-424.5-288q-222 178-423 287.5t-222 109.5q-10 0-14-8l-111-179-2-6q-2-3-2-7 0-3 9.5-9t22.5-12l42-20q102-51 204.5-112t196.5-125 192.5-146 99.5-83l5-1q11 0 17 8t87.5 75 223 164.5 276 169 148.5 76 19 9 5 12.5q0 3-3 7z"/></svg>