<svg viewBox="0 0 2600 2760.837" xmlns="http://www.w3.org/2000/svg"><path d="M2176 432q50 0 86.5 36.5t36.5 86.5v1753q0 50-36.5 86.5t-86.5 36.5h-1753q-50 0-86.5-36.5t-36.5-86.5v-1753q0-50 36.5-86.5t86.5-36.5h1753z m45 123q0-18-13.5-31.5t-31.5-13.5h-1753q-18 0-31.5 13.5t-13.5 31.5v1753q0 18 13.5 31.5t31.5 13.5h1753q18 0 31.5-13.5t13.5-31.5v-1753z m-271 329q12 0 18 8.5t6 16.5v418q0 9-6.5 16.5t-17.5 7.5h-191q-11 0-18-7.5t-7-16.5v-258h-838v258q0 9-7 16.5t-18 7.5h-191q-11 0-18-7t-7-17v-418q0-9 7-17t18-8h209v-189q0-4 4.5-10t12.5-6h175q16 0 16 16v189h98v-189q0-4 3.5-10t14.5-6h173q10 0 14 5.5t4 10.5v189h102l79-197q2-8 8-11.5t14-3.5l10 1 154 65q14 6 14 23 0 7-1 9l-47 114h213z m-77 806q11 0 18 7t7 17v422q0 11-8 18.5t-17 7.5h-1108q-10 0-17.5-7.5t-7.5-18.5v-422q0-10 7-17t18-7h308l35-104h-101q-9 0-17-6.5t-8-18.5v-374q0-11 7-18t18-7h623q11 0 18 7t7 18v374q0 12-8.5 18.5t-16.5 6.5h-291l-35 104h569z m-711-265l1 7 7 3h297l6-3 3-7v-102l-3-7-6-2h-297l-7 2-1 7v102z m516 446l-2-7-6-3h-703l-7 3-2 7v111l2 5 7 3h703l6-3 2-5v-111z"/></svg>