<svg viewBox="0 0 2600 2760.837" xmlns="http://www.w3.org/2000/svg"><path d="M2166 451q52 0 87 37t35 86v1733q0 50-35.5 86t-86.5 36h-1733q-51 0-86.5-35.5t-35.5-86.5v-1733q0-50 35.5-86.5t86.5-36.5h1733z m44 123q0-18-12.5-31.5t-31.5-13.5h-1733q-17 0-30.5 13.5t-13.5 31.5v1733q0 18 13.5 31t30.5 13h1733q19 0 31.5-13t12.5-31v-1733z m-302 321q12 0 18.5 7.5t6.5 16.5v189q0 12-7 18.5t-18 6.5h-602l-28 47q-14 24-30 49h574q9 0 17.5 7t8.5 18v750q0 65-37 99t-75 34h-151q-9 0-16-5.5t-9-14.5l-24-141q0-15 7-22t17-7h61v-70h-444v236q0 10-7.5 17t-17.5 7h-178q-11 0-18-7t-7-17v-550q-45 39-94.5 74t-55 37-15.5 2q-10-5-15-13l-98-164q-4-6-4-12 0-19 33-33.5t138.5-99 198.5-221.5h-290q-10 0-17.5-6.5t-7.5-18.5v-189q0-10 7-17t18-7h418q24-61 35-98l16-57q5-20 9.5-26.5t18.5-6.5h174q14 0 20 8.5t6 17.5q-2 2-7.5 42.5t-30.5 119.5h502z m-731 827h444v-74h-444v74z m444-303h-444v74h444v-74z"/></svg>