<svg viewBox="0 0 2600 2760.837" xmlns="http://www.w3.org/2000/svg"><path d="M2176 433q50 0 86.5 37t36.5 87v1750q0 49-35.5 86.5t-87.5 37.5h-1751q-52 0-88.5-37t-36.5-87v-1750q0-51 37.5-87.5t87.5-36.5h1751z m43 124q0-19-13-32.5t-30-13.5h-1751q-20 0-33.5 13.5t-13.5 32.5v1750q0 19 13.5 32.5t33.5 13.5h1751q17 0 30-13.5t13-32.5v-1750z m-350 1364q9 0 16.5 7t7.5 18v152q0 11-7.5 17.5t-16.5 6.5h-1137q-13 0-19.5-7.5t-6.5-16.5v-152q0-8 6.5-16.5t19.5-8.5h422v-114h-263q-10 0-17-6.5t-7-17.5v-151q0-11 8-18.5t16-7.5h817q11 0 18 8.5t7 17.5v151q0 9-6.5 16.5t-18.5 7.5h-264v114h425z m64-1071q9 0 17.5 7.5t8.5 16.5v402q0 11-7.5 18.5t-18.5 7.5h-190q-10 0-17.5-7t-7.5-19v-221h-838v221q0 12-8.5 19t-16.5 7h-192q-7 0-15-7t-8-19v-402q0-11 8.5-17.5t14.5-6.5h491v-129q0-11 7.5-18t18.5-7h239q11 0 18 7t7 18v129h489z m-1099 738q-2 2-8 2-12 0-19-11l-86-140q-4-5-4-12 0-17 16.5-23.5t63.5-17.5 126.5-61 118-93 45.5-60 27-17q9 0 15 6l118 112q8 10 8 18 0 16-58 81t-152.5 124.5-210.5 91.5z m486-361l-3-33q0-10 6-19t18-9l172-3q9 0 16 5t8 16q0 42 37.5 114t200.5 72q18 0 20-1 12 0 19.5 7t7.5 18v154q0 12-7.5 18.5t-17.5 6.5q-113 0-187.5-11t-142-53-104.5-123-43-159z"/></svg>