<svg viewBox="0 0 2600 2760.837" xmlns="http://www.w3.org/2000/svg"><path d="M2231.5 1959.5q-140.5 248.5-391 395.5t-540.5 147-540.5-146.5-391.5-395.5-141-531q0-286 143.5-536t393.5-393.5 536-143.5 535.5 144 393 393.5 143.5 535.5q0 282-140.5 530.5z m-72-1027.5q-133.5-231-364-364.5t-495.5-133.5q-264 0-494.5 132t-365 363-134.5 500q0 265 132.5 496t363.5 364 498 133 496.5-133 363-363.5 133.5-496.5-133.5-497z m-234.5 24q9 0 17 8t8 17v189q0 11-8 18t-17 7h-170v779q0 80-43 122t-98 46l-14 1h-186q-20 0-25-21l-31-189q-2-4-2-5 0-11 7-17.5t19-6.5h88v-709h-815q-25 0-25-25v-189q0-11 7-18t18-7h1270z m-593 355q11 0 18.5 8.5t7.5 16.5v490q0 11-8 18t-18 7h-529q-9 0-17-6t-8-19v-490q0-11 7-18t18-7h529z m-158 171l-7-4h-200l-5 3-3 7v186l3 7 5 3h200l7-3 3-7v-186z"/></svg>