<svg viewBox="0 0 2600 2760.837" xmlns="http://www.w3.org/2000/svg"><path d="M2110.5 2078q-30.5 42-165 150.5t-329.5 176-438 67.5q-154 0-297.5-24.5t-217-41-100.5-70-27-178.5q0-276-19.5-457.5t-38.5-252.5-19-113q0-35 22.5-78.5t38.5-114 16-156.5q0-84-14.5-182t-25.5-131l-13-36-11-33q-5-16-5-28 0-51 72-88.5t131-42.5l44-3q58 0 89.5 53t77 71 107.5 18q87 0 152.5-35.5t70.5-95.5q0-10-1.5-19t-1.5-20q0-58 82-70.5t117-12.5q37 0 86 7t62 14.5 25.5 44 15 76 14.5 82 22 89.5 22 89 29 81 39.5 74 50.5 62.5 64 50.5q16 10 20.5 25t4.5 32v49l-1 8q0 71 27 205t84.5 273 113 234 55.5 162q0 47-30.5 89z m-1461.5-155q91-39 188-122t259.5-226.5 268-258 180.5-204 96-136.5q-64-88-108.5-237t-57.5-285l-34-4q-17 0-34-1-19 0-35.5 2.5t-37.5 4.5q11 81 17.5 167.5t6.5 167.5q0 160-74.5 237.5t-178.5 77.5q-102-2-183.5-62.5t-132.5-213.5l-39-117q-17-52-26-97.5t-13-55.5q-42 0-69.5 12.5t-47.5 20.5q27 72 43 179.5t16 213.5q0 114-23.5 203.5t-39 114.5-15.5 37q0 3 29.5 147t42.5 385z m1326-53q-48-82-98.5-198t-83.5-248q-41 62-203 247.5t-333 329.5-293 213.5-126.5 75.5-36.5 23q97 21 191.5 31t185.5 10q171 0 312-34.5t252-96 192.5-137.5 85-83.5 3.5-16.5q0-34-48-116z"/></svg>