<svg viewBox="0 0 2600 2760.837" xmlns="http://www.w3.org/2000/svg"><path d="M1367 2152q0 109 173.5 169.5t173.5 127.5q0 56-136 93t-355 37q-155 0-272.5-38.5t-117.5-100.5q0-64 174-134t174-170l-1-64q-309-46-478-223.5t-169-467.5q0-237 73-481.5t179-428.5l25-44q41-77 170-122.5t320-45.5q185 0 304.5 38t166.5 101.5 124 233 124 367 47 382.5q0 206-87.5 357t-254 237.5-357.5 102.5v74z m146 284q-91-30-152.5-76.5t-91.5-110.5q-31 53-78.5 90t-112.5 64l-70 31q49 13 100.5 20.5t114.5 7.5q77 0 151.5-6t138.5-20z m-594-1968q20 30 122.5 59.5t258.5 29.5q166 0 266-31t115-61q-14-25-116-57t-265-32q-162 0-265 31.5t-116 60.5z m-56 106q-101 201-156.5 409t-55.5 398 86 321.5 244 196.5 316 65q160 0 317-64t245.5-195 88.5-324q0-192-57-403.5t-154-402.5q-62 46-176 73t-261 27q-146 0-259.5-26.5t-177.5-74.5z m-35.5 643q93.5-51 217.5-51 111 0 281 61.5t278 61.5q81 0 141-22.5t68-22.5q24 0 36.5 27.5t12.5 69.5q0 227-158 374t-391 147q-249 0-414-139.5t-165-365.5q0-89 93.5-140z"/></svg>