<svg viewBox="0 0 2600 2760.837" xmlns="http://www.w3.org/2000/svg"><path d="M2502 1686q0 234-179 415.5t-475.5 266-607.5 84.5q-300 0-574.5-86t-421.5-243.5-147-373.5q0-147 77-271t300-240q11-49 24-98l25-97 24-97q19-77 38-107.5t34.5-56.5 47-61.5 75.5-68.5 90-58 97-45 111-35 127-22.5 135-7.5q121 0 243.5 26.5t233.5 79.5 187 158 101 258l32 187q182 85 290 214.5t113 278.5z m-1306-513q-12 4-12 21 0 18 54.5 28t143.5 10q192 0 354-83.5t162-181.5q0-13-4-24t-14-11q-15 0-27 19t-89 78.5-208.5 99.5-337.5 40q-10 0-22 4z m-601 9q-7 29-47 174.5t-40 248.5q0 142 120.5 246t333.5 158 403 54q165 0 283-31t204.5-89.5 139-146 52.5-233.5q0-120-19-236t-44-233q-22 30-44 57l-46 55q-44 55-67.5 115.5t-35.5 161.5-86 101q-60 0-102-80t-86.5-102-225.5-32-286-44.5-217.5-90-169.5-133.5z m1711 304.5q-59-95.5-182-176.5 14 69 25.5 141.5t11.5 143.5q0 209-119.5 328t-290 188-418.5 69q-200 0-426-59t-356.5-166.5-143.5-254.5l-2-30q0-15-1-29 0-72 11.5-142t28.5-142q-9 8-18 14l-19 12q-92 69-133 154.5t-41 174.5q0 185 130 321t374.5 209.5 510.5 73.5q288 0 554.5-76.5t414.5-230 148-325.5q0-102-59-197.5z"/></svg>