<svg viewBox="0 0 2600 2760.837" xmlns="http://www.w3.org/2000/svg"><path d="M2205 1906q-136 241-378.5 384.5t-527.5 143.5q-279 0-520-139.5t-380.5-381-139.5-520.5 139.5-520.5 380.5-381 520-139.5 523 141.5 381.5 384 137.5 515.5q0 272-136 513z m-452-572q-3-81-13.5-152.5t-27.5-135.5q-77 23-164.5 37t-188.5 18v233h394z m-40 406q17-63 27.5-135t13.5-153h-395v233q101 4 189 18t165 37z m-867-288q3 81 13.5 152.5t27.5 135.5q78-23 165.5-37t188.5-18v-233h-395z m40-406q-17 63-27 135t-13 153h395v-233q-102-4-189.5-18t-165.5-37z m355-531q-103 73-184.5 179t-133.5 239q69 21 148 34t170 16v-468z m118 1756q108-78 187.5-183t129.5-235q-69-21-147.5-34t-169.5-16v468z m629-1491q-91-103-208.5-175t-254.5-107q93 88 156.5 187t106.5 209q60-25 109-54t91-60z m-629 203q91-3 169-16t147-33q-49-125-128-231.5t-188-186.5v467z m-284-485q-137 35-254.5 107t-209.5 175q42 31 91.5 60t109.5 54q42-111 106.5-210t156.5-186z m-300 508q-70-29-129-62.5t-108-70.5q-68 100-109 216.5t-49 244.5h347q4-93 16-174.5t32-153.5z m-395 446q8 128 49 244.5t109 216.5q49-37 108-70.5t129-62.5q-20-72-32-153.5t-16-174.5h-347z m432 440q-60 25-109.5 54t-91.5 60q92 103 209.5 175t254.5 107q-87-82-153-181t-110-215z m429-89q-91 3-169 16t-147 33q49 125 128 231.5t188 186.5v-467z m284 485q137-35 254.5-107t208.5-175q-42-31-91-60t-109-54q-54 138-124 235.5t-139 160.5z m299-508q71 29 129.5 62.5t107.5 70.5q69-100 110-216.5t49-244.5h-348q-7 184-48 328z m396-446q-8-128-49-244.5t-110-216.5q-49 37-107.5 70.5t-129.5 62.5q41 144 48 328h348z"/></svg>