<svg viewBox="0 0 2600 2760.837" xmlns="http://www.w3.org/2000/svg"><path d="M2538 1556q-2 39-6 79t-10 79q-33-65-87-97.5t-116-32.5q-54 0-98.5 27.5t-60.5 65.5-53 38q-27 0-45-19.5t-47-33.5-64-14q-43 0-89 24.5t-83 79-69 54.5q-22 0-41.5-9t-42.5-9q-31 0-61.5 34.5t-30.5 117.5q0 46 32.5 76.5t77.5 30.5q17 0 32-6t32-6q35 0 57.5 42t69.5 69.5 110 27.5q62 0 113-23t67-23q9 0 16 2t13 6q68 47 139 47l17-1q9 0 17-2-29 33-59.5 61t-63.5 51q-20-3-41-13.5t-41-23.5q-32 22-77 31.5t-83 9.5q-84 0-161.5-37.5t-125.5-104.5q-7 0-19 1-117 0-177.5-63t-60.5-159q0-99 61-175t162-76q15 0 23 2 3-21 3-44 0-168-119.5-287.5t-287.5-119.5q-152 0-267.5 101.5t-136.5 254.5q5 5 8.5 9.5t8.5 9.5l24-4q12 0 24-1 95 0 155.5 77t60.5 175q0 96-61 158.5t-175 62.5q-14 0-20-2-48 69-125.5 106t-161.5 37q-42 0-83-10.5t-78-29.5q-35 23-78.5 37.5t-88.5 14.5q-35-34-59.5-69t-44.5-82q23 13 49.5 19t52.5 6q41 0 77.5-14t52.5-26.5 35-12.5 68 23 113 23q61 0 111-29t70.5-70.5 55.5-41.5q16 0 31.5 7t32.5 7q45 0 77.5-33.5t32.5-89.5q0-55-24-96t-70-41q-21 0-40 9.5t-42 9.5q-16 0-29.5-11.5t-25.5-28.5l-25-33q-27-37-72-61.5t-89-24.5q-34 0-63.5 15t-46.5 33.5-45 18.5q-38 0-51.5-35.5t-58-66-103.5-30.5q-48 0-93 21t-77 59q-2-36-3-71t-1-70q11-8 25.5-15.5t28.5-12.5q51-264 215.5-481t409.5-339 519-122q285 0 539.5 132.5t417.5 366 200 513.5l25 10q28 11 51.5 25.5t44.5 35.5z m-2337-161q19-3 37-3 31 0 66 8 79-325 347-536.5t609-211.5q236 0 447.5 107.5t350 299 176.5 423.5q22-5 46-8t56-3q-42-258-195.5-470t-385.5-331-495-119q-375 0-674.5 236.5t-384.5 607.5z m1706 145q20-4 45-4 23 0 40 3-36-269-244.5-454t-487.5-185q-256 0-456.5 159t-261.5 404q14-3 27.5-5t27.5-2q8 0 17 1l16 2q58-207 233-341t397-134q242 0 426.5 159t220.5 397z m167 26l10 5 8 6q28-37 68-60-30-222-159.5-404t-326-282.5-414.5-100.5q-314 0-561 196t-321 500q22 13 41.5 28t36.5 35q55-288 282.5-477.5t521.5-189.5q204 0 383.5 95t296 269.5 134.5 379.5z m-330 56q20-17 42.5-31.5t45.5-25.5q-28-214-192.5-358t-379.5-144q-194 0-348 116.5t-207 298.5q22 10 43 21.5t41 25.5q38-160 170-265t301-105q193 0 334.5 135.5t149.5 331.5z"/></svg>