<svg viewBox="0 0 2600 2760.837" xmlns="http://www.w3.org/2000/svg"><path d="M2055 318q62 0 107 44.5t45 106.5v1900h-653v-322q0-34-25-59t-60-25h-339q-35 0-60 25t-25 59v322h-653v-1900q0-61 44.5-106t107.5-45h1511z m-1163.5 456q-8.5-21-19.5-30l-14-11q-7-5-12.5-11.5t-5.5-14.5q0-9 4-14l10-12q5-7 9-18.5t4-34.5q0-50-44-79.5t-112-29.5q-50 0-77.5 19.5t-27.5 57.5l1 32q0 12-1 23v25q0 12 1 76.5t1 106.5q0 41 13.5 61.5t59.5 23.5l49 2q84 0 127-40.5t43-91.5q0-19-8.5-40z m756.5 51l5-84q2-42 2-85 0-70-15-93.5t-45-23.5q-25 0-36 18.5t-13 46.5l-3 31q0 15-3.5 24.5t-11.5 9.5q-12 0-26-21l-32-44q-18-24-38-44.5t-43-20.5q-35 0-52.5 32t-17.5 102q0 43 3.5 85.5t3.5 84.5q0 37 14 69t41 32 40-20.5 13-64.5v-36l-1-30q0-7 1.5-13.5t9.5-6.5q17 0 40.5 40.5t47.5 81 64 40.5q27 0 39-25.5t13-58.5v-26z m365 75v-11q-3-28-41.5-84.5t-38.5-87.5q0-25 34.5-61.5t34.5-67.5q0-17-14-30.5t-32-13.5q-39 0-68.5 52t-46.5 52q-9 0-12-8.5t-3-22.5l-2-28q-2-26-16-42.5t-46-16.5q-27 0-38 25t-11 119v79q0 41 2 82v20q0 10-1 21 0 40 15.5 55.5t47.5 15.5q30 0 39.5-13.5t9.5-31.5q0-11-1-23.5t-1-23.5q0-14 6-27t18-13q10 0 20.5 11t18.5 26l19 41q9 21 21.5 36t34.5 15q16 0 32.5-13.5t18.5-30.5z m-766.5-82.5q-13.5-33.5-27.5-105.5t-33.5-130-75.5-58q-46 0-71 48t-34.5 114.5-28 121-18.5 92.5q0 21 11 34.5t39 13.5q52 0 57.5-43.5t51.5-43.5q35 0 43 42.5t57 42.5q12 0 27.5-9t15.5-39q0-47-13.5-80.5z m-33.5 304.5h-214v258h214v-258z m0 393h-214v258h214v-258z m763 0h-213v258h213v-258z m-1146 0h-212v258h212v-258z m763 0h-212v258h212v-258z m-763-393h-212v258h212v-258z m763 0h-212v258h212v-258z m383 0h-213v258h213v-258z m-1210.5-277q-11.5 10-24.5 10-22 0-28-8t-6-26q0-26 4.5-35t24.5-9q14 0 27.5 12t13.5 30q0 16-11.5 26z m-42.5-164q-9 0-13-10t-4-23l1-15q0-8 4-12l3-4q6-3 12-4h12q5 0 11 1.5t11 6.5l3 4q6 11 6 22 0 20-13 27.5t-24 7.5z m405 67q0 8 3 16t3 16q0 4-2 7.5t-9 5.5h-15l-17-2q0-5 1-10.5t1-10.5l2-7 8-49q0-3 2.5-6.5t6.5-3.5q3 0 5 5l5 12 4 15z"/></svg>