<svg viewBox="0 0 2600 2760.837" xmlns="http://www.w3.org/2000/svg"><path d="M2185 1744q-41 46-86 58 7 21 10 43t3 45q0 189-128 324.5t-342 171.5-400 36q-267 0-461.5-77.5t-269.5-198-82-261.5q-20-14-30-45.5t-10-70.5q0-60 24.5-100t69.5-72q-2-5-3-12l-3-11q-41-20-62-58.5t-21-81.5q0-65 52-118-39-35-55.5-85.5t-16.5-113.5q0-159 84-309.5t303-255.5 486-105q135 0 269 26.5t268 79.5 222.5 133 123 194 34.5 207q0 45-10 88t-33 77.5-39 52.5l-15 53q12 37 18 70 44 24 92.5 82t48.5 124q0 64-41 110z m-185 246l3-10q-20 14-40 19t-45 5q-84 0-98 22.5t-76 85-177 62.5q-38 0-66.5-12t-56.5-39q-19 0-31 2l-23 5q-17 3-64.5 37t-109.5 34q-90 0-151.5-50t-91.5-50q-15 0-30 8l-35 17q-19 9-43.5 17.5t-56.5 8.5q-72 0-122-39.5t-59-92.5-14.5-58-22.5-8l-23-4q-14-2-33-8 26 141 118.5 218t242.5 120 347 43q146 0 329.5-25t293-107.5 135.5-200.5z m-1481-737.5q48 44.5 138 88.5t226.5 72.5 337.5 28.5q402 0 623.5-89.5t221.5-263.5q0-80-27-172.5t-99.5-158.5-186.5-112.5-244.5-73-261.5-26.5q-244 0-442.5 95.5t-266 221-67.5 256.5q0 89 48 133.5z m1471 242.5q-83 100-252 163.5t-459 63.5q-106 0-199-7t-169-20q-16 5-31 9t-29 4q-45 0-93.5-27t-87.5-60.5-87-33.5q0 5 5 14l8 16q38 97 151.5 154.5t269 71 265.5 13.5q341 0 512.5-95.5t195.5-265.5z m-1468-116q-11 11-20.5 25t-9.5 33q0 24 12.5 38t37.5 14q67 0 97.5 7t105 60 106.5 53q17 0 34-8l34-15q29-14 67-27t80-13q43 0 75.5 14t52 28 62.5 14q16 0 40-18.5t52-46.5q-33 0-64 1t-63 1q-259 0-423.5-47.5t-218.5-79.5z m1558 170q-49 194-249.5 299t-548.5 105q-263 0-385-26t-214-78.5-160-158.5q-24 24-30.5 38.5t-6.5 40.5q0 69 85 81t112 43 38 96 87 65q31 0 77-26t85-26q36 0 63 12.5t44 23.5l35 25q25 20 47.5 29.5t51.5 9.5q45 0 84.5-34.5t134.5-41.5q51 0 77 23.5t47 24.5l13 1q92 0 137.5-62.5t82.5-85 131-22.5h19t19-12l8-14q8-16 21.5-79.5t77.5-88.5 64-77q0-37-47-85z m-908-845.5q-17-8.5-17-31.5 0-22 20-35.5t51-13.5q22 0 39 13t17 31q0 20-21 32.5t-50 12.5q-22 0-39-8.5z m185.5 115q19.5 13.5 19.5 33.5 0 13-14.5 27t-50.5 14q-25 0-44.5-10t-19.5-36q0-20 18-31t46-11q26 0 45.5 13.5z m59-82q-19.5-10.5-19.5-28.5 0-25 20-36.5t43-11.5q26 0 46 14.5t20 34.5-20.5 29-41.5 9q-28 0-47.5-10.5z m-373.5 56q20-12.5 45-12.5 23 0 43 12t20 29q0 20-23.5 33.5t-49.5 13.5-40.5-11-14.5-29q0-23 20-35.5z m464.5 27q15.5-11.5 50.5-11.5 20 0 36 14t16 31q0 20-21.5 34t-37.5 14q-20 0-39.5-16t-19.5-39q0-15 15.5-26.5z m197.5-21q-26-16.5-26-35.5 0-21 13-28t30-7q25 0 44.5 12t19.5 33q0 13-8.5 27.5t-24.5 14.5q-22 0-48-16.5z m-148 238q-10 13.5-25 13.5-24 0-47-17t-25-36q0-19 13.5-26t29.5-7q25 0 44.5 12t19.5 33q0 14-10 27.5z m-325.5-39.5q12.5 13 12.5 30 0 20-20 31t-43 11q-19 0-35.5-8t-16.5-23q0-23 23-38.5t49-15.5q18 0 30.5 13z m-337.5-68q-20 10-43 10-21 0-36.5-7.5t-15.5-25.5q0-22 22-37t47-15q18 0 32 11t14 32q0 22-20 32z m114-195q-21 11-44 11-20 0-35-8t-15-25q0-24 21.5-38t49.5-14q17 0 30.5 11t13.5 31q0 21-21 32z"/></svg>