<svg viewBox="0 0 2600 2760.837" xmlns="http://www.w3.org/2000/svg"><path d="M2438 1059q-36 41-142.5 206t-203.5 391-139 419.5-47 256-30.5 86.5-61.5 24q-35 0-58.5-25.5t-23.5-59.5l-7-74q-12-119-44.5-211.5t-87-185-134-162.5-122.5-96.5-43-49.5q0-18 18-27t43-10h25q88 0 193 44t181 120l11-79q8-67 14-137t6-126q0-175-62-290.5t-198-161.5l-10-3q-14-5-20.5-14.5t-6.5-28.5q0-33 15.5-45t35.5-12q40 0 139 55.5t159.5 190.5 60.5 300q0 22-2 48l-4 54q59-106 139-200.5t176-172.5l41-31q45-34 95.5-61t85.5-27q19 0 32 9.5t13 23.5q0 21-36 62z m-1275.5-232.5q-29.5 26.5-77.5 26.5-74 0-131.5-68.5t-57.5-154.5q0-25 12.5-47t49.5-22q90 0 162 58t72 131q0 50-29.5 76.5z m-532 77q-72.5-57.5-72.5-121.5 0-33 59-51.5t93-18.5q79 0 134.5 43t55.5 110q0 29-13.5 43.5t-44.5 33.5-73 19q-66 0-138.5-57.5z m-276 235q-69.5-37.5-69.5-79.5 0-29 62.5-75t141.5-46q74 0 114 41t40 80q0 31-42 74t-116 43q-61 0-130.5-37.5z m72.5 288.5q-58 44-139 44-67 0-105-19t-38-48q0-47 66.5-117t151.5-70q49 0 85.5 30.5t36.5 60.5q0 75-58 119z m1.5 377.5q-48.5 69.5-92.5 69.5-27 0-63-58.5t-36-128.5q0-66 35.5-117t97.5-51q37 0 72 43.5t35 101.5q0 71-48.5 140.5z m281.5-221.5l-16 26q-15 25-34.5 40.5t-38.5 15.5q-30 0-74-62t-44-139q0-62 33.5-109t88.5-47q34 0 75 43t41 114q0 61-31 118z m190-236q-33 65-68 65t-87-64.5-52-149.5q0-55 31.5-98.5t77.5-43.5q18 0 54 20t56.5 59.5 20.5 87.5q0 59-33 124z m247.5-132.5q-43.5 68.5-88.5 68.5-29 0-68-60t-39-134q0-67 35-114.5t93-47.5q30 0 70.5 43t40.5 109q0 67-43.5 135.5z m111-61.5q-19.5-59-19.5-97 0-77 41.5-132.5t110.5-55.5q42 0 69 44t27 89q0 77-61.5 144t-112.5 67q-35 0-54.5-59z m4.5-425q-53-68-53-157 0-39 14.5-58.5t44.5-19.5q74 0 150 59t76 138q0 37-21 71.5t-80 34.5q-78 0-131-68z"/></svg>