<svg viewBox="0 0 2600 2760.837" xmlns="http://www.w3.org/2000/svg"><path d="M2192 1225q42 47 57 106t15 131q0 119-77 256t-195 234.5-241 154.5v56q0 116-103.5 176.5t-314.5 60.5q-161 0-289-55.5t-128-161.5q0-11 1-24l2-23q-135-50-274-154.5t-224-249.5-85-270q0-81 21-148t77-116q8-35 23.5-65t35.5-51v-21q0-66 39.5-124.5t96.5-86.5q20-72 66.5-119.5t126.5-65.5l15-25q23-42 71-73.5t128-37.5l39-2q24 0 36.5-13t57.5-31 117-18q44 0 76.5 13t63.5 13l28-1q75 0 135 22.5t108 80.5q56 8 104.5 36t75.5 70 38 56q25 9 47 23t39 33 36 53.5 24 69.5l9 53q25 23 45.5 55t28.5 77l2 13q0 6 1 12 17 23 28.5 42t16.5 39z m-96 130v-26q-3-84-32.5-108.5t-29.5-55.5q-2-65-38.5-94t-36.5-65.5-16.5-80.5-66.5-65l-18-8q-22-10-51.5-58.5t-57-67-71-23.5-68.5-39-66.5-46.5-104.5-12.5-92.5-14-60.5-14q-77 0-113.5 32t-118 30.5-122.5 60.5l-19 28q-8 11-22.5 24t-51.5 26l-27 9q-22 8-40.5 25t-29.5 56l-11 37h-1q-10 34-37.5 39t-56.5 38.5-32 80.5q0 65-32 97t-32 90q0 37-19.5 65t-19.5 52q0 58 68.5 126t277 144.5 454.5 76.5q36 0 72-2t71-5q5-7 13-12l13-7q12-8 20-19l15-21q3-5 19.5-38.5t39.5-33.5q21 0 33.5 20.5t12.5 49.5q0 9-2 22.5t-5 16.5l31-7q203-42 300.5-99.5t129.5-117.5 32-106z m-440.5-437q13.5 27 13.5 43 0 30-29.5 60.5t-70.5 30.5q-16 0-33-13t-17-29q0-21 29-33.5t40.5-49 33.5-36.5q20 0 33.5 27z m-40.5 417q-27 30-63 30-19 0-37-12t-18-29q0-26 27-41t33-33l9-24q4-12 11-21t22-9q23 0 33 17.5t10 40.5q0 51-27 81z m-302.5 281q-25.5 30-63.5 30-20 0-37-11.5t-17-28.5q0-23 16-34l30-20q13-8 21-41t34-33q23 0 32.5 17.5t9.5 39.5q0 51-25.5 81z m576.5-472.5q8 15.5 8 51.5 0 39-18 67.5t-52 28.5q-14 0-33.5-11.5t-19.5-27.5q0-10 7-20t16-21l18-20q14-15 15.5-39t32.5-24q18 0 26 15.5z m-13 280q8 14.5 8 45.5 0 42-17.5 71.5t-51.5 29.5q-17 0-35-11t-18-26q0-10 7-20.5t16-20.5l18-20q8-10 11-18t3-18q0-8 7.5-17.5t26.5-9.5q17 0 25 14.5z"/></svg>