<svg viewBox="0 0 2600 2760.837" xmlns="http://www.w3.org/2000/svg"><path d="M2278 1368.5q-120 112.5-282 112.5-90 0-163-43.5t-119-43.5q-20 0-47 10t-91.5 113.5-100.5 201.5-36 327q0 56 6.5 135t42.5 95.5 62.5 47 26.5 72.5q0 54-56 90t-133 36q-116 0-172-58t-73-236-27-275-79-97q-40 0-109.5 41t-131 62.5-115.5 21.5q-63 0-128-33t-98.5-65-62.5-32q-21 0-44 6.5t-49 6.5q-47 0-72.5-27.5t-25.5-77.5q0-79 70.5-146.5t153.5-67.5q53 0 83 45t65.5 68 67.5 23q51 0 117-60.5t150-184.5l88-131q27-42 44.5-88t17.5-86q0-84-66-101t-117-17q-53 0-73.5 15t-20.5 43l1 10v12q0 58-35.5 98t-99.5 40q-58 0-99.5-42t-41.5-104q0-166 128-260t324-94q103 0 201.5 27t116.5 27q20 0 29.5-21t9.5-49q0-22-3.5-45.5t-3.5-53.5q0-144 96-240.5t237-96.5q151 0 256 98t105 245q0 59-20 121.5t-55 109.5-90.5 81-55.5 64q0 25 43.5 88t105.5 96 102 33q34 0 60-21t26-81q0-61 48.5-87t81.5-26q52 0 101 43t49 102q0 111-120 223.5z"/></svg>