<svg viewBox="0 0 2600 2760.837" xmlns="http://www.w3.org/2000/svg"><path d="M2170 2107q-118 202-348.5 308.5t-521.5 106.5q-318 0-549-119t-335.5-327-104.5-454q0-194 62-379t137-295q-25-29-39.5-83.5t-14.5-103.5q0-110 81.5-212t202-171 260-104 281.5-35q248 0 442 58t328 170.5 134 272.5q0 60-26 114t-71 92l22 36q72 119 125 288.5t53 351.5q0 283-118 485z m-1586-1092q-25 39-44 79l-39 83q20 44 59 67t147 29.5 144.5 88 80.5 111 98 29.5q37 0 122-26t133-26q65 0 98.5 52t33.5 164q0 164 35 215t107 51q66 0 103-60.5t37-168.5q0-37-1.5-76t-1.5-76q0-133 44-183.5t133-50.5q42 0 89.5 8t95.5 8q23 0 45-3.5t42-14.5q-23-86-60.5-169.5t-71.5-134.5l-10-1-22 13q-27 16-45.5 23.5t-33.5 7.5q-11 0-23.5-7.5t-12.5-21.5q0-25 46.5-58.5t92-100.5 45.5-133q0-82-78-173t-277-146-363-55q-189 0-371.5 51t-283 156-100.5 206q0 59 39 112.5t103.5 87.5 64.5 60q0 13-17 21.5t-39 8.5q-25 0-48.5-9t-46.5-17l-26-9q-12-4-23-12z m387-476.5q128-61.5 325-61.5 80 0 196.5 24.5t185.5 75 69 121.5q0 98-111 160.5t-307 62.5q-192 0-339-53t-147-154q0-114 128-175.5z m51 209.5q49 31 119 47t170 16l32-1q112-5 182.5-20.5t70.5-41.5q0-38-84.5-61.5t-204.5-23.5q-96 0-190.5 26t-94.5 59z"/></svg>