<svg viewBox="0 0 2600 2760.837" xmlns="http://www.w3.org/2000/svg"><path d="M2366.5 1749.5q-24.5 11.5-48.5 11.5-32 0-61.5-16.5t-54.5-42.5l-31-31q-45-45-109-62.5t-124-17.5q-4 0-9 1t-10 1l6 533q0 111-100.5 200.5t-210.5 89.5q-78 0-148.5-57.5t-70.5-140.5q0-104 93.5-181t217.5-77q35 0 69.5 8.5t64.5 27.5l-8-681q0-26 19.5-36t45.5-10q7 0 14 1l14 2q175 35 271 123.5t111 182 49.5 108 34.5 33.5-24.5 30.5z m-1144.5 181q-20 11.5-48 11.5-64 0-121.5-74.5t-129-100-141.5-25.5l-37 532q-6 97-106.5 181t-208.5 84q-83 0-152-60t-69-144q0-101 91-173t211-72q43 0 84 11t76 36l47-680q0-23 16.5-31.5t42.5-8.5q10 0 20 2l17 4q169 45 260.5 144.5t96.5 191.5 38 109 33 36q0 15-20 26.5z m-139-904.5q91-77 209-77 40 0 77.5 8t70.5 29l5-681q0-25 19.5-33.5t42.5-8.5h16q66 5 175 56.5t160 123.5 60.5 148.5 44 94 34.5 34.5-22 28.5-49 11.5q-32 0-61.5-16.5t-55.5-43.5l-31-32q-40-42-101.5-62t-149.5-20l-2 533q-2 108-103.5 196.5t-210.5 88.5q-82 0-150.5-58.5t-68.5-141.5q0-101 91-178z"/></svg>