<svg viewBox="0 0 2600 2760.837" xmlns="http://www.w3.org/2000/svg"><path d="M2112 1748q-91 56-203.5 266t-245.5 344-326 185l-41 12q-51 15-102.5 25.5t-89.5 10.5q-37 0-58-12t-21-44q0-39 36-138t116-170l22-19q17-89 27-178.5t10-180.5q0-44-1-87l-4-86q-32 13-66 19t-69 6q-220 0-360-159t-140-374q0-54 3.5-109.5t3.5-111.5q0-110-27-196.5t-103-138.5-76-91q0-37 36-56t107-19q119 0 211 41.5t117 119.5q-38 82-60.5 173.5t-22.5 196.5q0 71 12 140t39 133q-13-59-13-132 0-134 44-339t122.5-352.5 154.5-147.5q73 0 164.5 105.5t178.5 263.5l29 54q56 94 103 207t59 204l1-19v-21q0-124-38.5-237t-79.5-176-77-126q0-125 89.5-201t200.5-76q56 0 94 14.5t38 41.5q0 30-76.5 92.5t-76.5 195.5q0 100 49 267t49 283q0 217-120 368.5t-339 151.5q-18 0-26-2v36q0 104-1.5 206.5t-9.5 205.5q47-19 92-88.5t97-122 130-77.5 114-59l55-53q60-58 144.5-85t137.5-27q29 0 53.5 13t24.5 36q0 38-91 94z"/></svg>