<svg viewBox="0 0 2600 2760.837" xmlns="http://www.w3.org/2000/svg"><path d="M2144 682q-90 86-215.5 139t-249.5 53q-97 0-172-31t-86-50q-5 5-22 44.5t-31 92.5q0 7-2 15 12 0 23.5 1t22.5 1q34 0 70-1t73-1q158 0 254.5 43.5t175.5 124.5 126 207.5 47 285.5q0 242-119 464t-313 324-437 102q-166 0-326.5-45.5t-319.5-183-218-291-59-318.5q0-185 71-349.5t210-283 327-118.5q68 0 136 9l137 20 6-34q4-29 16.5-62t16.5-55l6-28q4-25 18.5-38t42.5-13q17 0 34.5 4.5t30.5 17.5q29-150 140-250.5t254-100.5q96 0 206.5 36t163 81.5 52.5 65.5q0 36-90 122z m-762 374q-13 0-27-1-5 17-5 40l-1 44q0 20 2 43t2 46q29 0 73-18.5t60.5-31 39.5-12.5q9 0 16 3.5t7 14.5q0 40-79 95t-192 55q-98 0-189.5-49.5t-91.5-100.5q0-17 7-23t17-6q15 0 56.5 22.5t151.5 48.5q-3-12-4.5-34t-1.5-40q0-26 2-53.5t6-54.5q-68-8-132-17.5t-125-9.5q-120 0-201.5 51.5t-148.5 134.5-108 201-41 251q0 320 231 526.5t583 206.5q209 0 374.5-83t275.5-276 110-419q0-136-39-245t-103-174-139.5-100.5-212.5-35.5h-73z"/></svg>