<svg viewBox="0 0 2600 2760.837" xmlns="http://www.w3.org/2000/svg"><path d="M2115 876q65 0 113.5 48.5t48.5 113.5v1330h-706v-213q0-38-26.5-64t-63.5-26h-363q-37 0-63.5 26t-26.5 64v213h-706v-1330q0-65 48.5-113.5t113.5-48.5h294q54 0 80-21t26-67v-301q0-67 48-114.5t113-47.5h509q65 0 113 47.5t48 114.5v301q0 46 26 67t80 21h294z m-1392 696h-201v257h201v-257z m0-408h-201v256h201v-256z m339 408h-202v257h202v-257z m0-408h-202v256h202v-256z m338 408h-201v257h201v-257z m0-408h-201v256h201v-256z m80-499q0-14-10-23.5t-25-9.5h-53q-14 0-24-9.5t-10-23.5v-55q0-14-9.5-23.5t-23.5-9.5h-51q-14 0-24 9.5t-10 23.5v55q0 14-9.5 23.5t-23.5 9.5h-55q-14 0-23.5 9.5t-9.5 23.5v52q0 14 9.5 23.5t23.5 9.5h55q14 0 23.5 10t9.5 24v54q0 13 10 23.5t24 10.5h51q14 0 23.5-10.5t9.5-23.5v-54q0-14 10-24t24-10h53q15 0 25-9.5t10-23.5v-52z m259 907h-203v257h203v-257z m0-408h-203v256h203v-256z m338 408h-203v257h203v-257z m0-408h-203v256h203v-256z"/></svg>