<svg viewBox="0 0 2600 2760.837" xmlns="http://www.w3.org/2000/svg"><path d="M2149.5 997.5q-158.5 103.5-304.5 221.5 116 41 207 133.5t91 192.5q0 40-23 69t-67 29q-24 0-47.5-8t-46.5-20l-45-23q-36-18-71.5-25t-78.5-9q102 46 164 140t62 213q0 123-63.5 224.5t-170.5 101.5q-51 0-92.5-40.5t-55.5-177-56.5-179-95.5-42.5q-43 0-88 44t-77.5 90-130 124.5-166.5 106-105 31.5-56 47.5-55 43.5q-18 0-75.5-36t-108.5-81l-17-15q-7-6-9-10.5t-2-9.5q0-8 7.5-32.5t7.5-57.5q0-43-14.5-114.5t-14.5-115.5q0-217 103-410h-22q-11 0-23 1-154 0-236-42.5t-82-127.5q0-117 125.5-198.5t322.5-81.5q18 0 36 1t35 4q-17-23-39.5-43t-47.5-39l-49-38q-39-30-63-65t-24-75q0-58 50-92t124-34q138 0 268 79t211 224q162-131 367.5-213t371.5-82q139 0 233.5 54t94.5 151q0 108-158.5 211.5z m-146.5-19.5l88-61q60-41 89.5-72t29.5-61q0-46-66.5-76t-163.5-30q-182 0-435 122.5t-401 310.5q90 81 146 180t62 228l12 11 147-145q127-126 257-230t235-177z m-1329 1000q5 32 5 66 0 16-1 30.5t-4 29.5l27 24 32-48q110-197 274-372 46-49 65.5-82.5t19.5-66.5q0-78-64.5-117.5t-259.5-39.5q-56 84-87.5 190.5t-31.5 218.5q0 26 3 51t11 57z m-9-673q29-1 55-1 214 0 324 26.5t193 86.5q-26-81-91-166t-178-142-228-57q-157 0-253.5 56.5t-96.5 128.5q0 34 65 51.5t155 17.5q26 0 55-1z m1130.5 389.5q-97.5-83.5-242.5-83.5-15 0-31 1t-32 3q99 58 153 174.5t63.5 233 49.5 116.5q62 0 99.5-72.5t37.5-156.5q0-132-97.5-215.5z m-1048.5-925.5l70 56q39 34 71.5 75t53.5 92q64 24 122 62 24-32 49-59.5t53-53.5q-46-87-122-156.5t-154-91.5-128-22q-28 0-52 7.5t-24 20.5q0 14 17 32t44 38z m1265 762q18 9 32 12-15-83-91-150t-180-91q-33 36-42.5 71.5t-9.5 87.5q7-2 15-2h16q62 0 116.5 15t108.5 41z"/></svg>