<svg viewBox="0 0 2600 2760.837" xmlns="http://www.w3.org/2000/svg"><path d="M584.5 793q180.5-269 472.5-381l26-9q17-5 40-5 54 0 99 42t45 104q0 50-29.5 113.5t-29.5 146.5q0 159 110 267.5t224.5 120 170 67.5 55.5 128q0 55-31.5 107t-94.5 105q11 11 23 31t17 47q52 36 72 84t19 69 61 36.5 103 15.5 105 8l22 3q60 11 95.5 45.5t35.5 94.5-48.5 116.5-181.5 128.5l-41 23q-115 60-235.5 88.5t-242.5 28.5q-277 0-519-138.5t-382.5-382-140.5-518.5q0-317 180.5-586z m62 1045.5q124.5 214.5 338.5 338t462 123.5q104 0 214.5-25.5t240-95.5 152.5-100 23-47q0-16-26-22t-63-8l-80-5q-77-4-156.5-34.5t-94-112.5-73.5-82q-12 0-21.5 2.5t-17.5 5.5l-17 7q-9 3-19 4 8-5 12.5-12.5t10.5-14.5l21-26q13-16 13-32 0-27-55-36t-55-42q0-36 58.5-76.5t97-83.5 38.5-77q0-28-27-49.5t-84-28.5l-33-4q-82-10-189-80.5t-167-183.5-60-238q0-42 7-83.5t21-83.5l8-18q7-16 15-36.5t8-34.5q0-17-10.5-24t-17.5-7q-27 0-150 70t-228.5 193-163 277.5-57.5 321.5q0 246 124.5 460.5z m260.5-380.5q88 0 141.5-39.5t67.5-104.5l3-13q2-15 13.5-24.5t25.5-9.5q17 0 28 11.5t11 28.5q0 27-30.5 90t-95 101.5-155.5 38.5l-25-1q-22 0-36-10t-14-30q0-17 11-28t28-11h15z"/></svg>