<svg viewBox="0 0 2600 2760.837" xmlns="http://www.w3.org/2000/svg"><path d="M1929.5 454.5q28.5-27.5 67.5-27.5 38 0 66.5 27.5t28.5 66.5q0 40-28.5 68t-66.5 28q-40 0-68-27.5t-28-68.5q0-39 28.5-66.5z m-1125.5-20.5q23-24 56-24t55.5 24 22.5 56-22.5 55.5-55.5 23.5-56-23.5-23-55.5 23-56z m-506 1690.5q-24 22.5-57 22.5-32 0-55-22.5t-23-55.5 23-56 55-23q33 0 57 23t24 56-24 55.5z m1068.5 431q-22.5 23.5-55.5 23.5t-56.5-23.5-23.5-56.5q0-32 23.5-55t56.5-23 55.5 23 22.5 55q0 33-22.5 56.5z m1022.5-1067q-23 23.5-56 23.5t-55.5-23.5-22.5-56.5 22.5-56 55.5-23 56 23 23 56-23 56.5z m-2262.5-277q-27.5-27.5-27.5-66.5 0-40 27.5-67t66.5-27q40 0 67.5 27.5t27.5 66.5q0 40-29 67t-66 27q-39 0-66.5-27.5z m2105.5-448.5q36-35 85-35 51 0 86 35t35 86q0 50-35 86t-86 36q-50 0-85.5-36t-35.5-86q0-51 36-86z m-1954-293q36-35 85-35 50 0 85 35t35 85q0 49-35 85t-85 36-85.5-35.5-35.5-85.5 36-85z m2137 2042.5q-26 26.5-61 26.5-38 0-64-26t-26-62q0-37 26-63t64-26q35 0 61 26.5t26 62.5q0 35-26 61.5z m-1858.5 17.5q-28.5 28-70.5 28-40 0-69-29.5t-29-68.5q0-40 29-69.5t69-29.5q42 0 70.5 28.5t28.5 70.5-28.5 70z m938-598q-61.5 70-156.5 70-99 0-159-67t-60-178q0-100 77-256.5t77-427.5q0-61-2.5-119t-2.5-118q0-97 2.5-191t2.5-191v-333h131v328q0 147-1.5 291t-1.5 299q0 303 77.5 457.5t77.5 264.5q0 101-61.5 171z m-713.5-782l-72-24q-127-42-164.5-85.5t-37.5-100.5q0-67 48-108.5t122-41.5q158 0 271.5 211t113.5 315q0 11-6.5 22t-18.5 11q-13 0-35.5-26.5t-82.5-86.5-138-86z m824-105q52-114 131-189t167-75q54 0 84.5 27.5t30.5 64.5q0 95-143 147.5t-201 139-93 86.5q-11 0-19.5-8t-8.5-22q0-57 52-171z m-734 790q42 2 86 12.5t44 29.5q0 37-84.5 58t-141.5 65-116 107.5-125 63.5q-37 0-65-21.5t-28-66.5q0-109 126.5-179t277.5-70z m258 245q10 2 22.5 6.5t12.5 18.5q0 10-6.5 20t-15.5 20l-17 19q-25 26-62 153.5t-132 127.5q-37 0-65-32t-28-86q0-101 90.5-174t200.5-73z m660.5 420q-29.5 28-71.5 28-28 0-52.5-10.5t-49.5-38.5-38-83-16-135-19-115.5-16-55.5q0-13 7-21t21-8q65 0 164.5 124.5t99.5 226.5q0 60-29.5 88z m-1211.5-945q-71 20-128.5 52.5t-115.5 32.5q-55 0-92-36t-37-87q0-92 92.5-142t229.5-50q111 0 223 38t191.5 100.5 79.5 102.5q0 10-7 17.5t-22 7.5q-21 0-86.5-28t-175.5-28q-81 0-152 20z m1675.5 768q-32.5 39-82.5 39-86 0-141.5-114.5t-134.5-200-192-123.5l-18-5q-17-5-31-14t-14-21q0-24 33-36.5t83-12.5q161 0 345.5 126t184.5 271q0 52-32.5 91z m213.5-398q-34 35-82 35-58 0-129.5-63t-173.5-114.5-200-51.5q-22 0-40 2.5t-45 2.5q-15 0-28.5-4.5t-13.5-19.5q0-12 10.5-26t26.5-26l15-10q55-31 115.5-44.5t122.5-13.5q218 0 337 77.5t119 172.5q0 48-34 83z m-190.5-849.5q53.5 36.5 53.5 97.5 0 53-43.5 88t-123.5 38l-53 2q-145 8-241.5 54t-136 94.5-62.5 48.5q-16 0-22-12t-6-28q0-40 39.5-115t133.5-152.5 176.5-114.5 160.5-37q71 0 124.5 36.5z"/></svg>