<svg viewBox="0 0 2600 2760.837" xmlns="http://www.w3.org/2000/svg"><path d="M2167 1874q-129 216-382.5 346.5t-542.5 130.5q-258 0-483.5-107t-340-312.5-114.5-451.5q0-378 280.5-669t703.5-291q159 0 341 40t333 164.5 242.5 303.5 91.5 356q0 274-129 490z m30-487q0-154-77-309.5t-218.5-273-309-152-304.5-34.5q-379 0-632 258t-253 603q0 64 9 128t25.5 119 38 102.5 50 91 55.5 74 61 61.5 62 45.5 64 37.5l-1-17q0-29 11.5-48.5t31.5-19.5q43 0 52.5 60t44.5 85l60 18q30 9 62 15-3-10-5-20.5t-2-20.5q0-31 15.5-47t33.5-16q35 0 44 58t34.5 63.5 92.5 5.5q87 0 173-15 0-3 1-8-3-18-17-39t-49-55.5-118-109-164-162-127.5-121-60-51-38-34-39.5-37.5q-9-12-9-30 0-25 14.5-50.5t40.5-51.5l28-28 14-23q9-14 29.5-27t30.5-23l32-30 37-31h-1q43-35 76.5-79t96-91 89.5-76 60-48.5 97.5-66 101.5-46.5q20 0 49 14t54.5 31.5 101.5 73.5 108.5 73 47.5 32.5 63 54.5l69 56 63 56q29 25 52 45.5t49 55.5v-26z m-842-560q8 9 8 17 0 18-26 30.5t-62 12.5q-53 0-73.5-38t-20.5-48q0-11 8-16t16-5q19 0 38.5 22t38.5 22q11 0 22.5-3t25.5-3q17 0 25 9z m563.5 135.5q-15.5 11.5-40.5 11.5t-46-7-48-34l-3-4q-5-5-9.5-14t-4.5-19q0-8 5.5-16t19.5-8q10 0 17.5 4.5t14.5 10.5l13 12q16 15 56.5 22t40.5 22q0 8-15.5 19.5z m-992 62.5q-35.5 33-71.5 33-32 0-51.5-9t-19.5-25q0-30 41.5-33t64.5-30.5 46-27.5q12 0 19 12t7 23q0 24-35.5 57z m-272.5 301q-10-18-10-34 0-8 10.5-18t34.5-10q23 0 35 22t12 57q0 39-13.5 64.5t-36.5 25.5q-11 0-21-10.5t-10-21.5q0-10 4.5-19t4.5-21q0-17-10-35z m120 450q9 0 21.5 7.5t12.5 26.5q0 17-16.5 27t-38.5 10q-28 0-69.5-17.5t-41.5-48.5q0-13 8-22.5t18-9.5 22 4l46 19q11 5 19 5z"/></svg>