<svg viewBox="0 0 2600 2760.837" xmlns="http://www.w3.org/2000/svg"><path d="M2097 1970q-104 238-308 361l-36 18v34q0 90-135 155.5t-318 65.5q-190 0-322.5-68t-132.5-161v-26q-219-110-332.5-355t-113.5-608q0-371 100.5-601t345.5-353v-31q0-93 132.5-162t322.5-69q189 0 321 68.5t132 162.5v31q251 125 349.5 359t98.5 596q0 345-104 583z m-205 105l-6 1-77 28-45 15q-82 28-170 40.5t-164 12.5q-75 0-113-15.5t-38-42.5q0-51 102-65.5t248.5-49.5 253.5-101 107-125q0-19-10-36.5t-29-20.5l-107 42q-101 39-209 60t-202 21q-75 0-114.5-15.5t-39.5-44.5q0-17 18-34.5t74-27.5l87-15q271-48 401.5-124t130.5-139q0-20-10-38t-29-18l-104 39q-138 52-240.5 67.5t-173.5 15.5q-72 0-113-15t-41-44q0-51 104.5-65.5t247-49.5 251-101 108.5-125q0-25-12.5-41.5t-34.5-16.5q-39 0-90 30t-168 62-252 32q-69 0-111.5-15t-42.5-46q0-52 118-67t192-35.5 150-55.5 124-92.5 48-129.5q0-12-1-18-17-22-55.5-60t-101.5-77v6q-6 90-137.5 155t-315.5 65q-188 0-319.5-66t-133.5-160q-170 103-246 290.5t-76 516.5q0 314 79 506.5t234 309 444 116.5q151 0 279.5-31t207-91 123.5-117z m-886-1679q1 3 1 5 6 50 92 86.5t201 36.5q120 0 207.5-39.5t87.5-94.5-87.5-95.5-207.5-40.5q-125 0-210 41t-85 95q0 3 1 6z"/></svg>