<svg viewBox="0 0 2600 2760.837" xmlns="http://www.w3.org/2000/svg"><path d="M2166 1433q-29 113-84 213 64 17 103 67t39 113q0 76-54.5 130.5t-130.5 54.5q-56 0-101-30.5t-67-78.5q-51 43-108 77t-119 60q56 16 94 66t38 111q0 75-54.5 129.5t-129.5 54.5q-23 0-44-6v74q0 18-13.5 29t-27.5 11h-415q-14 0-27-10.5t-13-29.5v-85q-14 3-27 3-76 0-130.5-54t-54.5-131q0-54 29.5-99t75.5-67q-120-52-216-134-23 48-68 79t-101 31q-76 0-130.5-54.5t-54.5-130.5q0-63 39-113t103-67q-55-100-84-213-68-10-113.5-61.5t-45.5-121.5q0-63 41-114t103-65l1-11q20-112 59.5-199.5t67.5-127 34.5-60 31-49 61.5-45.5q113-114 261-182t321-76l22-4q11 0 23-1l105 10q100 10 198 46t174.5 86 108 82 61 49.5 50.5 46 25 45 34 57 66 126.5q39 92 58 195l1 12q63 14 103.5 65t40.5 116q0 69-46 120t-113 61z m-151-609q-23 47-67 76.5t-100 29.5-100.5-30-66.5-78l-96 115q34 35 59 77.5t38 91.5l411-72q-12-56-32-108.5t-46-101.5z m-794 489l-6-4-170 98q24 31 50.5 52.5t58.5 38.5z m-162 680q14 4 28 7t28 7l62-339z m241-380l-33-1-22 118h109l-22-118z m-18-80l18 1 17-1-17-96z m191-587q-60-39-134-48v196l8 3z m-66 202l4 6 193-34q-10-35-28-65.5t-43-56.5z m-147-250q-74 9-134 48l126 151 8-3v-196z m-194 100q-25 26-43 56.5t-28 65.5l193 34 4-6z m-85 200l-1 17q0 65 26 123l170-99v-6z m212 824q27 3 53 5t54 2q27 0 53.5-2t52.5-5l-39-211h-135z m252-524q32-17 58.5-38.5t50.5-52.5l-170-98-6 4z m148-160q11-29 18.5-59.5t7.5-63.5l-1-17-193 35-2 6z m187-678.5q-32 22.5-32 53.5 0 21 22.5 28.5t83.5 7.5q48 0 74-9.5t26-26.5q0-31-34-53.5t-75-22.5q-33 0-65 22.5z m-317-243.5q10 20 15.5 40.5t5.5 43.5q0 65-41 115.5t-104 64.5v137q51 5 97.5 23t88.5 45l142-170q8-51 40.5-89t80.5-55l4-4q-72-55-154.5-93t-174.5-58z m-241.5 81q21.5 7 85.5 7 41 0 70-9t29-26q0-28-30.5-53t-79.5-25q-33 0-64.5 22t-31.5 55q0 22 21.5 29z m-85.5-80q-92 19-174 57t-154 93l3 4q48 17 80.5 55t41.5 89l141 170q42-27 88.5-45t97.5-23v-137q-63-14-104-64.5t-41-115.5q0-23 5.5-43.5t15.5-39.5z m-462 324.5q23 6.5 84 6.5 46 0 72-8.5t26-24.5q0-35-35.5-56.5t-72.5-21.5q-36 0-66.5 22.5t-30.5 53.5q0 22 23 28.5z m-89 82.5q-55 100-79 210l411 72q13-49 38-91.5t59-77.5l-96-115q-22 48-66.5 78t-100.5 30-99.5-29.5-66.5-76.5z m-178 426q9 2 24 3t32 1q56 0 78.5-9t22.5-26q0-24-32-50.5t-77-26.5q-34 0-65 23t-31 54q0 14 15 22.5t33 8.5z m107 176q23 85 61 160l362-208q-17-38-27-79t-10-84q0-8 1-15.5t1-14.5l-305-54q22 25 34.5 55t12.5 64q0 63-36.5 110.5t-93.5 65.5z m117.5 315.5q-34.5-23.5-71.5-23.5t-68.5 21.5-31.5 54.5q0 22 23 29t86 7q39 0 68-8t29-28q0-29-34.5-52.5z m111.5 66.5q105 100 241 157l142-391q-45-22-83-54t-68-74l-354 206q49 17 83 59t39 97z m357 309.5q-30-24.5-77-24.5-33 0-65.5 23t-32.5 54q0 22 23 28.5t86 6.5q42 0 69-8t27-26q0-29-30-53.5z m339 200.5q-32-44-32-102 0-23 5-43t14-39l-7-34q-29 4-59 6t-60 2q-31 0-61-2t-59-6q30 47 30 101 0 34-11.5 63.5t-31.5 53.5h272z m45-311q14-4 28-7t28-7l-118-323z m40 122.5q-32 22.5-32 53.5 0 25 36 30.5t71 5.5q49 0 73.5-9t24.5-25q0-31-35.5-54.5t-73.5-23.5q-32 0-64 22.5z m332-321.5q5-55 39-97t83-59l-354-206q-30 42-68 74t-83 54l142 391q136-57 241-157z m114.5-67.5q-31.5 22.5-31.5 53.5 0 19 26 27.5t82 8.5q49 0 73.5-9t24.5-25q0-32-35.5-55t-72.5-23q-35 0-66.5 22.5z m53.5-154.5q38-75 61-160-55-18-92-65.5t-37-108.5q0-35 12-65.5t32-55.5l-303 54q0 8 1 15t1 15q0 43-10 84t-27 79z m107-332h20q40 0 68-9t28-26q0-30-34.5-53.5t-72.5-23.5q-34 0-66.5 22t-32.5 55q0 24 29.5 29.5t60.5 5.5z"/></svg>