<svg viewBox="0 0 2600 2760.837" xmlns="http://www.w3.org/2000/svg"><path d="M2465 791q15 8 23 22t8 31v10q0 6-3 11l-454 1271q-7 17-21 28.5t-34 11.5q-27 0-36-10.5t-148.5-84.5-331-116.5-463-42.5-401-34-193.5-82l-153 342q-11 23-31 35.5t-43 12.5q-38 0-59.5-24.5t-21.5-56.5q0-8 1-16t6-16l634-1417q11-23 34.5-36t49.5-13q13 0 31 5l53 14q56 15 159.5 35.5t195.5 20.5q95 0 269-26t301-26q181 0 347 46.5t220.5 75.5 60.5 29z m-837 186q82 0 161 11.5t156 40.5l19-44q35-81 53.5-116.5t22.5-48.5 15-38q-51-9-107.5-14.5t-110.5-5.5q-37 0-73 2t-72 6q-19 45-42 127.5t-22 79.5z m-631-8h6q29 7 58 8t58 1q22 0 42 1.5t41 1.5l12-1h18q11 0 19 2 14-46 35.5-89t35.5-80l-55 1q-46 0-94-5.5t-97-13.5l-2 4q-4 14-26.5 59.5t-41.5 89.5z m-369 797q35-61 64-122t55-127q-46 0-92.5-10.5t-91.5-21.5l-8-1-95 210 27 15q24 15 57 28.5t84 28.5z m126-552q14 3 30 4l32 2q16 0 30 2.5t24 5.5q4-4 9.5-16.5t11.5-28.5l12-31q6-16 14.5-31.5t20-59 18.5-56.5l7-17q-5 0-14 1-49 0-91.5-6.5t-71.5-13.5l-106 237q18 3 37 4z m160 295l51 4q13 0 23.5 2t14.5 3q0-22 17.5-46.5t48-85.5 35.5-80.5 15-35.5q-6 2-17 2-57 0-112-4.5t-108-17.5q-4 23-41 103.5t-61 137.5q-3 2-3 7 15 0 71.5 5t65.5 6z m416 57q-21-2-29.5-5.5t-89-10.5-192.5-11q-13 56-38.5 127.5t-58.5 131.5l139 2q72 0 153 6l9-20q15-33 31-62t26-51z m141-290q8-18 14.5-35.5t14.5-34.5l3-10q23-56 43.5-102t41.5-91q-50 0-99-5t-97-5q-25 0-49.5 1.5t-49.5 1.5h-17q-9 0-17-1l1 9q0 18-11.5 41t-30.5 88.5-52 110.5q14 0 28.5 1.5t28.5 1.5q83 0 158.5 8.5t89.5 20.5z m-104 268l37 2q61 4 154 19t122 37q8-13 13.5-27.5t12.5-28.5l4-7 26-51q14-25 27.5-57t38.5-79l-19-6q-12-3-33.5-4t-51.5-7l-65-12q-33-6-66-11t-67-5h-16t-11-4q0 2-14 41.5t-38 86.5l-23 46q-12 23-20 47z m692 174q-82-31-219-54t-153-23q-8 20-18.5 38.5t-16.5 38.5l-27 75-29 79q86 24 174 61t180 92z m211-589q-67-21-134-31t-98.5-18.5-55.5-8.5q-17 0-30-6 0 11-4 20l-9 18q-18 57-37.5 113t-45.5 109q79 5 163.5 19.5t156.5 47.5z"/></svg>