<svg viewBox="0 0 2600 2760.837" xmlns="http://www.w3.org/2000/svg"><path d="M2190 2177.5q-96 196.5-185.5 253t-205.5 56.5q-92 0-169.5-33.5t-139.5-96.5q-86 54-199 82.5t-217 28.5q-172 0-339-73.5t-264-255.5-97-360q0-128 47.5-256t123.5-248 137.5-219.5 61.5-251.5q0-68-13-134.5t-43-157.5l-5-14q-2-6-3-13t-1-18q0-104 120.5-168.5t268.5-64.5q170 0 290.5 58.5t120.5 172.5q0 41-32.5 135t-32.5 204q0 158 63 257.5t149.5 237 126.5 269.5h10q230 6 376.5 79t146.5 216q0 118-96 314.5z m-85-85.5q-5-3-12-3-15 0-76.5 13.5t-185.5 13.5q-190 0-272.5-15t-83.5-15q-8 0-16 4t-8 19q0 51 97.5 166t250.5 115q69 0 126.5-27t121-133 63.5-125q0-10-5-13z m-120.5-84.5q28.5-9.5 45.5-24t17-40.5q0-41-83.5-73.5t-206.5-32.5q-95 0-182 34.5t-87 71.5q0 34 50.5 54t292.5 20q125 0 153.5-9.5z m138.5-40.5q33-18 49.5-45t16.5-62q0-51-31.5-80t-80.5-52.5-133-42-191-18.5q-151 0-279.5 57t-128.5 143q0 23 17.5 48t46.5 39v-11q0-82 110.5-134t237.5-52q145 0 256.5 48t111.5 136q0 6-1 13t-1 13z m-1235-1432.5q81 26.5 195 26.5l30-1q94-4 163.5-32t69.5-75q0-62-71-94t-215-32q-85 0-169 34t-84 92q0 55 81 81.5z m528 1730.5l-26-39q-19-29-38.5-63.5t-35.5-73.5l-20-48q-21-49-34.5-91.5t-13.5-71.5q0-117 101-193t281-107q-46-137-169-319.5t-144-277.5-21-176q0-40 3.5-77t9.5-71q0-4-5-4-56 17-116 22t-117 5q-47 0-106.5-6.5t-116.5-26.5q6 35 9.5 74.5t3.5 82.5q0 107-24 192.5t-139 258-160.5 292-45.5 231.5 46.5 226.5 111.5 188 184.5 115.5 239.5 42q83 0 175-20.5t167-64.5z"/></svg>