<svg viewBox="0 0 2600 2760.837" xmlns="http://www.w3.org/2000/svg"><path d="M2128 2065q-101 121-246 216.5t-343 157.5-394 62q-356 0-565-127t-209-366q0-102 48-197.5t158-166.5l41-25q19-12 34-27l-7-157q-8-164-52-412.5t-53-282-9-75.5q0-130 226-225t553-95q258 0 441 70.5t183 186.5q0 22-2 32l-6 23q-4 15-8.5 46.5t-9.5 71.5l-10 85q-36 288-47 455.5t-13 356.5q41-29 90.5-52.5t105.5-23.5q87 0 141 55t54 149q0 144-101 265z m-1157-263q-2-205-17-427.5t-43-462.5q-64-9-121.5-26t-118.5-45q2 14 5 26l6 26q25 132 43.5 265.5t26.5 269.5l15 307q45 31 100.5 45t103.5 22z m387 568q166-36 298.5-94t228.5-130 166-158.5 70-187.5q0-48-22-71.5t-65-23.5q-40 0-96 32.5t-104 80.5l-36 35q-9 9-23 24l-42 45q-64 64-174 217.5t-201 230.5z m-585-357q56 40 166 60.5t246 20.5q76 0 146.5-8.5t147.5-19.5q58-80 116-150.5t135-147.5l-1-24q-99 72-239 110.5t-305 38.5q-85 0-216.5-22t-200.5-53l4 116q0 48 1 79z"/></svg>