<svg viewBox="0 0 2600 2760.837" xmlns="http://www.w3.org/2000/svg"><path d="M2303.5 1545q-102.5 188-283 289.5t-420.5 101.5q-210 0-424.5-94.5t-338-254.5-123.5-355q0-49 16-89.5t41-40.5q27 0 32.5 41t55.5 147.5 164 214 275 163.5q117 42 243 42 163 0 308-73t231-202 86-278q0-147-82.5-291.5t-216-230-280.5-85.5q-219 0-343.5 111.5t-124.5 313.5q0 167 112.5 291.5t274.5 124.5q111 0 192.5-69t81.5-171q0-79-59-150.5t-133-71.5q-34 0-49.5 13.5t-15.5 32.5q0 39 71 68t71 100q0 58-57 97t-127 39q-107 0-181.5-92.5t-74.5-210.5q0-149 99-240.5t253-91.5q118 0 230.5 69.5t181.5 184.5 69 233q0 221-163 350t-396 129q-255 0-440-191.5t-185-457.5q0-174 93-316t254-220.5 342-78.5q218 0 415.5 106t312.5 292.5 115 410.5q0 202-102.5 390z m-1341.5 312q9 7 9 19 0 16-13 29.5t-24 23.5l-54 57q-86 85-263 269t-222.5 230.5-99.5 46.5q-46 0-74-30t-28-75q0-41 32.5-69t36.5-31l171-158q390-360 410.5-377t29.5-17q10 0 16 7l11 15z"/></svg>