<svg viewBox="0 0 2600 2760.837" xmlns="http://www.w3.org/2000/svg"><path d="M1889.5 1876.5q-143.5 205.5-392 328t-511.5 122.5q-211 0-386-83.5t-290-235.5q96 54 192 79.5t201 25.5q83 0 138.5-12.5t55.5-36.5q0-16-15-23.5t-98.5-83-151.5-216-68-306.5q0-236 143.5-441t392.5-328.5 511-123.5q209 0 384.5 82.5t293.5 236.5q-89-49-191-77t-202-28q-87 0-140.5 13t-53.5 36q0 20 35 40.5t113 104 130.5 211.5 52.5 274q0 236-143.5 441.5z m-376-228q89.5-89.5 89.5-213.5 0-125-89.5-214.5t-213.5-89.5q-125 0-214.5 89.5t-89.5 214.5q0 124 89.5 213.5t214.5 89.5q124 0 213.5-89.5z"/></svg>