<svg viewBox="0 0 2600 2760.837" xmlns="http://www.w3.org/2000/svg"><path d="M2150.5 1896.5q-131.5 227.5-359 359t-490.5 131.5q-261 0-488.5-130.5t-360.5-358.5-133-492q0-262 131-490t359.5-360 491.5-132 491 132 359 360 131 490q0 263-131.5 490.5z m-954-259q46.5 37.5 104.5 37.5 50 0 87.5-27t37.5-53q0-9-7-15t-16-6q-12 0-37 25t-65 25q-34 0-65-21.5t-31-55.5q0-37 32.5-103.5t32.5-135.5q0-47-19.5-95.5t-45.5-48.5q-9 0-14 7.5t-5 18.5q0 17 5 29l11 26q7 18 11 33.5t4 36.5q0 64-33.5 126.5t-33.5 106.5q0 52 46.5 89.5z m-225.5-406q-32-37.5-79-37.5-48 0-80 37.5t-32 85.5q0 50 33.5 86.5t78.5 36.5 78-36.5 33-86.5q0-48-32-85.5z m558.5 518.5q-6.5-11-21.5-11-18 0-72 30.5t-122 30.5q-74 0-133-31t-72-31-20.5 10-7.5 21q0 39 71.5 81t167.5 42q89 0 152.5-46t63.5-78q0-7-6.5-18z m255.5-519.5q-32-36.5-79-36.5-48 0-80 37.5t-32 85.5q0 50 33.5 86.5t78.5 36.5 78-35.5 33-87.5q0-50-32-86.5z"/></svg>