<svg viewBox="0 0 2600 2760.837" xmlns="http://www.w3.org/2000/svg"><path d="M2078 594q24 13 41 41.5t17 55.5v1700h-584v-218q0-35-24-60t-59-25h-339q-35 0-60 25t-25 60v218h-582v-1700q0-27 17-55.5t41-41.5l720-403q13-8 27.5-10.5t31.5-3.5q16 0 30.5 4t27.5 10z m-1213 997h-213v257h213v-257z m0-451h-213v258h213v-258z m356 451h-213v257h213v-257z m0-451h-213v258h213v-258z m131-385q0 69 8.5 90t47.5 21 59.5-13 20.5-54v-22l-1-19q0-38 1-75.5t1-75.5q0-102-14.5-127.5t-56.5-25.5q-31 0-48.5 16.5t-17.5 60.5q0 13 1 24t1 19q0 19-6.5 24.5t-14.5 5.5h-63q-11 0-18-6.5t-7-23.5q0-8 1-19t1-24q0-77-66-77-34 0-52 21t-18 60v23q0 12-1 26 0 42 1 85.5t1 88.5v19q0 11-1 22 0 41 20.5 54t59.5 13q35 0 45.5-16.5t10.5-71.5v-39q0-10 5-16t22-6h45q16 0 24.5 3t8.5 12v23z m226 836h-213v257h213v-257z m0-451h-213v258h213v-258z m356 451h-212v257h212v-257z m0-451h-212v258h212v-258z"/></svg>