<svg viewBox="0 0 2600 2760.837" xmlns="http://www.w3.org/2000/svg"><path d="M2096 1721.5q-174 328.5-523 506t-719 177.5q-215 0-313-58.5t-155-241-57-379.5q0-349 175.5-649.5t480-477 660.5-176.5q163 0 296 35.5t197 84 98 176 34 291.5q0 383-174 711.5z m-1108 577.5q71-8 146.5-22.5t153.5-39.5q-6 0-10-1-14 0-147-39.5t-294.5-140-275.5-223-126-145.5l-6-11q-2 14-2 27v26q0 39 4.5 101.5t12.5 97.5q54 73 124 142t142.5 115.5 160.5 74.5z m403-1553.5q-63-43.5-132-43.5-27 0-61.5 15.5t-34.5 41.5q2 8 7.5 15t5.5 17q0 12-12 17.5t-30 7.5l-38 4q-43 4-62 17.5t-19 40.5q0 19 9.5 35.5t9.5 29.5q0 11-13.5 17.5t-27.5 6.5l-28-1q-34 0-62.5 20.5t-28.5 46.5q0 14 5.5 26t5.5 25q0 28-33.5 28t-76 22.5-42.5 67.5q0 15 8 24t8 19q0 8-7.5 12.5t-19.5 4.5l-19-1q-28 2-48.5 21.5t-20.5 46.5q0 44 67.5 95.5t123.5 51.5q27 0 47-16t20-41q0-10-4-19l-20-37q-5-9-6-20 0-11 16-11t36 6l26 8q4 0 14 1 32 0 55-21.5t23-55.5q0-22-16.5-44.5t-16.5-40.5q0-6 4.5-11t17.5-5 25 3l23 8q11 4 23 7.5t25 3.5q37 0 56-20.5t19-48.5q0-35-22.5-60t-22.5-33q0-6 9.5-11t19.5-5 19 3l17 6q8 4 17.5 7t21.5 3q29 0 53-15t24-39q0-10-4-19l-8-18q-5-9-9-18.5t-4-19.5q0-14 10-19.5t23-5.5q14 0 26.5 7t32.5 7q28 0 43.5-12t15.5-29q0-62-63-105.5z m759 515.5q11-69 16.5-133t5.5-124v-39q-63-124-169.5-230.5t-281.5-210.5q-18-2-36-2h-38q-39 0-86 3t-101 11q49 17 93 38.5t89.5 50 97.5 70 101 91 91.5 102 91 126.5 72.5 126z"/></svg>