<svg viewBox="0 0 2600 2760.837" xmlns="http://www.w3.org/2000/svg"><path d="M2427.5 2446.5q-45.5 47.5-98.5 47.5-30 0-60.5-16.5t-44-60-26.5-62.5-35-19q-23 0-70 61t-105.5 104-128.5 43q-37 0-79-11t-58-11-30.5 3.5-29.5 3.5q-68 0-90-32.5t-42-32.5q-11 0-22.5 4.5t-23.5 4.5q-26 0-58-16t-38-39l-7-25q-5-15-25-26t-45-29.5-51-18.5q-15 0-29.5 4t-29.5 4q-56 0-109.5-43t-53.5-98q0-17 4.5-34t4.5-37q0-31-10.5-63.5t-10.5-65.5q0-63 25.5-148t82.5-134.5 96.5-62.5 39.5-30-109.5-79.5-198-97-185.5-34.5q-29 0-63 4l-72 10q-38 6-80 10.5t-88 4.5q-164 0-255.5-86.5t-91.5-245.5q0-189 114.5-368t295.5-288.5 347-109.5q162 0 244.5 96.5t82.5 316.5q0 38-1.5 76.5t-1.5 76.5q0 176 39.5 304t159.5 246 266 242l74 63q28 24 70.5 57t56.5 33q16 0 18.5-15.5t15.5-26.5 35-11q35 0 60.5 29t25.5 63q0 23-23.5 34.5t-23.5 18.5q0 11 11 23.5t28 12.5q14 0 23-23.5t33-23.5q26 0 49 22.5t23 48.5q0 16-9.5 23t-18.5 11l-19 7q-9 4-9 14 0 13 14.5 23t28.5 10 21.5-13 26.5-13q24 0 45.5 19.5t21.5 39.5q0 19-16 25.5t-16 19.5q0 17 36 48.5t66 31.5q9 0 19-1.5t19-1.5q35 0 74.5 29t39.5 79q0 54-45.5 101.5z m-1452-1916q-40.5-37.5-101.5-37.5-124 0-262 87t-225 218.5-87 254.5q0 78 42.5 120.5t120.5 42.5q116 0 248.5-87.5t218.5-220 86-260.5q0-80-40.5-117.5z m589.5 1664.5q5-6 5-16 0-28-65-64.5t-126-36.5q-32 0-68 9t-36 24q0 16 58.5 69.5t82.5 75.5 48 22q20 0 38.5-14t34.5-33z m157 84q0-10-9-17t-21-7q-22 0-41 16.5t-50 46.5-31 45q0 12 15 20.5t27 8.5q23 0 52-29.5t54-72.5q4-6 4-11z m10-249q8-11 19.5-28.5t11.5-29.5q0-13-10.5-23t-106.5-87-191-77q-102 0-165.5 53t-63.5 111q0 17 16 17 5 0 11-2l10-4q22-11 50-15t51-4q70 0 135.5 32.5t111 68.5 66.5 41q9 0 21-12t24-27z m119 324.5q-20-18.5-36-18.5-15 0-46 30.5t-31 53.5q0 8 8.5 11t17.5 3l18-1q25-2 57-12t32-32q0-16-20-34.5z m21-196q36-48.5 36-69.5 0-9-8-21t-29-12q-14 0-25.5 9t-22.5 20l-16 18q-18 18-28 35t-10 32q0 16 12 26.5t26 10.5q29 0 65-48.5z m131 112.5q15-16 15-37 0-16-11.5-34.5t-28.5-18.5q-21 0-49 33t-28 52q0 17 16.5 33.5t34.5 16.5q10 0 22-13z"/></svg>