<svg viewBox="0 0 2600 2760.837" xmlns="http://www.w3.org/2000/svg"><path d="M2046.5 1798.5q-151.5 218.5-376 322t-504.5 103.5q-356 0-560.5-208t-204.5-573q0-218 127.5-419.5t344-323 444.5-121.5q138 0 300.5 38.5t296 145.5 209 253 75.5 325q0 239-151.5 457.5z m-562.5-653.5l-2-6q-15-3-30-5l-29-4q-29-4-49.5-15t-34.5-25l-24-22q-33-30-57.5-33t-24.5-19q0-10 14.5-25t42.5-33l17-11q75-52 103.5-100.5t28.5-107.5q0-10-6-16-3 0-29.5 22.5t-122 49-121 50-38.5 23.5q-14 0-25.5-23t-11.5-50q0-10 1-17l2-16 2-22q0-14 1-38 0-29-11-29-8 0-19 7l-16 11q-58 37-91.5 109t-40.5 122-85 50-120 29-80 29q-5 0-10.5-1t-10.5-1q-6 0-11 2.5t-5 8.5q0 27 51 56.5t113 29.5q5 0 11-1t12-1q10 0 14 4.5t4 10.5l-14 41q-13 37-24.5 107.5t-51.5 110.5l-14 14q-8 7-14 14t-7 14q18 11 40 11 47 0 119.5-47.5t113.5-118.5 82-71q13 0 34 6l46 14q24 8 51 14t51 6q47 0 108-5.5t114.5-47 53.5-55.5z m-408.5-176.5q16.5 14.5 16.5 39.5 0 37-43.5 69t-85.5 32q-25 0-42.5-16.5t-17.5-38.5q0-39 44.5-69.5t88.5-30.5q23 0 39.5 14.5z"/></svg>