<svg viewBox="0 0 2600 2760.837" xmlns="http://www.w3.org/2000/svg"><path d="M1807 1573q-114 182-192.5 411.5t-104.5 477.5v1q0 34-99.5 68t-269.5 34q-180 0-270.5-34t-96-73.5-20-136-61.5-260-128.5-327.5-134-224.5-52.5-125.5q0-100 115-185t303-127q8 29 18.5 57t22.5 56q-133 32-207.5 81.5t-74.5 105.5q0 89 171.5 154.5t414.5 65.5q54 0 95.5-2.5t47.5-3.5 50 11 94.5 19.5 105.5 7.5q68 0 137-11.5t136-39.5z m160-175q-88 72-192.5 107.5t-222.5 41.5q-148-153-243.5-358t-102.5-409q226 8 438 213t323 405z m-733-879l11-32q5-16 11-31 148-8 330.5-81t293.5-73q156 89 247.5 240t93.5 328q-192-159-432.5-255.5t-510.5-96.5q-29 0-44 1z m-28 180q2-27 4.5-53t7.5-54h33q227 0 468 108.5t484 329.5q-17 74-50 140t-80 123q-101-151-222-268t-293.5-221.5-351.5-104.5z m133 822q-145-43-254.5-135.5t-169.5-215.5q3-142 53.5-247.5t142.5-131.5l-1 33q0 176 55 353.5t174 343.5z m-188 248q-29 37-64 87.5t-73 113.5q34 69 68.5 149.5t68.5 171.5q34-78 69.5-149t72.5-135q-39-76-76-135.5t-66-102.5z m-84 737q22-67 50-133-33-97-68.5-181.5t-71.5-158.5q-29 51-57.5 108.5t-57.5 123.5l39 112q19 55 35 112 25 5 58.5 10t72.5 7z m315-110q17-46 36-91-23-66-46.5-124t-46.5-109q-77 135-145 302l20 65q10 33 19 67 38-3 70.5-7.5t58.5-9.5z m-682-502q34 74 69 147.5t64 145.5q56-123 112-218-43-86-82.5-151.5t-70.5-110.5q-26 45-49 91.5t-43 95.5z m822 189q28-101 62-187-14-33-30-65.5t-33-64.5q-36 49-77 110t-84 133q23 48 46 101.5t46 115.5z m-405-1375q-85 20-153 88.5t-110 180.5q-4-24-6.5-48t-2.5-49q0-44 6.5-85.5t17.5-81.5q54-48 122-76t141-38q-5 28-9 55.5t-6 53.5z m172-312q38-59 95-106t138-79q119 0 226 33l-25 4q-37 7-186 71t-248 77z m193 1300q-66 14-137 24.5t-149 11.5q29 38 62.5 91.5t70.5 123.5q43-72 85-131.5t77-105.5z m-309-1242q-8 17-14 34.5t-11 37.5q-78 11-136.5 30t-100.5 42q31-66 74-121.5t97-100.5q10 33 33 52t58 26z m-69 1279q-64-2-123-8t-115-15q25 38 54 88t61 111q35-56 66-100t57-76z m-489-33l29 61q15 32 29 67 17-38 36-73.5t40-71.5q-15-4-35-10l-72-22q-14-4-17-4-8 0-13 3.5t-5 11.5q0 13 1.5 19.5t6.5 18.5z m1051-40q-8-6-21-6-21 0-35.5 8.5t-31.5 29.5l-23 30 28 54q14 27 25 55l32-72q19-44 26.5-57t7.5-25q0-11-8-17z m-464-1263q-38-6-50.5-22t-12.5-35v-7q48-33 102-58t113-39q-35 23-76.5 63t-75.5 98z m-370 2053q5 8 37 22l-19-64q-10-31-21-62l-8 17q4 22 6.5 43.5t4.5 43.5z m624-32q-3-13-9-27l-29 79q14-5 23-10t11-10z m-297 89l-14-45-16 45h30z"/></svg>