<svg viewBox="0 0 2637.4458 2760.837" xmlns="http://www.w3.org/2000/svg"><path d="M103.9458 427q-18.5-13-18.5-39 0-23 12.5-35.5t55.5-12.5q54 0 73 11.5t19 36.5q0 32-18 41t-45 9q-8 0-16.5 1t-17.5 1q-26 0-44.5-13z m2417.5 408.5q-15 13.5-67 13.5-32 0-55.5-9.5t-23.5-43.5q0-22 12.5-34.5t55.5-12.5h30q23 0 43 12t20 36q0 25-15 38.5z m-304.5 1692q-15.5 13.5-69.5 13.5-31 0-53.5-11.5t-22.5-40.5q0-24 14-36t59-12q53 0 70.5 13t17.5 35q0 25-15.5 38.5z m358-2102q-14.5 14.5-64.5 14.5-45 0-63-13.5t-18-38.5 15-36.5 70-11.5q38 0 56.5 12t18.5 36q0 23-14.5 37.5z m-144.5 641.5q-19 13-74 13-38 0-63.5-11.5t-25.5-42.5q0-24 16-36t58-12q61 0 84.5 11.5t23.5 36.5q0 28-19 41z m-1474.5-640.5q-24.5-13.5-24.5-38.5t19-36.5 69-11.5h39q36 0 63.5 11.5t27.5 36.5-20 37.5-66 12.5q-9 0-21.5 1t-25.5 1q-36 0-60.5-13.5z m522.5 1805.5q-21 14-96 14-42 0-71.5-12t-29.5-41q0-23 18-35t80-12h38q35 0 58.5 12.5t23.5 34.5q0 25-21 39z m-1301-1150q-27 0-44.5-13.5t-17.5-39.5q0-24 14.5-35.5t48.5-11.5h31q30 0 49 11.5t19 35.5q0 32-18.5 42t-46.5 10z m152.00000000000006-346.5q23 12.5 26 35.5 0 26-21.5 39t-95.5 13q-42 0-71.5-11.5t-29.5-40.5q0-22 19.5-34t40.5-12q11 0 26-1t29-1q54 0 77 12.5z m267.99999999999994 1007.5q-12 0-24 1-36 0-60-14t-24-39 19.5-36.5 85.5-11.5q63 0 86.5 12.5t26.5 36.5q0 31-26 41t-62 10h-22z m1751-1114q-12 0-26 1-36 0-60-14t-24-38 18.5-36 73.5-12q70 0 97.5 11.5t27.5 36.5q0 31-25 41t-61 10h-21z m-2009.5-271q24.5-14 86.5-14h24q26 0 46 13t20 39q0 27-26.5 43.5t-66.5 16.5q-77 0-92.5-18.5t-15.5-38.5q0-27 24.5-41z m613.5 1775q31 3 49 15.5t18 36.5q0 29-29.5 45t-64.5 16q-60 0-83.5-14t-23.5-44q0-29 27-42t66-13h41z m-837-1520.5q-25-13.5-25-42.5 0-27 23-41.5t88-14.5q51 0 71.5 14t20.5 39q0 28-28 43.5t-65 15.5q-60 0-85-13.5z m310.00000000000006 1513.5q32 3 50 16.5t18 37.5q0 28-30.5 43.5t-65.5 15.5q-65 0-86-14.5t-21-41.5q0-29 25-43t110-14z m193.99999999999994-1773q23-15 88-15h34q29 0 49 13.5t20 41.5q0 33-24.5 48t-66.5 15l-31-1q-45 0-68.5-14.5t-23.5-45.5q0-27 23-42z m-153.49999999999994 182.5q25.5-13.5 85.5-13.5h34q27 0 47 13.5t20 41.5q0 30-22 46t-77 16l-33 1q-36 0-58-17t-22-45q0-29 25.5-42.5z m280.99999999999994 2007.5q-27.5 14-62.5 14h-27q-53 0-75-16.5t-22-45.5q0-28 24.5-41.5t86.5-13.5h26q46 0 61.5 17t15.5 39q0 33-27.5 47z m-341.49999999999994-1277q21 3 36 16.5t15 38.5q0 32-25.5 46t-63.5 14h-30q-53 0-74-15.5t-21-44.5q0-27 22.5-41.5t86.5-14.5h27q13 0 27 1z m1530.5-908q24.5-14 86.5-14h25q25 0 45 13t20 39q0 27-26.5 43.5t-66.5 16.5q-77 0-92.5-19t-15.5-38q0-27 24.5-41z m411.5 1796q27 0 47 12.5t20 37.5q0 27-27.5 44t-65.5 17q-63 0-86-14t-23-44q0-29 27-42t97-13q9 0 11 2z m-995-1070q-22-2-36.5-17t-14.5-35q0-28 24.5-42t86.5-14q51 0 71.5 14t20.5 39q0 28-29 43.5t-64 15.5q-14 0-29-2z m319 841v7q0 28-29 44t-65 16q-61 0-84.5-13.5t-23.5-42.5q0-27 22-41.5t88-14.5h24q37 2 52.5 15.5t15.5 29.5z m35-1200q30 0 48.5 14t18.5 38q0 29-29.5 44t-64.5 15q-60 0-84.5-13.5t-24.5-42.5 28.5-43 96.5-14q9 0 11 2z m205 881q31 0 50 13.5t19 38.5q0 29-30.5 44t-64.5 15q-66 0-87-15t-21-41q0-28 23-42.5t100-14.5q10 0 11 2z m-380-1069q22 14 22 40 0 28-28.5 43.5t-62.5 15.5q-68 0-89.5-14.5t-21.5-40.5q0-25 21-41.5t81-16.5q56 0 78 14z m-308 744q31 0 50 13.5t19 38.5q0 28-29 43.5t-63 15.5q-67 0-89-14t-22-41q0-30 26-43t65-13h43z m1039-826q-49 0-70-15.5t-21-44.5 25-43 86-14h33q31 0 50 14t19 41q0 33-26.5 47.5t-63.5 14.5h-32z m-971 2077.5q-25 14.5-62 14.5h-32q-46 0-69.5-15t-23.5-45q0-29 25-43t86-14h26q41 0 58 15t17 40q0 33-25 47.5z m621-1452.5q-17 2-33 2-39 0-65-15t-26-48q0-28 26.5-42t78.5-14h35q33 0 53 13.5t20 42.5-22.5 45-66.5 16z m200 912l-48 1q-51 0-72.5-16t-21.5-45q0-28 24.5-41.5t86.5-13.5h34q29 0 49 13.5t20 41.5q0 24-19.5 42t-52.5 18z m6-1251h33q30 0 49 13.5t19 41.5q0 33-26.5 47.5t-63.5 14.5h-30q-45 0-69-15t-24-46q0-24 19.5-40t92.5-16z m140 958q-46 0-68.5-15t-22.5-45q0-27 21.5-42t81.5-15h36q31 0 52.5 14t21.5 43q0 34-27 47.5t-62 13.5z m-381-1054q-51 0-71.5-15.5t-20.5-44.5q0-27 23-42t82-15q70 0 89.5 15t19.5 42q0 33-23.5 46.5t-63.5 13.5h-35z m-302.5 656.5q25.5-13.5 85.5-13.5 64 0 83 14t19 41q0 33-25.5 47.5t-67.5 14.5l-33-1q-52 0-69.5-18.5t-17.5-41.5q0-29 25.5-42.5z m-300.5-944q26-13.5 86-13.5h22q26 0 47.5 13t21.5 39q0 28-27 44t-66 16q-76 0-93-18t-17-38q0-29 26-42.5z m633 1779.5q37 3 52.5 16.5t15.5 35.5q0 28-27.5 43.5t-66.5 15.5q-65 0-86.5-14.5t-21.5-41.5q0-26 22.5-41t100.5-15q10 0 11 1z m-1466-1063q-23-14-23-44 0-27 23.5-40.5t87.5-13.5q47 0 68.5 13t21.5 39q0 29-29 44.5t-64 15.5q-62 0-85-14z m253 796q36 3 52.5 16.5t16.5 35.5q0 28-29 43.5t-64 15.5q-67 0-88.5-13.5t-21.5-41.5q0-29 23.5-43t87.5-14z m-91.5-1054q-21.5-14-21.5-42 0-26 22-41t82-15h28q31 0 51 13.5t20 39.5q0 24-27.5 41.5t-68.5 17.5q-64 0-85.5-14z m397.5 813q27 0 47 14t20 39q0 29-29.5 43.5t-62.5 14.5q-69 0-90-14t-21-41q0-30 26-43t65-13h45z m-686 101.5q-28 16.5-65 16.5-60 0-84.5-13.5t-24.5-42.5q0-28 25.5-42t85.5-14h24q30 2 48.5 15t18.5 37q0 27-28 43.5z m1349-1275.5q-51 0-71.5-15.5t-20.5-44.5 25-43 86-14q64 0 83 14t19 41q0 33-26 47.5t-63 14.5h-32z m-604 604q-20 15-69 15l-26 1q-31 0-53-14t-22-47q0-28 22.5-43t72.5-15h26q38 0 53.5 16.5t15.5 41.5q0 30-20 45z m68 930q-42 0-62-15t-20-45q0-28 22.5-42t72.5-14h31q29 0 47.5 14t18.5 43q0 33-24.5 46.5t-57.5 13.5z m39.5-1260.5q24.5-13.5 86.5-13.5h34q29 0 49 13.5t20 41.5q0 35-30 49t-67 14l-30-1q-51 0-69-20t-18-42q0-28 24.5-41.5z m154 904q24.5-13.5 86.5-13.5 64 0 83.5 14t19.5 43q0 34-29.5 47.5t-65.5 13.5l-33-1q-50 0-68-20t-18-42q0-28 24.5-41.5z m-364.5-981.5q-47 0-69.5-15t-22.5-45q0-29 26.5-43t79.5-14h36q30 0 50.5 13.5t20.5 41.5q0 33-27 47.5t-64 14.5h-30z m851 1785q23 0 37.5 15t14.5 38q0 33-27 48t-66 15l-28-1q-45 0-69-15.5t-24-46.5q0-28 26.5-42t79.5-14q14 0 28 1z m326-1036q-18 2-34 2-39 0-65-14.5t-26-47.5q0-28 24.5-41.5t86.5-13.5h33q33 0 51.5 13.5t18.5 41.5q0 21-16.5 40.5t-72.5 19.5z m-1285.5-124.5q19.5 13.5 19.5 41.5 0 30-21.5 45.5t-79.5 15.5h-29q-34 0-58-14t-24-46q0-26 19-41t92-15q62 0 81.5 13.5z"/></svg>