<svg viewBox="0 0 2600 2760.837" xmlns="http://www.w3.org/2000/svg"><path d="M2215 2391h-1831v-609q0-19 17-31l70-38 25-770q0-12 7-16-20-26-34.5-62t-14.5-82q0-76 53-133.5t129-63.5q13-104 82.5-173.5t189.5-69.5q25 0 49 3.5t47 11.5q42-70 111.5-105t157.5-35q75 0 135.5 19.5t98.5 50.5q46-50 114-77.5t159-27.5q155 0 254 103t99 260q0 152-109.5 259t-271.5 107q-77 0-152.5-28t-126.5-68q-36 45-98 71.5t-142 26.5q-68 0-127-20.5t-100-53.5q-36 39-73 57.5t-79 18.5q-41 0-85-19l-15 21q-8 11-17 22l1 3 20 611 231-129q5-2 9-3t9-1q17 0 25.5 11t8.5 25v264l535-296q10-4 17-4 16 0 26 11t10 25v264l534-296q5-2 9-3t9-1q17 0 25.5 11t8.5 25v934z m-1682-1615q0 41 15.5 74.5t47.5 61.5h62q32-32 50.5-69.5t45.5-37.5q14 0 39.5 15.5t60.5 15.5q36 0 67.5-24t43-46.5 35.5-22.5q18 0 40.5 23.5t73.5 46.5 116 23q75 0 123-25.5t59-44.5l16-23q9-23 37-23 15 0 27 9 0 9 81 57t181 48q128 0 214-84t86-201q0-129-75.5-208.5t-197.5-79.5q-93 0-153.5 33t-75.5 62.5-41 29.5q-9 0-17-4.5t-13-11.5l-13-14q-22-21-72-39.5t-118-18.5q-86 0-140 35t-70 75.5-45 40.5q-6 0-38.5-14t-76.5-14q-92 0-141.5 53t-53.5 129l-1 21q0 17-11 28.5t-28 11.5q-5 0-10-1t-9-1q-46 0-83.5 33.5t-37.5 80.5z"/></svg>