<svg viewBox="0 0 2600 2760.837" xmlns="http://www.w3.org/2000/svg"><path d="M2210 2071q17 40 30.5 85.5t13.5 75.5q0 36-21 39.5t-100.5 10-159.5 6.5q-225 0-394.5-71t-223.5-219q-26-4-52-7t-54-3q-49 153-221 226.5t-401 73.5q-88 0-163.5-8.5t-80.5-8.5q-20 0-28.5-8.5t-8.5-32.5q0-68 62-194t181-211q-87-83-136-201.5t-49-239.5q0-217 147.5-429t377.5-347l168-97q4-2 45-27t68-25q77 0 323.5 129.5t414 338.5 167.5 449q0 134-38 235t-115 182q77 50 135.5 109.5t99.5 140.5z m-446.5-1198.5q-253.5-234.5-553.5-314.5-55 31-113 65l-119 70q-210 124-342.5 312.5t-132.5 378.5q0 129 64 250t181.5 188 274.5 67q25 0 38.5-7t13.5-24q0-22-31.5-62t-79.5-156-48-258q0-77 17-159l5-17q7-26 17.5-42.5t21.5-16.5q17 0 17 23l-1 21q0 363 133 537t362 174q181 0 355-135t174-391q0-269-253.5-503.5z"/></svg>