<svg viewBox="0 0 2600 2760.837" xmlns="http://www.w3.org/2000/svg"><path d="M1850 1260q14 64 64.5 206.5t50.5 260.5q0 221-142.5 353.5t-415.5 169.5l31 15q13 7 117 50.5t104 97.5q0 56-139 91.5t-335 35.5q-141 0-259.5-38t-118.5-98q0-27 28.5-52t70.5-45l38-18 52-23q26-12 52-27-232-39-363-169.5t-131-343.5q0-125 58-281t68-244q-5 7-60.5 94.5t-121.5 87.5q-56 0-139-142t-83-344q0-173 81.5-332t227-228.5 314.5-69.5q67 0 137 15t138.5 39 68.5 74q0 47-55.5 117t-170.5 230q50-6 102.5-10t108.5-4q0 26 6.5 52t12.5 55q-98 0-176.5 9t-145.5 21q-17 28-37 55t-40 51l65 16q62 16 136.5 26t156.5 10q40 0 79-1h73q38 26 82 39.5t91 13.5q4 0 7-1h6q2 8 7 17t10 17q-67 11-143 16.5t-159 5.5q-149 0-274-18t-208-53l2 29q0 15 1 32 0 130-66 310t-66 297q0 232 176 335t413 103q314 0 473.5-114t159.5-324q0-110-55.5-258.5t-66.5-242.5q6 0 36 17t66 17z m528.5-659.5q-24.5 28.5-61.5 48.5 12 19 16.5 38t4.5 39q0 17-1.5 33t-1.5 34l1 34q0 36-29.5 58t-65 61.5-119.5 39.5q-17 0-35-3 0 82-69 141t-159 59q-23 0-55-16.5t-65-21.5q-51 0-92.5-53t-41.5-107q-18 5-36 8t-38 3q-44 0-79.5-13.5t-62.5-36-42.5-48-18-50.5-12.5-60.5-10-53.5q0-74 51.5-123.5t137.5-60.5q-35-23-52-51.5t-17-75.5q0-34 12.5-65.5t31-50 39.5-27 34-24 51-30.5 82-15q54 0 90.5 25t64.5 87q0-13 49.5-41.5t81.5-28.5q24 0 52.5 18t49.5 18q34 0 65.5 28t47.5 65q19-3 40-3 75 0 130.5 41.5t55.5 106.5q0 45-24.5 73.5z m-835 680.5q97.5-20 95.5-20 13 0 19.5 8.5t8.5 20.5l2 12q5 66 48.5 183t43.5 206q0 119-62 205.5t-183.5 130.5-256.5 44q-211 0-356-95.5t-145-285.5q0-93 43.5-209t45.5-167 31-51q11 0 103.5 19t277.5 19q187 0 284.5-20z m-977.5-80q-58-31-89-89.5t-31-126.5q0-42 26-63t100-21q36 0 71.5-1.5t77.5-1.5q19 0 39 1.5t38 5.5l6-11q3-6 7-11-60 0-135.5-20t-123.5-41-48-84q0-64 53-137.5t119-73.5q30 0 57.5 36.5t47 75 33 57 25.5 48.5 29 58l12-17q-20-39-33-100t-18-78l-13-42q-6-21-10-42.5t-4-43.5q0-36 33-54.5t90-18.5q49 0 106 22.5t83 61.5q15-22 15-45 0-20-15-32t-40-17l-26-6q-41-12-83-19.5t-85-7.5q-141 0-263.5 57.5t-190 190-67.5 276.5q0 133 51.5 250t88.5 117q15 0 36-21t31-32z m1617-747q-55 8-118.5 44t-118.5 43.5-99 35-44 81.5q0 25 22.5 40t51.5 15q48 0 121-49t140-49q83 0 140.5-26t57.5-72-45-55-53-10h-28z m-659 1951q-110-41-160.5-72.5t-89.5-73.5l-95-2q-41 47-114.5 80.5t-81.5 37.5l-55 28q33 14 105.5 27.5t151.5 13.5q104 0 191.5-9.5t147.5-29.5z"/></svg>