<svg viewBox="0 0 2639.6437 2760.837" xmlns="http://www.w3.org/2000/svg"><path d="M2295.6437 104q69 0 126.5 40.5t81.5 105.5h-2329q24-63 81.5-104.5t127.5-41.5h1912z m219 185q3 18 3 38v126h-2356v-126q0-20 3-38h2350z m-2353 223h2356v145h-2356v-145z m-8.526512829121202e-14 222h2356v127h-2356v-127z m0 223h2356v107h-2356v-107z m2295 311q-4-45-31-89h92v89h-61z m-861-89q-11 21-19 43.5t-11 45.5h-1404v-89h1434z m862 224h60v68h-60v-68z m-893 68h-1403v-68h1403v68z m-1403 154h168q-17 25-27 50h-141v-50z m1029 50q-11-28-26-50h400v50h-374z m1267-50h60v50h-60v-50z m-58 857h-2053v-726q0-67 50-117t117-50h466q70 0 118.5 50.5t48.5 116.5v95h477v-557q0-67 49-117t118-50h442q67 0 116.5 49t49.5 118z m-124-1137q0-6-13.5-17.5t-32.5-11.5h-54q-19 0-32.5 13.5t-13.5 32.5v86q0 17 14.5 31t31.5 14h54q18 0 32-10.5t14-18.5v-119z m-504 103q0 17 14 31t31 14h55q16 0 30.5-14t14.5-31v-86q0-19-13.5-32.5t-31.5-13.5h-55q-19 0-32 13.5t-13 32.5v86z m358 282q0 19 13.5 32t32.5 13h54q19 0 32.5-11t13.5-18v-119q0-6-12.5-17t-33.5-11h-54q-19 0-32.5 13.5t-13.5 31.5v86z m-50 152q0-6-13.5-17.5t-33.5-11.5h-53q-19 0-33 13.5t-14 33.5v85q0 19 14 32.5t33 13.5h53q20 0 33.5-11.5t13.5-18.5v-119z m-946 234q-18 0-31.5 13.5t-13.5 33.5v85q0 19 13.5 32t31.5 13h54q20 0 33.5-13t13.5-32v-85q0-20-13.5-33.5t-33.5-13.5h-54z m-250.0000000000001-130q0 20 13 33.5t33 13.5h54q18 0 32-14.5t14-32.5v-85q0-18-13-31.5t-33-13.5h-54q-20 0-33 13.5t-13 31.5v85z m-59-85q0-18-13.5-31.5t-31.5-13.5h-54q-20 0-33 13.5t-13 31.5v85q0 20 13 33.5t33 13.5h54q18 0 31.5-13.5t13.5-33.5v-85z m-99 215q-20 0-33 13.5t-13 33.5v85q0 19 13 32t33 13h54q18 0 31.5-13t13.5-32v-85q0-20-13.5-33.5t-31.5-13.5h-54z m-105-215q0-18-13.5-31.5t-33.5-13.5h-53q-19 0-32 13.5t-13 31.5v85q0 20 13 33.5t32 13.5h53q20 0 33.5-13.5t13.5-33.5v-85z m-144.99999999999994 347q0 19 13 32t32 13h53q20 0 33.5-13t13.5-32v-85q0-20-13.5-33.5t-33.5-13.5h-53q-19 0-32 13.5t-13 33.5v85z"/></svg>