<svg viewBox="0 0 2600 2760.837" xmlns="http://www.w3.org/2000/svg"><path d="M2484 1520q-66 64-145.5 73.5t-92 63.5-59 157-126.5 200-192 152-244.5 79.5-292.5 24.5q-271 0-469-68t-334-201l-4-2q-55-55-100-136t-65-153-80.5-77.5-115-40-85-94-30.5-135.5q0-90 40.5-179.5t98.5-133 166-65.5v-23q0-67 53-110.5t127-43.5q5 0 10.5 1t11.5 1q140-108 325.5-168t388.5-60q248 0 447 61t320.5 153.5 156 141.5 96 52 121 42 99.5 117 40 185q0 122-66 186z m-2150.5-410.5q-4.5-8.5-18.5-8.5-60 0-109.5 79.5t-49.5 155.5q0 61 36 116.5t85 55.5q17 0 29.5-9t12.5-29q0-28-2.5-56.5t-2.5-55.5q0-95 12-152.5t12-76.5q0-11-4.5-19.5z m1199.5-123.5q38-29 82-50.5t93-34.5l-26-30q-29-32-55-53.5t-43-21.5q-13 0-28.5 7.5t-43.5 27.5l-19 14q-82 57-82 73 0 5 5 7.5t12 3.5l15 2q19 2 40.5 17.5t34.5 25.5z m-856-134q43 34 73 34t63.5 16.5 49.5 35.5 36 19q9 0 15.5-9.5t12.5-22.5l13-27h-1q10-21 81.5-97t131.5-76q30 0 75 20.5t84 46.5l7 6 23 17q6 4 10 4l8 3q40-35 81-60t70-43q-117-15-228-15-185 0-333.5 37.5t-271.5 110.5z m24 133q-23 0-37-13l-31-26q-17-14-40-25t-59-11q-40 0-60 19t-20 57q0 44 20.5 91.5t26.5 63.5q30-12 61-12 53 0 89 24t46 36 74 15q-2-11-3-22t-1-22q0-70 37-127-12-25-29-35.5t-43-11.5z m44 716q2-80 36.5-151.5t88.5-102.5q-2-6-19-76.5t-85-70.5q-14 0-26 1.5t-25 1.5q-12 0-27.5-4.5t-35.5-22.5l-25-22q-13-11-26-19.5t-24-8.5q-50 0-78 35.5t-28 97.5q0 92 53 167t90.5 106 130.5 69z m198 58q20 5 42 9t44 7q4-20 32.5-73t34.5-62l15-19q17-22 24.5-36t7.5-27q0-11-14-11-48 0-102 63t-80 137z m265-463q-3-7-14-21t-22-42l-15-36q-27-68-65-83t-65-38-65-23q-48 0-74 31.5t-26 92.5q0 13 2 26t5 24v7q55 40 71 102.5t18 67.5q25-8 80-14.5t97-42 73-51.5z m-43-255l55-43q27-22 55.5-32.5t28.5-17.5q0-28-35.5-51.5t-70.5-47-51-23.5q-18 0-37.5 22t-49.5 52-30 52q0 7 13.5 16.5t35.5 20.5l44 25q23 13 42 27z m927 723q8-15 15.5-33.5t7.5-29.5q0-15-13-15-5 0-13 5.5t-17 12.5l-18 14q-16 14-101 61.5t-251 89-388 41.5q-226 0-451.5-51t-343.5-152l-14-11q-7-5-14.5-9.5t-12.5-4.5-7 4.5-2 10.5q0 14 11 38t25 45l12 19q87 139 187 205t251 108.5 327 42.5q339 0 521.5-93t281.5-285z m-390-130q-5-8-15-8-15 0-32 10l-25 15q-61 43-77.5 81t-33.5 64q27-2 54-5.5t53-8.5q10-26 45.5-73t35.5-56q0-11-5-19z m404-87q50-57 79-129t29-147q0-173-140-309t-374-205q18 16 33 30l31 31q5 5 32 33t44 45q120 20 208.5 114.5t88.5 207.5q0 38-17 104t-36 66q-16 0-34-11t-73-22-106-11l-31 1-13-1h-25q-18 0-24.5-5.5t-6.5-16.5q0-41 16.5-74.5t45.5-33.5q27 0 67.5 17.5t73.5 17.5q8 0 13-2t5-10q0-18-45-48t-75.5-40.5-30.5-33.5q0-8 6.5-31.5t8.5-28.5l7-15q3-8 5.5-16t2.5-14q0-7-3.5-12t-12.5-5q-7 0-14.5 3.5t-14.5 8.5l-24 18q-8 7-16 19l-18 24q-9 12-18 21t-17 9q-15 0-35-5t-39-5h-19q-18 0-32.5 6.5t-14.5 15.5q0 13 18 21l39 18q21 10 38.5 23.5t17.5 37.5q0 18-17 69.5t-34 51.5q-9 0-17-10l-14-16q-21-22-47.5-43t-58.5-29l-21-3q-24-2-41-10.5t-17-24.5q0-23 8-54.5t20-59.5q-12-17-31.5-31.5t-40.5-14.5q-24 0-49.5 11.5t-50.5 28.5l-49 35q-7 5-7 14 0 8 24.5 50t42.5 88l20-2q10 0 21-1 82 0 149 30.5t91 87.5l5 12q3 8 3 14 0 12-22 19l-57 17q-99 29-147 68t-93 124.5-57 170.5l83 4q22-101 69.5-166.5t107.5-98 107.5-43 72.5-40.5 67.5-50 116.5-20q95 0 160 43t103 118z m284.5-383.5q-44.5-59.5-80.5-59.5-18 0-18 19 0 9 11 53.5t11 102.5q0 78-12.5 124.5t-12.5 48.5q0 12 15 17t29 5q45 0 73.5-43.5t28.5-107.5q0-100-44.5-159.5z"/></svg>