<svg viewBox="0 0 2600 2760.837" xmlns="http://www.w3.org/2000/svg"><path d="M1337 1206.5q16-21.5 44-21.5 26 0 41.5 18.5t15.5 42.5q0 29-29.5 61.5t-61.5 32.5q-9 0-17.5-26t-8.5-49q0-37 16-58.5z m-274 298.5q-21-13-21-44 0-25 19.5-42t45.5-17q28 0 62.5 22.5t34.5 43.5q0 9-31.5 29.5t-67.5 20.5q-21 0-42-13z m344 76q32 10 57.5 34t25.5 51-18.5 42.5-37.5 15.5q-31 0-51-26.5t-20-68.5q0-21 4.5-36.5t11.5-15.5 15 1z m-282-505l1-7q11-24 29-34.5t38-10.5q30 0 57 22t27 93q0 41-10.5 89t-22.5 48q-15 0-70-56.5t-55-110.5q0-16 6-33z m-104 271q-33-6-61-25t-41-52l-3-5q-2-5-2-11v-11q0-33 23.5-53.5t52.5-20.5q28 0 54 20h1q27 25 47 55t34 63l10 18q5 11 5 19 0 7-6.5 10.5t-17.5 3.5q-27 0-50-4z m-128 251q27-10 54.5-14t55.5-4l25-1q23 0 37 4.5t14 14.5q0 15-51 82.5t-110 67.5q-10 0-15-1l-7-1q-30-7-44.5-28t-14.5-45q0-23 13.5-44.5t39.5-30.5h3z m455 365q-24 25-55 25-30 0-53.5-22.5t-23.5-59.5q0-8 2-12v-2q8-44 40-103.5t46-59.5q17 0 44 59.5t27 99.5q0 20-5.5 38t-17.5 33z m284-256q-39-21-83.5-66.5t-44.5-63.5q0-12 27-19t63-8h40q31 0 58.5 12t44.5 38l3 6q5 9 7 19t2 19q0 31-22.5 52.5t-53.5 21.5q-19 0-39-11h-2z m-131-370q22-93 56-139t81-46q35 0 55.5 23.5t20.5 53.5q0 53-77.5 91t-118.5 38q-11 0-14-7.5t-3-13.5z m-1033.5 419q68.5-29 183.5-31h71q15 0 24 6t9 16q0 21-31.5 49t-75.5 55l-47 28q-26 15-57 28t-63 13-57-21.5-25-55.5q0-58 68.5-87z m980.5 672q-11 17-27.5 25t-34.5 8q-41 0-64-36t-23-94q0-38 7.5-76t15.5-74l5-26q6-28 14-47.5t21-19.5q29 0 67 94.5t38 175.5q0 17-3.5 33.5t-11.5 30.5z m590.5-544.5q-40.5-19.5-77.5-49.5l-64-48q-22-15-36-29t-14-25q0-12 12.5-19t28.5-8h16q102 0 180.5 19.5t104.5 58.5l4 5q10 17 10 38 0 33-23 55t-64 22q-37 0-77.5-19.5z m-30.5-1063.5q22 22 22 52 0 35-26 69.5t-71.5 62-97.5 56.5-79 29q-10 0-14-7.5t-4-18.5q0-40 76-152.5t141-112.5q31 0 53 22z m-1601 342l-4-5q-9-16-9-35 0-34 24-56t61-22q60 0 164 79t104 103q0 13-15 19t-35 6q-69 0-164.5-20.5t-125.5-68.5z m603-531.5q30 47.5 42 120.5l12 74q2 17 4.5 33t2.5 33-3.5 27.5-15.5 10.5q-32 0-84.5-63.5t-82.5-113-30-89.5q0-31 20.5-55.5t55.5-24.5q49 0 79 47.5z m346.5-113.5q22.5 37 22.5 108l-1 32q-9 145-26.5 225.5t-36.5 80.5-39.5-61-36.5-141l-17-87q-5-20-8.5-43.5t-3.5-46.5q0-45 22-74.5t60-29.5q42 0 64.5 37z m-769 244q21.5-22 52.5-22 76 0 191.5 159t115.5 182q0 5-4.5 10.5t-15.5 5.5q-9 0-18-5l-16-8q-67-35-125.5-72t-130-88.5-71.5-108.5q0-31 21.5-53z m308 1242q-44.5 75-106.5 161l-23 31q-23 30-46 48t-50 23l-6 2q-4 0-11 1-31 0-53-21.5t-22-52.5q0-29 23-67.5t135.5-119.5 152.5-101l16-8q10-5 18-5 7 0 12 5t5 14q0 15-44.5 90z m244.5 1q8-10 18-10t14.5 9 4.5 23q0 67-13 132t-28 137l-8 39q-8 33-22.5 61t-35.5 44l-6 3q-9 6-19.5 8.5t-21.5 2.5q-34 0-55-24.5t-21-62.5q0-30 14-67.5t35-71.5l25-42q26-41 50-84t55-80z m-518.5-618.5q157.5 34.5 157.5 60.5 0 9-8 15.5t-21 8.5l-13 3q-78 20-162.5 34t-159.5 14q-24 0-46-4.5t-40-18.5l-6-4q-14-11-20.5-26t-6.5-32q0-34 29.5-59.5t86.5-25.5q52 0 209.5 34.5z m912-506.5q28.5-84 53-153.5t56.5-107.5 73-38q32 0 54.5 22.5t22.5 56.5q0 26-13.5 54t-30.5 50l-23 31q-39 51-79.5 99.5t-87.5 93.5l-17 15q-9 9-20 9-17 0-17-19 0-29 28.5-113z m622.5 212h11q38 0 63.5 22t25.5 56q0 25-13 42l-5 6q-17 21-44.5 33t-61.5 17l-40 7q-67 11-134 18t-136 7q-12 0-23-3.5t-11-15.5q0-13 29.5-34t113.5-63l58-29q68-37 108.5-50t58.5-13z m-478 1327l-7-2q-23-13-40.5-40t-28.5-58l-13-37q-33-90-54-176.5t-21-99.5q0-22 16-22 23 0 77.5 68.5t116 150.5 61.5 140q0 41-23 62t-54 21q-13 0-30-7z m374.5-177.5q-22.5 21.5-55.5 21.5h-7q-49-7-99.5-62.5t-97-112.5-87.5-119l-11-18q-7-9-7-18t5.5-13.5 12.5-4.5q25 0 114 51t132 76.5 83 64.5 40 81q0 32-22.5 53.5z m211.5-644.5l-5 3q-16 8-31.5 11.5t-32.5 3.5q-6 0-13 1-17 0-35-5l-46-10-50-10q-85-17-160.5-42.5t-75.5-45.5q0-15 46-26.5t120-18.5l68-7q48-6 96-6 86 0 120 27.5t34 61.5q0 39-35 63z m-842.5-110q-14.5 14-35.5 14t-35.5-14-14.5-36q0-21 14.5-36t35.5-15 35.5 15 14.5 36q0 22-14.5 36z m-233.5 146q-15-15-15-36 0-20 15-35t37-15q20 0 34.5 15t14.5 35q0 21-14.5 36t-34.5 15q-22 0-37-15z m689.5 1006.5q-25.5 25.5-62.5 25.5-36 0-62-25.5t-26-61.5q0-37 26-62t62-25q37 0 62.5 25t25.5 62q0 36-25.5 61.5z m387-239.5q-26.5 26-61.5 26-34 0-60-25.5t-26-61.5q0-38 25-63t61-25q37 0 62.5 25t25.5 63q0 35-26.5 61z m183-434q-25.5 26-62.5 26-36 0-61-26t-25-62 25-61.5 61-25.5q37 0 62.5 25.5t25.5 61.5-25.5 62z m-94.5-936q26-26 62-26t62 26 26 62-26 61-62 25-62-25-26-61 26-62z m-556.5-673.5q25.5-25.5 61.5-25.5 37 0 62 25.5t25 61.5q0 37-25 62t-62 25q-36 0-61.5-25t-25.5-62q0-36 25.5-61.5z m-1042.5 0.5q25-26 61-26 37 0 62.5 26t25.5 62-25.5 62-62.5 26q-36 0-61-26t-25-62 25-62z m-575 606.5q26-25.5 62-25.5t61 25.5 25 62.5q0 36-25 61t-61 25-62-25-26-61q0-37 26-62.5z m126 1058q-25 25.5-61 25.5t-62-25.5-26-61.5q0-37 26-62t62-25 61 25 25 62q0 36-25 61.5z m702.5 639q-26.5 25.5-60.5 25.5-36 0-62-25.5t-26-61.5 26-61.5 62-25.5q34 0 60.5 25.5t26.5 61.5-26.5 61.5z m1488.5-1058q-22 22.5-53 22.5-32 0-54-22.5t-22-53.5 22-53 54-22q31 0 53 22t22 53-22 53.5z m-397.5-933.5q21.5-22 53.5-22 31 0 53 22t22 53q0 32-22 53.5t-53 21.5q-32 0-53.5-21.5t-21.5-53.5q0-31 21.5-53z m-872.5-400.5q22-21.5 53-21.5 32 0 54 21.5t22 53.5q0 31-22 53t-54 22q-31 0-53-22t-22-53q0-32 22-53.5z m-818 331.5q22-22 54-22t54 22 22 53q0 32-22 54t-54 22-54-22-22-54q0-31 22-53z m-303.5 897.5q-22.5-21.5-22.5-53.5 0-31 22.5-53t54.5-22q31 0 53 22t22 53q0 32-22 53.5t-53 21.5q-32 0-54.5-21.5z m440.5 920q-22 22.5-53 22.5-32 0-54-22.5t-22-54.5q0-31 22-52.5t54-21.5q31 0 53 21.5t22 52.5q0 32-22 54.5z m907.5 246.5q-21.5 22-53.5 22-31 0-53.5-22t-22.5-54q0-31 22.5-53.5t53.5-22.5q32 0 53.5 22.5t21.5 53.5q0 32-21.5 54z"/></svg>