<svg viewBox="0 0 2600 2760.837" xmlns="http://www.w3.org/2000/svg"><path d="M2218 1820q26 44 37.5 91t11.5 95q0 111-59.5 208.5t-157.5 154.5l-371 216q-51 29-103.5 43t-106.5 14q-111 0-204.5-51.5t-141.5-139.5l-443-806q-27-50-45-98.5t-20-99.5q19 3 41 3 136 0 321.5-85t332-214 197.5-249q51 30 93 76t81 100z m-475 349l-27 16q-3 10-16 10l-31 18q-6 2-8 2-6 0-11-4.5t-5-10.5q0-8 8-13l25-15-209-353-25 15q-6 2-8 2-6 0-10.5-4t-4.5-11q0-9 7-13l25-15-125-211 36-2-92-157 21-12q7-5 7-13 0-6-4.5-10.5t-10.5-4.5q-5 0-8 2l-74 43q-8 5-8 14 0 6 4.5 10.5t11.5 4.5q2 0 8-2l24-15 84 141-504 3q3 32 14.5 63t27.5 61l341 642q35 67 109.5 108t167.5 41q45 0 89.5-12t86.5-37l294-174q80-48 123-127t43-167q0-40-9.5-79.5t-29.5-76.5l-163-245h-553l117 195 22-13q4-2 7-2 5 0 10 4.5t5 11.5q0 8-7 13l-21 12 209 353 22-12q2-2 8-2t10.5 4 4.5 11q0 8-8 13z m-697-1428.5q-88 95.5-221 163.5t-240 68q-64 0-97.5-26.5t-33.5-86.5q0-56 28.5-117t53.5-92.5 25-57.5q0-40-40-73t-56-70-16-74q0-64 42.5-110t102.5-46q54 0 99 40t54 98l5 24q6 37 24.5 58t47.5 21q25 0 53.5-5t53.5-5q29 0 53.5 4t45.5 10q49-15 88-21.5t68-6.5q41 0 73.5 11t47.5 30l169 230q9 13 12.5 29t3.5 33q0 109-140 260t-356 261.5-375 110.5q-57 0-98-16.5t-61-49.5l-118-251q-5-8-8-19.5t-3-31.5q0-29 16-75t68-107q-35 43-54 81.5t-19 69.5q0 43 33.5 63.5t90.5 20.5q132 0 333-96.5t347-233.5 146-228q0-42-33-62.5t-90-20.5q-59 0-137 21 45 14 72.5 40.5t27.5 65.5q0 73-88 168.5z"/></svg>