<svg viewBox="0 0 2600 2760.837" xmlns="http://www.w3.org/2000/svg"><path d="M2407 1499.5q-75 191.5-125.5 221.5t-106.5 30q-32 0-61-10-40 79-82 143t-69 103q5 23 7.5 47t2.5 47q0 203-146 360t-358 157q-2 0-3.5-1t-2.5-1q-2 2-19.5 4.5t-51.5 2.5q-215 0-368-135.5t-153-345.5q0-239 168-422t406-183q126 0 235.5 59t151.5 156q20-30 35-57t26-50q-34-26-47.5-60.5t-13.5-68.5q0-66 84-221.5t84-281.5q0-153-118.5-269.5t-293.5-116.5q-115 0-226.5 48t-196 141-115.5 112.5-68 19.5l-14-1q-7 0-13-2-18 17-33.5 37.5t-27.5 44.5l24 25 45 31q45 29 73 70.5t46.5 95 18.5 126.5q0 162-83.5 279.5t-192 191.5-228.5 74q-80 0-154.5-26t-123-68-64.5-73.5-49-76-60.5-124-27.5-162.5q0-203 143-346t333-143q35 0 70.5 5.5t72.5 17.5l39-53q19-26 40-49-6-19-6-37 0-85 150.5-222t319-205 347.5-68q170 0 338.5 73.5t281.5 185 174 241.5 61 334-75 395.5z m-2203-51.5q0 6 1.5 11.5t2.5 11.5q0-61 48-159.5t123-173 164-110.5 198-36q-32-17-69-25t-78-8q-159 0-278.5 121t-119.5 290q0 35 8 78z m356.5-111.5q-77.5 82.5-77.5 176.5 0 58 41 98t101 40q84 0 161-76.5t77-167.5q0-65-37.5-109t-99.5-44q-88 0-165.5 82.5z m1778-509q-45.5-106.5-129-200t-217-165-295.5-91.5q215 97 309.5 242.5t94.5 366.5q0 81-23 161t-62 156l-42 80q-19 37-31.5 67t-12.5 52q0 31 24 53t100 62.5 121 40.5q37 0 56-17t86-177.5 67-353.5q0-170-45.5-276.5z m-823.5 1685.5q-89-26-129-60.5t-70-101-30-149.5q0-157 107-257.5t248-100.5q47 0 91 12l47-54q-55-61-110.5-81.5t-128.5-20.5q-181 0-313.5 147t-132.5 335q0 164 96 248.5t279 84.5h23.5t22.5-2z"/></svg>