<svg viewBox="0 0 2600 2760.837" xmlns="http://www.w3.org/2000/svg"><path d="M1824 2493q-312 85-553 85-209 0-395.5-38.5t-349-113.5-162.5-176q0-31 13-56t38-48l29-27q203-176 346.5-371.5t180-295.5 91.5-100q15 0 25 5.5t20 12.5l15 13q7 6 18 6 18 0 44.5-23.5t49.5-23.5q33 0 54 26t39 26 42-26.5 58-26.5q70 0 129.5 133.5t195 327 260 299.5 124.5 177q0 130-312 215z m-1117-2021.5q25-24.5 57-24.5 48 0 135 72t156.5 189 121.5 292 52 183q0 16-11.5 24.5t-25.5 8.5q-13 0-24.5-9t-46.5-116.5-85.5-191-115-145.5-127-98.5-87-66.5-24.5-62q0-31 25-55.5z m1309.5 168q28.5 16.5 28.5 51.5 0 77-101.5 85t-255 72-235.5 164l-30 38q-16 21-29 32t-23 27.5-24 16.5q-13 0-20.5-6.5t-7.5-17.5l14-55q15-50 110-162.5t233.5-187 270.5-74.5q41 0 69.5 16.5z m155.5 648.5q-24 18-54 18-36 0-83-37t-122-59.5-172-22.5q-95 0-154.5 18t-74.5 18q-10 0-24-4.5t-14-13.5q0-17 16-31.5t41-25.5l24-11q62-33 130-47.5t138-14.5q118 0 245.5 48t127.5 122q0 25-24 43z m-1866.5 69q-16.5-18-16.5-38 0-77 129.5-158.5t299.5-81.5q127 0 228 53t101 88q0 14-9 24t-23 10q-12 0-29-13t-72-32.5-126-19.5q-155 0-262.5 93t-165.5 93q-38 0-54.5-18z m137.5-490l-62-1q-92 0-112-22.5t-20-42.5q0-43 42.5-65.5t105.5-22.5q133 0 285.5 74.5t238.5 145 86 104.5q0 17-11.5 29t-27.5 12q-18 0-59.5-41t-174.5-104-291-66z m784 67q-6-7-6-21 0-147 101-295t239.5-227 211.5-79q40 0 67 16t27 46q0 50-47.5 82.5t-160 56.5-203 110.5-166.5 254.5l-12 28q-6 13-15.5 24t-20.5 11q-9 0-15-7z m1088-58q14 6 25 17t11 23q0 31-23.5 47.5t-71.5 16.5q-60 0-111.5-5.5t-108.5-5.5q-83 0-157.5 10t-149.5 30l-13 3q-17 4-41.5 8t-38.5 4q-7 0-13.5-1t-6.5-6q0-41 115.5-80.5t222-56.5 273.5-17q18 0 36.5 1t35.5 5z m-1290-447q-24-31-35-56t-11-50q0-30 17.5-49.5t43.5-19.5q51 0 92 78.5t41 283.5q0 14-6 28t-16 14q-21 0-40.5-71.5t-62.5-126.5z m223-18q-26-49-26-98 0-38 23-60t58-22 53.5 23.5 18.5 50.5q0 46-30.5 100.5t-51.5 54.5q-19 0-45-49z m-493.5-168q25.5-19 57.5-19 34 0 61.5 32t41.5 81q0 14 5.5 27.5t5.5 26.5q0 14-5.5 22t-21.5 8q-41 0-105.5-38.5t-64.5-82.5q0-38 25.5-57z m1230.5 287q-27-3-38-11t-11-19q0-28 58-73t96-45q29 0 50.5 20.5t21.5 51.5q0 35-22 54t-58 19q-23 0-46.5 1.5t-50.5 1.5z m-1537 52q-47-13-73.5-35t-26.5-56 21-56.5 54-22.5q59 0 104.5 57t45.5 100q0 19-11.5 25.5t-28.5 6.5q-11 0-21-2l-18-4z"/></svg>