<svg viewBox="0 0 2600 2760.837" xmlns="http://www.w3.org/2000/svg"><path d="M1016 1223l-268 244q-30 26-50.5 72.5t-20.5 90.5v711h-211q0-9 11.5-29t11.5-78v-143q0-64-59.5-90.5t-126-95.5-111.5-191-45-287q0-238 65.5-448t175.5-346 201-136q111 0 251 211.5t176 514.5z m1427 855q36 17 52.5 51.5t16.5 72.5q0 56-38.5 98t-92.5 42h-314v-588q14-7 29.5-11t31.5-4q60 0 93.5 41.5t35.5 71 34 29.5q42 0 82.5 39t40.5 99q0 7-2 14t-2 15q0 14 11 19z m-499-552q20 20 32.5 49.5t12.5 54.5v649q0 26-18 44t-45 18h-583v-428q0-20-13.5-34t-33.5-14h-190q-20 0-33.5 14t-13.5 34v428h-243q-26 0-43.5-18t-17.5-44v-649q0-25 13-55.5t33-48.5l525-478q20-18 47-18 25 0 45 18z m-301 398h-126v59q0 24 17 41t40 17h69v-117z m0-190h-69q-23 0-40 17t-17 40v79h126v-136z m179 190h-125v117h67q24 0 41-17t17-41v-59z m0-133q0-23-17-40t-41-17h-67v136h125v-79z"/></svg>