<svg viewBox="0 0 2600 2760.837" xmlns="http://www.w3.org/2000/svg"><path d="M1991.5 2121.5q-210.5 65.5-437.5 65.5-203 0-315.5-47t-149-127.5-89.5-80.5q-92 0-155.5 100t-68.5 174-64 74q-37 0-75.5-20t-38.5-50q0-10 5-21t13-22l15-20q28-38 67.5-126t39.5-168q0-120-100.5-143t-164.5-164.5-64-369.5q0-40 3-79l4-74q10-157 60-291t92-134q88 0 225 243t137 534q0 128-27.5 186t-59.5 107.5-32 103.5q0 33 12 36 3 0 40.5-49t84-104.5 46.5-123.5q0-10-4-34t-4-61q0-153 123-337.5t327.5-292 444.5-146.5l106-17q28-4 53.5-5.5t66.5-1.5q59 0 91 13.5t32 41.5q0 44-50.5 140.5t-203.5 285-268 288.5-258.5 169.5-252.5 71.5l-78-1q-65 0-122.5 69t-75.5 95l-15 23q-3 4-12 18.5t-9 18.5q0 7 6 7 12 0 26.5-8.5t71.5-19 129-58.5l39-26q64-41 150.5-60.5t189.5-19.5q150 0 305 43t277.5 130 122.5 142q0 57-210.5 122.5z"/></svg>