<svg viewBox="0 0 2600 2760.837" xmlns="http://www.w3.org/2000/svg"><path d="M2380.5 842.5q-85.5 161.5-118.5 220.5l-73 130q-36 65-70 131t-64 135q11 24 11 48-4 55-55 120.5t-110 227.5l-37 101q-5 13-21.5 56.5t-65.5 66.5l1 10q-2 127-73 237.5t-187.5 173-238.5 62.5q-112 0-192-33.5t-80-90.5q0-28 16.5-44.5t58.5-16.5q33 0 43.5-26.5t10.5-110.5v-51q0-160 69.5-254.5t180.5-129.5q3-38 49-68.5t58-40.5q-9 2-18 3l-20 2q-56 3-107 3-123 0-188.5 22.5t-140.5 93.5l-64 61q-83 80-165.5 114.5t-164.5 34.5q-131 0-245.5-70t-180-214.5-65.5-327.5q0-296 170-554t461.5-412 592.5-154q211 0 380 71t273.5 221 111.5 325l139-204 27-43q26-40 57-67t66-27q18 0 36 14t18 45q0 48-85.5 209.5z m-1044.5 759.5l24 1q106 0 161.5-13t103.5-35q13-19 77-129t141-110q45-51 84-109l76-115q11-38 15.5-74.5t4.5-73.5q0-129-57.5-232.5t-129.5-167-199.5-103.5-270.5-40q-281 0-550.5 141.5t-424.5 375.5-155 500q0 219 105 364t284 145q79 0 141.5-33t159.5-128.5 182.5-129.5 227.5-34z m200-276q-87 78-196 78-78 0-132.5-57t-54.5-128q0-97 83.5-172.5t182.5-75.5q87 0 145.5 48.5t58.5 124.5q0 104-87 182z m-75.5-72.5q61.5-49.5 61.5-109.5 0-31-28-50.5t-75-19.5q-52 0-108 46t-56 99q0 33 26 58.5t59 25.5q59 0 120.5-49.5z m-679.5-441q33 27.5 33 70.5 0 51-47.5 96t-102.5 45q-44 0-70-30.5t-26-73.5q0-51 43-93t100-42q37 0 70 27.5z m-158 881.5q-32 36-83 36-53 0-89.5-46t-36.5-106q0-56 31.5-89t80.5-33q55 0 92 43.5t37 101.5q0 57-32 93z m3.5-377.5q-37.5 45.5-89.5 45.5-47 0-80.5-33t-33.5-84q0-55 39-98t93-43q44 0 76.5 33.5t32.5 80.5q0 53-37.5 98.5z m466.5-729.5q28 32 28 76 0 52-46.5 85t-108.5 33q-40 0-69.5-28t-29.5-66q0-48 49-90t106-42q43 0 71 32z m355 1309q-73 11-129 60t-56 110q0 16 8 31t33 15l30-1q16 0 24 12l11 28q6 17 18.5 24t38.5 7h27q20 0 34 6t14 31q0 8-1 14t-1 12q0 16 18.5 23t41.5 7q33 0 56-11.5t42.5-66 19.5-108.5q0-14-2-27t-5-25l-65-52q-42-32-87-52t-70-37z m300 75q11-19 18-41l15-44-8-9q-34-34-95.5-73.5t-98.5-44.5l-43 31-20 15q-9 7-9 9 26 15 58 27.5t103.5 63 79.5 66.5z m161-518.5q-54-33.5-66-33.5-28 14-70.5 95t-127.5 180q2 0 2 1t2 1q47 20 90.5 49.5t72.5 58.5l47-112q44-103 74-136.5t30-48.5q0-21-54-54.5z"/></svg>