<svg viewBox="0 0 2600 2760.837" xmlns="http://www.w3.org/2000/svg"><path d="M2469 758q15 12 27 29.5t12 39.5q0 31-21.5 47.5t-43.5 16.5q-13 0-41-6t-117-28l-127-31q-20-5-33-19t-14-35q0-5-4-5-58-18-103-53.5t-73-75.5l-25-34-18 32q-17 29-41.5 88.5t-45.5 119.5l-26 71q-8 23-30 79l-124 312q-38 97-79 198l-81 202-142 348q-30 73-61 142t-84 129.5-117.5 102.5-140.5 63-153 21q-241 0-379.5-154t-138.5-420q0-91 29.5-240t29.5-203q0-81-76.5-170t-76.5-162q0-122 135-202.5t376-80.5q205 0 329 71.5t124 185.5q0 40-18 89.5t-33.5 80-55.5 214.5l-17 77q-9 40-24 98l73-129q-4-13-4-30 0-50 28-88t72-55l46-85q-8-24-8-49 0-54 33.5-94.5t84.5-50.5l26-47q-8-15-13.5-31.5t-5.5-36.5q0-55 39-95t95-42l14-25q-24-35-24-78 0-58 41-99.5t99-41.5l6 1 102-184q41-72 90.5-101.5t124.5-29.5q67 0 135 42t107.5 131.5 66.5 114.5l19-11q7-4 20-4 17 0 51.5 18.5t80.5 42.5 70 68l26 45z m-1217 502q0 29 20.5 48.5t49.5 19.5 49.5-19.5 20.5-48.5-20.5-49.5-49.5-20.5-49.5 20.5-20.5 49.5z m-116 224.5q-21 20.5-21 52.5 0 29 21 50.5t52 21.5q29 0 50.5-21.5t21.5-50.5q0-32-21.5-52.5t-50.5-20.5q-31 0-52 20.5z m384.5-680q19.5 16.5 42.5 16.5 27 0 45-17.5t18-43.5-18.5-44-44.5-18q-25 0-43.5 18.5t-18.5 43.5q0 28 19.5 44.5z m-124.5 238.5q18 17 42 17 25 0 43-17t18-43q0-27-19.5-43t-45.5-16q-23 0-39.5 18t-16.5 41q0 26 18 43z m-535.5 4q-88.5-34-211.5-34-134 0-221.5 41t-87.5 109q0 56 86 91t212 35q136 0 223.5-40t87.5-108q0-60-88.5-94z"/></svg>