<svg viewBox="0 0 2600 2760.837" xmlns="http://www.w3.org/2000/svg"><path d="M1889 1936q34 42 68.5 83t68.5 83l26 33q12 16 26 30l38 40q19 21 19 49 0 21-22.5 40.5t-49.5 19.5q-23 0-47-19t-110-116.5-121-132.5l-109 121q-102 115-198 174t-194 59q-151 0-250.5-112t-99.5-220q0-75 38-142t95-126q-74-26-125.5-79t-83.5-122q-42 32-81 51.5t-84 19.5q-94 0-181-68t-104.5-142-36.5-251.5-19-387.5q0-156 40.5-232t116.5-107.5 238-31.5q61 0 252 12t297 55 186 108 80 153q0 47-27.5 97t-79.5 102q93 29 159.5 88t96.5 156q50-36 107.5-56.5t117.5-20.5q123 0 217 89t94 207q0 108-102.5 224.5t-255.5 271.5z m63-207q43-46 119.5-131t76.5-155q0-67-57.5-133.5t-154.5-66.5q-55 0-109 23.5t-98 66.5l2 25q0 12 1 25 0 149-55 239.5t-174 148-266 57.5q-14 0-26-1l-26-2q-77 68-115 128t-38 116q0 66 42.5 117.5t90 83.5 119.5 32q75 0 155-52t183-172z m-633-753l51-53q42-43 68.5-80t26.5-65q-19-22-71.5-34t-148.5-12q-36 0-72-1l-155-4q-42 0-90-1-122 0-173 13.5t-74 54.5-23 130q0 136 18 282t28 245 54 99l73-58q68-53 251.5-256.5t236.5-259.5z m134 595q-9-6-32-6-35 0-61 12t-26 34q0 8 6.5 16t19.5 8q12 0 22-5t21-5l15 1h7q10 0 23.5-12t13.5-26q0-11-9-17z m24.5-218.5q22.5 25.5 55.5 25.5 19 0 28-10.5t9-21.5q0-22-17-33t-23-22l-13-22q-6-10-12.5-18t-16.5-8q-12 0-22.5 13.5t-10.5 36.5q0 34 22.5 59.5z m-1027.5-492.5q1 33 1 65 6 0 13-3.5t13-3.5q20 0 34 14.5t14 32.5q0 12-11.5 25t-36.5 13q-6 0-12-1.5t-11-3.5q5 141 21.5 264.5t25 165 52 84 106.5 55.5q-23-34-27-69l-9-63q-14-128-28.5-253.5t-14.5-257.5q0-84 16-131t42-75 63-44 131-23l88-2q43 0 87-1 59 0 190.5 4t164.5 9q-66-47-165-73.5t-205-26.5q0 20-13 34.5t-39 14.5q-18 0-25.5-11t-7.5-22q0-6 1.5-11.5t3.5-10.5q-42-3-83.5-5t-81.5-2q-119 0-178 18.5t-89.5 71.5-30.5 157q0 32 1 65z m668 630l-1 13q0 17 4 27.5t13 10.5q20 0 34-23t14-56q0-34-24-52.5t-72-18.5q-28 0-28 19 0 24 30 37.5t30 42.5z m75 562q56 9 103 45.5t47 83.5q0 28-16 47t-49 19q-32 0-57.5-18.5t-33-52.5-49-52.5-41.5-43.5q0-14 21.5-21.5t51.5-7.5h14z m-406.5-1202.5q11.5-19.5 34.5-19.5 21 0 30 14t9 32q0 24-14 48t-32 24q-15 0-27-17t-12-39q0-23 11.5-42.5z m247.5 85.5q-20-2-36-16.5t-16-31.5q0-8 8.5-20.5t28.5-12.5q18 0 34.5 13t16.5 31q0 20-8 28.5t-28 8.5z m-475-219.5q-11-12.5-11-35.5 0-20 9.5-36t26.5-16q20 0 31 14.5t11 35.5q0 27-15.5 38.5t-28.5 11.5q-12 0-23-12.5z m329.5 393q13.5 13.5 13.5 30.5 0 13-11 26t-36 13q-20 0-34.5-12.5t-14.5-29.5q0-18 14-29.5t35-11.5q20 0 33.5 13.5z m105-21q-8.5-16.5-8.5-36.5 0-17 8-31t25-14q20 0 30 15.5t10 32.5q0 15-10.5 32.5t-29.5 17.5q-16 0-24.5-16.5z m-461.5 235.5q-9-16-9-36 0-18 8-32.5t25-14.5q20 0 30 15.5t10 33.5q0 16-10 33t-30 17q-15 0-24-16z m671.5-484.5q10.5-6.5 24.5-6.5 20 0 37 12.5t17 32.5q0 16-11 32t-31 16q-16 0-31.5-24t-15.5-40 10.5-22.5z m-346 510.5q-12.5 12-31.5 12t-36-10.5-17-26.5q0-19 17-29t38-10q15 0 28.5 7t13.5 25q0 20-12.5 32z"/></svg>