<svg viewBox="0 0 2600 2760.837" xmlns="http://www.w3.org/2000/svg"><path d="M2055 318q62 0 107 44.5t45 106.5v1900h-1815v-1900q0-61 44.5-106t107.5-45h1511z m-504 594q0 32 12 51.5t39 19.5q31 0 44-24t15.5-64.5 12.5-40.5q16 0 29 59.5t52 59.5q37 0 56-63t30-63q5 0 7.5 3.5t3.5 8.5v19q5 65 18.5 82.5t39.5 17.5 40.5-20 14.5-74q0-14-1-27t-1-24q0-88-4.5-176t-55.5-88q-24 0-43 21t-47 88l-12 26q-11 26-24 46t-22 20q-11 0-19-17l-14-29q-2-5-30-82t-74-77q-28 0-43 22.5t-17 59.5l-3 38q-3 51-3 100t-1 99v28z m-839.5 61.5q15.5 14.5 51.5 14.5 57 0 62.5-44t60.5-44q48 0 57 42.5t63 42.5q34 0 46.5-14.5t12.5-34.5q0-17-5-33t-8-29l-16-47q-9-24-15-49l-16-67h-1q-10-42-35.5-95.5t-86.5-53.5q-52 0-83 47t-45.5 115.5-36 132.5-21.5 82q0 20 15.5 34.5z m620.5 1014.5q0-20-14-34.5t-34-14.5h-644q-20 0-34 14.5t-14 34.5v78q0 20 14 34t34 14h644q20 0 34-14t14-34v-78z m0-738q0-32-22.5-54.5t-54.5-22.5h-586q-32 0-54.5 22.5t-22.5 54.5v449q0 32 23.5 55t53.5 23h586q32 0 54.5-23t22.5-55v-449z m106-672.5q-33-7.5-113-7.5-34 0-67 1l-69 2-18-1h-20q-38 0-51.5 18t-13.5 51q0 30 13.5 43.5t82.5 13.5q20 0 24.5 8t4.5 20v6q0 4-1 8 0 33 1.5 67t1.5 69v37q0 43 18.5 57.5t54.5 14.5q34 0 48-15.5t14-77.5q0-42-1.5-85t-1.5-86q0-14 8.5-20t31.5-6l32 1q30 0 42-15t12-57q0-39-33-46.5z m155 1395.5q0-12-9.5-21.5t-23.5-9.5h-57q-14 0-23 9.5t-9 21.5v74q0 12 9 22t23 10h57q14 0 23.5-10t9.5-22v-74z m0-222q0-14-9.5-22.5t-23.5-8.5h-57q-14 0-23 8.5t-9 22.5v73q0 13 9 22t23 9h57q14 0 23.5-9t9.5-22v-73z m0-223q0-13-9.5-22.5t-23.5-9.5h-57q-14 0-23 9.5t-9 22.5v74q0 12 9 21.5t23 9.5h57q14 0 23.5-9.5t9.5-21.5v-74z m209 445q0-12-9-21.5t-23-9.5h-57q-14 0-23.5 9.5t-9.5 21.5v74q0 12 9.5 22t23.5 10h57q14 0 23-10t9-22v-74z m0-222q0-14-9-22.5t-23-8.5h-57q-14 0-23.5 8.5t-9.5 22.5v73q0 13 9.5 22t23.5 9h57q14 0 23-9t9-22v-73z m0-223q0-13-9-22.5t-23-9.5h-57q-14 0-23.5 9.5t-9.5 22.5v74q0 12 9.5 21.5t23.5 9.5h57q14 0 23-9.5t9-21.5v-74z m208 445q0-12-9-21.5t-23-9.5h-57q-13 0-22.5 9.5t-9.5 21.5v74q0 12 9.5 22t22.5 10h57q14 0 23-10t9-22v-74z m0-222q0-14-9-22.5t-23-8.5h-57q-13 0-22.5 8.5t-9.5 22.5v73q0 13 9.5 22t22.5 9h57q14 0 23-9t9-22v-73z m0-223q0-13-9-22.5t-23-9.5h-57q-13 0-22.5 9.5t-9.5 22.5v74q0 12 9.5 21.5t22.5 9.5h57q14 0 23-9.5t9-21.5v-74z m0-289q0-14-9-23t-23-9h-475q-14 0-23 9t-9 23v70q0 12 9 21.5t23 9.5h475q14 0 23-9.5t9-21.5v-70z m-1121-407q-9 0-19-3t-10-11q0-3 1-6t2-10l6-25q2-12 6-26 2-2 3.5-5t6.5-3q8 0 17 35.5t9 38.5q0 11-12 15h-10z"/></svg>