<svg viewBox="0 0 2600 2760.837" xmlns="http://www.w3.org/2000/svg"><path d="M429 1073q-30-18-30-49 0-63 80.5-146.5t171.5-165 194.5-145.5 125.5-64q28 0 50 27.5t22 57.5q0 51-61.5 81t-103 71.5-41.5 54.5 62.5 66.5 62.5 94.5q0 21-16.5 58.5t-41.5 37.5q-61 0-119.5-67.5t-91.5-67.5q-13 0-28.5 12t-25.5 25l-14 16q-19 20-53.5 70.5t-82.5 50.5q-30 0-60-18z m1700 1185.5q-71 70.5-168 70.5-62 0-95.5-15t-33.5-45q0-8 4.5-23.5t8.5-27.5l10-34q5-16 8.5-33.5t3.5-37.5q0-8-3-26.5t-3-35.5 8-27 29-10q12 0 25.5 3t24.5 3q32 0 62.5-9t45.5-17l25-13q12-6 24.5-10.5t24.5-4.5q29 0 49.5 35t20.5 88q0 99-71 169.5z m-9-709q45 50.5 45 130.5 0 91-63.5 168.5t-194.5 77.5q-17 0-21.5-10t-4.5-27q0-13 3-26.5t3-27.5q0-69-22-112.5t-22-55.5q0-13 8.5-20.5t22.5-14.5l31-15q20-10 51.5-41.5t46.5-54 37-22.5q35 0 80 50.5z m-415 724q-77 66.5-164 66.5-84 0-151-54.5t-67-134.5q0-38 24-78.5t50-40.5q16 0 57.5 29t84.5 43 90 14q52 0 85-17t47-17q13 0 17 11.5t4 25.5q0 86-77 152.5z m43.5-309q-64.5 61.5-144.5 61.5-86 0-145.5-64t-59.5-96q0-20 25-28.5t65-60 54-100.5 42-49q15 0 29 4l29 10q14 5 29 9.5t31 4.5q34 0 72 47.5t38 121.5q0 78-64.5 139.5z m-940.5-295.5q15 0 25.5 7.5t10.5 25.5q0 26-21.5 83.5t-59.5 80-89 22.5q-98 0-168-71t-70-169q0-46 19.5-98t44.5-52q21 0 38 34.5t88 86 148 51.5z m587-925q32-45 82-71t110-26q98 0 168.5 70.5t70.5 167.5q0 42-12.5 79t-35.5 66l-20-2h-21q-48 0-90 13.5t-80 36.5q2-12 3-24.5t1-24.5q0-88-46-165t-130-120z m-140.5 1340q-71.5 68-166.5 68-100 0-170-70.5t-70-168.5q0-66 39-129t76-63q27 0 45 40.5t90.5 80 155.5 39.5q44 0 58 6.5t14 37.5q0 91-71.5 159z m651.5-907.5q71 70.5 71 168.5 0 102-73 171t-170 69q-101 0-168-73t-67-168 70-166.5 168-71.5 169 70.5z m-820.5 218.5q71.5-71 168.5-71t168 71 71 168q0 95-72 167.5t-167 72.5q-96 0-168-71.5t-72-168.5 71.5-168z m337-534.5q70.5 71.5 70.5 168.5t-70.5 168.5-168.5 71.5-169-71-71-169 70.5-169 169.5-71q98 0 168.5 71.5z m-457 659.5q-70.5 71-169.5 71-98 0-168-71t-70-169q0-97 70-168.5t168-71.5q99 0 169.5 71t70.5 169-70.5 169z"/></svg>