<svg viewBox="0 0 2600 2760.837" xmlns="http://www.w3.org/2000/svg"><path d="M2117 838q65 0 113 47.5t48 115.5v1372h-705v-212q0-37-26.5-63.5t-64.5-26.5h-363q-37 0-63.5 26.5t-26.5 63.5v212h-707v-1372q0-66 48.5-114.5t114.5-48.5h294q48 0 74.5-16t30.5-61v-210q0-12 8.5-27.5t19.5-21.5l359-200q10-5 29-5t29 5l359 200q12 8 20 22t8 27v206q4 43 28 62t78 19h295z m-1391 750h-203v258h203v-258z m0-408h-203v258h203v-258z m337 408h-201v258h201v-258z m0-408h-201v258h201v-258z m338 408h-201v258h201v-258z m0-408h-201v258h201v-258z m64-624q-69-69-165-69t-164.5 69-68.5 165 68 164.5 165 68.5 165.5-68.5 68.5-164.5-69-165z m275 1032h-203v258h203v-258z m0-408h-203v258h203v-258z m337 408h-202v258h202v-258z m0-408h-202v258h202v-258z m-754-493q8 6 13.5 14.5t5.5 19.5q0 18-12.5 30.5t-29.5 12.5q-12 0-19-6l-103 61-23-42 104-58q0-10 5.5-18.5t13.5-13.5v-169h45v169z"/></svg>