<svg viewBox="0 0 2600 2760.837" xmlns="http://www.w3.org/2000/svg"><path d="M2078 593q24 14 41 42.5t17 56.5v1700h-584v-219q0-36-24.5-60.5t-58.5-24.5h-339q-35 0-60 25.5t-25 59.5v219h-582v-1700q0-28 17-56.5t41-42.5l720-402q13-8 27.5-10.5t31.5-3.5q32 0 58 14z m-1213 998h-213v257h213v-257z m0-451h-213v258h213v-258z m356 451h-213v257h213v-257z m0-451h-213v258h213v-258z m357 451h-213v257h213v-257z m0-451h-213v258h213v-258z m64.5-687q-59.5-61-144.5-61-33 0-67.5 9.5t-58.5 27.5l-27 20q-14 10-26.5 17.5t-21.5 7.5q-4 0-11-4l-44-31q-44-30-77-38.5t-83-8.5q-80 0-138.5 61.5t-58.5 153.5q0 71 32 135.5t170.5 131 161.5 109.5 42 43q17 0 33-26.5t47-53 115-65.5 128.5-74.5 66-91 21.5-108.5q0-93-59.5-154z m291.5 1138h-212v257h212v-257z m0-451h-212v258h212v-258z m-582-411q0-9-8.5-12t-24.5-3h-45q-17 0-22 6t-5 16v40q0 51-10 69t-46 18q-39 0-59.5-13t-20.5-54q0-11 1-22v-59l-1-68q0-17-1-39 0-14 1-26v-23q0-40 19-60.5t51-20.5q66 0 66 77 0 14-1 25t-1 19q0 17 7 23.5t18 6.5h63q8 0 14.5-6t6.5-24q0-8-1-19t-1-25q0-44 17.5-60.5t48.5-16.5q43 0 57 26.5t14 127.5v33l-1 56q0 15-1 34l1 19v22q0 41-20.5 54t-59.5 13-47.5-21-8.5-90v-23z"/></svg>