<svg viewBox="0 0 2600 2760.837" xmlns="http://www.w3.org/2000/svg"><path d="M1134 2331q14 0 23.5 8.5t9.5 22.5v115q0 14-9.5 23.5t-23.5 9.5h-842q-14 0-23.5-9.5t-9.5-23.5v-115q0-14 9.5-22.5t23.5-8.5h842z m1173 0q14 0 23.5 8.5t9.5 22.5v115q0 14-9.5 23.5t-23.5 9.5h-844q-14 0-22.5-9.5t-8.5-23.5v-115q0-14 8.5-22.5t22.5-8.5h844z m163.5-212.5q-44.5 54.5-102 65.5t-71 25.5-47.5 18.5l-31 4q-81 13-165.5 15.5t-169.5 2.5q-84 0-168-2t-166-16l-31-4q-35-5-48-19t-76.5-26.5-95.5-62.5q-32 50-94.5 62t-76.5 27-48 19l-31 4q-81 13-165.5 15.5t-169.5 2.5q-84 0-169.5-2.5t-164.5-15.5l-32-4q-35-5-46.5-18.5t-72.5-26-103-67.5-42-130q0-110 78-186t103-105.5 77-136.5 144-159q-48-40-75-96.5t-27-123.5q0-26-4.5-45t-4.5-38q0-70 35-124t91-89l-1-9q2-42 32.5-67.5t89.5-33.5q-19-80-28.5-176.5t-9.5-185.5q0-67 7-87.5t38-33.5 78-13q57 0 91 13.5t39.5 34.5 5.5 92q0 89-10 187t-27 169q65 11 91.5 36.5t28.5 64.5l-1 9q56 35 91 89t35 124q0 17-2 33.5t-6 36.5q0 143-102 233 57 32 95.5 81t67.5 111l28 55q26 50 83 102t84 88q31-43 88.5-91t101.5-144q0-5-1-14 0-51 38.5-91t91.5-71l19-14q9-7 19-12-24-22-44-47.5t-32-56.5q-87-31-139.5-89t-52.5-133q0-93 58.5-175.5t178.5-149.5q6-26 18-48.5t28-42.5l-57-42q-34-26-61-75.5t-27-104.5q0-57 33.5-93.5t95.5-36.5q10 0 22 3l22 7 20 7q9 4 15 4 16 0 22.5-26.5t43-56.5 85.5-30q45 0 80.5 25t42.5 56.5 8.5 34 11.5 2.5q11 0 37-13t48-13q62 0 95 35.5t33 92.5q0 72-39.5 127t-101.5 94q14 19 24.5 43t15.5 49q116 62 178.5 146t62.5 181q0 75-52.5 133.5t-137.5 88.5q-14 31-34 56.5t-44 47.5l11 6q12 6 67 43.5t76 83.5l9 19q8 18 8 36 0 5-1 9l-2 10q21 47 45.5 79t47.5 52l41 38q65 63 82.5 116.5t17.5 95.5q0 77-44.5 131.5z m-1582.5-786q71-61.5 71-153.5 0-18-3-35-24-20-50-36l-53-31q-87-52-106-82.5t-35-30.5q-12 0-31.5 30.5t-104.5 81.5-106 68l-2 16q0 9-1 19 0 92 70.5 153.5t174.5 61.5q105 0 176-61.5z m-99-112q-16-12.5-16-35.5 0-18 12-30.5t37-12.5q28 0 39.5 14t11.5 31q0 20-13 33t-37 13q-18 0-34-12.5z m-224-64.5q11-14 39-14 25 0 37.5 12.5t12.5 30.5q0 23-16.5 35.5t-36.5 12.5q-22 0-34.5-13.5t-12.5-32.5q0-17 11-31z m638.5 703.5q-41.5-59.5-98-107t-84-137-65.5-123-86-48.5q-35 16-74.5 24.5t-83.5 8.5q-42 0-81-8t-73-25q-52 16-88.5 50.5t-66 124.5-79.5 132-96 104.5-46 121.5q0 64 43.5 101.5t101.5 37.5 129.5-40.5 100.5-96.5 51-56q14 0 18.5 22t25.5 34 62 12q45 0 64.5-13.5t23.5-34 17-20.5q22 0 50 53t99.5 96.5 131.5 43.5q69 0 107-41.5t38-97.5q0-58-41.5-117.5z m-417.5-345.5q13 0 21 9t8 23l-45 334q-2 14-12.5 23t-24.5 9h-40q-14 0-24.5-9t-12.5-23l-45-334q0-14 8-23t21-9h146z m277 391q25 11 42.5 32t17.5 49q0 32-19.5 42.5t-44.5 10.5q-77 0-146.5-80.5t-69.5-149.5q0-26 7-36.5t16-10.5q28 0 69.5 50t88.5 73z m-485-133.5q8 9.5 8 34.5 0 66-68.5 149.5t-148.5 83.5q-29 0-47-12t-18-43q0-54 65-82.5t97-61.5l22-24q27-30 44-42t30-12q8 0 16 9.5z m1147.5-1081.5q-25.5 37-25.5 68 0 49 55 81.5t133 32.5q70 0 122-29.5t52-87.5q0-38-22-70.5t-22-48.5q0-17 27.5-30t72-61.5 44.5-90.5q0-24-15-43t-39-19q-19 0-35.5 13t-27.5 31q-13 23-34.5 92.5t-51.5 69.5q-11 0-18-8.5t-7-19.5q0-15 4-33l7-37q4-20 7.5-42.5t3.5-47.5q0-46-19.5-72.5t-52.5-26.5-50 26.5-17 79.5q0 28 4.5 57t10.5 55l5 16q2 8 2 16 0 17-7.5 25.5t-18.5 8.5q-18 0-31.5-19t-25.5-57l-11-34q-22-62-42-77.5t-44-15.5q-25 0-39 19t-14 43v10q0 26 41 75.5t72.5 64 31.5 32.5q0 17-25.5 54z m29.5 674l8 3q8 4 37.5-1t60.5-5q40 0 73.5 2t65.5 7q58-29 95-75.5t37-115.5q0-66-34-123t-90-91q-26 9-55.5 14.5t-64.5 5.5q-34 0-66-5.5t-60-14.5q-56 34-89.5 91t-33.5 123q0 63 31.5 110.5t84.5 74.5z m-185 204q-4 5-4 13 0 11 10 18l301 207q7 4 18 4 10 0 18-4l280-193q11-9 11-25 0-7-1-9 0-7-30.5-42.5t-100-66.5-172.5-31-177 27-113.5 60.5-39.5 41.5z m815 310q-30-52-81-100l-31-29q-15-14-28-29.5t-21-32.5l-144 99q33 30 47 51.5t90 58 76 90.5q0 32-19.5 42.5t-44.5 10.5q-72 0-136-68.5t-78-141.5l-59 41q-13 10-28.5 14t-32.5 4-32.5-4-29.5-14l-77-53q-7 68-73.5 145t-143.5 77q-29 0-47-12t-18-43q2-55 76.5-89t95.5-63.5 53-52.5l-148-102-16 29q-7 14-50 53t-77 84-45 74-11 60q0 64 43.5 101.5t101.5 37.5q60 0 131-41.5t99-96.5 51-55q14 0 18.5 22t25.5 34 62 12q45 0 64.5-13.5t23.5-34 17-20.5q22 0 51 54t100.5 96.5 129.5 42.5q69 0 107-41.5t38-97.5q0-47-30-99z m-424.5-657.5q-16.5-12.5-16.5-35.5 0-18 12.5-30.5t36.5-12.5q27 0 39.5 14t12.5 31q0 19-13.5 32.5t-35.5 13.5q-19 0-35.5-12.5z m-235.5-33.5q0-19 12.5-32t38.5-13 38 12.5 12 30.5q0 23-16 35.5t-36 12.5q-22 0-34.5-13t-14.5-33z"/></svg>