<svg viewBox="0 0 2600 2760.837" xmlns="http://www.w3.org/2000/svg"><path d="M2416 638.5q-30 35.5-51 67.5t-60 76l-68 77-75 88q-39 45-67.5 85t-55 65.5-47.5 59.5l-9 14q-6 9-6 14l20 49q16 38 44.5 48t50 26 37 39 24 54 8.5 71q0 103-45 229t-140 216-213 141.5-154 57.5-36 21q0 10 24.5 43t24.5 87q0 107-118.5 180t-316.5 73q-160 0-286.5-68.5t-126.5-184.5q0-25 8-51.5t17-38.5l10-13q5-7 9-13.5t4-12.5q0-17-36.5-22.5t-154-57-210-139-140-214-47.5-233.5q0-80 33.5-126t77-59 59.5-65.5 81-155.5 152-181l6-5q131-110 274-160.5t285-50.5q94 0 183 21t170 59q26-26 45.5-57t47.5-62.5 56-69.5l54-74h-1q80-110 165-201.5t129-91.5q46 5 103 52.5t174.5 157 117.5 173.5q0 27-30 62.5z m-278-228.5l-27-19q10 28 15 56.5t13 56.5q20-5 39.5-7.5t42.5-6.5q-25-29-46.5-49t-36.5-31z m-273 485q-22 5-42.5 6.5t-42.5 4.5q29 28 54.5 59.5t49.5 64.5l-10-66q-5-33-9-69z m81-119q35-6 70-14t69-14q-3-32-10-62.5t-12-62.5q-37 6-72.5 13.5t-72.5 11.5q2 32 11 63.5t17 64.5z m79-405q-35 34-66 69.5t-67 75.5q2 9 5 17.5t5 16.5q37-5 72.5-12t69.5-17q-5-32-12-72.5t-7-77.5z m-252 293l-55 72q-28 36-55 73l26 19q39-9 78-16.5t79-11.5q-7-38-15-72t-12-71q-9 2-20 3z m-1138.5 880.5q142.5 35.5 285 44.5t271.5 9q247 0 425-25t233-68.5 55-124.5q0-194-202.5-391.5t-508.5-197.5q-223 0-376 101.5t-239 237.5-86 250q0 129 142.5 164.5z m826 649q-43.5-28.5-95.5-28.5-43 0-85 3.5t-84 3.5-82.5-3.5-83.5-3.5q-51 0-94.5 28.5t-43.5 73.5q0 50 102 84t204 34q116 0 211-31.5t95-86.5q0-45-43.5-73.5z m-642.5-489.5q-129-20-238.5-58.5t-137.5-58.5l-23-16q-12-7-21.5-12.5t-16.5-5.5q-11 0-15 5t-4 13q0 12 34 94.5t133.5 172 277.5 147 382 57.5q223 0 407.5-61.5t281.5-152.5 126-168.5 29-89.5q0-7-3.5-12t-14.5-5q-13 0-36.5 20t-134.5 62.5-276.5 65.5-350.5 23q-270 0-399-20z m1159-745q20-25 41-50l44-52q-23 5-48.5 12t-48.5 7q4 22 6 42t6 41z m204-240q3-3 47-54t48-79q-29 4-59.5 11t-59.5 7q0 12 2 22.5t5 22.5z"/></svg>