<svg viewBox="0 0 2600 2760.837" xmlns="http://www.w3.org/2000/svg"><path d="M2328.5 1821q-140.5 258-385.5 381l-511 255-16 6q-8 3-25 3-27 0-41-19.5t-14-57.5v-685q0-100 22-196.5t79-144.5 225-109l162-58 4-55q2-28 2-56 0-77-27-112.5t-81-35.5q-69 0-155 53.5t-167.5 190.5-125.5 331-44 482q0 66 2 131l4 132q0 29 3.5 65t3.5 72q0 97-42 138.5t-125 41.5q-63 0-122-18l-117-36-216-68q-106-32-233.5-85.5t-174-112.5-56-150-18.5-212-9-248q0-301 22.5-457.5t87-307 228.5-275 399-124.5q46 0 92.5 4t94.5 12q31-71 129-127t183-56q97 0 190 62.5t128 152.5q36-15 82.5-24t106.5-9q270 0 433 221.5t163 534.5q0 312-140.5 570z m-1968 215.5q-17.5-33.5-43.5-33.5-29 0-44 27.5t-15 67.5q0 33 15.5 59.5t51.5 26.5q29 0 41-21.5t12-49.5q0-43-17.5-76.5z m671 217.5q-19.5-36-47.5-36t-45.5 28.5-17.5 74.5q0 41 18.5 68t53.5 27q30 0 44-23.5t14-53.5q0-49-19.5-85z m509.5-1614q5-9 16.5-23.5t31.5-31.5q-17-34-41.5-59.5t-63.5-25.5q-36 0-64.5 25t-42.5 57l84 28q41 14 80 30z m402 1200q106-115 163-275.5t57-321.5q0-103-23-200.5t-71-150.5-151-100q-14 8-23.5 21.5t-14.5 36.5q40 68 51.5 145t11.5 156v689z m366.5-932.5q-79.5-127.5-231.5-127.5-11 0-19 2t-8 10q0 11 40 37.5t92 123.5 52 306q0 189-77.5 383.5t-214.5 303.5v160q202-115 324-339t122-528q0-204-79.5-331.5z"/></svg>