<svg viewBox="0 0 2600 2760.837" xmlns="http://www.w3.org/2000/svg"><path d="M2160 1109q69 0 117.5 49.5t48.5 117.5v1188h-2052v-726q0-68 49-117.5t118-49.5h466q71 0 119 50t48 117v96h477v-558q0-68 49-117.5t118-49.5h442z m-1486.5-75.5q-153.5-130.5-153.5-327.5 0-219 138.5-352t371.5-133h33q37 0 71 10t34 30q0 8-15 20.5t-48 35.5l-54 37q-83 59-122.5 143t-39.5 176q0 140 75.5 241t181.5 118.5 106 55.5q0 37-73.5 56.5t-148.5 19.5q-203 0-356.5-130.5z m704.5-243.5q-5-4-5-10 0-7 9-8l67-11q10 0 18.5-7.5t11.5-17.5l28-59q2-8 8-8t11 8l29 58q4 8 13.5 15t19.5 8l65 7q11 2 11 10 0 5-5 9l-47 45q-12 14-12 33v4l15 66v6q0 9-8 9l-7-2-60-33q-5-4-18-4-5 0-10.5 1t-10.5 4l-57 34q-4 3-8 3-9 0-9-8 0-2 1-3t1-3l11-67v-5q0-8-4-17t-10-13z m314-373q-6-4-6-10 0-7 11-9l66-10q9-2 18-9t14-15l26-59q3-8 9-8t10 8l30 57q3 8 12.5 14.5t18.5 7.5l68 8q9 3 9 9 0 5-4 9l-48 45q-5 5-8.5 14.5t-3.5 17.5l1 7 14 66v5q0 8-7 8-6 0-8-2l-59-32q-8-4-21-4-11 0-18 4l-57 36q-6 2-8 2-8 0-8-11 0-4 3-19l7-50v-7q0-8-3-16.5t-9-13.5z m511 911q0-6-13.5-18t-31.5-12h-54q-20 0-33 14t-13 33v84q0 20 13 33.5t33 13.5h54q18 0 31.5-11t13.5-19v-118z m-1655 817q0-20-13.5-33.5t-31.5-13.5h-55q-19 0-32 13.5t-13 33.5v85q0 20 13 33t32 13h55q18 0 31.5-13t13.5-33v-85z m1459-280q0-6-13.5-17.5t-31.5-11.5h-55q-19 0-32 13.5t-13 32.5v85q0 20 13 33t32 13h55q18 0 31.5-11t13.5-18v-119z m-1255 280q0-20-13.5-33.5t-31.5-13.5h-54q-20 0-33 13.5t-13 33.5v85q0 20 13 33t33 13h54q18 0 31.5-13t13.5-33v-85z m410 0q0-20-13.5-33.5t-33.5-13.5h-53q-19 0-32.5 13.5t-13.5 33.5v85q0 20 13.5 33t32.5 13h53q20 0 33.5-13t13.5-33v-85z m1041-536q0-6-13.5-17.5t-31.5-11.5h-54q-20 0-33 13.5t-13 33.5v85q0 18 13 31.5t33 13.5h54q18 0 31.5-11.5t13.5-17.5v-119z m-1246 274q0-19-14.5-32t-31.5-13h-54q-18 0-32 13t-14 32v86q0 19 14 32t32 13h54q17 0 31.5-13t14.5-32v-86z m887-538q0-19-13.5-33t-31.5-14h-54q-20 0-33 14t-13 33v84q0 20 13 33.5t33 13.5h54q18 0 31.5-13.5t13.5-33.5v-84z m-1296 538q0-19-13.5-32t-31.5-13h-55q-19 0-32 13t-13 32v86q0 19 13 32t32 13h55q18 0 31.5-13t13.5-32v-86z m204 0q0-19-13.5-32t-31.5-13h-54q-20 0-33 13t-13 32v86q0 19 13 32t33 13h54q18 0 31.5-13t13.5-32v-86z"/></svg>