<svg viewBox="0 0 2600 2760.837" xmlns="http://www.w3.org/2000/svg"><path d="M2091 2506.5q-157 85.5-373 85.5-188 0-386-110t-444-240.5-366.5-196-161.5-161.5q-16-37-16-82 0-113 104.5-186t218.5-73q66 0 124 24t114 56v-10q0-51 34.5-88.5t107.5-87 115-105.5 42-126q0-51-5.5-99t-16.5-96q-26 0-51 6.5t-50 14.5l-49 18q-47 18-80 44t-33 56q0 8 1 16l2 17q0 57-44.5 100.5t-98.5 43.5q-52 0-81.5-43.5t-29.5-118.5q0-115 136-250t318-163q-55-96-55-202 0-139 93.5-239.5t235.5-100.5q151 0 258.5 92t107.5 235q0 68-25.5 134t-73.5 119q122 48 213.5 118t148.5 136 95.5 137 62 85 48.5 50.5 25 95.5q0 71-53 120.5t-132 49.5q-54 0-99-47t-45-118q0-20 3-40.5t3-42.5q0-45-51-99.5t-55-58.5q12 39 14.5 70.5t2.5 62.5q0 144-71 275.5t-170.5 178.5-99.5 131v15.5t2 14.5q48 19 95 33l92 29q36 12 216 35t260 83.5 80 166.5q0 150-157 235.5z m-247-367.5l-70-9q-47-5-90-14.5t-78-22.5l-51-17q6 23 10.5 45.5t4.5 43.5q0 63-55.5 102.5t-133.5 39.5q-47 0-89.5-30.5t-42.5-74.5q0-28 31-59t31-56q0-20-9.5-45.5t-16-48-44.5-36.5l-44-16q3 12 3 27 0 52-47 80t-109 28q-61 0-108.5-30t-47.5-79q0-36 39-55t39-44q0-14-8-32t-13-35q-99-70-165.5-100t-112.5-30q-71 0-133.5 43.5t-62.5 92.5q0 36 35 69t101 68l71 39q142 81 314 169.5t369 199.5 357 111q161 0 282-55.5t121-136.5q0-62-87-90t-190-42z m-700-389q3 14 3 28l101 45q0-26 8-53t22-47l17-26q9-13 16-26.5t7-25.5q0-14-12-23.5t-28-9.5q-28 0-82.5 29t-54.5 81q0 14 3 28z"/></svg>