<svg viewBox="0 0 2600 2760.837" xmlns="http://www.w3.org/2000/svg"><path d="M544 747l1-16h-1q4-59 54.5-126.5t156-108.5 240.5-41q113 0 207 34t181 105 135 143.5 81 167.5 60 203 109.5 174 100.5 82.5 170.5 112 152.5 134.5q0 22-33.5 33.5t-99.5 11.5q-57 0-118.5-6t-132.5-6q-81 0-219.5 32t-215.5 32q-41 0-81-5l-80-11q-40-5-80.5-10t-80.5-5q-42 0-92.5 7.5t-102.5 7.5q-89 0-138.5-41t-82-112.5-32.5-165.5q0-159 102-268.5t247-109.5q109 0 174.5 24.5t101.5 54.5 56 30q18 0 28.5-20.5t10.5-43.5q0-53-38.5-131t-112-113.5-181.5-35.5q-75 0-110 43.5t-85.5 70-102.5 26.5q-60 0-104.5-45t-44.5-108z m1770.5 1173.5q-63.5 35.5-138.5 35.5-58 0-152-19.5t-153-19.5q-83 0-201 55.5t-263 55.5q-78 0-211-34.5t-210-34.5-210 31.5-210 31.5q-95 0-220-45.5t-125-106.5q0-29 16.5-41t36.5-12q15 0 32 4t33 9l30 11q22 8 48.5 11.5t64.5 3.5q54 0 106.5-8.5t105.5-19.5l104-21q52-10 105-14l27-2h25q79 0 204.5 35.5t206.5 35.5q105 0 266-47.5t257-47.5q63 0 164.5 25.5t165.5 25.5q20 0 42.5-3t44.5-3q37 0 54.5 14.5t17.5 32.5q0 26-63.5 61.5z m-77 319.5q-69.5 45-179.5 45-45 0-110.5-11.5t-106.5-11.5h-18q-8 0-37.5 5t-89.5 33l-53 24q-54 24-115 37t-135 13q-78 0-199-34t-198-34q-68 0-174 19.5t-173 19.5q-142 0-233-48.5t-91-93.5q0-22 16-30t36-8q15 0 32 2.5t33 5.5l29 7q14 3 22.5 4t19.5 1h21q48 0 96.5-6t96.5-14l97-15q35-6 81-10t61-4q74 0 194.5 35.5t197.5 35.5q102 0 256-46t249-46q70 0 139.5 14t99.5 14q41 0 77.5-5t79.5-5q30 0 39 9t9 23q0 30-69.5 75z"/></svg>