<svg viewBox="0 0 2600 2760.837" xmlns="http://www.w3.org/2000/svg"><path d="M2228 1498q-220 212-665 249l-205 18q-128 13-250.5 75t-160.5 117q0 106-63.5 176t-114 133.5-102.5 118.5l-85 94-39 46q-40 47-86.5 75t-99.5 28q-81 0-143-60.5t-62-140.5q0-81 67.5-151t72.5-75l261-278 38-38q35-36 71-57t76-28q24-24 34-49.5t37.5-130 27.5-249.5q0-55 1-112l-1-74q0-387 96.5-576t263.5-286 374-97q118 0 278 48.5t301.5 163 219.5 271 78 304.5q0 273-220 485z m-336 517q39 35 62 83.5t23 105.5q0 36-11 71-24-6-46-8t-46-2q-87 0-163 40.5t-126 112.5q-53-35-84.5-90.5t-31.5-123.5q0-50 17-93 33 14 64 21t66 7q74 0 156.5-34.5t119.5-89.5z m-1216.5 19.5q-29.5-48.5-72.5-48.5l-120 127q54 23 87.5 86t33.5 139q43-45 72-82.5t29-105.5q0-67-29.5-115.5z m-178.5 191.5q-29-47-75-47-41 42-82 82t-70 76q5 0 9.5-1t9.5-1q55 0 108.5 48.5t53.5 109.5q0 10-2 15l41-43q4-9 3-9t16-28.5 17-83.5q0-71-29-118z m1546-807q38-29 71-61.5t61-68.5l-130-96-120 138z m-196 563q-41 48-100 74t-126 26q-57 0-109-21 35-51 89.5-81.5t120.5-30.5q35 0 66 8.5t59 24.5z m-683-1433q-60 64-90 146l107 80 119-128z m526 934l124-141-114-85-125 138z m-287-218l112 85 123-138-111-84z m348-64l113 84 120-136-114-84z m-919.5 702q-36.5-28-67.5-28-20 0-44.5 12.5t-51.5 34.5q47 23 78 76.5t36 129.5l16-16q26-28 48-63.5t22-73.5q0-44-36.5-72z m632.5-497l-112-84-123 135q29 22 60.5 40.5t63.5 34.5z m-122-187l124-136-108-81-125 133z m566.5 1104.5q18.5 1.5 35.5 6.5-33 58-92 93.5t-130 35.5q-23 0-45-4.5t-43-12.5q37-51 101.5-85.5t137.5-34.5q17 0 35.5 1.5z m-219.5-1169.5l121-134-111-81-121 133z m345-63l117-133-113-80-116 131z m-845-215l-123 132 107 82 123-134z m-116 435q23 26 46.5 51t50.5 49l122-136-110-84z m456-496l-121 131 110 81 119-133z m220 68l111 81 117-130-111-80z m169-185l109 78 106-118q-20-26-43.5-50t-49.5-45z m-451 73l-105-78-121 128 107 79z m513-254q-28-18-57.5-33.5t-60.5-29.5l-113 122 107 77z m-768 1114q-65-30-117.5-69.5t-84.5-85.5q-5 42-12.5 82t-18.5 81l-6 25q-3 12-3 25l-1 8q0 4 5 4 15 0 63.5-19t174.5-51z m592-921l-107-78-116 126 107 80z m-274-198l-116 125 105 78 117-126z m-307-15l129 96 117-125-70-49q-55 14-106 39t-70 39z m992 727q23-42 35-88t13-97l-51-35-116 133z m-574 315l-116-87-99 112q20 6 39 13l38 16 98-7z m140 13q50-16 99-38t95-51l-100-76-124 141z m-199-1095l104 75 98-106q-73-22-146-29z m595 266l-88 98 111 80 37-40q-15-50-32.5-86.5t-27.5-51.5z m-1156 345q0 5-1 9t-1 9q0 35 1 76t1 83l4 5 97-104z m28-296q-10 42-16 84t-8 86l104-111z m454-372l18 12 15-17z"/></svg>