<svg viewBox="0 0 2600 2760.837" xmlns="http://www.w3.org/2000/svg"><path d="M2309.5 537q5.5 2 5.5 6 0 6-12.5 14.5t-26.5 13.5l-10 4q-188 93-372.5 198.5t-353.5 235.5q0-34-18-58t-36-34q270-184 513-283t300-99q5 0 10.5 2z m-673.5 1336q5 7 8.5 15t3.5 16q0 17-13 27t-27 10l-505-5-219 455q-5 10-15 16t-21 6q-14 0-23.5-7.5t-13.5-19.5l-158-482-494-69q-16-2-25-13t-9-27q0-18 15-30l406-298-84-499q0-16 11-28t28-12q12 0 24 7l404 293 448-230q7-4 18-4 17 0 27.5 12t10.5 26v6q0 4-1 7l-159 474z m-270-72l-251-244 110-327-309 158-278-201 58 340-280 205 341 47 109 333 152-314z m-507-791q-12-12-12-20 0-7 9.5-16.5t25.5-22.5l15-11q233-186 436.5-301t384.5-182 219-67q3 0 9 2t6 7q0 16-63.5 40.5t-266.5 135-370.5 231-240 189.5-88.5 69q-10 0-22-10.5t-23-21.5z m1562.5-159q-53.5 28-271 158.5t-382 266-217 194-70.5 58.5q-19 0-49.5-30t-30.5-42q0-5 5-11.5t13-13.5l29-25q324-286 634.5-443t379.5-157q7 0 10 1.5t3 5.5q0 10-53.5 38z"/></svg>