<svg viewBox="0 0 2600 2760.837" xmlns="http://www.w3.org/2000/svg"><path d="M2301 1654q14 61 14 123 0 151-77 247.5t-282 223-355.5 178-295.5 51.5q-110 0-260-36t-203.5-124-53.5-217q0-22 1-42.5t5-42.5q-54-5-87.5-45.5t-33.5-100.5q0-51 22-103t61-96q-228-29-306.5-116.5t-78.5-258.5q0-17 2-25-69-23-101-75.5t-32-116.5q0-78 38.5-150.5t168.5-162.5l68-47q219-158 444-243.5t414-85.5q72 0 159.5 14t278.5 72l46 16q77 27 102.5 78.5t25.5 122.5v71q0 31-19.5 58.5t-75.5 58.5q9 48 9 101 0 54-11.5 107.5t-39.5 100.5q206 21 307.5 73.5t153 117 51.5 137.5q0 37-15 75t-44 62z m-85.5 93q-1.5-19-3.5-37-42 19-80.5 37t-75.5 36l-71 36q-103 52-114.5 55.5t-172.5 94-199 109-84 18.5q-92 0-212-40.5t-309-40.5q-9 42-9 85 0 72 22 130t64 81 142.5 46 191.5 23q208 0 436.5-123t352-224 123.5-249q0-18-1.5-37z m-1590.5-206l47 11q46 12 89.5 19.5t80.5 10.5q86-75 236-169t249-129q0-29-1-57t-4-57q-26 16-76.5 42.5t-94.5 55-97.5 51.5-96.5 34.5-102 11.5q-97 0-235.5-34.5t-149.5-37.5q-2 4-2 11 0 60 17 114t45 80 95 43z m420-992q92 7 222 46.5t162 57.5l34 17q64-28 139-59t156-49q-97-31-191.5-53.5t-193.5-22.5q-84 0-167 18.5t-161 44.5z m841 142l-2-42q-7 0-19-1-59 0-139.5 24.5t-187.5 71.5q16 21 27 59t19 111q175-92 238.5-114.5t63.5-36.5v-72z m-915.5 1122q43.5-1 87.5-1 74 0 206.5 41.5t162.5 41.5q84 0 200.5-93t300-170.5 249.5-81.5 66-31q0-18-17-25.5t-40-7.5q-65 0-180 35t-243.5 103.5-211 128-111.5 59.5q-46 0-107-22t-149-38-162-16q-83 0-126.5 13t-43.5 39q0 17 13.5 21.5t30.5 4.5q31 0 74.5-1z m774.5-646q27-32 41-79t14-100q0-17-1-35t-3-35l-10 4q-51 24-100 49.5t-97 51.5l-1 95q0 22 1 43.5t1 44.5q33-8 66.5-12t68.5-6z m-1029-464q-98 57-171.5 110t-125.5 101l37 7 167 34q205 43 230 53.5t44 10.5q6 0 9-1l6-1q52-33 109.5-81t114.5-84l68-44q-41-26-116-42t-193.5-40.5-163.5-24.5q-4 0-7 1t-8 1z m224 554.5q32-8.5 91.5-35t157.5-85.5l121-73q-8-59-15.5-102t-24.5-78q-40 23-76 49t-72 53l-75 57q-34 25-73 50t-77 25q-35 0-80.5-17t-140-35-184.5-39-140-21q-8 18-11 36.5t-3 35.5q0 84 72 100.5t211.5 52 233.5 35.5q53 0 85-8.5z"/></svg>