<svg viewBox="0 0 2600 2760.837" xmlns="http://www.w3.org/2000/svg"><path d="M2209.5 2100.5q-30.5 34.5-81.5 42.5l-617 179q-7 5-27.5 8t-32.5 3l-11 1q-17 0-144.5-5.5t-353.5-23.5l-222-18q-111-9-221-16-51 0-79-36.5t-28-100.5q0-148 14-324t23-232 31-118l21-56q10-27 10-49 0-32-36.5-55.5t-66-72.5-29.5-117q0-102 68-189.5t194-141 288.5-107 328-85.5 276.5-32q308 0 506.5 138.5t198.5 299.5q0 104-59.5 158t-59.5 57q2 28 33 84t42 106.5 11 98.5 15.5 213.5 27 212 11.5 84.5q0 59-30.5 93.5z m-728.5 21q-11-39.5-25-201.5t-19-240-22-108.5-40-81-23-94.5q0-27 12-48t36-43l19-16q35-28 43.5-47.5t8.5-55.5q0-74-83.5-161.5t-223-135.5-299.5-48q-168 0-288.5 75t-120.5 194q0 60 43.5 97.5t66.5 72.5 23 75q0 49-28.5 116t-37.5 155l-16 145q-8 81-12 160.5t-4 160.5v49.5t5 31.5q113 7 226 16l224 19q111 9 222.5 16t222.5 10q12 0 24 1t25 1q31 0 41.5-7t10.5-33q0-35-11-74.5z m120-1228.5q-35-36-67-36-9 0-23.5 7.5t-14.5 21.5q0 6 13.5 24.5t27.5 40.5 30 33.5 32 11.5q14 0 25.5-10t11.5-26q0-31-35-67z m182.5-37.5q-34.5-35.5-66.5-35.5-13 0-25 8.5t-12 20.5q0 9 33.5 60t67.5 51q14 0 25.5-9.5t11.5-27.5q0-32-34.5-67.5z m152-35q-34.5-35.5-66.5-35.5-14 0-26.5 8t-12.5 22q0 6 14 25t27 40.5 29 33 32 11.5q14 0 26-9.5t12-27.5q0-32-34.5-67.5z"/></svg>