<svg viewBox="0 0 2600 2760.837" xmlns="http://www.w3.org/2000/svg"><path d="M2339 1730v146q0 174-130 318t-337.5 221.5-567.5 77.5q-198 0-329-18.5t-236-57-191.5-96-143-119.5-82-113-40.5-96-15-156v-118q-49-29-75-82t-26-155q0-166 45.5-311.5t121-226 204.5-147.5l1-105q0-21-10-22t-50.5-46-40.5-116q0-91 75-174t131-83q59 0 109 89.5t50 156.5q0 61-32.5 110.5t-89.5 67.5l1 57q35-13 69-23t69-17q45-64 86.5-95t76.5-31 62.5 27 47.5 63l99-5q0-18 1-37v-33q-47-23-74-68t-27-110q0-81 76.5-163t128.5-82q59 0 109 89t50 157q0 63-33.5 112t-88.5 68q0 8 1 20v47q42 0 82.5 1t79.5 6q20-20 45.5-37.5t54.5-17.5q30 0 55.5 23t45.5 55q48 9 95.5 24t94.5 33v-17q-42-11-72-63t-30-115q0-65 71.5-155.5t134.5-90.5q60 0 109.5 91t49.5 157q0 61-33 109.5t-89 68.5l2 88q130 76 234.5 179.5t136.5 213 32 267.5q0 98-23.5 163.5t-70.5 95.5z m-292.5-1104.5q27.5-33.5 27.5-82.5 0-55-34-111t-49-59q-42 10-86 72.5t-44 108.5 26.5 75.5 77.5 29.5q54 0 81.5-33.5z m-450.5 52.5q-38 8-84.5 70.5t-46.5 103.5q0 61 27.5 87t76.5 26q53 0 82-33.5t29-82.5q0-9-2-18l-4-19q-18-54-40.5-92t-37.5-42z m-244.5-191q28.5-31 28.5-84 0-57-35-112t-49-58q-43 10-86.5 72t-43.5 107q0 47 26.5 76.5t77.5 29.5q53 0 81.5-31z m-313.5 408q28-33 28-81 0-53-34-110.5t-50-62.5q-35 4-82.5 68t-47.5 102q0 50 24 83.5t80 33.5q54 0 82-33z m-339-317q27-33 27-79 0-53-32.5-110.5t-50.5-63.5q-45 14-88 74t-43 108q0 45 27.5 74.5t77.5 29.5q55 0 82-33z m1522 1159q-20-7-40.5-15t-41.5-8q-60 0-101.5 80t-94 122-118.5 42q-41 0-80.5-8.5t-79.5-8.5q-90 0-158.5 55.5t-131 77.5-131.5 22q-117 0-204-69t-145-69q-14 0-29 4l-32 8q-17 5-34.5 8.5t-34.5 3.5q-69 0-134.5-36.5t-107-136-111.5-99.5q-14 0-27 4 0 201 19.5 270t103 156.5 199.5 141 264 74 333 20.5q356 0 537-73.5t280.5-186.5 99.5-242v-137z m-3.5-593q-74.5-125-187.5-200 0 40 1 74.5t1 62.5q0 93-16.5 117.5t-53.5 24.5q-49 0-67-25.5t-18-69.5q0-80 2.5-144.5t4.5-123.5q-33-15-66.5-27.5t-67.5-21.5q2 11 3 20.5t1 19.5q0 61-32 109.5t-89 68.5q0 26 1.5 50.5t1.5 50.5v326q0 40-21 56.5t-50 16.5q-45 0-64.5-22.5t-19.5-73.5q0-46 3-76t3-65q0-62 2-129.5t2-136.5q-42-13-71-63.5t-29-106.5q0-49 22-93l-38-2q-19 0-38-1l-1 229 1 21q0 39-21 56.5t-50 17.5q-51 0-67.5-28t-16.5-68v-59.5t2-56.5l3-52 2-54-53 4q4 20 4 45 0 60-32 109t-89 68q3 22 4 49v87l-1 35 1 70-1 164q0 7 1 12v10q0 40-21 56.5t-50 16.5q-42 0-62-21t-20-75q0-94 4-197.5t4-209.5q-43-22-70-60.5t-30-100.5q-49 9-94 26v249q0 39-22 56.5t-50 17.5q-51 0-67-28t-16-69q0-26 1-47l2-40q0-19 1-36.5t1-37.5q-127 74-189.5 206t-62.5 344q0 66 18.5 94t55.5 28q22 0 46-5t47-5q49 0 84 41.5t69.5 110 67 93 99.5 24.5q37 0 73-8t72-8q54 0 101 32.5t76 63.5 74.5 48.5 93.5 17.5q83 0 154-66t135.5-82 168.5-16q23 0 45 2t42 2q60 0 90.5-31.5t60-89 70.5-93.5 105-36q27 0 54 10t48 10q30 0 45-38t15-92q0-207-74.5-332z m-186.5 354q-117 80-311 137t-418 57q-218 0-418-57.5t-350-168.5l-38-29q-39-28-67-61t-32-64q0-6 2-17t15-11q7 0 17.5 7.5t21.5 17.5l23 22q55 56 182 126t294 110.5 351 40.5q218 0 417-57t371-180l19-12q13-8 25-8 10 0 11.5 9.5t1.5 19.5q0 38-117 118z"/></svg>