<svg viewBox="0 0 2600 2760.837" xmlns="http://www.w3.org/2000/svg"><path d="M2478 1635v562q0 91-65.5 156.5t-156.5 65.5h-1911q-91 0-157-65t-66-157v-562h207l-76-56q-7-7-11.5-14.5t-4.5-17.5q0-12 7.5-22t18.5-15l216-79-170-182q-10-12-10-26 0-16 9-27t25-13l282-32-108-268q-3-6-3-13 0-18 12-29.5t29-11.5q7 0 11 2l275 93-4-288q0-15 11.5-27.5t28.5-12.5q6 0 13 3t12 7l241 207 127-278q11-24 36-24 11 0 21 6t15 16l145 292 260-196q12-7 23-7 18 0 29 11.5t11 28.5v4l-33 281 265-81q8-2 12-2 17 0 27.5 12.5t10.5 26.5v6q0 4-1 7l-92 264 282 18q17 0 27 12t10 28q0 15-12 27l-193 178 218 75q10 4 18 14t8 22q0 21-18 34l-70 47h219z m-1728-21l2 21h1089q2-9 2-28 0-151-69.5-271.5t-205-184-278.5-63.5q-241 0-391 151.5t-150 354.5q0 10 1 20z m-393-54l102 75h214q0-11-1-21t-1-20q0-234 173.5-409.5t445.5-175.5q165 0 319 75t233.5 216.5 79.5 297.5q0 19-3 37h199l103-69-206-69q-12-4-19.5-14t-7.5-23q0-17 13-29l174-161-242-15q-16 0-27-11t-11-28q0-5 2-13l84-239-254 77q-3 0-6 1-16 0-27.5-12t-11.5-29v-5l29-249-225 170q-11 8-24 8-11 0-20.5-6t-14.5-16l-128-261-115 252q-5 10-15 16.5t-21 6.5q-14 0-26-10l-215-185 4 257q0 17-11.5 29t-28.5 12q-3 0-6-1l-253-86 95 237 2 8q0 4 1 8 0 15-10.5 26t-24.5 12l-255 29 158 167q10 11 10 27 0 26-25 36z m1541 209.5q-25-11.5-83-11.5-99 0-195-2t-195-2l-359 1-261-1q-32 0-55.5 13.5t-23.5 42.5q0 16 24.5 42.5t112.5 31.5 100 30 30.5 56.5 69.5 31.5l44-1q43 0 63.5 7.5t35.5 24.5l19 25q23 28 60 35.5t74 7.5q61 0 115-11t78-47.5 94.5-36.5 113.5-20.5 73-69 60-68 30-43.5-25-35.5z m459.5 19q-28.5-15.5-123.5-15.5-48 0-68.5 14.5t-20.5 43.5q0 28 21.5 42.5t91.5 14.5q74 0 101-12.5t27-37.5q0-34-28.5-49.5z m-1624 192q-28.5-15.5-121.5-15.5-48 0-70 14t-22 44q0 28 21.5 42.5t91.5 14.5q67 0 98-11t31-38q0-35-28.5-50.5z m1422.5-16q-29-15.5-122-15.5-53 0-71 15t-18 42q0 29 21.5 43.5t89.5 14.5 98.5-10.5 30.5-39.5q0-34-29-49.5z m-1708.5-142.5q-29.5-16-120.5-16-49 0-69.5 14.5t-20.5 41.5q0 29 20 44t91 15 100-11.5 29-37.5q0-34-29.5-50z"/></svg>