<svg viewBox="0 0 2600 2760.837" xmlns="http://www.w3.org/2000/svg"><path d="M2133 866q26 18 46 56t20 70v1378h-627v-397q0-38-26.5-64.5t-64.5-26.5h-363q-38 0-64 26.5t-26 64.5v397h-627v-1378q0-34 20.5-72t44.5-54l768-544q26-18 65.5-18t65.5 18z m-1151 582q0-54-39.5-93t-93.5-39-93 39-39 93v185h265v-185z m450 0q0-54-39-93t-93-39-93.5 39-39.5 93v185h265v-185z m274.5-594q-23.5-21-37.5-21-6 0-7.5 6.5t-1.5 16.5q0 25-24 49t-43 39l2-16v-15q0-99-71-170t-170-71-170.5 70.5-71.5 170.5l1 16q-21-18-27-45t-6-60q0-23 2-39l1-15q0-25-23-25-54 0-153 95t-99 147q0 11 7.5 16t23.5 5h17q27 0 61 6.5t76 28.5l55 30q116 64 181.5 75t99.5 11q78 0 136-32.5t121-97.5 83.5-94.5 40.5-35.5 20-14q0-10-23.5-31z m176.5 594q0-53-39-92.5t-94-39.5q-54 0-93 39t-39 93v185h265v-185z m-421-425.5q-46 45.5-108 45.5-63 0-109-45.5t-46-109.5 45.5-109 109.5-45 109 45 45 109-46 109.5z"/></svg>