<svg viewBox="0 0 2600 2760.837" xmlns="http://www.w3.org/2000/svg"><path d="M2430 1796v611h-197v-349q0-48-36-83t-83-35h-74q-49 0-84 35.5t-35 82.5v349h-1016v-944l-72 1q-253 0-397.5-45t-205-148-60.5-349q0-329 11.5-446t54-180 105.5-113.5 220-79.5 433-29q326 0 486.5 35.5t223 101 101.5 180.5 39 424q0 228-38 342t-100.5 172.5-190 94-407.5 38.5v167q26-53 77-86t114-33h919q82 0 143.5 57t67.5 140h-1321v89h1322z m-1838-917.5q51-43.5 111.5-126t60.5-162.5q0-86-61.5-135.5t-153.5-49.5q-72 0-143.5 51.5t-71.5 113.5q0 30 16 53.5t46 23.5q23 0 62.5-26t70.5-26q15 0 32 12.5t17 43.5q0 20-14 44.5t-35 49.5l-22 25q-7 7-81 88.5t-74 141.5q0 33 16.5 68t42 48.5 90.5 13.5q22 0 44 1.5t47 1.5q34 0 97-12t63-69q0-34-21-56.5t-56-22.5l-82 1q-24 0-38-10t-14-21q0-21 51-64.5z m339 85.5q63 0 62 46t12.5 84.5 64.5 38.5q50 0 71-23.5t21-67.5q0-50 9.5-67.5t56-24 62-30 15.5-68.5q0-31-13.5-54t-36.5-23q-6 0-12.5 1t-12.5 1q-23 0-32.5-19t-9.5-44q0-29 6.5-59.5t6.5-54.5q0-91-26-131t-76-40q-67 0-141 77.5t-132.5 167.5-58.5 175q0 53 37.5 84t94.5 31h32z m813 1083q0-44-32-75.5t-76-31.5h-320q-43 0-75.5 31.5t-32.5 75.5v127q0 44 32.5 75.5t75.5 31.5h320q44 0 76-31.5t32-75.5v-127z m-743-1241h-9q-22 0-41-10t-22-33q0-31 20.5-54t40.5-45.5 36-22.5q17 0 26.5 26t9.5 60q0 49-23.5 64t-37.5 15z m569 209q0 69 8.5 90t47.5 21 59.5-13 20.5-54q0-11-1-21.5t-1-19.5l3-136v-42q0-101-14-127.5t-57-26.5q-31 0-48.5 16.5t-17.5 60.5q0 14 1 25v19q0 19-6.5 31.5t-13.5 12.5h-50q-11 0-17.5-13.5t-6.5-30.5l1-19v-25q0-39-15.5-58t-50.5-19q-34 0-52 22.5t-18 58.5v23q0 12-1 26l3 154v48q0 9-1 19.5t-1 21.5q0 41 20.5 54t59.5 13q35 0 45.5-16.5t10.5-71.5v-39q0-10 5-16t22-6h32q16 0 24.5 3t8.5 12v23z"/></svg>