<svg viewBox="0 0 2600 2760.837" xmlns="http://www.w3.org/2000/svg"><path d="M2349.5 1012q-20.5 43-45.5 57t-39 47l-11 25q-20 43-57.5 69t-73.5 26q-63 0-115.5-22.5t-85.5-22.5q-45 0-168.5 27.5t-137.5 27.5q-23 0-35.5-8.5t-31.5-31.5q-84 33-137.5 100t-87.5 234l-22 112q-27 133-99.5 283.5t-167.5 250-194 144.5-173 45q-196 0-317-168t-121-399q0-256 187-485t460-334 521-105h90q7-48 33.5-71.5t112.5-33 135.5-27 83-107.5 81.5-116 95-26q79 0 117 50t43 49 63 36 58 109q0 57 30 88.5t30 85.5q0 48-20.5 91z m-1366 338.5q20.5 18.5 42.5 18.5 17 0 35-16.5t18-45.5q0-27-24.5-52.5t-49.5-25.5q-21 0-31.5 18t-10.5 40q0 45 20.5 63.5z m-157.5 806.5q14-14 14-34 0-33-31-61t-57-28q-20 0-32.5 15t-12.5 37q0 30 29.5 57.5t56.5 27.5q19 0 33-14z m137.5-587q17.5-16 17.5-45 0-27-28.5-50.5t-59.5-23.5q-17 0-32.5 12t-15.5 34q0 29 26 59t54 30q21 0 38.5-16z m84.5 423.5q14-12.5 14-31.5 0-40-27.5-65.5t-55.5-25.5q-20 0-35 12t-15 34q0 30 26.5 59.5t58.5 29.5q20 0 34-12.5z m117-245.5q14-12 14-32 0-40-25-68t-54-28q-19 0-33 11.5t-14 34.5q0 32 23.5 63t54.5 31q20 0 34-12z m83.5-398.5q-17.5-21.5-41.5-21.5-23 0-40.5 17t-17.5 41q0 23 16.5 43.5t42.5 20.5q23 0 40.5-15t17.5-40q0-24-17.5-45.5z m40-242.5q-23.5-19-52.5-19-20 0-35 12t-15 40 20.5 46.5 45.5 18.5q22 0 41-16.5t19-41.5q0-21-23.5-40z m964-225q-20.5-21-44.5-21-20 0-40 7t-42 7q-6 0-12-2.5t-6-10.5q0-11 35.5-22.5t53-31.5 17.5-51q0-24-20.5-42.5t-44.5-18.5q-23 0-43.5 29.5t-38.5 29.5q-6 0-10.5-3t-4.5-9q0-4 16-30t16-56q0-29-14.5-42t-40.5-13q-63 0-82 68.5t-67.5 120.5-120.5 66l-59 12q-34 8-63 11t-51 8q-4 19-6.5 39.5t-2.5 45.5q3 96 13 119t36 54q24-4 127.5-29t173.5-25q42 0 97 23.5t87 23.5q26-2 46.5-28t20.5-50q0-26-35.5-34.5t-35.5-21.5q0-14 15-14 20 0 35.5 5.5t35.5 5.5q43 0 61.5-25t18.5-57q0-17-20.5-38z"/></svg>