<svg viewBox="0 0 2600 2760.837" xmlns="http://www.w3.org/2000/svg"><path d="M2277 572q35 0 60 24t25 59v1384q0 34-25 59.5t-60 25.5h-224q-32 0-57.5-19.5t-25.5-33.5v-136h-59v408h-586v-241q0-20-71-32.5t-175-12.5q-114 0-179.5 12.5t-65.5 32.5v241h-596v-1703q0-63 46-106.5t106-43.5h1370q62 0 106.5 44t44.5 106v46h59v-61q0-14 25.5-33.5t57.5-19.5h224z m-1839 419h214v-256h-214v256z m0 410h214v-258h-214v258z m0 408h214v-258h-214v258z m302 155h-302v219h302v-219z m268-413h-212v258h212v-258z m0-408h-212v258h212v-258z m0-408h-212v256h212v-256z m358 816h-214v258h214v-258z m0-408h-214v258h214v-258z m0-408h-214v256h214v-256z m355 1229h-303v219h303v-219z m1-413h-214v258h214v-258z m0-408h-214v258h214v-258z m0-408h-214v256h214v-256z m248 49h-59v1052h59v-1052z"/></svg>