<svg viewBox="0 0 2600 2760.837" xmlns="http://www.w3.org/2000/svg"><path d="M1841 899q211 112 331.5 304.5t120.5 415.5q0 225-111.5 402t-335.5 277-546 100q-323 0-547-101t-335-277.5-111-400.5 123.5-420.5 352-310 520.5-113.5q34-142 152-234t270-92q72 0 142.5 17.5t136.5 45.5l20 7h-1q15 6 25.5 16t10.5 27q0 18-21 83t-72 133.5-125 120.5z m212.5 336q-123.5-177-337.5-267-97 40-194 40-37 0-73-6-20 59-72 92t-117 33q-79 0-136.5-48.5t-57.5-118.5q0-13 2.5-25t6.5-23q-296 57-474 254.5t-178 452.5q0 309 232 486t645 177 645-177 232-486q0-207-123.5-384z m-735.5-308.5q-22-17.5-58-17.5-32 0-55 16.5t-23 34.5q0 15 20.5 32.5t57.5 17.5q30 0 55-14t25-36q0-16-22-33.5z m-423.5 447.5q-21.5 20-56.5 20-31 0-46-16.5t-15-38.5q0-25 18.5-46t48.5-21q28 0 50 16t22 40q0 26-21.5 46z m701.5 246.5q-23 16.5-51 16.5-25 0-44.5-17.5t-19.5-45.5q0-26 20.5-42t46.5-16 48.5 18.5 22.5 44.5q0 25-23 41.5z m125.5-417q23.5 20.5 23.5 56.5 0 25-17 37t-40 12q-29 0-52.5-18t-23.5-50q0-30 18.5-44t40.5-14q27 0 50.5 20.5z m-969.5 507q22 20.5 22 54.5 0 28-16 41t-36 13q-29 0-53.5-20t-24.5-49q0-23 15.5-41.5t41.5-18.5q29 0 51 20.5z m1139-185.5q20-17 43-17 25 0 43.5 19.5t18.5 39.5q0 25-22 42.5t-47 17.5q-23 0-39.5-17t-16.5-42q0-26 20-43z m-701 446.5q20 18.5 20 47.5 0 25-20 37.5t-43 12.5-42.5-12.5-19.5-39.5q0-32 18.5-48t41.5-16q25 0 45 18.5z m439-76.5q19-17 44-17 24 0 42.5 19.5t18.5 39.5q0 24-22.5 42t-47.5 18q-23 0-38.5-17t-15.5-42q0-26 19-43z m-477-321.5q-22 17.5-47 17.5-23 0-38.5-17t-15.5-42q0-26 19-43t42-17q22 0 42 17t20 42-22 42.5z"/></svg>