<svg viewBox="0 0 2600 2760.837" xmlns="http://www.w3.org/2000/svg"><path d="M2174 1672v298q24 0 27.5 19t45 142 91.5 224 76 126 26 41q0 11-9 19.5t-20 8.5h-2222q-14 0-22-8.5t-8-19.5q0-14 20.5-32t64-97 98.5-234.5 55-166.5q2-10 10-16t18-6v-298h-118q-35 0-74.5-14.5t-60.5-29.5l-14-9q-13-9-13-25 0-11 9-19t20-8q75-4 149-64.5t100-99 46-38.5h211v-126h-114q-32 0-79-18t-47-43q0-11 9-20.5t21-9.5q94 0 161.5-39t86-68 36.5-29h100v-212h-17q-63 0-105-22.5t-59-50.5l-10-15-2-6q0-3-1-6 0-13 9.5-21t22.5-8q11 0 20 3.5t20 3.5q49 0 98-59t87-155q-46-11-66.5-44t-20.5-68q0-43 27-79t68-36q12 0 16 5.5t4 13.5q0 15-6 29t-6 32q0 27 39 36t53 38h224q21-37 26-50t25-13q19 0 25.5 15.5t25.5 47.5h225q9-28 49.5-37t40.5-37q0-18-6-31t-6-30q0-8 4-13.5t16-5.5q39 0 67.5 35t28.5 80q0 36-21 68.5t-65 43.5q38 96 86.5 155t98.5 59q9 0 19-3.5t19-3.5q13 0 22.5 8t9.5 22q0 8-2 11l-9 16q-17 27-59 49.5t-106 22.5h-16v212h98q18 0 35 27t84.5 68 165.5 41q14 0 21.5 9.5t7.5 21.5q0 23-45 41.5t-81 18.5h-112v126h211q19 0 44 38t99 99 150 65q14 0 21.5 9t7.5 20q0 14-13 23l-13 9q-23 16-61.5 30t-73.5 14h-119z m-118 3h-1513v295h1513v-295z m-756-1188q-19 47-74.5 109.5t-114.5 77.5h378q-55-6-109.5-69.5t-79.5-117.5z m-329 525h106v-88q0-28 19.5-46.5t46.5-18.5q26 0 45.5 18.5t19.5 46.5v88h184v-88q0-28 19.5-46.5t46.5-18.5q26 0 45 18.5t19 46.5v88h107v-212h-658v212z m832 245h-181q76 43 181 82v-82z m-503-83q-63 75-145.5 125t-173.5 62h638q-95-11-185.5-71t-133.5-116z m-503 165q103-40 181-82h-181v82z m466 552h-78v-143h78v143z m151 0h-78v-143h78v143z m-589 0h-78v-143h78v143z m150 0h-78v-143h78v143z m879 0h-78v-143h78v143z m-151 0h-79v-143h79v143z"/></svg>