<svg viewBox="0 0 2600 2760.837" xmlns="http://www.w3.org/2000/svg"><path d="M2163 431l20 13q20 14 34.5 39.5t14.5 58.5v12q0 7-2 13v2q-9 84-49 190.5t-48 131.5q32 24 44 55t12 56q0 36-16.5 76.5t-52.5 115.5l-36 73q12 9 19 17.5t7 14.5-15 79.5-31 130.5l-22 77q-14 48-64.5 264t-74 286-41.5 143.5-51 73.5q-21 0-40-10t-169-22.5-286-12.5q-129 0-274 12.5t-163 22.5-39 10q-32 0-50.5-74.5t-38-132.5-61.5-228-60.5-251.5-42-157-35.5-157.5q-2-11-6-23.5t-4-23.5q0-19 16-31.5t38-17.5q-34-74-108-216.5t-109-256.5l-7-28q-4-16-4-33 0-63 50.5-103.5t125.5-40.5q47 0 85 26.5t58 62.5l28 47 11 17q-6-60-10.5-120t-4.5-122v-10q0-6-1-22 0-98 49.5-140t145.5-42q69 0 109 65.5t60 260.5l4-69q2-34 7-69l1-10q5-97 50-139.5t126-42.5q68 0 105 28t47 79l1 2q11 49 14.5 96.5t3.5 95.5v130l11-4q7-50 19-95.5t26.5-102 30-96 55-71.5 111.5-32 111.5 40 39.5 104v20q-3 77-15 150.5t-27 151.5q21-59 45-117t52-115l5-9q31-72 66.5-98t77.5-28h7q33 0 63 10t52 21z m-899 1015q-4-30-23-262.5t-36-306.5-24.5-81-22.5-7q-37 0-55.5 20.5t-18.5 70.5l-1 72q0 28 3 54.5t3 38.5v23l6 69q7 65 15 180.5t8 123.5q23 3 60.5 4t85.5 1z m571-479q0-10 1-18 0-19-26-34t-55-15q-6 0-8 1.5t-27.5 42.5-54.5 131l-36 108-93 256q15 0 31-4t28-4q58-14 86.5-39t41.5-65l6-22q6-21 13-35t17-22q22-65 37-126.5t37-136.5z m-283-114q0-5 1.5-11t1.5-12q0-19-17.5-25.5t-32.5-6.5q-33 0-47.5 18.5t-35 61.5-48.5 143l-29 102q4 38 7 78l6 82q3 41 6.5 81.5t8.5 77.5l23-1 37-129 34-107q32-97 49-169.5t24-112.5z m-547 558q-26-241-59-381t-45-161-38-21q-48 0-58.5 12t-10.5 60q0 41 4.5 80t11.5 77l15 78q7 39 12 80 54 0 69 28.5t26.5 71.5 72.5 76z m-294-167q4-2 9-2h9q-6-41-24.5-140t-18.5-190q0-19 2-29-48-80-80.5-138.5t-63.5-58.5q-29 0-48 10t-19 26q0 6 2 13l4 15q40 123 118.5 275.5t109.5 218.5z m112.5-649.5q5.5 72.5 13.5 146.5 6 0 12-1t14-1q44 0 73.5 17.5t48.5 43.5l4-13-14-98-14-116q-12-104-25.5-143.5t-18-43-13.5-3.5q-50 0-68 13t-18 54q0 72 5.5 144.5z m488.5 273.5q3-7 7.5-16t6.5-18q0-48-1.5-93t-1.5-92q0-19 1-37t1-37l-3-86q-2-28-7.5-62.5t-15-41-37.5-6.5q-60 0-64.5 49.5t-10.5 108-6 146.5q46 6 76.5 36.5t48.5 115.5z m810-311l2-9q0-3 1-6 0-10-27.5-22t-51.5-12q-22 0-40 40t-53 117-68 172q21 13 36 35 12-12 33.5-23.5t52.5-11.5h15l15 2q0-5 38.5-105.5t46.5-176.5z m-567 123q0 5-1 8.5t-1 8.5q52 12 81 50.5t29 85.5l8-9q20-91 36.5-181.5t21.5-182.5q0-32-10.5-41.5t-32.5-9.5q-56 0-71 50.5t-24 79.5-18 76l-10 33q-5 16-8 32z m501 287.5q-25-22.5-49-22.5-9 0-26.5 19t-32.5 43l-15 23-4 13q-11 50-24.5 98.5t-27.5 96.5q20 5 44.5 6.5t49.5 1.5q33-60 71.5-141.5t38.5-100.5q0-14-25-36.5z"/></svg>