<svg viewBox="0 0 2600 2760.837" xmlns="http://www.w3.org/2000/svg"><path d="M2115.5 2390.5q-24.5 18.5-52.5 18.5-19 0-40.5-15.5t-54.5-54.5l-31-35q-58 34-124 54t-132 20q-101 0-178-48t-117.5-138-40.5-165q-119 0-206.5-53.5t-135-156-47.5-187.5q0-5 1-10v-6q-152 0-251-64.5t-150-180-51-204.5q0-112 35.5-205.5t95.5-161.5l-41-46q-21-25-78-83.5t-57-102.5q0-33 27.5-61.5t64.5-28.5q31 0 57 18t49 49l25 34 87 113q60-33 134-55.5t152-22.5q195 0 340.5 132.5t145.5 320.5q0 20-1.5 46t-7.5 46q142 31 237.5 139t95.5 250q0 19-3.5 38t-3.5 37q124 30 202.5 124.5t78.5 212.5q0 59-25 133t-67 123l32 39q16 19 38 41t22 49q0 29-24.5 47.5z m-681-477q33.5-14.5 62.5-24t74-55 72.5-122.5 27.5-155q0-108-44.5-190t-121.5-112q-40 107-103 169.5t-153.5 110.5-192.5 68v14q0 7-1 15 0 55 32.5 133t97 120.5 156.5 42.5q60 0 93.5-14.5z m-733.5-1040.5q-45 57-71 131.5t-26 163.5q0 52 29 132t79.5 129 108 67 95.5 20 123-33 153-99.5 104.5-149.5 36.5-181q0-120-82-231.5t-198-111.5q-60 0-119 17t-105 42q20 22 38.5 47.5t18.5 49.5q0 34-28.5 55.5t-60.5 21.5q-33 0-63-33.5t-33-36.5z m743 1162q0 40 25.5 105t78 102 133.5 37q116 0 199.5-88.5t83.5-200.5q0-76-38.5-148t-102.5-107q-33 81-79 125.5t-123.5 89.5-176.5 66v19z"/></svg>