<svg viewBox="0 0 2600 2760.837" xmlns="http://www.w3.org/2000/svg"><path d="M1142 2179h-22q23 21 42 44l33 41q8 11 18 26t10 27q0 29-66 56.5t-123 27.5q-21 0-32-20t-11-73q0-29 2.5-50t2.5-41q0-13-1-27-51 57-105 85t-102.5 40-144.5 12l-34-1h-36q-197 0-277 81t-84 182-55 101q-26 0-35.5-11.5t-9.5-33.5q0-100 54.5-193.5t146.5-146 275-52.5h84q124 0 185.5-32.5t103.5-100.5q-165-151-251-380.5t-86-501.5q0-259 113.5-479.5t315.5-344.5 455-124q234 0 439 117.5t323 322.5 118 441q0 291-157.5 519t-450.5 359-614 131q-13 0-24-1z"/></svg>