<svg viewBox="0 0 2600 2760.837" xmlns="http://www.w3.org/2000/svg"><path d="M304 767q-20-11-30-21.5t-10-25.5q2-29 35.5-79.5t65-79.5 54.5-50.5 48-21.5q31 0 62 32.5t95 143.5l79 138 57 109q6 11 6 23 0 17-14.5 34.5t-33.5 17.5q-33 0-212.5-103.5t-182.5-105.5z m331.5 1122q15.5 15 15.5 33 0 16-40 64.5t-147 155-121 120.5-32 14q-43 0-107-95.5t-64-128.5q0-34 44.5-59.5t121.5-46 179.5-46.5 117.5-26q17 0 32.5 15z m1252.5-902h-7q-19 0-33.5-17.5t-14.5-34.5q0-12 6-23l57-109q25-48 53.5-94.5t53.5-92.5 59.5-86.5 65.5-40.5q43 0 124 93t81 138q0 15-9.5 26t-28.5 21l-19 11-142 83q-64 38-149.5 82t-96.5 44z m318 937l74 19q66 16 122.5 44t56.5 63q0 33-62.5 129.5t-108.5 96.5q-21 0-34-14t-110-111-146.5-154-49.5-75 15.5-33 32.5-15q15 0 67 12t91 23z m-287 385q2 3 2 6v7q0 20-15.5 35t-35.5 15q-15 0-26-8l-544-345-545 345q-6 5-13 6.5t-13 1.5q-21 0-36-15t-15-35v-7q0-3 2-6l154-628-491-409q-18-13-18-38 0-20 13-33.5t32-15.5l641-52 243-590q13-31 46-31 14 0 26.5 8.5t18.5 22.5l243 590 641 52q19 2 32 15.5t13 33.5q0 25-18 38l-490 409z m-619-498l376 238-107-433 338-281-441-35-166-407-167 407-441 35 338 281-105 433z"/></svg>