<svg viewBox="0 0 2600 2760.837" xmlns="http://www.w3.org/2000/svg"><path d="M2068 1642q17 28 26 59.5t9 66.5q0 104-74 176.5t-175 72.5q-37 0-71-10t-63-29q-22 81-88.5 132t-151.5 51q-28 0-55-6l7 41q3 15 9 31l13 34q6 18 11 35.5t5 32.5q0 46-57 57.5t-114 11.5q-61 0-116-12t-55-57q0-26 17-68t22-65l8-50q-33 9-69 9-75 0-138-42.5t-92-112.5q-29 17-62 27t-68 10q-103 0-176-73t-73-176q0-58 25-110-68-25-110-85.5t-42-132.5q0-63 30.5-115.5t81.5-82.5q-29-30-46.5-70.5t-17.5-85.5q0-75 47-136t123-80q-19-41-19-85 0-83 60-143t143-60h12l11 2q-3-12-5-23.5t-2-24.5q0-79 57.5-136.5t136.5-57.5q25 0 48.5 7t43.5 18q26-41 69-65.5t94-24.5 94 24 69 64q24-20 54-31t65-11q77 0 134 55t59 134q14-4 28-6.5t28-2.5q83 0 143 60t60 143q0 26-5.5 48.5t-16.5 43.5q91 2 155 67t64 156q0 51-21 94t-56 74q61 26 99.5 83.5t38.5 128.5q0 76-45.5 137.5t-115.5 83.5z"/></svg>