<svg viewBox="0 0 2600 2760.837" xmlns="http://www.w3.org/2000/svg"><path d="M1443 2192q7 10 20 24l26 27q4 5 17 20.5t13 20.5q0 13-80 21t-140 8q-179 0-341-55t-278.5-142-162.5-146q-10 81-21 163t-11 169q0 45 2 87t2 85q0 14 2 24.5t2 21.5q0 27-17.5 41.5t-50.5 14.5q-25 0-36-12.5t-11-50.5v-110q0-164 17.5-318.5t30.5-227.5q-82-122-128-264t-46-299q0-271 137.5-506t380.5-374.5 529-139.5q277 0 520 134.5t385.5 372.5 142.5 513q0 73-8.5 130.5t-25 126.5-29.5 69q-15 0-43.5-32t-36.5-55q16-57 24.5-116.5t8.5-122.5q0-244-126.5-456.5t-344.5-333-467-120.5q-247 0-463.5 120t-345 331-128.5 459q0 106 24 205.5t69 189.5q49-261 154-439t211.5-304 322-250.5 423.5-143.5q14 0 25.5 9.5t11.5 25.5q0 45-56 48t-172 46.5-243 132.5q66-17 147-24t161-7q72 0 93 9t21 30q0 19-15 27.5t-61 8.5q-100 0-204.5 14t-207.5 43l-54 16q-28 9-54 20l-56 58q80-25 176-37.5t202-12.5q55 0 85 7t30 37q0 17-13.5 24.5t-36.5 7.5h-26q-189 6-323.5 35.5t-185.5 53.5q-80 110-142 242.5t-97 277.5q205-225 432.5-309.5t376.5-84.5h43q40 0 71.5 11t31.5 34q0 15-9.5 30t-28.5 15q-23-4-43-5.5t-41-1.5q-88 0-188 26t-206 77q75 0 152 10t155 34l22 7q20 7 31 17.5t11 24.5q0 9-7.5 21t-25.5 12q-11 0-97.5-20t-259.5-24q-35 0-69.5 2.5t-72.5 8.5l-31 22q-16 12-30 25 14-2 28-2h28q73 0 144.5 11t144.5 29.5 73 53.5q0 10-7 21t-26 11q-5 0-13-2l-31-6q-72-15-146.5-25t-152.5-10q-34 0-69 1t-72 7q-42 40-80 80.5t-65 85.5q123 172 325 272t430 100q37 0 72.5-3t71.5-8z m233-496q-4-9-6.5-21.5t-2.5-24.5q0-53 36.5-90.5t91.5-41.5q-11-25-11-52 0-56 40-94.5t95-38.5q54 0 95.5 38t41.5 95q0 14-5.5 28.5t-5.5 23.5q54 4 91 42.5t37 89.5q0 22-8 46 55 6 90.5 43.5t35.5 88.5q0 54-39.5 93.5t-97.5 39.5q-38 0-68-18t-49-48q-17 28-48.5 47t-69.5 19q-37 0-68-18.5t-48-47.5q-19 29-49.5 47.5t-68.5 18.5q-55 0-95-38.5t-40-94.5l1-11q4-49 37-80.5t88-40.5z m609 300q14 0 23.5 9.5t9.5 23.5v129q0 14-9.5 24t-23.5 10h-68v373q0 14-9.5 23.5t-23.5 9.5h-111q-26 0-33.5-25.5t-33.5-25.5h-173q-25 0-32.5 25.5t-34.5 25.5h-111q-14 0-23.5-9.5t-9.5-23.5v-373h-67q-14 0-23.5-10t-9.5-24v-129q0-14 9.5-23.5t23.5-9.5h730z m-290.5 274.5q-31.5-31.5-75.5-31.5-42 0-73.5 31t-31.5 76 31.5 76 73.5 31q44 0 75.5-31.5t31.5-75.5-31.5-75.5z"/></svg>