<svg viewBox="0 0 2600 2760.837" xmlns="http://www.w3.org/2000/svg"><path d="M2260 2202.5q-76 18.5-65 14.5l-58 18q-81 25-128 28t-137 16-173 13q-428 0-779-188t-508-407l-33-45q-27-35-27-42t-13-18.5-35-57.5-32-114q-6-35-6-67v-20q0-9-1-19t-1-21q7-112 17.5-138.5t35-77 30.5-81 35.5-81.5 71-97 107.5-94q89-63 215-110t236-47l17 1q31 0 65 2.5t73 2.5q82 0 142.5 29t84 56 69.5 64 118.5 114.5 116 116.5 115.5 136.5 141 227 78.5 152.5 25 93 50 111.5 44.5 75.5q77 268 130.5 304t53.5 72q0 59-76 77.5z m-961-296.5q-41-46-136-46-47 0-73 12t-26 34q0 16 28 26t65 14l28 3q27 5 52 42.5t53 37.5q18 0 34-12.5t16-34.5q0-30-41-76z m121-1009q-12-44-49-93t-49-64-56-35.5-107-20.5q-36 0-71.5-3t-72.5-3q-119 0-261 64.5t-215.5 145.5-85 139-45 114.5-33.5 150.5q0 143 43.5 217.5t147.5 122.5 198 48q78 0 219-42t257-152 154-286 38-221q0-38-12-82z m299.5 977.5q-39.5-38.5-85.5-38.5-24 0-50 18.5t-26 42.5q0 38 50 44t66 21l17 17q9 9 17.5 15.5t17.5 6.5q10 0 21.5-11.5t11.5-31.5q0-45-39.5-83.5z m35.5-336q-11-13.5-26-25.5l-29-23q-24-18-34.5-65.5t-43.5-47.5q-18 0-27 20t-9 55q0 78 34.5 116t101.5 38q17 0 30.5-8.5t13.5-28.5q0-17-11-30.5z m313 497.5q-24-16-37-72.5t-50-56.5q-14 0-26 10t-12 30q0 57 35 99t92 42q10 0 16-5.5t6-13.5q0-17-24-33z"/></svg>