<svg viewBox="0 0 2600 2760.837" xmlns="http://www.w3.org/2000/svg"><path d="M2143 1660q-84 140-336 354t-444 292.5-381 78.5q-280 0-444.5-178.5t-164.5-514.5q0-145 34.5-480t183.5-522.5 397-187.5q140 0 330 56t393 166.5 300.5 204.5 156.5 209 59 236q0 146-84 286z m-136-591q-122-156-452.5-312.5t-566.5-156.5q-212 0-332.5 165t-144.5 417l-28 285q-12 108-12 214 0 318 139.5 462t371.5 144q75 0 159-15.5t170-47.5q26-32 26-74 0-86-96-213.5t-179.5-228-83.5-145.5q0-34 49-65t55-36l220-159q111-80 227-145l37-20q19-10 40-10 40 0 96 66t118.5 140.5 120.5 177.5 58 176q68-85 99-157t31-157q0-149-122-305z"/></svg>