<svg viewBox="0 0 2600 2760.837" xmlns="http://www.w3.org/2000/svg"><path d="M2461 1036q-49 47-136 77l-69 24q-141 47-242.5 54t-101.5 34l1 6q40 146 40 239 0 168-79.5 301.5t-199 201-314.5 67.5q-117 0-187-18.5t-83-18.5q-14 0-20.5 8t-6.5 19v13q-9 144-124 337t-209 193q-37 0-73-29t-80-127.5-71-112-80-21-101-46.5-48-111q0-75-93.5-135.5t-93.5-134.5q0-71 87-133t301-65q34 0 68 2l68 4 34 5q20 4 40 4 17 0 30-5.5t13-22.5q0-10-3-21l-5-20q-8-44-12-78t-4-79q0-246 162.5-424.5t474.5-178.5q86 0 158.5 17.5t75.5 17.5q18 0 25-17.5t7-43.5q0-73 48.5-238.5t109.5-233 124-67.5q79 0 112 81.5t50.5 115 97.5 57.5l46 14q72 22 99 111.5t47.5 108.5 93 69 72.5 106q0 47-49 94z m-1687.5 877q74.5-49 74.5-80 0-11-12-19.5t-40-8.5q-79 0-132.5 26.5t-53.5 72.5q0 21 17.5 39.5t36.5 18.5q35 0 109.5-49z m154 5.5q-8.5-14.5-28.5-14.5-18 0-62.5 51t-44.5 86q0 25 14.5 42t34.5 17q38 0 66.5-55.5t28.5-93.5q0-18-8.5-32.5z m908.5-1138.5q-19-20-44-20-38 0-62 43.5t-24 134.5q0 24 5 41t21 17q37 0 80-61.5t43-101.5q0-33-19-53z m175.5 185q-15.5-16-41.5-16-33 0-98 41.5t-65 71.5q0 11 12.5 19t43.5 8q62 0 113-20t51-59q0-29-15.5-45z"/></svg>