<svg viewBox="0 0 2600 2760.837" xmlns="http://www.w3.org/2000/svg"><path d="M2459.5 1707.5q-31.5 122.5-79 207t-80 108.5-135.5 24h-1730q-82 0-113-12t-62-57l-16-22q-67-101-101-229t-34-281q0-177 24-293.5t52.5-187.5 62-114 62.5-56 79-13h1821q79 0 116.5 40.5t69.5 102.5 63.5 194.5 31.5 326.5q0 139-31.5 261.5z m-809.5 130.5q29-96 39.5-195t10.5-200v-18h-257q-23 75-31 142t-8 116q0 43 3 63l3 29h-236q0-5-1.5-15.5t-1.5-31.5q3-69 12.5-104.5t35-87.5 72.5-111h-405l-1 18q0 118 15 234.5t57 224.5l12 29q8 22 22.5 35t37.5 13h490q10 0 21 1 31 0 47.5-11.5t27.5-33.5l11-26q7-17 13-35z m-764-427h138q0-5-2.5-28t-2.5-60q0-44 5-96.5t14-98.5h67v36q35-26 67.5-36t62.5-10q25 0 48.5 5.5t45.5 11.5l43 13q19 7 39 10t38 3q22 0 36.5-3.5t23.5-6.5l56 37q-42 55-70.5 111.5t-47.5 111.5h253q-2-115-18-230t-44.5-207-41-108-65.5-16h-463l-32-1q-35 0-50 20.5t-55.5 174-44.5 367.5z m1525 32v-18h-198q-15 69-20.5 131t-5.5 112q0 28 1 47l2 34 2 24 2 17h-235q0-67 22.5-175t79.5-190h-282v18q0 189-26 301.5t-44.5 152.5-18.5 56q0 13 11 19.5t30 6.5h451q74 0 122-86.5t77.5-197.5 29.5-252z m-1515 488l-11-23q-39-88-57-207t-18-258l1-18h-159q-13 59-17.5 113t-4.5 99q0 41 2.5 72.5t6.5 61.5l-244 3v-14q0-7-1-18 0-97 30-177.5t69-139.5h-305l-1 18q0 128 25 236.5t66.5 183 65 95.5 111.5 21h420l12-1q7 0 11.5-5.5t4.5-13.5q0-13-7-28z m839-1081q-23 0-37 4.5t-14 20.5q0 14 12 37t45.5 165.5 36.5 333.5h108l1-18v-32q0-76-7-137t-21-99h71l3 9q2 7 5 21 28-22 56-30.5t56-8.5q24 0 46 5t42 10l37 11q17 5 33 5 32 0 45-6l24-10 46 31q-41 58-66.5 122t-40.5 127h195q0-12-1-37 0-190-63-357t-141-167h-471z m-1547 561h81q0-11-1-32 0-80 6.5-123t26.5-132h66l-9 31q27-16 53-22t50-6q27 0 51.5 5t47.5 11l44 11q21 5 41 5 21 0 37.5-4.5t25.5-9.5l50 32q-39 55-63.5 114.5t-38.5 119.5h156q3-198 34-331.5t46-162.5 15-45q0-9-6-16t-20-7h-9l-9 1h-440q-55 0-81 17t-63 84-62.5 182.5-28.5 277.5z m917 0h198q14-17 25-29l18-20q8-8 15-14l15-13q-15 5-31 7t-33 2q-42 0-82-8.5t-68-8.5-42.5 22-14.5 48v14z m-602 0q14-21 25-34l19-22q8-9 15-15l12-11q-21 10-38.5 13.5t-32.5 3.5q-27 0-48.5-6.5t-43.5-8.5q-34 0-52.5 27.5t-18.5 52.5h163z m1462-75l1 31v22q0 11-2 22h107q18-24 34-41t33-31l17-14q-14 6-29 8.5t-30 2.5q-31 0-59-5.5t-47-5.5q-14 0-25 11z"/></svg>