<svg viewBox="0 0 2600 2760.837" xmlns="http://www.w3.org/2000/svg"><path d="M1765 2103q4 0 8-1 24 0 43.5 24t19.5 53q0 33-15.5 50t-73.5 17q-64 0-161 24t-157 78-171 95.5-231 41.5q-224 0-386-135t-254.5-343.5-92.5-404.5l1-34q0-43 5-62.5t14-19.5q11 0 19 13.5t57 37.5 127 24q35 0 71-4l71-7q35-4 71-7.5t72-3.5q297 0 504 154t222 396q0 40 12.5 60.5t38.5 20.5l81-21q53-13 66-25t31-19z m182-655q41-16 80-33.5t76-40.5q-17 113-97.5 230.5t-190 199.5-142.5 82q-12 0-21-5.5t-9-19.5l1-10q2-6 90-79.5t135.5-151 77.5-172.5z m100.5-119q-277.5 150-715.5 150-230 0-394.5-77t-164.5-222q0-103 93.5-176t245.5-109 261-36q207 0 347.5 35.5t240.5 121.5q-30 22-64.5 39.5t-72.5 31.5q-81-57-198-88.5t-256-31.5l-31 1q-138 5-232.5 41.5t-94.5 102.5q0 54 96 83t224 29q369 0 591-109t222-315q0-168-176.5-286t-442.5-155l-114-16-17-1q-20 0-29-5t-9-14q0-13 14-16t31-5q157 0 397.5 68.5t383 203 142.5 322.5q0 283-277.5 433z"/></svg>