<svg viewBox="0 0 2600 2760.837" xmlns="http://www.w3.org/2000/svg"><path d="M1628 1509l-1017 904q-3 3-8 5.5t-10 2.5q-54 0-152-96t-98-148q0-11 5-16l865-1052q30 89 111 186.5t168.5 152 135.5 61.5z m-248-855q99 162 316 370t382 300q-74 63-140.5 87.5t-137.5 24.5q-195 0-358.5-161.5t-163.5-352.5q0-85 29.5-154t72.5-114z m852.5 434q-23.5 71-65.5 133l-36-20q-28-16-77-50.5t-115-87-166.5-150.5-166-179-87.5-115.5-39-57.5q63-47 137.5-74.5t155.5-27.5q182 0 332.5 146.5t150.5 336.5q0 75-23.5 146z m-1764.5-167.5q61-61.5 144-61.5h27t26 5l-92-427-7-16q-4-8-4-22 0-36 29-55.5t68-19.5q57 0 140.5 63.5t143.5 63.5q14 0 24-2t18-4l11-4q5-2 11-2 5 0 9.5 5.5t4.5 16.5q0 27-55 78t-117 51q-32 0-66-10t-66-10q-19 0-37 6l79 367q5 11 6.5 24.5t1.5 28.5q0 78-65 138t-144 60q-61 0-106-39.5t-45-97.5q0-75 61-136.5z"/></svg>