<svg viewBox="0 0 2600 2760.837" xmlns="http://www.w3.org/2000/svg"><path d="M2135 928q19 8 19 39l-43 266-13 262q-2 12-9.5 21.5t-19.5 13.5l-28 9-12 563q0 12-8 22t-19 15l-1192 416q-2 2-8 2l-13 1-218-40q-13-2-22-13t-9-25l-8-654-35-5q-13-2-22-12.5t-11-24.5l-19-311q0-9 7.5-22.5t24.5-18.5l1214-249-1153-498q-12-5-17.5-16.5t-5.5-25.5v-11q0-6 2-11l34-330q2-16 12.5-26t25.5-10h351q6 0 12 1.5t8 3.5z m-185 686l1-42h-8q-23 5-251.5 73t-395.5 117l-415 122-10 5v31q0 15-1 35 0 5 1.5 9.5t9.5 4.5q16 0 29.5-8.5t190-57.5 313.5-93l7-3q3 0 7-1 7 0 10 5t3 10v72.5t-4 71.5l-282 88q-268 83-277 87.5t-9 13.5l1 32q0 7 1 14l2 14q0 7 4 7 20 0 56.5-16t430.5-134.5 539-178.5l23-7q13-4 17-9t4-17v-48q0-8-4-8-12 0-43 10.5t-54 20.5l-35 14q-74 19-148 44t-148 48l4-69q2-35 2-71 0-24 85-47.5t105-30.5l113-35q16-6 66.5-19t54-20 5.5-34z m-1194 248l-139-23v608l139 25v-610z m-131-1529l-28 280 261 13 38-293h-271z m-99 1184l15 231 265 43v-234z m441-858l148 71q44-48 92.5-95.5t95.5-89.5l-162-91q-42 48-82 98t-81 96z m643 60l-130-74q-45 41-94.5 83t-86.5 89q148 71 216.5-6.5t94.5-91.5z m-400 973q-41-40-78.5-85.5t-72.5-95.5l-157 37q43 66 79.5 114t69.5 75z m693-805l-138-80-39 33q-36 31-67.5 63.5t-50.5 61.5l139 65 74-65q25-21 82-78z m-378 716q-18-18-71.5-81.5t-69.5-88.5l-148 36q37 45 77 86t78 86z m305-86q-35-35-66.5-76t-66.5-83l-152 37 146 162z m241-535l-28-16q-12 10-29.5 23.5t-38.5 35.5l-44 47q-13 14-31 32l125 59q0-3 7-8.5t15-13.5z m-43 354l-40-47-127 31q31 39 65 74.5t70 75.5l25-8v-16z"/></svg>