<svg viewBox="0 0 2600 2760.837" xmlns="http://www.w3.org/2000/svg"><path d="M890 2284h848v322q-93 8-186 9l-187 2-107 2q-56 0-117 1-61 0-124-1.5t-127-6.5v-328z m1533-662q28 11 55.5 20t56.5 17q-5 94-16 187t-37 183h-59v-407z m-1514 407h-245v-637q67-43 128-88.5t117-90.5v816z m1167-568q58 34 118.5 64.5t125.5 57.5v446h-244v-568z m-22 823h310q-66 94-144 154.5t-166 96.5v-251z m-1042-1160q67-61 121.5-116t96.5-101v1122h-218v-905z m1534.5 226q-2.5 91-7.5 216-236-71-467-212.5t-429-327.5-290-313q-16-22-40-22-25 0-34 17t-128 150-301.5 285-386.5 264-410 169l1-133v-163q0-188 14-357.5t57.5-319.5 116-266 163-171.5 246-87 334.5-36.5 376-5q383 0 558 43.5t276 109.5 176 175 126.5 292.5 51.5 500.5q0 101-2.5 192z m-2195-245.5q-19.5-19.5-47.5-19.5t-47.5 19.5-19.5 46.5q0 29 19.5 48t47.5 19 47.5-19 19.5-48q0-27-19.5-46.5z m42.5-704q14 14.5 34 14.5 21 0 35.5-14.5t14.5-34.5-14.5-34.5-35.5-14.5q-20 0-34 14.5t-14 34.5 14 34.5z m122.5 309.5q-22.5-23-55.5-23t-55.5 23-22.5 56q0 32 22.5 55t55.5 23 55.5-23 22.5-55q0-33-22.5-56z m359-57q-14.5-14-34.5-14-21 0-34.5 14t-13.5 34 13.5 34.5 34.5 14.5q20 0 34.5-14.5t14.5-34.5-14.5-34z m158.5-421q-23-23-55-23-33 0-56 23t-23 56q0 32 23 55t56 23q31 0 54.5-22.5t23.5-55.5-23-56z m627 99.5q-14-14.5-34-14.5t-34.5 14.5-14.5 34.5 14.5 34.5 34.5 14.5 34-14.5 14-34.5-14-34.5z m229 370q-14-14.5-34-14.5-21 0-35 14.5t-14 34.5 14 34 35 14q20 0 34-14t14-34-14-34.5z m159-430.5q-23-23-56-23-31 0-54.5 22.5t-23.5 55.5 23 56.5 55 23.5q33 0 56-23.5t23-56.5q0-32-23-55z m201 779.5q-14-14.5-34-14.5t-34.5 14.5-14.5 34.5 14.5 34 34.5 14 34-14 14-34-14-34.5z m98.5-397.5q-14.5-14-35.5-14-20 0-34 14t-14 34 14 34.5 34 14.5q21 0 35.5-14.5t14.5-34.5-14.5-34z m-950.5 254q43 47 100.5 105t127.5 121v896h-228v-1122z m-1081 672q66-25 126-58l118-66v574h-244v-450z m-102 450h-126q-17-87-24-178t-9-182q40-11 80-24t79-27v411z m1513-808q56 45 117.5 90t128.5 88v630h-246v-808z m-1552 1063h396v278q-143-41-244.5-111.5t-151.5-166.5z"/></svg>