<svg viewBox="0 0 2600 2760.837" xmlns="http://www.w3.org/2000/svg"><path d="M2151 1894.5q-132 227.5-359.5 359.5t-491.5 132-491.5-132-359.5-359.5-132-491.5 132-491.5 359.5-359.5 491.5-132 491.5 132 359.5 359.5 132 491.5-132 491.5z m-1599.5-60q116.5 200.5 317 317t431.5 116.5q230 0 429.5-115t317-316.5 117.5-433.5-117.5-433.5-317-316.5-429.5-115q-231 0-431.5 116.5t-317 317-116.5 431.5 116.5 431.5z m536-88q7.5-9.5 19.5-9.5 14 0 73 31t133 31q41 0 75.5-11.5t69.5-30.5l23-12q13-7 26-7 15 0 21.5 10.5t6.5 17.5q0 32-63.5 78t-152.5 46q-97 0-168-41.5t-71-81.5q0-11 7.5-20.5z m-276-345.5q-32.5-37-32.5-86 0-48 32-85.5t80-37.5q47 0 79 37.5t32 85.5q0 49-32.5 86t-78.5 37q-47 0-79.5-37z m972.5-171.5q32 37.5 32 85.5 0 49-32.5 86t-78.5 37-78.5-37-32.5-86q0-48 32-85.5t79-37.5 79 37.5z m-395.5 416.5q-36.5 27-88.5 27-57 0-104-36.5t-47-89.5q0-40 33.5-104t33.5-129q0-21-4.5-37.5t-10.5-33.5l-11-26q-5-13-5-30 0-10 5-17.5t14-7.5q19 0 42 44t23 100q0 29-7.5 64t-20.5 65l-17 38q-8 19-14 36.5t-6 34.5q0 32 29.5 55t66.5 23q40 0 65-25t37-25q8 0 15.5 5.5t7.5 16.5q0 25-36.5 52z"/></svg>