<svg viewBox="0 0 2600 2760.837" xmlns="http://www.w3.org/2000/svg"><path d="M2309 1399q-57 129-89.5 269.5t-131 292.5-239 244-214.5 92q-58 0-93.5-2.5t-59.5-2.5q-46 0-75.5 18t-101 44.5-140.5 26.5q-84 0-183.5-40.5t-169.5-105-93.5-119-66-69.5-140-73.5-170-143-72.5-172.5q0-94 24-170t24-105q0-27-23-88.5t-23-155.5q0-104 22-194t49.5-121.5 103-99.5 146.5-106.5 147.5-64.5 154.5-26h31l25 1q12 0 20.5-1t14.5-6l33-26q97-75 145.5-98.5t133-42.5 179.5-19q130 0 231.5 32t194.5 144 101 248l4 68 37 22 109 71 58 40q87 60 120.5 113.5t33.5 112.5q0 84-57 213z m-1122-739q41 6 62 9l25 6q38 10 74 33t56.5 50.5 53.5 34 84 6.5q76 0 149 46.5t83 46.5q8 0 14.5-5t6.5-16q0-32-73-117t-186-131.5-263-46.5q-39 0-83 15.5t-44 38.5q0 24 41 30z m403 388q13 26 23.5 57.5t10.5 75.5q0 79-35 149.5t-35 77.5q0 8 5.5 10t9.5 2q35 0 99.5-83.5t64.5-180.5q0-58-31.5-105t-79.5-76-59-29q-9 0-11.5 6t-2.5 11q2 6 6 15.5t13 25.5z m-530 152l1-9q0-11-12-11-14 0-53 19.5t-39 49.5q0 41 40 62.5t95 21.5h19q22 0 69.5-23.5t47.5-61.5q0-4-3-7t-14-3q-8 0-23 3.5t-32 3.5q-38 0-67-11.5t-29-33.5z m-4-82q2 0 10-2l19-6q23-7 52-12.5t54-5.5q62 0 107 47t45 79q0 23 16 23 23 0 38-49.5t15-91.5q0-59-31-100t-88-41q-77 0-162.5 57t-85.5 92q0 10 11 10z m-19 308l-13-7q-9-5-15-5-5 0-5 5 0 46 99 105.5t171 62.5l24 1q60 0 91.5-54.5t42.5-176.5q0-32-16-32-13 0-21 19t-39 55.5-58.5 53.5-72.5 17q-34 0-78.5-9.5t-109.5-34.5z m-168.5-328q2.5 6 8.5 6 22 0 48.5-54t87-110.5 114.5-81 54-36.5q0-10-12.5-15.5t-36.5-6.5h-25q-83 0-128 26.5t-79 127.5-34 130q0 8 2.5 14z m-284 152.5q88.5 81.5 126.5 81.5 5 0 7-3t2-12q0-17-6-38l-15-48q-9-25-15.5-57.5t-6.5-72.5q0-76 33.5-156.5t77.5-136.5l29-36q4-6 19.5-26.5t15.5-26.5q0-10-12-10-18 0-120 55.5t-163 119-61 171.5q0 114 88.5 195.5z m403 537q41.5-25.5 41.5-43.5 0-8-6-10.5t-10-2.5q-63 0-152-32.5t-164-96.5-110-116l-14-19q-4-5-12.5-14t-19.5-9q-18 0-18 25 0 91 57.5 184.5t142.5 126.5 158 33q65 0 106.5-25.5z m894.5-127.5h-3l-41 51q-40 51-139.5 115.5t-219 98-331.5 33.5q-61 0-84.5-1.5t-25.5-1.5q-11 0-18 3t-7 10q0 21 116 50.5t239 29.5q124 0 254-57t198-147 68-168q0-16-6-16z m8.5-433.5q-16.5-39.5-28.5-39.5-19 0-35 80.5t-60.5 145.5-107.5 116.5-147.5 95.5-84.5 59q0 7 9.5 8.5t15.5 1.5q59 0 211.5-63.5t198-143 45.5-160.5q0-61-16.5-100.5z m203.5-90.5q-44-93-81-93-6 0-7.5 9.5t-1.5 19.5q9 38 20 115t11 138q0 65-15 152.5t-31 148.5l-14 52q-3 9-3 14 0 8 4 10.5t8 2.5h5q6 0 48-53t71.5-131.5 29.5-183.5q0-108-44-201z m-1304 1168q-12 12-23 12-10 0-20.5-3t-26.5-3q-53 0-90 34t-59 34q-26 0-51.5-5t-52.5-5q-32 0-65.5 5.5t-61.5 13.5l-24 6q-13 3-26 3-21 0-26.5-10.5t-5.5-27.5q0-36 15-87t15-87q0-40-16-60.5t-16-34.5q0-6 5-17t12-21l23-31q11-15 19.5-32.5t8.5-37.5q0-14-10-23.5t-12-18.5q0-4 4-9.5t7-5.5q66 73 163.5 135t142 79 72 76.5 99.5 120.5z m1671-82l1 8q0 10-8 13t-23 3q-17 0-39.5-2t-37.5-2q-54 0-92.5 13.5t-54.5 29.5-30 16q-8 0-15-3l-16-6-61-21q-32-11-64-11-42 0-67.5 21t-45.5 21q-17 0-29-12t-26-17q95-41 183-149t166-267l38-78q3 2 5 2t2 6v7q0 4-1 9 0 42 61.5 98t61.5 72q0 11-3.5 22t-3.5 22q0 49 46.5 109.5t52.5 95.5z"/></svg>