<svg viewBox="0 0 2600 2760.837" xmlns="http://www.w3.org/2000/svg"><path d="M1678.5 2178.5q-103.5 175.5-282 278.5t-388.5 103q-211 0-391-105t-281.5-279.5-101.5-377.5q0-204 103-379.5t282.5-278 388.5-102.5 388 102 282.5 278 103.5 380q0 205-103.5 380.5z m-795.5-715.5q-22-15-47-15-32 0-54.5 21t-22.5 51q0 27 19 46.5t53 19.5q29 0 51.5-21t22.5-52q0-35-22-50z m260.5-76.5q22.5-18.5 22.5-51.5 0-29-20.5-44.5t-45.5-15.5q-34 0-56 20.5t-22 49.5q0 25 22 42.5t48 17.5q29 0 51.5-18.5z m126.5 234.5q-23-21-58-21-33 0-60 24.5t-27 58.5q0 35 21 59.5t59 24.5q36 0 62-26t26-60q0-39-23-60z m100-608.5q-30-33.5-30-88.5l1-16q0-8 1-15l8-63q17-133 105-195.5t120-95.5q0 46 36 78t82 32q10 0 19-2l18-4q-10 35-12 93.5t-42 130.5-92 109.5-80 53.5-55 16q-49 0-79-33.5z m238-521.5q2-4 33.5-74.5t107.5-70.5q38 0 65 27t27 64q0 43-22 77.5t-48 64.5q-20 8-46 8-45 0-76-25t-41-71z m484 462q-12 23-12 47 0 43 26 68.5t65 40.5q-29 29-54.5 73.5t-104.5 93-185 48.5l-20-1-10 1q-34 0-62.5-30t-28.5-66q0-24 10.5-47t24.5-42l35-48q74-103 174.5-112.5t141.5-25.5z m234.5 71.5q-39.5 34.5-92.5 49.5-41-7-71.5-37.5t-30.5-71.5q0-9 3-18l5-17q4-3 45-36t84-33q46 0 71.5 29t25.5 59q0 41-39.5 75.5z m-1599.5-481.5q22 13 50 13 44 0 81.5-32.5t45.5-78.5q29 25 93 64.5t111.5 122.5 57.5 196q0 5-1 10t-1 10 1 10.5 1 10.5q0 41-34.5 74t-76.5 33q-49 0-131.5-56.5t-118-104.5-46.5-120l-8-52q-4-26-9-51.5t-15-48.5z m-82-284q30-32 70-32 43 0 82.5 40.5t64.5 106.5q-9 51-44 86t-81 35q-20 0-38-6-17-19-50.5-57.5t-33.5-93.5q0-47 30-79z"/></svg>