<svg viewBox="0 0 2600 2760.837" xmlns="http://www.w3.org/2000/svg"><path d="M2363 1896.5q-55 139.5-202.5 288.5t-356 224.5-516.5 75.5q-236 0-437.5-62.5t-360-210-233.5-339-75-368.5q0-330 200.5-583.5t457-359.5 538.5-106q158 0 305.5 41.5t321 144.5 274.5 244.5 120 347.5 19 321q0 202-55 341.5z m-859-544q-51-33.5-125-33.5-90 0-166 31.5t-76 82.5q0 54 58.5 87t137.5 33q90 0 156-31t66-85q0-51-51-84.5z m171 93.5q0 11-1 17 36-42 60-98t24-110q0-78-53-140.5t-127-62.5q-51 0-115 42.5t-149 42.5q-46 0-106.5-32t-99.5-32q-71 0-119.5 66t-48.5 143q0 69 53 140.5t58 78.5q-7-15-11-31.5t-4-35.5q0-103 96-159t242-56q135 0 218 72.5t83 154.5z m589 357q-32 33-58 44t-55 11q-24 0-47-3.5t-49-3.5q-104 0-152 112t-114.5 140.5-136.5 28.5q-86 0-134.5-31.5t-105.5-80.5-115-49q-29 0-84 13t-121 62.5-105.5 64-76.5 14.5q-94 0-149.5-67t-61-172-43.5-141.5-156-42-203-140.5q7 104 63 253t154 258 229 169.5 280.5 90.5 303.5 30q245 0 458-74t321-202 158-284z"/></svg>