<svg viewBox="0 0 2600 2760.837" xmlns="http://www.w3.org/2000/svg"><path d="M1578 1545.5q-119 117.5-283 117.5-165 0-284-117.5t-119-285.5q0-166 119-283.5t284-117.5q164 0 283 117.5t119 283.5q0 168-119 285.5z m-464.5-907q85.5 52.5 134.5 143.5-193 19-313.5 160.5t-120.5 334.5q-106-37-172.5-129.5t-66.5-204.5q0-146 104-251.5t251-105.5q98 0 183.5 52.5z m230.5 143.5q43-87 129.5-140.5t185.5-53.5q146 0 250.5 104t104.5 251q0 114-66.5 205.5t-172.5 128.5q0-192-123-335t-308-160z m749 161q0-172-118.5-296t-282.5-136q46-75 119-115t153-40q132 0 226 94t94 225q0 96-53.5 176t-138.5 116z m196 1586.5q-28 24.5-68 24.5-24 0-53.5-11t-56.5-25l-560-283q-23-12-34.5-32.5t-11.5-41.5q0-27 18-50.5t44-23.5q3 0 7.5 1t9.5 3l542 235q34 15 112.5 48t78.5 91q0 40-28 64.5z m-1792-1600.5q-58-44-92-109.5t-34-144.5q0-131 94-225t225-94q86 0 157.5 42.5t114.5 111.5q-8 0-16-1t-16-1q-174 0-300.5 123t-132.5 298z m984.5 1135.5q-10.5 4.5-27 25t-16.5 47.5q0 14 3.5 21.5t3.5 15.5q0 4-7 4l-38-19q-511-254-785-394t-303-156-29-33q0-13 7.5-24t21.5-11q27 2 83.5 31.5t555.5 243.5 520 224 21 15-10.5 9.5z m-185.5-1354.5q-44-69-107.5-116t-141.5-69q43-80 118.5-124.5t161.5-44.5q88 0 160.5 43.5t113.5 114.5q-97 12-175.5 64t-129.5 132z"/></svg>