<svg viewBox="0 0 2600 2760.837" xmlns="http://www.w3.org/2000/svg"><path d="M2379.5 886q-118.5 50-259.5 133.5t-227.5 151-162.5 147-76 168.5q0 24 1 45.5t1 47.5q0 200-116 377.5t-299 273-400 95.5q-191 0-365.5-66.5t-274.5-206.5-100-336q0-248 130.5-418.5t302-249 361.5-78.5q145 0 279.5 40t201.5 81.5 91 41.5q31 0 60-50t109.5-144.5 203.5-194.5 235-166 192-66q66 0 111 44t82.5 103 37.5 101q0 76-118.5 126z m-1043 582q-36.5-66-103.5-118.5t-142-71-179-18.5q-264 0-432 136t-168 289q0 114 84 192.5t183.5 83 168.5 44.5 153 40q87 0 200.5-57.5t192.5-163 79-217.5q0-73-36.5-139z m-232.5 151q0 87-78.5 139t-184.5 52q-98 0-160.5-52t-62.5-135q0-94 72.5-155t168.5-61q97 0 168 54t77 158z m-129.5-97.5q-50.5-36.5-115.5-36.5t-114 38.5-49 95.5q0 52 36.5 81.5t101.5 29.5q76 0 133.5-30.5t57.5-85.5q0-56-50.5-92.5z"/></svg>