<svg viewBox="0 0 2600 2760.837" xmlns="http://www.w3.org/2000/svg"><path d="M1192.5 610.5q33.5-55.5 88.5-55.5 63 0 102.5 51.5t39.5 124.5q0 68-37.5 117.5t-90.5 49.5q-51 0-93.5-43t-42.5-114q0-75 33.5-130.5z m-323.5-114q32-50.5 91-50.5 62 0 103 53.5t41 124.5q0 67-36 116.5t-91 49.5-97.5-44-42.5-120q0-79 32-129.5z m-390.5 546.5q-38.5 39-82.5 39-65 0-118-61.5t-53-138.5q0-57 35.5-97t87.5-40q51 0 110 69t59 135q0 55-38.5 94z m60-243q-52.5-61-52.5-140 0-57 32.5-97.5t85.5-40.5q56 0 107.5 72t51.5 137q0 56-35 93t-77 37q-60 0-112.5-61z m673.5 469.5q-43 33.5-119 33.5-10 0-20-1l-30-3q-11-2-21-3h-19q-72 0-168.5 57.5t-167.5 57.5q-48 0-77.5-32t-29.5-86q0-70 48-167.5t137-152.5 187-55q117 0 220 70.5t103 188.5q0 59-43 92.5z m269 811.5q-34 35-78 35-66 0-123.5-60t-57.5-138q0-50 33.5-89.5t77.5-39.5q47 0 114.5 62.5t67.5 136.5q0 58-34 93z m3-294.5q-55-62.5-55-140.5 0-53 34.5-91.5t84.5-38.5q47 0 110 66.5t63 136.5q0 51-32.5 90.5t-82.5 39.5q-67 0-122-62.5z m854.5-67.5q-35.5 49-90.5 49-65 0-104.5-49t-39.5-122q0-80 31-127t93-47q60 0 103 53.5t43 127.5q0 66-35.5 115z m-457.5-1q-50-16-78.5-63t-28.5-118q0-77 28.5-116.5t86.5-39.5q60 0 103 61t43 131q0 64-32.5 108t-83.5 44q-9 0-18-2z m369 462.5q-64 32.5-180.5 42.5t-177.5 66l-7 7q-31 26-68 46t-73 20q-63 0-98-62.5t-35-118.5q3-114 106-221.5t253-107.5q124 0 234 81.5t110 155.5q0 59-64 91.5z"/></svg>