<svg viewBox="0 0 2600 2760.837" xmlns="http://www.w3.org/2000/svg"><path d="M2166 1036q11 38 16.5 81t5.5 86q0 200-114.5 370t-360.5 330.5-357 265.5l-72 70q-7 7-39 44t-60 37q-30 0-62-38t-38-43l-73-70q-104-100-360-272t-363.5-334.5-107.5-364.5q0-205 142-363.5t344-158.5q105 0 205 31.5t185.5 95.5 101.5 67l26 2q36 0 78-33t117.5-80.5 189.5-68.5l27 113q-52 10-103.5 29.5t-127.5 76.5l-40 28q-33 24-68.5 38.5t-72.5 14.5q-43 0-77.5-15t-86.5-53l-47-33q-81-57-155-76t-155-19q-152 0-258.5 122t-106.5 286 87 295 266.5 256.5 277 193 255.5 225.5q10-13 100-97t285-214 279.5-208.5 132-153.5 67.5-142q21-74 21-156 0-38-5-72.5t-13-60.5q59-5 82.5-16.5t31.5-15.5z m122-559q54 0 92.5 31.5t38.5 83.5q0 27-11.5 51t-27.5 41l-17 17q-52 59-105 112t-117.5 115-163.5 62q-42 0-85-3.5t-91-3.5l-256 292q-3 3-30.5 35.5t-56.5 32.5q-22 0-42.5-14t-20.5-38q0-22 14-40l290-365q-5-19-28-113.5t-23-141.5q0-29 13-62t28-55l181-250 18-23q17-22 43-38t57-16q41 0 71 26t40 74l30 147q24 7 35 19t17 24h107z m-548 163q4 35 13 73.5t17 76.5l270-332q-3-15-7-31t-6-33l-5-33q-6-38-14.5-61t-19.5-23q-6 0-13 6t-14 14l-24 31q-33 40-66 88t-82 110-49 114z m573.5-68q-13.5-4-25.5-4h-129l-278 325h1q21 0 44 2.5t51 2.5q46 0 68-8.5t81.5-72.5 103.5-109.5 70.5-73 26.5-42.5q0-16-13.5-20z"/></svg>