<svg viewBox="0 0 2600 2760.837" xmlns="http://www.w3.org/2000/svg"><path d="M2195 1355q-46 52-117.5 81t-233.5 42l-94 8q-93 8-218 43.5t-241.5 99.5-176 120.5-86 112.5-26.5 150q0 128 78 199.5t217 71.5q185 0 315-139.5t165-357.5l1-20v-94q0-66 16-88.5t82-22.5q53 0 78 18t37.5 85.5 12.5 167.5q0 337-190 539.5t-518 202.5q-242 0-461.5-111t-348-300-128.5-387q0-96 31-195.5t95.5-196.5 153.5-181 207-151.5 200.5-90 227.5-22.5q49 0 115 1l284 6q72 0 135 1 171 0 254 26t131.5 73 48.5 144q0 113-46 165z m-914-477q-6 0-14 1-10 0-17-3t-7-14q0-25 11-45.5t72.5-63 190.5-44.5l122-2q62 0 124-1 245 0 340.5 22.5t95.5 101.5q0 23-15.5 39.5t-47.5 16.5q-76 0-152-4t-152-4h-51q-100 0-199.5-2.5t-203.5-2.5q-21 0-42 2.5t-44 2.5h-11z m250-239l3-7q35-56 82.5-77.5t102.5-26.5l88-8q43-3 86-3 162 0 219.5 47t57.5 90q0 13-2 25t-10 12q-2 0-58-19.5t-186-19.5q-83 0-161.5 3t-159.5 3h-22q-25 0-33-3t-8-10q0-3 1-6z m302-163h-8q-5 0-10-1 0-33 45.5-59t70-28 54-21.5 63.5-19.5q24 0 30 18.5t19.5 24 24.5 33.5 11 68q0 11-2.5 14t-5.5 3-32.5-20.5-129.5-20.5q-45 0-78.5 4.5t-51.5 4.5z"/></svg>