<svg viewBox="0 0 2600 2760.837" xmlns="http://www.w3.org/2000/svg"><path d="M1673.5 2048q-171.5 127-408.5 193t-509 66q-115 0-227.5-17.5t-213.5-57-128.5-81.5-27.5-161q0-203 93-373t251.5-258 370.5-88q151 0 309.5 48t295.5 130 233 178.5 114.5 129 18.5 63.5q0 101-171.5 228z m-1219.5-395.5q-20-24.5-55-24.5-37 0-68 32.5t-31 78.5q0 34 23.5 60.5t51.5 26.5q39 0 69-36t30-78q0-35-20-59.5z m659 6q-30-31.5-70-31.5-36 0-60 27t-24 68 28 73.5 64 32.5 64-27.5 28-63.5q0-47-30-78.5z m1267-232q-60 43.5-143 48.5h-29q-14 0-30 6t-16 31q0 28 23 72t23 66q0 39-51 67t-118 28q-50 0-87-18t-37-48q0-17 27.5-71.5t27.5-95.5q0-35-50-61.5t-78-71.5-28-86q0-18 3.5-35.5t7.5-34.5l8-33q3-16 3-30 0-6-1-13t-1-15q0-17 18-17 40 0 105 49t82.5 113 51.5 64q11 0 55-24t109-24q25 0 49.5 1t47.5 1q19 0 33.5-3t36.5-3q11 0 14.5 8t3.5 18q0 68-60 111.5z m-1908-772.5q43-27 102-27 85 0 153.5 56.5t85 86.5 25.5 30q5 0 9.5-6.5t7.5-15.5l6-17q7-23 40-73.5t82-81 113-30.5q46 0 74.5 16.5t28.5 46.5q0 25-12.5 31t-31.5 6h-27q-14 0-30.5 7t-16.5 18q0 19 33 19h22q39 0 66.5 19.5t27.5 50.5q0 26-25.5 44.5t-50.5 18.5q-21 0-53.5-17t-82.5-17l-16 1q-8 0-38.5 12t-30.5 22q0 3 6 9t19 6q11 0 25-4t27-4q28 0 61 25.5t33 50.5q0 14-15.5 31.5t-37.5 17.5q-19 0-36-5t-34-5q-54 0-82.5 33.5t-37.5 89.5l-9 60q-4 27-10 45.5t-21 18.5q-28 0-32-70t-16-131.5-40-85-97-28-69-44.5q0-27 16-36t36-9q24 0 47.5 6.5t33.5 6.5q15 0 15-17 0-22-20.5-35t-50.5-13q-21 0-38.5 4.5t-33.5 9.5l-32 9q-16 5-32 5-31 0-55-17.5t-24-50.5q0-46 43-73z m-91.5 324.5q14.5-13.5 36.5-13.5 23 0 40.5 14.5t17.5 37.5q0 20-14 33.5t-38 13.5q-21 0-39-14.5t-18-37.5q0-20 14.5-33.5z m918-492q14.5-13.5 35.5-13.5 23 0 40.5 14.5t17.5 38.5q0 20-13.5 33t-38.5 13q-20 0-38-14.5t-18-37.5q0-20 14.5-33.5z m-1080 412q-15.5-16.5-15.5-37.5 0-22 14.5-36.5t36.5-14.5q29 0 45 17.5t16 35.5q0 21-17 36.5t-40 15.5q-24 0-39.5-16.5z m1243.5-160.5q16 18 16 36t-16.5 34-42.5 16q-21 0-37-15t-16-38q0-21 14.5-36t37.5-15q28 0 44 18z m-167.5 240q-13.5-13-13.5-32t12-30.5 29-11.5q24 0 38 14t14 29q0 18-15 31t-33 13-31.5-13z m-1052.5-328q-13-13-13-30 0-20 12-32.5t29-12.5q23 0 37.5 15t14.5 29q0 17-14.5 30.5t-34.5 13.5q-18 0-31-13z"/></svg>