<svg viewBox="0 0 2600 2760.837" xmlns="http://www.w3.org/2000/svg"><path d="M2325 1622q34 65 34 137 0 149-141 275.5t-318 135.5q-68 0-133-15.5t-119-57.5v92l-1 62q0 37-7.5 48.5t-40.5 11.5q-23 0-31-13t-8-36q0-16 2.5-31t2.5-31v-73l1-49v-49q-8 0-13 5t-9 10l-8 11q-4 5-10 5t-13-11-14-11q0 18 1 35v104q0 106-6 120.5t-43 14.5q-23 0-30.5-12t-7.5-36q0-15 1-31t1-32v-72q0-23 1.5-46.5t1.5-46.5q-11 3-19 13t-19 10-15.5-12.5-4.5-23.5q-58 73-113.5 111.5t-76.5 38.5q-16 0-28-13t-12-27q0-27 38.5-47.5t66.5-50.5l54-58-13 1q-10 0-16-1.5t-6-9.5q0-7 8.5-20t8.5-24q0-5-1-7-2 2-68 71t-142 69q-14 0-28.5-1.5t-28.5-1.5q-17 0-32.5 2.5t-31.5 2.5q-29 0-44-11t-15-32q0-20 13-32t40-12q28 0 56 3t56 3q24 0 50.5-13.5t74.5-68.5q-45 16-106.5 25.5t-119.5 9.5q-219 0-348.5-115.5t-129.5-314.5q0-117 48-230t133-184q-2-4-5-7l-6-6q-86-97-126.5-114.5t-82.5-17.5q-41 0-75.5 11.5t-56.5 11.5q-25 0-40-17.5t-15-35.5q0-30 45-58t141-28q82 0 142 33.5t103 83.5l72 81q84-44 179-59l7-1-22-85q-20-76-68.5-116.5t-122-53-73.5-63.5q0-31 24.5-43t54.5-12q12 0 25 2l23 4q92 26 144 74.5t78 105 52 180.5q55 0 105 14 0-173 82-301.5t228-128.5q89 0 169.5 53t133.5 141q47-37 103.5-60t119.5-23q118 0 201.5 100.5t83.5 247.5q0 124-63.5 236.5t-198.5 222.5q5 0 9.5-1t8.5-1q63 0 120 19.5t104 54.5q12-2 32.5-2t41.5-1q7 0 12 4t5 20q0 21-6 36t-10 35z m-44 139q0-89-60-150.5t-159-73.5q74 50 125 134.5t68 192.5q13-29 19.5-56.5t6.5-46.5z m-1053-794q0 18 1 27 86 40 151.5 106t104.5 153q33-151 87.5-267.5t130.5-197.5q-48-85-112-128.5t-131-43.5q-101 0-166.5 99.5t-65.5 251.5z m750-238q-26 0-47.5 5.5t-48.5 17.5-54 29.5-60.5 51.5-57 67.5-65.5 121-74.5 210.5-37.5 201l-7 90q0 6 2 10 9-11 20-11 8 0 11 5.5t3 12.5q0 3-1 6t-1 6q0 11 4 16.5t9 5.5q9 0 28-14.5t27-14.5 10.5 6.5 4.5 15.5v21q0 12 1 16 11-4 22.5-10t22.5-13l11-6 113-72h-1q201-129 291-251t90-253q0-115-60.5-192.5t-145.5-77.5h-9z m-333 1241q23 55 83 87.5t142 34.5v-34q0-88-38-171.5t-106-134.5q0 4 8 9l16 13q8 7 14.5 15t6.5 15q0 14-28.5 16.5t-28.5 13.5q0 10 9 18t9 21-6.5 17.5-18.5 4.5h-19q-8 0-13 2t-5 10q0 11 7 21.5t7 19.5-8.5 16-21.5 7q-6 0-9-1z m392 88q26-11 49.5-24t45.5-28q0-150-67.5-267t-188.5-173q-22 9-43 20t-38 25q33 23 102 98.5t104.5 169.5 35.5 179z m-881-576.5q30 32.5 66 32.5 34 0 54-28t20-59q0-45-28.5-78t-64.5-33h-12q-17 2-41 24t-24 63q0 46 30 78.5z m-303.5-13q-27.5-31.5-63.5-31.5-33 0-55 25.5t-22 64.5q0 45 27.5 77t62.5 32q28 0 53-25t25-67q0-44-27.5-75.5z m345.5 146.5q-13-18-36-18-24 0-33.5 29t-39 46.5-59.5 17.5q-14 0-37.5-13t-40.5-13q-12 0-26.5 10.5t-14.5 30.5q0 31 35 52t66 21q63 0 131-35.5t68-86.5q0-23-13-41z"/></svg>