<svg viewBox="0 0 2600 2760.837" xmlns="http://www.w3.org/2000/svg"><path d="M2381 1907v20q0 20-32 48t-58 35l-1509 369q-6 2-13 3t-14 1q-39 0-71-23.5t-43-63.5l-416-1494q-4-8-5-16.5t-1-16.5q0-32 17.5-60.5t46.5-43.5l479-244q12-6 25.5-10t27.5-4l560 39q28 0 52 15l570 334q11 8 21.5 17t18.5 20l303 463q18 29 19 60z m-286-483l159 270-11-280z m-662-126q-42 81-97 154t-113 144l313 158z m808 567l-230-391q-13 66-21 176t-20 185z m-318-459l-389-107 99 441z m-559-190l-396-280-61 449z m-505-327q-39 28-116.5 82.5t-143.5 104.5l215 264 61-448z m-45 1291l682-336-608-309z m72-1649l88 289 515 365 528 146 197-13-276-422-571-334z m-468 197l445 63-77-251z m301 1411l75-665-397-489z"/></svg>