<svg viewBox="0 0 2600 2760.837" xmlns="http://www.w3.org/2000/svg"><path d="M2291 1830.5q-53 51.5-107.5 73.5t-150 54.5-257.5 77.5l-212 59q-32 9-103 31t-135 22q-112 0-231-89.5t-265-203.5l-267-207q-226-175-243.5-194t-40.5-56-23-77q0-20 8-44l8-26q6-19 13-46l15-56q10-41 18.5-83t8.5-54q0-7-3-17l-6-22q-4-11-7-23t-3-23q0-92 134.5-137t379.5-73 316-28q98 0 169.5 28.5t160.5 92.5l127 91q163 119 298 220.5t246 197.5 136.5 132 40.5 68.5 26 135.5q2 20 2 29 0 95-53 146.5z m-1016 158.5q8-23 15-48t7-51q0-38-4-72.5t-15-70.5q-12-4-92.5-60.5t-192.5-140.5l-153-114q-78-58-152-115l-135-102q-61-46-101-78l-49-38q-4 67-26 137t-22 82q0 38 55.5 89t279.5 217l134 98q67 50 132 97l117 84q55 40 104.5 75t84.5 48q4-9 7-19z m927.5-383.5q-29.5-26.5-80.5-26.5-75 0-249.5 47.5t-262.5 67.5l-104 23q-17 4-63.5 14t-50.5 10q7 33 11.5 64.5t4.5 65.5q0 42-7 83.5t-24 78.5q11-2 47-11t89-23l116-30q64-17 130-36l130-36q227-64 263.5-90t58-63.5 21.5-73.5q0-38-29.5-64.5z m-1520.5-746.5q-33 6-62 13l-56 13 903 716 117-27z m207-36l-60 10q-31 5-63 11l897 711 115-26z m218-29q-37 4-65.5 6.5t-66.5 9.5l883 700 117-26z m257.5 826q9.5-2 20.5-2l-893-708q-21 9-33.5 20.5t-12.5 25.5q0 7 7 18t109 93l111 89q62 50 129 102l132 103q66 52 123 95l100 75q84 64 118.5 77.5t68.5 13.5q11 0 20.5-2z m767.5-151q8 0 8-6t-6.5-16-14.5-20l-16-17q-10-10-35.5-30.5t-123.5-93.5l-133-100q-348-260-451.5-321.5t-136.5-68.5q-8 0-12-2l851 677 25-2h45z"/></svg>