<svg viewBox="0 0 2600 2760.837" xmlns="http://www.w3.org/2000/svg"><path d="M2236 1123q-46 98-70 214t-27.5 287-83.5 171q-37 0-55.5-28.5t-18.5-87.5l1-30v-33q0-136-22-194.5t-67-58.5q-53 0-113.5 114t-121.5 306.5-182.5 320.5-298 197-395.5 69q-134 0-266.5-31.5t-165-75-32.5-94.5q0-96 136-240t246.5-290 272-287 240.5-254 182.5-281 244-296 275.5-128q149 0 258 138.5t109 356.5q0 137-46 235z m-248-481q0-48-32-74t-90-26q-86 0-178 82.5t-181.5 221.5-147 239.5-171.5 226.5l-114 126q-7 7-85 90t-78 158q0 32 13 52.5t65 35.5q33-88 188-193t336.5-395.5 273.5-410 175-119.5q14 0 26 3v-17z m-28 108q-9-8-23-8-18 0-38.5 14t-81.5 91.5-164 251.5l-101 170q-52 87-116.5 171.5t-161 164.5-142.5 112.5-46 63.5q0 11 14 11 67 0 125.5-17.5t116.5-55 118.5-108 130-188.5 217-361.5 144.5-243.5 10-26q7-13 7-25 0-9-9-17z"/></svg>