<svg viewBox="0 0 2600 2760.837" xmlns="http://www.w3.org/2000/svg"><path d="M2287.5 1652.5q-8.5 14.5-25.5 14.5-11 0-23-5t-24-12l-22-13q-11-6-20-9l-11-2h-11q-21 0-21 17 0 19 27.5 57.5t27.5 67.5q0 14-13 28.5t-36 14.5q-20 0-54-22t-53-22q-8 0-10 4t-2 13q0 19 13 49.5t13 50.5q0 29-15 41.5t-26 12.5q-17 0-73.5-30t-110.5-30q-36 0-62.5 19t-34.5 64l-13 62q-8 39-21 59.5t-35 73-53.5 97-95 70-85.5 36-85 10.5q-113 0-171.5-18t-136-105-79.5-101-14-43l-19-39q-17-35-28.5-91.5t-43-71-81.5-14.5q-54 0-95.5 18t-70.5 39l-21 15q-11 7-22 12t-21 5q-12 0-27-14t-15-46q0-23 13-62t13-59q0-12-6-23-31 10-59 21.5t-60 11.5q-6 0-11.5-1t-7.5-1v-7q0-3-1-9 0-41 45.5-95t45.5-76q0-7-1-10-43 0-99.5-13t-56.5-38q0-27 56.5-78.5t121.5-130.5 93.5-148 28.5-104q0-18-46.5-82.5t-104-192.5-57.5-253q0-83 33-122t95-39q110 0 285.5 82.5t227.5 110.5q65-20 133-31.5t137-11.5q68 0 137 11t133 32q23-11 209-102t304-91q63 0 95.5 38t32.5 115q0 129-57.5 261.5t-112.5 202.5-55 120q0 62 52 133.5t85 124.5 100 119 67 108q0 12-8.5 26.5z m-1413.5-894.5l21-13q31-18 28-27.5t-29-22.5l-38-19q-106-47-164.5-65t-74.5-18q-22 0-37.5 13.5t-15.5 35.5q0 17 8 33l13 31q22 58 68.5 145t72.5 87q13 0 20-23.5t43.5-76.5 84.5-80z m163 508.5q-37-38.5-85-38.5-38 0-62.5 25t-24.5 63q0 45 37 84t84 39q35 0 61.5-24t26.5-63q0-47-37-85.5z m470 856.5q-9 0-25 10t-67 10q-41 0-64-17.5t-23-50.5q65-3 101.5-28.5t36.5-78.5q0-49-50.5-79.5t-113.5-30.5q-65 0-111 33.5t-46 87.5q0 42 37.5 69.5t102.5 27.5q0 39-21.5 53t-63.5 14q-23 0-35-3t-19-7l-14-7q-7-3-18-3-9 0-15 5t-6 13q0 24 33 36.5t66 12.5q34 0 69-15t49-15q8 0 14 2l13 6q20 9 35 12t45 3q43 0 72.5-12t29.5-34q0-14-12-14z m199.5-870.5q-25.5-24.5-62.5-24.5-49 0-85.5 38t-36.5 86q0 38 25 62.5t63 24.5q49 0 85.5-38t36.5-86q0-38-25.5-62.5z m224-354.5q27.5-40 64.5-119l21-45q9-19 20-47.5t11-44.5q0-20-15-34.5t-37-14.5q-16 0-70 16.5t-169 66.5l-37 19q-12 6-21 13t-9 12q0 6 8.5 12.5t19.5 12.5l37 22q47 35 74.5 78t36.5 68 22 25q16 0 43.5-40z"/></svg>