<svg viewBox="0 0 2600 2760.837" xmlns="http://www.w3.org/2000/svg"><path d="M2375 762q24 0 41 17t17 42v1193q0 25-17 42.5t-41 17.5h-2149q-24 0-41.5-17.5t-17.5-42.5v-1193q0-25 17.5-42t41.5-17h2149z m-59 118h-2030v1075h2030v-1075z m-1178 793q3 4 3 8 0 9-27.5 41t-82 58-130.5 26q-69 0-144.5-23.5t-147.5-23.5q-47 0-72 10t-33 10-11-8l-59-138q0-4-1-7 0-10 25.5-15.5t64-34 56.5-71.5h-115q-13 0-13-13v-108q0-12 13-12h124q-7-51-16.5-90t-9.5-73q0-89 60-147t155-58q65 0 116.5 36t79.5 80l15 24q2 4 2 6 0 6-5 9l-101 91q-5 3-9 3-8 0-14.5-15t-26-34.5-45.5-19.5q-23 0-31.5 14t-8.5 29q0 13 9.5 50.5t12.5 94.5h132q5 0 8.5 3.5t3.5 8.5v108q0 5-4 9t-8 4h-138q-4 24-11.5 48.5t-18.5 46.5q14 3 77 20t87 17q36 0 74-15.5t71-45.5l4-2q2 0 6-1 4 0 8 4l59 75z"/></svg>