<svg viewBox="0 0 2600 2760.837" xmlns="http://www.w3.org/2000/svg"><path d="M904.5 553q45.5-15 88.5-15 75 0 141.5 9.5t134.5 9.5q43 0 85-7.5t122-9.5h47q119 0 156.5 20.5t37.5 37.5-23 24-53 7q-15 0-29.5-1t-30.5-1q-57 0-148 26t-151 26q-43 0-85.5-7.5t-84.5-17.5l-84-19q-32-7-65-11t-57-4q-17 0-32-7t-15-19q0-26 45.5-41z m1304.5 604.5q-67 68.5-170 108.5l-10 4q-98 301-121 479t-108 298.5-218 182.5-282 62q-153 0-286.5-64t-217-184.5-106-299-119.5-474.5l-11-4q-101-39-169-108t-68-146q0-88 77-161t226-73q76 0 168.5 25.5t226 42 278.5 16.5q151 0 285.5-17.5t222.5-42 167-24.5q149 0 225.5 73t76.5 161q0 77-67 145.5z m-346 186.5l16-58q6-24 6-33 0-36-16.5-49.5t-39.5-13.5q-8 0-15 1l-15 2-146 33q-35 8-68 15l-63 13-81 17q-12 3-23.5 14.5t-17.5 22-19 70-20 130.5-16 140-16 88q-9 27-29 27-23 0-31-26.5t-13-77.5l-11-121q-7-70-23-144.5t-22.5-85-18-22-21-14.5-83.5-18l-62-13q-34-7-68-15l-145-33-15-2q-8 0-16-1-28 0-42 15.5t-14 60.5q0 9 7 32l15 57q29 108 65 305.5t85.5 290 148.5 147.5 264 55q169 0 268.5-58t147-151 82-287.5 65.5-312.5z m-1240-432q0 18 55 76.5t125 87 83 28.5q9 0 11.5-11.5t2.5-34.5v-72l-1-16q-2-18-8-27t-76.5-31.5-111.5-28.5q-5 0-19-2t-28-2-24 3.5-10 17.5q0 8 1 12z m1292-31q-14 2-19 2-13 2-42.5 9t-59.5 17l-40 13q-30 11-41 17.5t-12 39.5l-2 39q0 57 2.5 71.5t11.5 14.5q12 0 81-27.5t126.5-87 57.5-88.5q0-15-10.5-18.5t-24.5-3.5-28 2z m-586 245q0 31 36 31 262 0 269-52.5t7-78.5q0-45-3-55.5t-20-10.5q-12 0-29 3l-23 4q-24 4-49 7l-100 11q-45 5-62 15t-20 45z m-62-90q-4-32-25.5-40t-104.5-17l-51-5q-26-3-50-7l-22-4q-18-3-30-3-16 0-20 10t-4 52q0 18 2.5 39t2.5 35q0 29 62 45t210 16q36 0 36-28 0-11-2-39z"/></svg>