<svg viewBox="0 0 2600 2760.837" xmlns="http://www.w3.org/2000/svg"><path d="M2268 2091l10 280q0 23-13.5 39.5t-35.5 19.5l-49 8q-277 46-678 91.5t-653 45.5q-40 0-87-2t-77-6l-37-4-9-3q-23-5-38-32.5t-77.5-278-121-721-75.5-717.5l-5-68q0-21 16-41.5t132.5-92.5 280.5-141 414.5-137 561.5-108q2 0 5-1t5-1q20 0 35 13.5t20 33.5l44 198q95-19 160-39.5t73-20.5h8q20 0 37 12.5t22 32.5l13 68q24 125 53.5 376.5t65.5 1195.5z m-1578 330q246-123 627.5-220t740.5-144l-369-1711q-407 57-735 172.5t-513 252.5l10 113q27 321 88 778.5t151 758.5z m1072-1220.5q24 117.5 51 244t27 150.5q0 45-40.5 71.5t-179 67.5-183.5 41q-61 0-75.5-34.5t-48.5-141-49-206.5l-8-52q-4-27-4-54 0-74 52.5-101t187.5-65 172-38q74 0 98 117.5z m-857 1256.5q204-4 540.5-41t585.5-76l127-19q0-26-2-66.5t-4-93.5l-260 43q-255 42-517 106.5t-470 146.5z m1128-1918q-42 12-85 22l-88 20 283 1306-22-496q-11-232-32.5-447t-55.5-405z m-1434.5 766.5q-16.5-14.5-16.5-28.5 0-25 43.5-56.5t137.5-58 118-39 110-49.5 116-42 68-30 105-29.5 95-19 133-42 114-27.5q19 0 30 13.5t11 29.5q0 36-93 68t-151 38.5-211 64.5l-264 95-118 52q-54 25-120.5 50t-74.5 25q-16 0-32.5-14.5z m1258.5 560q12 15.5 12 33.5 0 19-16.5 36t-317 81-482.5 128l-264 92q-6 3-12 3-15 0-25-12t-10-26q0-6 4.5-17.5t109.5-61.5 258.5-95.5 371.5-93.5 274-65.5 65-17.5q20 0 32 15.5z m-1065-1044.5q-25-2-38-19t-13-37q0-19 12-34t37-15 58-23.5 57.5-23.5 72-25 108.5-41 111-34l55-19h8q22 0 35 17t13 38q0 38-36 50.5t-117.5 44.5-117.5 38.5-69 22.5l-54 26q-28 14-56 24t-57 10h-9z m-100 1116.5q7-12.5 18-12.5 68-30 136.5-52.5t168.5-70.5 158-48q17 0 27 13.5t10 29.5q0 7-8.5 25.5t-226.5 99.5l-110 41q-68 26-90.5 37.5t-38.5 11.5q-22 0-36.5-17t-14.5-35q0-10 7-22.5z m-59.5-419q-10.5-13.5-10.5-28.5 0-42 69.5-62.5t99-39.5 62-23.5 111.5-38.5 128-42h7q18 0 32 14.5t14 31.5q0 18-16 27t-104 45-141.5 52-75 29-74.5 31-71 18q-20 0-30.5-13.5z m295.5-576.5l-179 68q-80 31-126.5 49.5t-55.5 20.5l-7 3q-8 0-14-6.5t-6-14.5 13-18 370.5-145 706.5-228h6q6 0 12.5 4t6.5 13q0 21-27.5 25.5t-242 70.5-457.5 158z m-245 823q-12 0-19-9.5t-7-20.5q0-3 1-6l2-6q8-22 28.5-40t67-32 92-36 99-40.5 91.5-33 61-14.5q20 0 31 12t11 26q0 22-17 33.5t-66.5 28.5-92 31.5-74 31.5-69 26.5-73 29-66.5 19.5z"/></svg>