<svg viewBox="0 0 2600 2760.837" xmlns="http://www.w3.org/2000/svg"><path d="M2086.5 2379q-226.5 139-724.5 139-562 0-819-142t-257-419q0-156 75-358.5t237-369.5 357.5-258.5 384.5-91.5h22q-2-2-2-7 0-36 24.5-68.5t52.5-46.5q-9-37-18-83.5t-9-95.5q0-108 61-197.5t157-89.5q46 0 94 25.5t78 62.5l7 7q14 0 28.5-2t34.5-2q111 0 178 57t67 154v9l13 6 5 4q52 33 81.5 80t29.5 95q0 82-51.5 140.5t-240.5 69.5h-5l-48 5v14q0 28-9 53t-31 42q64 72 108.5 160t56.5 154.5 80 120 116.5 125 70.5 146.5 22 158q0 265-226.5 404z m39.5-568q-37-83-91.5-141t-90.5-83-36-76q-6-94-141-298t-408-204q-201 0-425 103.5t-366.5 320.5-142.5 454q0 254 211 380.5t700 126.5q221 0 415.5-35.5t303-140 108.5-229.5q0-95-37-178z m-564.5 293q-83.5 64-187.5 64-26 0-54-3.5t-57-11.5l-18 52q-7 13-17 13-2 0-3.5-1t-2.5-1l-133-49q-12-5-12-18l1-4 24-63q-106-63-176-139.5t-70-94.5q3-6 7-10l130-82 5-2q2 0 4-1 4 0 49.5 49.5t117.5 94.5l60-166q-14-10-26-21t-25-21l-9-8q-104-90-127.5-134.5t-23.5-90.5q0-81 74-144t171-63q63 0 133 22l21-60q3-11 17-11h6l133 48q11 6 11 17v6l-30 79q60 41 110 85t76 73l2 3q0 2 1 4 0 10-6 13l-112 84q-3 3-10 3t-8-3q-23-22-52-45l-62-49-49 135q126 110 163.5 173.5t37.5 123.5q0 90-83.5 154z m-12-1446q8.5 40 17.5 77 27 5 61 15t67 22q12-14 30.5-32t33.5-30l10-9q8-5 26-15t35-10q26 0 26 28 0 22-23.5 73.5t-26.5 55.5q26 19 46 45 47-10 115-15.5t107-15.5 39-54q-9-48-71-81t-62-78q0-9 2.5-19t2.5-19q0-41-30.5-62.5t-69.5-21.5l-11 1q-17 0-34.5 2t-35.5 2q-50 0-97-47t-79-47-59.5 45-27.5 111q0 39 8.5 79z m163.5 328l6 2q3 0 6 1 20 0 38.5-14t18.5-30q0-15-18-31t-47-29l-75-38q-38-19-83-19-28 0-53.5 12t-25.5 31q0 23 33 29t87.5 27.5 112.5 58.5z m-383 982q5 0 8 1t7 1q28 0 48.5-15t20.5-39q0-14-12-30t-29-33z m6-534l-11-2q-6 0-12-1-19 0-38 11t-19 36q0 14 12 27t32 29z"/></svg>