<svg viewBox="0 0 2600 2760.837" xmlns="http://www.w3.org/2000/svg"><path d="M2222 1720q61 29 83.5 58t22.5 62q0 40-26 69t-65 45l-37 15q-56 20-110.5 25t-102.5 5h-40q-8 0-11-1 0 51 21 70t75 27q64 0 100.5 21t36.5 63q0 57-74 96t-168.5 92.5-249.5 90.5q-13 26-40 59t-52 55l-34 30q-18 16-44 16-10 0-27-16.5t-28-16.5q-6 0-14 4l-19 10q-11 5-23 9.5t-25 4.5q-16 0-27-9.5t-11-33.5q-8 0-20.5 1.5t-24.5 1.5q-17 0-26.5-5.5t-9.5-16.5q0-12 13.5-25t32.5-25l16-10-70-5q-35-2-70-6-3 4-41.5 44.5t-74.5 40.5q-10 0-27-18t-28-18q-7 0-16 4l-19 10q-11 6-23 10.5t-24 4.5q-17 0-28.5-9.5t-11.5-32.5h-26q-11 0-22 1-17 0-25.5-6.5t-8.5-15.5q0-14 18-30.5t59-41.5l39-24q-14-8-26.5-16t-26.5-15l-11-7q-92-57-149-136.5t-88-176.5q-36 11-74.5 18t-91.5 7q-82 0-129.5-22.5t-47.5-63.5q0-15 7.5-36.5t56.5-89 100.5-173.5 81.5-253 59.5-222.5 51.5-113 45-100 23-111.5q0-19-2-37t-2-37q-34 0-67 4.5t-67 11.5l-27 7q-14 4-28 4-23 0-31.5-6.5t-8.5-19.5q0-30 38-75t118-86l96-50q52-136 116.5-208.5t170.5-118 219-45.5q98 0 189 33.5t171.5 108 135 171 89.5 206.5 84 349 108 358.5 120 180 87 73.5z m-572.5 640q129.5-29 238.5-87-94-75-148.5-157t-104.5-228-56-238-32.5-202.5-73.5-227.5l-2-6q-10-28-26-51l-6-11q-10-13-17.5-28t-7.5-31q0-17 10.5-28t32.5-18l23-6q82-20 130.5-73.5t48.5-132.5q0-74-16-109t-49.5-70-65.5-35q-28 0-48.5 19t-36.5 81l-9 31q-20 74-34.5 90.5t-41.5 47.5l-33 38q-12 12-93.5 67.5t-214.5 55.5q-66 0-125-16.5t-110-46.5q-18 57-35.5 105.5t-25.5 98.5l-4 25q-18 102-33 227t-15 252q0 223 60 365.5t175 210.5l11 8q36 19 71.5 41.5t136.5 45 251 22.5q146 0 275.5-29z m-410.5-1819.5q-21-25.5-53-25.5-30 0-51 27t-21 61q0 33 20.5 61t51.5 28q32 0 53-26.5t21-62.5q0-37-21-62.5z"/></svg>