<svg viewBox="0 0 2600 2760.837" xmlns="http://www.w3.org/2000/svg"><path d="M2043 2036q-41 85-119.5 119.5t-139.5 34.5q-25 0-46-3.5t-39-8.5l-35-8q-16-4-30-4-47 0-130.5 53t-204.5 53q-70 0-119-16t-86-37l-64-37q-29-16-63-16-17 0-33 4l-35 8q-17 5-38 8.5t-46 3.5q-58 0-134.5-31.5t-121-118.5-44.5-195q0-66 28-141.5t74-155.5l67-117q27-46 50.5-107t48.5-135l55-160h-1q59-171 108-265.5t149.5-160.5 204.5-66q98 0 200.5 63t160 174 131.5 343 124 314l18 29q55 86 103 191t48 197q0 103-41 188z m-128.5-319q-32.5-78-100.5-186l-17-30q-30-52-54.5-114.5t-50.5-137.5l-56-163q-59-172-96-243.5t-101.5-117.5-122.5-50l-16-1-16 1q-54 4-117.5 46t-103 112-100.5 252l-55 163q-26 75-50.5 138t-54.5 115l-18 30-44 76q-37 63-63 127t-26 112q0 94 39.5 149t123.5 55q17 0 34-4l34-7 38-7q19-3 42-3 90 0 168 53t168 53 169-53 164-53q22 0 38.5 2t47.5 8l33 7q16 4 33 4 54 0 91-23t54.5-74.5 17.5-104.5-32.5-131z"/></svg>