<svg viewBox="0 0 2600 2760.837" xmlns="http://www.w3.org/2000/svg"><path d="M2337 1616l5 43q2 19 2 26 0 49-15 90.5t-91 100.5-582 194l-92 25q-37 10-107.5 32t-130.5 22q-57 0-112.5-22t-146.5-89l-371-286-251-196q-101-78-119.5-95.5t-44-57.5-25.5-81q0-20 8-44l8-27q6-19 13-46l15-56q10-41 18.5-83t8.5-54q0-7-3-17l-6-22q-4-11-7-23t-3-23q0-92 132.5-136t379-73 314.5-29q92 0 163 25.5t172 96.5l126 90q352 255 496.5 378.5t170.5 155.5 40.5 59 21 45.5 13.5 76.5z m-1075 410q9-28 22-64t13-70q0-38-4-74t-15-72q-10-2-75.5-47t-209.5-154l-153-113q-65-49-138.5-104.5t-148.5-113.5l-101-77q-40-31-49-39-4 68-26 138.5t-22 82.5q0 21 22.5 55t312.5 250l266 195q65 48 117 85l86 61q41 30 63 42t40 19z m940-421q-30-26-80-26-75 0-241.5 46t-271.5 70l-104 23q-16 4-62.5 14t-50.5 10q6 30 11 62.5t5 66.5q0 42-7 83t-24 79q11-2 47-11t89-23l116-30q64-17 130-36l130-36q227-64 263.5-90t58-63.5 21.5-73.5q0-39-30-65z m-1177-675l-118 26 105 84 119-25z m30 344l107 85 117-26-105-84z m-230-302l-118 26 105 84 119-25z m537 344l117-24-105-85-119 26z m-363-205l-118 26 107 83 117-24z m737 301l117-25-106-84-118 26z m-306-42l106 85 117-25-105-85z m74-259l-105-85-118 26 105 83z m-174-139l-105-83-118 24 105 85z m6 525l117-26-105-84-118 25z m237-331l-118 24 105 84 119-25z m-385 12l117-25-106-83-118 24z m-492-3l107 84 102-22-105-84z m-173-138l104 85 104-22-105-85z m348 277q28 21 55 42l53 41 100-22-105-83z m382 200l-105-84-97 21q32 23 59 44.5t50 38.5z m683-144l93-19-50-40q-28-21-60-44l-90 19z m-1254-511q-33 6-62.5 12.5t-55.5 13.5l74 59 118-25z m1165 355l-54-42-57-41-81 17 105 83z m-958-391q-29 5-60 9.5t-63 11.5l72 57 118-25z m774 255q-31-22-59-43l-55-41-68 15 105 85z m-196 523q19-3 34-6l27-6 56-14-62-49-118 25z m-360-805q-37 2-65.5 6t-66.5 7l63 50 118-25z m751 713l64-14q30-6 53-10l-53-44-119 26z m-383-567q-29-21-48-34l-33-22q-14-9-23-14.5t-16-10.5l-50 10 107 84z m587 529q14-2 29.5-2t40.5-1q9 0 9-7 0-6-8-17.5t-23-27.5l-13-12-94 20z m-399 85q28-8 57-14t58-13l-56-46-118 25z m-1171-647q-21 11-33.5 22t-12.5 25q0 6 3 11.5t11 14.5l97-22z m742 677q27 17 54 27t57 10q10 0 19.5-2.5t20.5-2.5l-63-50z m29-774q-20-11-31.5-13.5t-20.5-2.5l26 22z"/></svg>