<svg viewBox="0 0 2600 2760.837" xmlns="http://www.w3.org/2000/svg"><path d="M2434 1656.5q-62 97.5-154 147.5t-143 58.5-51 38.5q0 17 7 47t7 62q0 167-132.5 307.5t-408.5 140.5q-143 0-228.5-54t-104-92.5-38.5-38.5q-10 0-22.5 10.5t-26.5 24.5l-31 30q-42 42-118.5 70t-162.5 28q-209 0-313.5-124.5t-104.5-284.5q0-59 11.5-108t27-72.5 15.5-44.5q0-30-59-44t-132-68-120.5-149.5-47.5-205.5q0-101 60-220.5t167.5-192 239.5-72.5q14 0 27.5 1.5t27.5 1.5q13 0 21-5.5t8-20.5q0-24-3.5-46t-3.5-51q0-84 65-192t180.5-179.5 239.5-71.5q78 0 141.5 27.5t102.5 77 49.5 91.5 44.5 42q15 0 32-5.5t34-13.5l31-14q37-17 122.5-38.5t160.5-21.5q189 0 291 121t102 283q0 77-22 130t-22 63q0 12 3.5 21.5t76 32.5 144.5 116 72 226q0 134-62 231.5z m-91-253.5q0-135-57-185t-167-50h-34q-17 0-37 1-58 0-81-15.5t-23-43.5q0-36 46-66.5t83.5-95 37.5-138.5q0-116-76-185.5t-201-69.5q-70 0-137.5 21.5t-109.5 51.5l-79 56-24 16q-23 15-50 26.5t-46 11.5q-65 0-72-105t-59.5-157-144.5-52q-133 0-240.5 112.5t-107.5 242.5q0 35 8.5 69.5t28.5 68.5l4 8q5 7 6 13t1 13q0 19-15 33t-35 14q-8 0-51-15t-106-15q-149 0-258.5 95.5t-109.5 237.5q0 104 47 182t118 114.5 163 44.5 92 57q0 30-28 72.5t-47 98-19 102.5q0 120 80 204t198 84q93 0 168.5-51t104.5-99 67-48q58 0 73 43t45 90 81 74.5 128 27.5q214 0 323.5-104t109.5-216q0-59-26-102.5t-26-61.5q0-27 28.5-51t57.5-24q13 0 25 2.5t25 2.5q110 0 212-99t106-208v-33z m-509 62q-89 126-240.5 189t-311.5 63q-117 0-193.5-68t-76.5-173q0-80 51.5-157.5t147-126 174.5-48.5q68 0 105 36t37 77q0 30-23 55.5t-55 25.5q-22 0-51-18t-53-18q-69 0-120.5 46t-51.5 116q0 46 34 71t103 25q120 0 220.5-61.5t151.5-155.5 51-168q0-94-79-150.5t-199-56.5q-146 0-317.5 102.5t-252 247-80.5 277.5q0 144 98.5 238t317.5 94q129 0 237.5-27.5t144.5-44.5 50-17q13 0 21 8.5t8 19.5q0 10-8 19.5t-90 50-187.5 66.5-218.5 26q-240 0-378-113t-138-316q0-188 115-377t306-306.5 396-117.5q187 0 315.5 114t128.5 291q0 136-89 262z"/></svg>