<svg viewBox="0 0 2600 2760.837" xmlns="http://www.w3.org/2000/svg"><path d="M2274.5 2001q-10.5 37-25.5 56l-15 18q-8 9-14 18.5t-7 20.5q0 19 8.5 44t8.5 53q0 100-87 167t-206 67q-99 0-173-54.5t-108-153.5q-71 38-172.5 59.5t-187.5 21.5q-83 0-178.5-20.5t-174.5-61.5q-33 98-107.5 153.5t-173.5 55.5q-117 0-206.5-67t-89.5-167q0-25 9.5-47t9.5-45q0-22-24-50t-35.5-70-11.5-81q0-52 15-103t41-93l16-26q7-13 12-26.5t5-26.5q0-56-10.5-110.5t-10.5-110.5q0-180 73-355t207-309q-16-27-28-58t-12-66q0-54 35.5-90.5t85.5-36.5q64 0 102.5 37t58.5 42q5-80 38.5-120.5t87.5-40.5q39 0 67 20.5t59 51.5q11-79 46-122t98-43q65 0 99 44.5t44 123.5q31-31 60.5-44t58.5-13q54 0 86 35.5t44 92.5l19 10q33-34 66.5-54t78.5-20q48 0 84 36.5t36 89.5q0 32-10.5 62t-24.5 56q132 143 203 320.5t71 357.5q0 55-10 107.5t-10 106.5q0 28 45 101t45 175q0 45-10.5 82z m-203 309q50.5-40 50.5-108 0-31-19-62.5t-51-31.5q-26 0-36.5 8t-14.5 18l-8 18q-4 8-19 8-14 0-21.5-11t-7.5-19q0-35 40-60t81-25q32 0 66 13 11-26 34-54.5t23-82.5q0-79-44.5-154t-44.5-134q0-63 10.5-114.5t10.5-95.5q0-149-57.5-300t-170.5-282q-56 115-87.5 143t-66.5 28q-54 0-162.5-48.5t-273.5-48.5q-97 0-164 14.5t-150 47.5l-15 5q-22 9-44 19.5t-56 10.5q-46 0-78-26.5t-58-78.5l-31-60q-104 114-166.5 271.5t-62.5 304.5q0 43 10.5 97.5t10.5 123.5q0 50-44.5 125.5t-44.5 148.5q0 61 22 84.5t35 55.5q34-13 65-13 52 0 87 31t35 54q0 8-7.5 19t-23.5 11q-11 0-16-8l-11-18q-6-10-17.5-18t-33.5-8q-29 0-49.5 29t-20.5 66q0 68 53.5 107.5t133.5 39.5q89 0 146-64.5t57-156.5q0-62-21-123t-59-103l-24-27q-25-26-42.5-57t-17.5-59q0-35 28.5-80.5t39.5-152.5 53-158 125-51l45 1q94 0 182-42.5t154-104.5 113-62q51 0 85.5 49t98.5 88 108.5 56.5 70 59.5 25.5 166q0 70 33.5 131t33.5 100q0 29-17 60.5t-42 57.5l-23 25q-38 42-59 104t-21 123q0 92 56.5 156t146.5 64q84 0 134.5-40z m-432.5-173q0-2-1-4t-1-4q0-94 35.5-175.5t81.5-127 46-66.5q0-9-34-72.5t-34-160-11-115.5-45-30-107-57-128-119q-19 12-37 27l-37 32q-66 58-114.5 81t-116 46-144.5 23l-45-1q-38 0-54 15.5t-25 81.5l-8 54q-11 76-18 97.5t-26 57.5l-13 25q-6 11-6 15 0 10 10 24.5t33 37.5l18 19q53 61 77.5 138t24.5 157q73 44 167.5 65t168.5 21q73 0 170-20t173-65z m-896-1429q24 44 28 52l22 47q21 47 43 79t38 32q20 0 49-17t137-49.5 243-32.5q95 0 182 18.5t175 55.5l32 16q16 9 32 9 12 0 26-12 17-35 36-68t36-69l17-31q19-33 30-59t11-45q0-10-6.5-20.5t-17.5-10.5q-30 0-54 25.5t-62.5 46-63.5 20.5q-32 0-51-20.5t-28-85.5l-2-10q-4-15-12.5-28t-20.5-13q-28 0-62 38.5t-82 38.5q-58 0-68-94t-50-94q-42 0-50.5 94t-68.5 94q-46 0-87.5-46.5t-63.5-46.5q-15 0-23 18.5t-8 56.5q0 44-20.5 71t-53.5 27q-50 0-101.5-46t-80.5-46q-11 0-17.5 10t-6.5 24q0 27 24 71z m771 1053q-29-31-29-76 0-44 28.5-74.5t68.5-30.5q26 0 47.5 13t33.5 35q9 0 27-14t24-14 9 5.5 3 9.5q0 7-14.5 26.5t-34.5 27.5l2 8q0 4 1 8 0 45-29.5 76t-68.5 31-68-31z m-429.5-1q-27.5 32-67.5 32-39 0-67.5-31.5t-28.5-79.5q0-8 1-11-18-9-34.5-24t-16.5-31q0-4 3-9.5t10-5.5 16 7l14 12q4 3 11 6l9 4q14-23 35.5-36t47.5-13q41 0 68 31.5t27 73.5q0 43-27.5 75z m340.5 221q8 5 8 16 0 26-36.5 51.5t-97.5 25.5-97.5-24.5-36.5-52.5q0-11 7-16t13-5q14 0 40 10t74 10q46 0 72-10t40-10q6 0 14 5z m-210-109.5q5-4.5 13-4.5 7 0 25 16t46 16 45-16 26-16q6 0 11 4.5t5 10.5q0 16-23.5 34t-63.5 18q-41 0-65-18t-24-34q0-6 5-10.5z"/></svg>