<svg viewBox="0 0 2600 2760.837" xmlns="http://www.w3.org/2000/svg"><path d="M2429 874q14 27 14 58 0 24-61 229.5t-117 374.5l-100 314-93 294-71 222q-41 123-84.5 155.5t-101.5 32.5q-71 0-187-45t-248.5-94-261-97-261-98.5-259.5-97.5-249-92.5-157.5-81-35.5-85.5q0-24 6.5-51t26.5-80l15-39q17-49 37-97l40-95q88-220 175.5-433t166-425.5 121.5-255 105-42.5q18 0 37.5 2.5t39.5 6.5l253 49q175 35 470 115t509 142l91 28q96 30 118.5 72t32.5 60z m-1449.5 152.5q9.5 6.5 23.5 11.5l144 46 5 2q61 18 171 54t225 67l154 41q32 9 53 14l25 6q15 5 28 5 39 0 55-54.5t66.5-182 57-156 35.5-94.5q10-23 10-41 0-28-28-42t-90-35-177-51l-132-34q-70-17-132.5-36.5t-131.5-32.5l-78-14-30-4q-16-2-29-2-46 0-65 41.5t-94 249-75 221.5 9.5 20.5z m954.5 562.5q4-11 7.5-26t3.5-29q0-19-14.5-30t-35.5-16l-24-6-104-32q-247-78-499-157l-542-168q-19-6-34-6-35 0-56 58.5t-87.5 219.5-111.5 273-45 157 45 76 130 60 447.5 164 446.5 170 143 35q47 0 76-24t49-81l33-102 130-407z m-369-451q-19-5-35-14t-16-26q0-10 51-153t79-217l13-30q5-11 25-11 24 0 48.5 8.5t47.5 13.5l79 17q19 5 36 10t29 11l6 6 1 12q0 17-10 43l-17 46q-25 70-51 140l-52 141q-4 8-13 31.5t-35 23.5q-12 0-48.5-10t-61.5-18z"/></svg>