<svg viewBox="0 0 2600 2760.837" xmlns="http://www.w3.org/2000/svg"><path d="M2313 1512q-120 185-388 368l-141 95q-71 48-138 98t-127 107l-78 76q-6 5-47.5 52t-90.5 49h-6q-57-3-113-73t-163-156-264.5-190-266.5-199-180.5-198-107-206.5-35.5-236.5q0-158 76.5-302.5t208-228.5 286.5-84q109 0 217 28t252 129l23 18q20 16 40.5 28t29.5 12q18 0 107.5-68t203.5-107.5 247-39.5q244 0 409.5 183t165.5 432q0 229-120 414z m-412-929q-8 15-22.5 24t-31.5 9q-19 0-33.5-9t-21.5-23q-182 18-315.5 119t-176.5 101q-17 0-35-8t-31-18l-11-7q-34-22-141-96t-283-91q-8 14-23 23t-32 9q-18 0-32.5-9t-22.5-23q-102 10-181.5 59t-133.5 125-81 148.5-27 182.5q0 201 106 364.5t352.5 333 322.5 226.5q0-27 18.5-46t45.5-19 45.5 19 18.5 46q0 23-15.5 40.5t-38.5 22.5q14 10 54 49.5t58 54.5q5-20 22-34t41-14q25 0 43 17t20 41q30-30 61.5-59t57.5-55q-26 0-44.5-18.5t-18.5-44.5q0-27 18.5-46t44.5-19q27 0 45.5 19t18.5 46l-1 11q103-83 330-235.5t344.5-319 117.5-374.5q0-141-36.5-216.5t-85-140-127.5-111-183-54.5z m-561 566q-19 19-45 19-27 0-46-19t-19-45q0-27 19-46t47-19q27 0 45 19t18 46q0 26-19 45z m-183.5 551.5q-18.5 18.5-45.5 18.5t-45.5-18.5-18.5-44.5q0-27 18.5-46t45.5-19 45.5 19 18.5 46q0 26-18.5 44.5z m550.5-184.5q-19 19-45 19t-44.5-19-18.5-45q0-27 18.5-46t44.5-19 45 19 19 46q0 26-19 45z m-550.5-183q-18.5 19-45.5 19t-45.5-19-18.5-46q0-26 18.5-44.5t45.5-18.5 45.5 18.5 18.5 44.5q0 27-18.5 46z m0-367.5q-18.5 18.5-45.5 18.5t-45.5-18.5-18.5-45.5q0-26 18.5-44.5t45.5-18.5 45.5 18.5 18.5 44.5q0 27-18.5 45.5z m-185 550.5q-18.5 19-44.5 19t-45-19-19-45q0-27 19-46t45-19 44.5 19 18.5 46q0 26-18.5 45z m735.5-733.5q-19 18.5-45 18.5t-44.5-18.5-18.5-44.5q0-27 18.5-46t44.5-19 45 19 19 46q0 26-19 44.5z m-183.5 918q-18.5 18.5-45.5 18.5-26 0-44.5-18.5t-18.5-44.5q0-27 18.5-46t44.5-19q27 0 45.5 19t18.5 46q0 26-18.5 44.5z m368 0q-18.5 18.5-44.5 18.5-27 0-46-18.5t-19-44.5q0-27 19-46t46-19q26 0 44.5 19t18.5 46q0 26-18.5 44.5z m-184.5-551.5q-19 19-45 19t-44.5-19-18.5-45 18.5-44.5 44.5-18.5 45 18.5 19 44.5-19 45z m-183.5-183.5q-18.5 18.5-45.5 18.5-26 0-44.5-18.5t-18.5-45.5q0-26 18.5-44.5t44.5-18.5q27 0 45.5 18.5t18.5 44.5q0 27-18.5 45.5z m-735 735q-18.5 18.5-44.5 18.5-27 0-46-18.5t-19-44.5q0-27 19-46t46-19q26 0 44.5 19t18.5 46q0 26-18.5 44.5z m-367.5-735q-19 18.5-46 18.5-26 0-44.5-18.5t-18.5-45.5q0-26 18.5-44.5t44.5-18.5q27 0 46 18.5t19 44.5q0 27-19 45.5z m0 367.5q-19 19-46 19-26 0-44.5-19t-18.5-46q0-26 18.5-44.5t44.5-18.5q27 0 46 18.5t19 44.5q0 27-19 46z m1102.5 0q-18.5 19-45.5 19-26 0-44.5-19t-18.5-46q0-26 18.5-44.5t44.5-18.5q27 0 45.5 18.5t18.5 44.5q0 27-18.5 46z m-552-550.5q-18.5 18.5-44.5 18.5t-45-18.5-19-44.5q0-27 19-46t45-19 44.5 19 18.5 46q0 26-18.5 44.5z m-183 183q-18.5 18.5-44.5 18.5-27 0-46-18.5t-19-45.5q0-26 19-44.5t46-18.5q26 0 44.5 18.5t18.5 44.5q0 27-18.5 45.5z m1470 0q-18.5 18.5-44.5 18.5-27 0-46-18.5t-19-45.5q0-26 19-44.5t46-18.5q26 0 44.5 18.5t18.5 44.5q0 27-18.5 45.5z m-367 0q-18.5 18.5-44.5 18.5-27 0-46-18.5t-19-45.5q0-26 19-44.5t46-18.5q26 0 44.5 18.5t18.5 44.5q0 27-18.5 45.5z m367 367.5q-18.5 19-44.5 19-27 0-46-19t-19-46q0-26 19-44.5t46-18.5q26 0 44.5 18.5t18.5 44.5q0 27-18.5 46z m-1470 0q-18.5 19-44.5 19-27 0-46-19t-19-46q0-26 19-44.5t46-18.5q26 0 44.5 18.5t18.5 44.5q0 27-18.5 46z m1103 0q-18.5 19-44.5 19-27 0-46-19t-19-46q0-26 19-44.5t46-18.5q26 0 44.5 18.5t18.5 44.5q0 27-18.5 46z m-920-184q-18.5 19-44.5 19t-45-19-19-45 19-44.5 45-18.5 44.5 18.5 18.5 44.5-18.5 45z m735.5 733.5q-19 18.5-45 18.5t-44.5-18.5-18.5-44.5q0-27 18.5-45t44.5-18 45 18 19 45q0 26-19 44.5z m-735.5 0q-18.5 18.5-44.5 18.5t-45-18.5-19-44.5q0-27 19-45t45-18 44.5 18 18.5 45q0 26-18.5 44.5z m368.5-366.5q-19 19-45 19-27 0-46-19t-19-45q0-27 19-46t47-19q27 0 45 19t18 46q0 26-19 45z m0 369q-19 19-45 19-27 0-46-19t-19-46q0-26 19-45t47-19q27 0 45 19t18 45q0 27-19 46z m734-1102.5q-19 18.5-45 18.5t-44.5-18.5-18.5-44.5q0-27 18.5-46t44.5-19 45 19 19 46q0 26-19 44.5z m0 366.5q-19 19-45 19t-44.5-19-18.5-45 18.5-44.5 44.5-18.5 45 18.5 19 44.5-19 45z m0 366q-19 19-45 19t-44.5-19-18.5-46q0-26 18.5-44.5t44.5-18.5 45 18.5 19 44.5q0 27-19 46z m-1469.5 0.5q-18.5 18.5-44.5 18.5t-45-18.5-19-44.5q0-27 19-46t45-19 44.5 19 18.5 46q0 26-18.5 44.5z m0-735q-18.5 18.5-44.5 18.5t-45-18.5-19-45.5q0-26 19-44.5t45-18.5 44.5 18.5 18.5 44.5q0 27-18.5 45.5z m0 367.5q-18.5 19-44.5 19t-45-19-19-46q0-26 19-44.5t45-18.5 44.5 18.5 18.5 44.5q0 27-18.5 46z"/></svg>