<svg viewBox="0 0 2600 2760.837" xmlns="http://www.w3.org/2000/svg"><path d="M2270.5 1595q-51.5 131-135.5 221l-25 27q-16 16-41 16-6 0-11-1.5t-7-1.5q-60 187-176 307t-273 172.5-314 52.5q-154 0-311-54.5t-274-179-170-305.5q-36-9-75.5-51.5t-75-90-59.5-111.5-36-149q-10-72-10-151 0-277 122.5-507.5t354-355 548.5-124.5q313 0 543 122.5t353.5 351.5 123.5 500q0 181-51.5 312z m-133.5-664q-66-168-185-279-169 71-323 158t-292 190q190 100 412 299.5t333 395.5q76-102 98.5-200.5t22.5-206.5q0-189-66-357z m-154 829q-100-179-304-366t-442-315q-145 112-323 296t-307 410q45 185 161 308t281 170l44 11q42 11 94 18t101 7q165 0 316.5-60.5t249-189 129.5-289.5z m-336 293.5q-37 29.5-91 29.5-62 0-139-35t-129-35q-45 0-119 39t-124 39q-49 0-80.5-19.5t-31.5-53.5q0-28 35.5-32.5t81-50 87.5-66.5q-26-8-43.5-25t-17.5-49q0-40 48-109t90-160 73-91q19 0 25 12.5t6 26.5v11q-5 57-71 169t-66 123 14.5 14 31.5 3q14 0 27.5-1t27.5-1q29 0 45 9.5t16 27.5q0 5-1 8 91 16 171.5 75t125.5 59 45 34q0 19-37 48.5z m79.5-352q-30.5 33.5-73.5 33.5-41 0-72.5-33t-31.5-82q0-48 31-81.5t73-33.5q44 0 74 34t30 81q0 48-30.5 81.5z m-880 0q-30.5-33.5-30.5-81.5 0-47 30-81t74-34q42 0 73 33.5t31 81.5q0 49-31.5 82t-72.5 33q-43 0-73.5-33.5z m-426-185.5q26.5 103 102.5 179 12-23 29-49l36-55q108-162 251-308.5t234-221.5 186-150.5 250.5-169 338.5-172.5q-216-141-546-141-444 0-676 249.5t-232 617.5q0 118 26.5 221z"/></svg>