<svg viewBox="0 0 2600 2760.837" xmlns="http://www.w3.org/2000/svg"><path d="M2321 1148q11 2 18.5 11t7.5 20v773q0 11-9.5 21.5t-23.5 10.5h-7l-288-66v160q0 49-25 83.5t-66 50.5l-799 332-28 9q-14 5-30 5-8 0-16.5-1t-17.5-3l-385-87q-62-14-105-66.5t-43-115.5v-607l29 4q15 2 29 2 196 0 342.5-129t146.5-319q0-178-117.5-305t-274.5-127q-39 0-78 8t-77 22v-29q0-44 22-79t59-51l770-319q33-14 63.5-18t50.5-4 31 1l17 2 100 23q45-21 107.5-40t105.5-19q93 0 172.5 56t118 140 38.5 150q0 111-31.5 181.5t-108.5 133.5v117z m-417 744l-574-129q-10-3-17-12.5t-7-20.5v-771q0-11 8-22t23-11l8 1 559 126v-453q0-23-17-44.5t-40-26.5l-355-80-6-1h-15q-12 0-32 3t-40 11l-576 238 240 53q64 16 105.5 70t41.5 114v1451l683-285q8-5 9.5-11t1.5-14v-186z m-1547.5-890.5q104.5-90.5 292.5-119.5 132 0 228 102t96 238q0 107-42.5 191t-158.5 138.5-198 54.5q-132 0-227-102t-95-240q0-172 104.5-262.5z m1793.5 295.5l-648-146v461l648 147v-462z m-1467.5 129.5q50.5-62.5 50.5-144.5 0-98-62.5-168t-151.5-70q-9 0-16 1l-18 3q-60 15-100.5 71.5t-40.5 131.5q0 94 63.5 166t154.5 72q70 0 120.5-62.5z m164.5 402.5q-22-25-51-25t-48.5 23.5-19.5 54.5q0 41 23.5 64t54.5 23q26 0 44.5-25t18.5-56q0-34-22-59z"/></svg>