<svg viewBox="0 0 2600 2760.837" xmlns="http://www.w3.org/2000/svg"><path d="M2499 1311q-22 29-61 29-29 0-47-30.5t-18-67.5v-19q0-10-2.5-20t-12.5-10q-17 0-54.5 56.5t-91.5 164.5-66.5 123.5-12.5 36.5q0 11 3.5 21t3.5 21q0 42-30.5 89t-41 129-60.5 163-151 139.5-209 58.5q-107 0-210-32.5t-202-101.5-138.5-158.5-44-166-60.5-76.5q-43 0-58 60.5t-66 122-123 90.5-157 29q-206 0-336-186.5t-130-431.5q0-11 1-20t1-19q0-28-23-69t-23-70q0-42 36-73.5t84.5-47.5 69.5-31 122-55 247.5-123.5 216-115.5 139.5-55q91-30 190-30 155 0 261.5 52t106.5 151q0 49-26.5 83.5t-72.5 34.5q-66 0-99-64.5t-64.5-89-104.5-24.5q-60 0-117 18.5t-115 51.5l-72 42q-69 42-198.5 127t-129.5 95q0 24 55.5 37.5t120 38.5 135 85 101 84.5 112.5 24.5q40 0 120-25.5t248-25.5q128 0 256.5 28t180 52.5 70.5 24.5q34 0 75.5-59.5t113.5-145.5l63-75q73-88 123-124t87-36q53 0 80 77t27 154q0 55-22 84z m-1715.5 160.5q-27.5-71.5-101-116t-141.5-61.5l-52-11q-18-4-38.5-7t-39.5-3q-58 0-84.5 12t-35.5 36-9 89q0 138 85.5 260t240.5 122q92 0 147.5-57t55.5-145q0-47-27.5-118.5z m968 111q-134.5-60.5-315.5-60.5-131 0-187.5 40t-56.5 124q0 95 59 184.5t164 128 226 38.5q120 0 182.5-85t62.5-179q0-130-134.5-190.5z"/></svg>