<svg viewBox="0 0 2600 2760.837" xmlns="http://www.w3.org/2000/svg"><path d="M2373 763q25 0 42 17.5t17 41.5v1193q0 24-17 41.5t-42 17.5h-2147q-23 0-41-17.5t-18-41.5v-1193q0-24 18-41.5t41-17.5h2147z m-59 118h-2028v1075h2028v-1075z m-1896 771l-4-8 3-8 72-96q4-4 10-4 3 0 50.5 24t106.5 39v-139q-3 0-119-47.5t-116-145.5q0-81 65.5-133.5t169.5-56.5v-51q0-5 4.5-9.5t9.5-4.5h111q6 0 10 4.5t4 9.5v67q54 14 103 33t75 33l5 7-1 9-60 92-4 4q-2 2-5 2-4-2-5-2l-50-19-58-21v114q131 52 183 102.5t52 110.5q0 81-69.5 138.5t-165.5 63.5v44q0 5-4 9.5t-10 4.5h-111q-5 0-9.5-4.5t-4.5-9.5v-52q-71-14-134-42t-104-58z m238-440q-18 3-33 12.5t-15 31.5q0 16 12.5 25t35.5 15v-84z m139 395q17-5 33-15.5t16-32.5q0-14-13-25.5t-36-22.5v96z"/></svg>