<svg viewBox="0 0 2600 2760.837" xmlns="http://www.w3.org/2000/svg"><path d="M657 813l-241 35 240 34-79 140 139-81 35 246 35-246 141 79-82-140 237-35-237-33 81-141-141 82-28-192q85 0 183.5 26.5t200.5 95.5l54 38q35 24 57.5 38.5t47.5 14.5q26 0 50.5-14.5t56.5-37.5l53-38q90-65 192-94t181-29q51 0 97 5t88 19l-30 216-148-85 86 148-249 36 248 35-84 148 147-85 35 250h4l35-250 148 85-85-148 218-31 5 12q19 45 27.5 100t8.5 111q0 210-113 388.5t-378 357.5l-140 96q-70 48-138 98t-129 107l-78 75q-10 9-43.5 48.5t-64.5 39.5-65.5-40.5-41.5-47.5l-39-38q-42-41-97.5-88t-123.5-95l-198-137q-218-151-315-257t-150.5-229-53.5-278q0-139 44.5-232.5t108-168 157.5-120 218-45.5l-28 192-139-81z m401 840l-121-68 70 119-202 31 202 28-69 120 120-70 30 203 28-201 121 68-70-120 204-30-204-29 69-121-120 70-30-200z m-417-97.5q-53-66.5-106.5-165.5t-73.5-175.5-23-128.5-31-52q-21 0-32 30t-11 95q0 97 44 201.5t134.5 200 130.5 95.5q8 0 14.5-5.5t6.5-15.5q0-13-53-79.5z m1389-966.5q100 36 177 112.5t130 191.5l-212-30 83-147-148 84z m112 837q-3-6-10-6-18 0-62 41.5t-66 61.5l-75 65q-64 55-117 108t-53 82q0 11 15 11 38 0 137.5-71t166.5-156.5 67-123.5q0-6-3-12z m-365-163l-71-40 41 71-122 18 122 18-41 71 71-41 19 122 16-122 73 41-42-73 124-16-124-19 42-71-73 41-17-122z m451 23q-5-10-16-10-19 0-35.5 28.5t-16.5 49.5q0 15 6.5 21.5t14.5 6.5q23 0 37.5-25.5t14.5-49.5q0-11-5-21z m-1172-186l-71-40 41 71-122 18 122 18-41 71 71-41 19 122 17-122 72 41-42-73 125-16-125-19 42-71-72 41-18-122z m241 909l-71-39 41 71-122 18 122 17-41 72 71-41 19 122 17-122 72 41-42-73 125-16-125-20 42-71-72 41-18-122z"/></svg>