<svg viewBox="0 0 2600 2760.837" xmlns="http://www.w3.org/2000/svg"><path d="M2165 662q74 0 126.5 52.5t52.5 126.5v1132q0 74-52.5 126.5t-126.5 52.5h-1732q-72 0-125-52.5t-53-126.5v-1132q0-74 53-126.5t125-52.5h1732z m-46 289q0-47-32-79t-79-32h-1417q-47 0-80 32.5t-33 78.5v515q0 46 33 78.5t80 32.5h1417q47 0 79-32t32-79v-515z m-1345.5 797.5q-33.5-34.5-81.5-34.5-47 0-81 34t-34 81 34 81 81 34q48 0 81.5-34.5t33.5-80.5-33.5-80.5z m1213.5-0.5q-34-34-81-34t-81 34-34 81 34 81 81 34 81-34 34-81-34-81z m-766.5 16q46.5 29 79.5 29 32 0 75-34t43-57-35.5-36.5-87.5-13.5q-64 0-92.5 16t-28.5 36q0 31 46.5 60z m156.5 167q-41-35-75-35-32 0-80 28t-48 60q0 26 32.5 39.5t88.5 13.5q42 0 82.5-12t40.5-34q0-25-41-60z m-198-33q38-39 38-58 0-28-49-54.5t-73-26.5q-21 0-31.5 13t-12.5 24l-2 8q0 11-1 22.5t-1 23.5q0 36 15 61.5t44 25.5q35 0 73-39z m369-94l-1-8q-2-12-13-24.5t-31-12.5q-29 0-75.5 27t-46.5 54q0 19 39.5 58t67.5 39q32 0 47.5-25t15.5-62q0-23-3-46z m-719.5-438q-7.5 19-21.5 19t-21.5-20-7.5-46q0-22 7.5-41.5t21.5-19.5 21.5 20.5 7.5 43.5q0 25-7.5 44z m1182 0q-7.5 19-21.5 19-15 0-21.5-21t-6.5-47q0-23 6.5-41t21.5-18q14 0 21.5 20.5t7.5 43.5q0 25-7.5 44z m-466 0q-7.5 19-21.5 19t-21-20-7-46q0-21 7-41t21-20q17 0 23 20.5t6 43.5q0 25-7.5 44z m170 1q-7.5 18-21.5 18t-21-22.5-7-47.5q0-21 6.5-39t23.5-18q14 0 20.5 21t6.5 44q0 26-7.5 44z m-887.5-204.5q-9 17.5-20 17.5-14 0-21.5-20t-7.5-46q0-24 6.5-42t22.5-18 22.5 20 6.5 43q0 28-9 45.5z m1182 0q-9 17.5-20 17.5-15 0-21.5-21.5t-6.5-47.5q0-23 7-40t21-17q16 0 22.5 20t6.5 43q0 28-9 45.5z m-507-2.5q-7-20-7-46 0-22 7-41t21-19q16 0 22.5 20t6.5 43q0 31-8.5 47t-20.5 16q-14 0-21-20z m-527.5-170q20.5-6 43.5-6t43 6.5 20 21.5q0 14-20.5 21t-49.5 7h-11q-8 0-27-7t-19-21q0-16 20.5-22z m739.5 173q-8 17-21 17-14 0-21-22.5t-7-47.5q0-23 8-39.5t22-16.5q15 0 21 21t6 44q0 27-8 44z m-678 237q16 0 30.5 7.5t14.5 20.5q0 15-20 21.5t-46 6.5q-23 0-42-7t-19-21q0-15 20-21.5t45-6.5h17z m887 0q16 0 30 7.5t14 20.5q0 15-19.5 21.5t-45.5 6.5q-24 0-43-7t-19-21q0-12 18-20t48-8h17z m-969.5-33q-6.5 18-20.5 18-16 0-22.5-21t-6.5-45 7-42.5 22-18.5 21 22.5 6 42.5q0 26-6.5 44z m-213.5 33q16 0 30.5 7.5t14.5 20.5q0 15-20 21.5t-46 6.5q-23 0-42-7t-19-21q0-15 21-21.5t44-6.5h17z m679.5-33q-6.5 18-20.5 18-16 0-22.5-21t-6.5-45q0-22 7.5-41.5t21.5-19.5 20.5 21 6.5 44q0 26-6.5 44z m207.5 33q16 0 30 7.5t14 20.5q0 14-19 21t-45 7q-24 0-43.5-7t-19.5-21q0-12 18-20t48-8h17z m233.5-409q20.5-7 43.5-7t43 6.5 20 21.5q0 16-22 22t-47 6h-12q-7 0-26.5-6.5t-19.5-21.5q0-14 20.5-21z m-1182 0q20.5-7 43.5-7t43 6.5 20 21.5q0 16-22 22t-48 6h-11q-8 0-27-7t-19-21 20.5-21z m571 374q-6.5 20-21.5 20-16 0-22-22.5t-6-47.5q0-22 6.5-39.5t21.5-17.5q16 0 22 22t6 42q0 23-6.5 43z m-591.5 1q-7 19-21 19t-21.5-20-7.5-46 8-43.5 21-17.5q15 0 21.5 20.5t6.5 43.5q0 25-7 44z m1291.5-167q17.5 7 17.5 20 0 16-19.5 22.5t-45.5 6.5q-24 0-43-7.5t-19-21.5q0-13 22-20t45-7q25 0 42.5 7z m-1182 0q17.5 7 17.5 20 0 16-20 22.5t-46 6.5q-22 0-41.5-7.5t-19.5-21.5q0-13 22-20t45-7q25 0 42.5 7z m500.5-208q19-7 46-7 23 0 42.5 6.5t19.5 21.5q0 16-22 22t-47 6h-12q-9 0-27.5-7.5t-18.5-20.5q0-14 19-21z m-357.5 168q-6.5-21-6.5-45 0-23 6.5-41.5t22.5-18.5q14 0 20.5 21t6.5 44q0 30-7.5 45.5t-19.5 15.5q-16 0-22.5-21z m654-168q20.5-7 43.5-7t43 6.5 20 21.5q0 16-21.5 22t-46.5 6q-24 0-41.5-7.5t-17.5-20.5q0-14 20.5-21z m-441 375q-6.5 19-20.5 19t-21.5-20-7.5-46q0-23 6-42t23-19q14 0 20.5 20.5t6.5 43.5q0 25-6.5 44z m-59.5-166q17 8 17 19 0 16-20 22.5t-46 6.5q-22 0-41.5-7.5t-19.5-21.5q0-13 20.5-20t46.5-7 43 8z m268 200q20 0 32 7.5t12 20.5q0 14-19.5 21t-45.5 7q-23 0-42.5-6.5t-19.5-21.5 20-21.5 46-6.5h17z m508-34q-7 19-21 19t-21-20-7-46q0-21 7-41t21-20 21 19 7 45q0 25-7 44z m-186.5-167q17.5 7 17.5 20 0 14-19 21.5t-45 7.5-44.5-7.5-18.5-21.5q0-12 21-19.5t46-7.5 42.5 7z m-447.5-41.5q-6-22.5-6-47.5 0-22 6.5-39t21.5-17q16 0 22 20t6 43q0 36-9.5 49.5t-18.5 13.5q-16 0-22-22.5z m212 6q-8 16.5-19 16.5-16 0-22.5-21t-6.5-45 5-42 24-18q13 0 20 20t7 45q0 28-8 44.5z m-802.5-3.5q-7.5-20-7.5-46 0-22 6-41t23-19q16 0 22 20.5t6 43.5q0 28-8 45t-20 17q-14 0-21.5-20z m507 2.5q-7.5 17.5-19.5 17.5-14 0-21.5-20t-7.5-46q0-25 6-42.5t23-17.5q15 0 21 20.5t6 43.5q0 27-7.5 44.5z m675.5-2.5q-7-20-7-46 0-22 7-41t21-19q16 0 22 20.5t6 43.5q0 33-8.5 47.5t-19.5 14.5q-14 0-21-20z m-437.5 40q15.5 8 15.5 19 0 14-19.5 21.5t-45.5 7.5q-23 0-42.5-6.5t-19.5-22.5q0-12 21-19.5t47-7.5q28 0 43.5 8z"/></svg>