<svg viewBox="0 0 2600 2760.837" xmlns="http://www.w3.org/2000/svg"><path d="M2219 1728.5q-74 50.5-139 50.5-8 0-14-1l-14-2q-47 163-160.5 293t-274 188.5-329.5 58.5q-151 0-307.5-53t-273.5-176-174-310q-4 0-8 1t-8 1q-62 0-136.5-49.5t-74.5-160.5q0-85 48.5-140.5t138.5-66.5q-9-48-14.5-94.5t-5.5-94.5q0-215 115-353t296-216.5 368-78.5q11 0 21 1t19 1q11 0 20.5-1t20.5-1q299 0 544 181.5t245 479.5q0 45-5.5 89t-14.5 87q102 12 146.5 70.5t44.5 138.5q0 107-74 157.5z m-229.5-213.5q-1.5-15-1.5-31-65-60-142.5-193t-122.5-244l-60-148-19 12h-1q-73 47-247 99.5t-332 87-279 114.5-184 206l-4 64q-2 32-2 64 0 148 57 281t160 225 233.5 130 242.5 38q316 0 509.5-191t193.5-483q0-16-1.5-31z m-1419.5-333q0 29 1 44l2 28q0 14 4 22 48-63 113.5-114t148-90.5 249-76.5 312-85.5 190-78 73.5-29.5q33 0 56.5 17.5t34.5 45.5l33 84q44 110 108.5 233.5t108.5 177.5q22-84 22-169-3-147-54.5-237t-146.5-165.5-224-121.5-277-46q-17 0-27 1h-9q-8 0-26-1-176 0-332.5 67.5t-258 180.5-101.5 313z m299.5 442.5q-28.5-30.5-28.5-75.5 0-44 28.5-75.5t67.5-31.5q40 0 68.5 31.5t28.5 75.5q0 45-29 75.5t-68 30.5-67.5-30.5z m842 0.5q-29.5 30-66.5 30-38 0-67.5-30t-29.5-76q0-45 29-76t68-31q37 0 66.5 31t29.5 76q0 46-29.5 76z m-272.5 330.5q-57 39.5-129 39.5-84 0-146-36t-62-72q0-9 6-17.5t17-8.5q9 0 19 5l16 10q30 17 64 27.5t69 12.5q63 0 114.5-27t63.5-27q10 0 17.5 7t7.5 18q0 29-57 68.5z m634-267.5q13 3 27 3 48 0 75-33.5t27-88.5q0-57-34.5-84.5t-83.5-27.5q0 22 1.5 43t1.5 44q0 36-4 72t-10 72z m-1561 3q-6-37-9.5-73t-3.5-74q0-21 1-43t3-44q-54 6-80 35.5t-26 76.5q0 55 26 89t78 34q7 0 11-1z m676.5 30.5q6.5-5.5 14.5-5.5 10 0 32.5 22t56.5 22q37 0 58.5-22t31.5-22q8 0 14.5 5.5t6.5 13.5q0 23-33.5 46.5t-77.5 23.5-77-24-33-46q0-8 6.5-13.5z m417.5 238q-7 17.5-21 17.5-7 0-12.5-4t-6.5-12l-15-64q-9-38-33.5-60t-24.5-34q0-17 20-17 29 0 64.5 38.5t35.5 95.5q0 22-7 39.5z m-518.5-169q5.5 4.5 5.5 12.5 0 11-9 20l-17 17q-33 37-39 87t-28 50q-12 0-19-15t-7-42q0-44 31-89t71-45q6 0 11.5 4.5z"/></svg>