<svg viewBox="0 0 2600 2760.837" xmlns="http://www.w3.org/2000/svg"><path d="M2149 1471q0 21-1 31v7q-24 246-182.5 380t-428.5 139l19 66 10 31q11 36 20 81.5t9 80.5q0 48-28 81t-116 70-189 53.5-206 16.5q-191 0-334-50t-208.5-127.5-65.5-140.5q0-30 9.5-58t20.5-50l208-421q-103-118-151.5-264t-48.5-302q0-191 67.5-385t214.5-282.5 342-88.5q183 0 355.5 81.5t320.5 233.5l46-31q-8-17-14-36t-6-40q0-68 49.5-118t120.5-50q72 0 121 49t49 119q0 72-49.5 122t-120.5 50q-14 0-27.5-2.5t-25.5-7.5l-44 59q132 181 198 358t66 345z m-173.5-350q-53.5-150-146.5-278l-530 721q130 90 250.5 141t214.5 51q127 0 196-89t69-239q0-157-53.5-307z m-267.5-413q-79-77-177-137.5t-182.5-86.5-112.5-26q-94 0-166.5 79.5t-114 219-41.5 248.5q0 90 9 119.5t50 94.5z m-73 1134.5q-51-7.5-193-62t-280-151.5-250-240.5-166-302.5-54-280q0-26 2.5-48.5t2.5-48.5q0-8-3.5-15.5t-11.5-7.5q-22 0-53 87t-39.5 139-8.5 138q0 176 66.5 341.5t216.5 287 293 182 364 60.5l36-1q44 0 84.5-10t43.5-28q0-2 1.5-5t1.5-5q-2-22-53-29.5z m-209.5 415.5q-23.5-13-50.5-13l-43 1q-166 0-322-83.5t-255-225.5l-9-15q-10-17-18.5-25t-17.5-8q-21 0-40.5 48t-22.5 54l-22 44q-25 48-34.5 79.5t-9.5 59.5q0 104 170.5 176.5t337.5 72.5q108 0 212-29l37-10q57-14 84-37.5t27-50.5q0-25-23.5-38z m-235.5-779q66-86 133-169l135-168q4-6 19-24l34-41 41-51q21-27 51-68.5t30-49.5q0-3-6-3-12 0-42 20.5t-84 65.5l-26 21q-112 81-231 169.5t-197 145.5q32 42 67.5 79.5t75.5 72.5z m730.5-868.5q25.5 25.5 61.5 25.5 38 0 63-25.5t25-63.5q0-36-25-61t-63-25q-36 0-61.5 25t-25.5 61q0 38 25.5 63.5z"/></svg>