<svg viewBox="0 0 2600 2760.837" xmlns="http://www.w3.org/2000/svg"><path d="M2115.5 1816q-135.5 235-370 380t-445.5 145q-205 0-438.5-147.5t-373-383-139.5-500.5q0-223 118.5-411t337-295.5 495.5-107.5q272 0 489 104t339.5 292.5 122.5 417.5q0 271-135.5 506z m-1010-56q39.5-32 39.5-113 0-99-52.5-195t-138.5-144-175-48q-87 0-140.5 48.5t-53.5 142.5q0 89 48.5 172.5t140 126 193.5 42.5q99 0 138.5-32z m386.5 238.5q-70-17.5-192-17.5t-191 17.5-69 41.5q0 30 87 52t173 22q95 0 178.5-22.5t83.5-51.5q0-24-70-41.5z m465.5-691q-53.5-47.5-141.5-47.5-90 0-176 49t-137.5 144-51.5 192q0 84 40.5 115.5t138.5 31.5q102 0 193.5-43t139.5-126.5 48-173.5q0-94-53.5-141.5z"/></svg>