<svg viewBox="0 0 2600 2760.837" xmlns="http://www.w3.org/2000/svg"><path d="M2515 982q4 16 4 37 0 51-32.5 91t-80.5 40q-20 0-45.5-11t-39.5-29q-46-3-78.5-35.5t-61.5-106-123-113.5q92 132 138.5 341.5t74.5 341 32 276.5q0 12 1.5 24t1.5 25q0 51-40.5 81.5t-83.5 30.5h-29q-60 0-87-20.5t-32-56.5l-10-59q-9-51-16-95.5t-97-80.5q-110 16-217 44l2 20v20q0 69-47.5 86.5t-94.5 17.5q-28 0-42.5-14t-14.5-56v-12l-12 7q-20 12-39 18.5t-38 17.5q-6 77-6 153 0 18 1 36t1 37q0 18 3.5 48t3.5 63q0 96-34.5 146t-118.5 50q-102 0-131-34t-29-97q0-7 1-13v-10q0-41-4-79t-11-80l-5-31q-5-29-14-59.5t-20-60.5q-65-7-126-23-17 62-17 124 0 15 1 31t1 40q0 92-71 111.5t-113 19.5q-54 0-83-22t-29-68q0-24 4-41t4-30q0-50-8.5-101t-16.5-104l-4-28q-2-16-6.5-31.5t-7.5-30.5q-9 0-19 1t-19 1q-83 0-148.5-33t-88.5-85q-75-42-116.5-102t-41.5-139q0-59 26.5-118t65.5-105.5 60-147.5l21-107q-59-15-93.5-58.5t-34.5-103.5 34.5-101 100.5-41l27 1 14 1q10 0 19 1h17q-9-20-17.5-44t-8.5-48q0-32 16-51t45-19 78 27 69 47q67-26 137-26h4q107 2 175 14t97 25l37 15q6-4 9-7l22-15q29-19 57.5-29.5t45.5-10.5q27 0 43.5 17.5t16.5 49.5q0 21-8 51 60-12 115.5-19.5t112.5-7.5q158 0 292 49t234 143q104 13 171 59.5t97 134.5 73 99q0-20 26.5-48.5t73.5-28.5l36 1q13 0 26-6.5t25-6.5q11 0 14 8z m-1458.5-333.5q22.5 18.5 48.5 20.5h3q27 0 47.5-52.5t20.5-73.5q0-15-4.5-20.5t-13.5-5.5q-14 0-36 9.5t-37 20.5l-20 14q-19 13-25 23.5t-6 22.5q0 23 22.5 41.5z m-621.5-89q13 32.5 23 48.5t32 16q29 0 48.5-19t19.5-38q0-26-48-56t-70-30q-18 0-18 24 0 22 13 54.5z m109 365.5q-14-16-33-16-24 0-41.5 23t-17.5 53q0 26 14.5 41t32.5 15q23 0 41-22.5t18-51.5q0-26-14-42z m-256 558q9-21 19-35.5t24-30.5q0-20 13-29.5t30-9.5q27 0 53.5 20.5t26.5 45.5q0 20-11.5 28t-13.5 26l-2 17q0 22 30.5 39t70.5 17q36 0 66.5-14t30.5-40l-1-17q0-36 25.5-60.5t63.5-24.5q23 0 40 11t19 37l-1 7q13 31 13 62 0 41-21 80 73-17 127-65t68-90l10-29q23-68 89.5-128.5t111-127.5 44.5-186q0-68-18-136 60 0 102-26.5t42-74.5q0-27-14-47t-37-20q-12 0-23 3l-24 6-28 6q-15 3-35 3h-25q-8 8-22 12.5t-24 4.5q-49 0-84.5-34t-35.5-76q0-5 1-7-45-22-107.5-32.5t-153.5-10.5q20 37 24.5 78.5t4.5 76.5q0 186-108.5 316t-227.5 141l-57 5q-29 3-58 4-5 7-45.5 69.5t-40.5 132.5q0 37 17.5 66t45.5 58q0-5 2-11z m99 156.5q60 41.5 146 41.5 81 0 141.5-40t60.5-107q0-16-5-33l-1-4q-2-9-7-18t-17-9-22 4.5-10 16.5q0 8 1 16.5t1 16.5q0 40-43.5 68t-100.5 28q-66 0-109.5-30.5t-43.5-73.5l2-22q2-14 10.5-26t8.5-20-4.5-10.5-8.5-2.5q-18 0-38.5 35t-20.5 68q0 60 60 101.5z m1718-480.5q-11 5-23.5 6.5t-24.5 1.5q-77 0-118.5-21t-92.5-89-115-68l-102 1-50-1q-51 0-110.5-37t-87.5-102q-18 23-42.5 39.5t-50.5 25.5q2 18 3 35.5t1 35.5q0 107-36 186.5t-122.5 162-94.5 126.5-58 104-124.5 97.5-194.5 40.5l-6 3q-3 2-7 3 5 17 8 34t7 35l5 27q11 57 17.5 115.5t7.5 117.5q11 2 24.5 3t27.5 1q20 0 49.5-4.5t29.5-12.5q0-19-1-32 0-92 24-170-13-14-24.5-33.5t-11.5-38.5q0-25 19-25 22 0 44 23t55.5 31 75 15.5 68 9 36 27.5 26 71.5 21.5 85.5l15 107q5 38 5 78 17 11 32.5 12.5t35.5 1.5q24 0 45-4.5t42-10.5l1-12v-13q0-44-5-92.5t-5-94.5q0-56 4.5-119.5t4.5-65.5v-15q0-43 13.5-97t13.5-66v-7q0-25-17-56.5t-17-51.5q0-32 29-53t65-21q57 0 89 59t62 59 74.5 19 80.5 72q69-17 128-26t63-9q24 0 90.5 42t77.5 96l9 50 10 60q22 3 47 3 11 0 32-1.5t42-8.5q0-58-5.5-116.5t-19.5-125.5q-92-10-128-46t-36-94q0-57 26-101.5t72-65.5q-6-30-13-58.5t-15-57.5z m-1216.5-197.5q16.5-18.5 40.5-18.5 32 0 56.5 29t24.5 64q0 32-17.5 50.5t-41.5 18.5q-31 0-55-29t-24-65q0-31 16.5-49.5z"/></svg>