<svg viewBox="0 0 2600 2760.837" xmlns="http://www.w3.org/2000/svg"><path d="M2174 1419q58 23 88.5 75t30.5 116q0 60-27 108.5t-85 74.5-97 26q-10 0-17-1l-15-2q-52 179-174.5 307.5t-279 181-310.5 52.5q-155 0-312-56t-274-183.5-169-300.5q-4 0-8.5 1t-9.5 1q-63 0-136-50t-73-159q0-62 28.5-112t83.5-75q-60-17-83.5-38t-23.5-58q0-45 34.5-77t42-53.5 68.5-225 144.5-298.5 172.5-147 183-83q6-59 52-102t107-43h350q61 0 107 43t52 102q164 52 283 156t177.5 261 95.5 297l6 24q8 33 44.5 67t36.5 79q0 33-17 51.5t-76 40.5z m-1662 312q-6-36-9.5-72.5t-3.5-74.5q0-21 1-41t3-46q-54 6-80 35t-26 78q0 54 26 88t78 34q7 0 11-1z m1476-97q-33-59-65.5-97t-55.5-58q-107 14-249.5 22t-328.5 8q-184 0-326-8t-251-22q-24 23-55 58.5t-61 87.5q13 219 136.5 381t318.5 218l39 10q43 12 95.5 19.5t102.5 7.5q156 0 316.5-62.5t266-216 117.5-348.5z m170-317q-4-6-29.5-29t-44.5-96-65.5-217.5-101.5-217-128.5-123.5-163.5-84v627q0 20-14.5 34t-34.5 14-34-14-14-34v-719q0-28-19.5-45.5t-43.5-17.5h-350q-26 0-44.5 18.5t-18.5 44.5v719q0 20-14 34t-34 14-34.5-14-14.5-34v-627q-92 34-166 86t-129 126-101.5 215-62.5 212-42 95.5-32 32.5q89 36 313 63.5t554 27.5q334 0 562-29t307-62z m-85 411q7 2 14 2t15 1q48 0 74-33.5t26-87.5q0-52-29-81t-91-32q2 21 3.5 43.5t1.5 43.5q0 36-4 72t-10 72z m-1067-1.5q-28 30.5-69 30.5t-68.5-31-27.5-74q0-44 28.5-75.5t67.5-31.5q40 0 68.5 31.5t28.5 75.5-28 74.5z m706.5 0q-28.5 30.5-67.5 30.5-40 0-68.5-30.5t-28.5-74.5q0-45 29-76t68-31q37 0 66.5 31t29.5 76q0 44-28.5 74.5z m-255 311.5q-60.5 46-146.5 46-96 0-163-40t-67-82q0-10 7-20.5t19-10.5q11 0 71 31.5t129 31.5q38 0 71-12.5t67-31.5l22-12q13-7 25-7 10 0 18 8.5t8 20.5q0 32-60.5 78z m-269-241.5q6.5-5.5 14.5-5.5 10 0 32.5 22t56.5 22q37 0 58.5-22t31.5-22q8 0 14.5 5.5t6.5 13.5q0 23-33 47.5t-78 24.5q-46 0-78-25t-32-47q0-8 6.5-13.5z"/></svg>