<svg viewBox="0 0 2600 2760.837" xmlns="http://www.w3.org/2000/svg"><path d="M2175 2271v34q0 78-27 100t-90 22h-1516q-62 0-89.5-22t-27.5-100l2-72q2-83 32.5-278.5t70.5-400.5l18-94q54 20 108 43l107 46q86 37 169 66.5t173 51.5q0 8-1 25 0 78 46 116t162 38q88 0 120-10.5t48.5-39 16.5-94.5v-21l-2-22q52-13 108.5-35.5t107.5-38.5l88-28q107-33 146-49.5t62-23.5l48-16 19 96q39 207 70 404.5t31 302.5z m-1597-893q27-34 71.5-51.5t88.5-17.5h58l3-81q14-446 142-686.5t359-240.5q142 0 245 87.5t171.5 290.5 89.5 630h56q49 0 94 19t71 55q-135 48-280.5 89.5t-290.5 86.5q-22-16-51-18l-53-4q-33-3-67-3h-39q-37 0-73 10t-46 28q-57-14-191.5-59t-199.5-73-158-62z m374-69h697q-9-426-98.5-637.5t-251.5-211.5q-105 0-173.5 81t-116.5 254-57 514z m456.5 444q-14.5 14-74.5 14-85 0-114.5-12.5t-29.5-64.5q0-53 23-65.5t97-12.5 93.5 14 19.5 54q0 59-14.5 73z"/></svg>