<svg viewBox="0 0 2600 2760.837" xmlns="http://www.w3.org/2000/svg"><path d="M2363 1903q-29 131-75.5 204t-179.5 112q-3 28-7 48.5t-4 22.5q-5 22-31.5 40.5t-85.5 18.5q-50 0-79.5-18.5t-30.5-41.5q0-5-2-11t-4-17q-103 10-215.5 12t-225.5 2h-249q-115 0-231.5-2t-222.5-13l-4 17q-2 7-2 12-2 23-31 41.5t-79 18.5q-53 0-82-16t-34-43q0-3-4-19.5t-9-55.5q-105-35-157-97.5t-82-213.5q136 0 272 4t273 4q141 0 220.5-2.5t148-4 68.5-53.5q0-35-29.5-48.5t-406.5-13.5q-139 0-267.5 2.5t-254.5 4.5h-20q-5 0-10 1h-11q-2-16-3-34l-2-34q11-12 27-18t98.5-14.5 170.5-8.5q48 0 97 2t97 2l100-1q65 0 126.5 1t122.5 1h63q52 0 79-14t27-40q0-23-21.5-36.5t-52.5-13.5q-63 0-122.5-1.5t-118.5-1.5q-71 0-142.5 1t-146.5 1q-241 0-317.5 10t-92.5 23v-61q0-31 108.5-60.5t338.5-29.5l194 1q74 0 143-1t139-1h48q25 0 38.5-15.5t13.5-34.5q0-21-17.5-40t-55.5-19q-22 0-42.5 1t-38.5 1q-39 0-108-1.5t-132-1.5h-72q-38 0-80 1l-147-1q-131 0-215.5 26t-114.5 64l3-76q63-57 152-86t249-29q98 0 194.5 2.5t194.5 2.5l10 2q34 3 67 3t67 1q36 0 54.5-12.5t18.5-39.5q0-42-71.5-50.5t-201.5-8.5q-50 0-98-1.5t-98-1.5q-62 0-130-1h-18q-109 0-206 19.5t-169 67.5q21-142 84-237t236-141q-3-5-4.5-13t-1.5-16q0-20 11-35t31-21l1600-459q4 0 11-1 14 0 25 9.5t11 24.5q0 13-7.5 23t-18.5 13l-1348 427q90-6 201.5-10.5t242.5-4.5q374 0 577.5 28.5t308.5 83.5 156 196.5 51 428.5q0 234-29 365z m-197-659q0-36-26.5-62t-62.5-26h-574q-37 0-63 26.5t-26 61.5v157q0 37 25.5 63t63.5 26h381l5-60q6-73 16.5-115.5t23.5-42.5q23 0 39 107t17 111h92q37 0 63-26t26-63v-157z m-56 473q-42-42-99-42t-99 42-42 99q0 59 41 100t100 41 100-41 41-100q0-57-42-99z m-456 0q-42-42-99-42t-99 42-42 99q0 59 41 100t100 41 100-41 41-100q0-57-42-99z"/></svg>