<svg viewBox="0 0 2600 2760.837" xmlns="http://www.w3.org/2000/svg"><path d="M992 1660h-689q-42 0-70.5-28.5t-28.5-70.5v-1054q0-40 29.5-69t69.5-29h1585q39 0 68.5 29.5t29.5 68.5v1054q0 40-29 69.5t-69 29.5h-691v116h259q30 0 51.5 19.5t21.5 46.5v66h-869v-66q0-27 21.5-46.5t51.5-19.5h259v-116z m789-255q32 0 53.5-22.5t21.5-53.5v-702q0-32-21.5-54t-53.5-22h-1373q-31 0-53 22t-22 54v702q0 31 22 53.5t53 22.5h1373z m-15 589q14 0 25 9.5t15 23.5l76 372v7q0 13-7.5 19.5t-19.5 6.5h-1506q-11 0-19-6.5t-8-19.5q0-4 1-7l76-372q3-14 14.5-23.5t26.5-9.5h1326z m595 387.5q-35 30.5-97 30.5-90 0-177.5-70t-87.5-139q0-7 1-12-49-16-71.5-45t-22.5-66q0-17 3.5-33t8.5-31l8-27q4-13 4-24 0-36-42.5-53t-120.5-17q-12 0-21-8.5t-9-22.5q0-20 14.5-25t32.5-5q102 0 155.5 35t53.5 96q0 17-4 33t-9 31l-9 29q-4 14-4 24 0 23 20 36t46 18q17-15 40-22.5t49-7.5q111 0 192.5 58.5t81.5 140.5q0 46-35 76.5z m-629-62.5q13 0 22.5-9.5t9.5-23.5q0-15-9.5-25t-22.5-10h-1249q-14 0-24 10t-10 25q0 14 10 23.5t24 9.5h1249z m-1217-229q-14 0-23.5 10t-9.5 24 9.5 23.5 23.5 9.5h1184q14 0 24-9.5t10-23.5-10-24-24-10h-1184z"/></svg>