<svg viewBox="0 0 2600 2760.837" xmlns="http://www.w3.org/2000/svg"><path d="M2306 1235q10 9 25.5 29.5t15.5 47.5q0 20-10 38t-27 28l-33 19-63 31q0 34-3 65t-11 61q67 112 87.5 179t20.5 123q0 92-71.5 183t-225.5 91q-83 0-160-9t-155-24q11 32 16.5 66t5.5 68q0 102-80 202.5t-248 100.5q-207 0-457-62t-342-106.5-92-109.5q0-47 33-81t79-55l63-30q-195-120-308-324t-113-441q0-260 148.5-479t549.5-354l170-57q37-13 74.5-24.5t75.5-22.5q0-41 24-67t52-34l23-6 90-19q19-7 47-7 31 0 54.5 14.5t45.5 52.5l292 532z m-1428-593q-249 57-398 245.5t-149 443.5q0 212 101.5 397t277.5 294.5 376 109.5q78 0 157.5-21.5t141.5-65.5q-50-88-143-197.5t-132-161.5q-77 40-154 62.5t-164 22.5q-123 0-210.5-100.5t-87.5-236.5q0-100 48.5-172.5t167.5-139.5 232-67q80 0 146 39l-194-413-13-31q-2-4-3-8z m386-162l-189 56-45 14-27 6q-25 6-43.5 17.5t-18.5 29.5q0 13 7 26l12 25q24 48 117.5 248.5t95.5 206.5l4 8 250-88q-11-11-50.5-23.5t-39.5-65.5q0-20 12.5-34.5t40.5-14.5q45 0 88.5 28t66.5 69l121-42q-14-19-55.5-30t-41.5-66q0-22 12-35.5t41-13.5q43 0 90 29t69 76l55-19-3-6q0-3-56.5-108.5t-83.5-153.5l-120-210q-2-3-22-43.5t-44-40.5q-11 0-20.5 3t-17.5 5l-36 6-42 9q-21 5-35.5 18t-14.5 35.5-8 41.5-29 26z m944 874l18-8q20-8 34.5-16.5t17.5-16.5q0-11-22.5-31t-97.5-91l-272-255q-5 6-11.5 10.5t-14.5 7.5l-56 19q3 17 3 34 0 42-19.5 83.5t-49.5 41.5q-71 0-71-56 0-14 6.5-28.5t10.5-31.5l-113 38 4 21q2 11 2 22 0 42-20.5 84t-49.5 42q-34 0-52-14.5t-18-40.5q0-17 8-34.5t8-38.5l-213 76q69 61 193 162.5t154 126 61 24.5q30 0 45-9t135.5-56.5 140.5-57.5 53-10q22 0 59.5 16t61.5 16q10 0 16.5-4.5t14.5-7.5z m-611 543q10 13 19 27l16 29 115-65q109-61 185-125.5t122-145.5 46-172q-12 0-23.5-4t-21.5-9l-20-8q-10-4-17-4h-9q-4 0-6 1l-122 50q-165 66-175 71t-42 9q0 11 1 21.5t1 21.5q0 102-24.5 188t-44.5 115z m-718-299.5q43-47.5 43-111.5 0-77-54-131t-121-54q-56 0-96.5 42.5t-40.5 106.5q0 77 50 136t117 59q59 0 102-47.5z m361-337.5q28 60 28 135 0 21-1.5 42t-6.5 43q14 13 28 27l26 29q74 83 147 175.5t86 108.5q21-59 29-130.5t8-140.5v-11q-19-9-38.5-22.5t-22.5-17.5z m-174 1010q52 12 108 19.5t105 7.5q83 0 124-24.5t41-71.5q0-25-12-61-83 29-169.5 49t-185.5 20q-17 0-25-1l-82 41z m814-356q7 0 14 1t14 1q76 0 113.5-22t37.5-65q0-18-8-45-39 38-83 70t-88 60z"/></svg>