<svg viewBox="0 0 2600 2760.837" xmlns="http://www.w3.org/2000/svg"><path d="M2175 1779q0 14 1 28 0 41-17 66t-49 25q-2 0-3.5 4t-1.5 10l-1 20q0 15 2 31l4 31q3 20 3 38l-1 7q0 20 12 39l21 42q10 22 10 45 0 47-38.5 66t-95.5 19l-26-1q-20 0-36 1l-45 1q-36 0-90 1l-123 2q-70 0-148 1l-332 2q-511 0-567-9t-109-43.5-87.5-102-34.5-217.5q0-112 4.5-224t4.5-224q0-246 17-442t39-267 81-122.5 239.5-60.5 409.5-11h164q129 0 247.5 6.5t266.5 18 165.5 144 43 373.5 36.5 355 17 181l14 143z m-148 326l-6-20q-3-11-5.5-28.5t-2.5-49.5q0-15 2.5-33.5t2.5-36.5q0-16-11-24.5t-405-10.5l-412-2h-394q-98 0-136.5 35.5t-38.5 101.5q0 45 17.5 72.5t43 41.5 392.5 14q94 0 197-1l204-2q100 0 192-3l162-4q91 0 145.5-3t54.5-24q0-14-2-23z m-1020-1128q0 14 9.5 24t23.5 10h611q12 0 20.5-8t8.5-21v-5l-15-148q-2-14-13-23.5t-24-9.5h-588q-14 0-23.5 9.5t-9.5 23.5v148z m-340 726l-1-59q0-197 5-364.5t11-387.5l4-101q2-50 2-104 0-16-3.5-28t-17.5-12q-19 0-42.5 23t-23.5 73l1 18q0 26-19 366.5t-19 639.5l1 29q0 22 5.5 38.5t13.5 16.5q12 0 13.5-21.5t35.5-40.5 34-86z"/></svg>