<svg viewBox="0 0 2600 2760.837" xmlns="http://www.w3.org/2000/svg"><path d="M1971 2152.5q-172 173.5-472 197.5v118q0 16-11 26.5t-28 10.5h-302q-16 0-26.5-10.5t-10.5-26.5v-142q-96-17-193.5-47.5t-184.5-68-180-95.5-99.5-68-6.5-21 6-17l201-263q9-11 24-11 10 0 40 19.5t153.5 71.5 239.5 79v-378l-158-59q-207-76-297.5-136.5t-140.5-139.5-50-190q0-184 160.5-347t485.5-177v-136q0-15 10.5-26.5t26.5-11.5h302q17 0 28 11.5t11 26.5v182q176 45 329.5 108.5t163 75 9.5 22.5q0 10-4 18l-167 252q-8 13-26 13-3 0-5-1l-6-1q-61-26-135-53.5t-159-53.5v309q233 92 370 173t205.5 187 68.5 221q0 185-172 358.5z m-472-223.5q62-15 98.5-49t36.5-83q0-40-36-70.5t-99-58.5v261z m-378-1079q-73 15-103 44.5t-30 72.5q0 45 34.5 68.5t98.5 43.5v-229z"/></svg>