<svg viewBox="0 0 2600 2760.837" xmlns="http://www.w3.org/2000/svg"><path d="M2273 2080q-9 28-9 66 0 76-34.5 103.5t-66.5 29.5-47 9l-24 12q-11 6-25 11t-32 5q-28 0-52.5-13.5t-39.5-13.5q-11 0-22.5 1.5t-22.5 1.5q-18 0-31-8.5t-24-19.5l-20-19q-10-8-20-8-39 0-53.5-3.5t-38-20-23.5-24.5q-27 6-55 6-20 0-39-2.5t-38-8.5l-112-35q-201-60-396-89t-342-117.5-248.5-265-101.5-385.5q0-211 104.5-392t287.5-286.5 392-105.5q117 0 224.5 32.5t194.5 89.5 151 126 112 172 82.5 235 62 173.5 84.5 151 57 213.5l-1 21q27 15 40 41t15 58v8q0 4-1 9 0 20 29.5 34t29.5 47 31 52 31 61q0 20-9 48z m-485-75.5q81-72.5 142-152.5t61-151q0-97-83-230.5t-104-225-68-218-132-213-207.5-137.5-256.5-51q-181 0-333.5 89t-242.5 243.5-90 333.5q0 118 39.5 228t117 203 185 146 299 84 339 77.5 179.5 46.5q74 0 155-72.5z m-658 327.5q7 24 14.5 55.5t7.5 52.5q0 15-17.5 22t-41.5 7l-27 1q-38 0-56-7t-18-30q0-12 7-47t20-68l33-89q4-12 9-19t21-7q13 0 24 28.5t17 63.5z m1194-1258q3 14 4 26.5t1 26.5q0 25-4.5 41.5t-21.5 16.5q-5 0-10-1t-9-1l-108-8q-88-6-100.5-13t-12.5-21q0-4 2-7 2-13 71.5-50.5t119.5-52.5l16-4q7 0 15-1 12 0 19.5 7.5t13.5 24.5z m-573.5-453q-7.5-8-7.5-17 0-46 11.5-102t19-99 34.5-43q18 0 70 27t52 51q0 12-74 101.5t-89 89.5q-9 0-16.5-8z m-983.5 1530q-5 54-25 124t-23 90.5-23 20.5q-23 0-75-23t-52-49q0-21 36-58t47-49l22-24q17-20 37.5-38t29.5-18q8 0 17 6.5t9 17.5z m-244.5-188.5q7.5 7.5 7.5 16.5 0 16-39.5 58t-41.5 44l-23 25q-21 24-39.5 41t-26.5 17q-18 0-54-45.5t-36-69.5 52.5-41.5 113.5-35 71-17.5q8 0 15.5 7.5z m1448.5-1121.5q-12 0-19.5-8.5t-7.5-17.5q0-7 14-27t34-45l21-25q4-5 39.5-50t58.5-45q16 0 50 44.5t34 76.5q0 14-10 17.5t-90 35.5-124 44z"/></svg>