<svg viewBox="0 0 2600 2760.837" xmlns="http://www.w3.org/2000/svg"><path d="M2284 1181l-6 134-39 799-13 237q0 37-30.5 65t-66.5 28q-16 0-28.5-4.5t-25.5-10.5l-1116-715q-5-2-12.5-8.5t-10.5-10.5l-163-178q-24-27-69-81.5t-108-134.5l-70-88-84-109q-82-105-101.5-136.5t-21.5-48.5l-3-14q-2-9-2-21 0-41 32-75.5t79-34.5q38 0 72 17t117 73l282 191q12 9 25 17.5t24 16.5l8-127q5-75 6.5-150.5t8.5-155.5q0-90 44-155t125-65q58 0 123.5 41.5t88.5 55.5l145 92q23 16 90.5 57.5t70.5 43.5l5 4q31-34 68-52t76-18q42 0 80 20l90 45q139 70 192.5 108.5t86.5 100.5 33 184q0 10-2 63z m-1273 451l1118 714-192-261q-49-66-94-130l-84-118q-24-35-75-109.5t-166-148.5l-40-25q-47-31-80-52l-143-90-109-70q-32-21-95-63.5t-113-75.5l-203-137q-50-33-94-64l-80-54-86-56q-20-11-32-15t-18-4q-13 0-13 12 0 5 1 9l2 8q2 6 71.5 99t218.5 279.5 214 251.5l47 49q11 11 21 23.5t21 23.5z m774 66l158 225 134 187q32 45 59 81l7-137q3-77 8-162l37-731 1-52q0-115-47.5-166.5t-239.5-145.5l-62-30q-10-4-18.5-6t-17.5-2q-30 0-53.5 21.5t-39 46-34.5 24.5q-10 0-20-4.5t-19-11.5l-35-25q-19-11-62-39l-97-61-110-71q-62-39-113-72.5t-84-33.5q-56 0-66.5 84.5t-17.5 265.5-13 269q45 31 88.5 60.5t82.5 54.5l60 39q27 18 54 34l117 74q175 111 239.5 168.5t103.5 115.5z"/></svg>