<svg viewBox="0 0 2600 2760.837" xmlns="http://www.w3.org/2000/svg"><path d="M2167 1039.5q-56 54.5-196 75.5l-60 10q3 17 4 34t1 34v17q0 9-1 17l-4 44q-4 41-7 81t-3 80q0 119 39.5 223.5t39.5 202.5q0 196-176 325t-441 129q-335 0-545.5-133.5t-210.5-354.5q0-85 30-165.5t50-161 20-165.5q0-11-1-23t-1-23l1-77q0-39 5-79-30-7-119-20.5t-152-65-63-147.5q0-81 53-129.5t149-48.5q83 0 158.5 50t113.5 62q-4-36-5.5-63.5t-1.5-64.5q0-84 31-126.5t92-42.5q49 0 84.5 34.5t99.5 170.5q33-5 66.5-7t68.5-2q76 0 147 12l18-38q48-109 87.5-142.5t82.5-33.5q59 0 90.5 41.5t31.5 125.5q0 28-2.5 58.5t-3.5 80.5q40-10 121-62.5t163-52.5q91 0 146.5 48t55.5 130q0 88-56 142.5z m-69-201.5q-27-21-77-21-34 0-57 8t-43 21l-61 38q-31 20-66 35t-79 15q-43 0-70-19.5t-130.5-53-244.5-33.5q82 97 82 245 0 133-58 239t-138.5 136.5-182.5 43-213 117.5q-24 48-40 109.5t-16 105.5q0 151 135.5 252t355.5 126q-108-24-189-99.5t-81-174.5q0-38 15-82-17-2-34-14t-17-30q0-26 32-41.5t76-15.5q20 0 40 3t38 9q34 0 67 31.5t33 74.5q0 14-2.5 23t-9.5 22l-4 5q0 2-1 7 0 36 42.5 59t103.5 23q45 0 83-15t51-40l3-4q-20-9-28.5-28t-8.5-44q0-57 50-91.5t119-34.5q45 0 78 15t33 41q0 14-9 23t-20 14q14 26 22 54t8 51q0 114-98.5 189t-245.5 81h29q224 0 367.5-102.5t143.5-252.5q0-81-38.5-187t-38.5-240q0-42 3.5-84t6.5-85l2-42q0-8 1-14.5t1-14.5q0-33-7-65.5t-7-35.5q0-61 160.5-73.5t160.5-119.5q0-38-27-59z m-1005.5 1241.5q93.5 62.5 221.5 62.5 127 0 211.5-55.5t84.5-141.5q0-49-29-83.5t-52-34.5q-11 0-22 9t-11 20q0 14 9.5 33t9.5 50q0 54-61.5 95.5t-149.5 41.5q-92 0-155.5-42t-63.5-114q0-25 11-44l7-12q0-5-8.5-19t-21.5-14q-36 0-55 29t-19 71q0 86 93.5 148.5z m-144.5-1278.5q22-14 48.5-23t55.5-18l-30-61q-14-27-26.5-47.5t-28.5-20.5q-17 0-21.5 18.5t-4.5 52.5q0 24 2 48t5 51z m14 472v14q0 38 20 63.5t48 25.5q31 0 55.5-30.5t24.5-70.5q0-36-18.5-62.5t-50.5-26.5q-33 0-56 31t-23 56z m570-512q28 8 54.5 17.5t53.5 20.5v-8q0-15 2.5-36t2.5-61q0-31-5-50t-19-19q-11 0-26.5 17t-32.5 55z m113 451.5q25 29.5 25 74.5 0 34-19 59.5t-50 25.5q-29 0-55.5-30t-26.5-74q0-37 19.5-61t49.5-24q32 0 57 29.5z"/></svg>