<svg viewBox="0 0 2600 2760.837" xmlns="http://www.w3.org/2000/svg"><path d="M1175 581.5q52-52.5 124-52.5t124.5 52.5 52.5 124.5-52.5 124-124.5 52q-71 0-123.5-52.5t-52.5-123.5q0-72 52-124.5z m55.5 193.5q27.5 28 68.5 28 42 0 69.5-28t27.5-69q0-39-27.5-68t-69.5-29q-41 0-68.5 28.5t-27.5 68.5q0 41 27.5 69z m-983 134.5q-41.5-41.5-41.5-100.5 0-61 42.5-102.5t99.5-41.5q59 0 101.5 42.5t42.5 101.5q0 57-41.5 99.5t-102.5 42.5q-59 0-100.5-41.5z m153-49q21.5-21.5 21.5-51.5 0-31-21.5-52.5t-52.5-21.5q-30 0-51.5 21.5t-21.5 52.5q0 30 21.5 51.5t51.5 21.5q31 0 52.5-21.5z m326-136.5q35.5-36 84.5-36 50 0 85.5 35.5t35.5 85.5-35.5 85.5-85.5 35.5q-49 0-84.5-36t-35.5-85 35.5-85z m976 0q35.5-36 84.5-36 50 0 85 36t35 85-34.5 85-84.5 36q-51 0-86-36t-35-84q0-50 35.5-86z m649 185q-41.5 42-101.5 42-59 0-101-42.5t-42-99.5q0-59 43-101.5t100-42.5q58 0 100.5 42t42.5 102q0 58-41.5 100z m-49-152.5q-21.5-21.5-52.5-21.5-30 0-51.5 21.5t-21.5 52.5q0 30 21.5 51.5t51.5 21.5q31 0 52.5-21.5t21.5-51.5q0-31-21.5-52.5z m-62.5 325.5q16 7 26 22t10 32l-22 794q-5 154-279.5 249t-672.5 95q-396 0-672-95.5t-281-250.5l-22-794q0-22 18-40t41-18q11 0 22 4.5t19 12.5l264 246 93-290q5-16 19-28.5t31-12.5q18 0 34 7t24 23l160 294 202-298q17-26 49-26 14 0 27.5 6.5t21.5 19.5l196 294 159-290q8-14 21.5-22t29.5-8q20 0 35.5 10.5t21.5 30.5l93 294 268-250q17-17 39-17 7 0 13 2z m-101 745q-32-20-52.5-57.5t-20.5-85.5q0-49 22.5-88.5t58.5-56.5l7-264-430 404q-17 15-42 15-30 0-48-26l-331-496-334 496q-20 27-51 27-20 0-38-16l-431-404 7 267q34 17 55.5 55.5t21.5 86.5q0 47-19.5 83.5t-49.5 56.5l3 102q0 50 112 105t300.5 90 422.5 35q357 0 596-76t239-152z m-735.5 128.5q-41.5 49.5-101.5 49.5t-102-49-42-120q0-64 42-116.5t102-52.5q52 0 97.5 47t45.5 122q0 70-41.5 119.5z m-659-19.5q-20.5 24-49.5 24t-49.5-24-20.5-58q0-33 20.5-57t49.5-24q28 0 49 23.5t21 57.5-20.5 58z m275 48q-20.5 24-49.5 24t-49.5-24-20.5-58q0-35 20.5-59t49.5-24 49.5 24 20.5 59q0 34-20.5 58z m934-48q-20.5 24-49.5 24t-50-24-21-58q0-33 21-57t50-24 49.5 25 20.5 56q0 34-20.5 58z m-275.5 48q-21 24-50 24t-49-24-20-58q0-35 20-59t49-24 50 24 21 59q0 34-21 58z"/></svg>