<svg viewBox="0 0 2600 2760.837" xmlns="http://www.w3.org/2000/svg"><path d="M2161.5 1825.5q-59.5 121.5-157.5 188.5t-299 110-404 43q-385 0-653.5-146.5t-268.5-458.5q0-155 61.5-296t170-246.5 251.5-166.5 274-163l8-6q42-35 76-47t77-12q85 0 181 69t108 76.5 110.5 53.5 186 100 150.5 119.5 103.5 142 62.5 169 22 188.5q0 161-59.5 282.5z m-134-482q-30.5-98.5-111-186.5t-239-160-254-141.5-124.5-69.5q-22 0-30 7t-24 18l-8 7q-150 118-318.5 189.5t-273 220.5-104.5 328q0 132 64 222t254 158 442 68q154 0 295.5-24t249-65 160-141.5 52.5-233.5q0-98-30.5-196.5z m-921.5 334.5q-49 62-147 62t-146.5-62.5-48.5-197.5 48-198.5 147-63.5 147.5 63.5 48.5 198.5q0 136-49 198z m667 0q-49 62-146 62-98 0-146.5-62.5t-48.5-197.5 48-198.5 147-63.5q98 0 146.5 63t48.5 199-49 198z"/></svg>