<svg viewBox="0 0 2600 2760.837" xmlns="http://www.w3.org/2000/svg"><path d="M2208 1538.5q-17 87.5-49 171.5t-76.5 155-103 134-99.5 90-54.5 45.5-68 61.5-159 94-185.5 77q-54 18-109.5 28.5t-110.5 10.5q-318 0-544.5-263.5t-226.5-571.5q0-117 42.5-215t120.5-155q-2-12-5-26.5t-6-27.5l-11-36q-23-61-106-176.5t-83-214.5q0-90 59-156t147-66q74 0 127.5 42.5t74.5 118.5q32-64 89.5-101.5t134.5-37.5q61 0 98 25.5t59 68.5q83-52 168.5-76t171.5-24q176 0 346 94t273 293 103 444q0 106-17 193.5z m-1315.5-667q25.5 33.5 59.5 33.5 45 0 77.5-40.5t32.5-96.5q0-71-46.5-105t-97.5 10-51 115q0 50 25.5 83.5z m-168.5 249.5q1 14 1 28 18-2 36.5-3t38.5-1h25l6-38q2-19 2-39 0-47-27.5-102.5t-35.5-80.5l-15 39q-16 40-24 76.5t-8 92.5q0 14 1 28z m-78-270.5q24-31.5 24-76.5 0-56-29.5-94t-66.5-38q-36 0-59.5 31.5t-23.5 78.5q0 48 27.5 89t70.5 41q33 0 57-31.5z m285.5 578.5q-11.5-14-35.5-14-25 0-64 16.5t-65 16.5q-39 0-74-16.5t-53-16.5q-21 0-30.5 14t-9.5 28q0 58 51.5 94.5t113.5 36.5q70 0 124-43t54-81q0-21-11.5-35z m926.5 556q-99 0-193.5-81t-148.5-225.5-54-318.5q0-149 46-260t113-166 129-55q131 0 202.5 129t71.5 304q0 127-50 230t-120 103q-74 0-118-73t-44-169q0-33 5.5-64.5t16.5-57.5l7-16q8-16 21-31t25-15q17 0 17 19 0 7-1 12l-3 10q-8 28-11.5 59t-3.5 60q0 76 19 124t59 48q45 0 69.5-68t24.5-191q0-130-50.5-228t-136.5-98q-67 0-133.5 113.5t-66.5 279.5q0 222 94 381.5t215 159.5q67 0 129-63.5t107-202 45-289.5q0-221-91.5-399.5t-240.5-263-304-84.5q-83 0-166 26.5t-147 74.5q2 14 3 28.5t1 28.5q0 59-19 108.5t-98 114.5-88.5 100.5-35.5 88.5q96 28 165.5 112t76 284.5 45 298 129 152.5 211.5 55q81 0 146-19.5t131-65.5z"/></svg>