<svg viewBox="0 0 2600 2760.837" xmlns="http://www.w3.org/2000/svg"><path d="M1051.5 750.5q86.5 30.5 150.5 83t101 52.5q34 0 105-55.5t156-83 180-27.5q171 0 290.5 131.5t119.5 314.5q0 122-42 218t-117 178.5-249 203.5l-155 107q-78 54-142 115l-61 59-45 47q-41 44-82-0.5t-43-46.5l-62-59q-64-61-141-115l-155-109q-177-122-251.5-204t-116-177.5-41.5-216.5q0-184 118-315t295-131q101 0 187.5 30.5z m-228.5 1105.5l-53 93h-107l-53-93 53-92h107z m-278-1131l-52-92 52-93h107l53 93-53 92h-107z m1392 1039l53 92-53 93h-107l-52-93 52-92h107z m11-1039l-53-92 53-93h107l52 93-52 92h-107z m171 886l54 92-54 93h-107l-52-93 52-92h107z m-1479 92l-52 93h-107l-54-93 54-92h107z m1603-778h106l54 91-54 92h-106l-54-92z m-681 1135l53 92-53 92h-107l-54-92 54-92h107z m845-797l-53 92h-106l-53-92 48-92h111z m-692-608l-53-92 53-92h107l53 92-53 92h-107z m-696 53l-53-92 53-91h107l52 91-52 92h-107z m-240-53l-53-92 53-92h107l52 92-52 92h-107z m574 1520l54 92-54 92h-105l-53-92 53-92h105z m922-770l54 92-54 92h-105l-53-92 53-92h105z m-1918-523l-53-92 53-92h106l53 92-53 92h-106z m1118-174l-53-92 53-91h106l53 91-53 92h-106z m-459 1282l-53 92h-106l-53-92 53-91h106z m-585-401h-105l-54-92 54-92h105l54 92z m-180-481l-52-92 52-91h106l52 91-52 92h-106z m101 247h-106l-53-92 53-92h106l53 92z m896-566l-53-92 53-92h105l54 92-54 92h-105z m-51 1363l-52 92h-107l-52-92 52-92h107z m887-1362l53-92h106l53 92-53 92h-106z m-341 1109l53 91-53 92h-106l-53-92 53-91h106z"/></svg>