<svg viewBox="0 0 2600 2760.837" xmlns="http://www.w3.org/2000/svg"><path d="M2304 1884h-677q-57-72-131-131.5t-154-91.5q15-24 29-52 56-38 89.5-112.5t33.5-150.5q0-71-35-118 0-67-22-152.5t-68-150-110-111.5q0-11-1-23t-1-25q0-176 110-286t276-110q165 0 275.5 120t110.5 298q0 11-1 21.5t-1 21.5q20 0 28.5 17.5t8.5 43.5q0 62-31 116t-65 62q-20 48-46.5 88t-58.5 66v64h16q80 0 181.5 64.5t170.5 160 73 174.5v197z m-684 455h-1324v-197q0-79 72-176t173-160 180-63h19v-63q-32-26-58-67t-46-89q-33-11-61-63.5t-28-104.5q0-26 7.5-44t23.5-18q0-18-2.5-36t-2.5-36q0-177 110.5-287t276.5-110q171 0 278 115t107 304v20l-2 22q21 0 29.5 17t8.5 43q0 61-30 116t-66 64q-21 48-47.5 88t-58.5 66v63h17q78 0 176.5 61.5t171 158 76.5 179.5v197z"/></svg>