<svg viewBox="0 0 2600 2760.837" xmlns="http://www.w3.org/2000/svg"><path d="M2479 1449q-16 28-106.5 99.5t-271.5 181.5-244.5 153-227.5 137.5-346.5 214-284.5 165.5-151 46q-72 0-128-70t-114-169-103.5-195-89-201-91-204.5-90.5-202-84.5-204.5-41.5-187q0-41 27.5-93.5t156-106 309.5-108.5l115-35 205-67q182-60 486-147t354-97 100-10q65 0 108 24t71.5 65.5 102 168 177.5 347 141 296 37 133.5q0 38-16 66z m-174-214.5q-22-57.5-49-116.5l-39-84q-14-29-56-131t-143-264l-15-25h-1q-21-34-34-49.5t-20-15.5q-5 0-7 5.5t-5 28.5l-28 241q0 3-8.5 69.5t-33.5 66.5q-26 0-40-24t-14-54q0-10 1-20t1-27q0-72 7.5-144.5t7.5-141.5v-15h-1q0-12-6.5-22.5t-18.5-10.5q-37 6-235.5 59t-256 77-310 100-365.5 117.5-189.5 75-76.5 59.5q0 17 14 24.5t100.5 38.5 223.5 71l139 41q90 27 139 45.5t108 42.5 59 79q0 11-8 16t-16 5q-39-2-75-13l-73-22-299-80q-219-59-257.5-75t-69.5-16q-8 0-16.5 3t-8.5 11q0 9 10 35.5t70.5 206.5 169.5 411 143.5 279.5 75.5 73.5 93 25q100 0 239.5-74.5t246-127.5 371.5-209 370.5-228 156.5-122 51-104q0-34-22-91.5z m-460.5 49.5q-10.5 55-36.5 149t-79 94l-34-1h-36q-253-23-340.5-89t-87.5-172q0-78 50.5-130.5t134.5-52.5q28 0 53.5 4t51.5 4q24 0 44-40.5t54-59 73-18.5q75 0 119 58.5t44 149.5q0 49-10.5 104z"/></svg>