<svg viewBox="0 0 2600 2760.837" xmlns="http://www.w3.org/2000/svg"><path d="M956 1494q-49 28-177 114t-213 86q-62 0-98.5-42.5t-36.5-109.5q0-77 76.5-285t180.5-372l38-63q143-228 325.5-349t388.5-121q223 0 365.5 125.5t142.5 329.5q0 88-30.5 167t-93.5 148-152.5 118-285.5 100l-85 22q-101 27-185 59t-128 55z m1099.5 805q-113.5 105-276.5 105-68 0-128-14t-114-30l-105-29q-76-20-147-31.5t-141-11.5q-30 0-70 4t-82 4q-70 0-110.5-29.5t-40.5-85.5q0-83 84-167t162.5-142.5 163.5-100.5l22-11q100-55 206-87t206-32q201 0 342.5 112t141.5 285q0 156-113.5 261z m-1311.5-922q23 0 63.5-17.5t68.5-33.5l27-16q129-72 393-134t367-150.5 103-221.5q0-119-87.5-195t-237.5-76q-178 0-340 128t-276.5 354-114.5 327q0 35 34 35z m1164 492q-102-70-223-70-97 0-205 39t-212 110l-45 31q-43 30-76 65t-33 60q0 16 17 22.5t53 6.5l37-1q107 0 290.5 58t267.5 58q100 0 165.5-60t65.5-147q0-102-102-172z"/></svg>