<svg viewBox="0 0 2600 2760.837" xmlns="http://www.w3.org/2000/svg"><path d="M1911 1334.5q-130 87.5-288 87.5-93 0-179-39t-143-102q-67 67-147.5 104t-175.5 37q-168 0-293.5-92t-125.5-223q0-65 31.5-138.5t129.5-185 127-194 52-133.5l12-29h-1q12-31 28-50t37-19h14q15 0 24 6t9 15q0 8-1 15l-3 13q-21 56-38.5 115.5t-17.5 118.5q0 105 69.5 173t138 125.5 131.5 127.5q61-69 130-127t139-125 70-173q0-75-30.5-160.5t-30.5-102.5q0-9 9-14.5t24-6.5h13q18 0 33.5 16t28.5 46l16 36q32 76 59 149.5t124 183 126 183 29 135.5q0 140-130 227.5z m76 634.5q16 31 16 63v12q0 2-11 2l-26 1-44 1q-67 4-137 54.5t-174 163.5l-68 73q-45 49-118.5 116.5t-120.5 67.5q-23 0-43-11l-38-21q-97-56-206.5-173t-148.5-156l-44-42q-34-31-73-50t-83-22l-43-1-25-1q-12 0-12-2-2-4-2-12 0-20 7-37l15-36q20-45 43-78t41-33q20 0 46.5 20.5t192.5 74.5 336 54q157 0 323-36t225.5-72 64.5-38.5 17-2.5 30 20 26 38z"/></svg>