<svg viewBox="0 0 2600 2760.837" xmlns="http://www.w3.org/2000/svg"><path d="M2287.5 1518q-101.5 117-266.5 164 52 66 87.5 141t35.5 161q0 180-130.5 318.5t-313.5 138.5q-125 0-228-62t-172-173q-73 115-177 175t-223 60q-176 0-310-134t-134-312q0-90 33.5-167t88.5-146q-178-46-272.5-166.5t-94.5-267.5q0-178 129.5-317t308.5-139q53 0 104 11t100 31q0-10-1-31 0-213 130-344t318-131q186 0 316.5 131.5t130.5 343.5q0 21-2 31 50-20 101-31t103-11q179 0 309.5 135.5t130.5 320.5q0 153-101.5 270z m-806-250.5q-76.5-76.5-181.5-76.5-106 0-182 75t-76 182q0 106 76 181t182 75q101 0 179.5-76t78.5-178q0-106-76.5-182.5z"/></svg>