<svg viewBox="0 0 2600 2760.837" xmlns="http://www.w3.org/2000/svg"><path d="M2341 1785q23 50 35 103.5t12 111.5q0 213-153.5 367t-368.5 154q-168 0-304-98.5t-188-252.5h-912q-25 0-42-17.5t-17-41.5v-762h-132q-25 0-42-17t-17-42v-878q0-25 17-42t42-17h1821q23 0 41 17t18 42v214q113 75 175 190t62 247q0 57-12 110.5t-35 103.5v508z m-2011-553h1043q-13-44-20.5-84t-7.5-85q0-214 153-368t368-154q45 0 86 7t80 20v-97h-1702v761z m1017 820q-2-14-2-39 0-161 78-287t215-194q-130-64-206-183h-912v703h827z m803-1274.5q-120-118.5-284-118.5-163 0-283 118t-120 286q0 165 118.5 284.5t284.5 119.5q161 0 282.5-119.5t121.5-284.5q0-167-120-285.5z m1.5 938.5q-118.5-120-285.5-120-163 0-283 118t-120 286q0 165 117.5 284t285.5 119q167 0 285.5-120.5t118.5-282.5q0-164-118.5-284z m-87-415.5q-58.5 48.5-139.5 55.5v36q0 12-13 12h-93q-12 0-12-12v-44q-77-16-119.5-37t-81.5-48l-5-5 3-7 62-83q0-2 5-2 6 0 46.5 21t89.5 31v-117l-48-19q-96-35-123.5-68t-27.5-76q0-70 56-114.5t143-48.5v-42q0-11 12-11h93q13 0 13 11v56q48 12 88.5 29t61.5 27l6 7-1 7-53 78q0 4-6 4-3 0-4-1l-92-33v96q53 23 100 46t72.5 57.5 25.5 77.5q0 68-58.5 116.5z m-922.5 480.5l50 112-2 8q-85 73-206 73-104 0-182-54t-106-143h-93q-3 0-6-2.5t-3-5.5v-62q0-5 3-6.5t6-1.5h78q0-5-1-10.5t-1-10.5 1-9.5 1-9.5h-78q-3 0-6-2.5t-3-5.5v-63q0-3 3-6t6-3h93q28-89 106.5-142t181.5-53q122 0 200 60l1 8-58 115-4 3-5-1q-25-19-60.5-30.5t-72.5-11.5q-38 0-69 14t-52 38h99q4 0 7 3t3 6v63q0 8-10 8h-133l-1 19 1 21h133q10 0 10 8v62q0 8-10 8h-99q21 25 51.5 38.5t69.5 13.5q32 0 75.5-14t72.5-37l5-1z m-691-1206q-3 0-3-5 0-8 4.5-11t9.5-3h121q9 0 11 6l133 191 135-191q2-6 11-6h120q5 0 9.5 2.5t4.5 9.5q0 2-1 3l-2 4-141 211h107q4 0 6.5 3.5t2.5 7.5v66q0 11-9 11h-165v41h165q4 0 6.5 3.5t2.5 7.5v67q0 10-9 10h-165v113q0 13-13 13h-129q-12 0-12-13v-113h-166q-11 0-11-10v-67q0-4 3-7.5t8-3.5h166v-41h-166q-11 0-11-11v-66q0-4 3-7.5t8-3.5h108z m1692 1611l1 11q0 14-50 54t-136 40q-43 0-114.5-18.5t-114.5-18.5q-34 0-52 8t-29 8q-3 0-6.5-2t-4.5-5l-45-108v-8l5-4q46-15 71-38.5t38-49.5h-91q-5 0-7-3t-2-7v-85q0-9 9-9h97q-5-38-12.5-67.5t-7.5-58.5q0-71 46-117t122-46q67 0 116.5 48t49.5 65q0 6-3 9l-79 71-8 3-7-6q-9-17-25-33t-31-16q-18 0-27 12.5t-9 24.5q0 7 6.5 24.5t12.5 86.5h102q9 0 9 9v85q0 4-2 7t-7 3h-107q-3 19-8.5 38t-15.5 36q30 10 72.5 19.5t56.5 9.5q28 0 52.5-9.5t44.5-24.5l16-13 8-3 5 3 47 59z m80-745q-29 28-61 50.5t-67 40.5q35 17 67 39.5t61 49.5v-180z m-298-216q17-5 29-14t12-26q0-14-11.5-23t-29.5-18v81z m-118-335q-14 3-27.5 10.5t-13.5 22.5q0 16 10 24t31 15v-72z"/></svg>