<svg viewBox="0 0 2600 2760.837" xmlns="http://www.w3.org/2000/svg"><path d="M2374.5 1797q-28.5 25-63.5 25-56 0-114-99.5t-93.5-224-62.5-124.5q-20 0-20 40 0 45 23.5 117.5t57.5 129.5l31 52q14 25 23.5 47t9.5 40q0 45-57.5 69t-77.5 29-37.5 110.5-17.5 173.5q0 81 21.5 94t45 36.5 23.5 62.5q0 36-25.5 54.5t-63.5 18.5q-65 0-95-26.5t-30-98.5q0-43 5.5-122t5.5-143q0-50-6.5-82t-24.5-32q-20 0-27.5 33.5t-7.5 81.5q0 35 2 72t5 72l4 68q2 32 2 55 0 70-30.5 96t-94.5 26q-39 0-64-18.5t-25-55.5q0-39 24.5-62.5t45.5-37.5 21-92q0-71-18.5-174.5t-37-108.5-77-29.5-58.5-69.5q0-18 9.5-40t24.5-47l31-53q35-61 57.5-131t22.5-114q0-41-20-41-28 0-64.5 130.5t-93 224-112.5 93.5q-36 0-62-23-55-2-93-41t-48-73l-22-80-22-72q-21-68-40.5-104.5t-35.5-36.5q-12 0-16.5 6.5t-4.5 23.5q0 19 6 48l11 64q6 35 11.5 71.5t5.5 69.5q0 79-31.5 139t-31.5 246q0 94 9.5 141.5t25.5 57.5 38.5 36 22.5 59q0 45-32 65.5t-87 20.5q-92 0-135-38t-43-116q0-23 3-55l10-142q2-37 2-70 0-51-6.5-85.5t-26.5-34.5-27 34.5-7 84.5q0 33 3 70l10 139q2 32 2 55 0 79-42 118.5t-136 39.5q-54 0-86-20.5t-32-65.5q0-33 19.5-56.5t39-37 28.5-69 9-133.5q0-189-32.5-244.5t-32.5-140.5q0-33 5.5-69t12.5-70l12-63q5-29 5-48 0-20-5-25.5t-19-5.5q-20 0-44.5 71t-24.5 130q0 34 4 68t4 76q0 37-32.5 64.5t-74.5 27.5q-52 0-87-44.5t-35-126.5q0-137 93-342t232-274l41-21q15-7 15-22t-45.5-53.5-74-96-28.5-135.5q0-144 94.5-234.5t235.5-90.5q136 0 232.5 89t96.5 229q0 84-30 143t-74 96.5-44 52.5 15 22l41 21q64 32 113 86t96.5 135.5 67.5 175.5 53 133l41 49q29-29 45.5-87.5t79.5-202 116.5-189.5 100-58.5 46.5-43.5q0-10-17-21l-43-26q-24 29-63.5 42t-76.5 13q-33 0-56-10t-23-28 27-46 27-94q0-21-1-44.5t-1-51.5q0-160 81.5-252t222.5-92q140 0 221.5 93t81.5 251q0 27-1.5 50.5t-1.5 43.5q0 66 28 96t28 46q0 18-24 28t-57 10q-37 0-76.5-13t-63.5-42l-43 26q-17 11-17 21t5 20.5 62 30.5 112.5 87.5 134.5 279.5l37 100q24 70 84.5 95t60.5 84q0 35-28.5 60z"/></svg>