<svg viewBox="0 0 2600 2760.837" xmlns="http://www.w3.org/2000/svg"><path d="M2237 1252q-12 118-59.5 254.5t-120 281-72.5 220.5q0 59 29.5 85.5t95.5 32.5h23q42 0 67.5 18.5t25.5 56.5q0 84-214.5 134.5t-409.5 50.5q-213 0-398.5-74t-319-201-204-285.5-74.5-278.5v-13q0-6 1-12-17 5-28.5 14.5t-23.5 23.5l-22 23q-20 22-47 36t-58 14q-59 0-95-50t-36-125q0-136 99.5-237.5t222.5-101.5h16q86-322 338-495t533-173q201 0 371 96t267.5 262.5 97.5 354.5q0 23-1 44z m-272.5 508.5q75.5-148.5 128.5-301.5t53-292q0-251-186.5-436t-452.5-185q-256 0-484.5 160.5t-301.5 464.5l9 13 11 19q6 11 10 22t4 20q0 17-19 17-8 0-35.5-23.5t-85.5-23.5q-93 0-158 81t-65 160q0 33 9.5 57t24.5 24q23 0 74.5-56t113.5-56q43 0 66 25t23 62v17t-1 15q4 100 66 241t183 256.5 288.5 182.5 360.5 67q99 0 242.5-20.5t234.5-52.5q-89-11-138.5-67t-49.5-141q0-101 75.5-249.5z m-556-294.5q-97.5 52-205.5 52-114 0-194-84t-80-200q0-63 25.5-99t67.5-36q47 0 79 53t71.5 75 92.5 22q26 0 53.5-4t54.5-4q57 0 95 27t38 72q0 74-97.5 126z m413 330q-4.5 7-15.5 7-14 0-29-9.5t-29-9.5q-33 0-61 21.5t-52 49.5l-24 24q-22 22-51.5 37.5t-59.5 15.5q-59 0-93-50.5t-34-122.5q0-132 93.5-233t210.5-101q52 0 98 26t46 67q0 8-5.5 14t-13.5 6q-11 0-19-5l-19-9q-12-5-27-9.5t-37-4.5q-93 0-165.5 76t-72.5 174q0 32 10.5 57.5t25.5 25.5q31-3 69.5-46.5t83-70.5 84.5-27q33 0 62 24.5t29 55.5q0 10-4.5 17z m-393.5-662q-26-4-40.5-12t-14.5-21q0-60 72.5-111.5t143.5-51.5q70 0 115.5 42t45.5 109q0 48-32.5 88.5t-77.5 40.5q-34 0-76-34t-117-47z m-408.5-351.5q45.5-51.5 101.5-51.5 49 0 80.5 43t31.5 100q0 67-25.5 117.5t-48.5 50.5q-10 0-17-7l-16-15q-35-35-93.5-49t-58.5-79q0-58 45.5-109.5z"/></svg>