<svg viewBox="0 0 2600 2760.837" xmlns="http://www.w3.org/2000/svg"><path d="M2206 2096h-1811v-947l316 156q8-32 17.5-62.5t23.5-60.5l-359-177v-256h1811v252l-359 178q14 30 24.5 61t18.5 63l316-158z m-557-1005q-133-135-350-135-209 0-345.5 134.5t-136.5 335.5q0 204 136.5 337.5t342.5 133.5q88 0 164-22.5t139-70.5l-85-115q-44 32-98 48t-116 16q-148 0-244-92t-96-234q0-141 95-234t244-93q159 0 249.5 93.5t90.5 246.5q0 26-8 45t-36 19q-33 0-49-36t-16-86v-163q0-10-11-10h-122q-9 0-9 10v14q-26-14-57-23t-66-9q-106 0-172.5 67t-66.5 166q0 100 66 166t174 66q61 0 107.5-22.5t77.5-60.5q27 32 64.5 48.5t80.5 16.5q84 0 135-57.5t51-145.5q0-219-133-354z m-302.5 418.5q-29.5 31.5-80.5 31.5-52 0-81.5-31t-29.5-76 29-76 81-31q51 0 81 30t30 76q0 45-29.5 76.5z"/></svg>