<svg viewBox="0 0 2600 2760.837" xmlns="http://www.w3.org/2000/svg"><path d="M2328.5 1742.5q-22.5 57.5-66.5 101.5t-76 54.5-71.5 23.5-64.5 13q-11 0-23-1t-23-4q-66 133-175 226.5t-253.5 137-284.5 43.5q-110 0-242-34t-248.5-118-194.5-225q-18 11-47.5 15.5t-54.5 4.5q-72 0-131.5-43.5t-92-112-32.5-200.5 69-243 66.5-202 48.5-172.5 100.5-110 64.5-100 116.5-158 242-115 250.5-28.5q38 0 63 5.5t48.5 0 64.5-5.5q14 0 26.5 1.5t25.5 1.5q196 15 309 63t176 120.5 76 130.5 65 90l24 15q44 27 83 96t39 174v41q0 35 9 58.5t28 50.5l2 5 41 63q30 44 47.5 104.5t17.5 122.5q0 53-22.5 110.5z m-414.5 153.5q-44-26-68.5-97t-24.5-108q0-43 13-111.5t13-114.5q0-83-23.5-131.5t-69.5-88.5l-77-65q-18-15-59-59.5t-47.5-94.5-15.5-76q-22 24-30 44.5t-72 43-102 22.5q-21 0-41.5-3.5t-40.5-7.5l-39-8q-19-3-37-3-49 0-82 30t-72.5 121-141 133.5-134.5 103.5-37 163l-4 104q-3 52-12 102.5t-35 93.5q61 119 155.5 199.5t224 116.5 236.5 36q198 0 365-83.5t258-261.5z m321.5-369q-16.5-48-41-80.5t-55.5-88.5-31-84q0-23-1-39t-1-33l1-20q0-77-28.5-125.5t-86.5-81-87-122.5l-9-29q-17-55-90-115t-182.5-85-160.5-25l-10 1q-12 0-24-3h-14q-9-2-17-2h-16q-20 0-41.5 3.5t-47.5 3.5-47.5-3.5-39.5-3.5h-16q-8 0-17 2h-14q-14 2-28 2-53 0-149.5 22.5t-147 52.5-90.5 70-52.5 81-29.5 77-52.5 60.5-40.5 30.5l-30 38q-57 71-58 139.5t-15 129-66.5 137-52.5 187.5q0 163 57 210.5t100 47.5q17 0 32.5-5t26.5-5q20-8 40-66.5t20-131.5q0-172 31-249t86.5-123.5 122.5-72.5 96-104.5 88-132.5 146-54q36 0 86.5 11.5t71.5 11.5q17 0 44-9t53-17l3-5q28-48 53-64t51-16q30 0 51 12.5t35.5 38 22 72.5 10.5 57 44 52 95.5 87 87.5 99.5 42 139.5l3 36q0 11 1 21 0 45-7.5 81t-11.5 71l-2 7q-3 19-5 35.5t-2 31.5q0 14 12 54t20 51 35.5 26 63.5 15q14 0 73.5-21t94-74 34.5-110-16.5-105z m-519 116.5q-28.5 31.5-68.5 31.5-39 0-68-31t-29-76q0-44 28.5-74.5t68.5-30.5q41 0 69 30t28 75q0 44-28.5 75.5z m-843.5 0.5q-29-31-29-76 0-44 28.5-74.5t68.5-30.5q41 0 69.5 30t28.5 75-29.5 76-68.5 31-68-31z m586 260q0 47-44 77.5t-105 33.5h-15q-35 0-94.5-29.5t-59.5-63.5q0-13 8.5-19t19.5-6q8 0 12 1l60 20q28 10 61 10 38 0 70-9.5t46-21 27-11.5q14 0 14 18z m-269-163q6-6 16-6t31.5 22 57.5 22q34 0 56.5-22t33.5-22q8 0 14.5 5.5t6.5 13.5q0 23-33.5 46.5t-77.5 23.5-77.5-23.5-33.5-46.5q0-7 6-13z m-88 125.5q-26 23.5-36.5 75.5t-17.5 57-14 5q-14 0-20.5-19t-6.5-39q0-46 32.5-89.5t68.5-43.5q7 0 13.5 4.5t6.5 12.5q0 13-26 36.5z m494 119.5q-7 18-20 18-19 0-22-24t-15-62.5-33.5-56.5-21.5-33q0-5 5.5-10t13.5-5q31 0 65.5 38.5t34.5 94.5q0 22-7 40z"/></svg>