<svg viewBox="0 0 2600 2760.837" xmlns="http://www.w3.org/2000/svg"><path d="M2104 1850q79 4 130 55t51 127q0 72-44.5 125t-112.5 65q-33 182-202.5 232.5t-376.5 50.5q-46 0-84-20-30 26-71 41t-101 15q-46 0-82.5-9.5t-60.5-28.5q-28 19-61.5 28.5t-69.5 9.5q-85 0-139-48.5t-54-123.5q0-29 6.5-59t6.5-46q0-42-4-84t-10-81q-161-59-247-165t-86-246q0-97 28-162.5t50-152 63-163 96-123.5l-1-1q-61-93-164.5-202t-152.5-162-74-122.5-25-141.5q0-93 76-161.5t186-68.5q76 0 147 29t132.5 73 113 99 93 118 70 134.5 41.5 145.5l28 147h19l19 2 46-177q33-130 76.5-239.5t101-182.5 134.5-117 168-44q108 0 172 68.5t64 184.5q0 99-45 205t-157 294-112 234q0 67 54 183.5t70 211.5q68 30 138 90t120 166q18-3 37-3z m-663.5 172q114.5-43 197-118.5t82.5-210.5q0-115-67-257.5t-67-234.5q0-36 32.5-108t81.5-155l37-61q61-100 112.5-209.5t51.5-199.5q0-74-34.5-114t-100.5-40q-121 0-211.5 103.5t-148 305.5-75 277-69.5 75q-28 0-55.5-2.5t-55.5-2.5q-22 0-30.5-9t-37.5-177.5-110.5-288-188-194.5-204.5-75q-67 0-118.5 37.5t-51.5 94.5q0 116 66 189t149 158.5 151.5 178 68.5 124.5q0 22-32 38t-72.5 72-72.5 172-55.5 169.5-23.5 129.5q0 176 179.5 276t419.5 100q138 0 252.5-43z m537-130q-57.5-119-159.5-177-6 151-100 246t-226 148.5-276 53.5q-57 0-132-6t-155-26l6 66q3 33 3 65 0 18-6.5 49.5t-6.5 58.5q0 36 26.5 54.5t69.5 18.5q64 0 89-34t25-158v-9q0-4-1-9 0-16 9.5-21.5t21.5-5.5h22q30 0 38.5 15.5t8.5 57.5q0 49-7.5 75.5t-7.5 34.5q0 23 23 36.5t61 13.5q42 0 79-16t37-69l-1-15q2-76 65-96.5t70.5-66.5 48.5-86.5 82-40.5q10 0 19.5 6t9.5 18q0 10-7 18l-15 15q-27 27-41.5 60t-14.5 69q0 22-11.5 35t-37.5 13h-11q-35 0-60.5 20t-25.5 55q0 25 12 38.5t50 13.5q47 0 145.5-10.5t184.5-34 120-76 34-143.5q0-135-57.5-254z m154.5 227q27-12 41-35.5t14-49.5q0-34-22.5-59t-62.5-27q10 28 20 86t10 85z m-1302-429.5q-23-27.5-23-64.5t23-63.5 56-26.5q32 0 54.5 26.5t22.5 64.5q0 36-23.5 63.5t-55.5 27.5q-31 0-54-27.5z m577 27.5q-32 0-55-26.5t-23-64.5 22.5-64.5 55.5-26.5q32 0 55 26t23 64-23 64.5-55 27.5z m-382 162l14 13q6 6 17 12.5t27 6.5q27 0 38-12.5t11-45.5l-18-8q-20-7-34.5-20.5t-14.5-30.5q0-6 5-16t13-10 24.5 15.5 46.5 15.5q33 0 52.5-15t31.5-15q15 3 15 22 0 17-21.5 36t-37.5 24q0 33 13.5 44t50.5 11q17 0 35.5-16t31.5-16q9 0 15 5.5t6 11.5q0 17-29 43t-77 26q-35 0-51.5-10.5t-21.5-10.5q-10 0-28.5 13t-57.5 13q-37 0-67.5-20.5t-30.5-50.5q0-11 8.5-16t19.5-5q7 0 14 6z m474-1078.5q82-232.5 131.5-284t97.5-51.5q25 0 39 16.5t14 44.5q0 23-6.5 49t-17.5 52l-10 25q-20 45-42.5 90.5t-45.5 88.5l-45 83q-35 64-56 111.5t-37.5 73-16.5 27-8 1.5q-14 0-33-8t-32.5-13.5-13.5-26.5q0-46 82-278.5z m-571 264.5l-14-28q-124-233-242.5-343.5t-118.5-181.5q0-24 16-42t49-18q42 0 133.5 80t177.5 253l40 84q12 28 34.5 91t22.5 83q0 19-21 33t-50 14q-11 0-17-7.5t-10-17.5z"/></svg>