<svg viewBox="0 0 2600 2760.837" xmlns="http://www.w3.org/2000/svg"><path d="M2374 763q25 0 42 17t17 42v1193q0 25-17 42t-42 17h-2148q-25 0-42-17t-17-42v-1193q0-25 17-42t42-17h2148z m-59 118h-2030v1075h2030v-1075z m-1192 679l63 145q0 2 1 4 0 10-77.5 54t-189.5 44q-133 0-233-69.5t-135-181.5h-119q-10 0-10-10v-80q0-4 2.5-7.5t7.5-3.5h100l-1-12q0-6-1-13l1-13q0-6 1-12h-100q-10 0-10-11v-79q0-11 10-11h119q35-112 135-181.5t233-69.5q113 0 185.5 36.5t72.5 46.5q0 2-2 5l-73 147q-3 4-8 4-6 0-17-10t-56-27.5-101-17.5q-49 0-88.5 18t-65.5 49h127q11 0 11 11v79q0 11-11 11h-170q0 6-1 12l-1 13q0 7 1 13l1 12h170q5 0 8 3.5t3 7.5v80q0 10-11 10h-127q26 32 65 49.5t89 17.5q46 0 98-18.5t72-34 26-15.5q3 0 6 5z"/></svg>