<svg viewBox="0 0 2600 2760.837" xmlns="http://www.w3.org/2000/svg"><path d="M2139 2177q-50 131-149.5 224.5t-208.5 126.5-162 33q-39 0-64.5-13t-25.5-35q0-17 16.5-35t39.5-36q-48 21-135 38.5t-158 17.5q-80 0-171-21t-144-49q8 9 39 38t31 48q0 20-21.5 32t-50.5 15q-111 0-249-61.5t-239-218.5-101-405q0-201 69-434.5t212-388.5q-50-55-89.5-120.5t-71-156.5-45-201-38-193.5-24.5-131.5q0-66 45-106.5t123-40.5q199 0 439 201t278 484h45q22-160 119-308.5t272.5-262.5 324.5-114q80 0 124.5 40.5t44.5 106.5q0 57-24 133t-35.5 174-39 191-74.5 176-112 148q135 166 197.5 391t62.5 413q0 170-50 301z m-418 274q152-32 265-181t113-393q0-167-61.5-389t-177.5-357q-67 48-148 83 58 42 80 78t22 73q0 14-10 27t-35 13q-16 0-31-6l-28-11q-99-36-198.5-55t-200.5-19q-117 0-217 23.5t-147.5 43.5-99.5 20q-19 0-33.5-4.5t-14.5-24.5q0-33 27-68.5t92-81.5l-18-9-22-9q-23-9-72-39t-72-49q-132 142-195.5 362.5t-63.5 398.5q0 233 109 384.5t271 189.5l23 6q-59-67-91-170.5t-32-306.5q0-46 3.5-96t17-97 38-85.5 65-58.5 81.5-23 95-5 124-31 84-47.5 52-51.5q22-19 48.5-34t59.5-15q69 0 114 72t130.5 164 120.5 182.5 35 214.5q0 110-32 213.5t-95 174.5z m-20-187q17-47 24.5-96t7.5-99q0-47-6-91.5t-20-85.5q-11 13-26 21.5t-29 8.5q0 45-24.5 76t-65.5 31q-37 0-64.5-29t-27.5-72 27.5-71.5 64.5-28.5q8 0 16 3 10 0 18.5-3.5t15.5-8.5l13-8q6-4 13-4t12 4 5 11q0 8-4.5 13.5t-9.5 9.5l-9 8q-5 4-5 6l5 6q28 0 37-3t21-5q-18-36-43-68.5t-52-63.5l-55-63q-58-66-77-101.5t-40-35.5q-11 0-26.5 12.5t-33.5 29.5l-39 35q-51 46-140.5 75.5t-156.5 29.5q-86 0-114.5 20t-48 77.5-19.5 185.5q0 68 3.5 129.5t19.5 123.5q84 87 200 125.5t224 38.5q101 0 211.5-32t197.5-111z m-408-1385q0 12 1 24t1 23q0 46-6.5 88t-17.5 85l36-1 34 1q-9-43-15.5-87t-6.5-91v-22q0-10 2-20h-28z m185 194l1 45q22 5 42 12t42 12q70-34 134-87.5t108.5-123.5 73-179.5 44-154 15.5-80.5q0-23-11-41.5t-41-18.5q-64 0-180 104.5t-172 257.5-56 254z m-420 74q18-8 36.5-14.5t38.5-11.5q3-21 3-27 0-109-53-262t-172-264-185-111q-28 0-38.5 17t-10.5 39q0 38 23.5 102t33.5 120.5 42 135 102.5 145 115 92 64.5 39.5z m154 930q5-4 11-4 7 0 13 5l12 11q7 7 17.5 12t27.5 5q16 0 26.5-5t17.5-12l13-11q5-5 12-5 6 0 11 4t5 10q0 18-26 35.5t-59 17.5q-34 0-60-17.5t-26-35.5q0-6 5-10z m189 104l11-7q6-4 13-4 13 0 13 17 0 42-42 68t-88 26h-16q-50 0-91-26.5t-41-70.5q0-14 14-14 5 0 40 18.5t86 18.5q52 0 101-26z m-309.5-181q-27.5 29-62.5 29-37 0-64.5-29t-27.5-72l1-6q-16 0-38.5-15t-22.5-30q0-6 4.5-13t11.5-7q14 0 21.5 4t30.5 4l10-1q7 0 7-5-28-25-28-38 0-7 6-10.5t11-3.5q10 0 26.5 12t33.5 12q7-3 18-3 35 0 62.5 28.5t27.5 71.5-27.5 72z"/></svg>