<svg viewBox="0 0 2600 2760.837" xmlns="http://www.w3.org/2000/svg"><path d="M879 886q130-256 339-371l5-3 6-11q16-17 39-25.5t46-8.5q11 0 21 2l24 5q65 16 120 16 45 0 89.5-11.5t90.5-27.5l93-33q44-15 83-22.5t60.5-16 52.5-8.5q16 0 29 4t27 9l43 9q125 37 194.5 155t69.5 281q0 153-60 304.5t-165.5 236.5-238.5 85q-157 0-248-84t-102-241q-61 244-193 403t-270 159q-114 0-199.5-89.5t-85.5-251.5q0-209 130-465z m-560.5 57.5q-29.5-26.5-29.5-69.5 0-24 12.5-45t33.5-37l21-15q16-13 72-45t152-119.5 109.5-109 36-43 42.5-33 47-11.5q47 0 75 37t28 96q0 80-68.5 210t-120 293-107.5 544l-3 26q-9 61-15 116.5t-11 109.5q0 98-29.5 147.5t-86.5 49.5q-47 0-71.5-40t-24.5-102q0-17 15.5-169t56.5-388.5 96-416.5q-40 20-76 30.5t-64 10.5q-61 0-90.5-26.5z m1906.5 785.5q3 0 10-1 32 0 52.5 20t20.5 49q0 22-13.5 39.5t-35.5 23.5l-107 31q-53 16-107 30l-20 5q-245 66-634 197t-626.5 240-254.5 120.5-48 11.5q-40 0-72.5-31.5t-32.5-71.5q0-37 26.5-64.5t231-125.5 497-195 556.5-156l417-92z m-310-164q30 0 50 20t20 49q0 21-13 37t-35 22l-137 39-86 23q-255 69-577.5 175t-355.5 117.5-44 11.5q-39 0-64.5-27t-25.5-70q0-39 29-65t392-143 783-180l55-9h9z m-169-374q25 50 70 50 54 0 124-48t111-142 41-224q0-105-40-164.5t-114-59.5l-26 11q-13 6-30 24.5t-42 55.5l-21 31q-53 81-75.5 156.5t-22.5 167.5 25 142z m-791 120q0 63 19 98t55 35q60 0 121.5-60.5t116-211.5 54.5-258q0-61-19.5-124t-35.5-63q-38 0-133.5 128t-136.5 253.5-41 202.5z m549-600q11 31 17 66.5t8 73.5q10-38 23.5-76.5t33.5-75.5l-38 6q-21 4-44 6z"/></svg>