<svg viewBox="0 0 2600 2760.837" xmlns="http://www.w3.org/2000/svg"><path d="M2381.5 1260q-65.5 118-173 173.5t-219.5 55.5h-17.5t-1.5 4q0 5 22 78t22 147q0 145-85 277t-260.5 201-369.5 69q-191 0-368-69t-262-201-85-274q0-71 22.5-149t22.5-79q0-3-1.5-3t-17.5-1q-114 0-221.5-57t-172-174-64.5-247q0-190 131-311.5t314-121.5q112 0 211 47.5t160 127 72.5 157 33.5 77.5q16 0 68-16.5t157-16.5q98 0 161.5 16.5t64.5 16.5l12-2q8-3 17-66.5t63-147 159-138.5 226-55q187 0 316 124t129 309q0 131-65.5 249z m-1558.5-40l76-107 3-13q0-8 1-22 0-108-67.5-195t-187.5-87q-108 0-196 77t-88 188 87 193 200 82q77 0 101-26t71-90z m191 341q-25-31-60-31t-59.5 30-24.5 72 24.5 72.5 59.5 30.5 60-31 25-72q0-40-25-71z m404 412q27 0 65.5-21t38.5-48q0-8-5.5-14t-13.5-6q-11 0-34.5 15.5t-60.5 15.5q-32 0-47.5-13.5t-20.5-36.5q26-14 42.5-42.5t16.5-63.5q0-49-29-81.5t-66-32.5q-39 0-66.5 33.5t-27.5 80.5q0 34 15.5 61.5t39.5 41.5q0 32-12.5 43.5t-37.5 11.5q-14 0-27-4.5t-25-10.5l-22-10q-10-4-18-4-9 0-14 7t-5 14q0 24 30 41.5t66 23.5q2 60 24 102t58 42q13 0 20-8t12-8q7 0 15.5 8t22.5 8q23 0 37.5-28.5t21.5-73.5z m296.5-413q-24.5-30-59.5-30t-60 30-25 72q0 43 24.5 73t60.5 30q35 0 59.5-30.5t24.5-72.5-24.5-72z m442.5-306q87-82 87-189 0-111-86-190t-197-79q-122 0-188.5 87.5t-66.5 194.5q0 25 4 35l42 59q92 134 119 149t85 15q114 0 201-82z"/></svg>