<svg viewBox="0 0 2600 2760.837" xmlns="http://www.w3.org/2000/svg"><path d="M2360.5 1191.5q-47.5 119.5-142.5 214.5l-532 531q-21 22-45 29.5t-46 7.5l-362 362q-87 87-198 132.5t-234 45.5q-159 0-300.5-81t-225-224-83.5-305q0-123 46-233t133-197l354-355q0-23 7.5-45.5t27.5-43.5l541-542q92-92 210-140.5t249-48.5q176 0 325 86.5t236 237 87 324.5q0 125-47.5 244.5z m-1385 1132q82.5-34.5 146.5-98.5l415-416q-26-112-141.5-260.5t-255.5-252-243-127.5l-415 416q-65 66-99 147.5t-34 173.5q0 189 135 320.5t317 131.5q92 0 174.5-34.5z m1003.5-1781.5q15 0 29-5t14-16q0-17-23.5-30t-56.5-20l-27-5q-23-4-47-6t-47-2q-94 0-179.5 35.5t-151.5 101.5l-434 434q35 7 74 20.5t106 52.5l380-381q88-88 187.5-133t156.5-45z m-679 1145q33 31 49.5 57.5t35.5 68.5l-297 297q-57 57-130.5 85.5t-153.5 28.5q-38 0-73-7l-21-4q-24-5-46-15.5t-22-24.5q0-10 12.5-14t31.5-5h15q81-13 152-52.5t129-96.5z"/></svg>