<svg viewBox="0 0 2600 2760.837" xmlns="http://www.w3.org/2000/svg"><path d="M2188 1037q48 36 72.5 92t24.5 126q0 76-30.5 163t-91.5 163l-29 36q-37 47-100.5 102t-141.5 97l-51 25q-14 7-26 14t-18 13v81q56 4 64 67t10 124v39q100 0 116 47.5t19 191.5v35h-1196q0-23-1-50.5t-1-52.5q0-12 1-23.5t1-20.5l1-30q0-69 12-88t76-23l7-63q7-63 17.5-109.5t58.5-46.5q8 0 18.5 1.5t21.5 1.5l-2-32q0-15-1-29l-21-23q-17-21-36.5-31.5t-57.5-41.5l-4-2q-85-67-152.5-152.5t-93-131.5-68-94.5-108-151.5-109.5-212-52-183q-3-22-3-43 0-116 74-184t175-68q55 0 107 25 0-144 68-230t184-86q65 0 120 30t90 85q51-95 117-146.5t147-51.5q104 0 174.5 74.5t70.5 171.5q0 52-20.5 101.5t-49.5 110.5q45-21 91-32t96-11q177 0 309.5 111t132.5 243q0 38-12 72z m-1005-140.5q13 65.5 46 132.5 14-4 97.5-25.5t83.5-150.5q0-26-2-50.5t-2-44.5q0-12 2-28l3-27q11-48 54-133.5t43-127.5q0-44-32.5-79t-78.5-35q-84 0-155.5 139.5t-71.5 302.5q0 61 13 126.5z m-380-302.5q0 157 41 301.5t112 262.5q49-32 100-58.5t107-46.5q-51-102-82.5-244.5t-35-235.5-39.5-127.5-84-34.5q-58 0-88.5 44.5t-30.5 138.5z m300 1598q42 3 101.5 4.5t134.5 1.5h159t149-2q102-2 120-2 0-81-7-103.5t-32-22.5l-88 2q-41 0-91 1t-98 1q-95 0-202-3.5t-154-6.5l-36-2h-11q-20 2-25 25t-8 78l-1 24z m1019.5-1036q-29.5-35-86.5-35-85 0-111.5 87t-64.5 124-89 37q-72 0-112.5-42.5t-40.5-109.5q0-79 38.5-153t117.5-74q35 0 82 43t98 43q44 0 78.5-36t34.5-76q0-73-94.5-146.5t-216.5-73.5q-110 0-188.5 72t-92 156-70.5 95-212 63-241 104l-25 15q-12 7-23 12t-20 5q-11 0-15-4t-4-8q0-11 12.5-27t24.5-26q-68-72-127-178t-93.5-213.5-119.5-107.5q-55 0-85 34t-30 86q0 50 22.5 116.5t47.5 119.5 58 108.5 84 123.5 64 78.5 29.5 45 76 112 111 123 98.5 78.5 78.5 70.5 34.5 77.5l5 84 104 4q57 3 125 3 54 0 97-1l76-1q33 0 59.5-1.5t47.5-3.5v-109l2-12q2-21 26-51t70-56l62-29q133-71 230-197t97-250q0-64-29.5-99z m-320.5 2l-16-12q-8-6-16-14-3 5-6 17.5t-5 26.5l-8 49 1 6 19 5q3-4 7-13l15-39z"/></svg>