<svg viewBox="0 0 2600 2760.837" xmlns="http://www.w3.org/2000/svg"><path d="M2457 622q25 0 42 17.5t17 41.5v1561q0 24-17 41t-42 17h-2214q-24 0-41.5-17t-17.5-41v-1561q0-24 17.5-41.5t41.5-17.5h601l472-332q14-10 34-10t34 10l472 332h601z m-59 119h-2096v1441h1635v-247q0-24 17-41t41-17l28-1q156-6 229.5-29t145.5-89v-1017z m-1349-119h602l-301-212z m382 244v158h-60v-21h-43v21h-59v-158h59v23h43v-23h60z m625 1282q82-48 132-92t89-93q-39 10-108.5 18.5t-112.5 10.5v156z m342-148q-37 48-78.5 94t-100.5 88h179v-182z m-1225-817h-162v-61h162v61z m258 0h-162v-61h162v61z m258 0h-162v-61h162v61z m-1032 0h-162v-61h162v61z m1290 0h-162v-61h162v61z m258 0h-162v-61h162v61z m-1290 0h-162v-61h162v61z m1250 216h-82v-80h82v80z m-516 0h-82v-80h82v80z m258 0h-82v-80h82v80z m-774 195h-82v-79h82v79z m258 0h-82v-79h82v79z m258 0h-82v-79h82v79z m258 0h-82v-79h82v79z m258 0h-82v-79h82v79z m-1549 0h-81v-79h81v79z m258 0h-81v-79h81v79z m259 390h-82v-78h82v78z m258-195h-82v-78h82v78z m516 0h-82v-78h82v78z m258 0h-82v-78h82v78z m-516 0h-82v-78h82v78z m-258 195h-82v-78h82v78z m-258-195h-82v-78h82v78z m-517 195h-81v-78h81v78z m258-195h-81v-78h81v78z m-258 0h-81v-78h81v78z m258 195h-81v-78h81v78z"/></svg>