<svg viewBox="0 0 2600 2760.837" xmlns="http://www.w3.org/2000/svg"><path d="M2473 1820q-23 30-51 53l-131 113q-249 214-444 307t-374 93q-79 0-161.5-19.5t-93.5-41.5q-24 3-51 3-99 0-190.5-82.5t-91.5-177.5q0-79 90-161.5t234-196.5 271-153q108-138 262-250t330-204l254-134 43-23q7-3 17-10.5t20-7.5q19 0 29.5 23.5t11.5 48.5v17q0 19-49.5 40.5t-297 152-367 223-119.5 114.5q84 37 121.5 88t37.5 140q0 117-88 245t-174 182l-34 21q-16 11-27 21t-11 18 9.5 9.5 20.5 1.5q92-2 221.5-51t311.5-189l243-183q10-8 87-76.5t125-68.5q16 0 27.5 11.5t11.5 36.5q0 37-23 67z m-1769-161.5q-90-61.5-101.5-132.5t-58.5-71q-6 0-12 1t-13 1q-19 0-34-10.5t-28-32.5l-14-22q-78-116-140-238l-126-244q-3-6-38.5-72t-35.5-116q0-22 10-37.5t32-15.5q26 0 33.5 21.5t82 158 129.5 248.5 81.5 174 71.5 62q35 0 65-24t30-58q0-25-15-60.5t-161-310.5-179.5-331.5-33.5-97.5q0-22 11.5-31t25.5-9 25 6.5 24 24.5l12 17q37 53 70 108t63 112l60 114q174 337 204.5 391.5t30.5 96.5q0 15-4 27t-8 22l-8 20q-4 9-4 18 0 17 15.5 30.5t35.5 21.5l23 9q54 22 114.5 38.5t119.5 16.5q39 0 77.5-7t77.5-7q20 0 29 8.5t9 20.5q0 54-95.5 137.5t-238.5 83.5q-124 0-214-61.5z m877-4q-23-8.5-42-8.5-89 0-204 87t-235 179.5-120 162.5q0 16 12 40.5t30 24.5q14 0 52-36.5t250-211.5 246-191 34-29q0-9-23-17.5z"/></svg>