<svg viewBox="0 0 2600 2760.837" xmlns="http://www.w3.org/2000/svg"><path d="M2057.5 1870.5q-119.5 204.5-322.5 320.5t-435 116-435-116-322.5-320.5-119.5-440.5q0-232 117.5-436t321.5-322 438-118 438 118 321.5 322 117.5 436q0 236-119.5 440.5z m-2.5-535.5q-3-36-10-71.5t-18-69.5l-472 143q7 23 12 48z m-619.5 213.5q57.5-56.5 57.5-136.5 0-78-57.5-135t-135.5-57q-79 0-136 57.5t-57 134.5q0 78 57 135.5t136 57.5q78 0 135.5-56.5z m-887.5-226.5l486 56q18-93 93-155.5t173-62.5q67 0 123 29l244-440q-82-45-174.5-70t-192.5-25q-287 0-502.5 192.5t-249.5 475.5z m5 215q5 36 14.5 70.5t21.5 67.5l451-166-6-25q-3-13-4-25z m1492 15l-476-88q-12 100-89.5 169t-179.5 69q-33 0-63.5-8t-58.5-22l-201 426q74 35 155 54t168 19q275 0 486-177t259-442z m-807-204q28-26 62-26 38 0 64 26.5t26 60.5q0 42-24 67.5t-66 25.5q-36 0-63-25.5t-27-64.5q0-38 28-64z"/></svg>