<svg viewBox="0 0 2600 2760.837" xmlns="http://www.w3.org/2000/svg"><path d="M2454 1277q-31 17-67 17-10 0-14-1-23 23-54 35t-65 13l2 34v35q0 78-11 164.5t-55 210.5-57.5 207-13.5 119q0 57-23.5 77t-86.5 20q-102 0-112-46.5t-28-93.5-70-47q-45 0-43 57.5t-22 77.5-78 20l-32-1q-47 0-57-10t-16-36l-7-28q-5-18-15-33t-36-15q-28 0-41.5 26.5t-13.5 82.5q0 26 1 49.5t1 38.5q0 27-37.5 43.5t-79.5 16.5q-51 0-86.5-12.5t-37-63.5-21-103-51-73.5-78.5-21.5h-24q-57 3-65 49.5t-11 95.5-81 49q-129 0-133-41.5t-10-71.5l-8-37q-8-42-18-84-223-54-347-182t-124-312q0-163 89-320t190-277q5 2 12 3t15 1q40 0 75-53.5t73-64.5 77.5-41.5 39.5-65.5v-7q78-32 157.5-42.5t166.5-10.5h29q14 0 29 1-17 34-17 68 0 50 31 88t78.5 52.5 69.5 42.5l27 35q14 18 30 30.5t39 12.5 48.5-17.5 47.5-44.5l22-28q18-24 28.5-47t10.5-52q0-14-4-41t-16-49q60 14 117 32t114 47l105 53q117 60 204.5 176.5t120.5 250.5l10 1q4 0 9 1 7 0 8-1-2-6-8.5-13t-6.5-24q0-33 26-58.5t61-25.5q38 0 64 23t26 60q0 10-2.5 19t-6.5 13q2 2 6 2l7 1q12 0 23-5t22-5q6 0 8 4.5t2 7.5q0 26-31 43z m-1617 119.5q-74-56.5-172-56.5-116 0-177 62.5t-61 142.5q0 73 72.5 114t184.5 41q111 0 169-35t58-121q0-91-74-147.5z m649.5-756q53.5 44.5 53.5 113.5 0 46-29 93.5t-68 47.5q-28 0-53.5-40t-96-76.5-70.5-85.5q0-39 29-68t91-29q90 0 143.5 44.5z m-762.5 59.5q-12 11-33 23l-18 10q-18 12-48.5 31t-44.5 45l-12 21q-6 10-14 17t-18 7q-26 0-47-32t-21-53q0-58 60.5-102.5t124.5-44.5q35 0 59 14t24 39q0 14-12 25z m424 515q-26-32-60-32-33 0-55.5 27t-22.5 67q0 43 26 73.5t60 30.5q31 0 54.5-26.5t23.5-66.5q0-41-26-73z m-673.5 106q18.5 24 50.5 24 34 0 63-31t29-72q0-31-19.5-55t-51.5-24q-35 0-62.5 32t-27.5 71q0 31 18.5 55z m149.5 202q0 37-9.5 62t-32.5 25-30.5-23-7.5-57q0-40 8.5-68.5t33.5-28.5q22 0 30 21.5t8 53.5v15z m131 93q-21 0-28.5-21.5t-7.5-52.5q0-42 8-72.5t34-30.5q23 0 30.5 24t7.5 58q0 41-9.5 68t-34.5 27z m1604-402q2-4 3.5-8.5t1.5-10.5q0-8-5.5-15t-14.5-7q-8 0-14 6t-6 14q0 11 10 16t25 5z"/></svg>