<svg viewBox="0 0 2600 2760.837" xmlns="http://www.w3.org/2000/svg"><path d="M2337 847q6 15 6 32v9l-41 251q-5 28-25.5 46t-48.5 20l-158 7q-23 33-54.5 49.5t-68.5 24.5l-104 23q-52 12-104 23 48 94 71.5 196.5t23.5 206.5q0 327-214.5 528.5t-563.5 201.5q-227 0-410-102.5t-286.5-290.5-103.5-414q0-204 100.5-376t277-268.5 384.5-96.5q140 0 274 44l12-216q2-40 15-78.5t51-64.5l-12-170v-5q0-27 15-47.5t41-28.5l244-70q6-2 12-2h20q5 0 10 2l254 69q19 5 31 16l234 209q14 12 21 28z m-811 619q-77-146-224-228t-320-82q-149 0-287.5 73.5t-215 201.5-76.5 288q0 258 168.5 436.5t438.5 178.5q263 0 428-153.5t165-404.5q0-164-77-310z m203-1095l12 130 200 211 228 115 81 9-83-204-234-207z m110 654l-211-165-74 241z m-357 26l84-254-119-225z m221-232l181 142-4-171z m-49-277l-163-56 109 209z m538 544l-55-158-129 100 77 25z m-525-341l172-28-120-125z m414 387l-157-48-251 66 234-10z m1-261l-123-62 3 156z m-579-463l156 53-9-96z m755 509l-44-5 31 87z"/></svg>