<svg viewBox="0 0 2600 2760.837" xmlns="http://www.w3.org/2000/svg"><path d="M2230 2045q-115 116-322 182.5t-335 66.5q-127 0-210.5-39t-121.5-104.5-38-118.5l-22 4q-26 6-64.5 11.5t-62.5 5.5q-209 0-394.5-88.5t-295.5-304-110-413.5q0-229 96.5-382.5t268.5-153.5q14 0 26.5 1.5t24.5 3.5l11 1 8-10q36-46 86.5-68.5t132.5-22.5q39 0 88.5 7t50.5 9.5 4 2.5q4 0 28-22t80-38.5 121-16.5q54 0 106 9.5t102 37.5q38-20 98.5-35t116.5-15q258 0 383 232.5t125 499.5q0 40-3 81.5t-8 86.5q57 51 101 137t44 176q0 161-115 277z m-801-284.5q37-52.5 37-203.5 0-90-4-161.5t-4-131.5q0-107 18-157t52-50q23 0 34.5 18t11.5 43q0 14-1.5 53.5t-1.5 94.5q0 206 30.5 346.5t116.5 140.5q103 0 179-158t76-419q0-56-5.5-108.5t-17.5-106.5l-2-7q-6-24-14-45l-19-43q-36-86-109-131.5t-163-45.5q-64 0-116.5 13.5t-86.5 44.5l-76-23q-15-4-19-4-20-5-40.5-7.5t-42.5-2.5q-57 0-99.5 24.5t-82.5 60.5q-60-23-125-23-51 0-99 14.5t-90 46.5l-14 12q-9 7-11 14-17-9-39-12t-46-3q-127 0-195.5 91.5t-68.5 329.5q0 180 77 343.5t163 163.5q25 0 41-12t16-31q0-15-6-32t-8-28l-8-38q-12-50-21-120t-9-135q0-98 20-171t58-73q14 0 18 11.5t4 33.5q0 49-3.5 89.5t-3.5 80.5q0 131 45.5 272.5t93 174.5 98.5 33q39 0 74.5-21.5t35.5-55.5q0-23-15-57t-29-129-14-258 14.5-189.5 43.5-26.5q14 0 26 12.5t12 41.5q0 109 4.5 197.5t21.5 196.5 38.5 162 44 83.5 89.5 29.5q79 0 116-52.5z m708.5-67q-39.5-57.5-74.5-76.5-41 114-101 182t-134.5 101-190.5 33q-59 0-91-5l-49-6q-40 15-70 45t-30 79q0 42 43.5 78.5t115.5 36.5l20-1q64-3 231-39.5t268.5-122 101.5-181.5q0-66-39.5-123.5z"/></svg>