<svg viewBox="0 0 2600 2760.837" xmlns="http://www.w3.org/2000/svg"><path d="M2515 520l-1 35q-3 75-14.5 238.5t-16.5 248.5l-7 122q-3 54-3 80 0 67 13 174.5t13 173.5q0 130-36 319t-165 325-249 136q-86 0-152-31.5t-89-83.5q-40 34-116.5 77.5t-188.5 70-204 26.5q-132 0-274-47.5t-235-124.5q-25 54-89 83.5t-146 29.5q-121 0-249.5-132t-166.5-322.5-38-323.5q0-64 13-166t13-165q0-10-3-58l-16-268-10-157q-3-51-6.5-115t-5.5-110l-1-35q0-30 16.5-49t44.5-19q46 0 60.5 41.5t26.5 243 23 336.5 11 238q0 67-16.5 172t-16.5 174q0 247 108.5 420.5t228.5 173.5q51 0 80.5-25t29.5-60q0-48-52-117t-77-126-25-97q0-24 10-32.5t25-8.5q28 0 62 49.5t73 49.5q38 0 52.5-16.5t14.5-34.5q0-11-7.5-35.5t-122.5-188.5-146-275-34-576l-1-208q0-55 19-76.5t54-21.5q29 0 46.5 18.5t17.5 47.5v74l2 125q24-40 132-128.5t264.5-144 330.5-55.5q198 0 378 72t313 201v-144q0-22 15-44t50-22 54 23 19 86v95q0 171-7 380t-30 299.5-108 218-126 185.5-41 94q0 18 14.5 34.5t52.5 16.5q39 0 73-49.5t62-49.5q16 0 25.5 8.5t9.5 32.5q0 41-25 96.5t-77.5 127-52.5 116.5q0 35 30 60t79 25q119 0 229-173t110-416q0-68-16.5-172.5t-16.5-171.5q0-115 12-249t23-333.5 25-241.5 61-42q18 0 39.5 15.5t21.5 52.5z m-684 1528l11-21q5-10 9-19.5t4-15.5q0-8-14.5-8t-46-12-51.5-43-20-66q0-26 8.5-55.5t24.5-64.5l22-45q31-65 66-129t55-92l22-34q-141-116-287-165.5t-293-49.5q-161 0-328.5 57t-327.5 167l9 15q-2-3 30 48.5t70 125.5l29 57q37 71 44.5 102.5t7.5 57.5q0 61-38 92t-65.5 32-27.5 10l17 38 25 51q9 16 41.5 50.5t81 69 103.5 59.5q68 31 141.5 46.5t145.5 15.5q174 0 326.5-84t205.5-190z m-954-1359l40 42q152 161 295.5 256.5t225 112.5 190 47 293.5 158q32 22 53 38 18-42 25.5-168.5t7.5-237.5v-43q-51-106-105.5-152.5t-130.5-95-198.5-85-260.5-36.5q-164 0-306 52t-142 86q0 14 13 26z m-284 281q0 14 1 39l2 56q0 31 3 64l8 118q2 47 8 67.5t26 62.5q73-66 223-136t247.5-88.5 106.5-18.5 9-10q0-18-55.5-51.5t-155.5-116.5-155.5-157.5-86.5-74.5q-32 0-73 40.5t-70 87.5l-27 44q-5 9-8 26.5t-3 34.5v13z m867.5 1033q5.5 9 5.5 17 0 36-48.5 66t-117.5 30q-66 0-116-30t-50-65q0-9 5-18t16-9q16 0 39.5 21t66.5 32 84.5-1 62.5-32 37-20q10 0 15.5 9z m271-317.5q-45.5 31.5-105.5 31.5-61 0-106.5-31.5t-45.5-64.5q0-11 8-18.5t19-7.5q15 0 46 30t79 30 78-30 45-30h7q7 2 14 9t7 17q0 33-45.5 64.5z m-637-0.5q-45.5 32-105.5 32t-105.5-32-45.5-64q0-11 8.5-18.5t19.5-7.5q15 0 45 30t78 30 78-30 45-30q13 0 20.5 6.5t7.5 18.5q0 33-45.5 65z m123 213.5q6.5-3.5 12.5-3.5t12 3l13 6q8 4 18.5 7t26.5 3q27 0 44-9.5t24-9.5q5 0 12.5 3.5t7.5 10.5q0 14-26 31t-62 17q-38 0-63.5-16.5t-25.5-31.5q0-7 6.5-10.5z"/></svg>