<svg viewBox="0 0 2600 2760.837" xmlns="http://www.w3.org/2000/svg"><path d="M2192.5 2326.5q-59.5 31.5-144.5 31.5-106 0-192-48t-119-128q-101 60-220.5 88.5t-237.5 28.5q-104 0-207.5-22.5t-197.5-67.5q-35 79-119.5 124.5t-188.5 45.5q-85 0-145.5-31.5t-60.5-60.5q0-20 33.5-33t33.5-89l-1-19q0-59 37-130.5t116-95.5q-14-35-23-67l-49-6q-24-3-52-17.5t-47.5-30.5-34-39.5-20-49.5-5.5-53q0-70 36.5-123t103.5-68q0-2-1-5l-2-4q-16-59-28.5-117t-12.5-119q0-196 112-356t313-255.5 420-95.5q216 0 411 84.5t306.5 240.5 111.5 356q0 85-14.5 153.5t-40.5 113.5q75 7 118.5 63.5t43.5 131.5q0 102-70.5 149t-127.5 47q-8 0-14-1l-12-2-13 40q100 14 149.5 85.5t49.5 160.5q0 49 7.5 69t24.5 27l13 6q9 4 14.5 9.5t5.5 18.5q0 29-59.5 60.5z m-269.5-848.5q-11-58-33-58-17 0-42 15t-44 15q-29 0-69.5-31t-64.5-31q-22 0-79 31.5t-102 31.5q-38 0-85-32t-75-32q-29 0-81.5 31.5t-83.5 31.5q-41 0-94-26t-60-26q-11 0-42.5 20.5t-53 35-44.5 14.5q-17 0-32.5-6t-30.5-14l-30-14q-15-6-30-6-36 0-70 54t-51 72q0 20-1.5 41t-1.5 43q0 194 72 307t233.5 188.5 350.5 75.5q184 0 333-65t235.5-179 86.5-327q0-102-11-160z m-930 312q-30 33-71 33-40 0-71-32.5t-31-78.5 30-78.5 72-32.5q43 0 72 33t29 78-30 78z m710 0q-30 33-71 33-40 0-70-32t-30-79 29-79 71-32q43 0 72 33t29 78-30 78z m-296 251q-45 36-115 36-60 0-118-29.5t-58-64.5q0-8 5-15.5t15-7.5q8 0 52 24t100 24q47 0 89.5-23.5t54.5-23.5q8 0 14 6.5t6 15.5q0 22-45 58z m615-494l2 37q0 19 1 37 0 39-2 76t-6 69q13 3 26 3 46 0 70-31.5t24-82.5q0-50-27-77.5t-88-30.5z m-1487 223q3-1 6-1-4-31-6-63.5t-2-67.5v-41t3-40l-3-4q-2-2-4-3-48 6-71.5 32.5t-23.5 72.5q0 51 24.5 83.5t70.5 32.5q3 0 6-1z m664 79.5q4-5.5 12-5.5 14 0 30.5 7t36.5 7q17 0 28.5-2.5t19.5-5.5l14-6q6-2 12-2 11 0 15 3t4 8q0 23-30 39t-59 16q-33 0-60-16t-27-31q0-6 4-11.5z"/></svg>