<svg viewBox="0 0 2600 2760.837" xmlns="http://www.w3.org/2000/svg"><path d="M2489.5 1467.5q-61.5 94.5-183.5 94.5-37 0-70-6.5t-61-14.5l-56-14q-27-6-53-6h-17q-10 0-17 3-41 43-100.5 199t-165 275-277.5 185.5-393 66.5q-277 0-480-101t-304.5-257.5-101.5-323.5q-64-6-111-53.5t-47-108.5q0-55 33-97-20-22-28.5-49t-8.5-58v-7q4-62 44.5-99t110.5-37q13 0 20 2 88-186 270-294.5t398-108.5q147 0 293 27t292 91q44-23 91.5-44t98.5-21q72 0 120 36t48 96q0 26-10 50t-31 36q97 49 189 89t110 40q21 0 77-35.5t141-35.5q58 0 110.5 29t91.5 87.5 39 136.5q0 133-61.5 227.5z m-1959.5-317.5q29 31 67 31 41 0 68.5-31.5t27.5-77.5-27.5-77-68.5-31q-38 0-67 31t-29 77q0 47 29 78z m-159 148q0-63-18-99t-57-40q-12 0-24.5 1.5t-24.5 3.5h-6q-11 0-22.5-1.5t-22.5-1.5q-18 0-32.5 9t-14.5 35q0 32 23.5 45t62.5 16 39 17q0 21-20.5 39t-59.5 32-39 51q0 27 23.5 45t47.5 18q42 0 89.5-40t55.5-130z m1740-30q-18 0-36.5-1t-38.5-1q-26 0-62.5 15t-100.5 15q-19 0-38-2l-38-3q-20-3-38-9l-36-13q-18-6-36-11t-37-5-37 5l-75 21q-19 5-38 5-45 0-109-20t-106-20q-44 0-100.5 23t-98.5 23q-19 0-38-4l-80-15q-20-3-39-3-16 0-37.5 3t-37.5 9l-55 21q-27 11-58 11-41 0-103.5-20t-101.5-20q-17 0-31.5 3t-31.5 9q0 98-42.5 165.5t-118.5 100.5v14q0 7-1 15 0 126 90 261t269.5 222 425.5 87q121 0 234-24.5t213.5-79 171.5-142.5 130.5-238 99-198.5 121.5-48.5q8 0 14.5 1t12.5 1q7-11 14-32t7-67q0-27-3-53z m130-90l18-5 17-4q13-2 22-10.5t9-22.5-10-22-28-8q-16 0-44.5 16.5t-28.5 35.5q0 9 6 16t17 7 22-3z m82 226q0-3 1-6 0-16-22-25t-54-9h-13q-14 0-21.5 7.5t-7.5 18.5q0 16 22 27t49 11q16 0 27.5-4.5t16.5-13.5z m0-159q-13-12-35-12-26 0-46.5 10.5t-20.5 26.5q0 18 20.5 23t61.5 5q19 0 26-9t7-21q0-11-13-23z m-1217 373.5q-41 56.5-95 57.5l-30 1q-70 0-115-67t-45-103q0-12 6-19t15-13l17-11q10-7 17-23.5t12-64.5q12-2 25-3t27-1q86 0 146.5 39t60.5 88q0 63-41 119.5z"/></svg>