<svg viewBox="0 0 2600 2760.837" xmlns="http://www.w3.org/2000/svg"><path d="M2331 1633q-17 17-40 17-31 0-54-32t-85-72.5-134-53.5q0 217-97 393t-268.5 270.5-393.5 94.5q-151 0-292-44v16q0 48 16 106.5t37 92 21 55.5q0 23-15.5 39.5t-41.5 16.5-43.5-19.5-52-107-34.5-183.5q0-37 4-60-98-48-172-110.5t-137-138.5q-12 29-21.5 70.5t-9.5 97.5q0 17 2 34t2 36q0 23-14 39.5t-37 18.5h-7q-29 0-44.5-27.5t-15.5-100.5q0-78 19-149t59-133q-39-81-59-161.5t-20-165.5q0-53 5.5-108t16.5-113l-115-40q-16-5-25.5-18.5t-11.5-29.5l-22-227v-6q0-23 16-39.5t40-16.5q22 0 38.5 14t18.5 37l18 190 81 29q2-5 5.5-10t8.5-9q-2-9-3-19t-1-21q0-87 40-164.5t116-139.5q-28-21-69.5-34.5t-41.5-43.5q0-16 12-27t29-11q27 0 81.5 24t65.5 30q2 2 4 2 89-59 192-92 0-9-1.5-29t-1.5-34q0-51 11.5-82.5t40.5-31.5q20 0 28.5 19t8.5 37q0 12-1 23.5t-1 22.5q0 12 3 25t3 25q60-12 116-12 69 0 128 16t115 59l23-89-149-122q-21-16-21-43 0-25 16.5-41.5t39.5-16.5q20 0 37 12l179 146q21 18 21 43 0 5-2 15l-35 125q87 19 197 83t206 209l30-4q15-2 35-2 92 0 185 36t107.5 55 14.5 40q0 26-18 41t-39 15q-18 0-53-20t-93-35.5-106-15.5l13 25q13 23 37 94.5t35 158.5q122 13 229.5 91.5t107.5 124.5q0 24-17 41z m-1123 500q13 2 26 2h25q85 0 161-16t145-47l-82-149q-36-64-87-157.5t-75-132.5q-45 15-92 15-95 0-158.5-54.5t-63.5-145.5q0-56 26.5-102t73.5-80q-4-7-42-69.5t-55-109.5q-154 59-255 82.5t-163 23.5h-23q-9 3-11.5 16t-11.5 41l-12 38q-6 18-9 35.5t-3 38.5l1 21q35-32 80-52t90-20q63 0 107 47t44 120q0 92-71.5 170t-161.5 78q-22 0-38-4 42 97 113 175t168 134q6-78 83-144.5t167-66.5q62 0 107 46.5t45 122.5q0 79-48 144z m393-158l31 60q79-51 145-141t94-180q-7 0-20 1-79 0-138-44.5t-59-109.5q0-75 77-140.5t151-65.5h11q-22-125-75-218.5t-48-81.5q-33 55-93 88.5t-123 33.5q-77 0-125-46.5t-48-111.5q0-60 37.5-114.5t94.5-71.5q-29-14-59-22.5t-58-8.5q-9 0-17 19t-86 93.5-228 147.5l5 5q15 19 53 83.5t48 81.5q40-17 80-17 87 0 159 65t72 150q0 53-27.5 97t-65.5 72q44 70 98.5 166t113.5 210z m-550.5-1170q28.5 28 63.5 28 31 0 47.5-19t16.5-44q0-32-28-61t-65-29q-29 0-46 18.5t-17 44.5q0 34 28.5 62z m-376.5 72q-22 8-33.5 28t-11.5 46q0 39 24.5 65.5t54.5 26.5q29 0 46-24t17-53q0-39-24-65.5t-54-26.5q-5 0-9 1z"/></svg>