<svg viewBox="0 0 2600 2760.837" xmlns="http://www.w3.org/2000/svg"><path d="M1300 1690l904-451v947h-1809v-947z m904-847v252l-904 450-905-450v-252h1809z m-608-268l34-36q350-388 377.5-392t21.5-4q25 0 25 25-5 53-134 253.5t-165 257.5l-7 5q-12 13-35.5 15t-43.5 2l-41-1q-40 0-70-7t-30-22q0-13 13-32t55-64z m-380 36l33-37q73-82 152.5-166.5t158.5-174.5 122-90q25 0 25 25 0 23-14 49l-27 48q-60 106-127 208.5t-131 205.5l-6 5q-13 13-36 15t-44 2q-49 0-95-8t-46-24q0-10 7.5-22.5t27.5-35.5z m-323 84l-16-1q-20 0-31.5-6t-11.5-19q0-22 51.5-78t216.5-235.5 189-196 43-16.5q15 0 20.5 8t5.5 20q-6 49-125.5 235.5t-172.5 272.5l-7 5q-12 13-35.5 15t-44.5 2q-20 0-41-2z"/></svg>