<svg viewBox="0 0 2600 2760.837" xmlns="http://www.w3.org/2000/svg"><path d="M2251 2381.5q-138 134.5-378 134.5-342 0-746.5-249t-660-635-255.5-731q0-248 141-397.5t378-149.5q137 0 288 46t307 134q57-19 117.5-30.5t126.5-11.5q271 0 476.5 208t205.5 475q0 64-11.5 124.5t-29.5 117.5q85 154 132 305t47 291q0 234-138 368.5z m-10.5-584q-30.5-117.5-89.5-237.5-84 158-163 218.5t-174 60.5q-178 0-394.5-151.5t-366-367-149.5-392.5q0-72 25-121.5t74.5-92 74.5-58.5l21-13q11-7 28-19 5 0 12.5-4t15.5-10l16-10q8-5 14-8-121-59-236-89.5t-219-30.5q-191 0-295 113.5t-104 317.5q0 315 239 672t614 590 689 233q190 0 294-100.5t104-284.5q0-98-30.5-215.5z m-1029.5-1084.5q-2 9-2 18l-1 19q0 136 134 324t324 324.5 330 136.5h17t16-3q43-76 73-167.5t30-189.5q0-222-170.5-393.5t-392.5-171.5q-89 0-187 29t-171 74z m489 1480q16 4 28.5 14.5t12.5 26.5q0 23-17 30t-32 7q-37 0-74-15t-37-41q0-21 16-30.5t33-9.5q9 0 31 6z m232 11q17 0 30 11t13 28q0 25-23 38t-51 13q-24 0-44.5-11.5t-20.5-36.5 24-29 43-8z m228-0.5q-29 26.5-53 26.5-17 0-25.5-11t-8.5-25q0-10 4-18 0-4 29.5-35.5t48.5-31.5q15 0 24.5 14t9.5 26q0 28-29 54.5z m-222-157.5q19 0 33 7t14 29q0 21-23 33t-59 12q-27 0-42.5-8.5t-15.5-23.5q0-18 16-29t46-16z m229-44q-6 21-34 42t-53 21q-18 0-28.5-12.5t-10.5-22.5q0-25 41-51t51-26q12 0 24 13.5t12 26.5q0 3-1 5t-1 4z m-79-111q-34 22-63 22-13 0-21.5-11t-8.5-22l2-13q0-4 33.5-31.5t62.5-27.5q15 0 22 11t7 23q0 27-34 49z m-265-539.5q13-11.5 24-11.5 7 0 39 11.5t56.5 20 24.5 27.5q0 18-16 25.5t-33 7.5q-30 0-69-18t-39-34q0-17 13-28.5z m152-28.5q-29-2-61.5-21t-32.5-40q0-14 11.5-24t25.5-10q19 0 33 8t49.5 17.5 35.5 33.5q0 17-14.5 27t-37.5 10z m-37.5-237q10.5-11 26.5-11 10 0 23 6l23 12q3 0 32 15.5t29 44.5q0 17-12.5 24t-29.5 7q-29 0-65.5-24.5t-36.5-51.5q0-11 10.5-22z m-234.5 244q-28-2-61.5-31t-33.5-56q0-11 9-23t24-12q18 0 57.5 34.5t39.5 55.5q0 14-10.5 23t-24.5 9z m5-229q9-13 28-13 7 0 14.5 5.5t14.5 13.5l13 16q4 5 22 24t18 33q0 17-12.5 23.5t-23.5 6.5q-32 0-57.5-28t-25.5-54q0-14 9-27z"/></svg>