<svg viewBox="0 0 2600 2760.837" xmlns="http://www.w3.org/2000/svg"><path d="M899 589.5q96-130.5 263-209.5l22-9q23-9 55.5-17.5t55.5-8.5q20 0 34 8t14 30q0 43-50 95.5t-50 93.5q0 99 177.5 101.5t254.5 74.5 77 176q0 125-106 214.5t-310 89.5q-199 0-366-97t-167-262q0-149 96-279.5z m257 1215.5q-233-18-402-141.5t-169-326.5q0-107 48-197.5t104-90.5q39 0 39 48t59 110.5 197 107.5 283 45q132 0 241.5-43t178.5-109 88.5-103.5 45.5-37.5q52 0 85.5 80.5t33.5 174.5q0 232-204.5 360.5t-509.5 128.5q-30 0-59-2z m987 332q-124 149-356.5 234.5t-495.5 85.5q-206 0-455-62t-376.5-218.5-127.5-331.5q0-124 54.5-216t112.5-92q9 0 22 5.5t38.5 69.5 121.5 136.5 250.5 121.5 354.5 49q295 0 497-102t268-297l7-19q6-17 16-27t25-10q46 0 107 98.5t61 231.5q0 194-124 343z"/></svg>