<svg viewBox="0 0 2600 2760.837" xmlns="http://www.w3.org/2000/svg"><path d="M2250.5 2017.5q-137.5 201.5-376 310t-604.5 108.5q-444 0-751.5-239t-307.5-678q0-197 55-396.5t141-371 177-300.5 119-143.5 46-14.5q43 0 67.5 40t44.5 119.5 51.5 126.5 87.5 47q37 0 71.5-35t67-116.5 73-141 80.5-59.5q37 0 67.5 27t63.5 103l31 71q29 67 65.5 112.5t75.5 45.5q31 0 62.5-35t81.5-151l24-58q20-47 45.5-68t52.5-21q25 0 56.5 25t158 222 219.5 443 93 520q0 306-137.5 507.5z m-291.5-870.5q0-47-32.5-80t-78.5-33h-1096q-46 0-78.5 34t-32.5 79v493q0 45 33 78t78 33h1096q45 0 78-32t33-79v-493z"/></svg>