<svg viewBox="0 0 2600 2760.837" xmlns="http://www.w3.org/2000/svg"><path d="M318 535.5q101-104.5 226-104.5 105 0 167 52.5t62 129.5q0 49-29.5 81.5t-71.5 55.5l-50 27q-98 53-126 130t-58.5 116.5-69.5 39.5q-62 0-106.5-79.5t-44.5-178.5q0-165 101-269.5z m1427.5 6q95.5 110.5 95.5 262.5 0 93-44 176t-107 83q-59 0-97.5-89t-60.5-121.5-134.5-94.5-112.5-149q0-74 64.5-126t159.5-52q141 0 236.5 110.5z m602 747.5q-70.5 65-173.5 65-20 0-40.5-2.5t-40.5-8.5q31 100 40.5 205t9.5 204q0 37-2.5 73.5t-2.5 73.5q0 20 1.5 40t1.5 39q0 92-63.5 116t-132.5 24q-66 0-109.5-26t-43.5-88q0-44-5-89t-32-45l-24 1-35-1q-45 0-55 23t-10 92q0 23 3 45t5 44l8 128q0 21 3.5 41t3.5 39q0 66-74 92.5t-164 26.5q-76 0-117.5-24.5t-41.5-73.5q0-35 5-69.5t5-69.5v-20l-10-95t-83-76q-20 0-39.5 3t-38.5 3q-4 0-7-1h-6q-19 0-25.5 13t-6.5 33q0 11 1 22t1 19q0 38-1.5 76.5t-1.5 76.5q0 110-52 154.5t-144 44.5q-59 0-114-19.5t-69.5-51.5-14.5-84q0-26 6-90t6-240q0-24 3-35.5t14-11.5q13 0 23.5 4.5t21.5 4.5q9 0 23-7t14-19q0-7-4-10t-15.5-7.5-77-34-152.5-126-135-241.5-48-316q16 3 33 3 69 0 116-55t71-128.5 107.5-114.5 133.5-95.5 50-131.5q0-34-10-66t-27-59l42-10q38-8 85.5-14t88.5-6q47 0 95.5 6.5t88.5 17.5l38 10q-34 57-34 124 0 64 37 115t119.5 97 100.5 65 42.5 86 69 113 108.5 46q23 0 51-13.5t49-49.5 37-36q11 0 22 5l20 10q38 20 68 43.5t56 53.5q23 5 45 8t43 3q63 0 120-20t120-50l27-14q15-7 30-7 19 0 29.5 15t10.5 42q0 98-70.5 163z m-1601-74.5q-25.5-29.5-60.5-29.5-36 0-62.5 29t-26.5 71 26.5 71.5 61.5 29.5q36 0 61.5-30t25.5-70q0-42-25.5-71.5z m451 470.5q-7.5-8-18.5-8-10 0-24.5 9.5t-37.5 9.5q-26 0-42.5-10.5t-16.5-30.5v-14q60-5 89.5-29.5t29.5-69.5-46-74.5-107-29.5-103.5 30.5-42.5 83.5q0 37 30.5 62.5t89.5 28.5v7q0 26-17 35t-37 9q-12 0-20.5-2.5t-16.5-5.5l-13-6q-7-2-16-2-11 0-19 7.5t-8 19.5q0 19 25 34.5t59 15.5q31 0 62.5-11t33.5-11q3 0 11 4l4 2q14 7 32 11t36 4q32 0 61.5-14.5t29.5-35.5q0-11-7.5-19z m236.5-470.5q-26-29.5-61-29.5t-61.5 29.5-26.5 71.5q0 40 25.5 70t61.5 30q35 0 61.5-29.5t26.5-71.5q0-41-26-70.5z"/></svg>