<svg viewBox="0 0 2600 2760.837" xmlns="http://www.w3.org/2000/svg"><path d="M2351.5 2001q-159.5 280-441.5 445.5t-611 165.5q-326 0-606-162.5t-442.5-442.5-162.5-606 162.5-606 442.5-442.5 606-162.5q329 0 611 165.5t441.5 445.5 159.5 600-159.5 600z m-1341-1507.5q-136.5 44.5-252.5 124.5l1319 1331q82-117 128-255.5t46-292.5q0-255-128-475.5t-348.5-348.5-475.5-128q-152 0-288.5 44.5z m-125.5 184.5q16-41 54.5-65.5t150-38 206.5-13.5q153 0 286 27t133 141v789l-75-77v-610h-603z m333-41q-5 0-9.5 4t-4.5 10 4.5 10 9.5 4h155q14 0 14-14t-14-14h-155z m334 44q8 8 19 8t19.5-8 8.5-20q0-11-8.5-19t-19.5-8-19 8-8 19q0 12 8 20z m52.5 1621.5q144.5-49.5 264.5-139.5l-1327-1338q-92 121-143 266.5t-51 309.5q0 254 127.5 475t348.5 348.5 475 127.5q161 0 305.5-49.5z m110.5-225.5v2q0 51-35.5 93t-159 58-224.5 16q-102 0-225.5-16t-159-58-35.5-93v-851l76 76v665h657z m-148-79h-63v12h50v26h13v-38z m-20 18h-69v44h69v-44z m-12 33h-45v-20h45v20z m-183-31l-41-17-41 17v42h82v-42z m-41-4l28 13v22h-58v-22z m-213 50q19 0 30-6t11-22q0-17-11-23t-30-6h-12v-10l-22 16 22 16v-10h12q29 0 29 17t-29 17h-28v11h28z"/></svg>