<svg viewBox="0 0 2600 2760.837" xmlns="http://www.w3.org/2000/svg"><path d="M2286 940q19 45 27.5 100t8.5 109q0 65-15 118t-48 112l-36 63-564 1013q-51 93-130 93-53 0-126.5-47.5t-303.5-189-409-234.5l-148-77q-83-42-106.5-64.5t-48-80.5-24.5-151q-37-33-61-79t-24-96q0-67 48.5-117t109.5-50q32 0 61 12 22-29 45.5-58.5t45.5-59.5l13-19-13-2q-7 0-13-1-28 0-47 16t-22.5 50-5.5 34l-41-1-11 2q-6 2-11 2-11 0-14-11t-3-23q0-74 49.5-123.5t112.5-49.5q42 0 81 21l99-137h-13q-31 0-49 16.5t-18 39.5l1 14v9q0 9-3 15.5t-10 6.5q-6 0-12.5-2.5t-12.5-2.5q-4 0-26-4.5t-22-28.5q0-69 48-118t111-49q37 0 70 15l89-121-15-1q-24 0-42 11.5t-24 37.5l-7 29h-3l-2 1q-9 0-19.5-3.5t-18.5-5.5q-5 0-12 1t-12 1q-12 0-12-16 0-68 50-114t106-46q40 0 77 19l36-50q18-24 38-48-29 5-44.5 17t-26.5 48q-11 0-25.5-6t-26.5-6q-9 0-15.5-2.5t-6.5-11.5q0-17 16-52.5t55.5-62 81.5-26.5q31 0 63 12l81-100h-7q-25 0-46.5 18t-24.5 46q-11-2-21-7t-20-5q-12 0-23.5-2t-11.5-13q0-6 3-12l4-10q13-52 55.5-85.5t91.5-33.5q28 0 55.5 10.5t51.5 27.5q10-2 19-2 42 0 78 14.5t67 30.5l4 1q244 115 350.5 176.5t266 156 187.5 193.5v6z m-1709 494q14 19 28 47.5t14 55.5q0 17-15.5 27.5t-33.5 10.5q-14 0-27.5-8.5t-17.5-28.5q0-5-3-12l-7-11q-14 20-27 41t-20 41q26 5 54 20l48 26 26 13q35 18 69.5 37t70.5 40l67 37q230 130 407.5 240.5t224.5 140.5 69 30q9 0 19-8t24-33l607-1090 16-30q8-15 13.5-28t5.5-21q0-30-38-67t-113-82l-54-32q-95-57-237-133.5t-309-157.5l-26-13q-12-5-23-9 0 7 2 13t2 14q0 17-14.5 27t-31.5 10q-16 0-29.5-9.5t-17.5-30.5l-7-16q-23 26-44.5 53.5t-43.5 54.5q16 20 29.5 49.5t13.5 53.5q0 17-14.5 26t-32.5 9q-15 0-28.5-8.5t-17.5-29.5l-3-8q0-5-2.5-8.5t-4.5-8.5q-23 29-44.5 58t-42.5 59q11 17 22.5 42t11.5 48q0 17-15.5 28t-32.5 11q-16 0-29-9.5t-18-29.5q0-6-3-9l-45 61-44 62q14 19 26.5 46t12.5 49q0 15-13 25.5t-30 12.5q-26 0-37-10.5t-20-40.5l-53 74q-26 37-53 73 13 17 22.5 41t9.5 44q0 17-15.5 27.5t-32.5 10.5q-14 0-29-8.5t-18-25.5z m635.5-583q11.5-23 34.5-53l23-30q33-42 62-64.5t58-22.5q41 0 135.5 46t228 118.5 169.5 101 36 54.5q0 18-21.5 49t-64.5 99.5-78 68.5q-28 0-41.5-11t-45-20.5-67.5-33-131-68-181-92.5-109-70q-8-7-13.5-16t-5.5-18q0-15 11.5-38z m632.5 172q3-3 3-8 0-20-49.5-46t-170.5-88.5-149-82.5-75-28h-4q-17 0-51 43t-34 61q0 12 36 29.5t52 29 142.5 71 170 79.5 61.5 20q16 0 29.5-14.5t27.5-42.5z m-1478 562q8-34 24-63t34-55q-33 3-49.5 23t-16.5 51q0 20 8 44z"/></svg>