<svg viewBox="0 0 2600 2760.837" xmlns="http://www.w3.org/2000/svg"><path d="M1316 1563q30-44 55.5-152.5t101.5-216.5 167-154l41-21q15-7 15-22t-45-53-74-98-29-142q0-138 95-227.5t234-89.5q140 0 235 90t95 234q0 82-30.5 140t-74 94.5-43.5 51.5 15 22l41 21q140 70 233 273.5t93 341.5q0 82-35 127.5t-88 45.5q-41 0-73.5-26.5t-32.5-65.5q0-42 4-75.5t4-67.5q0-56-24.5-129.5t-45.5-73.5q-12 0-18 6t-6 25q0 20 6 49l11 63q6 34 11.5 70.5t5.5 69.5q0 84-31.5 138.5t-31.5 243.5q0 78 8.5 134t28.5 71 39.5 38 19.5 55q0 45-32 66t-87 21q-91 0-134-38t-43-116q0-39 7-123t7-143q0-52-7-87.5t-27-35.5-26.5 35-6.5 86q0 33 3 70l10 140q2 32 2 56 0 78-42 117t-136 39q-54 0-86.5-21t-32.5-66q0-32 19.5-54.5t39.5-38.5 28.5-72.5 8.5-132.5q0-190-32-244.5t-32-137.5q0-34 5.5-70.5t11.5-70.5l12-64q5-29 5-48 0-17-4.5-23t-16.5-6q-37 0-89 203.5t-171 203.5q-28 0-48-10-20 10-47 10-119 0-171-203.5t-89-203.5q-12 0-16.5 6t-4.5 23q0 19 6 48l11 64q6 34 11.5 70.5t5.5 70.5q0 83-32 137.5t-32 244.5q0 76 8.5 132.5t28.5 72.5 39.5 38.5 19.5 54.5q0 45-32.5 66t-86.5 21q-94 0-136-39t-42-117q0-24 3-56l10-140q2-37 2-70 0-51-6.5-86t-26.5-35-27 35.5-7 87.5q0 59 7 143t7 123q0 79-43 116.5t-134 37.5q-55 0-87-21t-32-66q0-32 19.5-55t39.5-38 28.5-71 8.5-134q0-189-31.5-243.5t-31.5-138.5q0-33 5.5-69.5t11.5-70.5l12-63q5-29 5-49 0-19-6-25t-18-6q-21 0-45.5 73.5t-24.5 129.5q0 34 4 67.5t4 75.5q0 39-32.5 65.5t-73.5 26.5q-53 0-88-45.5t-35-127.5q0-136 92.5-340.5t233.5-274.5l41-21q15-7 15-22t-43.5-51.5-74-94.5-30.5-140q0-144 95-234t235-90q137 0 233 89.5t96 227.5q0 82-29 142t-74 98-45 53 15 22l41 21q97 48 173.5 163t101 227.5 65.5 153.5q5-5 9-11z"/></svg>