<svg viewBox="0 0 2600 2760.837" xmlns="http://www.w3.org/2000/svg"><path d="M2262.5 1036q36.5 39 36.5 83 0 38-29 66.5t-70 28.5q-8 0-12-2-13 31-28 61t-38 57q12 44 12 86 0 74-33 142.5t-93 108.5q4 11 9 29.5t11 40.5l11 47q5 25 8 49 58 18 93 58t35 91q0 34-17 67.5t-47 51.5l-15 9q-8 5-15.5 8.5t-11.5 4.5q-10 27-30 50t-50 23q-17 0-31-7.5t-14-24.5q0-9 5-16.5t10-13.5q-24-4-48-12.5t-41-25.5q-14 11-26.5 19.5t-27.5 14.5l-10 25q-10 24-25.5 36.5t-36.5 12.5q-16 0-28.5-7.5t-12.5-25.5q0-9 3.5-15.5t9.5-14.5q-71-12-93-56t-22-84q0-42 17-75.5t45-61.5l-12-27q-46 38-120.5 62t-90.5 30l6 42q2 21 6 43 68 16 104.5 69t36.5 131q0 53-29 80t-76 42q-11 38-32.5 62.5t-62.5 24.5q-20 0-34.5-11t-16.5-37q0-7 3.5-13t6.5-13q-47-5-83.5-29t-50.5-79q-8 55-41.5 78.5t-84.5 28.5q-14 34-36.5 54t-55.5 20q-23 0-40.5-11t-17.5-37q0-12 4-18.5t10-15.5q-56-16-85.5-50.5t-29.5-90.5q0-72 43-119t109-64v-82q-158-29-235-119t-77-203q0-20 4.5-39t4.5-33q0-5-4-6h-8q-14 0-30.5 5t-35.5 5q-57 0-111-18t-103-69.5-73-88.5-24-97q0-64 39-140t113-150l48-49q9-9 19-20.5t10-15.5q0-11-22-44.5t-22-96.5q0-156 137-252t310-96q112 0 214 21.5t184.5 83.5 149 138 79.5 188q0 58-9 114.5t-9 114.5q0 55 11.5 110.5t30.5 108.5l16 48q8 25 8 48 0 96-79.5 162t-184.5 66q-63 0-113-32t-102-152q-4 0-4 8 0 125 59 195.5t168 70.5q135 0 230.5-86.5t95.5-230.5q0-20-1-30l-2-8q-6-35-17-70l-21-69q-11-34-19-68.5t-8-69.5q0-26 3-50.5t3-47.5q51 4 109 34.5t95 80.5l24 32q11 15 21.5 25.5t18.5 10.5h23q47 0 100.5 28.5t82.5 78.5q16-15 22-31.5t17-34.5q-26-12-44.5-34.5t-18.5-51.5q0-46 34.5-78.5t77.5-32.5q48 0 84.5 39z m-1222 355q78.5-28 78.5-79 0-14-2-28.5t-2-28.5q0-55 12.5-107.5t32.5-101.5l4-8 12-30q2-7 2-9t-10-3h-38l-23 1q4 11 4 26 0 30-21.5 53.5t-49.5 23.5q-27 0-45-20t-18-50q0-9 2-19t7-19q-42 0-82-8l-78-14q0 29-19.5 52t-47.5 23q-25 0-42.5-19t-17.5-45q0-22 12-40-5-3-11-7.5t-11-6.5h-10q-9 4-34.5 82t-32.5 137q20-11 33.5-16t35.5-5q56 0 97.5 29t41.5 68q0 37-32 59.5t-81 22.5q-40 0-70-15 33 62 97 96t143 34q85 0 163.5-28z m293.5 632q-4-18-7-36l-6-36q-36 0-70 4t-69 4q-17 0-34-1t-34-3q0 18-1 36t-1 35q36 17 64 47t42 79q10-38 35.5-69t61.5-50z m487-320q-11 0-21.5 2t-21.5 10q0 24 2 40l3 30q0 13 2.5 25.5t3.5 27.5q23 7 43.5 19t37.5 31q9-11 17.5-19.5t19.5-16.5q-18-39-44-77.5t-42-71.5z"/></svg>