<svg viewBox="0 0 2600 2760.837" xmlns="http://www.w3.org/2000/svg"><path d="M2473 1545l5 43q2 19 2 26 0 87-54 145.5t-197 108.5l-78 27q31 48 43.5 96.5t12.5 105.5q0 136-111.5 204t-623.5 205q-84 23-155 45t-131 22q-58 0-113.5-23t-142.5-88l-121-93-383-297q-95-73-201-157t-106-170q0-18 8-44l8-26q6-20 13-46l15-56q13-47 21-86.5t8-53.5q-6-14-14-38t-8-44q0-53 47-92t189-73l6-23q-8-6-105-82.5t-97-161.5q0-21 5-35.5t11-35.5l27-104 14-58q6-27 10-49.5t4-32.5q-6-14-13.5-37.5t-7.5-43.5q0-100 159-143.5t319-60.5l228-25 62-6q31-2 63-2 143 0 256 72t464.5 336.5 415 351.5 69.5 223q95 81 130 132t47 144z m-1348 904q21-58 27.5-85t6.5-49q0-37-2.5-74.5t-16.5-70.5q-11-4-89-58.5t-195-142.5l-153-113q-78-58-153-115l-236-180q-41-31-50-39-4 64-24.5 136.5t-20.5 73.5l-1 11q0 32 34 68.5t180 146.5l120 90q66 49 134 98l133 97q65 48 117 85l126 90q17 11 31.5 18t31.5 13z m-816-1544l-1 10q0 28 22.5 55t71.5 67l63 51q15 13 34 27l38 29q20 15 40 29l465 338 110 79q17 11 31.5 19t30.5 13q14-30 24.5-64.5t10.5-69.5q0-74-17-145-15-5-122-80t-192-140l-125-97-234-178-204-154q-2 65-24 136.5t-22 74.5z m1030 700l-5 15q-3 7-5 9 25-5 80.5-19t127.5-33l152-41q377-100 416.5-132t59-66.5 19.5-71.5q0-35-28-62t-78-27q-81 0-267 50t-248 64l-103 23q-15 4-62.5 14t-53.5 10q8 33 12 63t4 62q0 58-7 91t-14 51z m726.5 426q-27.5-27-77.5-27-78 0-254.5 47.5t-261.5 67.5l-104 23q-16 4-62.5 14t-51.5 10q17 63 17 127 0 42-8 84.5t-24 78.5q11-2 47-10.5t89-22.5l116-30 130-35q359-98 392-126t56.5-60 23.5-77q0-37-27.5-64z m273-495q-28.5-28-80.5-28-49 0-135 18t-250 66l-343 96q7 28 10.5 55t3.5 57q0 83-31 160 12 0 57-13l109-28q375-95 531.5-150.5t156.5-169.5q0-35-28.5-63z m-1114.5 510q8-1 18-3l24-5q13-3 34-6-23-14-46.5-29.5t-50.5-35.5l-120-93q-16-12-108.5-83t-142.5-110l-133-104q-66-51-118-93l-86-68q-47-37-63-61.5t-24-40.5q-46 14-73 29t-27 36q0 9 6.5 18.5t108 93 240.5 191.5l133 103q66 51 123 94l100 75q90 68 122 80.5t66 12.5q9 0 17-1z m-227-1359q142-14 177-25t104-21l15-3q14-2 23.5-8t9.5-14q0-9-14-24t-31-29l-21-16q-20-17-39.5-29.5t-47.5-12.5q-27 0-251.5 24t-224.5 63q0 23 50 66t101 43z m-505 551q0 4-1 9 0 40 50 85t165 131l120 90 266 195 116 84q52 38 86 62l40 28q17 11 32 19t31 13q12-29 23.5-64.5t11.5-70.5q0-25-2-50.5t-5-49.5q-44 14-80.5 20t-68.5 6q-77 0-145-38.5t-139-94.5l-157-123-110-85-232-177z"/></svg>