<svg viewBox="0 0 2600 2760.837" xmlns="http://www.w3.org/2000/svg"><path d="M2479.5 1777.5q-50.5 44.5-215 95.5t-266.5 51q-71 0-105-47t-48-135-32-88q-13 0-14 25l-20 191-34 290q-19 165-28 216.5t-72.5 83-157.5 44.5-187 13q-129 0-225-20.5t-138-47.5-50.5-50.5-18.5-113.5l-31-271-37-335q0-25-14-25-19 0-42 135t-143 135q-47 0-122.5-14t-134.5-34l-58-20q-142-48-179.5-92.5t-37.5-179.5q0-67 14.5-190.5t60.5-345.5l30-150q4-20 24.5-131.5t20.5-141.5v-25q0-13-1-27 0-50 15-71.5t47-21.5q22 0 60 14l80 30q43 17 85 31t72 14q35 0 98-39.5t156.5-113.5 137.5-93.5 58-19.5q35 0 99 44t79.5 60.5 45.5 44.5q-85 90-163 194t-78 139q0 11 7.5 16.5t15.5 5.5 15.5-3.5 33.5-37.5l89-117q35-45 81.5-95.5t70.5-75.5l28-29 30-30q46-44 101-80t87-36h8q10 0 53 19.5t141.5 96 157.5 113.5 92 37q45 0 154.5-44.5t142.5-44.5q34 0 49 22t15 68q0 16-1 31.5t-1 28.5q0 29 22 144.5t24 123.5l30 149q39 194 56.5 325t17.5 211q0 150-50.5 194.5z m-717.5-582.5q0-105-10-128t-39-23h-11q-88 8-174 11t-174 3q-231 0-343.5-9t-158.5-9q-14 0-21.5 8t-7.5 35q0 8 1 15.5t1 15.5v82q104 22 226 33t249 11q124 0 243.5-11t218.5-34z m-944-271q0 4-1 15 0 23 6.5 26t53 9.5 165.5 13.5 258 7q77 0 155-3l109-3q87-2 137-7.5t53.5-7.5 3.5-16q0-29-12-36t-99-30-155-23q-45 0-114.5 15t-77.5 16l-27-5q-24-6-84.5-16t-93.5-10q-113 0-196.5 27.5t-80.5 27.5z m940 420l1-67q-53 10-147.5 22.5t-222.5 17.5l39 45q4 6 6.5 12t2.5 14q0 16-11 27t-29 11q-17 0-30-13l-64-77-64 77q-13 13-31 13-17 0-28-11t-11-27 9-26l39-45q-142-5-241.5-18t-149.5-23v64l-1 71q0 53 37.5 69.5t167.5 34 281 17.5q108 0 209.5-9.5t169.5-28.5 68-88v-62z"/></svg>