<svg viewBox="0 0 2600 2760.837" xmlns="http://www.w3.org/2000/svg"><path d="M2109.5 1966q-109.5 102-217.5 129l-85 21q-106 27-131.5 66t-80.5 85-137.5 77-183.5 31q-142 0-240-52.5t-130-112.5-132-86-191.5-88.5-145.5-165-54-224.5q0-48 14.5-131.5t31-179 37.5-165.5l16-54q3-12 3-22 0-20-21.5-50t-37.5-78-16-105q0-128 87-215t217-87q47 0 100 17.5t103 47.5l43 31q6 4 8 4 3 0 10-3l23-7q66-20 134.5-29t140.5-9q139 0 277 39l47 14q23 8 50 8 16 0 32-12t72-37 122-25q130 0 217 87.5t87 217.5q0 85-38.5 144.5t-38.5 87.5q0 21 11.5 52.5t31.5 146.5 47.5 212.5 27.5 171.5q0 146-109.5 248z m7.5-210q-59 63-147.5 103t-181.5 40q-20 0-38-6.5t-18-25.5q0-23 69.5-35t169.5-74 132-151l-6-28q-50 75-152.5 122t-196.5 47q-19 0-33.5-4t-14.5-17q0-20 43.5-31t148-76.5 167.5-203.5q-5-15-6.5-31t-5.5-32q-17 18-44.5 32t-53.5 44l-29 34q-15 17-29 28.5t-29 11.5q-11 0-11-14 0-11 16.5-39.5t16.5-63.5q0-40-18-71t-18-36q0-3 3.5-7t11.5-4q17 0 42.5 30.5t49.5 30.5q22 0 34-40.5t12-72.5q0-18-4.5-38t-9.5-39l-9-35q-5-16-5-27 0-8 3-11t13-3q13 0 25 14 6-18 14-33l16-28q19-31 26.5-56.5t7.5-58.5q0-84-56-143.5t-147-59.5q-33 0-62.5 10.5t-48.5 20.5l-41 20q-19 10-37.5 16.5t-41.5 6.5l-33-2-5-2q-33-4-70.5-18.5t-153.5-31.5q-9 3-13.5 11t-4.5 26q-4 0 106.5 22.5t110.5 60.5q0 11-13.5 15t-26.5 4h-8q-45-6-88.5-13t-88.5-11l-5 38q0 5 11 7.5t23 4.5l14 2 30 7q38 9 60.5 21.5t22.5 28.5q0 10-11 14t-22 4q-35 0-70-8t-69-12q-6 24-18.5 44.5t-33.5 26.5l-7 1q-24 0-38-19.5t-22-59.5l-29 2q-17 0-40 7t-34 7q-10 0-25.5-8t-15.5-21q0-16 32.5-28.5t102.5-19.5l-2-42q-38 4-76.5 12.5t-77.5 8.5q-14 0-30-3t-16-14q0-13 16-23.5t50-21.5l27-8q25-8 50.5-14.5t53.5-9.5q-2-13-9.5-27t-22.5-14q-37 5-74.5 11.5t-73.5 17.5l-9 3q-11 4-25 6.5t-29 2.5q-28 0-49-12t-38-25l-28-18q-29-18-67-31.5t-71-13.5q-90 0-146.5 59.5t-56.5 143.5q0 75 36.5 129t37.5 93q6-9 14-17t18-8q8 0 8 11 0 14-5 33l-6 25q-8 17-10 29.5t-2 33.5q0 50 20.5 82.5t37.5 32.5q5 0 12-6l14-12q8-7 16.5-12.5t18.5-5.5q11 0 11 10 0 13-19.5 32t-19.5 76q0 61 16.5 94t16.5 42q0 4-1.5 5.5t-5.5 1.5q-26 0-56-38t-34.5-63.5-34.5-45.5-57-74l-3 8q3 145 62.5 225t147.5 112 88 66q0 13-10 21.5t-30 8.5q-93 0-175.5-40.5t-128.5-119.5q0 60 14.5 96.5t42 72.5 70 59 108 49 65.5 46q0 10-25 18t-61 8q-27 0-53-5t-52-14q20 28 91 63t159 61.5 132 97 126.5 102 171.5 31.5q114 0 198-46t129-111 193.5-100 229-106 93.5-155z m-517-90q-8 15-10 30.5t-2 30.5q0 24 5 48l11 49 10 50t5 49q0 90-98 140.5t-240 50.5q-116 0-230.5-47.5t-114.5-166.5q0-34 16-89.5t16-96.5q0-23-5.5-44.5t-22.5-38.5q-91-22-143.5-76.5t-52.5-132.5q0-31 12.5-58t37.5-27q23 0 28.5 52.5t83 96.5 169.5 44q71 0 109-29.5t38-86.5v-11q0-5-1-11-72-17-141.5-56t-108.5-96q-9-14-11.5-22t-2.5-13q0-14 12-19t30-5q17 0 36 4l33 7q54 11 110 26t112 15q47 0 123-18t124-18h19q17 0 26.5 6t9.5 16q0 11-8 25.5t-17 25.5l-9 12q-34 37-98 68.5t-113 42.5l-3 15q-2 7-2 15 0 43 19.5 67t97 36 119.5 12q65 0 119-24.5t67-93.5l3-16q2-15 8-28t15-13q17 0 28.5 20.5t11.5 42.5q0 91-56.5 153t-163.5 74q-3 3-5 6z m-149 310.5q48-31.5 48-87.5 0-79-60.5-143t-157.5-64q-87 0-152.5 59t-65.5 144q0 51 27.5 71t92 36 131.5 16q89 0 137-31.5z m348.5-1214.5q40.5-24 84.5-24 56 0 91.5 37.5t35.5 96.5q0 42-22.5 89t-48.5 47q-24 0-56.5-55t-78.5-82.5-46-54.5q0-30 40.5-54z m-1193.5 194.5q-25-43.5-25-92.5 0-59 32.5-96.5t91.5-37.5q37 0 80.5 19t43.5 54q0 28-46 58t-75.5 84.5-52.5 54.5q-24 0-49-43.5z m997.5 155.5q-32.5-30-32.5-71 0-32 23-57t62-25 71.5 30 32.5 71q0 34-23.5 58t-61.5 24q-39 0-71.5-30z m-692.5 28q-30-8-48.5-31t-18.5-54q0-41 30.5-69.5t67.5-28.5q39 0 63.5 24.5t24.5 59.5q0 42-30 71.5t-70 29.5z m-209.5 18.5q-38.5-26.5-38.5-64.5 0-36 25-67t48-31q10 0 12.5 4.5t2.5 10.5q0 8-3 18l-12 40q-3 9-3 13 0 19 13.5 29t30.5 16l30 12q13 6 13 16 0 12-10.5 21t-27.5 9q-42 0-80.5-26.5z m1242 17.5q-14.5 17-51.5 17-40 0-66.5-11.5t-26.5-32.5v-7h46q25 0 41.5-9t16.5-39q0-12-1-19l-3-12q-2-5-3-10.5t-1-14.5q0-14 11-14 18 0 35 33t17 70q0 32-14.5 49z"/></svg>