<svg viewBox="0 0 2600 2760.837" xmlns="http://www.w3.org/2000/svg"><path d="M2170 1702q14 6 20.5 18t6.5 26v101q0 23-16 37t-33 14q-6 0-12-2l-11-4-52-26v554q0 21-14.5 35.5t-36.5 14.5h-1449q-21 0-36-14.5t-15-35.5v-554l-52 26-10 4q-6 2-12 2-21 0-35-15.5t-14-35.5v-101q0-14 6.5-26t19.5-18l538-284v-53q0-5 2-11t2-11l256-558v-315h-153v-149h153v-134h148v134h155v149h-155v315l256 558q2 4 3.5 10.5t1.5 11.5v53z m-721 668h84v-956h-470v956h88v-200q0-62 44.5-106t104.5-44q59 0 103 42t46 103v205z m-1173.5-1937q55.5-57 144.5-57 25 0 46 7.5t45 7.5q13 0 23-9.5t19-23.5l18-29q23-37 70.5-64.5t95.5-27.5q77 0 132.5 63t55.5 147q0 96-77.5 209.5t-93.5 165.5-32 52q-22 0-55-19.5t-149.5-41-175.5-57-90.5-85.5-31.5-99q0-82 55.5-139z m2031.5 934.5q-73 68.5-218 68.5-34 0-68.5-2t-68.5-2h-30q-36 2-59 8.5t-42 6.5q-13 0-18-11t-5-24q0-8-1-14l-3-19q-2-9-8.5-37.5t-16.5-58.5l-26-77q-14-38-23.5-76.5t-9.5-79.5q0-99 61-164.5t140-65.5q60 0 113 44.5t69 104 45.5 58 90 12.5 106 57 45.5 114q0 89-73 157.5z m-334 448.5l-341-173v727h341v-554z m-1351 554h341v-727l-341 173v554z m1185.5-2056q44.5-44 93.5-44 37 0 73.5 24t53.5 61 36 37q16-2 29-4.5t28-2.5q58 0 99.5 38.5t41.5 94.5q0 31-15 62t-38 53-62.5 36.5-112.5 23-102 21-42 12.5q-14 0-22.5-38t-56.5-118.5-48-147.5q0-64 44.5-108z m-1167.5 1148q-41-15-70-21l-60-13q-113-24-151.5-73.5t-38.5-95.5q0-60 41-98.5t102-38.5q19 0 33.5 5t32.5 5q15 0 22.5-16t32-43.5 49.5-39 56-11.5q54 0 95 46t41 105q0 71-55.5 150.5t-66 116.5-24.5 37q-7 0-14-4l-13-7z m809 396q0 12-8.5 21t-19.5 9h-240q-14 0-22-9t-8-21v-170q0-63 45-106t104-43q61 0 105 43t44 102v174z m-239-29h61v-81h-61v81z m180-81h-60v81h60v-81z m-119-59v-86q-28 10-44.5 33.5t-16.5 52.5h61z m119 0q0-29-17-52.5t-43-33.5v86h60z"/></svg>