<svg viewBox="0 0 2600 2760.837" xmlns="http://www.w3.org/2000/svg"><path d="M2441.5 933.5q-17.5 47.5-27.5 79.5l-102 327-35 111-128 396q-24 74-47 149l-46 145-41 127q-3 10-48 146.5t-167 136.5q-40 0-89-12t-109-36l-719-272-192-72q-181-69-294.5-108t-185-79-71.5-111q0-29 10-65.5t23-67.5l15-39q68-178 142-356.5t145.5-354 139-359.5 110.5-230 107-46q45 0 308.5 53t637.5 158l365 103q66 18 90.5 28t89 28.5 100.5 49 36 87.5q0 36-17.5 83.5z m-460.5 68.5q-80-156-216-256-33 100-71 205.5t-64.5 182.5-88.5 77q-17 0-32.5-3.5t-32.5-8.5q31 56 31 118 0 105-77.5 177t-177.5 72q-103 0-172.5-70t-69.5-165q0-75 43-137.5t107-90.5q-36-13-50-32t-14-45q0-32 25.5-94t58.5-165l56-171q-195 16-367.5 125t-271 281-98.5 372q0 193 99.5 367.5t273.5 274.5 388 100q217 0 405.5-110t292-294.5 103.5-379.5q0-174-80-330z m-319-397l-25-6-116-31q-56-15-114-28l-14-3q-9 0-17-1-13 0-21.5 9t-67.5 182l-58 173-15 39q-8 20-13.5 37.5t-5.5 27.5q0 21 33 31.5t101.5 33 121.5 36.5l25 6q13 4 27 4 18 0 29.5-11.5t18-26.5 68-190.5 75.5-209.5 14-45q0-9-10.5-15t-35.5-12z"/></svg>