<svg viewBox="0 0 2600 2760.837" xmlns="http://www.w3.org/2000/svg"><path d="M2176 2054.5q-106 179.5-285.5 280t-383.5 100.5q-206 0-386-101.5t-285-279-105-385.5q0-207 105-384.5t285-279 386-101.5q26 0 56 4t52 4q28 0 60-30.5t73.5-57 82.5-26.5q23 0 47.5 5.5t47.5 13.5q25-36 38-77.5t13-83.5q0-116-84.5-197t-207.5-81q-91 0-200 47t-214 132.5-220.5 137.5-211.5 52q-13 0-20-1l-38-5q-51-6-81-21t-30-40 15-35 28-10q11 0 50.5 9.5t84.5 9.5q74 0 155-38.5t206.5-141 244.5-145.5 228-43q171 0 283.5 109t112.5 266q0 55-15.5 106.5t-43.5 99.5q54 40 79.5 83.5t25.5 102.5q0 23-5 49t-5 48q0 45 36 92.5t84 164 48 262.5q0 206-106 385.5z m-616-885.5l46-5q84-10 118.5-23t34.5-31q0-47-70.5-72t-181.5-25q-176 0-332 90.5t-245 241.5-89 322q0 106 43 197.5t86 91.5q27 0 41.5-27t14.5-61q0-17-1-30.5t-1-25.5q0-167 81.5-314.5t213.5-232.5 241-96z m-964-479q-19 19-46 19-26 0-45-19t-19-45q0-27 19-46t45-19q27 0 46 19t19 46q0 26-19 45z m-42.5 92q9.5 30 9.5 85 0 50-15 77t-42 27-42.5-20-15.5-49q0-40 28-95t52-55q16 0 25.5 30z m94.5 82.5q-31-50.5-31-102.5 0-16 6-23t14-7q22 0 73 48.5t51 87.5q0 20-13 33.5t-35 13.5q-34 0-65-50.5z m-192-156.5q0 25-47 77.5t-83 52.5q-20 0-33-14.5t-13-34.5q0-36 54-67.5t96-31.5q26 0 26 18z m159-167q0-48 39.5-103.5t75.5-55.5q17 0 35 11.5t18 29.5q0 50-60.5 96t-87.5 46q-20 0-20-24z m-339.5 65q-37.5-21-37.5-53 0-23 18.5-38.5t39.5-15.5q43 0 97.5 38.5t54.5 60.5q0 14-20.5 21.5t-51.5 7.5q-63 0-100.5-21z m265.5-92q-5 22-21 22-19 0-53-51t-34-88q0-24 13.5-43.5t39.5-19.5q23 0 41.5 30t18.5 103q0 25-5 47z"/></svg>