<svg viewBox="0 0 2600 2760.837" xmlns="http://www.w3.org/2000/svg"><path d="M2295 1537.5q-138 194.5-398.5 365t-377.5 277.5q-18 20-38 38l-40 36q-3 3-47 51t-91 52h-6q-52-3-100.5-59.5t-121.5-124.5-261-197l-140-96q-261-179-384-366.5t-123-415.5q0-243 165.5-429t405.5-186q140 0 253.5 39t202 107 106.5 68 103-65 201-107 254-42q244 0 409.5 182.5t165.5 432.5q0 245-138 439.5z m-633 404.5q23-17 47-33l47-31-1240-1240q-25 14-46.5 31t-42.5 37z m-151 116l44-36q21-18 44-35l-1222-1222q-34 44-61 99z m311-224l93-66-1188-1186q-36 0-69.5 5.5t-65.5 15.5z m-388 291l18-16-1167-1167q-8 32-12.5 68t-6.5 72l1105 1104q2 0 8-6l27-26q5-5 11-12t17-17z m543-404q23-17 44.5-34.5t41.5-36.5l-964-966q-59-39-124-62t-131-35z m142-126q20-20 38-41t35-44l-770-770q-3 2-36 26t-72 24z m117-150q17-26 30-52t25-52l-705-705q-28 13-52 27.5t-48 31.5z m-936 813q7-3 19-15l-1047-1046q14 78 19.5 98.5t30.5 68.5 63.5 101 137 152 170.5 158 217.5 155 203.5 148 92 86l37 37 19 22q9 11 18.5 21t19.5 14z m1025-1038q7-48 9-103l-533-534q-34 2-67.5 8.5t-67.5 16.5l651 649z m2-219q-4-27-9-51-6-23-15-44-130-299-393-323z"/></svg>