<svg viewBox="0 0 2600 2760.837" xmlns="http://www.w3.org/2000/svg"><path d="M1630.5 2047.5q-72.5 117.5-241 213t-402.5 161-409 65.5q-103 0-142-14.5t-39-48.5q0-20 23.5-53.5t23.5-85.5q0-38-11-73.5t-52.5-112.5-58.5-101.5-45-80-43.5-114-15.5-124.5q0-165 117.5-305t282.5-140q90 0 181 44t152 120.5 75 81.5 28 5q5 0 10-1l9-2q22-7 96.5-32.5t145.5-25.5q163 0 275.5 107t112.5 267q0 132-72.5 249.5z m701-1024q-49.5 73.5-113 110t-107.5 56.5-187 54.5-262 34.5q-38 0-76-3.5t-75-12.5l-8-3q-29-6-48-18.5t-19-26.5q0-9 19-41.5t19-62.5q0-56-57-183.5t-57-218.5q0-126 87.5-223t210.5-97q69 0 141 44t105.5 113 68.5 69q33 0 63-7.5t62-7.5q118 0 200.5 75.5t82.5 193.5q0 81-49.5 154.5z"/></svg>