<svg viewBox="0 0 2600 2760.837" xmlns="http://www.w3.org/2000/svg"><path d="M2214.5 1677.5q-69.5 63.5-145.5 63.5-5 0-9-1h-9q-55 169-183 268t-287 141l-47 10q-59 13-121 21t-120 8q-126 0-280-39.5t-284.5-142-181.5-266.5l-18 1q-76 0-145-64t-69-195q0-102 55.5-171t151.5-69q5 0 9 1t9 1q46-179 155.5-322t266.5-211.5 330-68.5q185 0 344.5 69.5t268.5 212.5 154 320q5 0 8.5-1t8.5-1q82 0 145 61.5t63 178.5q0 132-69.5 195.5z m-1691.5-39.5q-12-73-12-153 0-33 1.5-65t6.5-65q-59 10-85.5 42t-26.5 90q0 55 25.5 104t77.5 49q8 0 13-2z m1305 27q-4-20-9-40l-11-40q-7-24-10-50t-3-56q0-50 14.5-113.5t14.5-101.5q0-57-25.5-111.5t-58.5-84.5-62-41.5-91-11.5q-54 0-141.5 50.5t-142.5 50.5-146-50.5-146-50.5q-61 0-90.5 12t-62.5 42.5-58 83-25 111.5q0 38 14.5 103.5t14.5 113.5q0 28-2.5 53t-9.5 51l-11 39q-6 20-10 40t-4 41q0 140 144 238t377 98q261 0 402.5-100t141.5-234q0-22-4-42z m337.5-268q-26.5-32-85.5-42 2 33 4.5 65t2.5 65q0 39-2.5 77.5t-8.5 75.5q3 2 10 2 52 0 79-47.5t27-110.5q0-53-26.5-85z m-1176-111q27.5-34 66.5-34t67.5 33.5 28.5 80.5q0 48-28.5 81.5t-67.5 33.5q-40 0-67-34t-27-81q0-46 27.5-80z m486-0.5q28.5-33.5 67.5-33.5 37 0 66.5 33t29.5 81q0 49-29.5 82t-66.5 33q-39 0-67.5-33.5t-28.5-81.5q0-47 28.5-80.5z m97.5 570.5q-92 59-274 59-141 0-253.5-50.5t-112.5-109.5q0-48 100.5-79.5t289.5-31.5q174 0 258 27t84 77q0 49-92 108z m-335.5-354q18.5-13 64.5-13 34 0 56 9.5t22 30.5q0 23-21.5 41.5t-58.5 18.5q-29 0-55-17t-26-42q0-15 18.5-28z"/></svg>