<svg viewBox="0 0 2600 2760.837" xmlns="http://www.w3.org/2000/svg"><path d="M1451 608q26 0 45 18.5t19 44.5v103l-1 10v9q0 14-5 35t-23 42l-459 566v744q0 33-23.5 55.5t-54.5 22.5h-126q-32 0-55-23t-23-55v-744l-459-566q-18-23-23.5-43t-5.5-32q0-14 1-20.5t1-10.5v-93q0-26 17.5-44.5t43.5-18.5h1131z m815 0q31 0 54 23.5t23 54.5v1494q0 32-23 55t-54 23h-126q-33 0-56.5-23t-23.5-55v-1494q0-32 23.5-55t56.5-23h126z m-423 467q31 0 54.5 23t23.5 54v1028q0 33-23.5 55.5t-54.5 22.5h-127q-32 0-55-23t-23-55v-1028q0-31 23-54t55-23h127z m-422 358q32 0 55 22.5t23 55.5v669q0 32-23 55t-55 23h-126q-31 0-55-23.5t-24-54.5v-669q0-33 23.5-55.5t55.5-22.5h126z m-676-360v-236h-192z m473-236h-191v236z"/></svg>