<svg viewBox="0 0 2600 2760.837" xmlns="http://www.w3.org/2000/svg"><path d="M2250 1707q-41 79-147.5 168.5t-256.5 168.5-306 153.5-295.5 113.5-273.5 39q-18 0-39-3l-42-4q-156 0-299.5-75t-212.5-199-69-362q0-154 42-328t158.5-320 283.5-247 354.5-153 363.5-52q68 0 132.5 10.5t80.5 19.5 32 9q26 0 38.5-44t39-87 76-81 102.5-38 110.5 48.5 57.5 98.5q0 27-25.5 58.5t-69.5 63.5l-47 35q-3 2-31.5 20t-28.5 35q0 9 5.5 16.5t13.5 14.5l16 14q54 47 124.5 165.5t112 265 41.5 268.5q0 129-41 208z m-448-814q34-7 64-17.5t30-18.5q0-27-67.5-46.5t-138.5-19.5q-149 0-350.5 76.5t-366.5 197-234 246-79.5 226.5-28 110.5-27.5 9.5q-23 0-31.5-17.5t-8.5-37.5q0-22 18-133.5t116-256 281-266.5 389-177l76-21 67-18q-2-7-17-9.5t-32-2.5q-169 0-314.5 55t-293 142.5-243 203-140 278-44.5 320.5q0 63 8.5 112t17.5 85.5 38 86 72 85 87 53.5 64 18q38 0 38-54 0-17-2-35.5t-2-32.5q0-287 44.5-455t165.5-297.5 342.5-231.5 477.5-153z m98-226q10 0 92-60t82-74q0-17-18-33t-37-16q-18 0-35 12t-43 45l-10 17q-18 29-28.5 55t-10.5 43q0 11 8 11z"/></svg>