<svg viewBox="0 0 2600 2760.837" xmlns="http://www.w3.org/2000/svg"><path d="M2269.5 1051.5q-27.5 12.5-66.5 33t-89.5 36.5-76 27.5-53.5 11.5q-45 0-47.5-34t-26.5-109.5-44-75.5q-11 0-16 15t-5 24q2 30 8 59t6 59q0 56-38.5 147.5t-38.5 147.5q0 70 66.5 230.5t103 258 71.5 142 35 82.5q0 101-145 190.5t-290.5 131-314.5 41.5q-124 0-240.5-21.5t-208.5-60-205-113-113-166.5q0-40 35-85t67.5-134 102.5-253 70-245q0-54-38-145t-38-141q0-32 6.5-63.5t6.5-63.5q0-10-4.5-23.5t-14.5-13.5q-21 0-45.5 74.5t-27 109.5-45.5 35q-27 0-52-11t-77-27.5-91-37-66-32.5-27-29q0-13 11.5-33.5t11.5-72.5q0-20-1.5-39t-1.5-37q0-73 48.5-162t134.5-123 170.5-36 131.5-27l64-34q74-39 161-58t259-23h15q295 7 405.5 74.5t200 67.5 176 33.5 136.5 121 50 170.5q0 18-1 36.5t-1 38.5q0 50 12 72t12 32q0 15-27.5 27.5z m-1057-424.5q-39.5-6-115-34t-112.5-61l-20-18q-10-8-20-13.5t-20-5.5q-30 0-45.5 36t-15.5 92q0 85 59 143t145 58q70 0 127-60t57-96q0-35-39.5-41z m136.5 1385.5q-22-22.5-54-22.5t-54.5 22.5-22.5 54.5 22.5 54 54.5 22 54-22 22-54-22-54.5z m0-396.5q-22-23-54-23t-54.5 23-22.5 55 22.5 54.5 54.5 22.5 54-22.5 22-54.5-22-55z m0-395.5q-22-22.5-54-22.5t-54.5 22.5-22.5 54.5 22.5 54.5 54.5 22.5 54-22.5 22-54.5-22-54.5z m0-396.5q-22-23-54-23t-54.5 23-22.5 55 22.5 54.5 54.5 22.5 54-22.5 22-54.5-22-55z m358.5-293q-15.5-36-44.5-36-10 0-20 6t-19 14l-20 17q-31 27-111.5 59t-117.5 36.5-41 37.5q0 33 56 96t129 63q66 0 135-50t69-153q0-54-15.5-90z"/></svg>