<svg viewBox="0 0 2600 2760.837" xmlns="http://www.w3.org/2000/svg"><path d="M2356.5 2044.5q-32.5 108.5-97 187.5t-141.5 131.5-151.5 81-189.5 28.5q-214 0-391.5-109.5t-331-293-168.5-341.5q-19-4-58.5-9.5t-89.5-11.5l-105-13-104-14q-58-7-115.5-16.5t-107.5-39-81.5-78.5-31.5-108q0-36 12-68.5t29-61.5q-42-32-69.5-79t-27.5-101q0-50 24.5-97t61.5-77q-20-29-32.5-61.5t-12.5-68.5q0-68 45.5-129t114.5-82q-3-14-5-27t-2-26q0-92 70-156.5t152-64.5q64 0 123.5 33.5t205.5 121.5l182 111q93 57 142.5 85t60.5 28q6 0 6-5 0-6-14.5-42t-14.5-91q0-112 62.5-179t164.5-67q73 0 131.5 39.5t83.5 109 54 145.5 49 151l39 132 24 88q20 73 21.5 102.5t6.5 49.5h15q117 0 244 106.5t188.5 276 61.5 309.5q0 92-32.5 200.5z m-132-463.5q-46.5-129-148-220t-180.5-91q-33 0-48.5 13t-15.5 34q0 30 35 61.5t117 142 82 136.5q0 13-9.5 23.5t-23.5 10.5q-20 0-33-24t-56-85.5-107-133.5l-8-11-70-75q-61-61-123-115t-96-79l-24-17q-47-32-80-43.5t-59-11.5q-31 0-53.5 15t-22.5 33q0 10 7 22l42 41q51 50 130.5 136.5t141.5 162.5l16 17q14 17 23.5 31.5t9.5 25.5q0 14-10 22.5t-23 8.5q-22 0-36.5-24t-173.5-198-179-187-45-13-47.5 22.5-22.5 47.5q0 18 8 35t18 32l99 120q47 58 86.5 104.5t79.5 90.5l45 48q11 12 18.5 23t7.5 20q0 12-8.5 22.5t-25.5 10.5q-10 0-17.5-4.5t-64-67.5-142-165.5-117.5-144.5l-6-9q-4-3-8.5-5.5t-10.5-2.5q-17 0-34 21.5t-17 47.5q0 57 88 197.5t151 196.5 63 74q0 14-10.5 24t-24.5 10q-21 0-87-70.5t-108.5-135.5-53-86-25.5-21q-16 0-26.5 17.5t-10.5 57.5q0 61 35.5 136.5t157.5 213.5 265 220l38 21q43 25 118.5 45t159.5 20h36q115 0 239-86.5t172.5-198.5 48.5-226q0-134-46.5-263z m-1715.5-26l74 10 155 20q35 5 59 7l49 5q22 3 54 10 8-23 22.5-41.5t26.5-28.5q-10-25-16-51t-6-53q0-45 21.5-90t67.5-71v-10q0-73 54-131.5t133-58.5q21-36 55-59t79-30q3-14 11-27t8-27q0-24-85-67t-133-64q-39-26-83-54l-203-125-118-71-116-67q-18-11-34-15t-31-4q-37 0-68.5 31.5t-31.5 68.5q0 29 22 58.5t51.5 47 91.5 50.5l87 46 95 49q39 21 83 43t81 40q4-3 24-24t39-21q5 0 9.5 3.5t4.5 11.5q0 11-5 23l-9 18q-73 135-107.5 281.5t-37 217.5-25.5 71q-12 0-21.5-21.5t-12.5-45.5q-61-11-122-22.5t-113-22.5l-143-29-12-2q-6 0-13-1-43 0-73.5 32t-30.5 74q0 39 37 68t83 37z m865.5-926q8.5 28 33.5 93l39 106q5 14 6.5 27.5t1.5 24.5q0 35-13.5 56t-31.5 45q71 6 152.5 59.5t193.5 155.5v-15q0-62-17-124.5t-42-121.5l-42-155q-29-84-57.5-176.5t-51.5-119-75-26.5q-51 0-78 35t-27 87q0 21 8.5 49z m-1053 253q20.5 29 51 45.5t205.5 76.5l102 35q50 17 96 31l79 25q12-37 29.5-75t37.5-70q-26-11-67-30l-356-161q-14-6-43-19.5t-52-13.5q-43 0-73 32t-30 67q0 28 20.5 57z m-60.5 237q0 4-1 9 0 33 31 65.5t64.5 41.5 104.5 25l356 81q0-48 4.5-90.5t13.5-84.5q-59-17-127-38l-130-39q-63-19-111-35l-67-21q-10-3-19-4t-17-1q-38 0-63.5 24.5t-36.5 57.5z m654 954q12 0 15 13t3 24v19q0 47-4.5 96t-9.5 93l-7 67q-4 36-7.5 55.5t-3.5 36.5q0 28-8 41.5t-29 13.5q-15 0-82.5-17.5t-102-40-34.5-45.5q0-20 16-49.5t48-69.5l21-26q64-93 114.5-152t70.5-59z m-204.5-203.5q-19.5 20.5-91.5 79.5t-96 83-45 36.5-53 41.5-57 29q-50 0-85-85t-35-95q0-21 16.5-36.5t159.5-46.5 191.5-44.5 94.5-13.5q7 0 13.5 4.5t6.5 13.5q0 13-19.5 33.5z m1171.5-1220q-4-16.5-4-28.5 0-62 4-83t10-183.5 51-162.5q20 0 40 5t40 11l39 14q8 3 49 15t41 39q0 23-33 66.5t-109 167.5-84.5 140-24.5 16q-15 0-19-16.5z m578 274.5q3 13 3 26 0 18-14 27t-136 22.5-213 13.5q-53 0-53-22 0-20 57.5-51.5t112.5-64.5 102-64 78-31q9 0 24 20t23 43l6 28q3 15 5 31z"/></svg>