<svg viewBox="0 0 2600 2760.837" xmlns="http://www.w3.org/2000/svg"><path d="M2516 1712q-62 54-135 54-50 0-88.5-24t-59.5-67q-4 4-20 8l-27 8q-29 8-58 10t-54 2q-39 0-77-8.5t-83-36.5q-21 42-74 81.5t-114 69.5l-78 37q-37 18-75 32-23 60-44.5 128t-51.5 132l-6 14q-60 138-146 206t-194 68q-122 0-223.5-68.5t-101.5-170.5q0-91 70.5-164.5t98.5-128.5q-51-8-103.5-18t-106.5-31l-67 92q-63 87-155.5 153.5t-205.5 66.5q-123 0-206.5-80.5t-83.5-203.5q0-65 32.5-113t94-71.5 124.5-112.5l-65-71q-32-35-56.5-79.5t-39.5-90-22.5-94-7.5-97.5q0-161 73.5-316.5t201.5-272.5q-6-14-8.5-30t-2.5-31q0-90 80.5-155.5t177.5-65.5q101 0 168 58t73 133q63 5 127.5 18t125.5 33q25-45 75.5-72t119.5-27q97 0 178 61t103 150q93 7 182 36.5t170 29.5q96 0 167.5-36.5t84-92.5 48-83.5 78.5-27.5q56 0 94 42.5t38 108.5q0 88-76.5 180.5t-201.5 143.5q51 64 93.5 151.5t48.5 100.5q94 17 173.5 167t79.5 228q0 83-62 137z m-22-180.5q-6-21.5-15-42.5l-25-58q-31-69-69-117.5t-63-53.5l-19-4q-21-3-31.5-12t-66-131.5-170.5-224.5q85-11 154-50 19-74 25.5-78.5t16.5-4.5q11 0 25.5 7.5t14.5 20.5q26-21 46.5-42.5t38.5-51.5q-4-25-28.5-44t-47.5-19q-17 0-20.5 7.5t-12.5 16.5q12 7 23 16.5t11 20.5q0 12-15.5 21t-30.5 9q-9 0-23.5-2.5t-22.5-9.5q-12 9-25 16l-27 14q13 10 13 26t-10.5 29-24.5 13q-18 0-41-13t-25-28q-25 5-45.5 7t-48.5 2q-51 0-100.5-8.5t-96.5-24.5q-4 23-28 41.5t-50 18.5q-21 0-41.5-14t-20.5-34q0-5 3-9t10-4q13 0 26.5 7.5t20.5 7.5q10 0 16.5-5t6.5-14q0-3-1-5.5t-1-5.5q-25-6-50.5-10.5t-49.5-4.5q-6 44-28 79 10 8 15 19t5 20q0 18-14 31t-34 13q-6 0-9-1 6 12 12.5 23t11.5 25q40 17 51.5 33.5t11.5 37.5q0 20-11.5 34.5t-33.5 15.5q-4 33-17 55.5t-28 22.5l-4-1q-3 0-3-2-5-63-21.5-123t-47.5-115l-8-14q-10-15-17.5-22t-7.5-13q0-3 12-7l16-6q38-18 57-55t19-77q0-74-65-129.5t-143-55.5q-71 0-105 34t-34 62l1 11q0 5-2 9.5t-9 4.5q-85-31-86-31 0 16-15.5 27.5t-36.5 11.5q-14 0-23-7.5t-9-21.5q0-9 4.5-17t9.5-12q-26-6-52-11l-52-8q-4 13-20 21.5t-29 8.5-18.5-6.5-5.5-15.5v-7q0-3 2-7h-42q-14 0-14-15 0-12 4.5-25t4.5-25q0-55-52-89.5t-114-34.5q-65 0-120.5 42.5t-55.5 98.5q0 14 3.5 24.5t8.5 19.5l8 16q3 8 3 18 0 15-16.5 24t-58.5 56l-46 51q16 13 16 41 0 16-7.5 28t-26.5 12-29-16q-10 15-18 29t-16 30q14 2 21.5 18t7.5 33q0 19-11 29.5t-24 10.5q-9 0-14.5-3.5t-13.5-11.5q-40 91-48 194 21 4 35.5 26.5t14.5 42.5q0 18-11 26.5t-23 8.5q-9 0-16-3 13 137 92.5 240.5t136.5 131.5l43 21q21 11 36 22t15 25-14.5 18.5-31.5 4.5q-26 0-56-7.5t-53-23.5q-62 94-146.5 128t-84.5 115q0 87 60 147t152 60q90 0 171.5-62t132.5-134l41-58q20-28 39-47t36-19q7 0 61.5 19t150.5 35l33 4q29 3 45 14.5t16 33.5q0 35-34 91.5t-89 112.5-55 116q0 75 85 119t161 44q68 0 117.5-31t87.5-84.5 78-145 65.5-182 55.5-98 120-51 141-84.5 51-62q0-13-7-18.5t-35-55-28-101.5q0-23 10.5-72.5t32.5-49.5q19 0 23.5 20.5t4.5 52.5q0 74 17 104t39.5 59 69.5 52.5 100 23.5q75 0 119.5-19.5t70.5-19.5q20 0 31 33.5t31 50.5 52 17q46 0 84-32t38-82q0-20-6-41.5z m-647-614.5q-19-16-19-40 0-5 3-10t9-5q14 0 25 10.5t22 10.5q8 0 14-5t6-17q0-18-20-26t-20-18q0-5 7-10t19-5q29 0 48.5 19.5t19.5 41.5q0 26-23.5 48t-51.5 22q-20 0-39-16z m45 292q-21-14-21-34 0-13 13-13 11 0 23.5 6t17.5 6q8 0 14-5t6-15q0-23-24.5-28t-24.5-16q0-8 11-14t25-6q34 0 50.5 19.5t16.5 39.5q0 28-22.5 51t-47.5 23q-16 0-37-14z m295.5-77q7.5 11 10.5 22l1 8q0 22-21 37t-40 15q-27 0-50.5-20.5t-23.5-45.5q0-17 8.5-32.5t25.5-15.5q7 0 14.5 4t7.5 12-6.5 11.5-6.5 11.5q0 11 9 16.5t21 5.5q9 0 16-4.5t7-12.5l-1-11q0-5 3.5-8.5t7.5-3.5q10 0 17.5 11z m-362 11.5q-17.5 22.5-51.5 22.5t-63-23-29-58q0-9 4-16.5t15-7.5q6 0 20.5 23.5t39.5 23.5q14 0 21.5-7t7.5-18q0-15-19.5-27t-19.5-26q0-8 5-11t12-3q28 0 51.5 20t23.5 56q0 29-17.5 51.5z m-148.5-243.5q8 0 23 6t26 6 11-12-7.5-17-15.5-8l-16-5q-8-2-8-9 0-8 13-12.5t21-4.5q24 0 43.5 22t19.5 49q0 24-13 35.5t-34 11.5l-23 1q-21 0-38.5-15t-17.5-32q0-13 16-16z m28 469q-19 14-38 14-25 0-49.5-24t-24.5-46q0-11 4.5-22.5t15.5-11.5q15 0 21 23t23 23q8 0 13-6t5-14q0-10-9.5-19.5t-9.5-20.5q0-3 2.5-7t8.5-4q15 0 36 24t21 56q0 21-19 35z m-170-124q-7-2-15-7 2-17 3-33l2-32q8 10 18 10 11 0 17.5-7.5t6.5-17.5q0-7-6-15t-6-16q0-10 11-10 21 0 33.5 19.5t12.5 43.5q0 30-18 48.5t-42 18.5q-10 0-17-2z m-92 468q17 2 24 13.5t7 27.5q0 25-17.5 49t-39.5 24q-21 0-31-15t-10-34q0-28 18-46.5t49-18.5z m-38-190q6-8 12-14t11-6q31 0 31 48 0 23-10 41t-33 18q-14 0-25-8.5t-11-23.5q0-6 1-11l2-11z m-102 115q13 7 18 19t5 26q0 21-20.5 43.5t-45.5 22.5q-19 0-29-15.5t-10-32.5q0-20 8.5-21.5t33.5-18.5 40-23z m302.5-29.5q-10.5 25.5-26.5 25.5-13 0-24.5-13t-11.5-30q0-20 13.5-40.5t32.5-20.5q13 0 20 6.5t7 23.5q0 23-10.5 48.5z m496-237q15.5 13.5 15.5 32.5 0 20-12 28.5t-23 8.5q-17 0-31.5-13t-14.5-32q0-14 9.5-26t23.5-12q17 0 32.5 13.5z m-140.5 77.5q22 0 36 18.5t14 39.5q0 14-7.5 23t-23.5 9q-21 0-35.5-17t-14.5-38q0-13 7-23t24-12z m16.5-78.5q-6.5 11.5-20.5 11.5-21 0-33.5-13.5t-12.5-33.5q0-16 9-28.5t29-12.5q15 0 25 17.5t10 33.5q0 14-6.5 25.5z m-390.5 63.5q0 17-15.5 30.5t-32.5 13.5q-19 0-27-13t-8-28q0-22 12.5-40.5t32.5-18.5q17 0 27.5 17.5t10.5 38.5z m377.5-388.5q-19.5-10.5-19.5-30.5 0-4 1.5-11.5t7.5-7.5q11 0 23 5t23 5q6 0 12.5-4.5t6.5-12.5q0-12-25-17t-25-12q0-14 11-19.5t25-5.5q30 0 48 21t18 51q0 23-14 36t-43 13q-30 0-49.5-10.5z m-497 5q11.5 13.5 11.5 27.5 0 21-16.5 36.5t-37.5 15.5q-14 0-24.5-8t-10.5-24q0-21 16.5-41t34.5-20q15 0 26.5 13.5z m-76.5-148.5q14 5 20.5 13.5t6.5 19.5q0 20-15.5 37.5t-35.5 17.5q-12 0-24-8.5t-12-24.5q0-22 16-39.5t33-17.5h6z m-509.5-292.5q13.5-13.5 30.5-13.5 14 0 25 11.5t11 21.5q0 14-13 23.5t-30 11.5q-16 0-26.5-7.5t-10.5-19.5q0-14 13.5-27.5z m452 669q-16.5-11.5-16.5-26.5 0-21 22.5-38t43.5-17q16 0 27 8t11 22q0 16-17.5 39.5t-40.5 23.5q-13 0-29.5-11.5z m175.5-24.5q4 0 8 3-9 51-24 99-11 3-21 3-15 0-25-9t-10-25q0-23 20.5-47t43.5-24h8z m-1214-196.5q-10 7.5-23 7.5-17 0-33-12.5t-16-39.5q0-18 8-26t21-8h7q13 0 29.5 18t16.5 39q0 14-10 21.5z m201.5-247q-17.5-16.5-17.5-41.5 0-30 26-56.5t60-26.5q25 0 42.5 16t17.5 41q0 33-26.5 58.5t-59.5 25.5q-25 0-42.5-16.5z m581.5 7.5h8q31 0 57.5 25t26.5 60q0 29-19.5 51.5t-50.5 22.5q-34 0-58.5-26t-24.5-60q0-25 14-45t38-26z m-10 422q-38 43-88 45 0 95-61.5 162.5t-152.5 67.5q-122 0-210.5-44t-88.5-125q0-29 7-53t7-44q0-15-4.5-32.5t-4.5-36.5q-34-16-58-54.5t-24-83.5q0-31 9-53.5t26-22.5q11 0 11 14 0 56 33.5 96.5t85.5 40.5q38 0 59.5-27t21.5-67q-29-21-52-53t-23-68q0-14 6.5-19t14.5-5q12 0 26.5 6.5t23.5 11.5l28 18q24 16 47.5 24.5t49.5 8.5q29 0 56.5-1.5t56.5-1.5q23 0 36.5 6.5t13.5 20.5q0 37-53.5 63.5t-104.5 26.5q-10 0-16.5 9t-6.5 20l-1 11q0 45 55 75t120 30q51 0 89-18.5t50.5-45.5 33.5-27q12 0 16 10t4 21q0 51-38 94z m-166 48q-5 0-8-1h-9q-52-2-100.5-27t-78-53-49.5-28q-5 0-13 2l-38 13q-12 4-25 7t-25 3q2 11 3.5 21.5t1.5 23.5q0 29-8 55t-8 42q0 40 67 65t142 25q74 0 109.5-44t38.5-104z m57-550.5q7-11.5 20-11.5 10 0 26 13t16 30q0 11-10.5 23.5t-28.5 12.5q-14 0-22-12.5t-8-28.5q0-15 7-26.5z m-282-26q-9-9.5-9-21.5 0-14 13-25t30-11q12 0 22 7.5t10 24.5q0 14-14 24.5t-29 10.5q-14 0-23-9.5z"/></svg>