<svg viewBox="0 0 2600 2760.837" xmlns="http://www.w3.org/2000/svg"><path d="M1874 480v1844q0 155-182.5 192.5t-391.5 37.5-391.5-37.5-182.5-192.5v-1844q0-75 51.5-131t219-77.5 303.5-21.5 303.5 21.5 219 77.5 51.5 131z m-224-65.5q11 10.5 27 10.5t27-10.5 11-26.5-11-27-27-11-27 11-11 27 11 26.5z m-455-61.5q-8 0-14 6t-6 14 6 13.5 14 5.5h210q8 0 14-5.5t6-13.5-6-14-14-6h-210z m-175 1960q25 0 39.5-7.5t14.5-30.5q0-21-14.5-29t-39.5-8h-16v-13l-29 21 29 21v-14h16q21 0 30 5t9 17q0 13-9 18t-30 5h-37v15h37z m335-60l-54-23-55 23v55h109v-55z m-54-6l38 17v28h-77v-28z m313 4h-91v57h91v-57z m-16 41h-59v-26h59v26z m42-66h-84v16h68v33h16v-49z m130-1606h-939v1555h939v-1555z"/></svg>