<svg viewBox="0 0 2600 2760.837" xmlns="http://www.w3.org/2000/svg"><path d="M2227 1852.5q-72 51.5-141 51.5-7 0-14-1l-13-2q-48 162-161 291t-272.5 188-328.5 59q-152 0-307-54.5t-274.5-181-170.5-301.5q-4 0-8 1t-8 1q-37 0-96-26t-87-73.5-28-106.5q0-79 42.5-137t118.5-67q-5-33-8.5-66.5t-4.5-67.5q-13-17-20.5-24.5t-7.5-26.5v-40q-63-36-100-105.5t-37-140.5q0-253 304.5-449t698.5-196q263 0 485.5 87t364 228.5 141.5 277.5q0 73-40.5 142.5t-100.5 103.5v92q0 14-9 27l-20 28-4 64q-2 31-7 62 69 9 104 33t58 69.5 23 104.5q0 104-72 155.5z m-242-51.5q-8-14-12-34l-6-29q-9-51-25.5-99t-37.5-96q-51 26-112 48t-136 39q40 2 66.5 33.5t26.5 73.5q0 45-29 75.5t-68 30.5-67.5-30.5-28.5-75.5q0-33 16-59t43-39q-64 11-138.5 18.5t-160.5 7.5q-191 0-348-35t-275-98q-47 102-61 170t-17 78q25 166 122 302t251.5 199 308.5 63q278 0 458.5-145t229.5-398z m-1576.5-716.5q9.5 29.5 29.5 56.5 0-13 12.5-27.5t203.5-77.5 414-87q32-58 90-96t138-38q73 0 132.5 35t94.5 100q160 19 312 58.5t242 75.5l53 22 7 5q28-32 44-68t16-71q0-116-143.5-241.5t-338.5-191.5-411-66q-356 0-630.5 171.5t-274.5 378.5q0 32 9.5 61.5z m774.5 72q46 44.5 113 44.5t113-44.5 46-102.5q0-60-47.5-103t-111.5-43q-62 0-110.5 42t-48.5 104q0 58 46 102.5z m-456 303.5q49 26 110 49t137 40l68-256q-73 6-147 9t-153 14l-45 127z m352 109q35 5 73 9.5t77 6.5l59-291q-14 0-27-2t-25-5q-22 0-45.5 1t-45.5 1z m-63.5 244q-29.5 30-67.5 30-41 0-68.5-30.5t-27.5-75.5q0-44 28.5-75.5t67.5-31.5 68 31 29 76q0 46-29.5 76z m399.5 252q8 0 15.5-1t14.5-1q14 0 23.5 6.5t9.5 17.5q0 30-49 50t-122 20q-15 0-30-2l-29-3q-13 0-23-3l-14-3q-35-10-54.5-25.5t-19.5-33.5q0-11 9.5-17.5t23.5-6.5q32 0 64.5 4.5t65.5 4.5h14q26 0 51-1.5t50-5.5z m665-252q13 3 27 3 48 0 74-33t26-87q0-51-28.5-80.5t-85.5-32.5l-4 11q2 17 3 35v36q0 76-12 148z m-1555 3q-8-36-11-73.5t-3-74.5v-20q0-9 1-18l-12-44q-44 8-67.5 35.5t-23.5 74.5q0 54 26.5 87.5t78.5 33.5q6 0 11-1z m677.5 80q5.5-6 13.5-6 11 0 33 22.5t58 22.5q20 0 34.5-7t24.5-16l17-15q7-7 16-7 8 0 13.5 6t5.5 13q0 23-33.5 46.5t-77.5 23.5q-46 0-78-23.5t-32-46.5q0-7 5.5-13z"/></svg>