<svg viewBox="0 0 2600 2760.837" xmlns="http://www.w3.org/2000/svg"><path d="M2395 2058q-39 67-86 104t-55 37l-977 228q-14 3-23.5 3t-20.5 1q-177 0-300-203t-183-542l-17-95q-24-139-51-338t-42-257l-380 83-12 1q-40 0-61-54t-21-140q0-87 38-152t98-99 79-34q6-2 43-10l94-19 132-25 154-30 160-30 152-29q141-26 211-37t126-11q174 0 268.5 90t129.5 255 62.5 290 50.5 258l29 156q14 79 33 157l210-43h11q53 0 120 107t67 226q0 85-39 152z m-1588-768l32 229q18 132 72.5 342.5t138 331 183.5 120.5l12-2q18-4 39.5-31.5t31.5-81.5q-24 11-54 19t-47 8q-25 0-38.5-18.5t-13.5-38.5q0-37 31-47.5t121-34.5q-4-30-13-54t-20-44q-40 11-75 17l-77 14-20 2q-25 0-38-17t-13-38q0-43 62.5-55t67.5-13q-20-6-32-21t-12-35q0-22 13.5-38.5t33.5-20.5l719-144q-27-112-54-265t-48-254l-45-207-35-149q-26-114-86.5-175.5t-186.5-61.5q-25 0-50.5 2.5t-53.5 6.5l-80 14q-52 9-118 21l-294 56-150 29-132 27q64 50 108.5 123.5t65.5 152.5 43 237z m1397 801q51-29 82-79t31-106q0-52-22-105t-66-106l-887 177q50 58 73 128t23 149q0 24-6 71.5t-13 52.5z m-1215.5-411.5q-11.5-15.5-11.5-35.5 0-39 43-52.5t333-73.5 319-68l33-10q16-5 29.5-8.5t20.5-3.5q23 0 37.5 17.5t14.5 37.5q0 21-16.5 34t-182.5 49.5-367.5 82.5-218.5 46q-22 0-33.5-15.5z m-4.5-310.5q-28 0-43-16.5t-15-38.5q0-46 59-47.5t194-35.5l103-25q90-23 205-39.5t156-29.5 50-13q21 0 34.5 15.5t13.5 33.5q0 28-44.5 43.5t-138.5 32.5l-80 15q-81 14-234.5 55.5t-259.5 49.5z m-22-301q-21 0-32-14t-11-31q0-41 44-45.5t163-28.5l170-33q84-16 168.5-31.5t169.5-27.5h7q19 0 28.5 12.5t9.5 28.5q0 36-37 43t-255.5 52.5-418.5 74.5h-6z m-115-247.5q-11-14.5-11-33.5 0-25 15.5-41.5t188.5-53 463-72.5h7q20 0 31 12.5t11 29.5q0 37-39 48t-192 29-292 57-151 39q-20 0-31-14.5z"/></svg>