<svg viewBox="0 0 2600 2760.837" xmlns="http://www.w3.org/2000/svg"><path d="M2098 1514.5q-91 159.5-251.5 254t-349.5 94.5q-103 0-196.5-28.5t-174.5-80.5q-64 60-130 121l-129 119q-268 249-324 289t-88 40q-16 0-30-11t-14-31q0-14 14.5-41t226.5-282.5 301-359.5q-69-89-108.5-197t-39.5-230q0-284 204-488t488-204q189 0 349.5 94.5t251.5 254 91 343.5-91 343.5z m-976.5-498q58.5 58.5 140.5 58.5 84 0 141-59t57-140q0-80-57.5-139t-140.5-59q-82 0-140.5 58t-58.5 140 58.5 140.5z m934 74.5q-13.5-32-45.5-32-74 0-89 110.5t-90.5 231.5-207.5 198-283 77q-19 0-31.5 4.5t-12.5 12.5q0 24 65 38t136 14q153 0 287.5-78t209.5-208.5 75-278.5q0-57-13.5-89z"/></svg>