<svg viewBox="0 0 2600 2760.837" xmlns="http://www.w3.org/2000/svg"><path d="M2123 1126q41 94 59 188.5t18 193.5q0 213-68 354.5t-209 237.5-309.5 133-306.5 37q-206 0-417-73.5t-338-238-127-443.5q0-111 16.5-193t30-116 13.5-48q0-35-25.5-69t-51-97-25.5-133q0-122 87-200.5t198-78.5q84 0 159 40t137 40q36 0 58.5-9t105.5-25 186-16q132 0 207 21t116 21q64 0 136.5-39.5t158.5-39.5q108 0 196.5 76.5t88.5 202.5q0 52-17 111t-49 103q-11 15-18.5 24t-9.5 21v15z m-238-184q-215-232-575-232-229 0-407 103t-278 289.5-100 407.5q0 251 124 407t370 215l47 10q51 12 115.5 19.5t125.5 7.5q184 0 377.5-60t304.5-209.5 111-384.5q0-341-215-573z m-722 535q-19 69-67 131.5t-125.5 151-178.5 88.5q-91 0-148.5-65t-57.5-164q0-141 119.5-256t243.5-115q90 0 153.5 56t63.5 140q0 8-1 16z m-122-101q-27-26-64-26-38 0-65 26t-27 64q0 37 27 63t65 26 64.5-26 26.5-63q0-38-27-64z m602 400.5q-81-88.5-145.5-174.5t-64.5-166q0-89 67.5-147.5t162.5-58.5q129 0 255.5 122t126.5 272q0 106-59.5 173.5t-158.5 67.5q-103 0-184-88.5z m58-400.5q-28-26-65-26-38 0-65 26t-27 64q0 37 27 63t65 26q37 0 65-26.5t28-62.5q0-38-28-64z m-187.5 506q8.5 10 8.5 22 0 29-63 71.5t-151 42.5q-89 0-151.5-42t-62.5-72q0-12 9-22t24-10q19 0 33 19.5t53.5 39.5 94.5 20q53 0 94.5-20.5t54.5-39.5 33-19q15 0 23.5 10z m-308.5-252q42-35 103-35 60 0 102 35t42 81q0 47-41.5 82t-102.5 35q-62 0-103.5-35t-41.5-82q0-46 42-81z"/></svg>