<svg viewBox="0 0 2600 2760.837" xmlns="http://www.w3.org/2000/svg"><path d="M2426 982q0 35-17 62t-34 51l-39 59q-27 41-64 96l-83 123q-136 204-258.5 363t-138.5 180l-107 141q-54 71-103 137l-185 249q-41 45-72.5 65.5t-54.5 20.5q-74 0-179-103.5t-405.5-393.5-406-389-105.5-152q0-47 52-105.5t105-110.5l72-72 324-330 173-183q49-51 93-98l78-84q54-57 141.5-151t146.5-94q42 0 124.5 49.5t98.5 58.5q18-17 38.5-27.5t45.5-10.5q15 0 29 7.5t31 7.5q13 0 26-11l26-24q14-13 32-24t43-11q101 0 227.5 96.5t126.5 184.5q0 35-20 69.5t-20 57.5q0 11 1.5 25t1.5 27l-1 17q142 101 195 139t62 79v9z m-288 13l-50-38-22-16q-6 6-11.5 12.5t-13.5 12.5l-9 9q-32 28-60 40t-57 12q-52 0-110-35t-141-86-131.5-101-85-79.5-36.5-81.5q0-31 13-61t29-57q-6-4-42-33t-59-29q-12 0-29 13t-41 39l-22 24-28 32q-9 9-114 123t-201 213l-86 89q-54 55-147.5 143.5t-150.5 159.5-77 90.5-20 34.5q0 16 32 53.5t156.5 133.5 276 246.5 248 228 113.5 96.5 33 19q12 0 17.5-6t44.5-43.5 289.5-373 276.5-372 99-144.5 107-153.5 34-79.5q0-16-25-35z m-397-528l-34-17q-18-8-36-8t-40 14.5-41 35.5l-24 26q-18 20-36 51t-18 63q0 13 5.5 25.5t16.5 21.5l74 61q96 80 132.5 97t82 45.5 80.5 28.5q12 0 24.5-3.5t25.5-11.5l5-3q37-28 70.5-82.5t33.5-84.5q0-18-11-36t-78.5-77.5-220.5-139.5z m140-102q-6 0-11-1-14 0-26 6.5t-12 19.5q0 16 41 38.5t43 24.5l52 37q59 43 65.5 54.5t17.5 11.5q13 0 23.5-15.5t10.5-28.5q0-20-18-41.5t-40-37.5l-24-17q-25-16-52.5-29.5t-57.5-19.5z"/></svg>