<svg viewBox="0 0 2600 2760.837" xmlns="http://www.w3.org/2000/svg"><path d="M2371 1381.5q-70 62.5-176 62.5-45 0-91-13t-85-37q4 9 6 21l20 100q37 198 80 286.5t119.5 221 76.5 187.5q0 47-34.5 76.5t-79.5 29.5q-62 0-109.5-63t-118.5-180.5-120-158.5-107-41q-56 0-151.5 41.5t-130.5 92.5-47.5 143.5-30 156.5-29.5 128l-11 58q-11 55-41 86.5t-85 31.5q-62 0-98-36t-36-94q0-52 30-215.5t30-199.5q0-55-32-84.5t-118-56.5l-122 222-24 42-19 32q5-8-55.5 100t-145.5 108q-54 0-96.5-34.5t-42.5-78.5q0-35 17.5-67t34.5-59l78-126q70-114 115.5-230t45.5-216q0-77-29.5-163t-78.5-159q-18 14-90 75.5t-163 61.5q-112 0-190.5-64.5t-78.5-158.5q0-69 37.5-140t82.5-138 70.5-144.5 67-140.5 103.5-111q-7-7-25.5-57.5t-18.5-68.5q0-36 29.5-74t62.5-38q40 0 70 78t34.5 92 93.5 42.5 134 28.5l32-26q40-33 90-60t90-27q41 0 57 19t16 44q0 24-12.5 54t-32 47-80.5 40q8 13 39 32t66 32.5 35 31.5q0 19-28 23t-28 14q0 26 60 31t60 36q0 8-8 13.5t-17 8.5l-17 7q-8 4-8 8 0 10 26 21.5t53 18.5l18 6q2 0 23.5 6t21.5 21q0 16-29 27t-29 20q0 7 16.5 12.5t37.5 8.5l40 7q25 4 33.5 9.5t8.5 14.5q0 26-39 44t-79 20q32 22 65.5 30t67.5 8q45 0 92-6.5t97-6.5q48 0 95.5 8t91.5 30q20-48 50.5-66.5t68.5-18.5q77 0 199 63t203 63l42-1q23 0 38.5 12.5t15.5 38.5q0 62-70 124.5z m-1566.5-429.5q17.5-24 17.5-53 0-34-23.5-61.5t-62.5-27.5q-29 0-49.5 25t-20.5 60q0 34 24 57.5t59 23.5q38 0 55.5-24z"/></svg>