<svg viewBox="0 0 2600 2760.837" xmlns="http://www.w3.org/2000/svg"><path d="M374.5 1678q-114.5-118-114.5-300t114.5-300.5 288.5-118.5 288.5 118.5 114.5 300.5q0 174-114 296t-289 122q-174 0-288.5-118z m162-169q49.5 52 126.5 52t126.5-52 49.5-131q0-80-49.5-132t-126.5-52q-76 0-126 51t-50 133q0 79 49.5 131z m1355.5 341v450q0 154-183 191.5t-391 37.5-391-37.5-183-191.5v-433q53-7 104-29v312h940v-301l10 1h94z m-854 439q25 0 39.5-8.5t14.5-29.5-14.5-29.5-39.5-8.5h-16v-13l-30 21 30 22v-14h16q21 0 29.5 5t8.5 17-8.5 17-29.5 5h-37v16h37z m335-61l-54-22-55 22v55h109v-55z m258-2h-90v57h90v-57z m-15 42h-60v-26h60v26z m41-66h-83v15h68v34h15v-49z m-338 21l38 16v29h-77v-29z m-471-1307q-51-20-104-29v-432q0-72 48-127.5t213-79 313-23.5q147 0 313 23t213.5 79 47.5 128v449h-94q-4 0-10 2v-311h-940v321z m820-526q11 11 27 11 15 0 26-11t11-27q0-15-11-26t-26-11q-16 0-27 11t-11 26q0 16 11 27z m-456-61q-8 0-14 5.5t-6 13.5 6 14 14 6h211q8 0 14-6t6-14-6-13.5-14-5.5h-211z m1098 813q0 8-5 12.5t-11 4.5h-293v152h239q8 0 12.5 5t4.5 12v142q0 7-4.5 12t-12.5 5h-239v267q0 17-17 17h-186q-17 0-17-17v-754q0-7 4.5-12t12.5-5h496q6 0 11 5t5 12v142z m-933 17v152h240q7 0 12 5t5 12v142q0 7-5 12t-12 5h-240v267q0 17-16 17h-187q-16 0-16-17v-754q0-7 4.5-12t11.5-5h496q7 0 12 5t5 12v142q0 8-5 12.5t-12 4.5h-293z"/></svg>