<svg viewBox="0 0 2600 2760.837" xmlns="http://www.w3.org/2000/svg"><path d="M2407.5 939q-54.5 53-139.5 53 57 84 89.5 169.5t32.5 182.5q0 15-1 31.5t-1 32.5q2 75 6.5 150.5t4.5 150.5q0 26 2 54.5t2 57.5q0 73-32 122.5t-85 49.5q-27 0-47.5-16.5t-20.5-48.5q0-13 4.5-26t4.5-32q0-58-12.5-99.5t-29.5-61-45-25-57.5-23-44.5-17.5q-5 0-10 4.5t-11 11.5l-22 27q-83 90-172 140.5t-185 50.5q-11 0-18-1-2 42-5 83t-3 82q0 94 16 135t16 67q0 13-2 26l-4 24q-4 23-36 42t-68 19q-43 0-61-19.5t-18-69.5q0-18-4-34l-10-32q-6-18-6-35l1-11q0-50-19.5-127t-31.5-120l-11-36q-9 0-18 1h-20q-20 0-37.5-1t-37.5-4v20q0 11-1 22l1 84q0 17-1 33t-1 33q0 21 5.5 43t5.5 41q0 37-33 65t-84 28q-28 0-48-13.5t-20-38.5q0-19 6-40.5t6-35.5q0-56-9.5-116t-29.5-102-63-59-83-54.5-67-78.5q67 0 127.5-43.5t81.5-101.5 56.5-92 94-100 58.5-115q0-19-11-41-43 86-147.5 175t-115.5 137.5-64 89.5-169 41l-52-2q-96-4-173-69.5t-77-154.5q0-45 37-110.5t37-113.5q0-29-2.5-59.5t-2.5-53.5q-66 24-128 24-107 0-181.5-71.5t-74.5-183.5q0-93 51-173.5t125-80.5q20 0 31 12.5t11 26.5q0 24-24.5 41t-24.5 74q0 29 18.5 43t38.5 14q51 0 79.5-63t110.5-121.5 160-58.5q24 0 43.5 3t35.5 6l32 7q15 3 32 3 50 0 104-25.5t118-25.5q53-19 101.5-29.5t102.5-10.5q87 0 163 25.5t151 72.5q-3-14-9-26l-12-24q-6-11-10.5-22.5t-4.5-25.5q0-35 20.5-53.5t45.5-18.5q23 0 46.5 13t43.5 32l23 24q42 42 63.5 101t21.5 119q0 24-3 48 55 37 147.5 38t140 30 91.5 78q17 6 34 11t36 5q52 0 85.5-37t33.5-89q0-50-34.5-90.5t-97-73.5-81.5-58q-32-4-56.5-26.5t-24.5-60.5q0-54 37-100.5t111-46.5q10 0 23.5 3t13.5 14q0 10-11.5 22t-11.5 32 8 41.5 8 42.5q0 23-11.5 40t-25.5 26q7 8 19.5 16t27.5 16l29 17q68 39 108 88.5t40 112.5q0 74-54.5 127z m-770.5-403q21 35 21 85 0 77-46 128.5t-121 51.5q-96 0-205-106t-237-106q-55 0-97.5 33.5t-42.5 82.5q0 36 32.5 87t184.5 137.5 312 86.5q142 0 237-81.5t95-217.5q0-56-19.5-108.5t-61.5-90.5l-27-25q-17-15-34-15-12 0-12 16 0 7 21 42z m-1139 500q0-74 18.5-99t59-49.5 53-67.5 50-108.5 81.5-87.5q-9-2-20-2h-21q-65 0-128 43t-105 121.5-121 78.5q-49 0-80-32t-31-79q0-29 6.5-49.5t14.5-34.5q-37 26-59.5 75.5t-22.5 104.5q0 97 59 151t143 54q24 0 50.5-5t52.5-14z m97 438q-21-15-39-15-20 0-20 16 0 14 18 36.5t39 22.5q12 0 17.5-10t5.5-19q0-16-21-31z m283 46q0-3 1-5 0-13-10.5-18.5t-24.5-5.5q-36 0-61 12.5t-25 36.5q0 13 12 19.5t26 6.5q25 0 49.5-11.5t30.5-27.5z m164.5-469.5q-19.5-23.5-46.5-23.5-24 0-43.5 20t-19.5 53q0 30 19.5 55t48.5 25q26 0 43.5-20.5t17.5-52.5q0-33-19.5-56.5z"/></svg>