<svg viewBox="0 0 2600 2760.837" xmlns="http://www.w3.org/2000/svg"><path d="M2459 806q26 13 26 41v1091q0 12-6.5 23t-16.5 16l-1244 693-10 4q-5 2-12 2-13 0-23-6l-1035-600q-23-13-23-39v-1090q0-12 6-23.5t20-18.5l1243-609q10-5 20-5t20 5z m-2188 135l925 479 1142-573-924-466z m593 276l-202-104 1085-540 199 102z m-658 788l944 547v-1053l-944-485v991z m570 317l-196-114v-169l196 117v166z m0-879l-196-99v-109l197 101v107h-1z m-11 51q29 17 45.5 43.5t16.5 53.5q0 23-10 36.5t-30 14.5q-16 0-31-7l-187-98q-25-13-40-38.5t-15-51.5q0-25 13-38.5t32-13.5q12 0 30 8z m1629-574l-1153 579v1054l1153-642v-991z"/></svg>