<svg viewBox="0 0 2600 2760.837" xmlns="http://www.w3.org/2000/svg"><path d="M1888 2490q-138-66-177-203l-10-34q-5-16-11-28t-12-12q-13 0-13 16t-11.5 32-50.5 16q-45 0-73.5-17.5t-28.5-47.5q0-77-22.5-189t-22.5-178q0-78 20.5-184.5t20.5-225.5q0-117-31.5-337.5t-58-337-29.5-198.5q-8 72-21 143l-27 141q-19 98-33.5 206t-33 217.5-18.5 179.5q0 60 10 102.5t21 66.5l23 55q11 28 19 56t8 59q0 65-36 168.5t-37 166.5v67q0 23-28 34.5t-58 11.5q-38 0-51.5-8t-13.5-27l-2-24q0-9-4-60.5t-25-51.5q-19 0-45.5 51t-105 145.5-184 151-231.5 56.5q-120 0-208-47t-88-135q0-30 18-61t144-104 211.5-172 131-220 45.5-350q0-148-15-294l-30-292q-5-47-12-96l-15-96q-7-48-11.5-96.5t-4.5-95.5q0-109 131-135.5t239-26.5q92 0 181 18l42 8q77 16 91 48.5t23 98.5q8-90 33.5-114t120.5-41.5 187-17.5q139 0 254 30t115 127q0 86-21 222t-48 395.5-27 421.5q0 275 46.5 442t127.5 263 153 119 72 77q0 84-22.5 125.5t-86 63.5-131.5 22q-125 0-263-66z"/></svg>