<svg viewBox="0 0 2600 2760.837" xmlns="http://www.w3.org/2000/svg"><path d="M2337 1616l5 43q2 19 2 26 0 93-52.5 145t-109.5 74.5-152 55-254 76.5l-212 59q-32 9-103 31t-135 22q-62 0-119-24t-140-86l-371-286-251-196h-1q-99-78-117.5-95.5t-44.5-57.5-26-82q0-20 8-44l8-26q6-19 13-46l15-56q10-41 18.5-83t8.5-54q0-7-3-18l-13-46q-3-11-3-21 0-92 130.5-136.5t378.5-73 321-28.5q98 0 169.5 28.5t160.5 92.5l127 91q339 247 428.5 321t169 144 102 111.5 28.5 60 14 78.5z m-1044 201.5q-4-34.5-15-70.5-12-4-92.5-60.5t-192.5-140.5l-153-114q-78-58-152-115l-135-102q-61-46-101-78l-49-38q-4 67-26 137t-22 82q0 38 55.5 89t279.5 217l134 98q67 50 132 97l117 84q55 40 104.5 75t84.5 48q5-12 20-59.5t15-76.5q0-38-4-72.5z m878-27.5q23-20 42-53t19-67q0-38-29.5-64.5t-80.5-26.5q-75 0-247 46.5t-266 68.5l-104 23q-16 4-62.5 14t-50.5 10q7 33 11.5 64.5t4.5 65.5q0 42-7 82.5t-24 79.5q11-2 47-11t89-23l116-30q64-17 130-36l130-36q105-30 176.5-54t83.5-34 20-14z m-131-431l-111-85-884 173 111 83z m-185-140l-55-41q-28-21-57-42l-879 171 110 85z m-186-138l-116-84-868 170 108 85z m-250-178q-17-11-32-21.5t-32-19.5l-844 164q22 17 48 39t57 46l862-167q-17-11-31-22z m-188 681q27 17 54.5 27.5t58.5 10.5q11 0 61.5-8.5t104.5-21.5l189-46 108-24 180-39q33-7 47-9l40-4q19 0 40-1h18q9 0 9-7 0-8-11.5-22.5t-22.5-25.5z m-65-792q-43 0-100 6t-110 14l-89 14q-236 38-328.5 66.5t-92.5 62.5l1 8q0 5 4 7l812-159q-26-13-47-16t-50-3z"/></svg>