<svg viewBox="0 0 2600 2760.837" xmlns="http://www.w3.org/2000/svg"><path d="M2334 1391.5q-17 64.5-56.5 113t-128 88-193.5 39.5q-44 0-66.5-15t-22.5-47q0-17-1-35t-3-36q-30 25-54.5 56t-46.5 65l-46 68q-74 112-215 221t-334.5 162.5-375.5 53.5q-237 0-390-92.5t-153-261.5q0-43 13-84t36-70l35-45q17-22 29.5-46.5t12.5-54.5v-43q0-37 20.5-103t85.5-138.5 171.5-132.5 178-92 125.5-32q59 0 119 38t135.5 109.5 115.5 71.5q33 0 115-67.5t185-155.5 213.5-133 213.5-45q122 0 198 62.5t88.5 160 12.5 203.5q0 153-17 217.5z m-806 234.5l24-23q22-22 37-44t15-38q0-27-60-46t-160-92.5-178-147.5l-136-131-23-21q-23-18-48-32.5t-44-14.5q-18 0-43 8.5t-48 19.5l-28 13q-6 3-83.5 39.5t-77.5 57.5q0 7 2 7t71 47.5 146.5 193 113 262.5 35.5 164q0 28 14.5 41t50.5 13q68 0 171.5-65t231.5-196z m622.5-722.5q-56.5-34.5-135.5-34.5-105 0-197 51.5t-195.5 145-171.5 129.5l-28 15q-14 8-23 15.5t-9 13.5q0 13 15 21l24 14q109 73 177.5 104.5t102.5 31.5q13 0 16-4.5t56-47.5 265-178l48-31q57-36 84.5-74t27.5-80q0-57-56.5-91.5z m-1270.5 877q-15-60.5-27-116.5t-34.5-114-60.5-90q-26-20-59-20-60 0-202.5 94.5t-142.5 216.5q0 92 89 140.5t327 48.5q81 0 103-21.5t22-57.5q0-20-15-80.5z"/></svg>