<svg viewBox="0 0 2600 2760.837" xmlns="http://www.w3.org/2000/svg"><path d="M2497 1999q13 23 20.5 49.5t7.5 53.5q0 62-37.5 110.5t-79 68.5-129.5 36l-198 35q-32 6-54 9l-42 9q-59 14-122 38t-194 24q-236 0-373.5-133.5t-137.5-350.5q0-52 11.5-113t37.5-125l-4-130q-83 116-193 181t-229 65q-98 0-196.5-42t-194-162-114.5-197-59-146q-8-13-24.5-43.5t-26.5-49.5l-43-84h-1q-8-17-43-86.5t-35-128.5q0-74 44.5-130.5t126.5-68.5q12-79 65.5-125t137.5-46q15 0 23 1 24-51 69.5-81t104.5-30q56 0 107 28 26-24 58.5-35.5t70.5-11.5q86 0 141.5 52.5t63.5 137.5l9 116 12 163 4 66q0 29 1 39l2 7q0 25 3 44l4 36q2 17 4.5 32.5t4.5 33.5q65-47 100-65t96-18q88 0 144.5 61.5t56.5 142.5q0 16-1.5 30t-6.5 28q34 13 81.5 67t47.5 200q67-36 82-46l45-31q37-25 123.5-83.5t115.5-77.5l85-55q28-19 58-27.5t59-8.5q78 0 140 59.5t62 140.5v12q52 21 89.5 72t37.5 112q0 44-22 88 29 29 46 66t17 77q0 79-59 140z m-2309.5-1166q-20.5 22-20.5 54 0 21 6 36.5t15 32.5l73 142 25 46q94 176 102 227.5t65.5 124.5 92 106.5 100 56 143.5 22.5q106 0 193-54t154-172l5-8q114-85 173-124t59-87q0-34-21.5-57.5t-55.5-23.5q-48 0-85 29t-94.5 77.5-119.5 48.5h-29q-40 0-60.5 11t-30.5 11q-5 0-12.5-4.5t-7.5-12.5q0-9 17-21t41-21l21-8q8-3 30-6t22-31q0-38-7-82.5t-17-86.5l-8-160-6-100-8-107q0-14-8-97.5t-85-83.5q-35 0-54.5 27t-19.5 68q0 7 3 31l6 59 9 75 16 116t16 107l12 1q14 2 30.5 8t16.5 15q0 8-13 13.5t-26 5.5q-122 15-231.5 59.5t-143 68-47.5 23.5-14-11 12-25l17-21q-21-44-40-88l-36-80q-19-42-42-97t-76-55q-36 0-56.5 22z m1162 1308.5q65.5 86.5 137.5 125.5t247 39q48 0 128.5-29t133.5-38l102-17 184-33q73-13 95.5-38t22.5-49q0-31-22.5-56t-56.5-25q-12 0-22 3l-194 48q-47 12-95 22l-2 14q-3 15-9 27t-14 12-11.5-6.5-3.5-17.5l-1-9q-14-135-65-255.5t-66.5-142.5-15.5-35q0-9 11-9 14 0 28.5 12.5t20.5 20.5q24-13 57-32l68-38q30-17 65-37.5t71-42.5l50-31q37-22 54-45.5t17-47.5q0-28-24-52t-54-24q-21 0-50 17l-94 62q-33 22-68 46l-120 82q-29 19-69.5 45t-72.5 45l-36 21q-18 10-43 25l-15 9q-21 12-28.5 20.5t-7.5 16.5 16.5 40 16.5 71q0 8-3 15t-12 7q-22 0-26.5-32.5t-41-75-39.5-100.5q0-31 1-60t1-52q0-24-1-40t-1-22q-6-35-28-65t-53-30q-34 0-61.5 22t-27.5 62l6 166q0 42 1 82l-3 10q-27 69-35 113t-8 82q0 118 65.5 204.5z m923.5-578.5l-94 49-71 36-192 96q18 22 32.5 53t25.5 57q25-8 60-22l150-59 70-28q32-13 55-23l28-13q17-11 35.5-33t18.5-48v-11q-2-21-24.5-42t-54.5-21q-20 0-39 9z m-1576-964q-6-33-30-51t-51-18q-34 0-54 25.5t-20 66.5q0 11 2 15 0 7 6 30l15 57q9 34 21 73l23 79 23 75q11 36 19 60 26-7 51-12t51-7l20-3-11-55q-7-33-14-73l-16-81q-4-21-14-69t-14-72z m-209 97q-8-29-30-42.5t-47-13.5q-34 0-54 22t-20 64q0 17 2 25.5t11 29.5l110 268 19 49q27-20 57-37t61-29l-32-98q-18-52-33-100z m1920 1112q-25-24-53-24-18 0-32 5l-234 84q-52 19-97 34 9 33 13.5 65.5t6.5 67.5l329-90q26-7 37-13t33-29 22-47q0-29-25-53z"/></svg>