<svg viewBox="0 0 2600 2760.837" xmlns="http://www.w3.org/2000/svg"><path d="M2368 1636q24 37 24 132 0 78-29.5 150t-87 123-134.5 70-112.5 90.5-90.5 125-130.5 77.5-153.5 24q-138 0-213.5-55.5t-129.5-55.5q-35 0-69 9t-69 9q-96 0-189-36t-133.5-123-40.5-175q0-33 6.5-64.5t20.5-63.5q-160-20-372.5-50t-248-32.5-35.5-32.5q0-17 27.5-22t95.5-5q77 0 317.5 12t411 22 170.5 77q0 36-29.5 48.5t-74.5 12.5q-29 0-63.5-3.5t-67.5-10.5l-32-5q-8 21-15 42t-7 45q0 91 91.5 151.5t201.5 60.5q62 0 102.5-15t55.5-15q25 0 47.5 33.5t79 54.5 132.5 21q120 0 213-63.5t105-148.5 54-85q11 0 21.5 3t19.5 3q82 0 141-64t59-146q0-48-16.5-90t-39-68.5-22.5-55.5q0-36 38-55t78-84.5 40-154.5q0-80-36.5-153.5t-100-116-207.5-69.5l-29-6q-21-4-32-14t-11-29q0-17 9-31.5t9-23.5q0-41-34.5-113t-121.5-120.5-199-48.5q-87 0-155 27.5t-106 77.5-43.5 112-36.5 62q-26 0-46.5-4.5t-44.5-4.5q-111 0-182 66t-71 161q0 29 7 58.5t23 58.5q30-2 59.5-3t59.5-1q39 0 84.5 19.5t45.5 51.5q0 27-33 39.5t-82 14.5l-48 2q-202 11-403 24.5t-402 45.5h-6q-12 0-22.5-7t-10.5-18q0-27 79-49t142.5-39 181.5-36 239-32q-24-33-35-71t-11-77q0-98 47-167t118-107 136.5-55 93.5-84 89.5-116 151-75 192.5-26q180 0 302.5 79t152.5 147.5 30 121.5q0 51 26 68.5t83.5 29.5 143.5 83 122.5 156 36.5 178q0 134-63 214t-63 122q0 24 24 61z m-2171-61h-20q-11 0-22 1-13 0-19.5-10t-6.5-22q0-27 26-30t286-31 476-28q37 0 120.5 6t100 21.5 16.5 40.5q0 26-21 40t-77 14q-17 0-33-1h-87q-72 0-142-2t-140-2q-88 0-175.5 2.5t-174.5 2.5q-26 0-53-1t-54-1z"/></svg>