<svg viewBox="0 0 2600 2760.837" xmlns="http://www.w3.org/2000/svg"><path d="M2536 1769q0 25-16 34.5t-38 9.5q-29 0-42.5-13t-13.5-35q0-12 4.5-23.5t4.5-24.5q0-30-30-74t-42-44q-3 0-3 3l-1 6q3 29 3 54 0 40 9 76.5t9 55.5q0 22-3 41l-6 40q-5 24-7.5 49t-2.5 55v28q0 49 29 68.5t29 41.5q0 24-26.5 37.5t-56.5 13.5q-44 0-64.5-27t-20.5-65q0-23 4-48t4-62v-25q0-68-3-81t-13-13q-12 0-14.5 18t-2.5 54q0 16 1 35l4 69q0 14 1 19 0 76-22.5 101t-62.5 25q-31 0-56.5-14t-25.5-37 29.5-40.5 29.5-66.5q0-94-9-147.5t-9-68.5q0-27 8-58.5t10-59.5q-8 17-19.5 31t-34.5 14q-48-2-99-74.5t-80.5-175.5-47.5-103q-8 0-12.5 8t-4.5 22q0 33 16.5 84.5t42.5 94.5l22 37q10 18 17.5 33.5t8.5 28.5q0 31-28 47t-58 22.5-42 89.5-12 126q0 60 15.5 69.5t34 27.5 18.5 44q0 28-18.5 41.5t-46.5 13.5q-48 0-70.5-19t-22.5-73q0-17 1-40l6-102q0-27 1-51 0-36-5-60.5t-19-24.5q-15 0-19.5 24t-4.5 61q0 24 1 50.5t3 52.5l3 49q0 24 1 41 0 54-22.5 73t-70.5 19q-28 0-46-13.5t-18-39.5q0-38 33.5-58t33.5-82q0-49-13.5-128.5t-26-83-56.5-21-44-51.5q0-14 7-29.5t18-33.5l22-38q23-38 41.5-92.5t18.5-88.5q0-14-4-22t-12-8-16 14.5-34.5 92.5-40 106.5-22 39-15.5 38.5-30 47-51 19q-29 0-53.5-20t-24.5-49q0-38 7.5-70t7.5-67q0-59-20.5-92t-31.5-33q-10 0-18 4.5t-8 21.5q0 14 4 36l9 48q5 26 9 54t4 54q0 56-23 101t-23 167q0 29 3.5 77.5t35 72 31.5 57.5-23 50-62 16q-70 0-101-28.5t-31-88.5q0-34 5.5-87.5t5.5-94.5q0-34-5-56t-19-22q-15 0-20 22t-5 56q0 22 2 47l6 97q0 23 1 41 0 57-32 85.5t-99 28.5q-39 0-62-16t-23-50q0-33 31.5-57.5t35-72 3.5-78.5q0-130-23.5-169.5t-23.5-101.5q0-25 4-52.5t9-53.5l9-47q4-22 4-36 0-17-7.5-21t-18.5-4-30.5 31.5-19.5 93.5q0 35 6.5 67t6.5 70q0 29-24 48.5t-54 19.5q-14 0-29-5.5t-27-19.5h-5q-14 7-37.5 25.5t-51.5 18.5q4 14 10 30l12 33q5 16 8.5 30t3.5 24q0 6-3.5 13t-14.5 12l-19 8q-11 5-22 9l-22 7-3 26q-3 19-3 27 0 16-2.5 30.5t-2.5 28.5q0 41 26 55t26 44q0 25-21 38.5t-46 13.5q-37 0-55-25.5t-18-89.5v-133l-13 1v132q0 64-18 89.5t-55 25.5q-24 0-46.5-13.5t-22.5-37.5q0-30 26.5-43t26.5-50q0-15-2.5-30.5t-2.5-30.5l-4-55-33-10q-28-9-43-19t-15-23q0-8 2.5-19.5t6.5-24.5l9-25q4-13 8-23-13 11-29.5 38.5t-59.5 27.5q-22 0-38-14t-16-32q0-20 17-37t37-23l10-4q11-6 27.5-29.5t27.5-40.5l30-50q15-25 31.5-50.5t37.5-52.5q-9-2-23.5-14t-20.5-22q-6 2-12 7.5t-13 5.5q-8 0-12-8.5t-11-8.5q-6 0-11.5 5.5t-10.5 5.5q-10 0-17-28.5t-7-59.5q0-63 33.5-125.5t89-91.5 104.5-29q101 0 165 80.5t64 165.5q0 26-8 57t-17 31q-5 0-10.5-5.5t-11.5-5.5q-7 0-11 8.5t-12 8.5-13-5.5-10-7.5q-7 10-21 20t-25 17q17 14 36 43t23 40l8 19 8 17q3 8 6 10 2-14 13-28t35-17q2-105 69-235.5t137-182 72-54.5 2-12q0-12-24-30t-54.5-64-30.5-120q0-108 69.5-175t172.5-67q100 0 170.5 67t70.5 170q0 76-30.5 123.5t-54.5 65.5-24 30q0 17 51.5 49.5t111.5 119 92 190.5q29-85 63.5-157.5t73-105.5 71.5-42.5 33-31.5q0-8-11.5-16.5t-30.5-19.5q-19 22-48.5 32t-55.5 10q-24 0-41.5-7.5t-17.5-21.5q0-13 20.5-32.5t20.5-70.5v-32q0-16-1-35l1-33q2-89 60.5-155.5t160.5-66.5q104 0 163.5 67.5t59.5 187.5q0 20-1 36.5t-1 30.5q0 49 20 69.5t20 33.5q0 14-17 21.5t-42 7.5q-26 0-55.5-10t-46.5-32l-30 19q-14 9-14 17 0 22 32.5 30.5t74.5 43.5 85.5 137 55 141.5 30.5 64.5q4-2 8-2h8q13 0 21 3.5t18 13.5q16-32 30.5-49.5t40.5-39.5q-54-32-80-77.5t-26-96.5q0-78 56.5-136t139.5-62h13q88 4 142.5 63t54.5 135q0 49-29 99.5t-75 72.5q4 9 37 34t70 70l17 21q35 48 42.5 86.5t16.5 51 10 28.5v13z"/></svg>