<svg viewBox="0 0 2600 2760.837" xmlns="http://www.w3.org/2000/svg"><path d="M2309.5 1517q-123.5 187-384.5 363l-141 95q-133 90-226.5 170.5t-144.5 146-116 65.5q-59 0-154-113.5t-392-307.5-440.5-392.5-143.5-445.5q0-246 164.5-430.5t406.5-184.5q109 0 217 28t252 129l22 16q18 15 39.5 28t31.5 13 26.5-9.5 44.5-30.5l22-17q86-61 142-87.5t138-48 179-21.5q243 0 412 180t169 435q0 232-123.5 419z m20.5-348q2-15 2-37.5t1-74.5h-2066v21l-1 21q0 19 1 36t3 34h2060z m-2015-301q-14 28-24 53.5t-14 58.5h2048q-8-32-17-59t-23-53h-1970z m1967 492q13-29 21.5-57t15.5-56h-2037q6 28 15.5 56t20.5 57h1964z m-120 189q21-26 43-55t36-58h-1882q17 30 37 58t42 55h1724z m-206 189q72-54 133-112h-1578q31 29 64.5 57t68.5 55h1312z m-271 189q19-13 73.5-50t90.5-62h-1097q39 29 80 56t83 56h770z m-174-1248q-30 18-88.5 62t-97.5 50h916q-22-33-46-61t-52-51h-632z m-1054 0q-52 45-98 112h908q-47-18-90.5-50t-87.5-62h-632z m988 1438q31-29 65-57t68-55h-556q35 27 69 54t65 58h289z m-145 141q11-4 26.5-20t27.5-31l10-13h-128q3 3 26 31.5t38 32.5z m392-1656h309q-32-11-73-15.5t-84-4.5q-41 0-75.5 4.5t-76.5 15.5z m-1091 0h307q-40-11-81-15.5t-85-4.5q-38 0-73.5 4.5t-67.5 15.5z"/></svg>