<svg viewBox="0 0 2600 2760.837" xmlns="http://www.w3.org/2000/svg"><path d="M2172 1822q-66 50-142 50-11 0-16-1-58 207-259.5 327.5t-461.5 120.5q-255 0-463.5-122t-259.5-325q-78 0-143-50t-65-147q0-81 48-136t138-60q-25-59-35-128t-10-134q0-196 107.5-354t300-249.5 403.5-91.5q222 0 412 92t278.5 245 88.5 338q0 47-7.5 103.5t-44.5 178.5q93 0 145 55.5t52 141.5q0 96-66 146z m-228-266q-4-48-12-95-53-76-87-96.5t-37-20.5q-7 0-8 9l-2 22q0 12-4 21.5t-15 9.5q-15 0-45.5-23.5t-47-31-68-48.5-77.5-41q-15 0-34 6.5t-39 15.5l-42 18q-14 7-60.5 24t-70.5 17q-13 0-22-4.5t-9-18.5q0-8 1.5-18t1.5-19q0-10-3-18t-13-8q-16 0-68.5 27.5t-112.5 52-85 24.5q-17 0-23-4.5t-6-12.5q0-9 5.5-21t5.5-21q0-8-5.5-11t-10.5-3q-32 0-75 36.5t-112 88.5-120 112q-3 32-5 65t-2 67q0 218 83.5 327t236 176.5 336.5 67.5q191 0 348.5-72t232-189.5 74.5-309.5q0-53-4-101z m-938 254.5q-31 32.5-70 32.5-41 0-71.5-32.5t-30.5-79.5q0-46 30.5-78.5t71.5-32.5q40 0 70.5 32.5t30.5 78.5q0 47-31 79.5z m709.5-0.5q-29.5 33-70.5 33t-71-33-30-79q0-45 29.5-78t71.5-33q41 0 70.5 33.5t29.5 77.5q0 46-29.5 79z m-297.5 252.5q-48 35.5-113 35.5-58 0-116.5-28t-58.5-67q0-7 5-15t14-8q8 0 16 4l14 8q26 15 54.5 25.5t58.5 10.5q33 0 60-8.5t56-24.5l17-9q11-6 20-6 8 0 14.5 7t6.5 15q0 25-48 60.5z m625-273.5q6 0 12 1 47 0 71.5-32t24.5-83q0-55-32-81t-83-26q0 22 1 44.5t1 45.5q0 34-1.5 66t-6.5 63z m-1499 1h9q-3-32-5-64.5t-2-67.5v-45t3-45q-53 6-77 34t-24 73q0 51 24.5 83t71.5 32z m668 80q4-5 11-5 16 0 33.5 6t36.5 6q17 0 28-2.5t19-5.5l13-6q6-2 13-2 11 0 15 3t4 8q0 24-31.5 39.5t-57.5 15.5q-32 0-60-15.5t-28-31.5q0-5 4-10z"/></svg>