<svg viewBox="0 0 2600 2760.837" xmlns="http://www.w3.org/2000/svg"><path d="M2367 2413q20 0 35 14.5t15 35.5q0 20-15 34.5t-35 14.5h-2135q-21 0-35.5-14.5t-14.5-34.5v-2123q0-20 14.5-34.5t35.5-14.5q20 0 34.5 14.5t14.5 34.5v62l290 289 191-146q17-14 41-14 23 0 39.5 12t24.5 32l509 1297 217-404q8-17 22.5-26.5t34.5-9.5q46 0 67 40l215 464 408 342q25 20 25 53 0 28-21 48.5t-49 20.5q-22 0-44-17l-418-351q-13-9-19-24l-164-354-224 414q-9 17-24 26.5t-33 9.5q-50 0-67-43l-531-1351-164 126q-18 15-43 15-28 0-47-20l-236-236v1818h2086z"/></svg>