<svg viewBox="0 0 2600 2760.837" xmlns="http://www.w3.org/2000/svg"><path d="M2270.5 1276.5q-27.5 59.5-69.5 141.5l-68 132q-39 74-83 156l-92 169h-1q-70 129-171.5 301.5t-163 259.5-82.5 105.5-52 18.5q-37 0-88-24.5t-97-57.5l-43-29q-47-30-104-68t-121-82l-264-180-323-222-53-37q-44-29-69-81t-25-113q0-27 12-70.5t132.5-245 252.5-398.5 281.5-399 168-214.5 32-18.5 39.5-6q24 0 45 5l35 8q50 10 304 143.5t442 246.5 202 138.5 14 51.5q0 21-5.5 33.5t-2.5 83 16 105 21 43 8 23.5q0 22-27.5 81.5z m-718.5 781.5l39-66 189-359q47-89 95-181l93-180q74-143 117.5-231.5t45.5-95 2-15.5q0-22-30.5-39.5t-50.5-30.5l-93-57q-64-39-134.5-81.5t-135.5-80.5l-46 77-484 12 51-78 478-12q-49-30-96-57t-90-50l-218 5 52-79h22l-45-19q-9-3-18-5t-21-2q-45 0-81.5 26t-57.5 64-276.5 403-324 489-81 142.5-12.5 34.5q0 13 11.5 18t27.5 5q22 0 42 6.5t47 21.5l17-28 524-14-47 78-414 11 170 109 176-6-48 80h-11l135 87q272 178 305.5 210.5t53.5 32.5q35 0 54-30t68-115z m-137 360q0-25-3-54l-5-46-730-497q-3-2-85.5-57.5t-125.5-55.5q-11 0-20.5 8t-9.5 27q0 18 16.5 43.5t62.5 51.5l159 103 703 464q37 25 38 25v-12z m99 12q44-67 154.5-256.5t217.5-383.5l110-200q75-136 133-250t66-144q-19-37-25-74-19 38-71.5 135.5t-94.5 174.5l-89 162q-46 85-94 171l-177 319q-20 36-77 136.5t-61 102.5q0 10-1.5 24.5t-1.5 21.5v9q0 15 3 29.5t8 22.5z m-803-1008l515-14-46 80-521 12z m125-192l507-14-48 80-510 12z m124-193l498-12-47 78-501 12z m568-126l-494 12 51-79 489-13z"/></svg>