<svg viewBox="0 0 2600 2760.837" xmlns="http://www.w3.org/2000/svg"><path d="M2148 1392q71 24 113 42.5t83 42.5l-63 177q-81-37-147-61t-165-53l-99-30 73-166 47 9q21 4 43 9 8-19 15-45.5t7-58.5q-18-43-32.5-92.5t-20.5-121.5l-370 892q-11 27-35.5 56.5t-59.5 47.5q-3 22-6 53.5t-3 67.5q0 54 8.5 113.5t34.5 113.5q9-5 23-23.5t77-158.5l60-133q33-74 68.5-156.5t72.5-169.5l72-172q48 12 114 35l-136 320q-161 378-218.5 481t-158.5 103q-36 0-90.5-9.5t-112.5-25.5l-80-21q-70-19-146-42l-151-45q-75-22-146-45l-134-42-177-57q-115-38-184-135t-69-239q0-58 6.5-87t7.5-30q0-13 137.5-337t261-580 191.5-359 244-103q42 0 79.5 5t66.5 10l14 2q217 40 470 119t285 102.5 43.5 39.5 24 36 16.5 79l12 213q9 156 34 207.5t25 94.5q0 44-8 73t-17 54z m-186-557q10-24 16-48.5t6-43.5q0-30-33.5-49.5t-272-94-434.5-108.5l-15-3q-27-5-59.5-9.5t-66.5-4.5q-115 0-151.5 59t-93 167-151 314-163.5 370l-61 144q-29 67-50 118 132 16 313 80t232 80l208 69q77 26 110 34t42 10l41 10q21 5 43 9t38 4q21 0 38.5-16.5t47.5-87.5l35-85q21-51 49-117l311-751z m-583 1532q26 7 54.5 13.5t54.5 10.5q-23-58-30.5-117.5t-7.5-113.5q0-29 1.5-54.5t3.5-45.5q-39 0-99.5-14t-123.5-36l-175-57q-53-16-131.5-39.5t-152.5-49.5l-141-50q-64-22-116-36t-93-14q-15 0-22 3t-21 13l-4 30q-3 17-3 44 0 60 14.5 105t41.5 79 52 49.5 131 50.5l110 35q153 49 296 92t275 79z"/></svg>