<svg viewBox="0 0 2600 2760.837" xmlns="http://www.w3.org/2000/svg"><path d="M941 1622.5q56-89.5 56-177.5 0-56-34-117.5t-34-135.5q0-117 80-249t177.5-189.5 199.5-57.5q140 0 225.5 103.5t85.5 285.5q0 18-10 26.5t-24 8.5q-38 0-41.5-47.5t-33.5-104-81-95-108-38.5q-98 0-172 82t-74 183q0 68 57 89t108.5 76 51.5 109q0 17-10.5 33t-27.5 16q-22 0-34.5-30t-34.5-47-51-17q-23 0-32.5 9t-9.5 24q0 11 5 24l10 28q5 15 9.5 33t4.5 39q0 79-65.5 169.5t-65.5 173.5q0 66 30.5 100.5t93.5 34.5q64 0 92-21.5t43-21.5q18 0 31 15t13 35q0 37-86 90t-178 53q-99 0-160.5-65.5t-61.5-196.5q0-140 56-229.5z m948-152.5q-126 278-176.5 519t-210.5 387.5-369 146.5q-154 0-273.5-77.5t-178.5-179.5l-15-26q-5-8-6-15.5t-1-14.5q0-27 18.5-48t48.5-21q20 0 37 10t26 28q0 12 49.5 70.5t126.5 97.5 169 39q158 0 280.5-116.5t162-303 98.5-338.5 130.5-325.5 71.5-340.5q0-200-128-337t-329-143h-38q-241 0-403.5 143.5t-252.5 494.5l-6 25q-5 25-23.5 40t-41.5 15q-30 0-50-19.5t-20-47.5q0-10 1-15l8-32h-1q48-199 143.5-371.5t262.5-271.5 409-99q235 0 421 165.5t186 453.5q0 229-126 507z"/></svg>