<svg viewBox="0 0 2600 2760.837" xmlns="http://www.w3.org/2000/svg"><path d="M2384 1320v21l-1 55q0 74-38.5 141t-84.5 107-78 57.5-32 34-7 34.5-7 27q-2 81-83.5 165t-208.5 84q-14 0-27-1l-27-1q-32-2-62-2-46 0-71-11.5t-42-11.5q-21 0-44 20.5t-83.5 48-134.5 27.5q-94 0-130-7t-53-16l-26-13q-13-6-26.5-10.5t-28.5-4.5q-21 0-55.5 16.5t-120.5 16.5q8 30 8 58 0 83-62.5 134t-165.5 51q-19 48-52 68.5t-87 20.5q-62 0-103-40t-41-99q0-40 21-71.5t51-43.5q-8-29-8-57 0-65 36-116.5t98-73.5q0-38-70.5-56t-113-68-45.5-90l-3-47q-5-62-44.5-92t-72.5-100.5-33-157.5q0-99 37.5-174t72-102 45-98.5 36.5-126 89-102 136-52.5q49 0 82.5-11t50.5-47.5 76-72 96-54 116-18.5h27l26 2q29 3 75.5 26.5t77.5 23.5q28 0 86.5-26.5t164.5-26.5q115 0 213.5 61t124 99 71.5 38q18 0 35 1 102 0 198 119.5t96 225.5v18q0 10-1 21 0 35 30 65.5t60 87.5 35 106z m-1784.5 943.5q-15.5-17.5-41.5-17.5-21 0-37.5 13.5t-16.5 34.5q0 25 16.5 41t39.5 16q20 0 37.5-13t17.5-36q0-21-15.5-38.5z m171.5-207.5q-37-32-85-32-40 0-70.5 25.5t-30.5 65.5q0 47 31 76t78 29q43 0 78.5-24.5t35.5-66.5q0-41-37-73z m1463-840q-36-77-65.5-85.5t-29.5-27.5q0-12 2.5-25.5t2.5-28.5q0-50-13.5-84.5t-41.5-71-56-63-69.5-41-78.5-14.5q-15 0-29 2.5t-28 2.5q-18 0-66-66.5t-122-98.5-153-32q-64 0-107 17.5t-59.5 34-33.5 16.5q-12 0-75.5-31.5t-143.5-31.5q-85 0-149 47.5t-80.5 80-72.5 32.5l-47-1q-90 0-165.5 77.5t-75.5 175.5q0 11 14 13t14 14q0 13-19.5 20.5t-80.5 73-61 176.5q0 92 46 157.5t56 65.5q9 0 20-11t20-11 12.5 8 3.5 19q0 30-5.5 62t-5.5 63q0 66 44 93t72 27q6 0 10.5-3.5t9.5-8.5l9-8q4-4 10-4 17 0 20 36.5t33.5 88 92.5 83.5 138 32q66 0 117.5-17.5t71.5-36 38-18.5q8 0 14.5 4.5t6.5 15.5q0 9-2 17t-2 14q0 23 45.5 35.5t98.5 12.5q95 0 177.5-45t105-80.5 35.5-35.5q18 0 21 28.5t59 39 92 10.5q62 0 115.5-33t86-87 32.5-79q0-9 6-37.5t6-63.5l-1-14q0-8 6.5-12.5t14.5-4.5q14 0 21 8.5t16 8.5q7 0 61-39t75.5-88 21.5-110q0-86-36-163z"/></svg>