<svg viewBox="0 0 2600 2760.837" xmlns="http://www.w3.org/2000/svg"><path d="M2253 1467q0 22 1 43 0 282-127.5 460t-359.5 262.5-474 84.5q-225 0-455-82t-361-258-131-469q0-115 22-223.5t72-213.5q-38-51-63-122.5t-25-136.5q0-138 90.5-220.5t199.5-82.5q44 0 92 14t97 42.5 116 28.5h15q80-27 165.5-41t172.5-14q160 0 312 47l18 1q66 0 141.5-43t161.5-43q113 0 201.5 84t88.5 216q0 57-16.5 115t-48.5 109l-11 17q45 90 72 187t32 195z m-448.5-713.5q18.5 18.5 40.5 33.5l21 16q16 15 32 37l29 42q14 20 27.5 34.5t26.5 14.5q29 0 52-38t23-84q0-64-45-108.5t-107-44.5q-40 0-79 22t-39 41q0 16 18.5 34.5z m-1168.5 163.5q13-14 27-34l28-42q25-37 69-66t44-56q0-21-40-42t-79-21q-64 0-107.5 45.5t-43.5 107.5q0 50 23.5 86t52.5 36q13 0 26-14z m201.5 494q-29.5-36-71.5-36t-72 35.5-30 84.5q0 51 30 86.5t72 35.5 71.5-36 29.5-86q0-48-29.5-84z m713.5 76q-108-118-255-118-149 0-257 118t-108 286q0 145 91.5 220t273.5 75q180 0 271.5-75t91.5-220q0-168-108-286z m345.5-76q-29.5-36-71.5-36t-72 35.5-30 84.5q0 51 30 86.5t72 35.5 71.5-36 29.5-86q0-48-29.5-84z m-722 120.5q51.5-40.5 121.5-40.5t121.5 41 51.5 98-52 97.5-121 40.5q-70 0-121.5-40t-51.5-98 51.5-98.5z m325.5 320q10 9.5 10 23.5 0 5-2 9l-4 9q-13 26-71 60t-137 34q-90 0-152.5-42.5t-62.5-71.5q0-12 10-21.5t24-9.5q16 0 27 14l18 17q22 20 56.5 33.5t79.5 13.5q51 0 87.5-16.5t56.5-39 35-22.5 25 9.5z"/></svg>