<svg viewBox="0 0 2600 2760.837" xmlns="http://www.w3.org/2000/svg"><path d="M2524 1352q2 9 3 18.5t1 18.5q0 35-8.5 69t-8.5 69q0 34 3.5 67t3.5 67q0 90-32 169.5t-60 128-44 132.5-64 120.5-123 36.5q-110 0-264-66.5t-274.5-217-174-270-113.5-119.5q-25 0-51 10l-52 20q31 19 48.5 44.5t17.5 54.5q0 43-24.5 66.5t-68.5 23.5q-57 0-116-31.5t-86-68.5q-32 8-65.5 14.5t-68.5 10.5q19 24 26 46.5t7 54.5q0 73-27.5 114t-78.5 41q-25 0-53.5-13t-64.5-54.5-47.5-106.5-13.5-86q-237-37-408.5-164t-171.5-266q0-60 68-100t108.5-63.5 116-49.5 135-42.5 129.5-20.5q13-127 100.5-232.5t212-164.5 195.5-59q47 0 86 20t51 53l7 17q11 27 57.5 81.5t46.5 94.5q0 20-7.5 38t-7.5 40q0 17 17 48.5t17 89.5q0 35-20 61.5t-50 41.5q3 0 6 1t6 1q26 0 83.5-57.5t218.5-187.5 271-173 223-43q132 0 247 89t115 218q0 45-7.5 90t-7.5 85q0 25 3.5 48t9.5 46z m-2097.5-102q-22.5-24-52.5-24-35 0-56 27t-21 62q0 32 24 55.5t56 23.5q31 0 51.5-26t20.5-60-22.5-58z m1491-137.5q7.5 7.5 27.5 7.5 26 0 49-8l46-16q64-22 97-46t33-52q0-21-18-39t-49-18q-56 0-124.5 48.5t-68.5 103.5q0 12 7.5 19.5z m165 662.5q-58.5-37-124.5-37-18 0-29.5 8.5t-11.5 30.5q0 47 65 98.5t114 51.5q24 0 34.5-18t10.5-41q0-56-58.5-93z m149-292q26.5-18 26.5-52 0-39-30.5-58.5t-69.5-19.5q-47 0-128.5 29t-81.5 55q0 31 58 47.5t142 16.5q57 0 83.5-18z"/></svg>