<svg viewBox="0 0 2600 2760.837" xmlns="http://www.w3.org/2000/svg"><path d="M2185 665q93 7 147.5 80.5t54.5 181.5v888q0 20-7.5 37t-20.5 31l-233 262q-13 18-34 29.5t-46 11.5h-7q-4 0-7-1l-391-44q63-86 94-184.5t31-204.5q0-178-90.5-331.5t-243-240-328.5-86.5q-226 0-408 142t-235 361q74-164 266-296t376-132q232 0 406.5 172.5t174.5 411.5q0 138-58.5 259t-164.5 199l-118 87q-75 55-161.5 86t-189.5 31q-193 0-347.5-116.5t-207.5-294.5l-72-9q-74 0-113-65t-39-173v-637q0-158 17.5-237.5t73-162 183.5-157.5l38-22q26-15 66-28.5t98-13.5h16l29 2 53 5q41 4 104.5 11t123.5 13l200 24 176-118q8-4 13-4h6l434 46q13 0 22 9l159 160z m-867 1479q128-139 128-313 0-185-133-318t-317-133q-178 0-315 133.5t-137 318.5q0 184 133.5 317.5t317.5 133.5q195 0 323-139z m23-298q-8 137-107 235t-236 98q-144 0-247.5-102.5t-103.5-244.5q0-110 62-197t165-129q-72 46-114 117.5t-42 151.5q0 134 93 226.5t224 92.5q106 0 195.5-71t110.5-177z m-227-1027l495 56-113-137-250-26z"/></svg>