<svg viewBox="0 0 2600 2760.837" xmlns="http://www.w3.org/2000/svg"><path d="M2257.5 1984q-148.5 257-405 405.5t-552.5 148.5-552.5-149-405-405.5-148.5-552.5q0-295 147.5-551.5t404.5-405.5 554-149q296 0 552.5 148.5t405 405 148.5 552.5-148.5 553z m-93-1052.5q-134.5-230.5-365-365t-499.5-134.5q-272 0-504.5 137.5t-364 368-131.5 493.5q0 266 134.5 498.5t366 366.5 499.5 134q266 0 495.5-131.5t366.5-363.5 137-504q0-269-134.5-499.5z m45 545q-18.5 18.5-45.5 18.5-26 0-44.5-18.5t-18.5-45.5q0-26 18.5-44.5t44.5-18.5q27 0 45.5 18.5t18.5 44.5q0 27-18.5 45.5z m-205-431q-19.5-17.5-19.5-46.5 0-24 17-43.5t46-19.5q23 0 43.5 17t20.5 46q0 28-19 46t-45 18q-24 0-43.5-17.5z m-316-409q19.5-17.5 43.5-17.5 28 0 46 19.5t18 43.5q0 28-19.5 46.5t-44.5 18.5q-24 0-43.5-18t-19.5-47q0-28 19.5-45.5z m-777 0.5q20.5 18 20.5 46 0 24-18 44t-46 20q-24 0-44-17t-20-46 19.5-47 43.5-18 44.5 18z m-315.5 408.5q-20 17.5-44 17.5-29 0-46.5-20.5t-17.5-44.5q0-28 20.5-45t43.5-17q27 0 45.5 18.5t18.5 44.5q0 29-20 46.5z m-115 431q-19 18.5-45 18.5t-45-18.5-19-45.5q0-26 19-44.5t45-18.5 45 18.5 19 44.5q0 27-19 45.5z m114.5 341q20.5 17.5 20.5 45.5 0 24-18.5 44t-46.5 20q-23 0-43-17t-20-45 19.5-46.5 44.5-18.5q23 0 43.5 17.5z m316.5 408.5q-20 18-45 18-28 0-45.5-20.5t-17.5-44.5q0-29 20-46t43-17q25 0 45 17.5t20 45.5q0 29-20 47z m864.5-91.5q19.5 18.5 19.5 46.5 0 23-17.5 42.5t-46.5 19.5q-25 0-44-17t-19-46q0-28 20-46t44-18 43.5 18.5z m315.5-224.5q-20 17-43 17-28 0-46-19.5t-18-43.5q0-29 19.5-46.5t43.5-17.5q26 0 45 18t19 46q0 29-20 46z m-333-836l80 138-370 214q0 51-23.5 91t-65.5 63v763h-159v-763q-41-22-65.5-61t-24.5-88q0-71 50-120t119-49q25 0 47 7t42 19z m-505 312.5q-18 18.5-18 44.5 0 25 18 44.5t46 19.5q26 0 45-18.5t19-45.5q0-26-18-44.5t-46-18.5-46 18.5z m1-864.5q19-19 45-19t45 19 19 45-19 44.5-45 18.5-45-18.5-19-44.5 19-45z"/></svg>