<svg viewBox="0 0 2600 2760.837" xmlns="http://www.w3.org/2000/svg"><path d="M2223 400q47 0 79 33t32 78v1845q0 45-33 78t-78 33h-1846q-45 0-78-33t-33-78v-1845q0-45 32-78t79-33h1846z m33 111q0-14-10-23.5t-23-9.5h-1846q-14 0-23 9.5t-9 23.5v1845q0 14 9 23.5t23 9.5h1846q13 0 23-9.5t10-23.5v-1845z m-175 122q26 22 42.5 54t16.5 69v1354q0 65-47.5 113t-115.5 48h-1354q-34 0-63.5-12.5t-52.5-35.5l201-204q-30-32-30-78v-1016q0-46 34-81t81-35h1015q21 0 38.5 7t33.5 19z m-273 1377q28 0 48.5-20.5t20.5-48.5v-1016q0-29-21-48l-179 183q14 14 21.5 32t7.5 38v606q0 43-31 72.5t-72 29.5h-606q-37 0-66-24l-180 181q9 6 20 10.5t22 4.5h1015z m-179-880q0-14-9-20t-17-6h-606q-10 0-18 7.5t-8 18.5v606q0 11 8 18.5t18 7.5h606q11 0 18.5-7.5t7.5-18.5v-606z"/></svg>