<svg viewBox="0 0 2600 2760.837" xmlns="http://www.w3.org/2000/svg"><path d="M2176 1936.5q-136 234.5-370.5 370.5t-505.5 136q-272 0-506-136t-370-370-136-506 136-506 370-370 506-136q271 0 505.5 136t370.5 370.5 136 505.5-136 505.5z m-232 57.5q99-114 155-257.5t56-305.5q0-231-116.5-429.5t-313.5-312.5-425-114q-162 0-305.5 56.5t-257.5 155.5l137 138-97 17q-22 4-36 20t-14 39l-98-99q-87 109-136 243.5t-49 285.5q0 228 114 425t312.5 313.5 429.5 116.5q151 0 285.5-48.5t243.5-136.5l-118-118q37-15 70-39t59-54z m-725-725q12 73 54 130-36 42-58 90l-82-84v-222z m554 133q51 44 79.5 106.5t28.5 138.5q0 140-93 230.5t-233 90.5-234-90.5-94-230.5q0-76 29.5-138t79.5-107q-35-35-55.5-87t-20.5-113q0-125 84-207t211-82q128 0 211 82t83 207q0 60-20 111t-56 89z m-129 343.5q37-38.5 37-98.5t-37-98.5-89-38.5q-56 0-92 39t-36 98q0 58 37.5 97.5t90.5 39.5q52 0 89-38.5z m-159.5-145q10.5-22.5 31.5-33.5l114 113q-7 24-25.5 41t-49.5 17q-39 0-60-27t-21-64q0-24 10.5-46.5z m153-486.5q-32.5-35-82.5-35-51 0-83 35t-32 88q0 56 32 90t83 34q50 0 82.5-34t32.5-90q0-53-32.5-88z m-485.5 620q5 0 9.5 4t4.5 9v183q0 6-4.5 9.5t-9.5 3.5h-342q-13 0-13-13v-183q0-5 4-9t9-4h65v-539l-87 10q-5 0-9.5-3t-4.5-9v-194q0-5 3-8.5t8-3.5l286-49q15 0 15 14v782h66z"/></svg>