<svg viewBox="0 0 2600 2760.837" xmlns="http://www.w3.org/2000/svg"><path d="M2257.5 1983.5q-148.5 256.5-405 405t-552.5 148.5-552.5-148.5-405-405-148.5-552.5q0-297 149-552.5t404.5-404.5 552.5-149q296 0 552.5 148.5t405 405 148.5 552.5-148.5 552.5z m-89-1046q-131.5-230.5-364-368t-504.5-137.5q-269 0-499.5 134.5t-365 365-134.5 499.5q0 272 137.5 504.5t368 364 493.5 131.5q266 0 498.5-134.5t367-367 134.5-498.5q0-263-131.5-493.5z m41 539.5q-18.5 19-44.5 19-27 0-46-19t-19-46q0-26 19-44.5t46-18.5q26 0 44.5 18.5t18.5 44.5q0 27-18.5 46z m-204.5-431q-20-17-20-46 0-24 17.5-44.5t45.5-20.5q25 0 45 18t20 46-18.5 46-45.5 18q-24 0-44-17z m-317-409q20-18 44-18 29 0 46.5 20t17.5 45q0 28-20 45.5t-44 17.5q-23 0-43.5-17t-20.5-47q0-28 20-46z m-775.5 0q19.5 18 19.5 46 0 25-18 44.5t-46 19.5q-24 0-44-18t-20-46 19.5-46 45.5-18q24 0 43.5 18z m-318 409q-20.5 17-44.5 17-29 0-45.5-20.5t-16.5-43.5q0-29 19.5-46.5t43.5-17.5q25 0 44.5 18.5t19.5 46.5q0 29-20.5 46z m-112.5 430.5q-18 18.5-44 18.5-27 0-46.5-18t-19.5-46q0-26 19-44.5t45-18.5 45 18.5 19 44.5q0 27-18 45.5z m113.5 340q19.5 17.5 19.5 46.5 0 24-17.5 44.5t-46.5 20.5q-24 0-43.5-17.5t-19.5-46.5 19.5-47 43.5-18q25 0 44.5 17.5z m317 409.5q-19.5 18-44.5 18-28 0-46-19.5t-18-43.5q0-29 20-47t44-18q25 0 44.5 19t19.5 45q0 28-19.5 46z m863.5-92.5q20 17.5 20 46.5 0 25-17.5 44.5t-45.5 19.5q-24 0-44.5-17.5t-20.5-45.5q0-26 19-45.5t46-19.5q23 0 43 17.5z m317-223.5q-20 18-45 18-28 0-45.5-20.5t-17.5-44.5q0-29 20-46t44-17q26 0 45 17.5t19 46.5q0 28-20 46z m-624-473l370 214-79 137-371-213q-6 4-9 5v763h-160v-763q-40-21-64.5-60.5t-24.5-88.5q0-69 50-119t119-50 119.5 50 50.5 119q0 4-1 6z m-124-50.5q-19-18.5-45-18.5-24 0-43.5 18t-19.5 45 18.5 45 44.5 18q27 0 45.5-18t18.5-45q0-26-19-44.5z m-90-864q19-18.5 45-18.5t45 18 19 45q0 26-19 45t-45 19-45-18.5-19-45.5q0-26 19-44.5z"/></svg>