<svg viewBox="0 0 2600 2760.837" xmlns="http://www.w3.org/2000/svg"><path d="M2400 2166q14 14 20 32t6 39q0 93-95.5 186.5t-185.5 93.5q-21 0-39-6t-32-20l-425-425q-26-28-26-71 0-48 29-101l-186-185q-109 82-234 123t-255 41q-215 0-402-107t-294-294-107-402q0-216 108-402t294-294 402-108q217 0 402 107t293.5 293.5 108.5 400.5q0 131-41.5 256t-124.5 234l185 185q26-14 51.5-20t48.5-6q22 0 41.5 6t32.5 20z m-1101-548.5q147-87.5 231-233t84-314.5q0-260-186.5-447.5t-449.5-187.5q-171 0-316 83.5t-232.5 230.5-87.5 321q0 170 85.5 316.5t232 232.5 318.5 86q174 0 321-87.5z"/></svg>