<svg viewBox="0 0 2600 2760.837" xmlns="http://www.w3.org/2000/svg"><path d="M2255.5 1982q-148.5 256-405 404.5t-551.5 148.5-551-148.5-404.5-404.5-148.5-551 148.5-551.5 404.5-405 551-148.5 551.5 148.5 405 405 148.5 551.5-148.5 551z m-92-1050.5q-134.5-230.5-365-365t-499.5-134.5q-268 0-498.5 134t-365 365-134.5 500q0 267 134 497.5t364.5 365.5 499.5 135 499.5-134 365-364.5 134.5-499.5-134.5-499.5z m-696.5 505.5l370 212-79 138-370-213q-19 12-41.5 19t-47.5 7q-69 0-119-50t-50-119q0-48 24.5-87.5t64.5-61.5v-762h159v762q41 22 66 61.5t25 87.5q0 3-2 6z m219.5-800q19.5-18 45.5-18 28 0 45.5 19.5t17.5 44.5q0 28-20 45.5t-45 17.5q-26 0-44.5-18t-18.5-45q0-28 19.5-46z m316.5 408.5q-19-17.5-19-45.5 0-25 17.5-45t45.5-20q23 0 43 17t20 46q0 27-18.5 46t-44.5 19q-25 0-44-17.5z m-1091-409q20 17.5 20 46.5 0 24-18 43.5t-47 19.5q-23 0-43-17.5t-20-45.5 18.5-46 43.5-18q26 0 46 17.5z m1178 1273q-20 16.5-43 16.5-28 0-45.5-20t-17.5-43q0-29 18.5-47t44.5-18q27 0 45 19t18 47q0 29-20 45.5z m-746 429.5q-19 18-45 18t-44.5-18-18.5-45q0-26 18-45t45-19q26 0 45 19t19 45q0 27-19 45z m-863-863.5q-19 18.5-45 18.5-27 0-45-18.5t-18-44.5 18-45 45-19q26 0 45 19t19 45-19 44.5z m1294 657q20 17.5 20 46.5 0 25-19 44t-46 19q-23 0-43-17.5t-20-45.5q0-27 18-45.5t45-18.5q25 0 45 17.5z m-1180.5-1086.5q-20.5 17-43.5 17-28 0-45.5-20t-17.5-43q0-27 19-46t44-19q29 0 46.5 19.5t17.5 45.5q0 29-20.5 46z m317.5 1179q-20 17-43 17-28 0-46.5-19.5t-18.5-44.5q0-28 20-45.5t43-17.5q28 0 46.5 18t18.5 46q0 29-20 46z m-316.5-409.5q19.5 17.5 19.5 47.5 0 23-17.5 43t-46.5 20q-25 0-44-18.5t-19-46.5 19.5-45.5 43.5-17.5q25 0 44.5 17.5z m1612-340q-18.5 18.5-45.5 18.5-26 0-44.5-18.5t-18.5-44.5 18.5-45 44.5-19q27 0 45.5 19t18.5 45-18.5 44.5z m-863.5 0.5q19-18 19-45 0-26-19-45t-45-19q-23 0-43 18t-20 46q0 25 17.5 44t45.5 19q26 0 45-18z"/></svg>