<svg viewBox="0 0 2600 2760.837" xmlns="http://www.w3.org/2000/svg"><path d="M1733 1865q12 0 12 12v511q0 11-12 11h-111q-8 0-10-5l-208-324v318q0 11-12 11h-110q-12 0-12-11v-511q0-12 12-12h110q8 0 11 5l208 325v-318q0-12 11-12h111z m-613.5 457q-79.5 77-201.5 77-124 0-202.5-77.5t-78.5-195.5q0-117 78.5-194.5t202.5-77.5q122 0 201.5 77t79.5 195q0 119-79.5 196z m-97-297.5q-40.5-40.5-104.5-40.5-66 0-106.5 40.5t-40.5 101.5q0 62 40.5 101.5t106.5 39.5q64 0 104.5-39.5t40.5-101.5q0-61-40.5-101.5z m901 361q-13.5 13.5-30.5 13.5-18 0-31.5-13.5t-13.5-30.5q0-20 13.5-32.5t31.5-12.5q17 0 30.5 12.5t13.5 32.5q0 17-13.5 30.5z m38.5-449.5l-58 319q-2 10-11 10-4 0-8-2.5t-4-7.5l-58-319q0-4-1-12 0-30 20.5-51t50.5-21q29 0 49.5 21t20.5 51q0 8-1 12z m-328-1202v-401l877 644-877 642v-401h-670v401l-875-642 875-644v401h670z"/></svg>