<svg viewBox="0 0 2600 2760.837" xmlns="http://www.w3.org/2000/svg"><path d="M2348.5 1979q-162.5 280-442.5 442.5t-606 162.5-606-162.5-442.5-442.5-162.5-606 162.5-606 442.5-442.5 606-162.5 606 162.5 442.5 442.5 162.5 606-162.5 606z m-1612.5-1371l1336 1323q85-118 132.5-259.5t47.5-298.5q0-252-126-472.5t-347.5-349.5-478.5-129q-159 0-302 49t-262 137z m1124 1535l-1334-1323q-84 118-130.5 258t-46.5 295q0 257 129 478.5t349.5 347.5 472.5 126q158 0 300-48t260-134z m-360-889q-18-60-50.5-96.5t-76.5-37.5q26-274 95-426t161-152q71 0 155 252t84 575q0 62-3.5 120.5t-9.5 115.5z m-282 362q27 223 93.5 376t151.5 204h-65q-23 0-85-93.5t-115-235.5h-3l-241-303-74-22q-8 84-25 135.5t-48 56.5l-5 1h-139q-57 0-97.5-101.5t-40.5-241.5q0-133 36.5-230.5t87.5-109.5z m498 494q-23 42-45 64t-42 22q-76 0-137-105.5t-95-298.5z m-544-1182q52-166 121.5-276t113.5-110h56q-72 43-132.5 163.5t-92.5 288.5z"/></svg>