<svg viewBox="0 0 2600 2760.837" xmlns="http://www.w3.org/2000/svg"><path d="M2254 1882q6 9 8.5 19.5t2.5 21.5q0 33-23.5 55.5t-54.5 22.5h-547l-273 456q-23 38-67 38-20 0-38.5-9.5t-29.5-28.5l-272-456h-548q-31 0-54.5-22.5t-23.5-55.5q0-22 11-41l273-458-273-458q-11-19-11-39 0-33 23-55.5t55-22.5h548l272-458q11-19 29.5-28.5t38.5-9.5q44 0 67 38l273 458h547q31 0 54.5 22.5t23.5 55.5q0 10-2.5 20t-8.5 19l-272 458z m-522-876l159 265 157-265h-316z m-182 0h-501l-247 418 247 419h501l249-419z m-407-157h313l-156-265z m-433 422l157-265h-316z m157 572l-157-266-159 266h316z m589 158h-313l157 263z m592-158l-157-266-159 266h316z m-582.5-244.5q-68.5 69.5-165.5 69.5t-166-69.5-69-164.5q0-97 69-166.5t166-69.5 165.5 69.5 68.5 166.5q0 95-68.5 164.5z"/></svg>