<svg viewBox="0 0 2600 2760.837" xmlns="http://www.w3.org/2000/svg"><path d="M1771 1403q11 14 11 28 0 16-11 27l-445 445q-4 5-11 8t-15 3q-15 0-29-11l-443-445q-11-11-11-26 0-9 3-15.5t8-13.5l443-442q13-12 29-12 8 0 15 3t11 9z m-380-5l54-55-54-56-57 56z m-91-21l-56 57 56 54 55-54z m55-124l-55-56-56 56 56 55z m-147 34l-56 56 56 55 57-55z m-90 90l-56 57 56 54 56-54z m34 146l56 56 57-56-57-55z m92 91l56 57 55-57-55-56z m147-35l54-56-56-55-55 55z m89-91l56-56-56-55-55 57z m90-90l43-41-57-56-41 42z m-48-132l-56-56-41 43 55 55z m-90-90l-56-56-42 41 57 56z m-91-92l-41-41-42 41 42 43z m-118 36l-56 56 41 41 57-56z m-91 90l-56 56 42 42 56-55z m-91 91l-56 56 43 41 56-55z m-90 90l-40 41 41 41 41-39z m37 117l55 56 41-41-56-55z m90 90l56 56 40-40-56-56z m91 90l56 57 40-40-57-56z m90 92l41 40 39-40-39-41z m114-35l56-57-38-39-57 56z m92-91l56-56-41-40-55 56z m90-90l56-56-41-40-55 55z m90-91l43-41-41-41-41 41z"/></svg>