<svg viewBox="0 0 2600 2760.837" xmlns="http://www.w3.org/2000/svg"><path d="M2255.5 1982q-148.5 256-404.5 404.5t-551 148.5-551-148.5-404.5-404.5-148.5-551 148.5-551.5 404.5-405 551-148.5 551 148.5 404.5 405 148.5 551.5-148.5 551z m-90.5-1047q-132-230-362.5-366.5t-502.5-136.5-502.5 136.5-362.5 366.5-132 496q0 265 131.5 495t362.5 366.5 503 136.5q271 0 501.5-136t363-366 132.5-496-132-496z m-786 347q41 22 65.5 61t24.5 87-24.5 87.5-65.5 61.5v428h-158v-428q-41-22-66-60.5t-25-88.5q0-48 25-87t66-61v-762h158v762z m-34.5 104q-18.5-19-44.5-19t-44.5 19-18.5 45q0 27 18.5 45t44.5 18q25 0 44-18t19-45q0-26-18.5-45z m863.5 89.5q-18 18.5-45 18.5-26 0-44.5-18.5t-18.5-44.5 18.5-45 44.5-19q27 0 45 19t18 45-18 44.5z m-205-431q-19-18.5-19-46.5 0-23 17.5-43t46.5-20q24 0 43.5 18t19.5 47q0 28-19.5 45.5t-43.5 17.5q-26 0-45-18.5z m-228-314.5q-20 16-43 16-28 0-45.5-19.5t-17.5-43.5q0-28 18.5-46t45.5-18 44.5 19 17.5 47q0 29-20 45z m-863-93q19 18 19 46 0 24-17.5 43.5t-45.5 19.5q-26 0-45-18t-19-46q0-27 18.5-45t44.5-18 45 18z m-315.5 407.5q-18.5 18.5-44.5 18.5-28 0-45.5-20t-17.5-43q0-28 18.5-46.5t44.5-18.5q27 0 45 18t18 45q0 28-18.5 46.5z m-115 431q-18.5 18.5-44.5 18.5-27 0-45.5-18.5t-18.5-44.5 18.5-45 45.5-19q26 0 44.5 19t18.5 45-18.5 44.5z m115 341.5q18.5 19 18.5 46 0 23-17.5 43t-45.5 20q-25 0-44-17.5t-19-45.5q0-27 18.5-46t44.5-19 44.5 19z m315 407q-19.5 18-44.5 18-28 0-45.5-19.5t-17.5-43.5q0-30 20-47t44-17q26 0 44.5 17.5t18.5 46.5q0 27-19.5 45z m433.5 114.5q-18 18.5-45 18.5t-45-18.5-18-44.5 18-44.5 45-18.5 45 18.5 18 44.5-18 44.5z m430-206.5q20 17 20 46 0 26-17 45t-46 19q-24 0-43.5-18t-19.5-45q0-29 18.5-46.5t44.5-17.5q23 0 43 17z m316.5-223.5q-19.5 17.5-43.5 17.5-29 0-46.5-20t-17.5-43q0-27 19-46t45-19 44.5 19 18.5 46q0 28-19.5 45.5z"/></svg>