<svg viewBox="0 0 2600 2760.837" xmlns="http://www.w3.org/2000/svg"><path d="M2257 1983.5q-149 255.5-404.5 404.5t-552.5 149q-296 0-552.5-148.5t-405-405-148.5-552.5 148.5-552.5 405-405 552.5-148.5 552.5 148.5 405 405 148.5 552.5q0 297-149 552.5z m-91.5-1051.5q-133.5-231-364.5-366t-501-135q-273 0-506 138t-363.5 369.5-130.5 492.5q0 263 131.5 493.5t364 368 504.5 137.5q269 0 499.5-134.5t365-365 134.5-499.5q0-268-133.5-499z m43 543.5q-18.5 18.5-44.5 18.5-27 0-45.5-18.5t-18.5-44.5q0-27 18.5-45.5t45.5-18.5q26 0 44.5 18.5t18.5 45.5q0 26-18.5 44.5z m-204-430.5q-19.5-17-19.5-46 0-23 17-43.5t46-20.5q23 0 43.5 17.5t20.5 46.5q0 25-18 44t-46 19q-24 0-43.5-17z m-1181-316.5q-19.5-17.5-19.5-46.5 0-25 17-44t46-19q24 0 44 18t20 46q0 25-19.5 44t-44.5 19q-24 0-43.5-17.5z m-229 316q-20.5 17.5-44.5 17.5-29 0-46-20t-17-43q0-29 20-46.5t44-17.5q27 0 45.5 18.5t18.5 44.5q0 29-20.5 46.5z m-114.5 431q-19 18.5-45 18.5t-45-18.5-19-44.5q0-27 19-45.5t45-18.5 45 18.5 19 45.5q0 26-19 44.5z m115 341.5q20 18 20 47 0 23-17.5 42.5t-46.5 19.5q-25 0-44.5-17.5t-19.5-45.5q0-26 19.5-45t44.5-19q24 0 44 18z m316.5 407.5q-19.5 18.5-43.5 18.5-29 0-46.5-19.5t-17.5-43.5q0-29 20-47t44-18q23 0 43 18t20 45q0 28-19.5 46.5z m864-91q20.5 17.5 20.5 45.5 0 24-18.5 44t-46.5 20q-25 0-44-18.5t-19-46.5q0-29 19.5-45.5t43.5-16.5 44.5 17.5z m316.5-225q-20 17.5-44 17.5-29 0-46.5-20t-17.5-43q0-28 19.5-46t44.5-18q24 0 44 18t20 45q0 29-20 46.5z m-648-390.5q-25 39-65 61v763h-159v-763q-40-22-65-61t-25-88l1-2v-3l-370-213 79-139 370 214q20-12 42.5-19t47.5-7q69 0 119 50t50 119q0 49-25 88z m-189.5-132q-18.5 18-18.5 45 0 26 18.5 44.5t45.5 18.5q26 0 44.5-16t18.5-44q0-27-16.5-46.5t-47.5-19.5q-26 0-44.5 18z m520.5-657.5q-20 17.5-43 17.5-28 0-46-20t-18-44q0-28 20-45.5t44-17.5q26 0 44.5 17.5t18.5 46.5q0 28-20 45.5z m-520.5-207.5q18.5-19 45.5-19 26 0 44.5 19t18.5 45-18.5 45-45.5 19q-26 0-44.5-19t-18.5-45 18.5-45z"/></svg>