<svg viewBox="0 0 2600 2760.837" xmlns="http://www.w3.org/2000/svg"><path d="M2256 1985q-150 257-406.5 403t-549.5 146q-292 0-548.5-145.5t-407-402.5-150.5-556q0-294 146.5-549.5t404-405 555.5-149.5q296 0 553.5 149t405 404.5 147.5 550.5q0 298-150 555z m-91.5-1054.5q-134.5-230.5-365-365t-499.5-134.5-499.5 134.5-365 365-134.5 499.5 134.5 499.5 365 365 499.5 134.5 499.5-134.5 365-365 134.5-499.5-134.5-499.5z m-785.5 350.5q41 21 65.5 61t24.5 88q0 69-50 119t-119 50-119-50-50-119q0-25 7-47.5t18-41.5l-212-370 138-79 139 241v-614h158v762z m-33.5 104q-18.5-19-45.5-19t-45.5 19-18.5 45q0 29 19 46t45 17q31 0 47.5-20.5t16.5-42.5q0-26-18.5-45z m863 90q-18.5 18-45.5 18-26 0-44.5-18t-18.5-45q0-26 18.5-45t44.5-19q27 0 45.5 19t18.5 45q0 27-18.5 45z m-204-431.5q-20.5-17.5-20.5-46.5 0-23 18-42.5t47-19.5q24 0 43 17.5t19 45.5q0 26-17.5 44.5t-45.5 18.5q-23 0-43.5-17.5z m-229-315.5q-19.5 18-45.5 18-28 0-44.5-20.5t-16.5-43.5q0-28 19.5-45.5t43.5-17.5q25 0 44 17t19 46q0 28-19.5 46z m-864-91q19.5 18 19.5 46 0 23-16 43t-45 20q-26 0-46-18t-20-46 19.5-45.5 44.5-17.5q24 0 43.5 18z m-315 407q-19.5 17-44.5 17-28 0-45.5-19.5t-17.5-43.5q0-29 19-46t43-17 44.5 18 20.5 45q0 29-19.5 46z m-114.5 431q-18 18-45 18t-45.5-18-18.5-45 18.5-45.5 45.5-18.5 45 18.5 18 45.5-18 45z m114.5 341q19.5 17 19.5 46 0 23-17 43.5t-46 20.5q-23 0-43.5-17.5t-20.5-46.5q0-26 17.5-44.5t45.5-18.5q25 0 44.5 17z m315 407.5q-19.5 17.5-43.5 17.5-29 0-46.5-19.5t-17.5-42.5q0-29 20-46.5t43-17.5q25 0 44.5 16t19.5 46q0 29-19.5 46.5z m435 114.5q-17.5 18-43.5 18-27 0-47-17.5t-20-45.5q0-26 19-44.5t45-18.5q27 0 45.5 18.5t18.5 44.5q0 27-17.5 45z m428.5-205.5q20 17.5 20 46.5 0 23-17.5 42.5t-45.5 19.5q-24 0-44.5-17.5t-20.5-45.5q0-27 19.5-45t45.5-18q23 0 43 17.5z m315.5-224.5q-20.5 18-43.5 18-29 0-46-20t-17-43q0-28 20.5-46t43.5-18q28 0 45.5 18.5t17.5 44.5q0 28-20.5 46z"/></svg>