<svg viewBox="0 0 2600 2760.837" xmlns="http://www.w3.org/2000/svg"><path d="M1915.5 2454.5q-126.5 115.5-260.5 182.5t-269 67l-22-1q-61-2-89-35t-28-72q0-48 27-89t137.5-75 169.5-77.5 59-92.5q0-18-12-34t-29-16q-8 0-17 2t-17 2q-14 0-31-5t-30-13l-7 2q-20 100-111.5 166t-202.5 66q-63 0-119-21.5t-94-61.5q-4 2-7 3l-7 2q-24 8-44 22l-41 29q-21 14-42.5 24.5t-47.5 10.5q-46 0-77-31t-31-83q0-67 50-123t193-114q8-17 18.5-36t24.5-33l-238-89-87-32-51-18q-61-20-61-44l3-78q0-17 7-21l175-124q-24-14-49-53t-25-60q0-16 12-28l152-149q-6-30-6-58 0-26 3.5-50.5t14.5-55.5l217-620q10-28 44-28 8 0 18 1l119-335q-3-10-3-18 0-26 22-40.5t60-14.5q89 0 224 55t135 116q0 20-11.5 31t-29.5 18l-116 325 19 11q18 12 29.5 26t11.5 29q0 6-2 14l-34 99q205 130 312 306t107 393q0 61-7.5 115.5t-18.5 99.5q30 27 51 79.5t21 85.5q0 51 32.5 114.5t32.5 174.5q0 142-126.5 257.5z m-670.5-1438.5q40 43 98 43 61 0 102-46.5t41-108.5q0-57-41.5-100t-95.5-43q-59 0-101.5 46.5t-42.5 106.5q0 59 40 102z m-374 262q0 51 29 94.5t84 63 98 19.5q39 0 75-18t61-55q-92-2-177-28t-170-76z m509 900l-350-132q-23 23-35 51t-12 57q0 62 52 109t133 47q61 0 116.5-28.5t85.5-80.5z m266-313q5-5 5-10 0-19-35.5-31t-58.5-21l-96-36-110-40-106-37v14q0 29-40 47t-84 18q-48 0-76-13t-30-39l-9-111q-7-2-12-4l-9-4q-4-2-8-2-2 0-8-1.5t-13-1.5q-11 0-24.5 4t-30.5 16l-154 116q-3 2-5.5 5.5t-2.5 9.5q0 5 3.5 12.5t16.5 12.5l657 248q25 9 45 9 19 0 31-5.5t19-12.5z m-173-209q37-62 52.5-119t15.5-109q0-85-35.5-165t-94.5-143l-88 251q-5 18-22 24-8 18-21 36.5t-30 35.5l-3 109 112 39z m-303-1123l238 89 104-290-20-8q-49-10-108.5-30t-110.5-51z m-5 986q-18 8-39 11t-40 3l11 149q5 0 11 1t13 1q11 0 17.5-1t22.5-5z m-446-8q6 10 18 24.5t32 23.5l112-93q-17-14-30-29t-23-32z"/></svg>