<svg viewBox="0 0 2600 2760.837" xmlns="http://www.w3.org/2000/svg"><path d="M2405.5 1997.5q-49.5 37.5-109.5 37.5-70 0-148-35.5t-131-35.5q-51 0-154 42.5t-175 42.5q-71 0-171-42.5t-161-42.5q-59 0-170 44.5t-209 44.5q-103 0-167-44.5t-113-44.5q-44 0-163 36t-255 36q-47 0-90.5-34t-43.5-82q0-63 87-132t212-203.5 221-271 167-244.5 120.5-220.5 114.5-112.5q32 0 61 24t50 24q24 0 56.5-30.5t64.5-30.5q43 0 73 34.5t55 34.5q27 0 55-35.5t76-35.5q41 0 80.5 37t83 125.5 136.5 253.5 232 335.5 213 245.5 113 108 39 82q0 52-49.5 89.5z m-622.5-598.5q9 2 18 2 19 0 33.5-7t14.5-28q0-20-74.5-121t-122.5-199l-43-87q-19-38-34-59t-31-21q-27 0-56.5 29.5t-55.5 29.5q-28 0-58-27.5t-67-27.5q-16 0-43.5 26t-45.5 26q-27 0-58.5-28t-48.5-28q-39 0-60 58t-114 209.5-108 173-15 42.5q0 35 45 35t117-21 116-21q48 0 131 38.5t140 38.5q44 0 106-33.5t128-33.5q38 0 82.5 12t86.5 20z"/></svg>