<svg viewBox="0 0 2600 2760.837" xmlns="http://www.w3.org/2000/svg"><path d="M2090 1153.5q-107 153.5-228.5 294.5t-243.5 241-237 122q-14 20-27.5 38t-27.5 35l-7 8q-72 92-138.5 155t-127.5 97q-100 176-199 256t-198 80q-111 0-182-67.5t-71-155.5q0-99 57-214.5t166-226.5q18-92 75.5-188t165.5-204q4-108 75.5-271.5t146-306 164-266.5 193.5-178.5 216-54.5q128 0 255.5 74.5t203.5 194 76 242.5q0 142-107 295.5z m-428.5-283q-44.5-41.5-102.5-41.5-63 0-117 55.5t-159 231.5l-44 75q-21 35-36 61l-22 39q58 0 128.5 48.5t109.5 114.5q24-24 45-51.5t40-56.5l38-57q5-8 84.5-124t79.5-197q0-56-44.5-97.5z m-938.5 1131q33 44.5 110 82.5 23-30 39.5-64.5t16.5-68.5q-17-17-29-33.5t-12-42.5q0-24 12-49.5t32-50.5l22-28q21-26 43-52t46-51l28-30q35-37 72.5-62t67.5-25q15 0 36 14t67 14q28 0 48-16t45-33q-29-64-95-106t-130-42q-129 0-290.5 185.5t-161.5 339.5q0 74 33 118.5z m36 170.5l26-32q-34-15-55.5-33.5t-44.5-44.5q-27 33-46 67t-19 61q0 18 12.5 32t40.5 14q18 0 41-18.5t45-45.5z m511-332q4-6 8-11l8-9q-31-2-55.5-9t-45.5-17l-31 37q-17 21-39 45 5 14 8.5 28t3.5 27q0 20-4 40.5t-11 42.5q48-42 88.5-89t63.5-78z m-191-31q13-14 24-29.5t22-22.5q-21-14-40.5-30.5t-37.5-25.5l-40 45q20 7 38.5 24t33.5 39z"/></svg>