<svg viewBox="0 0 2600 2760.837" xmlns="http://www.w3.org/2000/svg"><path d="M1987.5 2264.5q47.5 80.5 101.5 118t54 89.5q0 40-30.5 69.5t-68.5 29.5q-72 0-186-147.5t-114-332.5q0-140 45.5-279.5t163-327.5 151-289.5 33.5-192.5q0-103-46.5-159.5t-126.5-56.5q-128 0-231.5 139t-114.5 456.5-75.5 557.5-215.5 386-367 146q-207 0-331-112t-124-292q0-98 36-216.5t42-209.5q-43-16-59-36.5t-16-50.5q0-17 2-34t2-34q0-19-3-30.5t-45.5-32.5-91.5-86-77-173.5-28-258.5l1-52q0-71 13.5-98t50.5-49 91-26q2-35 7-78t12-87l12-85q6-41 12-74l12-72q13-30 36-41t52-11q60 0 90 30t30 87q0 24-2 65t-5 88l-15 185q53 3 107.5 7.5t117.5 11.5q4-69 15.5-162.5t26.5-183.5l6-41q13-30 35.5-41.5t54.5-11.5q66 0 93 32t27 94q0 40-4 114t-9 153l-7 86q64 22 83.5 50.5t19.5 121.5q0 185-80 345t-203 207q-7 8-29 21t-24.5 93-114.5 89q-4 45-11 84t-18 80l-13 48q-13 32-24.5 83t-11.5 100q0 101 68.5 154.5t192.5 53.5q114 0 204-68.5t147.5-205 80.5-321 28.5-341 34.5-270.5 94-225.5 179.5-183.5 236.5-72q161 0 263.5 116.5t102.5 300.5q0 118-42 246t-160.5 321-154.5 303-36 216q0 93 47.5 173.5z m-980.5-1921.5q-9 25-23.5 146t-21.5 225q38 8 93 13l13-190q3-45 4.5-83t1.5-62q0-32-8.5-42t-38.5-10q-10 0-16 2z m-461-33q-9 23-25 145.5t-25 224.5q26 0 47.5 1.5t46.5 1.5l8-100q4-50 7-96l5-82q2-36 2-56 0-27-8.5-35t-37.5-8q-8 0-13.5 1.5t-6.5 2.5z"/></svg>