<svg viewBox="0 0 2600 2760.837" xmlns="http://www.w3.org/2000/svg"><path d="M1999 1779.5q-41 207.5-105.5 343.5t-117.5 136q-96 0-170-153t-106-428q62-6 109.5-96t47.5-207q0-132-46.5-217.5t-116.5-85.5q27-291 103-464.5t179-173.5q52 0 116.5 134t106 343 41.5 436q0 225-41 432.5z m-406 479.5h-71q-27 0-94.5-104t-125.5-259l-6-1-264-334-82-23q-8 112-30.5 162t-62.5 50h-146q-64 0-107.5-112.5t-43.5-264.5q0-153 43.5-265.5t107.5-112.5h154q31 0 52 46.5t33 159.5l42-10q20-4 40-7l231-289q56-198 137.5-329.5t131.5-131.5h61q-122 73-204 328t-82 585 82 584.5 204 327.5z"/></svg>