<svg viewBox="0 0 2600 2760.837" xmlns="http://www.w3.org/2000/svg"><path d="M2222 378q47 0 79.5 33t32.5 78v1845q0 46-33 79t-79 33h-1845q-45 0-78-33.5t-33-78.5v-1845q0-45 32-78t79-33h1845z m-1659 1764q4 7 7 7h1459q8 0 8-7v-1459q0-8-8-8h-1459q-7 0-7 8v1459z m753-1196.5q100-173.5 265-173.5 164 0 264 174t100 461q0 289-100.5 462t-263.5 173q-166 0-265.5-172t-99.5-463q0-288 100-461.5z m916-487.5q-3 0-10-1h-1845q-14 0-23.5 9.5t-9.5 22.5v1845q0 15 11 23l153-155q-26-24-26-60v-1459q0-36 26-62.5t62-26.5h1459q14 0 27.5 4.5t24.5 12.5z m-1501 650q-16 0-16-17v-239q0-14 12-17l309-56q19 0 19 17v978h68q8 0 12.5 5t4.5 11v229q0 6-4.5 11t-12.5 5h-367q-7 0-12.5-5t-5.5-11v-229q0-6 5.5-11t12.5-5h67v-674z m749 544q38 94 101 94 61 0 99.5-93.5t38.5-245.5-38.5-245.5-99.5-93.5q-67 0-103 101t-36 238q0 151 38 245z"/></svg>