<svg viewBox="0 0 2600 2760.837" xmlns="http://www.w3.org/2000/svg"><path d="M2255.5 1981q-148.5 256-404.5 404.5t-551 148.5-551-148.5-404.5-404.5-148.5-551 148.5-551.5 404.5-405 551-148.5 551 148.5 404.5 405 148.5 551.5-148.5 551z m-90.5-1047q-132-230-362.5-366.5t-502.5-136.5-502.5 136.5-362.5 366.5-132 496q0 268 134 499.5t364.5 365 498.5 133.5 498.5-133.5 364.5-365 134-499.5q0-266-132-496z m-723 585l216 369-139 81-214-370q-71 0-123-49t-52-120q0-48 25-87.5t66-61.5v-762h158v762q41 22 65.5 61.5t24.5 87.5q0 49-27 89z m-97-134q-18-19-45-19t-45 19-18 45q0 27 17.5 45t45.5 18 45.5-18.5 17.5-44.5-18-45z m863 90q-18 18-45 18-26 0-44.5-18t-18.5-45q0-26 18.5-45t44.5-19q27 0 45 19t18 45q0 27-18 45z m-205-431.5q-19-18.5-19-46.5 0-23 17-43t47-20q24 0 43.5 18t19.5 47q0 28-19.5 45.5t-43.5 17.5q-26 0-45-18.5z m-228-313.5q-20 17-45 17-28 0-44.5-20t-16.5-45q0-28 18-45.5t43-17.5q30 0 47.5 18.5t17.5 46.5q0 29-20 46z m-862.5-93.5q18.5 17.5 18.5 45.5 0 26-18 44.5t-45 18.5q-26 0-45-18t-19-46q0-29 19.5-45.5t44.5-16.5q26 0 44.5 17.5z m-316 407q-18.5 18.5-44.5 18.5-28 0-45.5-20t-17.5-43q0-29 18.5-47t44.5-18q27 0 45 18t18 45q0 28-18.5 46.5z m-115 431.5q-18.5 18-44.5 18-27 0-45.5-18t-18.5-45q0-26 18.5-45t45.5-19q26 0 44.5 19t18.5 45q0 27-18.5 45z m115 342q18.5 18 18.5 45 0 23-17.5 43t-45.5 20q-25 0-44-17.5t-19-45.5q0-26 17.5-44.5t46.5-18.5q25 0 43.5 18z m315.5 406.5q-19 17.5-44 17.5-29 0-46.5-19.5t-17.5-44.5q0-29 19-45.5t44-16.5q26 0 45 16.5t19 46.5q0 28-19 45.5z m433 114.5q-18 18-45 18t-45-18-18-45q0-26 18-45t45-19 45 19 18 45q0 27-18 45z m430.5-207q19.5 16 19.5 44 0 26-17 46t-46 20q-26 0-44.5-17.5t-18.5-45.5q0-29 18.5-46t45.5-17q23 0 42.5 16z m316-223.5q-19.5 17.5-43.5 17.5-29 0-46.5-19.5t-17.5-42.5q0-28 19.5-46t43.5-18q29 0 46.5 18t17.5 45q0 28-19.5 45.5z"/></svg>