<svg viewBox="0 0 2600 2760.837" xmlns="http://www.w3.org/2000/svg"><path d="M1486 2053q-92 279-171 279-96 0-170.5-155.5t-104.5-426.5q60-6 108-96t48-206q0-129-47.5-216.5t-115.5-87.5q27-292 103.5-464t178.5-172q79 0 171 277.5t92 633.5q0 355-92 634z m-353 279h-71q-26 0-93.5-102.5t-127.5-260.5l-5-2-263-334-83-23-5 51h-1q-6 63-24.5 107.5t-48.5 53.5h-160q-63 0-107-112t-44-265 43.5-265.5 107.5-112.5h154q31 0 51 46.5t28 107.5l6 53 41-10q20-5 42-8l230-289q52-192 134.5-325.5t133.5-133.5h62q-124 74-205 328.5t-81 582.5q0 329 81.5 584t204.5 329z m1141-1857q108 174 167 418.5t59 524.5-59.5 526-166.5 417l-92-92q90-152 141.5-375t51.5-476-51.5-476-141.5-375z m-251 253q83 126 127.5 302.5t44.5 387.5-45 388-127 302l-91-91q66-109 102-263.5t36-335.5q0-173-36-331t-102-268z m-242 242q60 78 93 193t33 255-33 255-93 193l-88-90q42-60 65-153t23-205q0-111-23-204t-65-154z"/></svg>