<svg viewBox="0 0 2600 2760.837" xmlns="http://www.w3.org/2000/svg"><path d="M2282 699q-51 54-173 65t-196 152-179.5 218-175.5 77q-47 0-73.5 10t-26.5 37l135 248q6 11 8.5 24t2.5 24q0 25-10.5 46t-30.5 35l-1140 782q-27 18-56 18-48 0-74-30.5t-26-128.5q0-204 85-380t335-428 475-431l33-26q5-6 15-11l172-151 215-186 124-106q90-77 185-128t189-51q90 0 164 56.5t74 139.5q0 71-51 125z m-1916 1577q6 34 27 34 16 0 36.5-15t40.5-29l989-679q12-13 21.5-20.5t9.5-27.5q0-8-2-13.5t-3-11.5l-193-355-19-33q-9-16-28-17-10 0-18.5 2.5t-156.5 130-314 297-242 278.5-112 220-36 239z m1198-1306.5q-15-17.5-46-17.5-19 0-34 13t-15 42q0 22 14.5 38.5t42.5 16.5q25 0 39-18t14-38q0-19-15-36.5z m368.5-326q-15.5-17.5-46.5-17.5-18 0-33.5 13.5t-15.5 40.5q0 21 15 38t41 17 40.5-17.5 14.5-37.5q0-19-15.5-36.5z m271.5-177q-56-33.5-134-33.5-18 0-46 7.5t-28 18.5q0 13 73.5 43.5t99.5 96.5l4 16q4 17 11.5 26.5t18.5 9.5q18 0 37.5-29.5t19.5-62.5q0-59-56-92.5z"/></svg>