<svg viewBox="0 0 2600 2760.837" xmlns="http://www.w3.org/2000/svg"><path d="M2255.5 1982q-148.5 256-405 404.5t-551.5 148.5-551-148.5-404.5-404.5-148.5-551 148.5-551.5 404.5-405 551-148.5 551.5 148.5 405 405 148.5 551.5-148.5 551z m-92-1050.5q-134.5-230.5-365-365t-499.5-134.5q-268 0-498.5 134t-365 365-134.5 500q0 270 135.5 501t366 364 496.5 133q267 0 497.5-132.5t366-364 135.5-501.5q0-269-134.5-499.5z m-785.5 350.5q46 24 70 70h428v159h-428q-22 40-61.5 64.5t-87.5 24.5q-69 0-119-50t-50-119q0-50 24.5-88.5t64.5-60.5v-762h159v762z m-34 194q19-18 19-45 0-26-19-45t-45-19q-27 0-45 18t-18 46q0 25 16.5 44t46.5 19q26 0 45-18z m863.5 0q-18.5 18-45.5 18-26 0-44.5-18t-18.5-45q0-26 18.5-45t44.5-19q27 0 45.5 19t18.5 45q0 27-18.5 45z m-205-430.5q-18.5-17.5-18.5-45.5 0-25 17-45t46-20q23 0 43 17t20 46q0 28-19 46.5t-46 18.5q-24 0-42.5-17.5z m-315.5-408q20-17.5 43-17.5 27 0 46 18.5t19 44.5q0 28-20 45.5t-45 17.5q-26 0-44.5-18t-18.5-45q0-28 20-45.5z m-774-0.5q19 17 19 46 0 24-18 43.5t-47 19.5q-23 0-43-17.5t-20-45.5 18.5-45.5 46.5-17.5q25 0 44 17z m-318 409q-20 17-43 17-28 0-46-20t-18-43q0-28 19-46.5t44-18.5q29 0 46.5 19.5t17.5 45.5q0 29-20 46z m-114 430q-19 18-45 18-27 0-45-18t-18-45q0-26 18-45t45-19q26 0 45 19t19 45q0 27-19 45z m114 341q20 17 20 46 0 23-17.5 43t-46.5 20q-25 0-44-18.5t-19-46.5q0-26 18-43.5t46-17.5q23 0 43 17z m317 408q-20 17-45 17-29 0-46-19.5t-17-44.5q0-28 20.5-45.5t44.5-17.5q25 0 44 18t19 46q0 29-20 46z m432 114q-19 18-45 18t-44.5-18-18.5-45q0-26 18-45t45-19q26 0 45 19t19 45q0 27-19 45z m431.5-204.5q19.5 19.5 19.5 43.5 0 25-17.5 44.5t-47.5 19.5q-23 0-43-17.5t-20-45.5q0-27 18-45.5t45-18.5q26 0 45.5 19.5z m314.5-225q-20 16.5-43 16.5-28 0-45.5-20t-17.5-43q0-28 19-45.5t44-17.5q30 0 46.5 19t16.5 45q0 29-20 45.5z"/></svg>