<svg viewBox="0 0 2600 2760.837" xmlns="http://www.w3.org/2000/svg"><path d="M2257 1980.5q-147 255.5-404.5 405t-553.5 149.5q-297 0-554-150t-403.5-405.5-146.5-549.5q0-295 148.5-551t404.5-404.5 551-148.5 551.5 148.5 405 404.5 148.5 551-147 550.5z m-93-1049q-134-230.5-365-365t-500-134.5q-268 0-498.5 134.5t-365 365-134.5 498.5 133.5 499 364.5 366 500 135q270 0 501-135t364.5-366 133.5-499-134-498.5z m-406 142.5l79 138-370 214q2 0 2 4 0 69-50.5 119.5t-119.5 50.5-119-50.5-50-119.5q0-49 24.5-87.5t64.5-59.5v-763h159v763l10 4z m449.5 402q-18.5 20-45.5 20-26 0-44.5-20t-18.5-46 18.5-44.5 44.5-18.5q27 0 45.5 18.5t18.5 44.5-18.5 46z m-1295.5 749q-20 17-45 17-28 0-45.5-19.5t-17.5-44.5q0-28 20-45.5t43-17.5q28 0 46.5 18t18.5 46q0 29-20 46z m432-839.5q-19-18.5-45-18.5t-44.5 18.5-18.5 44.5q0 28 20 47t43 19q26 0 45-20t19-46-19-44.5z m-862 89.5q-18 19-44 19-28 0-46.5-18t-18.5-46q0-26 18-44.5t45-18.5q26 0 45 18.5t19 44.5-18 45z m1293 657.5q20 17.5 20 45.5 0 25-18 44.5t-47 19.5q-23 0-43-17.5t-20-45.5q0-27 18-45.5t45-18.5q25 0 45 17.5z m-863-1495.5q20 17 20 46 0 25-18 45t-47 20q-23 0-43-18t-20-47q0-27 18.5-45t46.5-18q23 0 43 17z m-317 1179q20 16 20 45 0 25-17.5 45.5t-46.5 20.5q-25 0-44-18.5t-19-47.5q0-23 17-42t47-19q23 0 43 16z m749 523.5q-19 19.5-45 19.5t-44.5-19.5-18.5-45.5 18-44.5 45-18.5q26 0 45 18.5t19 44.5-19 45.5z m-748.5-1293.5q-19.5 17-44.5 17-28 0-45.5-20t-17.5-43q0-28 19.5-46.5t44.5-18.5q26 0 44.5 18t18.5 47-19.5 46z m1091.5-408.5q20-17.5 43-17.5 28 0 46.5 20t18.5 43q0 29-20 47t-43 18q-21 0-43-17.5t-22-47.5q0-28 20-45.5z m315.5 407q-18.5-18.5-18.5-44.5 0-25 17.5-45t45.5-20q23 0 43 17t20 46q0 27-18.5 46t-44.5 19-44.5-18.5z m88 865.5q-19.5 17-42.5 17-29 0-46.5-20.5t-17.5-43.5q0-27 19-45t44-18q30 0 46.5 19.5t16.5 44.5q0 29-19.5 46z"/></svg>