<svg viewBox="0 0 2600 2760.837" xmlns="http://www.w3.org/2000/svg"><path d="M2239 1408v938h-939v-938h939z m-1879 0v-938h939v938h-939z m1420 804q144 0 232-92.5t88-242.5q0-148-88-241.5t-232-93.5h-277q-6 0-10.5 4t-4.5 10v641q0 6 4.5 10.5t10.5 4.5h277z m-247-938q-6 0-10.5-4t-4.5-10v-641q0-6 4.5-10.5t10.5-4.5h241q88 0 150.5 57t62.5 135q0 38-16.5 71.5t-42.5 59.5q40 26 63.5 66.5t23.5 88.5q0 77-61 134.5t-150 57.5h-271z m-377-22l-239-636q-3-8-13-8h-149q-10 0-12 8l-239 636-2 3q0 2-1 4 0 5 5.5 8.5t10.5 3.5h156q11 0 13-10l36-109h215l36 109q3 10 13 10h157q6 0 10.5-5t4.5-9q-2-4-2-5z m-85 744l68 139-2 10q-103 89-249 89-158 0-263.5-101t-105.5-255q0-156 105.5-257t263.5-101q74 0 133 18.5t107 54.5l1 11-75 144-6 4-7-1q-28-23-69-36.5t-84-13.5q-79 0-130 49t-51 128q0 78 50.5 126t130.5 48q41 0 89-16.5t82-42.5l8-3z m700-298q71 0 116 51t45 129q0 84-46.5 130.5t-120.5 46.5h-94q-6 0-10.5-4t-4.5-10v-329q0-5 4.5-9.5t10.5-4.5h100z m-2-548q29 0 50.5-23.5t21.5-54.5q0-32-21.5-55.5t-50.5-23.5h-93l-5 4v149l5 4h93z m-6-282q27 0 46-20t19-48-19-47.5-46-19.5h-89l-3 2v129l3 4h89z m-933-38l62 188h-125z"/></svg>