<svg viewBox="0 0 2600 2760.837" xmlns="http://www.w3.org/2000/svg"><path d="M2429 1614v937h-939v-659h-659v-659h-660v-939h939v659h659v661h660z m-1054 143q88 0 150.5-57t62.5-134q0-48-24-88.5t-65-66.5q28-26 43.5-60t15.5-72q0-80-63-135t-150-55h-241q-5 0-9.5 3.5t-4.5 10.5v639q0 8 4.5 11.5t9.5 3.5h271z m-422-663q5 0 9.5-4t4.5-9v-6l-240-635q-2-9-12-9h-149q-10 0-14 9l-238 635q0 2-1 2t-1 2q0 15 15 15h156q13 0 14-9l36-108h214l37 108q0 9 13 9h156z m1316 1247l-68-141-5-4-7 1q-30 24-79 42.5t-92 18.5q-79 0-130-49t-51-127 50.5-126 130.5-48q43 0 84 12.5t69 34.5l7 2 6-4 75-145-1-9q-48-38-107-55.5t-134-17.5q-159 0-263.5 102.5t-104.5 253.5q0 154 104.5 255t263.5 101q143 0 250-87z m-927-863q29 0 49.5 22.5t20.5 55.5q0 32-20.5 55t-50.5 23h-94l-3-4v-149l3-3h95z m-95-127l-5-3v-129l5-3h89q26 0 45 19.5t19 47.5q0 29-19 48.5t-45 19.5h-89z m-606-696l62 186h-125z"/></svg>