<svg viewBox="0 0 2600 2760.837" xmlns="http://www.w3.org/2000/svg"><path d="M1642.5 1715.5q-143.5 143.5-342.5 143.5t-342-142.5-143-343.5q0-200 142.5-342.5t342.5-142.5 343 143.5 143 341.5q0 199-143.5 342.5z m-142-540.5q-82.5-84-200.5-84-117 0-199.5 83t-82.5 199q0 117 82.5 200t199.5 83q118 0 200.5-84t82.5-199q0-114-82.5-198z m-85.5-463q0 20-14 34t-34 14h-134q-20 0-33.5-14t-13.5-34v-307q0-20 13.5-33.5t33.5-13.5h134q20 0 34 13.5t14 33.5v307z m-502 114q13 13 13 33 0 9-3 18t-10 16l-94 94q-14 14-34 14-19 0-33-14l-218-217q-14-14-14-33 0-20 14-34l95-94q14-14 34-14 19 0 33 14z m-274 435q20 0 33.5 13.5t13.5 33.5v133q0 20-13.5 34t-33.5 14h-308q-20 0-33.5-14t-13.5-34v-133q0-20 13.5-33.5t33.5-13.5h308z m112 501q14-14 34-14 18 0 34 14l94 95q13 13 13 33t-13 33l-217 217q-14 14-33 14-21 0-34-14l-95-94q-14-14-14-33 0-20 14-34z m435 274q0-20 13.5-33.5t33.5-13.5h134q20 0 34 13.5t14 33.5v307q0 20-14 34t-34 14h-134q-20 0-33.5-14t-13.5-34v-307z m502-113q-8-7-11-16t-3-17q0-19 14-33l94-95q14-14 34-14 19 0 33 14l217 217q14 14 14 33 0 20-14 34l-94 94q-14 14-34 14-19 0-33-14z m274-434q-20 0-33.5-14t-13.5-34v-133q0-20 13.5-33.5t33.5-13.5h308q19 0 33 13.5t14 33.5v133q0 20-14 34t-33 14h-308z m-113-502q-14 14-33 14-21 0-34-14l-94-94q-15-15-15-34t14-33l218-217q14-14 33-14 18 0 34 14l94 94q14 14 14 33 0 20-14 34z"/></svg>