<svg viewBox="0 0 2600 2760.837" xmlns="http://www.w3.org/2000/svg"><path d="M2103 1872.5q-121 215.5-337 343t-467 127.5q-236 0-448.5-115t-344-334.5-131.5-475.5q0-246 126-463t338-339 460-122q253 0 472 131t336 347 117 446q0 239-121 454.5z m-1503-47.5v-813q-54 91-82.5 193t-28.5 213q0 112 28.5 214t82.5 193z m77 111q51 62 111 111v-1257q-59 48-111 110v1036z m189 165q27 18 55 32.5t57 28.5v-1487q-29 13-57 27.5t-55 31.5v1367z m189 89q28 10 55.5 16t56.5 11v-1598q-29 5-56.5 11.5t-55.5 16.5v1543z m303 36v-1615q-16 0-30-1.5t-29-1.5q-14 0-27 1.5t-27 1.5v1615q14 0 27 1.5t27 1.5q15 0 29-1.5t30-1.5z m75-9q29-5 57.5-12t54.5-16v-1542q-26-8-54.5-15t-57.5-12v1597z m191-57q59-26 112-61v-1362q-27-17-55-32.5t-57-27.5v1483z m189-116q31-25 58.5-53t53.5-59v-1027q-26-31-53.5-59t-58.5-53v1251z m190-225q51-90 78-190.5t27-210.5q0-109-27-210t-78-190v801z"/></svg>