<svg viewBox="0 0 2600 2760.837" xmlns="http://www.w3.org/2000/svg"><path d="M2254 1984q-150 257-405 403.5t-549 146.5q-295 0-551.5-148.5t-405-404.5-148.5-551 148.5-551 405-404.5 551.5-148.5 551.5 148 404.5 404.5 148 551.5q0 297-150 554z m-91.5-1056.5q-136.5-230.5-366.5-362.5t-496-132-496 132-366.5 362.5-136.5 502.5 136.5 502.5 366.5 362.5 496 132 496-132 366.5-362.5 136.5-502.5-136.5-502.5z m-782.5 353.5q39 23 64 62t25 87q0 69-50 119t-119 50q-48 0-89-27l-370 214-79-137 370-214q0-51 23.5-91t65.5-63v-762h159v762z m-125 104q-19 18-19 45t19 45 45 18q25 0 45-18t20-45-20-45-45-18q-26 0-45 18z m954 90q-19 18-46 18-26 0-45-18t-19-45 19-45 45-18q27 0 46 18t19 45-19 45z m-205.5-431.5q-19.5-17.5-19.5-45.5 0-24 17-44t46-20q25 0 44.5 17.5t19.5 46.5q0 27-17.5 45t-46.5 18q-24 0-43.5-17.5z m-228.5-315q-20 17.5-43 17.5-30 0-47.5-20t-17.5-43q0-28 20.5-46t44.5-18q26 0 44.5 17.5t18.5 45.5q0 29-20 46.5z m-951-0.5q-20-18-20-47 0-23 17.5-42.5t45.5-19.5q25 0 45 17.5t20 45.5q0 31-21 47.5t-44 16.5-43-18z m-228.5 315.5q-19.5 17.5-43.5 17.5-28 0-46-19t-18-44q0-29 19.5-46.5t44.5-17.5q28 0 45.5 20t17.5 44q0 28-19.5 45.5z m-114.5 431.5q-19 18-45 18t-44.5-18-18.5-45 18.5-45 44.5-18 45 18 19 45-19 45z m115 341.5q19 17.5 19 45.5 0 23-16.5 43.5t-44.5 20.5q-26 0-46-18t-20-46q0-27 19-45t45-18q25 0 44 17.5z m316 407q-20 17.5-45 17.5-28 0-45.5-19.5t-17.5-43.5q0-28 19-45.5t44-17.5q27 0 46 17t19 46q0 28-20 45.5z m433 114.5q-18 18-45 18-26 0-45-18t-19-45q0-26 19-44.5t45-18.5q27 0 45 18.5t18 44.5q0 27-18 45z m431-206q19 17 19 46 0 24-17.5 43.5t-45.5 19.5q-24 0-44.5-17.5t-20.5-46.5q0-26 19-44t47-18q24 0 43 17z m315-223.5q-20 17.5-46 17.5-29 0-45-20.5t-16-43.5q0-28 19.5-45.5t43.5-17.5q29 0 46.5 18t17.5 45q0 29-20 46.5z"/></svg>