<svg viewBox="0 0 2600 2760.837" xmlns="http://www.w3.org/2000/svg"><path d="M1957 1464q-3 363-17 499t-113.5 232-275 180-354.5 84q-107 0-180.5-45t-123.5-138.5-127.5-301-77.5-252.5 22.5-90.5 66.5-89.5q-62-109-99-219.5t-37-235.5q0-200 99.5-354.5t286.5-244.5 340-90q135 0 231.5 71.5t147 198.5 50.5 243q0 49-2 106.5t-6 113.5q71 11 120.5 59.5t49.5 114.5z m-1127 165q-20 26-32 49t-12 46q0 50 52 80.5t122 30.5q39 0 82-7.5t103-28.5q10 0 138.5-58.5t353-194 224.5-229.5q0-39-23-60t-58-29q-3 37-7 63l-6 37q-10 54-47.5 77t-69.5 23q-34 0-65-14.5t-34.5-49-3.5-69.5l1-51q-129 36-252 95.5t-248 129.5q27 58 46 88l23 39 7 16q4 12 4 32 0 51-48.5 80.5t-91.5 29.5q-36 0-69-21t-89-104z m142-377.5q16 66.5 38 125.5 191-106 309-156.5t229-79.5q0-225-50.5-322.5t-152.5-97.5q-74 0-174 49.5t-157.5 137-57.5 209.5q0 68 16 134.5z m617 773.5q46-32 72.5-73.5t26.5-78.5q0-39-26.5-60t-64.5-21q-79 0-152.5 66.5t-73.5 129.5q0 39 27 60t65 21q29 0 56-10l-8 137 121-64z"/></svg>