<svg viewBox="0 0 2600 2760.837" xmlns="http://www.w3.org/2000/svg"><path d="M2254 1985q-150 257-405 403.5t-549 146.5q-295 0-551.5-148.5t-405-404.5-148.5-551 148.5-551.5 405-405 551.5-148.5q298 0 555 150t403 406.5 146 548.5q0 297-150 554z m-89.5-1053.5q-134.5-230.5-365-365t-499.5-134.5-499.5 134.5-365 365-134.5 499.5q0 268 134 498.5t365 365 500 134.5 499.5-134 365-364.5 134.5-499.5-134.5-499.5z m-784.5 350.5q39 22 64 60.5t25 87.5q0 69-50 119.5t-119 50.5q-50 0-88.5-25t-59.5-66h-427v-159h427q23-44 69-68v-762h159v762z m-34.5 104q-19.5-19-45.5-19t-45 19-19 45q0 27 19 45t45 18q23 0 44-19t21-44q0-26-19.5-45z m863.5 89.5q-19 18.5-46 18.5-26 0-45-18.5t-19-44.5 19-45 45-19q27 0 46 19t19 45-19 44.5z m-205.5-430q-19.5-17.5-19.5-45.5 0-25 17.5-45t45.5-20q25 0 44.5 17.5t19.5 45.5-19 46.5-45 18.5q-24 0-43.5-17.5z m-228.5-317.5q-20 18-43 18-29 0-47-19.5t-18-43.5q0-28 20-46t45-18q26 0 44.5 18t18.5 45q0 28-20 46z m-951.5 0q-19.5-18-19.5-46 0-23 17.5-43t45.5-20q25 0 45 17.5t20 46.5q0 27-18.5 45t-44.5 18-45.5-18z m-227.5 316.5q-19 18.5-45 18.5-28 0-45.5-20t-17.5-43q0-27 20-46t44-19q26 0 44.5 18t18.5 47q0 26-19 44.5z m-115 430.5q-19 19-45 19t-44.5-19-18.5-45 18.5-44.5 44.5-18.5 45 18.5 19 44.5-19 45z m114.5 341q19.5 18 19.5 47 0 23-17.5 43t-45.5 20q-23 0-43.5-18t-20.5-47q0-28 20.5-45.5t43.5-17.5q24 0 43.5 18z m316.5 408.5q-20 17.5-43 17.5-28 0-46.5-19.5t-18.5-43.5q0-29 20-46.5t43-17.5q28 0 46.5 18t18.5 46-20 45.5z m433 114q-18 18.5-45 18.5-26 0-45-18.5t-19-44.5 19-45 45-19q27 0 45 19t18 45-18 44.5z m430-206q20 17.5 20 46.5 0 25-18.5 44t-46.5 19q-23 0-43-18t-20-46q0-25 19-44t46-19q23 0 43 17.5z m316.5-224q-19.5 17.5-44.5 17.5-28 0-45.5-20t-17.5-43q0-29 19.5-47t43.5-18q26 0 45 18.5t19 46.5-19.5 45.5z"/></svg>