<svg viewBox="0 0 2600 2760.837" xmlns="http://www.w3.org/2000/svg"><path d="M360 1409v-938h939v938h-939z m1879 0v937h-939v-937h939z m-1029 610.5q-42 56.5-122 56.5-38 0-70.5-14.5t-55.5-42.5q-28 33-68.5 52.5t-94.5 19.5q-91 0-149.5-57t-58.5-145q0-87 58-145t150-58q32 0 58.5 7t49.5 19v-11q0-8 8-8h107q10 0 10 8v142q0 49 14.5 78t41.5 29q19 0 28.5-14.5t9.5-42.5q0-133-78.5-214t-218.5-81q-130 0-213 80t-83 205 83 205 213 80q112 0 188-56l74 101q-54 41-120.5 61t-141.5 20q-184 0-302.5-117t-118.5-294 119.5-294.5 301.5-117.5q191 0 307 117.5t116 302.5q0 72-42 128.5z m893.5-112.5q-48.5-50-127.5-50-44 0-80 17l178-280v-8l-8-6h-162l-8 6-151 229q0-5 1-8t1-6q0-76-49.5-123.5t-126.5-47.5-126.5 47.5-49.5 123.5 49.5 123.5 126.5 47.5q24 0 45.5-5.5t39.5-14.5l-161 246v11l7 4h171l8-4 119-186q0 78 49 126.5t127 48.5 127-49 49-121q0-71-48.5-121z m-598-871q66.5-54 160.5-54 29 0 55.5 6t49.5 18l-5-402q0-16 10.5-28t27.5-12q96 0 176 44t118.5 106.5 43 105 29.5 57.5l13 8q6 5 11 10.5t5 12.5q0 13-16 22t-41 9q-49 0-105-65t-191-65l4 299q0 90-78.5 152.5t-162.5 62.5q-68 0-119.5-44.5t-51.5-111.5q0-77 66.5-131z m-353.5-134q0-9-11-9h-622q-12 0-12 9v126q0 13 12 13h232v249q0 11 11 11h135q11 0 11-11v-249h233q11 0 11-13v-126z m0-253q0-11-11-11h-622q-12 0-12 11v126q0 9 12 9h622q11 0 11-9v-126z m-282 1174q-26-27-71-27t-70.5 27-25.5 66q0 38 25.5 65.5t70.5 27.5 71-27.5 26-65.5q0-39-26-66z m751.5 25.5q-18.5 19.5-50.5 19.5t-50.5-19.5-18.5-47.5q0-29 18.5-48.5t50.5-19.5 50.5 19.5 18.5 48.5q0 28-18.5 47.5z m405 227.5q-18.5 20-50.5 20t-50.5-20-18.5-48q0-29 18.5-48.5t50.5-19.5 50.5 19.5 18.5 48.5q0 28-18.5 48z"/></svg>