<svg viewBox="0 0 2600 2760.837" xmlns="http://www.w3.org/2000/svg"><path d="M2239 1408v938h-939v-938h939z m-1879 0v-937h939v937h-939z m1718 583q0-5-4-8t-8-3h-126v-465q0-3-4-6.5t-7-3.5h-162q-3 0-8 3v1l-309 476q-2 2-2 6v129q0 5 3.5 8t7.5 3h297v132q0 4 3.5 6.5t7.5 2.5h162q11 0 11-9v-132h126q4 0 8-3t4-8v-129z m-600-1279q0-2-1-6 0-22 100.5-89t202.5-67q95 0 177.5 72t82.5 175q0 111-98.5 202t-190.5 149h286q11 0 11 12v146q0 13-11 13h-500q-11 0-11-13v-153q0-11 65.5-48.5t148-118 82.5-144.5q0-41-27.5-66.5t-61.5-25.5-75 20-89 62l-10 3-8-5z m-478 1170q53 28 84 76.5t31 105.5q0 101-81.5 167.5t-193.5 66.5q-74 0-142.5-31t-111.5-69-43-49l2-7 72-104 8-4 9 3q29 27 82 53t95 26q37 0 64-25.5t27-60.5q0-34-38-58.5t-60.5-28.5-22.5-16v-90q0-12 23-17t63.5-33 40.5-65q0-33-24-58t-56-25q-31 0-68.5 17.5t-62.5 36.5l-15 11-8 2-8-4-71-104q-3 0-3-5 0-18 78.5-65.5t178.5-47.5q103 0 178.5 69.5t75.5 155.5q0 48-26.5 94t-76.5 83z m-5-713q0-5-2.5-8.5t-7.5-3.5h-56v-584l-4-6-10-3-242 52q-8 2-8 11v142l4 10 9 1 73-20v397h-56q-5 0-8 3.5t-3 8.5v136q0 11 11 11h290q10 0 10-11v-136z m646 811l115-179v179h-115z"/></svg>