<svg viewBox="0 0 2600 2760.837" xmlns="http://www.w3.org/2000/svg"><path d="M300 1990l-31-1q-18 0-56-2v-192l69 3h11q220 0 425-116t385.5-324 375.5-333.5 395-170.5v-331l513 415-513 415v-291q-111 36-252.5 133t-293 270.5-322 292.5-347.5 175.5-359 56.5z m1574-556l513 415-513 414v-329q-171-44-303-116.5t-249-171.5q27-27 52.5-54.5t50.5-55.5l54-59q90 81 183 142.5t212 105.5v-291z m-1607-445l-54 3v-192l55-3q17 0 30-1 228 0 443 87t406 256q-41 39-92 94.5t-53 58.5l-14 16q-169-161-341-240t-359-79h-21z"/></svg>