<svg viewBox="0 0 2600 2760.837" xmlns="http://www.w3.org/2000/svg"><path d="M1591 346q102 43 161 110t59 142l-86 1662q-6 107-129 181t-296 74-296-74-129-181l-87-1662q0-73 56.5-139.5t166.5-112.5q27-53 107-90t182-37 181.5 36.5 109.5 90.5z m-431 120.5q56 31.5 140 31.5 82 0 139.5-31t57.5-74q0-44-59-75.5t-138-31.5q-81 0-138.5 32t-57.5 75q0 42 56 73.5z m422.5 273.5q119.5-63 119.5-148 0-42-22.5-79t-76.5-71v96q0 74-90 127t-213 53q-127 0-215-54t-88-134v-88q-46 29-73 65t-27 76q0 89 119 154.5t284 65.5q163 0 282.5-63z m-78.5 394v-8q0-59-59-70.5t-64-12.5-13.5-62-70.5-61q-65 0-71.5 60t-14.5 66l-5 3q-51 0-84 21.5t-33 59.5q0 33 22 52t75 23q18 0 25 5t7 17q7 55 26.5 81t54.5 26q58 0 67.5-52t9.5-62.5 58-21 68-54.5z m-66 1019q-38-13-145-13-101 0-138 18.5t-37 55.5q0 39 37.5 55t150.5 16q95 0 132.5-18t37.5-57q0-44-38-57z"/></svg>