<svg viewBox="0 0 2600 2760.837" xmlns="http://www.w3.org/2000/svg"><path d="M1978 1154q152 113 206.5 196t54.5 166q0 185-197 404.5t-521.5 365-627.5 145.5q-241 0-381.5-106.5t-140.5-367.5q0-81 7-170t7-154q0-106-12.5-293.5t-12.5-293.5q0-95 26.5-185.5t98.5-177.5l30-35q-11-23-15.5-47.5t-4.5-47.5q0-95 68-167t169-72q72 0 132 41t87 107q112 2 224 46t289 218l78 77q123 124 237.5 205.5t175.5 127.5z m-543 1063.5q287-114.5 496-324.5t209-373q0-86-72.5-130t-212.5-44q-107 0-233 27 50 46 79 113.5t29 137.5q0 140-101.5 247.5t-248.5 107.5q-156 0-255-108.5t-99-243.5v-18q-213 124-355 277t-142 272q0 81 101 127.5t263 46.5q255 0 542-114.5z m-963.5-879.5q12.5 187 12.5 297 0 56-7 135t-7 174q2 16 12 16 5 0 15.5-12t28.5-38l30-42q15-21 51-61.5t36-162.5q0-155-49.5-403t-49.5-428q0-9-1-15l-2-9q0-4-4-4-9 0-43.5 68t-34.5 193q0 105 12.5 292z m185-877q-37.5 29-37.5 66 0 15 11 15 3 0 15-5l25-10q29-12 38.5-18t25.5-11l30-9q15-5 26.5-11t11.5-12q0-14-22.5-24t-47.5-10q-38 0-75.5 29z"/></svg>