<svg viewBox="0 0 2600 2760.837" xmlns="http://www.w3.org/2000/svg"><path d="M2257 1983.5q-149 255.5-404.5 404.5t-552.5 149q-296 0-552.5-148.5t-405-405-148.5-552.5q0-295 147.5-551.5t404.5-405.5 554-149q296 0 552.5 148.5t405 405 148.5 552.5q0 297-149 552.5z m-95.5-1057q-137.5-232.5-368-364t-493.5-131.5q-266 0-498.5 134.5t-367 367-134.5 498.5q0 263 131.5 493.5t364 368 504.5 137.5q269 0 499.5-134.5t365-365 134.5-499.5q0-272-137.5-504.5z m47 549q-18.5 18.5-44.5 18.5-27 0-45.5-18.5t-18.5-44.5q0-27 18.5-45.5t45.5-18.5q26 0 44.5 18.5t18.5 45.5q0 26-18.5 44.5z m-204.5-430.5q-19-17-19-46 0-23 17-43.5t46-20.5q23 0 43.5 17.5t20.5 46.5q0 25-18 44t-46 19q-25 0-44-17z m-1093-408q20 18 20 46 0 23-18 43t-46 20q-24 0-43.5-17.5t-19.5-46.5q0-27 18-45t45-18q24 0 44 18z m-316.5 407.5q-20.5 17.5-44.5 17.5-29 0-46-20t-17-43q0-29 20-46.5t44-17.5q27 0 45.5 18.5t18.5 44.5q0 29-20.5 46.5z m-114.5 431q-19 18.5-45 18.5t-45-18.5-19-44.5q0-27 19-45.5t45-18.5 45 18.5 19 45.5q0 26-19 44.5z m115 341.5q20 18 20 47 0 23-17.5 42.5t-46.5 19.5q-25 0-44.5-17.5t-19.5-45.5q0-26 19.5-45t44.5-19q24 0 44 18z m316.5 407.5q-19.5 18.5-43.5 18.5-29 0-46.5-19.5t-17.5-43.5q0-29 20-46.5t44-17.5q25 0 44 17.5t19 44.5q0 28-19.5 46.5z m864-91q20.5 17.5 20.5 45.5 0 24-18.5 44t-46.5 20q-25 0-44-18.5t-19-46.5q0-29 19.5-45.5t43.5-16.5 44.5 17.5z m316.5-225q-20 17.5-44 17.5-29 0-46.5-20t-17.5-43q0-28 19.5-46t44.5-18q24 0 44 18t20 45q0 29-20 46.5z m-713-626.5q41 20 65.5 60t24.5 89q0 48-25 87t-65 61v763h-159v-763q-40-22-65-61t-25-87 24.5-88.5 65.5-60.5v-443h159v443z m-124 103q-19 18-19 46 0 26 18.5 44.5t45.5 18.5q26 0 44.5-18.5t18.5-44.5-18.5-45-44.5-19-45 18z m520-656.5q-20 17.5-43 17.5-28 0-46-20t-18-44q0-28 20-45.5t44-17.5q26 0 44.5 17.5t18.5 46.5q0 28-20 45.5z m-520.5-207.5q18.5-19 45.5-19 26 0 44.5 19t18.5 46q0 26-18.5 44.5t-45.5 18.5q-26 0-44.5-18.5t-18.5-44.5q0-27 18.5-46z"/></svg>