<svg viewBox="0 0 2600 2760.837" xmlns="http://www.w3.org/2000/svg"><path d="M1796 1821q114 0 185 74t71 193q0 117-69.5 192t-186.5 75h-220q-13 0-13-11v-511q0-12 13-12h220z m-5 409q57 0 91.5-39t34.5-103q0-63-34.5-102t-91.5-39h-81q-11 0-11 9v262q0 12 11 12h81z m-879-409q11 0 11 12v85q0 11-11 11h-230v100h177q12 0 12 11v85q0 4-3.5 7.5t-8.5 3.5h-177v112h230q5 0 8 3.5t3 7.5v85q0 11-11 11h-353q-4 0-7.5-3t-3.5-8v-511q0-5 3.5-8.5t7.5-3.5h353z m558 0q11 0 11 12v511q0 13-11 13h-111q-5 0-11-6l-205-326v319q0 5-4 9t-9 4h-112q-11 0-11-13v-511q0-12 11-12h112q6 0 10 5l207 325v-318q0-12 12-12h111z m736-840l-876 643v-402h-937v-478h937v-406z"/></svg>