<svg viewBox="0 0 2600 2760.837" xmlns="http://www.w3.org/2000/svg"><path d="M2250 1389q17 17 17 40 0 24-17 41l-910 910q-16 17-41 17-11 0-21.5-4t-18.5-13l-911-910q-16-17-16-41 0-25 16-40l911-912q15-15 40-15t41 16z m-228-68l-79-79-54 54 80 78z m-589 53l80-78-80-80-79 80z m-134-25l-80 80 80 79 79-79z m79-187l-79-80-80 80 80 78z m-212 54l-80 80 80 78 78-78z m-134 133l-80 80 80 79 78-79z m54 214l80 80 78-80-78-79z m133 133l80 79 79-79-79-78z m214-53l80-80-80-79-79 79z m133-135l79-79-79-80-78 80z m134-134l80-78-80-80-78 80z m-55-212l-79-80-78 80 78 78z m-132-135l-80-79-79 79 79 80z m-135-134l-79-78-80 78 80 80z m-212 55l-80 79 80 80 78-80z m-134 134l-80 80 80 78 78-78z m-135 134l-79 80 79 78 80-78z m-134 133l-78 80 78 79 80-79z m55 214l79 80 80-80-80-79z m134 133l80 79 78-79-78-78z m134 134l80 80 78-80-78-78z m133 134l80 80 79-80-79-79z m214-54l80-80-80-78-79 78z m133-135l79-79-79-78-78 78z m134-132l80-80-80-79-78 79z m134-135l80-79-80-80-79 80z m54-322l-80-78-53 54 79 78z m-134-133l-78-79-54 53 78 80z m-135-134l-78-79-53 53 78 80z m-132-134l-80-80-53 54 79 79z m-135-133l-53-53-54 53 54 53z m-161 53l-79 80 54 53 78-79z m-135 135l-78 79 54 54 78-80z m-133 134l-79 79 53 54 80-80z m-134 134l-79 78 53 54 80-78z m-133 134l-81 79 54 53 79-78z m-134 133l-53 54 53 53 53-53z m53 162l81 80 52-54-79-79z m135 134l79 78 54-53-80-78z m134 135l79 78 54-54-80-78z m134 132l78 80 54-54-78-79z m134 135l79 79 53-53-78-80z m133 133l54 53 53-53-53-52z m162-54l80-79-54-54-79 80z m134-134l78-80-53-53-78 79z m135-134l78-78-54-54-78 78z m132-135l80-78-54-53-79 78z m135-132l79-80-53-53-80 79z m133-135l53-53-53-54-52 54z"/></svg>