<svg viewBox="0 0 2600 2760.837" xmlns="http://www.w3.org/2000/svg"><path d="M2395 1963q6 23 6 41 0 58-43 90t-63 32l-422 49q-25 0-38-23l-201-408q-35-71-86-109.5t-125-38.5h-218l-19-2q-96-8-165.5-76.5t-69.5-216.5q0-31-21-56.5t-58-39.5h-619q-27 0-43.5-16.5t-19.5-39.5v-133q-12-25-22-62t-10-78q0-48 18.5-88.5t55.5-68.5v-23q0-8 6.5-14.5t14.5-6.5h131q8 0 13.5 6.5t5.5 14.5v15h1496v-29q0-8 6-13.5t14-5.5h67q19 0 19 19v29h77q9 0 16 8l14 19q7 11 16.5 20.5t24.5 11.5q6 0 15-2l35-7q7 0 10-1 17 0 29 12t12 33q0 17-10 26t-17 29.5-23 49.5l-37 64 30 119 51 17q49 18 76.5 40.5t27.5 50.5-18.5 41.5-75.5 16.5q-29 0-58 28t-29 88q0 27 6 53.5t14 46.5z m-1190-454h177q107 0 150.5-31.5t43.5-109.5q0-58-9.5-85t-45-48-91.5-30q5 20 9 43t4 49q0 51-21.5 109t-57.5 58q-19 0-29.5-12.5t-10.5-27.5q0-9 19-45t19-85q0-28-5.5-50.5t-13.5-38.5h-175q-59 10-91 34.5t-38 47.5l-3 14q0 110 48 159t121 49z"/></svg>