<svg viewBox="0 0 2600 2760.837" xmlns="http://www.w3.org/2000/svg"><path d="M2255.5 1982q-148.5 256-405 404.5t-551.5 148.5-551-148.5-404.5-404.5-148.5-551 148.5-551.5 404.5-405 551-148.5 551.5 148.5 405 405 148.5 551.5-148.5 551z m-92-1050.5q-134.5-230.5-365-365t-499.5-134.5q-268 0-498.5 134t-365 365-134.5 500q0 267 134 497.5t364.5 365.5 499.5 135 499.5-134 365-364.5 134.5-499.5-134.5-499.5z m-507.5 40.5l-213 370q12 20 19 42t7 47q0 69-50.5 119t-119.5 50-119-50-50-119q0-48 24.5-87t64.5-62v-762h159v614l140-241z m-314 506.5q21-15.5 21-47.5 0-26-19-44.5t-45-18.5-44.5 18.5-18.5 44.5q0 21 17 42t46 21q22 0 43-15.5z m865.5-3q-18.5 18.5-45.5 18.5-26 0-44.5-18.5t-18.5-44.5 18.5-44.5 44.5-18.5q27 0 45.5 18.5t18.5 44.5-18.5 44.5z m-204.5-430q-19-17.5-19-45.5 0-24 16.5-44.5t44.5-20.5q26 0 45.5 17.5t19.5 45.5q0 27-18.5 46t-44.5 19q-25 0-44-17.5z m-228-315.5q-20 18-43 18-29 0-47-20.5t-18-44.5q0-28 20-45.5t43-17.5q26 0 45.5 17.5t19.5 45.5q0 29-20 47z m-863-93q20 17 20 46 0 25-18 45t-47 20q-23 0-43-18t-20-47q0-26 18.5-44.5t44.5-18.5q25 0 45 17z m-317.5 409q-20.5 17-43.5 17-28 0-45.5-20t-17.5-43q0-27 19-46t45-19q28 0 45.5 19.5t17.5 45.5q0 29-20.5 46z m-113.5 429.5q-19 18.5-45 18.5-27 0-45-18.5t-18-44.5 18-44.5 45-18.5q26 0 45 18.5t19 44.5-19 44.5z m114 341.5q20 17 20 46 0 26-17.5 44.5t-46.5 18.5q-25 0-44-18.5t-19-46.5q0-24 16.5-42.5t44.5-18.5q26 0 46 17z m317 408q-20 17-45 17-28 0-45.5-19.5t-17.5-43.5q0-29 20-46.5t43-17.5q28 0 46.5 18t18.5 46q0 29-20 46z m432 115q-19 19-45 19t-44.5-19-18.5-46q0-26 18-44.5t45-18.5q26 0 45 18.5t19 44.5q0 27-19 46z m431-207.5q20 17.5 20 46.5 0 24-18 43.5t-47 19.5q-23 0-43-17.5t-20-45.5q0-27 18-45.5t45-18.5q25 0 45 17.5z m315-223q-20 16.5-43 16.5-28 0-45.5-20t-17.5-43q0-28 19-45.5t45-17.5q32 0 47 21t15 43q0 29-20 45.5z"/></svg>