<svg viewBox="0 0 2600 2760.837" xmlns="http://www.w3.org/2000/svg"><path d="M544 2000q115 58 153.5 103.5t38.5 96.5q0 63-51 114.5t-143 51.5q-56 0-103.5-22.5t-85.5-65.5l-1-9 52-88 5-4 7 3q22 22 61.5 44t74.5 22q17 0 33-11t16-32q0-35-56-63.5t-74-39.5l-5-2q-74-42-90-73t-16-68q0-65 42-114t135-49q37 0 81 12t71 30l3 10-35 83-4 4h-6q-3 0-38.5-15.5t-66.5-15.5q-23 0-36.5 11t-13.5 31q0 16 11 28.5t22 18.5z m1693-178q5 0 8 3.5t3 7.5v513q0 4-3 7.5t-8 3.5h-97q-5 0-11-6l-182-323v318q0 4-3 7.5t-8 3.5h-99q-5 0-8-3.5t-3-7.5v-513q0-4 3-7.5t8-3.5h99q5 0 9 6l182 323v-318q0-4 4-7.5t9-3.5h97z m-521.5 457q-69.5 78-179.5 78-111 0-181-77.5t-70-195.5 70-195.5 181-77.5q110 0 179.5 78t69.5 195-69.5 195z m-87-298.5q-35.5-41.5-92.5-41.5-56 0-93.5 40.5t-37.5 104.5 38 104 93 40q56 0 92-41.5t36-102.5q0-62-35.5-103.5z m-443.5 298.5q-70 78-180 78t-179.5-78-69.5-195 69.5-195 179.5-78 180 78 70 195-70 195z m-86.5-299.5q-37.5-40.5-93.5-40.5t-93 41-37 104 37 103.5 93 40.5q55 0 93-40t38-104-37.5-104.5z m1108.5-1001.5l-877 643v-400h-936v-481h936v-404z"/></svg>