<svg viewBox="0 0 2600 2760.837" xmlns="http://www.w3.org/2000/svg"><path d="M2239 1408v938h-939v-938h939z m-1879 0v-937h939v937h-939z m1135-91q-11 0-11-11v-745q0-4 3-7.5t8-3.5h155q5 0 7.5 3.5t2.5 7.5v259q30-15 65.5-24t74.5-9q123 0 198.5 75.5t75.5 189.5-76 189-198 75q-39 0-74.5-8.5t-65.5-24.5v23q0 11-10 11h-155z m527 181q0-4-3-7.5t-8-3.5h-153q-5 0-8 3.5t-3 7.5v261q-30-17-65.5-26t-74.5-9q-119 0-196.5 75t-77.5 190 77.5 190 196.5 75q78 0 140-34v25q0 4 3 7.5t8 3.5h153q5 0 8-3.5t3-7.5v-747z m-903-786q0-14-12-14h-149q-11 0-11 14v35q-65-35-151-35-130 0-211 81t-81 201q0 122 82 203t210 81q44 0 81.5-9.5t69.5-26.5v23q0 14 11 14h149q12 0 12-14v-553z m-71 1336l66 128-3 9q-90 76-219 76-140 0-231.5-88.5t-91.5-224.5q0-135 91.5-224.5t231.5-89.5q130 0 211 66l3 8-73 131-4 3-7-1q-23-19-58-30t-71-11q-66 0-109.5 40.5t-43.5 107.5q0 66 43 107.5t110 41.5q35 0 77.5-15.5t66.5-35.5l7-3z m-153.5-961q-37.5 37-98.5 37-60 0-98-36.5t-38-93.5q0-56 37.5-93.5t98.5-37.5q62 0 99 38t37 93q0 56-37.5 93z m819.5 47q33 34 86 34 54 0 87.5-33.5t33.5-82.5-32.5-83-88.5-34q-53 0-86 34t-33 83q0 48 33 82z m80 937q-32 34-87 34-54 0-88-33.5t-34-82.5 34-82 88-33q53 0 86 33.5t33 81.5-32 82z"/></svg>