<svg viewBox="0 0 2600 2760.837" xmlns="http://www.w3.org/2000/svg"><path d="M683.5 1453q-195.5-78-326-199.5t-130.5-303.5q2-172 109-338.5t294.5-276 383.5-109.5q165 0 285 81t190.5 278 70.5 393q0 43-3.5 84.5t-7.5 61.5-7.5 35.5-36.5 75-84.5 111.5-150.5 108-155 67l-57 10q-179 0-374.5-78z m-260.5-266q105 94 265 94 162 0 324.5-90.5t266-243 103.5-297.5q0-149-103.5-240.5t-264.5-91.5q-168 0-329.5 91t-264 240-102.5 299q0 145 105 239z m1452 1164l-749-752q111-12 220.5-79t177-151.5 82.5-144.5l619 822q8 26 8 53 0 96-91.5 181.5t-194.5 85.5q-41 0-72-15z m-875-1237q-77 37-153 37-93 0-151-54t-58-136q0-122 118-233t256-111q93 0 152 53.5t59 138.5q0 41-15 83.5t-44 84.5q-2-52-41-90.5t-92-38.5q-54 0-94.5 39.5t-40.5 95.5q0 48 29.5 85t74.5 46z m1343 1089q30 38 30 88 0 87-80 165.5t-172 78.5q-32 0-59.5-12t-49.5-33l-75-76q112 0 212-75t132-219z"/></svg>