<svg viewBox="0 0 2600 2760.837" xmlns="http://www.w3.org/2000/svg"><path d="M2254.5 1983.5q-149.5 257.5-405 404.5t-549.5 147q-295 0-551.5-148.5t-405-405-148.5-551.5 148.5-551 405-404.5 551.5-148.5 551.5 148 404.5 404.5 148 551.5q0 296-149.5 553.5z m-89.5-1052q-134-230.5-365-365t-500-134.5-500 134.5-365 365-134 498.5q0 269 134.5 499.5t365 365 499.5 134.5 499.5-134.5 365-365 134.5-499.5q0-268-134-498.5z m-785 350.5q39 22 64 60.5t25 87.5q0 73-51.5 121.5t-122.5 48.5l-214 368-138-79 213-369q-11-20-17.5-42.5t-6.5-47.5q0-49 24-87.5t65-60.5v-762h159v762z m-35 193q20-19 20-45 0-21-16.5-42t-48.5-21q-23 0-43.5 16t-20.5 47q0 25 18 44.5t46 19.5q25 0 45-19z m864 0.5q-19 18.5-46 18.5-26 0-45-18.5t-19-44.5 19-45 45-19q27 0 46 19t19 45-19 44.5z m-205.5-430q-19.5-17.5-19.5-45.5 0-25 17.5-45t45.5-20q25 0 44.5 17.5t19.5 45.5-19 46.5-45 18.5q-24 0-43.5-17.5z m-228.5-317.5q-20 18-43 18-29 0-47-19.5t-18-43.5q0-28 20.5-46t44.5-18q26 0 44.5 18t18.5 45q0 28-20 46z m-863.5-91.5q20.5 17.5 20.5 45.5 0 25-17.5 44.5t-45.5 19.5q-26 0-45.5-18t-19.5-46q0-25 19-44t44-19q24 0 44.5 17.5z m-315.5 408q-19 18.5-45 18.5-28 0-45.5-20t-17.5-43q0-27 20-46t44-19q26 0 44.5 18t18.5 47q0 26-19 44.5z m-115 430.5q-19 19-45 19t-44.5-19-18.5-45 18.5-44.5 44.5-18.5 45 18.5 19 44.5-19 45z m114.5 341q19.5 18 19.5 47 0 23-17.5 43t-45.5 20q-25 0-44.5-18.5t-19.5-46.5 20.5-45.5 43.5-17.5q24 0 43.5 18z m315.5 408q-21 18-44 18-29 0-46-20t-17-43q0-29 20-46.5t43-17.5q28 0 46.5 18t18.5 46q0 27-21 45z m434 114.5q-18 18.5-45 18.5-26 0-45-18.5t-19-44.5 19-45 45-19q27 0 45 19t18 45-18 44.5z m430-206.5q20 17 20 46 0 25-17 44.5t-46 19.5q-24 0-44.5-17.5t-20.5-46.5q0-25 19-44t46-19q23 0 43 17z m316.5-223.5q-19.5 17.5-44.5 17.5-28 0-45.5-20t-17.5-43q0-29 19.5-47t43.5-18q26 0 45 18.5t19 46.5-19.5 45.5z"/></svg>