<svg viewBox="0 0 2600 2760.837" xmlns="http://www.w3.org/2000/svg"><path d="M2231.5 2307q-149.5 87-352.5 129t-553 42q-225 0-488.5-29t-441-126.5-177.5-143.5q0-25 40.5-48t70.5-73 96-104.5 208-116.5l19-10q9-4 18-7-119-119-186-278t-67-334q0-237 120.5-441t327-320 441.5-116 441.5 116.5 326.5 320 120 440.5q0 173-67.5 333t-190.5 283q184 81 244.5 135t89.5 100.5 69.5 71 40.5 48.5q0 41-149.5 128z m-271-839q-17.5-15-42.5-15-56 0-140 94t-122 128.5-129 78.5-229.5 48.5-138.5 38.5q0 23 71 38t141 15q145 0 281.5-54t231-148 94.5-176q0-33-17.5-48z m-948-212.5q97.5 58.5 199 77.5t195.5 19q128 0 270.5-50t223-138.5 80.5-204.5q0-136-96.5-257t-260-196.5-319.5-75.5q-313 0-527.5 224.5t-214.5 564.5q0 101 15.5 136t46.5 35q40 0 69-67t64.5-96.5 89.5-29.5q67 0 164.5 58.5z m-551.5 894q24 14.5 70 14.5 55 0 98-4.5t91-4.5q26 0 51 1t51 5l217 38q108 19 220 19 202 0 408-47t289-47q38 0 78 5.5t76 5.5q18 0 35-11.5t17-29.5q0-25-49.5-63t-111-70.5-148.5-62.5q-86 66-183 110-8-2-16-3l-18-2q-78-11-155.5-16.5t-157.5-5.5q-90 0-178.5 9t-176.5 29q-57-24-110.5-54.5t-101.5-68.5q-74 19-196.5 86.5t-122.5 126.5q0 26 24 40.5z"/></svg>