<svg viewBox="0 0 2600 2760.837" xmlns="http://www.w3.org/2000/svg"><path d="M2257.5 1982.5q-148.5 256.5-405 405t-552.5 148.5q-295 0-551.5-147.5t-405.5-404.5-149-554q0-296 148.5-552.5t405-405 552.5-148.5 552.5 148.5 405 405 148.5 552.5-148.5 552.5z m-93-1052q-134.5-230.5-365-365t-499.5-134.5q-272 0-504.5 137.5t-364 368-131.5 493.5q0 266 134.5 498.5t367 367 498.5 134.5q263 0 493.5-131.5t368-364 137.5-504.5q0-269-134.5-499.5z m45 545q-18.5 18.5-45.5 18.5-26 0-44.5-18.5t-18.5-45.5q0-26 18.5-44.5t44.5-18.5q27 0 45.5 18.5t18.5 44.5q0 27-18.5 45.5z m-205-431q-19.5-17.5-19.5-45.5 0-24 17.5-44.5t45.5-20.5q25 0 44.5 18.5t19.5 46.5q0 27-20 45t-44 18-43.5-17.5z m-317-408.5q19.5-18 43.5-18 28 0 46.5 19.5t18.5 43.5q0 29-19.5 46.5t-44.5 17.5q-27 0-45.5-18t-18.5-45q0-28 19.5-46z m-775.5 0q20 18 20 47 0 24-18 43t-46 19q-24 0-44-16.5t-20-45.5q0-28 19.5-46.5t44.5-18.5q24 0 44 18z m-317 408q-20 18-44 18-28 0-45.5-20t-17.5-44q0-29 19.5-46.5t43.5-17.5q25 0 44.5 19t19.5 45q0 28-20 46z m-114.5 431.5q-18.5 18.5-44.5 18.5-27 0-45.5-18t-18.5-44q0-27 18-46t46-19q26 0 44.5 18.5t18.5 44.5q0 27-18.5 45.5z m115 341q19.5 18.5 19.5 46.5 0 23-17.5 43t-46.5 20q-25 0-44-17t-19-46 19.5-47 43.5-18q25 0 44.5 18.5z m316 409q-20.5 17.5-44.5 17.5-28 0-45.5-20t-17.5-45q0-29 20-46t43-17q26 0 45.5 18.5t19.5 45.5q0 29-20.5 46.5z m865-92.5q19.5 18 19.5 46 0 25-18 44.5t-46 19.5q-25 0-44.5-18.5t-19.5-45.5q0-28 19.5-46t45.5-18q24 0 43.5 18z m316-224.5q-19.5 17.5-44.5 17.5-29 0-46-20t-17-44q0-28 19-46t44-18 44.5 19 19.5 45q0 29-19.5 46.5z m-643.5-558.5h427v160h-427q-24 45-69 68v764h-160v-764q-40-21-64.5-60.5t-24.5-87.5q0-71 50-120t119-49q49 0 88 24.5t61 64.5z m-194.5 35.5q-18.5 18.5-18.5 44.5t19 45 45 19 45-18.5 19-45.5q0-26-18.5-44.5t-45.5-18.5-45.5 18.5z m0-864.5q18.5-19 45.5-19 26 0 44.5 19t18.5 45-18.5 45-44.5 19q-27 0-45.5-19t-18.5-45 18.5-45z"/></svg>