<svg viewBox="0 0 2600 2760.837" xmlns="http://www.w3.org/2000/svg"><path d="M2140 874l76 43q72 41 122 87.5t50 84.5q0 26-24.5 49.5t-67.5 26.5l-28 2q-23 2-47.5 18t-24.5 46q0 8 2 16l4 18q15 73 28.5 142.5t13.5 149.5q0 211-119.5 372.5t-311.5 203.5l-40 6q-44 6-78.5 20.5t-35.5 67.5-34 85.5-98 37-82.5 17-47.5 66.5l-15 30q-14 30-31.5 49.5t-36.5 20.5l-15 2-15-2q-42-3-78-87t-99-91l-38-4q-29-2-52.5-11.5t-38-22.5-26-33.5-11.5-40.5-7-46.5-37-38-31-11.5l-47-8-35-6q-188-41-308.5-204t-120.5-374q0-106 24-202.5t24-120.5q0-31-24-47t-48-18l-28-2q-44-3-68-26.5t-24-47.5q0-75 224.5-202.5t220.5-125.5l53-29q29-16 57-16 22 0 39 12t17 32q0 33-69 162.5t-106 300.5-37 355q0 99 72.5 169.5t168.5 70.5q41 0 86.5-22t84-67 77.5-205.5 41-393.5q0-80-23.5-117.5t-67.5-37.5q-21 0-42.5 11t-41.5 11q-21 0-35.5-11t-14.5-30q0-127 127.5-315t163-247 93.5-59q53 0 96.5 64.5t165 254.5 121.5 302q0 17-13.5 29t-36.5 12q-21 0-42-11t-43-11q-44 0-66.5 36t-22.5 119q0 174 40 376.5t113.5 257 136.5 54.5q96 0 169.5-72.5t73.5-167.5q0-135-31.5-317t-129.5-371l-17-31q-17-31-26.5-55.5t-9.5-44.5q0-19 17-31t39-12q29 0 84 29t102 56z m-625 1271.5q-28-13.5-113-13.5-50 0-76.5 2.5t-53.5 0-77-2.5q-89 0-115 15.5t-26 51.5q0 44 45.5 63t182.5 19h9.5t7.5-1q5 0 17 1 101 0 164-13t63-69q0-40-28-53.5z"/></svg>