<svg viewBox="0 0 2600 2760.837" xmlns="http://www.w3.org/2000/svg"><path d="M498 1170q-73 39-129.5 98.5t-91.5 134.5q-2-18-3.5-37t-1.5-38q0-237 165-402.5t394-165.5h984v-308l513 415-513 415v-329h-984q-109 0-199.5 60t-133.5 157z m522 731q-118 119-284 119t-283.5-119-117.5-283q0-165 118-283.5t283-118.5q166 0 284 118t118 284q0 164-118 283z m1221-755q31 87 31 182 0 228-164.5 392.5t-392.5 164.5h-548q54-86 71-193h477q150 0 257-108t107-256q0-22-3-43z m-1369 618q0-7-8-7h-59v-413q0-2-3-4.5t-6-2.5l-171 37q-7 0-7 7v102q0 2 2.5 4.5t7.5 2.5l51-15v282h-59q-8 0-8 7v96q0 8 8 8h244q8 0 8-8v-96z"/></svg>