<svg viewBox="0 0 2600 2760.837" xmlns="http://www.w3.org/2000/svg"><path d="M1300 404l643 879h-400v307h-481v-307h-404z m221.5 1867.5q-78.5 77.5-202.5 77.5-123 0-201.5-77.5t-78.5-195.5 78.5-195.5 201.5-77.5q124 0 202.5 77.5t78.5 195.5-78.5 195.5z m360.5-462.5q75 0 129 53t54 126q0 74-54 127.5t-129 53.5h-104v163q0 11-11 11h-111q-5 0-8.5-3t-3.5-8v-512q0-5 3.5-8t8.5-3h226z m-839 102q0 5-3.5 8t-7.5 3h-176v410q0 11-12 11h-111q-11 0-11-11v-410h-175q-5 0-9-3t-4-8v-91q0-5 4-8t9-3h485q4 0 7.5 3t3.5 8v91z m382.5 63.5q-40.5-39.5-106.5-39.5-64 0-104.5 39.5t-40.5 101.5 40.5 101.5 104.5 39.5q66 0 106.5-39.5t40.5-101.5-40.5-101.5z m445.5 89.5q29-2 49.5-24t20.5-52-21.5-52-50.5-22h-89l-3 3v144l3 3h91z"/></svg>