<svg viewBox="0 0 2600 2760.837" xmlns="http://www.w3.org/2000/svg"><path d="M2257.5 1982.5q-148.5 256.5-405 405t-552.5 148.5q-295 0-551.5-147.5t-405.5-404.5-149-554q0-296 148.5-552.5t405-405 552.5-148.5q297 0 552.5 149t404.5 404.5 149 552.5q0 296-148.5 552.5z m-96-1056q-137.5-232.5-368-364t-493.5-131.5q-266 0-499 134.5t-367 367-134 497.5q0 266 134.5 498.5t367 367 498.5 134.5q263 0 493.5-131.5t368-364 137.5-504.5q0-271-137.5-503.5z m47 549.5q-18.5 19-44.5 19-27 0-45.5-19t-18.5-46q0-26 18.5-44.5t45.5-18.5q26 0 44.5 18.5t18.5 44.5q0 27-18.5 46z m-204-431q-19.5-17-19.5-46 0-24 17.5-44.5t45.5-20.5q24 0 44 18.5t20 46.5q0 25-18 44t-46 19q-24 0-43.5-17z m-229.5-316.5q-21 17.5-45 17.5-28 0-45-20t-17-43q0-28 19-46.5t44-18.5q26 0 45.5 19t19.5 46q0 28-21 45.5z m-864-93q20 17.5 20 46.5 0 24-17.5 44t-46.5 20q-24 0-43.5-17.5t-19.5-46.5q0-27 19-45.5t45-18.5q23 0 43 17.5z m-316.5 409q-20.5 17.5-45.5 17.5-28 0-45-20t-17-44q0-28 19.5-46t44.5-18 44.5 19 19.5 45q0 29-20.5 46.5z m-113.5 431q-18 18.5-44 18.5-27 0-46.5-18t-19.5-46q0-26 19-44.5t45-18.5 45 18.5 19 44.5q0 27-18 45.5z m114 341q20 17.5 20 46.5 0 24-18 44t-46 20q-25 0-44.5-18t-19.5-46q0-27 18.5-45.5t44.5-18.5q25 0 45 17.5z m315.5 409.5q-20.5 17-44.5 17-29 0-45.5-20t-16.5-44q0-29 20-46.5t43-17.5q25 0 44.5 18.5t19.5 46.5q0 29-20.5 46z m865-93.5q20.5 17.5 20.5 46.5 0 24-17.5 44t-45.5 20q-25 0-45-18t-20-46 20-46 44-18q23 0 43.5 17.5z m316.5-223.5q-20 18-44 18-28 0-45.5-20.5t-17.5-44.5q0-28 19.5-45.5t43.5-17.5q27 0 45.5 18.5t18.5 44.5q0 29-20 47z m-649-389l214 370-138 80-139-242v614h-160v-763q-40-21-65-60.5t-25-88.5q0-69 50.5-119t119.5-50 119 50 50 119q0 25-7 47.5t-19 42.5z m-188.5-44q18.5 19 45.5 19 26 0 44.5-19t18.5-46q0-26-18.5-44t-44.5-18q-25 0-44.5 17t-19.5 45q0 27 18.5 46z m0-955q18.5-19 45.5-19 26 0 44.5 19t18.5 45-18.5 45-44.5 19q-27 0-45.5-19t-18.5-45 18.5-45z"/></svg>