<svg viewBox="0 0 2600 2760.837" xmlns="http://www.w3.org/2000/svg"><path d="M2273 2134.5q-7 27.5-19 27.5-17 0-79-54.5t-115-54.5h-19l-20 2q-3 0-35.5 4.5t-32.5 42.5v23q0 60 10 81.5t73.5 63.5 63.5 65q0 30-39.5 47.5t-104.5 19.5l-18 1q-45 0-88.5-18.5t-77-48-54.5-65-28-78-22-86.5-41-70l-52-55-185-191-101-103q-74-76-134-135t-133-59h-7q-25 6-66 8.5t-85 2.5q-277 0-410.5-151.5t-133.5-368.5q0-91 17-120.5t33-29.5q12 0 27 11l26 19q54 46 94 77.5t98 78.5 90 47q23 0 98-23t106-33.5 31-43.5v-53q0-98-9.5-139.5t-103.5-123.5l-64-59h-1q-66-60-80.5-74.5t-14.5-30.5q0-31 67-47.5t148-16.5q130 0 255 72.5t186.5 201.5 61.5 319q0 115 10.5 155.5t21 65 105.5 137.5l25 31 320 366q37 35 149 33.5t188 79 76 192.5q0 30-7 57.5z m-828-465.5q39 36 136 133t106.5 102 18.5 5q16 0 36.5-22.5t20.5-39.5q0-22-39-64t-50-55l-60-70-62-70q-37-42-112.5-136.5t-105.5-94.5q-28 0-55.5 37.5t-27.5 53.5q0 32 45 73.5t49.5 48 44.5 45.5z"/></svg>