<svg viewBox="0 0 2600 2760.837" xmlns="http://www.w3.org/2000/svg"><path d="M1643 1715q-143 143-343 143t-342.5-142.5-142.5-342.5 143-343 342-143 342.5 143.5 143.5 342.5-143 342z m-143.5-541.5q-83.5-83.5-199.5-83.5-117 0-200 84t-83 199q0 116 83.5 199.5t199.5 83.5q115 0 199-83t84-200q0-116-83.5-199.5z m-313.5 863.5q0-20 14-34t34-14h134q20 0 33.5 14t13.5 34v131q0 20-13.5 34t-33.5 14h-134q-20 0-34-14t-14-34v-131z m-435-275q13-13 34-13 20 0 33 13l95 95q13 13 13 34 0 20-13 33l-93 93q-14 14-34 14-19 0-33-14l-95-94q-7-7-10-16t-4-18q0-20 14-34z m1098-775q-14 14-33 14-9 0-18-3.5t-16-10.5l-94-95q-14-14-14-33t14-33l93-94q13-13 33-13 9 0 18 3t16 10l95 95q13 13 13 33 0 9-3 18t-10 16z m-1211 273q20 0 33.5 14t13.5 34v134q0 20-13.5 33.5t-33.5 13.5h-132q-20 0-33.5-13.5t-13.5-33.5v-134q0-20 13.5-34t33.5-14h132z m1050 663q-14-14-14-33t15-34l94-94q13-13 33-13 9 0 18 3t16 10l93 93q13 13 13 33 0 9-3 18t-10 16l-95 95q-14 14-33 14-9 0-18-3.5t-16-10.5z m275-435q-20 0-34-13.5t-14-33.5v-133q0-20 14-34t34-14h131q20 0 34 14t14 34v133q0 20-14 33.5t-34 13.5h-131z m-549-776q0 20-13.5 33.5t-33.5 13.5h-134q-20 0-33.5-13.5t-13.5-33.5v-132q0-19 13.5-33t33.5-14h134q20 0 33.5 14t13.5 33v132z m-502 114q7 7 10 16t3 17q0 20-13 33l-94 95q-14 14-33 14-21 0-34-14l-93-93q-14-14-14-33 0-20 14-34l95-94q14-14 34-14 19 0 33 14z"/></svg>