<svg viewBox="0 0 2600 2760.837" xmlns="http://www.w3.org/2000/svg"><path d="M2258 1982q-148 256-405 404.5t-553 148.5-553-148.5-405-404.5-148-551 148.5-551.5 405-405 552.5-148.5q295 0 552 148t405.5 405 148.5 552-148 551z m-93.5-1050.5q-134.5-230.5-365-365t-499.5-134.5-499.5 134.5-365 365-134.5 499.5q0 268 134 498.5t365 365 500 134.5 499.5-134 365-364.5 134.5-499.5-134.5-499.5z m-785.5 351.5q41 21 65.5 60t24.5 87q0 69-50 119.5t-119 50.5q-72 0-120.5-51t-48.5-123l-369-214 79-138 370 213 10-4v-763h158v763z m-33.5 1056.5q-18.5 19.5-45.5 19.5-26 0-45-19.5t-19-45.5 19-44.5 45-18.5q27 0 45.5 18.5t18.5 44.5-18.5 45.5z m-863.5-864q-18 18.5-45 18.5t-45.5-18.5-18.5-44.5 18.5-45 45.5-19 45 19 18 45-18 44.5z m114.5-429.5q-19.5 17-44.5 17-28 0-45.5-20t-17.5-45q0-28 19.5-45.5t43.5-17.5q27 0 45.5 19.5t18.5 45.5q0 29-19.5 46z m-1 769.5q20.5 17.5 20.5 47.5 0 23-17.5 43t-46.5 20q-24 0-43.5-17.5t-19.5-45.5q0-27 18.5-46t44.5-19q23 0 43.5 17.5z m750-429q-18.5-18.5-45.5-18.5t-45.5 18.5-18.5 44.5q0 27 19 45t45 18q25 0 44.5-18t19.5-45q0-26-18.5-44.5z m-434 838q-19.5 17.5-43.5 17.5-29 0-46.5-19.5t-17.5-43.5q0-28 20-46t44-18q26 0 44.5 17.5t18.5 45.5q0 29-19.5 46.5z m1092-1180q-19.5-18.5-19.5-46.5 0-23 17.5-43t46.5-20q24 0 43.5 18.5t19.5 46.5-19.5 45.5-43.5 17.5q-25 0-44.5-18.5z m-228.5 1088.5q20 18 20 46 0 24-17.5 43.5t-45.5 19.5q-24 0-44.5-17.5t-20.5-46.5q0-27 19.5-45t45.5-18q23 0 43 18z m-951-1403.5q-20-18.5-20-46.5 0-23 18-43t46-20q24 0 43.5 18t19.5 47-22 46-42 17q-23 0-43-18.5z m1267.5 1178.5q-19.5 18-43.5 18-29 0-46.5-19.5t-17.5-42.5q0-29 20.5-46.5t44.5-17.5q29 0 45.5 18.5t16.5 42.5q0 29-19.5 47z m117-432.5q-18.5 18.5-45.5 18.5-26 0-44.5-18.5t-18.5-44.5 18.5-44.5 44.5-18.5q27 0 45.5 18.5t18.5 44.5-18.5 44.5z m-433.5-746q-20 18.5-43 18.5-28 0-45.5-20.5t-17.5-44.5q0-28 19-45.5t42-17.5q26 0 45.5 17.5t19.5 45.5-20 46.5z"/></svg>