<svg viewBox="0 0 2600 2760.837" xmlns="http://www.w3.org/2000/svg"><path d="M2257.5 1983.5q-148.5 256.5-405 405t-552.5 148.5q-295 0-551.5-147.5t-405.5-404.5-149-554q0-295 147.5-551.5t404.5-405.5 554-149q296 0 552.5 148.5t405 405 148.5 552.5-148.5 552.5z m-93-1052q-134.5-230.5-365-365t-499.5-134.5-499.5 134.5-365 365-134.5 499.5 134.5 499.5 365 365 499.5 134.5 499.5-134.5 365-365 134.5-499.5-134.5-499.5z m-506.5 40.5l-214 370q12 20 19 42t7 47q0 49-25 88t-65 61v763h-159v-763q-41-22-65.5-61t-24.5-88q0-73 51-121t124-48l214-370z m-313 414q-19-19-45-19-24 0-44 18.5t-20 45.5q0 26 19 45t45 19 45-19 19-45-19-45z m747.5 523.5q-20.5 17.5-44.5 17.5-29 0-46-20t-17-45q0-28 20-45.5t44-17.5q26 0 45 19t19 46q0 28-20.5 45.5z m-316.5 224.5q20 18 20 46 0 24-18 44t-46 20q-25 0-44-17.5t-19-46.5q0-28 18.5-46t44.5-18q24 0 44 18z m-521-1612.5q19-18.5 45-18.5t45 18.5 19 44.5q0 27-19 46t-45 19-45-19-19-46q0-26 19-44.5z m-342.5 1704.5q-19.5 18-44.5 18-29 0-46.5-20.5t-17.5-44.5q0-29 20.5-46t43.5-17q27 0 45.5 18.5t18.5 45.5q0 28-19.5 46z m-316.5-409q20 18 20 46 0 25-17.5 44.5t-46.5 19.5q-24 0-44-17t-20-46 19.5-47 43.5-18q25 0 45 18z m-115-341q-19 19-45 19t-45-19-19-45 19-45 45-19 45 19 19 45-19 45z m114.5-430.5q-20.5 17.5-44.5 17.5-28 0-45.5-20t-17.5-44q0-29 20-46.5t43-17.5q26 0 45.5 18.5t19.5 45.5q0 29-20.5 46.5z m317-409.5q19.5 18 19.5 46 0 25-17.5 45t-46.5 20q-25 0-44.5-18t-19.5-46q0-27 19-46t45-19q25 0 44.5 18z m864 92.5q-19.5 18.5-44.5 18.5-28 0-45.5-20.5t-17.5-44.5q0-28 19-46t44-18 44.5 19 19.5 45q0 28-19.5 46.5z m228.5 317.5q-20-17-20-46 0-25 18-45t46-20q24 0 44 18t20 46q0 30-20.5 47t-43.5 17q-24 0-44-17z m204.5 430q-18.5 19-44.5 19-27 0-45.5-19t-18.5-45 18.5-45 45.5-19q26 0 44.5 19t18.5 45-18.5 45z"/></svg>