<svg viewBox="0 0 2600 2760.837" xmlns="http://www.w3.org/2000/svg"><path d="M2257.5 1982.5q-148.5 256.5-405 405t-552.5 148.5q-295 0-551.5-147.5t-405.5-404.5-149-554q0-295 147.5-551.5t404.5-405.5 554-149q296 0 552.5 148.5t405 405 148.5 552.5-148.5 552.5z m-93-1052q-134.5-230.5-365-365t-499.5-134.5-499.5 134.5-365 365-134.5 499.5 134.5 499.5 365 365 499.5 134.5 499.5-134.5 365-365 134.5-499.5-134.5-499.5z m-761.5 366.5q31 23 48.5 57t17.5 76q0 69-50 119t-119 50-119-50-50-119q0-42 18.5-76t47.5-57v-457h24v-321h158v321h24v457z m-58 179.5q19-17.5 19-46.5 0-26-18.5-44.5t-45.5-18.5q-26 0-45 18t-19 45q0 25 19 44.5t45 19.5 45-17.5z m863.5-1q-18.5 18.5-45.5 18.5-26 0-44.5-18.5t-18.5-45.5 18.5-45 44.5-18q27 0 45.5 18t18.5 45-18.5 45.5z m-204.5-431q-20-18.5-20-46.5 0-23 18-43t46-20q24 0 43.5 18t19.5 47q0 26-20.5 44.5t-43.5 18.5-43-18.5z m-229-316q-20 17.5-43 17.5-27 0-45-19t-18-44q0-29 19-46.5t42-17.5q26 0 45.5 17.5t19.5 45.5q0 29-20 46.5z m-863.5-92q19.5 17.5 19.5 46.5 0 24-18 43.5t-46 19.5q-23 0-43-17.5t-20-46.5q0-27 19.5-45t44.5-18q24 0 43.5 17.5z m-315.5 409.5q-20 17-43 17-28 0-46-20t-18-45q0-28 19.5-45.5t42.5-17.5q25 0 45 18.5t20 46.5q0 29-20 46z m-114 429.5q-18 18.5-45 18.5t-45.5-18.5-18.5-45.5 18.5-45 45.5-18 45 18 18 45-18 45.5z m114.5 340.5q19.5 17 19.5 46 0 23-18.5 43.5t-46.5 20.5q-23 0-42.5-17.5t-19.5-46.5q0-26 17.5-44.5t45.5-18.5q25 0 44.5 17z m315 408q-19.5 18-43.5 18-28 0-46-20t-18-43q0-29 20-46.5t43-17.5q25 0 44.5 16t19.5 46q0 29-19.5 47z m434 114.5q-18.5 18.5-45.5 18.5-26 0-45-18.5t-19-45.5 19-45 45-18q27 0 45.5 18t18.5 45-18.5 45.5z m429.5-205.5q20 18 20 46 0 23-18 43t-47 20q-23 0-43-18t-20-47q0-28 19.5-45t45.5-17q23 0 43 18z m316.5-225q-19.5 18-43.5 18-28 0-46-20t-18-43q0-28 20.5-46t43.5-18q28 0 45.5 18.5t17.5 44.5q0 28-19.5 46z"/></svg>