<svg viewBox="0 0 2600 2760.837" xmlns="http://www.w3.org/2000/svg"><path d="M2223 1390q0 14 1 28 0 246-124.5 459.5t-340.5 339-460 125.5q-254 0-470-131.5t-335-338.5-119-454q0-240 127-458t340-342.5 457-124.5q234 0 443 115t337 315 142 440z m-1330-672h811q-90-53-191.5-81t-213.5-28-214 28-192 81z m-111 77q-61 51-112 112h1258q-26-31-53-58.5t-58-53.5h-1035z m-167 190q-33 54-60 111h1488q-13-29-28-56.5t-33-54.5h-1367z m-89 189q-8 27-14.5 55.5t-11.5 57.5h1598q-11-60-27-113h-1545z m1173 947h-800q89 51 190 79t210 28q110 0 210.5-28t189.5-79z m114-77q61-51 112-112h-1252q51 61 112 112h1028z m167-190q17-27 32.5-55t28.5-57h-1483q12 29 27.5 57t32.5 55h1362z m90-189q9-27 16-55.5t12-57.5h-1597q5 29 12 57.5t16 55.5h1541z m36-189l2-29v-57l-2-27h-1614l-2 27q0 14-1 28 0 14 1 29l2 29h1614z"/></svg>