<svg viewBox="0 0 2600 2760.837" xmlns="http://www.w3.org/2000/svg"><path d="M2335 1732q0 4 1 8 0 16-10 30.5t-26 29.5l-249 255-110 112-174 179-20 22q-28 31-56 49t-55 18q-32 0-69.5-23.5t-210.5-178.5-307.5-312.5-245-321.5-197.5-366l-29-68-21-51q-3-6-7-17t-4-20q0-28 21-45l111-89q-35-27-66.5-54.5t-62.5-56.5l-43-40q-118-116-169.5-182.5t-61.5-80.5-10-31q0-15 38-60.5t66-45.5q22 0 49.5 48.5t102.5 139.5 170 186q-20-75-27.5-152.5t-7.5-155.5q0-25 7.5-41.5t47-24 65.5-7.5q29 0 29 32 0 22-1.5 38t-1.5 33q0 79 11 162t32 161l141-111q5-4 10.5-6.5t15.5-2.5q33 0 70.5 53t164.5 188 293 275 402.5 281.5 308 175 83.5 60.5z m-1350-780q-30-28-70-28h-11l-12 2 17 29q5 9 8.5 17.5t3.5 15.5q0 16-31 43t-52 27q-12-2-25-11.5t-21-17.5q-4 13-4 29 0 44 29 74.5t69 30.5q51 0 90-41.5t39-93.5q0-48-30-76z"/></svg>