<svg viewBox="0 0 2648 2760.837" xmlns="http://www.w3.org/2000/svg"><path d="M2648 692v1013h-59v208h-14q-21-56-70-91t-110-35q-44 0-81.5 18.5t-63.5 49.5q-27-31-64-49.5t-81-18.5q-79 0-134.5 56t-59.5 137h-158v-275h-221v43h123v156q-23-52-70.5-84.5t-107.5-32.5q-45 0-82 18.5t-63 49.5q-27-31-64.5-49.5t-81.5-18.5q-78 0-133.5 56.5t-59.5 136.5h-410q0-78-57-135.5t-138-57.5q-78 0-133.5 56.5t-59.5 136.5h-124q-23 0-47-26.5t-24-51.5v-340q0-68 37-109t90-48l267-36 55-321q10-58 50-92.5t85-34.5h339v-88q0-59 40-94t106-35v91q-22 0-38.5 6.5t-16.5 29.5v90h64v827h238v-43h-133v-1013h1465z m-1271 1392.5q-43-40.5-45-98.5-2 59-45.5 99t-100.5 40q-59 0-102.5-42.5t-43.5-102.5q0-61 43.5-103.5t102.5-42.5q57 0 100.5 41t45.5 99q2-57 44.5-98.5t100.5-41.5q59 0 102.5 42.5t43.5 103.5q0 60-43.5 102.5t-102.5 42.5q-57 0-100-40.5z m918 0q-43-40.5-45-98.5-2 58-45 98.5t-100 40.5q-59 0-103-42t-44-103 43.5-103.5 103.5-42.5q59 0 101 43t44 103q2-60 43.5-103t101.5-43q59 0 102.5 42.5t43.5 103.5q0 60-43.5 102.5t-102.5 42.5q-57 0-100-40.5z m-1530-1017.5q0-22-15-37t-36-15h-115q-22 0-39.5 15t-20.5 36l-36 254q0 19 12.5 31t32.5 12h166q21 0 36-15t15-36v-245z m-479.5 1015.5q-43.5-42.5-43.5-102.5 0-61 43.5-103.5t102.5-42.5q60 0 102.5 43t42.5 103-42.5 102.5-102.5 42.5q-59 0-102.5-42.5z m1216.5-1294.5h-56v822h56v-822z m297 0h-56v822h56v-822z m298 0h-56v822h56v-822z m297 0h-55v822h55v-822z"/></svg>