<svg viewBox="0 0 2600 2760.837" xmlns="http://www.w3.org/2000/svg"><path d="M2263.5 1908.5q51.5 67.5 51.5 113.5 0 123-169.5 225.5t-448.5 148.5q-10 2-15 2-174 30-379 30-426 0-721.5-118t-295.5-279q0-7 1-14l2-13q-2-38-3-76t-1-75q0-432 150.5-744.5t411.5-497.5 561-185q222 0 443.5 99.5t332.5 291 111 444.5q0 104-18 207.5t-41.5 176.5-23.5 120q0 76 51.5 143.5z m-700-665q-62.5-56.5-166.5-56.5-56 0-136 18t-119 18q-51 0-76-26.5t-73-68.5-104-42q-34 0-74.5 21t-58.5 70-18 71q0 48 28 87.5t102 42 130.5 23 103.5 89 122.5 97.5 137.5 29q104 0 184-70t80-168q0-78-62.5-134.5z m-205-479.5q-31.5 1-63.5 4-85-50-194.5-92t-125.5-42q-15 0-26 10.5t-11 29.5q0 27 49 39.5t180 70.5q-121 21-220.5 58.5t-109.5 50-10 24.5q0 17 11.5 26.5t25.5 9.5q13 0 57.5-21.5t142-49 215.5-39.5q116 70 224.5 185t127.5 140.5 40 25.5q14 0 25.5-11.5t11.5-25.5q0-9-3.5-17t-107-120-197.5-182h30q153 0 265 24.5t115 24.5q12 0 24.5-10t12.5-24q0-23-14.5-32.5t-143-33.5-267.5-24q-32 0-63.5 1z"/></svg>