<svg viewBox="0 0 2600 2760.837" xmlns="http://www.w3.org/2000/svg"><path d="M2312.5 2030.5q-71.5 81.5-180.5 81.5h-14q0-94-68.5-162.5t-163.5-68.5q-97 0-164 68.5t-67 162.5h-710q0-96-67-163.5t-163-67.5q-95 0-163.5 67t-68.5 163q-60-7-135-56.5t-103.5-99-28.5-150.5q0-196 88.5-267t212.5-89l40-5 24-40q136-231 218.5-304t188-111.5 335.5-38.5q191 0 303 26t190 76.5 137.5 124.5 121.5 230l14 37 30 7q63 16 131 59.5t101 129 33 182.5q0 127-71.5 208.5z m-27.5-337.5q-25-89-91-125t-114-46-63-50l-19-47q-61-145-112-205.5t-113.5-102-165-64.5-284.5-23q-89 0-161 5.5t-135 25-117 54.5-99 87.5-101 142.5-81 132.5-69 46-106 25-97.5 47-48.5 97.5h1977z m-435.5-231.5q-16.5 17.5-53.5 17.5h-396q-42 0-72.5-14t-30.5-50v-202q0-52 23.5-68.5t91.5-16.5q127 0 221.5 24t163.5 111.5 69 151.5q0 29-16.5 46.5z m-675.5-331.5q20 4 30.5 20.5t10.5 62.5v202q0 36-21 50t-49 14h-274q-26 0-38.5-13.5t-12.5-37.5q0-57 62.5-145t139-120.5 140.5-32.5h12z m-30-211q-13 0-21.5-9t-8.5-21v-72q0-11 9-20.5t24-9.5q0-104 37-156.5t106-52.5q72 0 109 52t37 157q14 0 23.5 9.5t9.5 20.5v72q0 12-9 21t-22 9h-294z m863.5 1314.5q-51.5 49.5-121.5 49.5-71 0-121.5-50t-50.5-121q0-73 51.5-123t120.5-50q71 0 122 52t51 121q0 72-51.5 121.5z m-1171.5-0.5q-50 50-121 50-70 0-121.5-49.5t-51.5-121.5q0-70 51-121.5t122-51.5q70 0 120.5 51.5t50.5 121.5q0 71-50 121z m-39-1454q-9 0-16.5-9t-7.5-21l19-140q0-7 7.5-14.5t18.5-7.5q2 0 5 1l228 103q6 5 10.5 11t4.5 14q0 9-7 16t-15 9z m741-38q-9-2-15.5-9.5t-6.5-16.5q0-14 17-24l226-103q2 0 5-1 8 0 16 7t10 15l20 140q0 15-8.5 22.5t-17.5 7.5z"/></svg>