<svg viewBox="0 0 2600 2760.837" xmlns="http://www.w3.org/2000/svg"><path d="M623 2282q-125-33-205-85t-128-111l-2-26q0-769 273-1168.5t802-399.5q474 0 711.5 357t237.5 1071q-73 26-138 50t-126 48q8-55 64.5-160t92.5-203.5 36-193.5q0-104-48.5-161.5t-122.5-57.5q-55 0-103.5 39t-67 127-117.5 203-128 194-29 179q0 52 2.5 105t4.5 108q-179 69-330.5 99.5t-296.5 30.5q-4 0-7-1t-6-1v-42q0-75 4.5-149.5t4.5-149.5q0-93-24-169t-92-154.5-109.5-142.5-54.5-130.5-60-106-105-39.5q-78 0-125.5 62t-47.5 172q0 97 31.5 207.5t69.5 173.5 58 84l28 30q36 41 46 76.5t10 99.5v42z m295 42q-62-2-117-8.5t-104-16.5v-81q0-18 1.5-36.5t1.5-36.5q0-153-74.5-223.5t-121.5-198-47-242.5q0-86 25-125.5t74-39.5q30 0 58.5 22t38 75 45 118 105 145.5 97 147 27.5 155.5q0 78-3.5 163t-4.5 140z m1055-274q-60 20-127.5 53.5t-142.5 62.5q-2-46-3-92.5t-1-93.5q0-80 21-144t67-116 106-133.5 81-176 96-94.5q42 0 70.5 34t28.5 111q0 63-20 131.5t-53 136.5l-43 87q-49 97-64.5 144.5t-15.5 89.5z m-829-186q44 61 127 61 56 0 108.5-28t71.5-65 19-111q0-139-53.5-260.5t-134.5-121.5q-56 0-95.5 43.5t-63 158-23.5 168.5q0 94 44 155z m-348-772q6 8 16 11 2 0 22 5t56 5l22-1q11 0 24-2-2 5-2 16 0 59 28 96t67 37 66.5-37.5 27.5-89.5q0-51-26-88 35-29 51-65.5t14-34.5v-5q0-13-9-23.5t-23-10.5q-15 0-24 12t-17 38l-214 94q-17-2-28-4.5t-25-2.5q-11 0-21.5 8.5t-10.5 24.5q0 9 6 17z m644-148q0 10 18 43t45 57q-25 35-25 88 0 55 28 91t65 36q38 0 66.5-37t28.5-96q0-11-2-16 11 2 23 2l23 1q34 0 56-5t23-5q11-3 16.5-12t5.5-19q0-14-10-22t-22-8q-10 0-20.5 2.5t-33.5 4.5l-213-94q-3-6-11.5-28t-30.5-22q-11 0-21.5 9.5t-10.5 21.5q0 6 2 8z"/></svg>