<svg viewBox="0 0 2600 2760.837" xmlns="http://www.w3.org/2000/svg"><path d="M2263.5 1908q51.5 67 51.5 112 0 166-295 287t-717 121q-426 0-721.5-118t-295.5-279q0-6 1-12l2-12q-2-38-3-76t-1-75q0-440 152.5-752t413-495 559.5-183q223 0 444.5 101t331 292.5 109.5 441.5q0 107-18.5 211.5t-41.5 174.5-23 118q0 76 51.5 143z m-1402-1005.5q10.5 10.5 24.5 10.5 76 2 149.5 19t75.5 17q14 0 25.5-9.5t11.5-26.5q0-9-5-19t-61-64.5-109-93.5l-20-15q-8-5-20-5-16 0-26.5 10.5t-10.5 26.5q0 19 15 29 52 36 88 68-26-4-54-6.5t-57-2.5q-16 0-26.5 10t-10.5 25q0 16 10.5 26.5z m608 406.5q4.5-6 4.5-14 0-9-7-14.5t-15-5.5h-2q-23 4-66 4-109 0-238.5-32t-183.5-65l-15-8q-6-6-14-6t-14.5 6.5-6.5 15.5q0 14 21 26.5t57 28.5q-69 10-119.5 71t-50.5 130q0 51 30.5 87t76.5 36q77 0 187.5-107t222.5-140q12 0 23 1h22q34 0 54.5-3t21.5-3q7-2 11.5-8z m277.5-322q13 0 22.5-10.5t9.5-24.5q0-18-11-27.5t-27-9.5q-44 0-156.5 23.5t-126 37-13.5 29.5q2 14 8.5 22.5t76 29 120.5 47.5 64 27q15 0 26-10t11-26q0-19-29-38.5t-71-35.5l-39-15q55-10 94-15z"/></svg>