<svg viewBox="0 0 2600 2760.837" xmlns="http://www.w3.org/2000/svg"><path d="M2018 2160.5q-294 118.5-718 118.5t-718-118.5-294-278.5q0-398 120.5-708.5t346-465.5 545.5-155 545.5 155 346 465.5 120.5 708.5q0 160-294 278.5z m-986-829q-10-11.5-25-11.5-19 0-33.5 20t-44.5 35-66 15-64-13.5-42-30.5l-8-9q-11-17-31-17-16 0-26 11.5t-10 25.5q0 27 53.5 66.5t127.5 39.5q72 0 125.5-39t53.5-67q0-14-10-25.5z m239.5 255q-31.5-58.5-85.5-58.5-40 0-61 34.5t-21 93.5q0 92 38 162.5t81 70.5q33 0 56.5-40.5t23.5-116.5q0-87-31.5-145.5z m443.5-255q-10-11.5-27-11.5-16 0-32 20.5t-46 35-66 14.5q-39 0-68.5-14.5t-42-35-33.5-20.5q-16 0-26 11.5t-10 25.5q0 5 1.5 10t4.5 9l12 15q21 27 64 49.5t98 22.5q75 0 128-40t53-66q0-14-10-25.5z"/></svg>