<svg viewBox="0 0 2600 2760.837" xmlns="http://www.w3.org/2000/svg"><path d="M2018 2160.5q-294 118.5-718 118.5t-718-118.5-294-278.5q0-398 120.5-708.5t346-465.5 545.5-155 545.5 155 346 465.5 120.5 708.5q0 160-294 278.5z m-1031.5-885q-31.5-34.5-71.5-34.5-41 0-71 35t-30 85 29.5 86 71.5 36q41 0 72-35t31-87q0-51-31.5-85.5z m620.5 348.5q-11-12-26-12-21 0-37.5 25t-73.5 58-137 33q-83 0-145.5-25.5t-89.5-54.5l-16-16q-14-15-30-15-17 0-27 11t-10 25q0 11 7 21 0 5 35.5 37.5t106 61 169.5 28.5q119 0 202-60.5t83-90.5q0-14-11-26z m149-348q-30-35-71-35-40 0-71.5 34.5t-31.5 85.5q0 52 31 87t72 35q42 0 71.5-36t29.5-86-30-85z"/></svg>