<svg viewBox="0 0 2600 2760.837" xmlns="http://www.w3.org/2000/svg"><path d="M2167 832q20 0 33.5 13t13.5 33v628q0 20-13.5 33t-33.5 13h-308l237 787h-219l-144-474-129 474h-219l212-787h-612l237 787h-219l-143-474-130 474h-219l214-787h-292q-20 0-33.5-13t-13.5-33v-628q0-20 13.5-33t33.5-13h105q-28-24-44-57.5t-16-74.5q0-69 51-121.5t120-52.5h47q70 0 122 51.5t52 122.5q0 41-17 74.5t-43 57.5h1002q-28-24-44-57.5t-16-74.5q0-69 51-121.5t120-52.5h47q70 0 122 51.5t52 122.5q0 41-16 74.5t-44 57.5h83z m-46 360l-192 267h192v-267z m-425 267l382-534h-246l-381 534h245z m-1120.5-683q31.5 32 73.5 32 48 0 79-32.5t31-75.5q0-44-32.5-75.5t-74.5-31.5q-41 0-74.5 30.5t-33.5 76.5q0 44 31.5 76z m-96.5 375l162-226h-162v226z m13 308h246l383-534h-247z m479 0h247l381-534h-246z m879-682.5q31 31.5 73 31.5 48 0 79-32t31-76q0-43-32-75t-75-32q-39 0-73 30t-34 77q0 45 31 76.5z"/></svg>