<svg viewBox="0 0 2600 2760.837" xmlns="http://www.w3.org/2000/svg"><path d="M2267.5 2142q-81.5 83-212.5 83-102 0-195.5-72.5t-171.5-212.5q-86 42-197.5 63t-197.5 21q-84 0-190.5-21.5t-191.5-62.5q-85 137-173 199.5t-182 62.5q-115 0-210-56t-95-180q0-79 43-175.5t138-223.5 175.5-186 110-118 103.5-135.5 152-76.5q26 0 43.5 10t17.5 23q0 15-37.5 31t-37.5 44q0 7 8 7 16 0 51.5-19t88.5-19q73 0 114 45t41 123q0 82-50 131.5t-171.5 72-184.5 65.5-139 135-76 143q0 19 7 19 15 0 71.5-80t109.5-128q34 113 162 175.5t307 62.5q187 0 314-65t158-179q62 56 114.5 135t71.5 79q5 0 6-4.5t1-10.5q0-59-71-142t-129-131.5-194-73-180.5-77-44.5-127.5q0-81 43.5-124.5t112.5-43.5q51 0 85 19t52 19q8 0 8-8 0-18-11.5-28t-25.5-17l-26-13q-12-6-12-16 0-13 18-23t45-10q56 0 120.5 49.5t112.5 126.5l35 58q17 28 44 52l65 57q50 44 95.5 92t82.5 99l38 53q45 63 84 147t39 151q0 123-81.5 206z m-1838.5-653q-15-46-15-98 0-96 51.5-156.5t137.5-60.5h12q64-249 245.5-395t438.5-146q159 0 302 62t241 190.5 140 288.5h13q85 0 137 60t52 154q0 23-3 50.5t-11 43.5l-33-37q-17-18-37-38v-16q0-51-26-80t-74-35q2 11 3 22t3 21q-60-49-81-94.5t-69-95.5l-32-35q-51-52-77.5-67t-44-17.5-50.5-21.5-94-19q-50 0-127 45t-127 45q-64 0-139.5-45t-124.5-45-78 11.5-41.5 21.5-45 22.5-84 60-80.5 93.5l-29 45q-14 22-27 40.5t-29 33.5l-17 15q-9 8-17 16 0-14 2-26.5t3-25.5q-49 7-75 35.5t-26 79.5l1 23-34 38q-17 19-34 37z m935 264.5q-21 23.5-60 23.5-44 0-68-26t-24-71q0-51 26-97t61-46q34 0 60 42.5t26 105.5q0 45-21 68.5z m-52-357.5q14 36 44 67-8 9-21 16.5t-38 7.5q-17 0-29-6.5t-21-14.5q14-16 26-33t20-37h19z"/></svg>