<svg viewBox="0 0 2600 2760.837" xmlns="http://www.w3.org/2000/svg"><path d="M1955 1356q0-269-192.5-463t-463.5-194q-175 0-328 88t-240.5 241-87.5 328v594h406l-160 254h-546q-91 0-157-66t-66-157v-1018q233-403 535-620.5t644-217.5q337 0 636.5 212.5t543.5 625.5v1018q0 91-66 157t-157 66h-547l-159-254h405v-594z m-426-425q79 0 134.5 56.5t55.5 134.5v524q0 74-49 127.5t-121 61.5v95q0 17-12 29t-30 12q-17 0-29-12t-12-29v-93h-336v93q0 17-12.5 29t-29.5 12-29-12-12-29v-95q-72-8-121-61.5t-49-127.5v-524q0-79 56.5-135t134.5-56h461z m106 167q0-42-30-72.5t-72-30.5h-469q-43 0-73 30t-30 73v129q0 43 30 73t73 30h469q42 0 72-30.5t30-72.5v-129z m-68 1106h-536l104-254h328z m-486-606q-20-20-49-20t-49 20-20 49 20 49 49 20 49-20 20-49-20-49z m532 0q-20-20-49-20t-49 20-20 49 20 49 49 20 49-20 20-49-20-49z"/></svg>