<svg viewBox="0 0 2600 2760.837" xmlns="http://www.w3.org/2000/svg"><path d="M2354 1066q17 23 17 57 0 22-7 36l-56 106q-11 20-34.5 35t-46.5 15h-45q-95 2-129 42.5t-59.5 106-40.5 81-127 15.5h-1053q-92 0-115-9.5t-40-56.5-47.5-101.5-81-66-113.5-11.5q-25 0-49-15t-35-35l-55-106q-8-15-8-38 0-15 4.5-29.5t12.5-25.5l321-399q14-17 40.5-30t49.5-13h1286q23 0 50 13t41 30z m-1563-240q0-28-16.5-48t-39.5-20q-24 0-53.5 17.5t-43.5 36.5l-160 213q-12 15-12 28 0 26 39 26h218q28 0 48-19.5t20-47.5v-186z m437 8q0-32-22-54t-54-22h-152q-31 0-53.5 22t-22.5 54v169q0 32 22.5 54t53.5 22h152q32 0 54-22t22-54v-169z m438 0q0-32-22-54t-54-22h-152q-32 0-54 22t-22 54v169q0 32 22 54t54 22h152q32 0 54-22t22-54v-169z m419 245q38 0 38-26 0-12-11-28l-160-213q-17-22-45-38t-51-16-39.5 20-16.5 48v186q0 28 19.5 47.5t47.5 19.5h218z m-1563 351h-450v-78h208q32 32 75.5 38.5t90.5 6.5 76 33z m2005-78v78h-451q23-23 53.5-30.5t78.5-7.5q38 0 65.5-10.5t46.5-29.5h207z m0 333h-425l21 531h-241l21-531h-503l21 531h-241l21-531h-504l21 531h-241l21-531h-426v-208h478l16 31 27 65q24 56 89.5 60.5t90.5 4.5h1053q51 0 104.5-6.5t79-67.5 38.5-87h479v208z"/></svg>