<svg viewBox="0 0 2600 2760.837" xmlns="http://www.w3.org/2000/svg"><path d="M2054 1379l2 56v511q0 23-16 39.5t-39 16.5h-91v138q0 40-27 67.5t-67 27.5q-39 0-66.5-28t-27.5-67v-138h-845v138q0 40-28 67.5t-66 27.5q-39 0-66.5-28t-27.5-67v-138h-91q-23 0-39-16.5t-16-39.5v-455l1-56q0-33 2-56l39-727q2-28 19-62t98.5-75 231-72 356.5-31q178 0 323.5 24.5t251.5 69.5 126.5 80 23.5 66z m-1121-831q-26 0-44.5 18.5t-18.5 44.5 18.5 44 44.5 18h715q26 0 44-18t18-44-18-44.5-44-18.5h-715z m-249 899h1232l-19-689h-1195z m179.5 209.5q-31.5-31.5-74.5-31.5-44 0-75 32t-31 74 31 74 75 32q43 0 74.5-31.5t31.5-74.5-31.5-74.5z m1028.5 0.5q-31-32-74-32-44 0-75 32t-31 74 31 74 75 32q43 0 74-32t31-74-31-74z"/></svg>