<svg viewBox="0 0 2600 2760.837" xmlns="http://www.w3.org/2000/svg"><path d="M2425 1858q15 3 24 15t9 26q0 20-15 28.5t-32 8.5l-181-33q-16 53-45 103l173 55q11 4 18.5 15t7.5 23q0 17-12.5 28t-26.5 11q-8 0-12-2l-193-61q-78 96-210 169t-290 105l-58 10q-60 11-143 19.5t-154 8.5-150.5-8.5-136.5-19.5l-56-10q-153-32-283-101.5t-213-167.5l-178 56q-4 2-12 2-14 0-27-11t-13-28q0-12 8.5-23t19.5-15l156-49q-14-26-26.5-52t-21.5-53l-163 29q-16 0-30.5-8.5t-14.5-28.5q0-14 8.5-26t22.5-15l158-27q-5-26-8.5-51.5t-5.5-51.5l-145-22q-14-2-24-12.5t-10-25.5q0-17 11-28.5t28-11.5h6l133 21q0-61 10-123.5t32-124.5q-78-182-122.5-337.5t-44.5-257.5q0-90 31.5-128.5t93.5-38.5q75 0 197 47.5t285 142.5l84 51q95-34 198.5-51.5t209.5-17.5q102 0 202 16.5t194 48.5l68-49q133-99 268-165.5t213-66.5q61 0 91.5 49t30.5 154q0 119-40.5 291.5t-93.5 322.5q20 59 29.5 119t9.5 120l153-23h4q17 0 28 11.5t11 26.5q0 16-8.5 27t-23.5 13l-165 25q-2 25-5 48.5t-7 47.5z m-698.5 106.5q-42.5-43.5-105.5-43.5-67 0-135.5 48.5t-125.5 48.5q-38 0-95.5-21t-100.5-21q-73 0-117 45t-44 103q0 61 45.5 98.5t115.5 37.5q83 0 138.5-36.5t110.5-36.5h14q34 0 74 12.5t73 12.5 84-13.5 81-50.5 30-87q0-53-42.5-96.5z m170.5-300.5q13-13 13-31 0-16-11.5-27t-27.5-11q-13 0-46 22t-80 22q-57 0-95-25.5t-55.5-56-17.5-40.5q-3-14-14-22t-25-8q-17 0-28 11.5t-11 26.5q0 6 1 8 0 14 31.5 66.5t86 85 126.5 32.5q43 0 83-14.5t58-29.5z m-848-168q-11-12-28-12-15 0-25.5 10t-13.5 24q0 10-16.5 44.5t-54.5 63-97 28.5q-40 0-66.5-13.5t-24.5-13.5q-6-5-12-6t-12-1q-16 0-28 10.5t-12 27.5q0 8 4 16.5t12 13.5l12 8q20 14 54.5 25t72.5 11q69 0 127.5-34.5t88.5-88.5 30-85q0-16-11-28z"/></svg>