<svg viewBox="0 0 2600 2760.837" xmlns="http://www.w3.org/2000/svg"><path d="M1608 1830l46 46q-30 17-61 27t-59 10q-18 0-29.5-3.5t-31.5-11.5l-4-3q-35-20-60.5-30t-148-80-233.5-148.5-207-163.5-177.5-174.5-143-176.5-98-154.5-64.5-142.5q89-40 178-132t125-192q142 46 262 115t235.5 163 223 207.5 199.5 241 161 247 73.5 136.5 4.5 38q0 44-23 93-24-21-48.5-41t-47.5-43l-22-21q-25-22-43-30.5t-38-8.5q-34 0-54.5 20.5t-20.5 49.5q0 49 50.5 102.5t55.5 59.5z m-159 141q24 11 39.5 26.5t15.5 34.5q0 16-9 33t-42 96l-51 119-25 54q-12 27-24 55.5t-25 62.5q17 12 29 24.5t12 28.5q0 14-11.5 30t-26.5 29l-17 14q-56-40-99.5-87t-119.5-110-92-112q8-15 13-23t17-8q25 0 56.5 26t36.5 29l3-10q4-19 23-135.5t20-145.5l3-85h-1q2-41 6-69t16-28q3 0 10 4l34 22q8 6 23.5 14t36.5 22l40 28q20 14 40.5 26.5t41.5 21.5l28 13h-1z m992-596l-13 18q-12 17-27.5 29.5t-28.5 12.5q-16 0-29.5-11.5t-25.5-25.5q-25 16-52 27l-41 18q-35 14-66.5 33t-64.5 36l-81 40q-52 26-71.5 37.5t-34.5 11.5q-19 0-35-15t-27-36l-14-26q-21-42-53.5-79t-58.5-77l-36-53q-5-6-5-7 0-8 14-14.5t41-10.5l20-3q104-7 156-18t147.5-32.5 88.5-21.5q-5-6-32.5-37t-27.5-54q0-12 7-17t23-14q49 14 107.5 76.5t98 95 79.5 71.5z m-1857-892q-19 76-89 151.5t-178 133.5q-18-54-28.5-104.5t-10.5-97.5q0-31 11-59l-44-41q-24-24-37-35.5t-20-19.5l-14-15q-7-8-11.5-16t-4.5-16q0-11 7.5-15.5t18.5-4.5q22 0 46 25t56 48 48 44q15-6 31-8.5t34-2.5q40 0 87 9.5t98 23.5z m1326 1459q-8 15-31.5 37.5t-39.5 22.5q-27 0-58-42.5t-49.5-58.5-79-84-80.5-92-20-43q0-11 8-16t22-15q51 15 107.5 76t118.5 114 102 101z m-1065-1077q-28-26-63-26t-62 26-27 63q0 36 27 63t62 27q38 0 64.5-26.5t26.5-63.5-28-63z m476 447q-27-28-63-28-35 0-62 27.5t-27 61.5q0 37 27.5 64t62.5 27q38 0 63.5-26.5t25.5-64.5q0-33-27-61z m-238-224.5q-27-26.5-62-26.5-34 0-61.5 27t-27.5 65q0 36 25.5 61.5t63.5 25.5q39 0 64-26.5t25-62.5q0-37-27-63.5z"/></svg>