<svg viewBox="0 0 2600 2760.837" xmlns="http://www.w3.org/2000/svg"><path d="M599 2013h-75q-91 0-157-66t-66-157v-920q0-92 66-157t157-65h75v1365z m1477-1365q91 0 157 65t66 157v920q0 91-66 157t-157 66h-75v-1365h75z m-395 0h157v1365h-1075v-1365h157v-194q0-42 28-70.5t70-28.5h564q41 0 70 29.5t29 69.5v194z m-197 0v-96h-368v96h368z m-1213 1642q-22 22-53 22t-52.5-22-21.5-53 21.5-52.5 52.5-21.5 53 21.5 22 52.5-22 53z m216.5 0q-21.5 22-52.5 22t-53-22-22-53 22-52.5 53-21.5 52.5 21.5 21.5 52.5-21.5 53z m216.5 0q-22 22-53 22t-52.5-22-21.5-53 21.5-52.5 52.5-21.5 53 21.5 22 52.5-22 53z m216.5 0q-21.5 22-52.5 22-32 0-53.5-22t-21.5-53 21.5-52.5 53.5-21.5q31 0 52.5 21.5t21.5 52.5-21.5 53z m216 0q-21.5 22-53.5 22-31 0-52.5-22t-21.5-53 21.5-52.5 52.5-21.5q32 0 53.5 21.5t21.5 52.5-21.5 53z m216 0q-21.5 22-52.5 22t-53-22-22-53 22-52.5 53-21.5 52.5 21.5 21.5 52.5-21.5 53z m216.5 0q-22 22-53 22t-52.5-22-21.5-53 21.5-52.5 52.5-21.5 53 21.5 22 52.5-22 53z m216.5 0q-21.5 22-52.5 22t-53-22-22-53 22-52.5 53-21.5 52.5 21.5 21.5 52.5-21.5 53z m216 0q-21.5 22-52.5 22t-52.5-22-21.5-53 21.5-52.5 52.5-21.5 52.5 21.5 21.5 52.5-21.5 53z m216.5 0q-22 22-53 22t-52.5-22-21.5-53 21.5-52.5 52.5-21.5 53 21.5 22 52.5-22 53z m216.5 0q-21.5 22-53.5 22-31 0-52.5-22t-21.5-53 21.5-52.5 52.5-21.5q32 0 53.5 21.5t21.5 52.5-21.5 53z"/></svg>