<svg viewBox="0 0 2600 2760.837" xmlns="http://www.w3.org/2000/svg"><path d="M725.5 2141q-87.5 88-209.5 88t-210-88-88-209q0-122 88-209.5t210-87.5 209.5 87.5 87.5 209.5q0 121-87.5 209z m-125.5-293q-35-35-84-35t-84 35-35 84q0 48 35 83.5t84 35.5 84-35.5 35-83.5q0-49-35-84z m670 7h-406q-28-122-125.5-200.5t-222.5-78.5q-63 0-118 20t-101 55v-306q0-81 52.5-132t137.5-51h392v-205h60v-81q0-37-51-37v-86q62 0 99.5 32.5t37.5 89.5v82h54v205h180q2-2 3-5t3-5l100-101-66-66q-11-11-11-26t10.5-26 26.5-11 27 10l179 179q143-73 310-73v-144q0-22 15.5-37.5t37.5-15.5h53q22 0 37.5 15.5t15.5 37.5v165q20 5 39.5 11.5t39.5 14.5v-478h-36l-112-117h-591v-105h875v222h-49v520q52 29 98.5 68t85.5 87l-62 50q-88-105-205.5-160t-247.5-55q-240 0-412.5 172.5t-172.5 412.5q0 78 20 153z m78-607q26-28 55.5-52.5t60.5-45.5l-46-46-70 69v75z m858.5 825.5q-154.5 155.5-371.5 155.5t-371.5-155.5-154.5-371.5q0-214 153.5-369.5t372.5-155.5 372.5 155.5 153.5 369.5q0 216-154.5 371.5z m-194-549.5q-75.5-74-177.5-74-103 0-177.5 74.5t-74.5 177.5q0 104 74.5 178.5t177.5 74.5q102 0 177.5-74t75.5-179q0-104-75.5-178z"/></svg>