<svg viewBox="0 0 2600 2760.837" xmlns="http://www.w3.org/2000/svg"><path d="M1879 1844q-39 50-97 50-44 0-80-29.5t-36-72.5q0-46 4.5-83.5t4.5-75.5q0-60-26.5-139.5t-49.5-79.5q-14 0-20 5.5t-6 26.5 6 53l13 69q7 38 13 78.5t6 77.5q0 63-16 107t-27.5 62-19 87.5-7.5 142.5q0 86 10.5 137t26.5 62 41.5 38 25.5 65q0 50-34 73t-93 23q-103 0-149.5-42t-46.5-128q0-27 3-60l10-139q2-35 2-66 0-52-7.5-84.5t-29.5-32.5-29.5 31.5-7.5 82.5q0 31 3 66l11 141q2 34 2 61 0 85-45.5 127.5t-151.5 42.5q-59 0-93-23t-34-73q0-38 26.5-66t41.5-39 26-60 11-140q0-182-35-243.5t-35-152.5q0-37 6-77.5t13-78.5l12-69q6-32 6-53t-6-26.5-20-5.5q-23 0-49.5 79.5t-26.5 139.5q0 38 4.5 75.5t4.5 83.5q0 42-35.5 72t-80.5 30q-58 0-97-49.5t-39-139.5q0-156 103-377.5t255-299.5l45-22q16-8 16-25 0-16-52-59t-81.5-106.5-29.5-147.5q0-157 104.5-256t257.5-99q149 0 255.5 98.5t106.5 249.5q0 87-29.5 151.5t-81.5 109-52 59.5q0 17 17 25l45 22q152 78 254.5 299.5t102.5 375.5q0 91-39 141z m-669.5-1153q16.5-19 16.5-45 0-27-16.5-46t-39.5-19-39 19-16 46q0 26 16 45t39 19 39.5-19z m203.5 73.5q-10-9.5-23-9.5-4 0-8 2l-9 4q-31 19-73 19-19 0-37.5-4.5t-35.5-14.5l-8-4q-5-2-9-2-13 0-22.5 9.5t-9.5 23.5q0 25 39.5 41.5t82.5 16.5q42 0 82.5-16t40.5-42q0-14-10-23.5z m56.5-164.5q-16.5-19-39.5-19t-39 19-16 46q0 26 16 45t39 19 39.5-19 16.5-45q0-27-16.5-46z"/></svg>