<svg viewBox="0 0 2600 2760.837" xmlns="http://www.w3.org/2000/svg"><path d="M2347.5 2009q-162.5 280-442.5 442.5t-606 162.5-606-162.5-442.5-442.5-162.5-606 162.5-606 442.5-442.5 606-162.5 606 162.5 442.5 442.5 162.5 606-162.5 606z m-335.5 27l-1567-1056q-35 71-58.5 147t-33.5 157q-37 54-57.5 117t-20.5 132q0 116 58 216.5t158 158.5q128 205 343 326.5t465 121.5q204 0 390-83.5t323-236.5z m-1429-1262l1602 1066q58-60 92-138t34-169q0-63-17-119t-47-106q-24-239-159.5-439t-344.5-309.5-444-109.5q-203 0-390 84t-326 240z m799 99q65-11 133-20l70-9q32-4 52-4 29 0 51.5 25t22.5 56q0 40-34 66.5t-73 26.5h-17q-9 0-18-1v19l115 155q43-24 91-37t101-13q163 0 279.5 116.5t116.5 279.5q0 69-22.5 131t-62.5 113l-87-59q31-38 48.5-85t17.5-100q0-120-86-205t-204-85q-35 0-67.5 8t-61.5 22l164 220q9 12 9 28 0 19-13 32.5t-32 14.5l-142-95h45l-108-145q-15 15-27.5 32.5t-23.5 36.5l-87-59q31-54 75-95l-76-103-70 151-81-54 66-141h-277l-143-96h393q-44-7-73-21.5t-29-40.5q0-54 65-65z m-278 617l2 21v22q0 163-116.5 279.5t-279.5 116.5-279.5-116.5-116.5-279.5q0-132 80.5-238t205.5-142l136 91q-6 0-19-1-128 0-212.5 86.5t-84.5 203.5q0 118 85 204.5t205 86.5q119 0 205-86t86-205q0-36-8.5-70t-24.5-64z m-170-551l5-27q12-79 35-111t55-44q10-19 44-25.5t108-6.5l56 1q23 0 40.5 19.5t17.5 42.5q0 36-27.5 55t-86.5 19h-40q-14 0-27.5 1.5t-24.5 1.5q-21 0-35-11-5 8-10.5 25.5t-10.5 47.5l-13 69z m-241 548q42-42 74-88t57-96l80 54q-47 91-101 152.5t-65 67.5-26 6q-18 0-34-14t-16-36q0-26 24-40z m725 214q-4 16-23 25t-61 9l-29-1h-39q-33 0-43-11.5t-10-32.5q0-25 23.5-41.5t50.5-16.5h14l2-8z"/></svg>