<svg viewBox="0 0 2600 2760.837" xmlns="http://www.w3.org/2000/svg"><path d="M1364 932q109 0 187.5 78.5t78.5 187.5v733q0 100-68 176t-169 88v113q0 24-17 40.5t-40 16.5q-25 0-42-16.5t-17-40.5v-111h-469v111q0 24-17 40.5t-40 16.5q-25 0-41.5-16.5t-16.5-40.5v-113q-102-12-170-88t-68-176v-733q0-109 78-187.5t187-78.5h644z m-767 430q0 55 40 95.5t96 40.5h618q57 0 97-40t40-96v-171q0-55-40-95.5t-97-40.5h-618q-57 0-96.5 40.5t-39.5 95.5v171z m160 489.5q-27-27.5-65-27.5t-64.5 27-26.5 65q0 36 26.5 63t64.5 27 65-27.5 27-62.5q0-37-27-64.5z m701.5-1q-26.5-26.5-65.5-26.5-38 0-64 27t-26 65q0 36 25.5 63t64.5 27 65.5-26.5 26.5-63.5q0-39-26.5-65.5z m686.5 514.5h-445v-415q0-34 24-58t58-24h196v-929l-689-444q-19-11-28.5-30t-9.5-40q0-35 25-58.5t58-23.5q25 0 45 12l727 469q18 11 28 29.5t11 38.5v1473z"/></svg>