<svg viewBox="0 0 2600 2760.837" xmlns="http://www.w3.org/2000/svg"><path d="M2277.5 1824q-49.5 148-93 205t-159.5 117.5-306.5 101-418.5 40.5q-163 0-304.5-20t-251.5-52.5-183.5-71.5-112.5-75.5-52-64-42.5-93.5-55.5-176.5-26-241.5q0-263 120.5-474.5t372.5-345 535-133.5q287 0 540 135.5t370 347 117 470.5q0 183-49.5 331z m-1461.5-565l-114-10-38-5q15 62 54.5 127t97.5 116v-228z m232 11q-48 0-90-3l-79-4v272q35 23 76.5 42t92.5 34v-341z m16-159q5 8 14 13t18 5q15 0 25-12.5t10-25.5q0-27-53.5-70t-129.5-43q-58 0-103 25.5t-65 53.5l-12 16q-5 6-5 19 0 14 10 25.5t26 11.5q22 0 35-21.5t43-39 71-17.5q36 0 66 16t42 33z m217 163h-86.5t-82.5-2v354q75 16 169 18v-370z m233-2q-40 0-83 1t-87 1v370q46 0 89-4.5t81-11.5v-356z m231-9l-78 4q-42 2-90 3v341q51-14 92-33t76-41v-274z m24-152q5 8 13.5 13t17.5 5q16 0 26.5-11.5t10.5-25.5q0-10-5-19l-12-16q-20-28-65-53.5t-103-25.5q-57 0-102 25t-65 53l-12 17-4 8q-2 5-2 10 0 13 10 25.5t27 12.5q9 0 18-5t14-13q0-7 33-33.5t83-26.5q38 0 67.5 16.5t41.5 32.5z m41 378q59-50 99-116t54-129l-37 5-116 10v230z"/></svg>