<svg viewBox="0 0 2600 2760.837" xmlns="http://www.w3.org/2000/svg"><path d="M2345.5 2000q-165.5 282-445.5 441.5t-600 159.5-600-159.5-445.5-441.5-165.5-611q0-326 162.5-606t442.5-442.5 606-162.5 606 162.5 442.5 442.5 162.5 606q0 329-165.5 611z m-1199.5-1551q-128 21-242 73.5t-210 131.5l1378 1294q86-118 133.5-259.5t47.5-299.5q0-249-122.5-465.5t-329.5-344.5q-29-119-130-193t-229-74q-88 0-166.5 36t-129.5 101z m647 1756q29-18 56.5-37.5t53.5-40.5l-1377-1294q-85 118-132 259t-47 297q0 344 220.5 608.5t550.5 326.5q20 21 51.5 34.5t79.5 13.5q40 0 78-8.5t66-26.5l41-5q20-2 41-6 27 22 67.5 34t91.5 12q78 0 121-35.5t43-97.5q0-17-5-34z m-580.5-1755q91.5-89 229.5-89 134 0 227.5 87.5t93.5 219.5q0 78-26 136t-72 97.5-46 54.5l2 12q2 8 74.5 57.5t138.5 144.5 111.5 215.5 45.5 213.5q0 51-15 87t-38 55l-162-151 8-46q3-23 3-47 0-47-22.5-103.5t-47.5-56.5q-13 0-23 5.5t-10 26.5q0 26 8.5 68t16.5 89l-512-481q22-13 44-38.5t22-47.5q0-25-42.5-58.5t-71-92.5-28.5-131q0-138 91.5-227z m506 1852.5q-30.5 20.5-83.5 20.5-94 0-134.5-38t-40.5-113q0-24 3-54l10-123q2-31 2-59 0-46-7-74.5t-26-28.5q-20 0-26.5 29t-6.5 74q0 50 7 123.5t7 114.5q0 76-41.5 112.5t-132.5 36.5q-53 0-83.5-20.5t-30.5-63.5q0-31 19-53.5t38.5-37 27.5-65.5 8-115q0-164-31-217t-31-136q0-23 2.5-45.5t7.5-45.5l480 452q0 61 8.5 110t28 63 38 37 18.5 53q0 43-30.5 63.5z m-745.5-968.5q-31 7-62 11t-62 4q-95 0-168.5-45.5t-73.5-121.5q0-41 20-74t58-44z m-81 704l-62 32-60-20-34-55 24-70 72-27 66 45z m-142-206l-62 31-58-20-33-54 23-68 70-27 66 44z m84-368l24 64-26 56-58 26-65-32-18-73 52-59z"/></svg>