<svg viewBox="0 0 2600 2760.837" xmlns="http://www.w3.org/2000/svg"><path d="M2263.5 1908.5q51.5 67.5 51.5 111.5 0 164-293 286t-719 122-721.5-118-295.5-279q0-6 1.5-14.5t1.5-30.5q0-24-2-58.5t-2-71.5q0-644 338.5-1037t786.5-393q223 0 444 100.5t331 291.5 110 442q0 179-41.5 316t-41.5 189q0 76 51.5 143.5z m-270.5-1015q-50-50.5-119-50.5-38 0-74.5 19t-59.5 51l-3-1q27-42 27-88 0-64-48-114t-119-50q-83 0-133 68.5t-50 172.5q0 82 30 183.5t63 168.5l24 2q13 0 38 1 214 0 344-69t130-178q0-65-50-115.5z m-1183 79.5q53 79 126 142 24-6 101.5-46t129-95 51.5-113q0-46-33-81t-82-35q-39 0-70.5 25.5t-42.5 63.5h-2q0-5 1-13 0-50-33.5-84.5t-81.5-34.5q-52 0-84.5 35t-32.5 89q0 68 53 147z m611 384q-35-33-141-33l-20 1q-65 0-133-34.5t-111-34.5q-37 0-59.5 26t-22.5 64q0 76 96 136t206 60q91 0 155.5-31t64.5-89q0-32-35-65z"/></svg>