<svg viewBox="0 0 2600 2760.837" xmlns="http://www.w3.org/2000/svg"><path d="M2527 760v158h-563v86h236v123h2q27 0 46 19t19 46v683q0 26-17 53.5t-41 38.5l-122 58q-23 12-62 20t-62 8h-1328q-27 0-63-8t-61-20l-121-58q-25-12-42-38.5t-17-53.5v-683q0-27 19.5-46t45.5-19h3v-123h235v-86h-562v-158h515q-21-23-21-53 0-29 19.5-51t48.5-27v-22h183v22q29 5 48.5 27t19.5 51q0 30-21 53h296q-9-11-15-24t-6-29q0-29 19.5-51t48.5-27v-22h184v22q29 5 48 27t19 51q0 30-20 53h295q-9-11-14.5-24t-5.5-29q0-29 19-51t48-27v-22h184v22q29 5 48.5 27t19.5 51q0 30-21 53h516z m-1723 542q0-19-13-32t-32-13h-233q-19 0-32 13t-13 32v338q0 20 13 32.5t32 12.5h233q19 0 32-12.5t13-32.5v-338z m13-298h390v-86h-390v86z m425 298q0-19-13.5-32t-31.5-13h-233q-19 0-32 13t-13 32v338q0 20 13 32.5t32 12.5h233q18 0 31.5-12.5t13.5-32.5v-338z m437 0q0-19-13-32t-32-13h-232q-19 0-32 13t-13 32v338q0 20 13 32.5t32 12.5h232q19 0 32-12.5t13-32.5v-338z m160-45q-18 0-31.5 13t-13.5 32v338q0 20 13.5 32.5t31.5 12.5h233q19 0 32-12.5t13-32.5v-338q0-19-13-32t-32-13h-233z m-59-339h-389v86h389v-86z"/></svg>