<svg viewBox="0 0 2600 2760.837" xmlns="http://www.w3.org/2000/svg"><path d="M1406.5 1757q-25.5 17-42.5 30l-56 40q-92 66-222 116.5t-220 50.5q-79 0-158-45t-79-135q0-78 43-120.5t119-42.5q20 0 44.5 10t45.5 10q57 0 158-52t181-122.5 117.5-110 37.5-75.5q0-39-56-90t-88.5-122.5-32.5-179.5q-62 0-98-13t-36-39q0-24 35-53.5t35-46.5q0-44-45-89.5t-45-87.5q0-83 118.5-148.5t281.5-65.5q113 0 259 35.5t211 65.5 79 114l6 35q2 21 6 34.5t4 26.5q0 19-8 35 21 43 28.5 85.5t7.5 87.5q0 88-26 150.5t-26 100.5q0 39 29 77.5t73 66.5q-100 62-195 156.5t-168 180-135.5 149.5-112.5 147q0-46-5-85.5t-8.5-68.5-19.5-29q-11 0-36.5 17z m646.5 517q51-6 91.5-12.5t78.5-15.5l17 44q8 23 8 46 0 75-182.5 95.5t-289.5 20.5q-117 0-173.5-14t-109-20.5-52.5-47.5q0-12 2-21l5-21q2-11 4-27.5t2-42.5q17 4 34 4t26 1l46 6q23 4 46 4 70 2 140 7t139 5q60 0 119-6z m201-882q148 109 230 264.5t82 318.5q0 141-51 236t-148 95q-53 0-94-23t-58.5-52-17.5-87q0-63 42-114l18-22q8-10 8-29 0-30-6-56l-14-54q0-4-18-49t-42-74q0 4 1 11v24q0 61 5 118.5t5 117.5q0 42 3 87-10 2-17 2l-113 9q-21 2-127.5 9t-132.5 7q-69 0-136.5-5.5t-136.5-10.5l94-118q118-149 307.5-342t246.5-223 70-40z m-907 692q28 0 35 27t7 101q0 135-60 183.5t-222 58.5-320 10q-219 0-359-16.5t-182.5-91-42.5-219.5v-8.5t3-9.5q-93-34-134.5-84.5t-41.5-120.5q0-101 84.5-386t149-423 176.5-138q33 0 64 8t63 18l25 7q24 6 42.5 18.5t18.5 30.5v6l-2 7q-12 37-22 73l-22 74q-73 245-132 445.5t-133 429.5h1005z"/></svg>