<svg viewBox="0 0 2600 2760.837" xmlns="http://www.w3.org/2000/svg"><path d="M2304 1553l-8 68q-463 160-789.5 230.5t-588.5 70.5q-175 0-293-31t-179-79.5-107.5-138-46.5-199.5q0-112 51.5-215.5t134.5-165.5 232-102q70-124 167-174.5t237-50.5h27q68-84 101-84 23 0 41 8t18 17q0 8-13.5 16t-13.5 25q0 14 3 29 180 24 333.5 90.5t285.5 164.5l160 118q126 96 189 151.5t63 183.5q0 34-4 68z m-260 177l248-89q-16 94-75 125t-163 70l-282 105q-263 98-466 148t-395 50q-181 0-287.5-18t-185.5-49l-31-13q-33-14-66.5-36.5t-33.5-42.5q0-13 22-63.5t44-90.5q58 68 194 109t334 41q227 0 522-65t621-181z m-1591.5-83q71.5 70 187.5 70 118 0 189.5-70t71.5-180q0-106-79-185t-195-79q-112 0-179 76.5t-67 193.5q0 104 71.5 174z m427.5-766.5q-69 29.5-99 93.5 72-12 144-12 151 0 277 24.5t205 67.5q3-13 4-24t1-22q0-82-97.5-119.5t-258.5-37.5q-107 0-176 29.5z m623.5 117q-8.5 21.5-8.5 68.5 0 82 18.5 124t59.5 42q38 0 38-89 0-99-24.5-133t-54.5-34q-20 0-28.5 21.5z m-298.5 462.5q-24-24-58-24-35 0-59.5 23t-24.5 59 25 59 60 23q34 0 57.5-24.5t23.5-57.5q0-34-24-58z m548.5-222q6.5-18 6.5-58 0-130-61-130-15 0-21.5 16.5t-6.5 54.5q0 80 18 107.5t41 27.5q17 0 23.5-18z m130.5-17q0-57-10.5-86t-36.5-29q-22 0-22 61 0 65 13.5 87t33.5 22q22 0 22-55z m100 20q0-43-8.5-66t-28.5-23q-17 0-17 48 0 56 11 72.5t23 16.5q20 0 20-48z m68 73l6 1q13 0 13-35 0-32-7-51t-23-19q-12 0-12 35 0 34 4.5 50t18.5 19z m78 20q2 2 4 2 14 0 14-30 0-25-6-39.5t-20-14.5q-12 0-12 29 0 50 20 53z"/></svg>