<svg viewBox="0 0 2600 2760.837" xmlns="http://www.w3.org/2000/svg"><path d="M2180 2076.5q-137 94.5-373.5 148t-506.5 53.5q-265 0-500-52t-375.5-147-140.5-204q0-613 259.5-981.5t756.5-368.5q317 0 544 154.5t350 469 123 726.5q0 107-137 201.5z m-1217-741q32-39.5 32-88.5 0-41-27-67.5t-62-26.5q-44 0-80 37t-36 88q0 45 29 71t66 26q46 0 78-39.5z m429.5 329q-39.5-42.5-92.5-42.5-54 0-92.5 43t-38.5 102q0 55 37 90t94 35q56 0 94-34.5t38-90.5q0-60-39.5-102.5z m287.5-581q-37-35.5-79-35.5-35 0-61.5 26.5t-26.5 65.5q0 55 32 92.5t76 37.5q39 0 67.5-26.5t28.5-71.5q0-53-37-88.5z"/></svg>