<svg viewBox="0 0 2600 2760.837" xmlns="http://www.w3.org/2000/svg"><path d="M2119.5 1907q-128.5 221-348.5 347t-472 126q-253 0-474-127t-347.5-348-126.5-474q0-252 127-473t348-348 473-127q251 0 471.5 126t349 346.5 128.5 475.5-128.5 476z m-295.5-787q0-99-70-168t-167-69h-575q-99 0-168.5 70t-69.5 167v653q0 93 62.5 161t149.5 76v102q0 21 15.5 35.5t37.5 14.5q21 0 35.5-14.5t14.5-35.5v-100h419v100q0 21 15.5 35.5t36.5 14.5q22 0 36.5-14.5t14.5-35.5v-102q87-8 150-76t63-161v-653z m-232-159q52 0 89.5 37.5t37.5 91.5v161q0 54-37.5 91.5t-89.5 37.5h-585q-54 0-90.5-38t-36.5-91v-161q0-53 36.5-91t90.5-38h585z m-563.5 873.5q-25.5 26.5-61.5 26.5-35 0-60.5-25.5t-25.5-60.5q0-36 26.5-61.5t59.5-25.5q36 0 61.5 25.5t25.5 61.5q0 33-25.5 59.5z m663 0q-25.5 26.5-61.5 26.5-34 0-60-25.5t-26-60.5q0-36 25-61.5t61-25.5 61.5 25.5 25.5 61.5q0 33-25.5 59.5z"/></svg>