<svg viewBox="0 0 2600 2760.837" xmlns="http://www.w3.org/2000/svg"><path d="M911 606l-77-77 77-78h52l51 52 52-52 52 52 51-52h195q24-77 92-127t150-50q103 0 179 76t76 179q0 102-76 178t-179 76q-82 0-150-50t-92-127h-453z m747.5-26.5q21.5 21.5 50.5 21.5 30 0 51.5-21.5t21.5-50.5q0-30-21.5-51.5t-51.5-21.5-51 21-21 52q0 29 21.5 50.5z m328.5 263.5q83 0 143 60t60 143v1055q0 83-59.5 144t-143.5 61h-1373q-85 0-144.5-60.5t-59.5-144.5v-1055q0-84 60-143.5t144-59.5h1373z m126 203q0-52-37-89t-89-37h-1373q-52 0-89.5 37t-37.5 89v1055q0 53 37 90t90 37h1373q52 0 89-37.5t37-89.5v-1055z m-564 166h102v893h-703v-893h103v-126q0-27 19-46t45-19h370q26 0 45 19t19 46v126z m-129-62h-240v62h240v-62z m-773 208q0-61 43.5-103.5t102.5-42.5h49v893h-49q-60 0-103-43t-43-103v-601z m1160-146q60 0 103 43t43 103v601q0 59-42.5 102.5t-103.5 43.5h-48v-893h48z"/></svg>