<svg viewBox="0 0 2600 2760.837" xmlns="http://www.w3.org/2000/svg"><path d="M2150.5 2192.5q-348.5 116.5-850.5 116.5t-850.5-116.5-348.5-274.5q0-100 44.5-228t194.5-339 217-344.5 157-235.5 199-163q76-43 172-69.5t215-26.5q131 0 237.5 33t191.5 88 165.5 147.5 147 222.5 175.5 287 155.5 229.5 86.5 187 40 211.5q0 158-348.5 274.5z m-1058-921.5q45.5-24 45.5-48 0-14-10-24t-24-10q-12 0-22 7l-9 5q-14 9-36.5 16.5t-47.5 7.5q-49 0-79.5-23.5t-43.5-23.5q-14 0-24.5 10t-10.5 25q0 26 52.5 54t105.5 28q58 0 103.5-24z m369 162.5q-74.5-23.5-160.5-23.5-92 0-154 18.5t-62 51.5q0 11 10.5 21t33.5 10q17 0 67.5-15t111.5-15q66 0 121.5 18.5t71.5 18.5q18 0 26.5-10t8.5-20q0-31-74.5-54.5z m297-244.5q-10.5-11-24.5-11-13 0-46 23.5t-78 23.5q-41 0-72-18t-42-18q-13 0-23.5 10t-10.5 24q0 25 45 48.5t104 23.5q53 0 105.5-28t52.5-53q0-14-10.5-25z"/></svg>