<svg viewBox="0 0 2600 2760.837" xmlns="http://www.w3.org/2000/svg"><path d="M2230 1581q0 32-21.5 67t-56.5 70q0 5 1 10.5t1 11.5q0 111-25.5 164.5t-72.5 53.5q-28 0-51-22.5t-35-76.5q-75 51-134.5 89.5t-112.5 58.5q-2 101-33 153t-90 52q-52 0-83.5-41.5t-38.5-123.5h-678q-7 83-38.5 124t-83.5 41q-54 0-85.5-44.5t-36.5-133.5q-81-24-133.5-94.5t-52.5-157.5v-935q0-98 69.5-160t179.5-62h1408q110 0 156.5 55t46.5 165v736z m-1678-300q0 35 26 62t63 27h743q37 0 63-27t26-62v-400q0-38-26-63.5t-63-25.5h-743q-37 0-63 25.5t-26 63.5v400z m1332-421q0-28-14.5-48t-36.5-20h-108q-30 0-53 25.5t-23 63.5v400q0 26 12 40.5t32 14.5q16 0 32-10l108-60q22-13 36.5-41.5t14.5-56.5v-308z m133 244q0 20 6 31.5t15 11.5q2 0 5-1l5-2 49-28q10-6 17-23.5t7-37.5v-214q0-20-7-34.5t-17-14.5h-49q-12 0-21.5 17t-9.5 40v255z m-527 640q-29-29-71-29t-71 29-29 71q0 41 28.5 70.5t71.5 29.5 71.5-29.5 28.5-70.5q0-42-29-71z m-817.5 141.5q28.5-29.5 28.5-70.5t-29.5-70.5-70.5-29.5q-42 0-71 29t-29 71 29 71 71 29q43 0 71.5-29.5z"/></svg>