<svg viewBox="0 0 2600 2760.837" xmlns="http://www.w3.org/2000/svg"><path d="M2018 2160.5q-294 118.5-718 118.5t-718-118.5-294-278.5q0-398 120.5-708.5t346-465.5 545.5-155 545.5 155 346 465.5 120.5 708.5q0 160-294 278.5z m-1279-1148.5l-1 7q0 14 9.5 25.5t26.5 11.5q24 0 35.5-23t34.5-38.5 49-15.5q36 0 60.5 25t24.5 33q12 20 33 20 15 0 26-11.5t11-25.5q0-27-45.5-71t-109.5-44-108 42.5-46 64.5z m801.5 278q-32.5-27-87.5-27-32 0-95 10.5t-137 10.5q-158 0-251.5-51t-135.5-51q-51 0-81 33.5t-30 92.5q0 141 136.5 238t303.5 97 288.5-92.5 121.5-185.5q0-48-32.5-75z m101.5-147l-2-15q-8-57-53-105t-121-48q-37 0-73 16t-54 32l-12 11q-9 11-9 24 0 16 10.5 27.5t26.5 11.5q14 0 41.5-25t69.5-25q44 0 70.5 30t32 66 42.5 36q14 0 22.5-11t8.5-25z"/></svg>