<svg viewBox="0 0 2600 2760.837" xmlns="http://www.w3.org/2000/svg"><path d="M2018 2160.5q-294 118.5-718 118.5t-718-118.5-294-278.5q0-398 119.5-707.5t345.5-465.5 547-156 547 156 345.5 465.5 119.5 707.5q0 160-294 278.5z m-1277-1156.5q-2 4-2 7t-1 8q0 14 10 25.5t26 11.5q22 0 35-23.5t35.5-39 48.5-15.5q36 0 60.5 25.5t24.5 31.5q10 21 33 21 17 0 27-11t10-26v-7q0-4-3-8l-13-21q-21-31-57.5-55t-81.5-24q-48 0-86 26.5t-55 55.5z m799 284.5q-33-27.5-87-27.5-27 0-94 11t-141 11q-155 0-248-51.5t-136-51.5q-51 0-81 33.5t-30 92.5q0 144 138.5 240.5t302.5 96.5q167 0 288-92.5t121-186.5q0-48-33-75.5z m102-145.5l-2-15q-9-59-54-107t-122-48q-36 0-69.5 15t-55.5 35l-12 11q-9 11-9 24 0 16 11.5 26.5t25.5 10.5q15 0 26-11l8-7q13-11 34-20.5t44-9.5q49 0 76 35.5t27 63.5q2 17 13 25t28 8q14 0 22.5-11t8.5-25z m374 208q-28-41-68-68l-15-10q-10-6-18-6-7 0-10.5 8.5t-3.5 18.5v10q0 17 1.5 33t1.5 32l-1 44q0 48 18.5 80.5t56.5 32.5q32 0 49-31.5t17-63.5q0-39-28-80z"/></svg>