<svg viewBox="0 0 2600 2760.837" xmlns="http://www.w3.org/2000/svg"><path d="M2296.5 1814.5q-72.5 80.5-179.5 80.5h-14q0-93-68-161.5t-164-68.5q-95 0-163 67.5t-68 162.5h-709q0-95-68-162.5t-163-67.5q-96 0-164 68.5t-68 161.5q-76 0-156.5-68.5t-80.5-195.5q0-86 33.5-159t151.5-123 176.5-74.5 120.5-149.5l35-69q69-134 173-197.5t245-63.5h381q142 0 256.5 62.5t206.5 207.5l35 55q43 68 96 121t117 115.5 87.5 130 23.5 133.5q0 114-72.5 194.5z m-1077.5-817.5q0-48-12.5-66t-39.5-18q-69 0-148 37.5t-136 122-57 140.5q0 23 12 37t39 14h274q29 0 48.5-15t19.5-51v-201z m608 267q38 0 55-18t17-47q0-66-73-155t-170.5-110.5-206.5-21.5q-56 0-78.5 8.5t-30.5 22-8 54.5v201q0 37 29.5 51.5t71.5 14.5h394z m-1006.5 753q-50.5 51-120.5 51-72 0-122.5-50.5t-50.5-122.5q0-70 51-120.5t122-50.5q70 0 120.5 50.5t50.5 120.5q0 71-50.5 122z m1173 0.5q-50.5 50.5-122.5 50.5t-122-51-50-122q0-69 50-120t122-51q71 0 122 50.5t51 120.5q0 72-50.5 122.5z"/></svg>