<svg viewBox="0 0 2600 2760.837" xmlns="http://www.w3.org/2000/svg"><path d="M2415.5 1722.5q-40.5 107.5-90 169.5t-72 80-52.5 61-144 105-316.5 105-440.5 43q-239 0-444-44t-316.5-106.5-138-101.5-58.5-67.5-78-88.5-83-162-37-239q0-63 8-111t26-103 43.5-104.5 62-100 86-101 76.5-85.5 80.5-85 109-88.5 121-72.5 135-60 144.5-44q129-30 263-30 262 0 502 112.5t377 298.5q165 165 221 297t56 277q0 138-40.5 245.5z m-1627.5-526.5l-67-10q-26-4-43-8l-51-11q7 86 48 163t113 134v-268z m60.5-167.5q26.5 27.5 68.5 27.5 45 0 77-38.5t32-89.5q0-41-27-67.5t-62-26.5q-44 0-79.5 35.5t-35.5 88.5q0 43 26.5 70.5z m185.5 188.5q-48-3-94.5-6.5t-87.5-7.5v304q37 21 82 39t100 31v-360z m246 7q-47 0-92.5-1t-89.5-3v371q41 7 86 11t96 5v-383z m247-4q-44 2-89.5 3t-93.5 1v383q51 0 96-4.5t87-11.5v-371z m245-17q-42 4-87.5 7.5t-93.5 6.5v361q54-13 99-30.5t82-38.5v-306z m-8-332.5q-36-36.5-78-36.5-36 0-63 27t-27 67q0 49 32 88.5t78 39.5q38 0 66-27t28-70q0-52-36-88.5z m72 596.5q81-63 123.5-147.5t42.5-152.5q-16 3-58 12t-108 17v271z"/></svg>