<svg viewBox="0 0 2600 2760.837" xmlns="http://www.w3.org/2000/svg"><path d="M2309 1916q-71 81-180 81h-15q0-94-68-162.5t-164-68.5q-95 0-163 68t-68 163h-708q0-94-68-162.5t-164-68.5q-95 0-163 68t-68 162q-58-7-128-51t-101.5-88.5-31.5-133.5q0-82 32-176t120-144 184-74q141-241 215.5-317t173.5-121 247-52q0-8 5-13.5t12-5.5h14v-134q0-11 7-18t18-7h76q11 0 18 7t7 18v134h14q7 0 12.5 4.5t5.5 12.5q188 6 295 40t167 81.5 109.5 106 135.5 264.5q164 40 228.5 137t64.5 242q0 127-71 208z m-1168-551q28 0 50-14t22-51v-202q0-50-15-66.5t-42-16.5q-72 0-149 37.5t-133 122.5-56 140q0 23 12 36.5t39 13.5h272z m-78 236h69l4-4v-36l-4-4h-189l-4 4v36l4 4h68v159l4 4h43l5-4v-159z m251 158l-74-198-4-2h-45l-5 2-75 198 1 4 3 1h50l4-3 11-34h67l9 34 4 3h50l4-1v-4z m225 4l-2-6-66-94 66-97v-5l-4-2h-55l-39 54-36-52-4-2h-55l-4 2v5l64 97-64 94v6l4 1h58l2-1 35-51 32 51 7 1h56z m82-200l-6-4h-48l-4 4v198l4 3h48l6-3v-198z m171-198q37 0 54-17.5t17-46.5q0-78-97.5-183t-321.5-105q-67 0-90.5 16.5t-23.5 68.5v202q0 37 30 51t72 14h360z m-579 264l19 57h-39z m-379.5 490.5q-50.5 50.5-122.5 50.5t-122.5-50.5-50.5-122.5 50.5-122.5 122.5-50.5 122.5 50.5 50.5 122.5-50.5 122.5z m1171 0q-50.5 50.5-122.5 50.5-71 0-121.5-51t-50.5-122 50.5-122 121.5-51q72 0 122.5 50.5t50.5 122.5-50.5 122.5z"/></svg>