<svg viewBox="0 0 2600 2760.837" xmlns="http://www.w3.org/2000/svg"><path d="M2268.5 1899.5q51.5 68.5 51.5 114.5 0 168-299.5 291.5t-717.5 123.5q-136 0-269.5-14.5t-259.5-45.5-234-80.5-170.5-109-76-118.5-13.5-220q0-444 157.5-763t416-502 557.5-183q217 0 441 101t336 296 112 454q0 111-19.5 219.5t-41.5 177-22 115.5q0 75 51.5 143.5z m-1461.5-948.5l7-6q9-9 27.5-17t37.5-8q37 0 60.5 24t29 59 35.5 35q15 0 26-10t11-27q0-46-44.5-100.5t-117.5-54.5q-34 0-65.5 14.5t-48.5 29.5l-10 10q-11 11-11 26 0 14 12 25t25 11q15 0 26-11z m250 233q-13-8-25-8-22 0-46.5-4t-47.5-4q-39 0-66 24.5t-27 62.5l1 11v14q0 19-11 25t-25 25-14 46q0 29 24 67.5t24 61.5q0 20 19.5 31t43.5 11q14 0 19-4t5-13q0-33-40-78t-40-71q0-14 9.5-27.5t27.5-13.5q11 0 22 4.5t25 4.5q10 0 13.5-4.5t3.5-10.5q0-12-28.5-27.5t-28.5-40.5q0-23 11.5-43t32.5-20q13 0 28 3.5t30 7.5l26 8q12 4 18 4 13 0 21-4.5t8-13.5q0-16-13-24z m631 62q0-85-53.5-141t-130.5-56q-42 0-90 20t-48 50q0 17 11.5 28t26.5 11q10 0 39-16t60-16q53 0 81 38t28 87q0 19 11 29.5t28 10.5q15 0 25.5-10t11.5-25v-10z"/></svg>