<svg viewBox="0 0 2600 2760.837" xmlns="http://www.w3.org/2000/svg"><path d="M2419.5 1230.5q-65.5 129.5-180.5 257.5l-24 27q-11 8-22 8l-38-9q-15-3-40-10 14 85 22 173.5t8 183.5l-2 100q-2 53-0.5 53t1.5 17q0 161-296.5 279t-720.5 118q-381 0-665.5-101t-332.5-247l-9-28q-5-13-5-30 0-46 51.5-113.5t51.5-141.5q0-51-21.5-114.5t-41.5-171.5-20-220q0-251 110.5-443.5t332-292 441.5-99.5q233 0 442 110.5t371 313.5q7 0 13-1h14q45 0 88 16.5t75 47.5q19-80 82-129t144-49q94 0 165.5 68.5t71.5 187.5q0 110-65.5 239.5z m-235.5 228.5q98-106 168.5-234.5t70.5-231.5q0-86-48.5-141t-129.5-55q-70 0-120 51.5t-50 118.5q0 13 1.5 21t3.5 13l4 10q0 5 1 12 0 14-9 21.5t-20 7.5q-28 0-36-34.5t-53.5-72-106.5-37.5q-68 0-121 50.5t-53 120.5q0 64 60.5 142t188.5 143 249 95z m-726-648.5q-38-41.5-85-41.5-43 0-67.5 29.5t-24.5 68.5q0 54 40 94.5t86 40.5q42 0 65.5-27.5t23.5-69.5q0-53-38-94.5z m-518 220.5q11-2 19-11t9-22q0-19-13-32t-117.5-40.5-138.5-27.5q-15 0-26 11t-11 26q0 14 8.5 24t22.5 12l33 5q31 5 77 15l-35 12q-36 12-62.5 28t-26.5 36q0 17 12.5 26t24.5 9q5 0 9-1l8-1q43-23 94.5-39.5t93.5-25.5z m532 254q-17-16-17-17 0-4 3.5-9.5t3.5-15.5q0-44-52-53.5t-68-14.5l-26-10q-13-4-27-4-8 0-17 3t-9 11q0 13 24 24t68.5 18 44.5 33q0 8-5.5 14.5t-11.5 12.5l-11 12q-6 6-6 13 0 8 5.5 11t12.5 3q6 0 12.5-1.5t14.5-1.5 16.5 6.5 8.5 17.5q0 2-1 3.5t-1 2.5q-6 24-16 42t-10 41q0 11 5.5 19.5t19.5 8.5q18 0 28-32.5t19-53 9-41.5q0-26-17-42z"/></svg>