<svg viewBox="0 0 2600 2760.837" xmlns="http://www.w3.org/2000/svg"><path d="M2340 750q23 0 39.5 16t16.5 39v1115q0 23-16.5 39t-39.5 16h-291q0-95-68-162.5t-163-67.5q-96 0-164 67.5t-68 162.5h-705q0-93-68-161.5t-164-68.5q-95 0-163 67.5t-68 162.5h-139q-24 0-49.5-28.5t-25.5-54.5v-261q0-66 32.5-108.5t72.5-57.5l274-102 59-347q11-63 54-100t93-37h307v-74q0-23 16-39t39-16h1189z m-1317 287q0-24-16-40.5t-40-16.5h-163q-23 0-42 16t-22 39l-39 266v7q0 20 14 34t34 14h218q24 0 40-16t16-39v-264z m-251.5 1060.5q-50.5 50.5-122.5 50.5t-122-51-50-122q0-69 50-120t122-51q71 0 122 50.5t51 120.5q0 72-50.5 122.5z m1167.5 0q-51 50.5-121 50.5-72 0-122.5-50.5t-50.5-122.5q0-70 51-120.5t122-50.5q70 0 121 50.5t51 120.5q0 72-51 122.5z"/></svg>