<svg viewBox="0 0 2600 2760.837" xmlns="http://www.w3.org/2000/svg"><path d="M1723 347q144 0 247 103t103 247v964q0 134-90.5 233.5t-221.5 113.5v172q0 32-22.5 54.5t-53.5 22.5q-32 0-54.5-22.5t-22.5-54.5v-170h-616v170q0 32-22.5 54.5t-54.5 22.5-54-22.5-22-54.5v-172q-133-14-222.5-113.5t-89.5-233.5v-964q0-144 103-247t247-103h846z m-822 1223.5q-38-36.5-89-36.5-53 0-90 37t-37 90q0 52 37 89.5t90 37.5q51 0 89-37t38-90q0-54-38-90.5z m976.5 0.5q-37.5-37-88.5-37-53 0-90 37t-37 90q0 52 37 89.5t90 37.5q52 0 89-37.5t37-89.5q0-53-37.5-90z m40.5-919q0-76-56-132t-132-56h-860q-77 0-133 55.5t-56 132.5v239q0 77 56 133t133 56h860q77 0 132.5-56t55.5-133v-239z"/></svg>