<svg viewBox="0 0 2600 2760.837" xmlns="http://www.w3.org/2000/svg"><path d="M2263.5 1908.5q51.5 67.5 51.5 113.5 0 107-136.5 203t-372 149.5-503.5 53.5q-426 0-721.5-118t-295.5-279q0-6 1-12l2-12q-2-38-3-76t-1-75q0-440 152.5-752t413-495 559.5-183q221 0 442.5 99.5t332 291.5 110.5 444q0 104-18 207.5t-41.5 176.5-23.5 120q0 76 51.5 143.5z m-619.5-663q-4-8.5-11-13.5-11-32-37.5-55t-55.5-23q-45 0-74.5 39t-29.5 86v29q-47 14-91 20t-86 6q-95 0-165-20t-72-20q-14 0-25.5 10t-11.5 26q0 22 21 33.5t97 28.5 159 17q94 0 175.5-23.5t140-58 64.5-44.5 6-22q0-7-4-15.5z m-687-272.5q24 29 66 29 47 0 86.5-41.5t39.5-93.5q0-41-26-69.5t-65-28.5q-49 0-87 42.5t-38 93.5q0 39 24 68z m801-64q-11-11-26-11-32 0-129.5 25t-119 38-21.5 34q0 30 36 37.5t93 25 106 42.5l9 3q3 0 8 1 14 0 24.5-10t10.5-27q0-20-25.5-35.5t-53.5-24.5l-41-14 42-10q29-6 63.5-12t34.5-36q0-15-11-26z"/></svg>