<svg viewBox="0 0 2600 2760.837" xmlns="http://www.w3.org/2000/svg"><path d="M1585 2313q33 0 55.5 22.5t22.5 54.5v188h-736v-188q0-30 23-53.5t55-23.5h226v-204h-239q-21 0-35.5-14.5t-14.5-34.5v-958q0-20 14.5-34t35.5-14h239v-51q-136-24-226-131.5t-90-246.5q0-157 113.5-271t271.5-114 271.5 113.5 113.5 271.5q0 141-92 249.5t-233 130.5v49h240q20 0 34 14t14 34v958q0 20-14 34.5t-34 14.5h-240v204h225z m-538-1819h508q-39-74-108-114.5t-147-40.5q-84 0-151 43t-102 112z m528 207q11-38 11-76 0-13-1-26t-4-26h-562q-5 28-5 52 0 38 11 76h550z m-516 78q38 60 104 96.5t137 36.5q75 0 138.5-36.5t102.5-96.5h-482z m-18 1231h510v-859h-510v859z"/></svg>