<svg viewBox="0 0 2600 2760.837" xmlns="http://www.w3.org/2000/svg"><path d="M2255.5 1743.5q21.5 48.5 21.5 88.5 0 158-289 273.5t-704 115.5q-416 0-704-116t-288-273q-3-31-5-61.5t-2-61.5q0-303 150-580t413.5-430.5 593.5-153.5q435 0 654 200t219 493q0 71-14.5 146t-40.5 144-26 122q0 45 21.5 93.5z m-1423.5-792q-2-2.5-10-2.5-77 0-151 81t-74 158q0 31 20 56t54 25q35 0 53-19t26.5-52 10-71 21.5-74 36-57 16-32q0-10-2-12.5z m623.5 450q70.5-41.5 70.5-71.5 0-15-10.5-26t-26.5-11q-18 0-39 22.5t-64.5 39-90.5 16.5q-42 0-83-13-4 0-12-1-14 0-25.5 9.5t-11.5 26.5q0 30 40.5 40t92.5 10q89 0 159.5-41.5z m296 206q-59.5-28.5-139.5-28.5-165 0-233 48.5t-68 102.5q0 31 29 63.5t61 32.5l10-1q35-3 96-61.5t116-58.5q35 0 68 24.5t57 24.5q26 0 44.5-21t18.5-47q0-50-59.5-78.5z m236.5-49.5q0-32-39.5-44t-71-45.5-35.5-64.5l-2-17q0-17-12-27t-28-10-25 11-9 25q0 52 34 101.5t82 76.5 70 27q17 0 26.5-11.5t9.5-21.5z"/></svg>