<svg viewBox="0 0 2600 2760.837" xmlns="http://www.w3.org/2000/svg"><path d="M2263.5 1908.5q51.5 67.5 51.5 113.5 0 109-137.5 204t-372.5 148.5-502 53.5q-426 0-721.5-118t-295.5-279q0-7 1-14l2-13q-2-38-3-76t-1-75q0-432 150.5-744.5t411.5-497.5 561-185q222 0 443.5 99.5t332.5 291 111 444.5q0 104-18 207.5t-41.5 176.5-23.5 120q0 76 51.5 143.5z m-744.5-579q-55-51.5-148-51.5-60 0-148 27t-126 27h-14q-28 0-87.5-54t-113.5-54q-59 0-100.5 44.5t-41.5 110.5q0 30 20 69.5t72 45.5l19 2q10 0 25 1h34q55 0 95.5 15t89.5 69.5 108 76 120 21.5q95 0 173-65t78-160q0-73-55-124.5z m-692-354.5q45 53 120 53 85 0 157.5-75t72.5-173q0-75-47-127t-119-52q-91 0-160 77t-69 172q0 72 45 125z m860.5-104q-22.5-28-58.5-28-38 0-68.5 34.5t-30.5 80.5q0 38 22 65t59 27q40 0 69.5-34.5t29.5-77.5q0-39-22.5-67z"/></svg>