<svg viewBox="0 0 2600 2760.837" xmlns="http://www.w3.org/2000/svg"><path d="M1342 264v2200q0 17-12.5 30t-29.5 13-30.5-13-13.5-30v-2200q0-17 13.5-30t30.5-13 29.5 13 12.5 30z m-230.5 1540q-33.5 42-81.5 42-41 0-70-26.5t-29-60.5q0-47 9-87t9-83q0-56-22-105.5t-43-49.5q-14 0-23 5t-9 26q0 29 15 106t15 129q0 80-29.5 133t-29.5 205q0 65 8.5 113.5t27.5 63 37 34.5 18 51q0 42-28.5 60.5t-78.5 18.5q-92 0-131-36t-39-109q0-39 7-109.5t7-117.5q0-43-6.5-70.5t-25.5-27.5-25 27.5-6 70.5q0 27 2 57l9 119q2 29 2 51 0 73-39 109t-131 36q-49 0-77.5-18.5t-28.5-60.5q0-31 17.5-52.5t36.5-34.5 27-62.5 8-109.5q0-155-29.5-212t-29.5-125q0-31 5-65.5t11-66.5l10-60q5-28 5-47 0-21-9-26t-22-5q-27 0-47 56t-20 100q0 42 9.5 82.5t9.5 86.5q0 34-29.5 60.5t-70.5 26.5q-48 0-81.5-42t-33.5-118q0-129 86-299.5t176.5-235 92.5-69.5 2-13q0-16-30-38.5t-69-80-39-149.5q0-133 89-218t219-85 219 84.5 89 211.5q0 77-26 131t-69 92-43 52l1 11q1 6 92.5 71.5t177 233 85.5 301.5q0 76-33.5 118z m1370.5-32.5q-26 22.5-57 22.5-50 0-101.5-81t-88.5-207-60-126q-11 0-15.5 10.5t-4.5 26.5q0 46 24.5 115.5t50.5 112.5l28 48q13 23 22 43t9 38q0 39-46.5 61t-71 27-41 100.5-16.5 163.5 12 79 41.5 36 29.5 63q0 34-22.5 51t-57.5 17q-64 0-90.5-25t-26.5-87q0-40 5.5-113t5.5-132q0-47-6.5-77t-23.5-30q-19 0-24.5 29.5t-5.5 74.5q0 31 2 64l6 128q0 29 1 51 0 68-27.5 92.5t-87.5 24.5q-36 0-59-17.5t-23-52.5q0-32 22.5-54.5t42-33.5 19.5-86q0-66-16-162.5t-35-101-72-26-53-64.5q0-18 9-38t23-43l28-48q30-50 52.5-118.5t22.5-107.5q0-17-5-28t-16-11q-22 0-60 128.5t-88.5 207-99.5 78.5q-32 0-58.5-23.5t-26.5-54.5q0-54 56-76.5t78-92.5 83.5-208.5 113.5-178 89.5-50 37.5-36.5q0-10-16-20l-39-24q-23 26-59 38t-70 12q-31 0-52.5-9t-21.5-26q0-16 24.5-40t24.5-89v-42q0-21-1-46 0-158 81-238t200-80q117 0 198 78.5t81 242.5v45l-1 40q0 63 25.5 87.5t25.5 41.5-22.5 26-53.5 9q-34 0-70.5-12t-57.5-38q-24 14-39.5 24t-15.5 20q0 27 38 37t93.5 53.5 118 194.5 79 203.5 72.5 75 56 78.5q0 33-26 55.5z"/></svg>