<svg viewBox="0 0 2600 2760.837" xmlns="http://www.w3.org/2000/svg"><path d="M792 687h1263v1174h-144q-24-103-109.5-171t-194.5-68-194.5 68-109.5 171h-292q-27-104-111.5-171.5t-192.5-67.5-193.5 67-112.5 172h-122v-85q-23-2-38-17.5t-15-37.5v-69q0-21 15-37.5t38-18.5v-241q0-79 52-130.5t136-51.5h182z m-11 539h519v-437h-397z m1504-257q35 0 62 26t27 63v533q0 36-26.5 62.5t-62.5 26.5h-108q-36 0-62.5-26.5t-26.5-62.5v-533q0-37 27-63t62-26h108z m-1402.5 1142.5q-73.5 73.5-175.5 73.5-104 0-177-73.5t-73-175.5q0-103 73.5-176t176.5-73q102 0 175.5 73t73.5 176q0 102-73.5 175.5z m900 0q-73.5 73.5-175.5 73.5-104 0-176.5-74t-72.5-175q0-103 73.5-176t175.5-73 175.5 73 73.5 176q0 102-73.5 175.5z m-231.5-885.5h365v-437h-365v437z m129.5 633.5q-31.5-30.5-73.5-30.5-44 0-75.5 31.5t-31.5 75.5 31.5 75.5 75.5 31.5q42 0 73.5-31t31.5-76q0-46-31.5-76.5z m-899.5 1.5q-31-32-74-32-44 0-75.5 31.5t-31.5 75.5 31.5 75.5 75.5 31.5q42 0 73.5-31t31.5-76q0-43-31-75z"/></svg>