<svg viewBox="0 0 2600 2760.837" xmlns="http://www.w3.org/2000/svg"><path d="M2425 1880q14 3 22.5 14.5t8.5 25.5q0 20-14.5 28.5t-30.5 8.5l-196-36q-8 27-19 52.5t-24 49.5l184 59q12 4 19 15t7 23q0 19-12 28.5t-26 9.5q-8 0-12-1l-206-64q-119 150-349.5 233t-507.5 83q-257 0-483-78.5t-353-225.5l-166 52q-4 0-11 1-15 0-28-9.5t-13-28.5q0-12 8-23t21-15l141-44q-14-26-26.5-52.5t-21.5-55.5l-148 27q-19 0-32.5-9t-13.5-29q0-14 9-25t23-14l142-26q-5-26-8.5-53t-5.5-55l-130-19q-16-2-24.5-13t-8.5-25q0-18 11.5-28.5t26.5-10.5h6l117 17q0-123 43.5-245.5t122.5-228.5q28-360 94.5-550t160.5-190q66 0 167 100t223 292q41-5 81.5-8t82.5-3 84.5 3 84.5 8q115-182 219.5-286.5t172.5-104.5q94 0 157.5 185.5t89.5 475.5l7 89q78 108 117.5 227t39.5 242l167-23h6q17 0 27.5 11.5t10.5 28.5q0 14-9 24.5t-24 12.5l-179 27q-2 23-5 45.5t-7 45.5z m-606 170v-8q0-38-44.5-50.5t-78.5-52.5-34-61q-2-18-15.5-29.5t-32.5-11.5q-22 0-35.5 14t-13.5 37q0 8 5 25t19 44q-77 47-151 64.5t-136 17.5q-74 0-141-19t-87.5-32-36.5-13q-17 0-33 13t-16 35q0 24 17.5 39.5t105 46 193.5 30.5q77 0 165.5-22.5t182.5-82.5q23 20 58.5 39.5t60.5 19.5q15 0 28-9.5t18-25.5z m105.5-558q-5.5-20-14.5-39l-329 152q22 45 66.5 73t100.5 28q75 0 128.5-50.5t53.5-121.5q0-22-5.5-42z m-966.5 132l-326-152q-14 30-14 62 0 72 54.5 122t129.5 50q49 0 90-22.5t66-59.5z"/></svg>