<svg viewBox="0 0 2600 2760.837" xmlns="http://www.w3.org/2000/svg"><path d="M1550 690h830v1115h-146q-28-99-111-164t-189-65q-93 0-173 53t-117 146h20q32-77 105-128t165-51q107 0 189 70t98 175h159v173h-183q-37 76-108 121t-155 45q-86 0-156.5-45t-107.5-121h-57q-37 76-108 121t-155 45q-85 0-155.5-45.5t-107.5-120.5h-60q-14 71-71 118.5t-131 47.5-131-47-71-119h-4v161h-539v-112h75l174-258h54q48-35 80-130.5t32-223.5q0-121-31-218t-81-136h89l-151-488h576l-150 488q56 52 87 140.5t31 211.5q0 107-24 190.5t-65 134.5l24-4q12-2 25-2h2q35-49 56-131.5t21-184.5q0-128-32-223.5t-80-130.5h103v-120q0-40 34-67.5t79-27.5q46 0 80 27.5t34 67.5v120h58v-190q0-38 34-65.5t79-27.5q50 0 81.5 28.5t31.5 64.5v190h144v-408z m386 561q0 23 15.5 38t37.5 15h237q23 0 38-15t15-38v-409q0-22-15-37.5t-38-15.5h-237q-22 0-37.5 15.5t-15.5 37.5v409z m558-731v131h-1057v-131h1057z m-2251.5 695.5q39.5-98.5 86.5-98.5t86.5 98.5 39.5 235.5q0 139-39.5 237t-86.5 98-86.5-98-39.5-237q0-137 39.5-235.5z m1287.5 688.5h-115q-20 0-34.5-14.5t-14.5-34.5 14.5-34 34.5-14h96q-23-45-65-72.5t-96-27.5q-75 0-128 53.5t-53 127.5q0 75 53 128t128 53q69 0 121.5-48t58.5-117z m244-97h124q20 0 34 14t14 34-14 34.5-34 14.5h-143q6 71 58.5 118t121.5 47q75 0 127.5-53.5t52.5-127.5-52.5-127.5-127.5-53.5q-54 0-96 27.5t-65 72.5z m-885-1326h-561l57-133h445z m-612 39h665v50h-665v-50z m1363 1255q-36-91-116-145t-174-54q-108 0-191 66t-109 163h-108q11 8 20.5 16.5t18.5 19.5h81q18-106 99-175.5t189-69.5q89 0 161.5 49t107.5 130h21z m-971 66q16-20 38-36h-88v36h50z"/></svg>