<svg viewBox="0 0 2600 2760.837" xmlns="http://www.w3.org/2000/svg"><path d="M2292 1820.5q17 51.5 17 90.5 0 161-294 279.5t-719 118.5q-262 0-497.5-51.5t-375.5-145-140-201.5q-4-35-6-71t-2-73q0-323 144.5-616.5t401.5-457 589-163.5q291 0 484.5 97.5t312 295 118.5 436.5q0 117-25 212t-25 153q0 45 17 96.5z m-1504-665q25 28.5 63 28.5 45 0 82.5-39.5t37.5-93.5q0-39-23-68t-65-29q-49 0-84.5 41t-35.5 90q0 42 25 70.5z m498 434.5q14 0 26.5-9.5t12.5-24.5q0-16-9-27.5t-25-11.5q-108-7-231-28t-198-40l-42-10q-3 0-10-1-14 0-24.5 10t-10.5 27q0 12 7 21.5t20 13.5l46 11q73 19 199.5 40.5t238.5 28.5z m244-488.5q-27-33.5-68-33.5-43 0-77 38.5t-34 92.5q0 46 27.5 79t68.5 33q45 0 77.5-39.5t32.5-91.5q0-45-27-78.5z"/></svg>