<svg viewBox="0 0 2600 2760.837" xmlns="http://www.w3.org/2000/svg"><path d="M2263.5 1908q51.5 67 51.5 112 0 164-293 286t-719 122-721.5-118-295.5-279q0-6 1-12l2-12q-2-38-3-76t-1-75q0-440 152.5-752t413-495 559.5-183q223 0 444.5 101t331 292.5 109.5 441.5q0 107-18.5 211.5t-41.5 174.5-23 118q0 76 51.5 143z m-796-654q-6.5-6-14.5-6-6 0-34.5 6.5t-97.5 6.5q-146 0-263.5-32.5t-117.5-41.5q-8-4-13-4-8 0-15 7t-7 16q0 14 23 25.5t61 22.5q-63 16-108 75t-45 125q0 55 30 93t79 38q33 0 70.5-21.5t80-65 48-50.5 43-45.5 89-69 84-30.5 69.5-6q13-3 29-6.5t16-21.5q0-9-6.5-15z m-509-279.5q25.5 29.5 64.5 29.5 47 0 86-41.5t39-95.5q0-42-25-70t-64-28q-49 0-87.5 42t-38.5 94q0 40 25.5 69.5z m799.5-65.5q-11-11-26-11-33 0-135.5 27t-118.5 39.5-16 30.5q0 14 8 23.5t22 12.5l24 5q30 6 84 24.5t97 39.5l9 3q3 0 8 1 14 0 24.5-11t10.5-26q0-20-25.5-35.5t-53.5-24.5l-41-14q53-13 96.5-19.5t43.5-38.5q0-15-11-26z"/></svg>