<svg viewBox="0 0 2600 2760.837" xmlns="http://www.w3.org/2000/svg"><path d="M2251.5 1931q-128.5 128-308.5 128-171 0-296.5-115.5t-139.5-281.5h-122q-5 20-7.5 37.5t-7.5 35.5q31 0 51 12t20 44q0 28-23 41.5t-71 13.5q-16 0-30.5-1t-25.5-1h-21q-34 0-46.5-11.5t-12.5-36.5q0-27 28-45.5t58-18.5h6t5 1q5-20 6.5-36t6.5-35h-14l-6-1h-9q-3-2-10.5-4.5t-18.5-17.5l-301-448q-6 23-14 47l-16 47q74 61 117.5 148.5t43.5 190.5q0 178-128 306.5t-309 128.5-309-128.5-128-306.5q0-180 129-308.5t308-128.5q50 0 96 10.5t88 30.5q23-66 38-134t28-135l4-22q21-123 62.5-149.5t63.5-41 140-14.5l61 1q24 0 44.5 21.5t20.5 49.5q0 31-30 54.5t-96 23.5h-51q-14 0-28.5 1.5t-25.5 1.5q-10 0-19-2.5t-16-8.5q-8 10-12.5 28.5t-11.5 52.5l-15 81h443q-52-6-83.5-24t-31.5-45q0-25 18-46t46-23.5 70-10.5l75-13q37-6 73-10.5t69-4.5q34 0 59.5 26.5t25.5 61.5q0 41-38 72.5t-82 31.5h-18q-9 0-19-1v21l126 170q48-26 101.5-40t111.5-14q178 0 307.5 128t129.5 309q0 179-128.5 307z m-1366.5-532q-52 110-116.5 185.5t-76.5 84.5-33 9q-22 0-39-15.5t-17-38.5q0-14 6.5-26t20.5-20l7-5q54-54 92.5-113t67.5-124q-32-16-67.5-24.5t-73.5-8.5q-130 0-225 94t-95 227q0 132 94 226t226 94q133 0 227-95t94-225q0-66-25-123t-67-102z m1283-1q-95-95-225-95-38 0-74 8.5t-67 24.5l179 242q10 14 10 32 0 22-15.5 37t-36.5 15h-314q14 121 105 201.5t213 80.5q132 0 226-95t94-225q0-131-95-226z m-1113-257l244 362 170-362h-414z m507 50l-171 365h120q11-74 45.5-138.5t88.5-114.5z m153 207q-33 32-55 72t-31 86h205z"/></svg>