<svg viewBox="0 0 2600 2760.837" xmlns="http://www.w3.org/2000/svg"><path d="M2019 2160.5q-295 118.5-719 118.5-425 0-719-118.5t-294-278.5q0-397 119-706t345-466.5 549-157.5 549.5 157.5 345.5 466.5 119 706q0 160-295 278.5z m-1031.5-713.5q29.5-36 29.5-85t-29-86-73-37q-42 0-72 36.5t-30 86.5 30.5 85.5 71.5 35.5q43 0 72.5-36z m679.5 315q11 0 20-8t9-19q0-31-38-33.5t-130.5-8-197.5-5.5q-160 0-276 13t-129.5 22-13.5 25q0 13 9.5 21t20.5 8q5 0 7-1l42-7q40-7 121-14 10 24 22 114t53.5 136 118.5 46q78 0 120-47t54-138 23-115l79 4q40 3 83 7h3z m91-486.5q-30-36.5-73-36.5t-72 37-29 86 29.5 85 71.5 36 72.5-35.5 30.5-85.5-30-86.5z"/></svg>