<svg viewBox="0 0 2600 2760.837" xmlns="http://www.w3.org/2000/svg"><path d="M2291.5 1822.5q17.5 49.5 17.5 90.5 0 160-294 278.5t-719 118.5q-424 0-718-118.5t-294-278.5q-9-70-9-143 0-324 145.5-618.5t402-457 585.5-162.5q453 0 684.5 246t231.5 584q0 110-25 210.5t-25 152.5q0 48 17.5 97.5z m-361.5-415.5q-1 34-56.5 106t-55.5 134q0 43 27.5 72t68.5 29q50 0 75.5-36t25.5-116q0-65-26-144t-44-79q-14 0-15 34z m-621.5 135q-12.5-15-226.5-56.5t-268-41.5q-17 0-28.5 10.5t-11.5 28.5q0 34 52.5 37.5t192.5 27.5 255 58l11 1q15 0 25.5-12t10.5-26q0-12-12.5-27z m245.5-329l2-15v-15q0-47-26.5-79t-69.5-32-76 36.5-33 91.5q0 46 26 79.5t68 33.5q38 0 68.5-27.5t40.5-72.5z m-765-56.5q24 28.5 63 28.5 45 0 82-38.5t37-92.5q0-41-23.5-69t-65.5-28q-45 0-81 39.5t-36 91.5q0 40 24 68.5z"/></svg>