<svg viewBox="0 0 2600 2760.837" xmlns="http://www.w3.org/2000/svg"><path d="M2018 2158.5q-294 118.5-718 118.5t-718-118.5-294-278.5q0-390 115-696.5t340.5-469 556.5-162.5 556.5 162.5 340.5 469 115 696.5q0 160-294 278.5z m-1233-765.5q0-7 37.5-36t92.5-29q54 0 92 28.5t38 36.5q11 18 32 18 14 0 25.5-10.5t11.5-26.5q0-9-6-18l-13-18q-22-29-70.5-56.5t-109.5-27.5-109.5 27.5-70.5 56.5l-13 18-4 9q-2 5-2 9 0 14 11 25.5t28 11.5q20 0 30-18z m823 229q-10-11-27-11-22 0-39 26.5t-74 57.5-134 31q-85 0-147.5-25t-90.5-56l-17-17q-3-5-11-9t-16-4q-17 0-27 11t-10 25q0 34 90.5 91t228.5 57q118 0 201-60t83-92q0-14-10-25z m270-266l-13-18q-22-29-70.5-56.5t-109.5-27.5q-63 0-111 27.5t-69 56.5l-13 18q-6 9-6 18 0 16 11 26.5t26 10.5q22 0 35-22t47.5-41.5 79.5-19.5q54 0 92 28.5t38 36.5q11 18 32 18 13 0 24-10t11-27q0-10-4-18z"/></svg>