<svg viewBox="0 0 2600 2760.837" xmlns="http://www.w3.org/2000/svg"><path d="M2347.5 1991q-162.5 280-442.5 442.5t-606 162.5-606-162.5-442.5-442.5-162.5-606 162.5-606 442.5-442.5 606-162.5 606 162.5 442.5 442.5 162.5 606-162.5 606z m-331.5 21l-1571-1050q-48 96-73.5 202t-25.5 221q0 146 41 278t115 245l54 333q13 84 99 136.5t214 52.5q90 0 159.5-27.5t109.5-77.5q77 13 161 13 204 0 392.5-84.5t324.5-241.5z m-827-1573q-182 22-336.5 105t-269.5 214l1570 1050q48-97 73.5-202.5t25.5-220.5q0-201-80.5-382.5t-222.5-313.5q5-23 5-44 0-69-47.5-116.5t-114.5-51.5h-8q-62 0-109 33-48-20-101-37-6-64-59.5-109.5t-132.5-45.5q-66 0-120.5 35.5t-72.5 85.5z m687.5 300.5q-24.5 38.5-113 40t-119 13.5-30.5 30q0 7 4 16l9 22q5 12 9 26.5t4 32.5q0 56-34.5 89.5t-117.5 33.5q-124 0-155.5-39.5t-31.5-72.5q0-11 1.5-22t1.5-22q0-14-7.5-23t-27.5-9q-29 0-76 16t-100 16q-78 0-121-39t-43-110q0-67 40-99.5t117-32.5h20q22 0 56 10.5t57 10.5q14 0 30-5.5t16-16.5q0-13-19.5-34t-19.5-61q0-61 49-101t109-40q67 0 109 40t42 105q0 39 6.5 59.5t39.5 20.5q42 0 96.5-32.5t101.5-32.5q51 0 86.5 39t35.5 91q0 42-24.5 80.5z m-797.5 896.5q58 26 92 65.5t34 86.5q0 8-2 17l-4 17-66 407q-16 69-88.5 110.5t-175.5 41.5q-107 0-179.5-41t-84.5-109l-67-409-3-15q-2-6-2-14 0-53 37-95t106-70q0 16-1 32v11q0 11 1 22-39 20-61.5 44.5t-22.5 49.5q0 55 83 96t194 41q110 0 193-41t83-96q0-23-18.5-45t-50.5-40q2-13 2-27.5t1-38.5z m14-609q3-4 35-60.5t79-56.5q19 0 26 8t7 28q0 14 19.5 52.5t66 65.5 161.5 27q76 0 135.5-34t72.5-85l5-19q2-9 6-15.5t11-6.5q8 0 25 10t42 10q49 0 70.5-53t100.5-53q82 0 117 84.5t35 179.5q0 93-34 166.5t-137 73.5q-71 0-92-49.5t-58-49.5q-53 0-75 63t-52 93z m31 889q-46 31-111.5 49t-143.5 18-144-18-112-49l50 304q8 46 65 73.5t141 27.5q80 0 138-28.5t68-74.5z m-42-458q-25 23-34 53t-9 70l1 71q0 59-13 72.5t-51.5 30.5-113.5 17q-45 0-80-16t-51-31.5-16-54.5q0-161 22-250.5t63-150.5z m-87 588.5q50 21.5 50 54.5 0 11-2 22l-4 21-6 39q-7 43-21.5 55.5t-49 23-94.5 10.5q-39 0-74-6t-59.5-21-25.5-35-7-48l-8-34q-4-16-4-32 0-35 59.5-53t114.5-18q81 0 131 21.5z m524-1382.5q-29-22-71-22-49 0-89 25t-40 58q0 36 33 55t79 19q52 0 84.5-24t32.5-56q0-33-29-55z"/></svg>