<svg viewBox="0 0 2600 2760.837" xmlns="http://www.w3.org/2000/svg"><path d="M2019.5 2160.5q-294.5 118.5-719.5 118.5t-719-118.5-294-279.5q0-603 259-966t754-363q320 0 546 154.5t347 464 121 710.5q0 161-294.5 279.5z m-1224.5-722.5h307q16 0 27.5-11.5t11.5-28.5q0-16-11.5-27.5t-27.5-11.5h-307q-16 0-27.5 11.5t-11.5 27.5q0 17 11.5 28.5t27.5 11.5z m665 465q17 0 28-11t11-28-11-28.5-28-11.5h-331q-17 0-28.5 11.5t-11.5 28.5 11.5 28 28.5 11h331z m328-466q16 0 27.5-11.5t11.5-27.5q0-17-11.5-28.5t-27.5-11.5h-307q-16 0-27.5 11.5t-11.5 28.5q0 16 11.5 27.5t27.5 11.5h307z"/></svg>