<svg viewBox="0 0 2600 2760.837" xmlns="http://www.w3.org/2000/svg"><path d="M2412.5 1233q-66.5 66-158.5 66-45 0-84-16t-69-45l177-51q40-8 67-41l-709 205-19 52q-41 106-119.5 226t-191.5 169l72 267h224q17 0 28 11.5t11 28.5q0 16-11 27.5t-28 11.5h-1032q-65 0-114.5-49t-49.5-136q0-17 11.5-28.5t28.5-11.5q16 0 27.5 11.5t11.5 28.5q0 53 28 79.5t59 26.5h128l33-233h-38q-129 0-254.5-15t-169.5-68-44-124q0-94 67.5-183t87.5-147l14-41q51-153 191-279t400-126h35l34 2v-63h52v-69q-400-2-667.5-44t-267.5-93q0-54 285-95.5t699-41.5q413 0 698 41.5t285 95.5q0 50-261 92t-673 45v69h52v97q89 23 177 63t155 84l737-46q-32-27-74-27h-10l-10 2-179 11q29-54 81.5-88t118.5-34q92 0 158.5 65.5t66.5 158.5-66.5 159z m-1493.5 231q63 0 97-23.5t34-73.5v-300q0-80-32-103t-95-23q-115 0-214.5 59t-169.5 171.5-70 196.5q0 43 21.5 69.5t70.5 26.5h358z m312 358q-17 5-36 7.5t-33 2.5h-350l-32 233h516z"/></svg>