<svg viewBox="0 0 2600 2760.837" xmlns="http://www.w3.org/2000/svg"><path d="M2263.5 1908.5q51.5 67.5 51.5 113.5 0 165-295 285.5t-717 120.5q-428 0-722.5-117.5t-294.5-279.5q0-6 1-12l2-12q-2-38-3-76t-1-75q0-646 339.5-1038t785.5-392q215 0 438 99.5t335 291 112 444.5q0 104-17.5 207t-41.5 176.5-24 120.5q0 76 51.5 143.5z m-750.5-54q65-41.5 65-123.5 0-132-121-225.5t-253-93.5q-115 0-199 74.5t-84 185.5q0 73 55 125t159 75.5 194 23.5q119 0 184-41.5z m-585-625.5l28-35q16-20 37.5-42t51.5-46q-66-2-137-70t-149-68-131 55-53 130q0 71 56.5 118.5t131.5 47.5q48 0 87.5-22t77.5-68z m-20-425v4q0 3 2 5 12 48 63.5 92t129.5 44q31 0 61-10t43-20l9-7q7-5 10-12.5t3-15.5q0-14-11-25.5t-25-11.5q-13 0-23 9-2 0-20.5 10t-48.5 10q-44 0-76.5-24t-44-54-36.5-30q-19 0-27.5 11.5t-8.5 24.5z m871 287q7-5 10-12t3-15q0-14-11-25.5t-25-11.5q-12 0-23 8-37 21-66 21-42 0-72-22.5t-42.5-53-37.5-30.5q-15 0-26 11t-11 25q0 31 50.5 86.5t138.5 55.5q31 0 60-9.5t43-20.5z"/></svg>