<svg viewBox="0 0 2600 2760.837" xmlns="http://www.w3.org/2000/svg"><path d="M2213 963q57 108 88 228.5t31 251.5q0 277-141 517.5t-379.5 377-512.5 136.5q-275 0-515-138t-378.5-378-138.5-515q0-261 122.5-489t338-371 472.5-169q-43 48-70 103t-37 116q-185 47-328 167l1176 1176q91-110 142.5-245.5t51.5-287.5q0-66-10-129t-29-122q56-28 88.5-75.5t32.5-109.5q0-11-1-22t-3-22z m-414 1147l-1169-1167q-78 105-122.5 231.5t-44.5 268.5q0 222 112 415.5t306.5 306 417.5 112.5q142 0 268-44.5t232-122.5z m-496.5-1155q-136.5-96-136.5-260 0-167 142-268.5t358-101.5q56 0 123 12.5t110 42.5l56 39q28 20 58 35t67 15q26 0 41-12t15-34q0-17-6-25.5t-6-19.5 9.5-15 20.5-4q55 0 91 40.5t36 85.5q0 91-84 149t-191 58q-24 0-48.5-1.5t-49.5-1.5q-81 0-132.5 27t-51.5 54q0 31 56 53t104 22l85 5q79 4 123.5 45t44.5 107q0 68-50.5 103.5t-139.5 48-89 72.5q0 23 26 37t26 26q0 13-10.5 17.5t-21.5 4.5q-42 0-105-30.5t-63-78.5q0-36 49-69t49-48q0-16-45-25t-113-9q-211 0-347.5-96z m-309.5 434l207 207h-503q-17 0-29.5-13t-12.5-31v-120q0-18 12.5-30.5t29.5-12.5h296z m795 174q2-26 3-54.5t1-53.5q0-9-4-18t-4-20q0-8 3.5-15t14.5-7h14l10 1q8 0 18.5-3.5t18.5-3.5q17 0 32.5 4t28.5 4q6 0 12-2t12-2q16 0 25 17t9 148q0 17-11 20t-26 3h-12q-12 0-23 3.5t-25 3.5-26.5-1.5-26.5-1.5q-8 0-14 1t-11 1q-8 0-13.5-3.5t-5.5-14.5v-6z m-129-174q19 0 31 12.5t12 30.5v120q0 18-12 31t-31 13h-15l-205-207h220z"/></svg>