<svg viewBox="0 0 2600 2760.837" xmlns="http://www.w3.org/2000/svg"><path d="M2377 1005l-32 66v1130q0 23-16.5 39t-39.5 16h-108q0-93-68-161.5t-164-68.5q-95 0-163 67.5t-68 162.5h-867q0-92-68-161t-164-69q-95 0-163 67.5t-68 162.5h-89q-23 0-49.5-27.5t-26.5-54.5v-530l60-347q10-62 53-99.5t93-37.5h98q-7-7-7-18v-71q0-12 9.5-20.5t23.5-8.5q0-104 36.5-157.5t107.5-53.5 108 53 37 158q15 0 23.5 8.5t8.5 20.5v71q0 10-6 18h269q23 0 39.5 16.5t16.5 39.5v99h323v-299l-1152-552 166-345z m-693 409.5q-85 84.5-85 203.5 0 54 19 102.5t53 87.5h-437v98h654q119 0 203-84.5t84-203.5q0-117-84.5-202.5t-202.5-85.5q-119 0-204 84.5z m337.5 69q55.5 56.5 55.5 134.5 0 77-55.5 133.5t-133.5 56.5q-79 0-135-56.5t-56-133.5q0-79 56-135t135-56q78 0 133.5 56.5z m-1342.5-165.5q0-24-16-40t-40-16h-163q-23 0-41.5 15.5t-21.5 38.5l-40 266v7q0 21 14 34.5t34 13.5h218q24 0 40-16t16-39v-264z m1392.5 1060.5q-50.5 50.5-122.5 50.5t-122-51-50-122q0-69 50-120t122-51q71 0 122 50.5t51 120.5q0 72-50.5 122.5z m-1330 0q-50.5 50.5-122.5 50.5-71 0-122-51.5t-51-121.5q0-68 51-119.5t122-51.5 122 50.5 51 120.5q0 72-50.5 122.5z m298.5-837.5q17 0 32.5-13.5t15.5-34.5v-185q0-20-15-34t-33-14h-178q-21 0-35.5 14t-14.5 34v185q0 20 14.5 34t35.5 14h178z m-136-563q-6 0-11-6t-5-13 9-18l129-85q4-4 12-4 7 0 12.5 6t5.5 12l18 112q0 23-23 23z m-563 27q-21 0-21-23l18-112q2-6 6-12t12-6q7 0 12 4l129 85q10 7 10 17 0 7-4.5 13t-12.5 7z m1581-131l-171-82-76 159z m-543-66l247-77-171-82z m329 214l170 82 77-159z m-888-426l170 82 76-159z m-32-71l245-77-170-82z m-222-300l-76 157 247-77z m-43 230l171 81 76-158z m1524 479l-76 158 247-77z m-963-268l246-77-171-81z m328 213l170 83 77-158z m762 366l77-157-247 76z m-1058-507l170 81 77-157z"/></svg>