<svg viewBox="0 0 2600 2760.837" xmlns="http://www.w3.org/2000/svg"><path d="M1793 618q255 161 399.5 462t144.5 644q0 42-1.5 81t-6.5 77q0 160-293 278.5t-718 118.5q-424 0-718-118.5t-294-278.5q0-42 21-91.5t21-95.5q0-55-28.5-131.5t-43-156-14.5-160.5q0-177 70.5-334t207-267.5 317.5-149.5 346-39q335 0 590 161z m-964 810l11-18q4-7 4-16 0-14-10.5-25.5t-26.5-11.5q-20 0-36.5 25t-46 40.5-68.5 15.5q-32 0-58.5-13t-38-27.5-29.5-14.5q-17 0-27 11t-10 25q0 12 7 22l12 12q18 20 57 38.5t87 18.5q61 0 107-26.5t66-55.5z m362 273.5q-100-49.5-200-49.5-89 0-171.5 39.5t-82.5 72.5q0 14 11.5 25t25.5 11q16 0 35-16t71.5-38 112.5-22q75 0 140.5 30.5t84 48.5 36.5 18q15 0 26-11t11-26q0-33-100-82.5z m309-355.5v-8q0-14-10-25.5t-27-11.5q-20 0-32 20.5t-44.5 41-75.5 20.5q-35 0-63-13.5t-40-28-30-14.5q-15 0-26 10t-11 26q0 11 7 21l12 12q20 21 60 40.5t88 19.5q46 0 86-14.5t72-49 34-46.5z m32.5 172.5q-62.5-50.5-82.5-50.5-14 0-14 16 0 29 7 54t7 52q0 52 21 89.5t62 37.5q37 0 49.5-29.5t12.5-56.5q0-62-62.5-112.5z"/></svg>