<svg viewBox="0 0 2600 2760.837" xmlns="http://www.w3.org/2000/svg"><path d="M2257 1890q0 20-14.5 34.5t-34.5 14.5h-92q-12-86-79.5-146.5t-157.5-60.5q-91 0-158.5 60.5t-79.5 146.5h-693q-12-86-79.5-146.5t-157.5-60.5q-91 0-158.5 60.5t-79.5 146.5h-82q-21 0-34.5-14.5t-13.5-34.5v-779q0-114 85-168t255-54h451v-114q0-13 8.5-21.5t20.5-8.5h157l489-302q7-5 20-5 16 0 28 11t12 28q0 10-5 19.5t-13 14.5l-382 235q11 0 19 8.5t8 20.5v114h420q170 0 255.5 53.5t85.5 168.5v779z m-1407-719q0-21-15-35t-35-14h-162q-20 0-34.5 14t-14.5 35v263q0 21 14.5 35.5t34.5 14.5h162q20 0 35-14.5t15-35.5v-263z m446 0q0-21-15-35t-35-14h-162q-20 0-34.5 14t-14.5 35v263q0 21 14.5 35.5t34.5 14.5h162q20 0 35-14.5t15-35.5v-263z m361 0q0-21-14.5-35t-35.5-14h-161q-21 0-35.5 14t-14.5 35v263q0 21 14.5 35.5t35.5 14.5h161q21 0 35.5-14.5t14.5-35.5v-263z m350 0q0-21-14.5-35t-35.5-14h-161q-21 0-35.5 14t-14.5 35v263q0 21 14.5 35.5t35.5 14.5h161q21 0 35.5-14.5t14.5-35.5v-263z m-1424.5 928.5q-52.5-53.5-52.5-127.5 0-73 52-127t129-54q76 0 128.5 54.5t52.5 126.5q0 73-53 127t-128 54q-76 0-128.5-53.5z m1168 0.5q-53.5-53-53.5-128 0-74 53-127.5t129-53.5 128.5 54.5 52.5 126.5q0 73-53 127t-128 54-128.5-53z"/></svg>