<svg viewBox="0 0 2600 2760.837" xmlns="http://www.w3.org/2000/svg"><path d="M2256 1874q0 21-14 35.5t-35 14.5h-167q0-4 1-14 0-92-66.5-159t-161.5-67q-99 0-163.5 70t-64.5 170h-616q0-100-64.5-170t-163.5-70q-98 0-162.5 69t-64.5 171h-122q-21 0-35-14.5t-14-35.5v-823q0-116 87.5-168.5t254.5-52.5h1232q167 0 253 53t86 168v823z m-1389-763q0-20-14-33t-34-13h-156q-20 0-34 13t-14 33v254q0 20 14 34t34 14h156q20 0 34-14t14-34v-254z m429 0q0-20-13.5-33t-34.5-13h-156q-20 0-33.5 13t-13.5 33v254q0 20 13.5 34t33.5 14h156q21 0 34.5-14t13.5-34v-254z m348 0q0-20-13.5-33t-34.5-13h-156q-20 0-33.5 13t-13.5 33v254q0 20 13.5 34t33.5 14h156q21 0 34.5-14t13.5-34v-254z m337 0q0-20-14-33t-34-13h-155q-20 0-34 13t-14 33v254q0 20 14 34t34 14h155q20 0 34-14t14-34v-254z m-1121.5 918q-50.5 50-118.5 50t-118-49.5-50-119.5q0-68 49-117.5t119-49.5 119.5 50 49.5 117q0 69-50.5 119z m1071.5 0.5q-50 49.5-118 49.5-69 0-118.5-50.5t-49.5-118.5q0-66 48.5-116.5t119.5-50.5q70 0 119 49.5t49 117.5q0 70-50 119.5z"/></svg>