<svg viewBox="0 0 2600 2760.837" xmlns="http://www.w3.org/2000/svg"><path d="M2017 2161q-295 118-717 118t-717-118-295-279q0-390 115-696.5t340.5-469 556.5-162.5 556.5 162.5 340.5 469 115 696.5q0 161-295 279z m-544-855q0-4 1-12 0-14-9.5-25t-26.5-11q-25 0-34 24l-13 27q-23 47-83.5 90t-145.5 43q-132 0-197.5-68.5t-65.5-165.5q0-17-8-31.5t-27-14.5q-23 0-30.5 15t-7.5 35q0 122 86 213t250 91q98 0 173.5-48.5t106.5-105.5z m145-250q15-2 25-12.5t10-26.5q0-14-10-24t-24-10l-27 1q-50 2-116.5 13t-100.5 21.5-34 38.5q0 21 16.5 29t73 28 99 45 55.5 25q14 0 25.5-9t11.5-26q0-16-21.5-33t-59.5-35l-33-15q23-3 43-5t35-3z m-841-13q31-5 66-7t67-2q34 0 57 1l26 1q14 0 25-10t11-25q0-27-51-67.5t-82-55.5l-32-16q-8-2-13-2-16 0-26.5 10t-10.5 27q0 25 21.5 34t56.5 30q-33 0-95.5 5.5t-62.5 42.5q0 15 11.5 25.5t25.5 10.5z"/></svg>