<svg viewBox="0 0 2600 2760.837" xmlns="http://www.w3.org/2000/svg"><path d="M1913 760q195 167 297.5 464t102.5 659q0 160-294 278.5t-719 118.5-719-118.5-294-278.5q0-364 101.5-659.5t298.5-463.5q88 66 254 104.5t359 38.5 359-38.5 254-104.5z m-1129 635l9-12q15-19 48-36.5t74-17.5q42 0 74.5 18t46.5 36l9 12q11 19 31 19 16 0 26.5-11.5t10.5-25.5q0-30-59-76t-139-46q-86 0-142.5 48t-56.5 73q0 14 10 25.5t27 11.5q20 0 31-18z m823.5 229q-10.5-11-26.5-11-20 0-36 25t-74 58-139 33q-88 0-147.5-26t-87-56-46.5-30q-16 0-26 11t-10 25q0 13 7 21 0 5 36 38t106 61.5 169 28.5q117 0 201-59t84-93q0-15-10.5-26z m270.5-266l-12-18q-21-29-70-57t-111-28q-83 0-141 48t-58 73q0 15 10 26t27 11q23 0 34-21t45.5-42 82.5-21q55 0 92.5 29t37.5 37q11 19 31 19 13 0 25-10.5t12-26.5q0-9-5-19z m-120-585.5q-189 71.5-458 71.5-268 0-458-71.5t-190-169.5q0-97 189.5-168.5t458.5-71.5q270 0 458.5 72t188.5 168q0 98-189 169.5z m-196-278.5q-104-30-262-30-159 0-263 30t-104 68q0 39 105 68t262 29q156 0 261-29t105-68q0-38-104-68z m-30 83q-41 10-99 17t-133 7-133.5-7-99.5-17q54-11 111.5-17.5t121.5-6.5q63 0 120.5 6.5t111.5 17.5z"/></svg>