<svg viewBox="0 0 2600 2760.837" xmlns="http://www.w3.org/2000/svg"><path d="M1441 681h-289q0-105 36.5-157.5t107.5-52.5 108 52 37 158z m-639-39q-11 0-18-8t-7-18v-3l20-140q0-9 7-15.5t19-6.5q3 0 9 2l223 103q15 6 15 23 0 10-6 16.5t-15 8.5l-243 38h-4z m742-38q-10-2-16-9t-6-17q0-16 16-22l222-103q6-2 10-2 23 0 26 22l19 140v4q0 13-9 19t-20 6z m428 726q57 19 95.5 64t38.5 102v349q0 42-31 73.5t-75 31.5h-70v131q0 46-33 78.5t-77 32.5q-45 0-78-33t-33-78v-131h-812v131q0 46-33 78.5t-77 32.5q-45 0-78-33t-33-78v-131h-78q-44 0-74-31t-30-74v-349q0-56 36.5-101t97.5-65l101-374q16-61 72-103.5t119-42.5h196v-34q0-20 14.5-35t35.5-15h261q20 0 35 15t15 35v34h203q61 0 116.5 42t73.5 104z m-1104 394.5q31-31.5 31-73.5 0-44-31.5-75.5t-75.5-31.5-75 32-31 75q0 42 30 73.5t76 31.5q45 0 76-31.5z m1029 0q30-31.5 30-73.5 0-43-31-75t-75-32q-43 0-74.5 32t-31.5 75q0 42 31 73.5t75 31.5q46 0 76-31.5z m-1304-238.5h1413q-5-23-27-41.5t-54.5-25.5-40.5-36l-109-401q-8-31-36.5-52.5t-58.5-21.5h-760q-31 0-59.5 21.5t-36.5 52.5l-109 401q-8 29-39 35t-54.5 25-28.5 43z m289-125q-20 0-31.5-12t-11.5-30q0-7 1-11l59-269q5-22 24-37.5t42-15.5h670q21 0 40.5 15.5t24.5 37.5l59 269q0 4 1 12 0 17-12 29t-32 12h-834z"/></svg>