<svg viewBox="0 0 2600 2760.837" xmlns="http://www.w3.org/2000/svg"><path d="M2296 1812q17 53 17 92 0 164-296 284t-721 120q-268 0-504.5-53.5t-374.5-148-138-202.5q-4-35-6-71t-2-73q0-330 146.5-629.5t404-464 587.5-164.5q454 0 687 249t233 594q0 117-25 213t-25 156q0 45 17 98z m-1086-876q0 2-1 5 0 7 5 13t14 6q18 0 22-20t23.5-44.5 42-28 22.5-22.5q0-8-6-13t-13-5h-4q-49 8-77 51t-28 58z m-170.5-132q20.5 26 20.5 57 0 16-3.5 22.5t-3.5 12.5q0 8 6 14t14 6q12 0 19-19t7-38q0-25-11-50t-27-44l-8-9q-5-5-13-5-9 0-15 6t-6 13q0 8 20.5 34z m-273.5 221q30 35 73 35 49 0 86.5-43t37.5-103q0-44-25-78-26 17-59 25.5t-79 8.5h-24.5t-22.5-2q-9 16-13 33.5t-4 36.5q0 52 30 87z m571 793q4-22 6.5-45t2.5-49q0-163-111.5-271.5t-276.5-108.5q-138 0-251.5 86.5t-131.5 195.5l-2 23z m199-776q-54-20-91-48.5t-59-60.5q-32 16-54 52.5t-22 81.5q0 51 29 86t74 35q48 0 85.5-42t37.5-104z m411.5 744.5q22.5-33.5 22.5-79.5 0-89-28-173t-42-84q-16 0-66 85.5t-50 162.5q0 50 28 86t75 36q38 0 60.5-33.5z"/></svg>