<svg viewBox="0 0 2600 2760.837" xmlns="http://www.w3.org/2000/svg"><path d="M2061.5 981.5q-96.5 78.5-243.5 78.5-30 0-60.5-1.5t-60.5-1.5q-111 0-171 35.5t-60 66.5 61.5 63 195.5 32 196 52.5 62 138.5q0 68-44.5 114t-140.5 63l-50 9q-53 9-83 31.5t-30 61.5q0 27 32 45t32 32q0 16-12 22t-26 6q-56 0-132-38t-76-97q0-28 19-49t42-38l42-31q19-14 19-28 0-19-44.5-28.5t-99.5-11.5l-66-1q-282-14-434-135.5t-152-308.5q0-126 80.5-239.5t233.5-165.5 305-52q74 0 154 16t132 51l72 49q36 25 74 44t82 19q32 0 51-15.5t19-41.5q0-19-8.5-32.5t-8.5-24.5q0-14 13-18.5t25-4.5q61 0 109 49t48 108q0 98-96.5 176.5z m-614.5 904.5q18 0 30.5 12.5t12.5 31.5v193q0 17-12.5 30t-30.5 13h-962q-17 0-30-13t-13-30v-193q0-19 13-31.5t30-12.5h962z m320 104v92q0 16 1.5 27.5t1.5 19.5q0 15-8.5 18t-23.5 3h-16q-14 0-25 3.5t-23 3.5l-55-1-23 1q-8 0-13.5-3.5t-5.5-13.5l4-187q0-12-4-19.5t-4-20.5q0-12 4-16.5t15-4.5h14l9 1q13 0 17-3.5t16-3.5q17 0 35 5t32 5q5 0 12-3t13-3q13 3 20 15.5t7 84.5z"/></svg>