<svg viewBox="0 0 2600 2760.837" xmlns="http://www.w3.org/2000/svg"><path d="M1532 1132v379h258q60 0 102.5 42.5t42.5 102.5v93q0 59-43 101.5t-102 42.5h-258v11q0 158-108 271.5t-260 113.5q-64 0-113.5-19.5t-78-26.5-75.5-35-90.5-79.5-67.5-120.5q-23-62-23-132v-123q-22-32-34.5-59.5t-12.5-59.5q0-61 47-111v-232q-19-27-33-55t-14-65q0-31 12.5-59.5t34.5-51.5v-232q-22-32-34.5-59t-12.5-60q0-57 37-99.5t95-62.5q51-64 124.5-101.5t158.5-37.5q66 0 112.5 19t69.5 24.5 64.5 26 85.5 62.5 74 101q25 51 36 109h264q60 0 102.5 42.5t42.5 102.5v92q0 60-42.5 102.5t-102.5 42.5h-258z m304 524q0-19-13.5-33t-32.5-14h-258v186h258q19 0 32.5-13.5t13.5-32.5v-93z m-572-869q-50-71-153.5-133t-204.5-62q-10 0-14.5 1.5t-4.5 3.5q0 5 48.5 19.5t107.5 95 135.5 106 97.5 25.5q12 0 16-4 0-5-4.5-14t-7.5-14z m28 977q0-24-58.5-88t-149-112-164.5-48q-10 0-21.5 1t-11.5 4q0 9 48 20t105 92.5 144 110.5l46 15q13 4 25.5 6.5t22.5 2.5q11 0 14-4z m-74-411l-29-9q-73-21-114.5-52.5t-75.5-79.5q-32 19-51.5 51.5t-19.5 72.5q0 55 42.5 100t103.5 45q55 0 96.5-37t47.5-91z m74-51q0-21-54.5-83t-148-113.5-192.5-51.5q-10 0-10 5 0 6 47.5 18t107.5 95.5 142 108.5l56 17q23 8 38 8 8 0 14-4z m-478-297q28-9 67-10l29-1q-8-8-14.5-20t-11.5-26l-35-18q-18-8-35-19v94z m0 462q15-5 32.5-7.5t34.5-2.5h29q-17-22-26-47-16-6-34-17l-36-20v94z m354 441q37-35 50-92l-32-10q-79-25-120-59.5t-67-72.5q-31 19-51 52t-20 72q0 58 44 101.5t102 43.5q57 0 94-35z m-354-32q0 119 80.5 202.5t189.5 83.5 189.5-83.5 80.5-202.5v-1083q0-116-79.5-201.5t-190.5-85.5q-32 0-62.5 8t-57.5 22q171 37 279 140t108 164q0 31-22.5 46.5t-52.5 15.5q-9 59-45 101.5t-90 62.5q68 38 139.5 111t71.5 125q0 29-21 45.5t-52 16.5h-3q-8 59-44.5 101t-90.5 63q92 54 151.5 123.5t59.5 113.5q0 32-23.5 46.5t-52.5 14.5q-10 74-69 125.5t-133 51.5q-66 0-116-36.5t-74-93.5q-35-17-70-38v41z m718-1028v186h258q19 0 32.5-13.5t13.5-33.5v-92q0-20-13.5-33.5t-32.5-13.5h-258z"/></svg>