<svg viewBox="0 0 2600 2760.837" xmlns="http://www.w3.org/2000/svg"><path d="M2291 1818q17 51 17 89 0 163-297.5 281t-714.5 118q-419 0-716-118t-297-281q-4-35-6-70t-2-72q0-322 144-615.5t401-457.5 588-164q73 0 155 7.5t163 29.5v794q0 11 7 18t18 7q10 0 17-7t7-18v-780q23 6 44.5 14.5t42.5 17.5v748q0 11 7 18t17 7q11 0 18-7t7-18v-723q23 13 44.5 26t41.5 28v669q0 11 7 18t18 7 17-7 6-18v-630q25 20 46.5 42t41.5 46v542q0 11 7 18t18 7q9 0 16-7t7-18v-476q69 102 106.5 222.5t37.5 252.5q0 106-25.5 208t-25.5 155q0 46 17 97z m-1020-407.5q-117-103.5-268-103.5-142 0-238.5 92t-96.5 206q0 71 41.5 115.5t124.5 44.5q23 0 45.5-1.5t45.5-1.5q31 0 62 6t58 19l56 27q28 14 56.5 24.5t60.5 10.5q75 0 122.5-60t47.5-145q0-130-117-233.5z m618 506.5q38 0 60-31.5t22-79.5q0-79-22-151t-36-94.5-52 35-59 114.5q-16 44-16 88 0 51 25.5 83t70.5 36h7z m-359.5-818.5q-26.5-32.5-67.5-32.5-44 0-77.5 38t-33.5 94q0 45 27.5 78t68.5 33q44 0 76.5-38.5t32.5-94.5q0-45-26.5-77.5z m-740.5 53.5q25 29 64 29 45 0 81.5-38.5t36.5-92.5q0-39-23-69t-64-30q-47 0-83.5 40t-36.5 93q0 39 25 68z"/></svg>