<svg viewBox="0 0 2600 2760.837" xmlns="http://www.w3.org/2000/svg"><path d="M2018 2158.5q-294 118.5-718 118.5t-718-118.5-294-278.5q0-390 115-696.5t340.5-469 556.5-162.5 556.5 162.5 340.5 469 115 696.5q0 160-294 278.5z m-1524.5-344q-3.5-20.5-5.5-70t-18-49.5q-18 0-65.5 53.5t-47.5 111.5q0 36 20.5 65.5t55.5 29.5q27 0 45.5-23t18.5-66q0-31-3.5-51.5z m145.5-387.5q3-7 3-15 0-13-17-13-45 0-101.5 45t-56.5 101q0 29 16.5 53t47.5 24q61 0 77.5-83.5t25.5-98.5z m223 117q-34-2-57-4l-63-6-15-2q7 44 40.5 103.5t94.5 113.5v-205z m209 11q-39 0-76-2t-70-4v248q31 20 67 37t79 29v-308z m-15.5-307.5q-58.5-47.5-140.5-47.5-70 0-123.5 35.5t-69.5 67.5l-4 8q-2 5-2 10 0 14 11 25.5t26 11.5q21 0 32-18 0-8 36-37.5t94-29.5q56 0 93 29.5t37 37.5q11 18 32 18 12 0 24.5-10t12.5-27q0-26-58.5-73.5z m226.5 311.5q-82 0-146-3v324q64 12 146 15v-336z m210-3q-66 3-147 3v336q81-3 147-15v-324z m63-216q0-8 36.5-37.5t93.5-29.5q56 0 93 29.5t37 37.5q11 18 32 18 15 0 25-11.5t10-25.5q0-31-59-76t-138-45q-83 0-141 47.5t-58 73.5q0 16 12 26.5t25 10.5q21 0 32-18z m148 209q-34 2-71 3.5t-76 2.5v310q44-14 80-30t67-36v-250z m63 203q59-54 89-105t37-78l11-37-137 13v207z m362-154q17-24 17-53 0-51-54.5-98.5t-104.5-47.5q-17 0-17 13 0 8 4 15l5 13q9 17 26 99.5t76 82.5q31 0 48-24z m106 328q21-29 21-66 0-54-46.5-109.5t-65.5-55.5q-17 0-19 53.5t-5.5 67.5-3.5 43q0 55 19.5 75.5t43.5 20.5q35 0 56-29z"/></svg>