<svg viewBox="0 0 2600 2760.837" xmlns="http://www.w3.org/2000/svg"><path d="M2179.5 1406q-113.5 108-271.5 108h-977v659q0 59-41.5 101.5t-102.5 42.5h-93q-61 0-102.5-42.5t-41.5-101.5v-762q-85-50-134-133.5t-49-178.5q0-67 23.5-126.5t65.5-107.5q0-64 21.5-110t72.5-78v-7q0-59 42.5-102t101.5-43h93q59 0 101.5 43t42.5 102v62h25q31-44 83-69.5t118-25.5q69 0 124 21.5t115 73.5h24q32-44 83.5-69.5t118.5-25.5q59 0 114.5 19.5t108.5 63.5l17 13q57 5 106.5 23t92 47 73.5 47.5 76.5 70 67.5 124.5q15 49 15 102 0 151-113.5 259z m-1685.5-426q-28 58-28 119 0 105 81.5 187.5t204.5 82.5h1082q116 0 201-79t85-191q0-75-39-135.5t-104-97.5q3 5 31.5 60.5t28.5 98.5-34 59q-8 90-75 151t-157 61q-82 0-145.5-50.5t-81.5-127.5l-9-8q-16 79-80 132.5t-148 53.5q-82 0-146-51.5t-82-126.5l-8-8q-16 80-81 133t-148 53q-80 0-142-49t-85-129l-31-33-34-37q-16-17-29.5-32.5t-26.5-35.5z m340 534h-8q-49 0-93.5-10.5t-83.5-30.5v700q0 19 13.5 33t31.5 14h93q20 0 33.5-14t13.5-33v-659z m113.5-337.5q43.5-41.5 49.5-99.5-62-28-110.5-73t-68.5-93q-53 8-92 50.5t-39 101.5q0 62 46.5 108.5t108.5 46.5 105.5-41.5z m461.5 3q45-38.5 51-102.5-78-42-114-76.5t-64-89.5q-54 8-92 51t-38 101q0 62 46.5 108.5t108.5 46.5q57 0 102-38.5z m466-350.5q-23-23-47-45t-51-40-58-30q-32-12-70-15 31 12 52 26 21 15 36 33 15 19 26 42 11 24 23 55 10 29 29 57 19 29 45 53 25 25 55 43t63 24q0-19-9-46t-23-56q-14-28-33-55-19-26-38-46z m-486-23q-39-39-89.5-70.5t-114.5-36.5q58 27 85.5 55.5t41 71 39.5 87 79 78.5q-27-40-36-73t-9-75q0-8 2-18t2-19z m-465 0q-53-52-99.5-77.5t-102.5-29.5q99 43 128.5 136.5t115.5 155.5q-31-46-38.5-74.5t-7.5-73.5q0-8 2-18t2-19z m-230-182q-20 0-35 17 9-2 17.5-3t16.5-1q70 0 141 29 0-15-13-28.5t-39-13.5h-88z"/></svg>