<svg viewBox="0 0 2600 2760.837" xmlns="http://www.w3.org/2000/svg"><path d="M1177 527q11 0 18 7t7 18v219q0 11-7 18.5t-18 7.5h-352v985q0 11-8 18t-18 7h-225q-11 0-18-7t-7-18v-985h-352q-10 0-18-7.5t-8-18.5v-219q0-11 8-18t18-7h980z m1251 1247q0 11-7 20t-19 9h-215q-10 0-17.5-7t-8.5-18l-42-508-163 514q-6 19-22 19h-161q-8 0-15.5-4.5t-10.5-14.5l-162-514-42 508q0 11-8 18t-18 7h-214q-11 0-18.5-7.5t-7.5-21.5l86-1217q2-9 9-16.5t17-7.5h229q21 0 26 19l208 808 209-808q5-19 26-19h228q10 0 17.5 5t8.5 19z"/></svg>