<svg viewBox="0 0 2600 2760.837" xmlns="http://www.w3.org/2000/svg"><path d="M2262 1946.5q-149 257.5-406.5 406.5t-555.5 149q-299 0-556.5-149t-406.5-406.5-149-556.5q0-298 149-555t406-406.5 557-149.5q298 0 555.5 149t406.5 406.5 149 555.5q0 299-149 556.5z m-140.5-1034q-129.5-221.5-349.5-347.5t-472-126q-254 0-475.5 128t-349 348.5-127.5 474.5 127.5 475.5 349 349 475.5 127.5q252 0 472.5-126t349.5-348.5 129-477.5q0-256-129.5-477.5z m-935.5 214.5h228v831h-228v-831z m205.5-132q-31.5 29-91.5 29t-91.5-28-31.5-83q0-56 30.5-83.5t92.5-27.5q59 0 91 26.5t32 84.5q0 53-31.5 82z"/></svg>