<svg viewBox="0 0 2600 2760.837" xmlns="http://www.w3.org/2000/svg"><path d="M2177 1256v302h-125q-29 161-120.5 300t-225.5 229v353h-924v-353q-165-111-262.5-292t-97.5-388q0-203 94.5-382t265.5-296v-355h924v353q137 94 227 232.5t119 296.5h125z m-1296-495.5q-172 96.5-276 270t-104 376.5q0 196 98 367.5t270 273.5 375 102q198 0 372-101t272.5-273 98.5-369q0-199-101-372t-273.5-272-368.5-99q-191 0-363 96.5z m916 260.5l61 105-488 280q0 53-37.5 90t-88.5 37q-49 0-87.5-36.5t-38.5-92.5l-286-166 60-104 288 166q14-8 30.5-13t33.5-5q19 0 35.5 5t30.5 13z m-518 354.5q-13-15.5-35-15.5-20 0-34 15t-14 32q0 20 14 34t34 14 34-14 14-34q0-16-13-31.5z m641-2q13 13.5 13 33.5t-13 34-33 14q-19 0-33.5-14t-14.5-34q0-19 14.5-33t33.5-14q20 0 33 13.5z m-387.5-555.5q14.5-14 33.5-14 20 0 33.5 14.5t13.5 32.5q0 20-14 34t-33 14q-17 0-32.5-13t-15.5-34q0-20 14.5-34z m-643.5 67q-14-14-14-34 0-18 13.5-32.5t33.5-14.5q19 0 33.5 13t14.5 35q0 19-14 33t-34 14q-19 0-33-14z m321-153.5q14-13.5 34-13.5t34 13.5 14 34.5q0 20-14 33t-34 13-34-13-14-33q0-21 14-34.5z m-490.5 389.5q-14.5 13-31.5 13-22 0-35-15.5t-13-32.5q0-21 15.5-34.5t32.5-13.5 31.5 14 14.5 34q0 22-14.5 35z m-84.5 320q-14 14-34 14t-33-14-13-34 13-33.5 33-13.5 34 13.5 14 33.5-14 34z m84.5 253q14.5 13 14.5 35 0 17-12 32.5t-34 15.5q-19 0-33.5-13t-14.5-35q0-19 13.5-33.5t34.5-14.5q17 0 31.5 13z m236.5 303q-14 14-33 14-20 0-34-14t-14-32q0-20 14-34t33-14q17 0 32.5 13t15.5 33-14 34z m322 86.5q-14 13.5-34 13.5t-34-13.5-14-33.5 14-33.5 34-13.5 34 13.5 14 33.5-14 33.5z m321-152.5q14 14 14 34 0 18-14 32t-34 14q-18 0-32.5-12.5t-14.5-33.5q0-19 14-33.5t34-14.5q19 0 33 14z m233.5-167q-15.5 13-32.5 13-22 0-35-15.5t-13-32.5q0-22 15.5-35t32.5-13q19 0 33.5 14t14.5 34q0 22-15.5 35z"/></svg>