<svg viewBox="0 0 2600 2760.837" xmlns="http://www.w3.org/2000/svg"><path d="M1995 2214q42 9 69.5 42.5t27.5 78.5q0 52-36.5 88t-88.5 36h-1335q-52 0-88.5-37t-36.5-87q0-44 27-77t69-44q6-284 95.5-452t241-245.5 165.5-104.5 14-47q0-69-107.5-115t-200-130.5-149-237.5-59.5-379q-42-11-69-44t-27-77q0-51 37.5-87.5t87.5-36.5h1335q50 0 87.5 35.5t37.5 88.5q0 45-27.5 78.5t-69.5 42.5q-6 293-95.5 462.5t-244.5 249-166 107.5-11 43q0 69 105.5 114t199 129 150 233.5 62.5 372.5z m-959-658q-122 64-166 106t-83 100.5-70.5 171-35.5 277.5h1234q-6-268-89.5-420.5t-255-228.5-171.5-197q0-114 144-182.5t216.5-149.5 112.5-207.5 45-314.5h-1236q3 174 40 302.5t109.5 214 219.5 154.5 147 183q0 51-28 93t-97 78z m485 66q124 63 173.5 117t88 147.5 51.5 254.5h-1072q14-191 75.5-307t172.5-177l66-35h445z"/></svg>