<svg viewBox="0 0 2600 2760.837" xmlns="http://www.w3.org/2000/svg"><path d="M1355 630q221 13 411.5 131.5t303 318 112.5 430.5q0 143-42.5 271.5t-118.5 237.5l53 259q2 5 2 12t1 25q0 59-32.5 93t-96.5 34l-659-5-657 5q-64 0-97.5-33.5t-33.5-93.5q0-16 1.5-23t3.5-14l58-281q-70-106-108-228.5t-38-258.5q0-228 110.5-426.5t301.5-319 414-134.5v-125h-75v-125h263v125h-77v125z m607.5 499.5q-102.5-177.5-281-280.5t-381.5-103q-204 0-382.5 102.5t-280 281-101.5 380.5q0 207 104 384.5t280.5 279 379.5 101.5q205 0 382.5-103.5t280-282 102.5-379.5q0-203-102.5-380.5z m-603.5 269.5q32 15 49.5 46t17.5 65q0 54-34.5 89.5t-96.5 35.5l-140 244-106-60 143-246q-8-14-13-30.5t-5-33.5q0-34 18-62.5t47-45.5v-541h120v539z m-26 145q14-14 14-34 0-18-15-33t-32-15q-20 0-34 14t-14 34q0 21 15 34.5t33 13.5q19 0 33-14z m643-1q-13 15-33 15-21 0-34.5-14t-13.5-34 13.5-34 34.5-14q17 0 31.5 14t14.5 34q0 18-13 33z m-323.5-554q-14.5 13-31.5 13-22 0-35-15.5t-13-32.5q0-23 16-34.5t33-11.5q19 0 32 13.5t13 34.5q0 20-14.5 33z m-639.5-2.5q-13 15.5-35 15.5-17 0-31.5-12.5t-14.5-33.5q0-19 12.5-33.5t32.5-14.5q19 0 34 12t15 34q0 17-13 32.5z m810 236q-15-13.5-15-34.5 0-18 14-32t33-14q22 0 35 14.5t13 31.5q0 18-12.5 33t-34.5 15q-18 0-33-13.5z m-1047 1.5q-15 12-33 12-22 0-34.5-15t-12.5-33q3-21 16-33.5t33-12.5q19 0 32.5 13.5t13.5 34.5q0 22-15 34z m-84.5 319.5q-12.5 13.5-31.5 13.5-21 0-35.5-13.5t-14.5-33.5q0-17 13.5-32.5t34.5-15.5q20 0 33 14t13 34-12.5 33.5z m83.5 254q14 13.5 14 33.5 0 16-10 32t-35 16q-23 0-35.5-15t-12.5-30q0-19 12.5-34.5t34.5-15.5q18 0 32 13.5z m236 304q-15 11.5-34 11.5-21 0-33-14.5t-12-33.5q0-22 14.5-34t31.5-12q18 0 33 14t15 34q0 23-15 34.5z m321 85q-15 13.5-32 13.5-20 0-34-13.5t-14-33.5 14-34 34-14 33.5 14 13.5 34-15 33.5z m320.5-154.5q14.5 13 14.5 33 0 19-12 33.5t-33 14.5q-17 0-33-11.5t-16-34.5q0-18 14-33t34-15q17 0 31.5 13z m236.5-166.5q-14 13.5-34 13.5-23 0-34-16.5t-11-35.5 14.5-31 31.5-12q19 0 33 14t14 34-14 33.5z m-1490.5-1262q29.5-61.5 86.5-115.5-3-7-4-14t-1-14q0-32 23-56t55-24q30 0 54 21 85-40 163-40 114 0 190 67t76 88q0 4-1.5 8.5t-6.5 6.5l-569 392q-8 6-12 7.5t-7 1.5q-19 0-47.5-66t-28.5-132q0-69 29.5-130.5z m1168.5-72.5q-8-5-8-15 0-24 77-89.5t188-65.5q79 0 164 40 24-21 53-21 32 0 55 24t23 56q0 7-1 14t-4 14q57 55 86.5 116.5t29.5 130.5q0 66-28.5 131.5t-47.5 65.5q-6 0-11-4z"/></svg>