<svg viewBox="0 0 2600 2760.837" xmlns="http://www.w3.org/2000/svg"><path d="M1993 2212q43 10 70.5 43.5t27.5 78.5q0 52-36 88t-88 36h-1334q-52 0-88.5-37t-36.5-87q0-45 27-77.5t69-42.5q7-287 98.5-454.5t241-243 162.5-103 13-47.5q0-70-106.5-115.5t-199.5-129.5-149.5-237.5-60.5-378.5q-41-10-68-42.5t-27-77.5q0-50 36.5-87t88.5-37h1334q52 0 88 36t36 88q0 44-27.5 78t-70.5 42q-4 291-94.5 461t-243.5 248-165.5 106-12.5 46q0 68 107.5 114.5t198.5 129.5 147.5 232 62.5 370z m-1311-2h1233q-4-177-43-303.5t-110-207.5-217-150.5-146-182.5q0-121 171-197.5t255-229 90-425.5h-1233q4 270 85.5 421.5t220.5 216 174 109 35 105.5q0 119-174 196.5t-254.5 232.5-86.5 415z m1121-292q16 46 26 103.5t15 129.5h-1090q4-72 14.5-129.5t26.5-103.5h471v-552q0-68-38-128.5t-132-108.5l-53-27q-27-14-55.5-31.5t-57.5-41.5h736q-47 39-191.5 116.5t-144.5 220.5v552h473z"/></svg>