<svg viewBox="0 0 2600 2760.837" xmlns="http://www.w3.org/2000/svg"><path d="M1642 1753.5q-143 141.5-342 141.5-201 0-343-142t-142-343 142-343 343-142q199 0 342 141.5t143 343.5-143 343.5z m-447-916.5q-13 0-21-9.5t-8-20.5q0-7 1-9l106-284q7-19 27-19t27 19l105 284 1 9q0 11-8 20.5t-21 9.5h-209z m437 94q-9-7-9-21 0-17 17-26l274-127q4-2 12-2 11 0 20 8t9 21q0 3-1 6l-2 6-126 274q-7 14-20 17-18 0-28-9z m564 452q19 7 19 27t-19 27l-284 106-9 1q-13 0-21.5-8t-8.5-22v-208q0-11 8-20t19-9q8 0 12 1z m-244 641l2 6q0 4 1 7 0 12-8 20.5t-21 8.5q-6 0-12-3l-274-126q-17-7-17-26 0-13 9-21l146-148q9-9 22-9 17 0 26 17z m-548-41q11 0 20 9.5t9 20.5q0 7-1 11l-105 282q-3 9-10.5 14t-16.5 5-16.5-5-10.5-14l-106-282q0-3-1-10 0-12 8-21t21-10h209z m-436-93q9 8 9 21 0 8-5.5 15.5t-12.5 10.5l-273 126q-6 3-12 3-14 0-22-8t-8-21l1-7q0-3 2-6l126-274q7-17 26-17 13 0 21 9z m-282-347l-282-106q-9-3-14-10.5t-5-16.5 5-16.5 14-10.5l288-107h5q13 0 21 9.5t8 20.5v208q0 13-8 21.5t-21 8.5z m-39-747q-3-4-3-12 0-14 9.5-21.5t20.5-7.5q8 0 12 2l273 127q7 3 12.5 10t5.5 16q0 14-9 21l-148 147q-8 9-20 9-19 0-27-17z"/></svg>