<svg viewBox="0 0 2600 2760.837" xmlns="http://www.w3.org/2000/svg"><path d="M2052 1756q16 45 20 91t4 92q0 40-1.5 79.5t-1.5 79.5q0 73-37 102t-122 29h-1235q-85 0-123-29t-38-102q0-40-1.5-79.5t-1.5-78.5q0-121 30.5-202.5t139.5-446.5q127-34 202.5-99.5t75.5-147.5q0-29-5.5-55t-13.5-51q64-33 153-49.5t196-16.5q127 0 217.5 17.5t144.5 48.5q-8 25-13.5 51t-5.5 55q0 80 73 145.5t198 99.5q35 118 72 234z m-807-457q12 10 47 10 46 0 60.5-8.5t14.5-39.5q0-26-15-36.5t-47-10.5q-51 0-61.5 10.5t-10.5 32.5q0 32 12 42z m-1.5 152.5q12.5 12.5 68.5 12.5 33 0 45.5-11t12.5-41q0-27-15.5-39.5t-50.5-12.5q-52 0-62.5 11t-10.5 33q0 35 12.5 47.5z m-3 167.5q13.5 13 64.5 13 40 0 54-11t14-44q0-28-16-43.5t-77-15.5q-26 0-39.5 12.5t-13.5 40.5q0 35 13.5 48z m-166.5 77.5q-43-4.5-48-5.5-33 0-48 16.5t-15 59.5q0 26 12 37.5t42 11.5q60 0 80-12.5t20-60.5q0-42-43-46.5z m34.5-166.5q-16.5-12-65.5-12-30 0-47.5 13t-17.5 53q0 31 15.5 39.5t57.5 8.5q51 0 62.5-19t11.5-49q0-22-16.5-34z m22.5-114q0-6 1-14 0-26-19-34t-45-8q-45 0-61 12t-16 48q0 31 18.5 37.5t59.5 6.5q31 0 44.5-9.5t15.5-25.5z m-9.5-194q-16.5-8-42.5-8-39 0-57 8.5t-18 40.5q0 25 9.5 35.5t38.5 10.5q59 0 72.5-12t13.5-44q0-23-16.5-31z m255.5 541v-13q0-50-44-54t-49-5q-31 0-45 14t-14 40q0 41 11.5 56t46.5 15q66 0 80-13.5t14-39.5z m88-489q2 20 17.5 27.5t42.5 7.5q43 0 57.5-8t14.5-35q0-26-14.5-39t-51.5-13q-35 0-52 6t-17 29q0 8 1 14z m17 175q13 15 72 15 31 0 43-9.5t12-36.5-14-42.5-55-15.5q-43 0-57 7t-14 32q0 35 13 50z m8 167.5q13 15.5 68 15.5 36 0 51-9t15-40q0-37-17-51t-80-14q-13 0-31.5 7.5t-18.5 34.5q0 41 13 56.5z m51 74.5q-26 0-41 11.5t-15 35.5q0 43 13.5 60.5t50.5 17.5q49 0 69.5-7.5t20.5-33.5q0-52-16.5-67t-43.5-15q-21 0-38-2z m753-678v18q0 97-60.5 149.5t-168.5 52.5-229.5-53.5-121.5-136.5q0-27 10.5-55t10.5-54q0-69-131-105t-313-36q-153 0-290 37t-137 103q0 26 10 54.5t10 55.5q0 77-114.5 133.5t-235.5 56.5q-108 0-168.5-53t-60.5-149q0-255 285-410.5t709-155.5q409 0 688 143.5t305 386.5z"/></svg>