<svg viewBox="0 0 2600 2760.837" xmlns="http://www.w3.org/2000/svg"><path d="M2048 1205q117 0 201 84t84 201q0 116-84 200t-201 84q-23 0-45-3t-43-11q-35 121-134 196t-222 75q-63 0-120-20t-103-55q-61 50-136.5 78t-160.5 28q-138 0-253-73.5t-172-195.5q-11 0-30 1-155 0-258.5-103.5t-103.5-248.5q0-140 98-242t236-108q12-120 104-207t218-87q41 0 78 10t70 27q52-65 127-103t165-38q115 0 210 65t137 167q23-4 54-4 116 0 200 83.5t84 199.5z m116.5 166.5q-50.5-48.5-116.5-48.5-49 0-83.5-35t-34.5-83q0-68-49-116.5t-117-48.5q-13 0-27 2t-27 2q-77 0-111.5-76t-98.5-116-137-40q-58 0-110 25t-89.5 70.5-92.5 45.5q-27 0-66-18.5t-82-18.5q-72 0-131 47.5t-74 141-102 102.5-138.5 48.5-75.5 98.5q-17 42-17 88 0 97 68.5 166t171.5 69q13 0 20-2 92 0 126.5 77t121.5 134.5 191 57.5q65 0 121.5-22t94.5-53 81-31q41 0 93.5 38t129.5 38 145-47 98-136 113-89q22 0 43.5 7t44.5 7q67 0 117-48t50-118-50.5-118.5z"/></svg>