<svg viewBox="0 0 2600 2760.837" xmlns="http://www.w3.org/2000/svg"><path d="M1848 1346q197 21 276 94t79 208q0 71-25 131.5t-72.5 117-112.5 99.5-137 69-131.5 32-82 26.5-34.5 28.5l-49 31q-100 60-194.5 84.5t-198.5 24.5q-195 0-322.5-54t-226.5-157-155-221.5-56-295.5q0-132 46-216t152.5-161 237-104.5 314.5-27.5q189 0 342 59.5t247 154.5l64 65q8 8 19 9z m211.5 168.5q-44.5-50.5-129-69.5t-135.5-21-77.5-46.5-107.5-101.5-208.5-94.5-280.5-37.5q-289 0-449.5 105.5t-160.5 325.5q0 237 163 428.5t494 191.5q88 0 204.5-37t183.5-87.5 74.5-50.5 76-9 147.5-44 140.5-92.5 85.5-115.5 24-100q0-94-44.5-144.5z m-613 100q-122.5 76.5-329.5 76.5-108 0-217-26.5t-173.5-87-64.5-132.5q0-108 137.5-179t359.5-71q180 0 295 76t115 167q0 100-122.5 176.5z m454.5 222q-92 85.5-209 85.5-27 0-27-11 0-10 26.5-75.5t47-169 20.5-113.5q0-5 2-7 2-6 13-8t25-2q109 0 151.5 32.5t42.5 92.5q0 90-92 175.5z m-23-199.5q-19-15-38-15-5 0-13 2-2 19-9 53l-15 65q-4 17-10 33.5t-11 33.5l-2 5q-2 3-2 6 0 6 8 6t21.5-9 23.5-17l8-7q22-19 40-49t18-65q0-27-19-42z m-318-1098q63 10 126 10 100 0 172.5-38t97.5-105 59-67q21 0 33.5 56t12.5 116q0 169-99 277.5t-274 108.5q-51 0-129.5-11.5t-129.5-11.5q-112 0-206 27t-145 75l-25 23q-14 14-30 14-22 0-31-18.5t-9-53.5q0-120 60.5-220.5t174-146 216.5-45.5q63 0 126 10z m-503 368q45-45 118-87t212-42q52 0 145.5 14.5t148.5 14.5q95 0 167-49t106-125 34-111q0-12-6-12t-25.5 29-82 61.5-151.5 32.5q-69 0-136.5-10t-136.5-10q-127 0-213.5 40.5t-134 123.5-47.5 123q0 7 2 7z"/></svg>