<svg viewBox="0 0 2600 2760.837" xmlns="http://www.w3.org/2000/svg"><path d="M1401 801q234 19 433 119.5t313.5 262 114.5 345.5q0 51-6.5 74t-35.5 23q-22 0-41-26.5t-85.5-65-152.5-38.5q-71 0-131 27.5t-99 68-51.5 67.5-38.5 27q-28 0-42-30.5t-61-75-115-66.5v584q0 142-102.5 244.5t-245.5 102.5q-94 0-175-48t-123-122-42-117q0-39 28-68.5t71-29.5q31 0 58.5 19.5t38.5 61.5 51.5 75 92.5 33q62 0 106.5-44.5t44.5-106.5v-587q-74 22-124 69.5t-62.5 76-40.5 28.5q-27 0-38.5-26.5t-51-67-100.5-68-130-27.5q-83 0-148.5 36.5t-86.5 65-44 28.5-32.5-26-9.5-71q0-184 115-345t315.5-263 439.5-119l15-211q2-31 25.5-51.5t58.5-20.5q31 0 53.5 20.5t24.5 51.5z m269.5 206q-14.5 19-51.5 105t-37 148q0 48 34.5 82.5t82.5 34.5 82.5-34.5 34.5-82.5q0-58-43.5-165t-73.5-107q-14 0-28.5 19z m124-561.5q43.5-105.5 73.5-105.5 29 0 72.5 107.5t43.5 164.5q0 48-34 82.5t-82 34.5q-49 0-83-34t-34-83q0-61 43.5-166.5z m-1179.5 35.5q30-76 49.5-108.5t37.5-32.5q30 0 73.5 107t43.5 165q0 46-33.5 81.5t-83.5 35.5-83.5-35.5-33.5-81.5q0-55 30-131z"/></svg>