<svg viewBox="0 0 2600 2760.837" xmlns="http://www.w3.org/2000/svg"><path d="M2108.5 1900q-125.5 217-342.5 342.5t-466 125.5-466-125.5-342.5-342.5-125.5-466 125.5-466 342.5-342.5 466-125.5 466 125.5 342.5 342.5 125.5 466-125.5 466z m-101.5-873q-110-190-300-300t-407-110q-213 0-402 106.5t-302 297-113 413.5q0 220 110 408.5t298.5 298.5 408.5 110q223 0 413.5-113t297-302 106.5-402q0-217-110-407z m-1130.5 109q40.5-50 98.5-50t99 49.5 41 117.5q0 69-41.5 117.5t-98.5 48.5-98-48.5-41-117.5q0-67 40.5-117z m648 0q40.5-50 98.5-50t99 49.5 41 117.5q0 69-41.5 117.5t-98.5 48.5-98-48.5-41-117.5q0-67 40.5-117z m211.5 640q-96 107-214 147t-222 40q-106 0-222.5-40t-213.5-146-97-184q0-20 12.5-34t35.5-14q34 0 96 67.5t163 115 226 47.5q120 0 221-45t165-115 98-70q20 0 34 12.5t14 35.5q0 76-96 183z"/></svg>