<svg viewBox="0 0 2600 2760.837" xmlns="http://www.w3.org/2000/svg"><path d="M884 2217q-209-45-432-144l130-264q172 75 355.5 117t362.5 42q69 0 138-10t136-27q-93-62-149-164.5t-56-219.5q0-190 136.5-326t324.5-136q190 0 326 136t136 326q0 200-130 362.5t-365.5 257.5-496.5 95q-207 0-416-45z m828-553q49 50 118 50 70 0 119-50t49-117q0-66-49-116.5t-119-50.5-118.5 50.5-48.5 116.5q0 67 49 117z m-1268.5-797.5q136.5-163.5 369-255t487.5-91.5q211 0 432.5 50t415.5 139l-131 264q-238-98-402-128.5t-315-30.5q-70 0-139 10t-135 27q95 64 149.5 166t54.5 218q0 190-136 326t-324 136q-189 0-326-136t-137-326q0-205 136.5-368.5z m443.5 250q-49-48.5-117-48.5-70 0-118.5 48.5t-48.5 118.5q0 68 48.5 117.5t118.5 49.5q69 0 117.5-49.5t48.5-117.5q0-70-49-118.5z"/></svg>