<svg viewBox="0 0 2600 2760.837" xmlns="http://www.w3.org/2000/svg"><path d="M2105.5 2068.5q-143.5 143.5-342.5 143.5-75 0-142-21t-125-58q-60 121-179.5 194t-257.5 73v-276q88 0 152-64t64-152v-903q0-88-64-152t-152-64q-89 0-153 63.5t-64 152.5v721h-275v-721q0-88-64-152t-152-64v-276q104 0 195 41t158 111q68-70 158.5-111t196.5-41q202 0 347 145t145 347v282q48-23 101-35.5t111-12.5q200 0 343 143.5t143 343.5q0 199-143.5 342.5z m-193-492.5q-61.5-63-149.5-63-89 0-150.5 62.5t-61.5 150.5q0 86 61.5 148.5t150.5 62.5q88 0 149.5-62.5t61.5-148.5q0-87-61.5-150z"/></svg>