<svg viewBox="0 0 2600 2760.837" xmlns="http://www.w3.org/2000/svg"><path d="M831 1817q12-25 21.5-74.5t9.5-117.5q0-149-49.5-309.5t-49.5-281.5q0-131 53-230t136-153 107-54q8 0 14.5 4.5t6.5 14.5q0 14-11 19-11 0-38 53.5t-27 165.5q0 137 42 302t42 273q0 155-64.5 268.5t-176.5 167.5q-2 0-4.5 1t-4.5 1q-8 0-14-6t-6-14 4-13z m361-500q-49-159-49-282 0-130 52.5-230t135-154 108.5-54q9 0 14.5 6t5.5 14q0 13-18.5 25.5t-38.5 65-20 147.5q0 138 42 301.5t42 274.5q0 127-44 227.5t-113.5 154.5-90.5 54q-9 0-15.5-6.5t-6.5-15.5q0-6 9.5-20.5t22.5-67.5 13-132q0-149-49-308z m388 517q16-32 28.5-84t12.5-123q0-147-50-307t-50-286q0-130 52.5-229t135.5-153.5 108-54.5q9 0 15.5 5.5t6.5 14.5q0 11-18 23t-38.5 64.5-20.5 149.5q0 137 41.5 299.5t41.5 275.5q0 131-45.5 230.5t-113.5 152.5-82 53q-2 0-4 1t-4 1q-7 0-13.5-6t-6.5-14 4-13z m524 208.5q-124 130.5-338.5 206.5t-465.5 76-466-76.5-339-207-124-280.5q0-79 33-150t92-131.5 72-65 23-4.5q14 0 24 9t10 24q0 16-31.5 72.5t-31.5 124.5q0 181 217 312t521 131q199 0 373.5-61.5t270-164 95.5-217.5q0-51-20-97.5t-31.5-62.5-11.5-37q0-15 9-24t23-9q41 0 130.5 111t89.5 240q0 151-124 281.5z"/></svg>