<svg viewBox="0 0 2600 2760.837" xmlns="http://www.w3.org/2000/svg"><path d="M2205 1960q-142 244-385 382.5t-520 138.5q-278 0-521-139t-384.5-383-141.5-525q0-278 139-521t382.5-385 525.5-142q281 0 525 142t383 385 139 521q0 282-142 526z m-197-346q61-37 116.5-83.5t104.5-105.5q0-108-23.5-200.5t-34-111.5-72-76.5-140.5-106.5q-39 36-89 69t-80.5 55.5-63.5 31.5q3 31 5 71.5t2 88.5q0 41-2 85.5t-6 94.5q64 18 158.5 79.5t124.5 108.5z m-1637-177q0 171 58.5 323.5t160.5 273.5q20-5 39-9t39-9q-26-59-47-138.5t-25-172.5q-49-32-98.5-101t-78.5-168h-23q-12 0-25 1z m284-671q-17 65-23 122.5t-6 101.5v21q0 10 1 18 56 5 105 18t102 26l22 6q11 4 22 9 89-89 197-148.5t222-88.5q-2-13-2-25v-23q0-48 8.5-114t26.5-101q-67-30-135.5-49t-88.5-15-89.5 24-149.5 63q-117 63-212 155z m463 1478q100-29 179-71.5t141-93.5q-33-65-67-169.5t-38-146.5q-124-23-241.5-71.5t-206.5-109.5q-28 19-59 32.5t-58 29.5l-58 31q-30 16-55 26 5 97 29 179.5t52 141.5l22 16q19 15 95.5 63t264.5 143z m548-817q4-48 6-91.5t2-82.5q0-51-2.5-94.5t-5.5-76.5q-12-6-49-26l-84-46q-117-63-155-80t-41-19l-14-7q-112 27-214 84t-187 139q3 8 4 16v17q0 63-2 126t-2 126q0 30 2 60.5t2 65.5q81 55 193.5 101t227.5 66q81-113 187.5-190t131.5-88z m431-471q-67-111-164-201 16 19 34.5 58t18.5 64q25 15 53.5 34.5t57.5 44.5z m-538-415q-62-17-126.5-27t-136.5-10q-9 0-14 1 30 11 55.5 21.5t47.5 21.5q5-2 30.5-5t85.5-3h28q14 0 30 1z m-981 308q-90 111-143 245t-62 284h20q9 0 19-1 5-80 60.5-185.5t95.5-142.5q0-11-1-25v-27q0-31 2.5-67.5t8.5-80.5z m625 1509q23 3 47.5 4t49.5 1q178 0 333.5-61.5t280.5-169.5q-19-21-34.5-40t-26.5-34q-56 31-148.5 50t-192.5 19q-10 0-19-1h-19q-80 65-159.5 104.5t-144.5 59.5z m755-269q112-112 182.5-258t85.5-315q-57 58-117.5 102t-97.5 61q-5 85-36.5 180t-75.5 159q10 14 25 33t34 38z"/></svg>