<svg viewBox="0 0 2600 2760.837" xmlns="http://www.w3.org/2000/svg"><path d="M1773 1687v277q0 46 33 79t79 33h97v295h-97q-167 0-287-120t-120-287v-352l-360-93v445q0 46 33 79t79 33h97v295h-97q-168 0-287.5-120.5t-119.5-286.5v-522q-23-6-40-7l-23-1q-64 0-98.5 34.5t-34.5 82.5q0 50 36 84l-204 212q-62-59-94-135t-32-161q0-165 120-288.5t285-123.5q21 0 41.5 1t43.5 4v-578h295v648l360 94v-742h295v821q19 5 37.5 6.5t25.5 1.5q58 0 97.5-33t39.5-85q0-23-9.5-44.5t-26.5-38.5l204-213q61 60 93.5 135.5t32.5 160.5q0 177-126.5 295.5t-310.5 118.5q-12 0-26-1.5t-31-2.5z"/></svg>