<svg viewBox="0 0 2600 2760.837" xmlns="http://www.w3.org/2000/svg"><path d="M2247 1355l-258 200q38 73 56.5 148.5t18.5 149.5q0 182-102 339.5t-277.5 242.5-396.5 85-397.5-85-278-242.5-101.5-339.5q0-81 22-162.5t67-159.5l-249-223q-18-18-18-38 0-22 15.5-37t36.5-15q19 0 34 12l101 90 21-74q5-17 18.5-27.5t30.5-10.5q23 0 37.5 14.5t14.5 36.5v7q0 3-1 8l-34 124 52 46q26-38 64.5-74.5t80.5-68.5q-57-73-89-161.5t-32-187.5q0-241 180.5-415t435.5-174q253 0 434.5 173.5t181.5 415.5q0 103-34.5 194.5t-95.5 166.5q86 68 148 152l67-50-21-130-1-9q0-20 16-36t38-16q18 0 32.5 12t17.5 32l11 74 91-70q14-11 31-11 20 0 36 15.5t16 36.5q0 27-20 42z m-339 325q-32-88-85-156t-108-108-55-103q0-47 36-88.5t65-114.5 29-158q0-192-145.5-329t-345.5-137q-201 0-346 137t-145 329q0 82 28 153.5t60.5 111 32.5 85.5q0 62-58 106.5t-110.5 106-89.5 151-37 187.5q0 153 89.5 282t238.5 195 326 66q175 0 323.5-65t238.5-193.5 90-282.5q0-87-32-175z m-476.5-502q-5.5 6-41.5 9.5t-89 3.5q-43 0-79.5-3t-59-4.5-22.5-42.5q0-13 2.5-24.5t13.5-11.5q41 0 81 1t81 1q23 0 46-1t48-1q14 0 19.5 6t5.5 26q0 35-5.5 41z m116.5-150.5q-23 29.5-55 29.5-33 0-59-27t-26-69q0-43 23-72t55-29 58.5 27 26.5 69-23 71.5z m-382-66.5q-2 41-26 68.5t-58 27.5q-31 0-55-28t-24-68q0-42 23.5-71.5t58.5-29.5q34 0 57.5 30t23.5 71z"/></svg>