<svg viewBox="0 0 2600 2760.837" xmlns="http://www.w3.org/2000/svg"><path d="M2414 625.5q-11 43.5-31 88.5-20-12-44-28t-47-36l-41-36q-74-63-144.5-142.5t-99.5-132.5q45-20 88.5-31.5t85.5-11.5q102 0 173 70.5t71 173.5q0 42-11 85.5z m-166 129.5q25 20 46.5 33.5t39.5 21.5q-45 75-102.5 145t-119.5 132l-355 355q-4 4-13 4-18 0-49-16.5t-73-48.5z m-747 524q-105-103-165.5-185t-60.5-117q0-9 6-13l353-354q63-63 134-120t144-102q22 48 78 116.5t136 148.5z m41 182l28 19q32 23 54.5 34t39.5 11q3 0 7-1t6-3v2l-74 74q-6 5-14 5t-16-2.5-18-7.5l-484 484q-4 4-12 4-14 0-35.5-10.5t-49.5-30.5q-9 26-15 83t-63.5 153.5-191.5 154-234.5 70-180.5 29.5l-54 11q-23 5-27 5-11 0-21.5-6t-10.5-20q0-4 5-26l11-53h-1q22-103 30-173t38.5-164.5 81-172 132-119 131.5-47 79-15.5q-20-28-30.5-50.5t-10.5-36.5q0-6 4-12l484-482q-5-11-7.5-19t-2.5-16q0-7 6-13l72-74 2 1q-2 3-2 11 0 36 60 116t164 184l-65 65 121 102z m-673 646l5-36q3-19 8.5-40t17.5-48q-41-34-83.5-77t-77.5-83q-41 19-94 24.5t-111 34-87.5 58.5-61 90.5-55.5 156.5-34 193l206-207q-8-19-8-39 0-39 28.5-66.5t64.5-27.5q39 0 67 28t28 67q0 36-28 64.5t-65 28.5q-21 0-40-8l-207 207q39-7 81-11t82.5-14.5 80.5-23 77.5-29.5 74-39 61.5-53.5 44.5-71.5 25.5-78z"/></svg>