<svg viewBox="0 0 2600 2760.837" xmlns="http://www.w3.org/2000/svg"><path d="M908 1927q-77-202-157-323t-190.5-230.5-266.5-202.5l-112-67 112-68q209-124 363.5-305t252.5-451q100 275 251.5 454t360.5 302l114 68-114 67q-209 125-361.5 304t-252.5 452z m-429-823q136 98 243.5 212.5t185.5 240.5q74-118 182.5-235.5t247.5-217.5q-132-93-242-211t-188-243q-82 133-191.5 248t-237.5 206z m1939 475l-126 62q-130 63-227.5 155t-172.5 264q-62-154-158-250.5t-241-168.5l-125-62 125-62q138-67 235-165.5t165-253.5q66 153 161.5 251.5t237.5 167.5z m-525 207q34-44 90.5-99t139.5-108q-83-53-139.5-108t-90.5-99q-35 44-92 99.5t-139 107.5q82 52 139 107.5t92 99.5z m-598-176q64 188 141.5 285.5t189.5 167.5l95 58-95 59q-111 69-188 166t-143 288q-63-183-140-282.5t-192-171.5l-95-59 95-58q112-70 191-170.5t141-282.5z m0 702q28-41 71.5-91.5t103.5-99.5q-59-47-102.5-96.5t-72.5-92.5q-29 43-73 92t-104 97q61 49 105 99.5t72 91.5z"/></svg>