<svg viewBox="0 0 2600 2760.837" xmlns="http://www.w3.org/2000/svg"><path d="M1413.5 1343.5q42.5 41.5 42.5 101.5 0 64-43.5 105t-101.5 41q-63 0-105.5-45t-42.5-105q0-55 44-97t104-42 102.5 41.5z m-260-929q50.5-76.5 147.5-76.5 90 0 142.5 80.5t52.5 205.5q0 99-17 206t-57.5 261-116.5 154q-51 0-90-83t-75.5-250-36.5-284q0-137 50.5-213.5z m315.5 1564.5q14 69 20.5 141.5t6.5 131.5q0 123-51.5 204.5t-143.5 81.5q-97 0-147.5-76.5t-50.5-213.5q0-75 14.5-166.5t33.5-164.5l20-78q24-92 58.5-150t75.5-58q47 0 84.5 74.5t65.5 205.5z m849-396q-82 52-208 52-58 0-141.5-8.5t-198.5-36.5l-70-16q-121-29-164.5-58.5t-43.5-70.5q0-81 234.5-142t383.5-61q132 0 211 50.5t79 146.5q0 92-82 144z m-1291-53.5q-78 37.5-198 62.5l-70 15q-67 14-139 21t-130 7q-124 0-207-51.5t-83-142.5q0-99 74-149t215-50q129 0 304 41.5t243.5 77 68.5 84.5q0 47-78 84.5z m562.5-388q1.5-7.5 107.5-153.5l83-114q81-112 155.5-210.5t154.5-98.5q46 0 81 35t35 79q0 77-96.5 150.5t-100.5 76.5l-372 273q-8 6-18 6-14 0-22.5-10t-8.5-22q0-4 1.5-11.5z m-1161-541.5q34.5-35 79.5-35 48 0 83.5 25t66.5 65l43 57 56 76 125 172 100 140q14 20 22 31t8 22q0 12-9.5 22t-21.5 10q-11 0-18-6l-371-273q-8-6-103-78.5t-95-149.5q0-43 34.5-78z m1732.5 1494q18 21 31.5 49.5t13.5 53.5q0 44-35 78t-81 34q-81 0-151.5-93.5t-75.5-101.5l-83-112q-44-60-82-114l-68-95q-34-47-38-53.5t-4-16.5q0-12 9.5-22t21.5-10q2 0 8 1.5t106 74.5l164 120 160 119q29 23 54.5 42.5t31.5 25.5z m-1158.5-393q9.5 10 9.5 22 0 11-8 22t-22 30l-100 140-125 173-56 76-43 57q-36 46-74.5 67t-75.5 21q-44 0-79-33.5t-35-77.5q0-33 23-72.5t56-65.5l70-54 161-119 164-120q99-73 104.5-74.5t8.5-1.5q12 0 21.5 10z"/></svg>