<svg viewBox="0 0 2600 2760.837" xmlns="http://www.w3.org/2000/svg"><path d="M1070 1937.5q65-62.5 179-62.5 112 0 178.5 61.5t66.5 175.5q0 110-66 174.5t-176 64.5q-113 0-180-62.5t-67-176.5q0-112 65-174.5z m56.5 294q41.5 41.5 122.5 41.5 77 0 121.5-41t44.5-120q0-78-41.5-118.5t-121.5-40.5q-86 0-126.5 39.5t-40.5 119.5q0 78 41.5 119.5z m304.5-478.5h-387v-126q0-103 40.5-189.5t118-153.5 153-130 75.5-165q0-50-33.5-82t-108.5-32q-75 2-165 34t-183 78l-36 18-152-326 32-18q123-70 256.5-111t251.5-41q254 0 404.5 124t150.5 339q0 95-26.5 170t-82 140.5-157.5 146.5-126.5 115.5-24.5 99.5v109z m-308-79h229v-30q0-93 42.5-147t160-146.5 165.5-174.5 48-204q0-183-126-283t-349-100q-105 0-222 34.5t-215 87.5l86 189q97-45 183-74t164-29q102 0 161 51.5t59 140.5-38 150.5-146 143-155 160-47 184.5v47z"/></svg>