<svg viewBox="0 0 2600 2760.837" xmlns="http://www.w3.org/2000/svg"><path d="M2228 1967.5q-144 249.5-393.5 393.5t-535.5 144q-288 0-539.5-147t-392-395.5-140.5-530.5 140.5-530.5 392-395.5 539.5-147q286 0 535.5 144t393.5 393.5 144 535.5-144 535.5z m-68.5-1033q-133.5-230.5-364.5-363t-496-132.5q-262 0-491 130.5t-365.5 361.5-136.5 501q0 266 133.5 496.5t363.5 364.5 496 134 496.5-133.5 364-364.5 133.5-497q0-267-133.5-497.5z m-919.5 745.5q0 4 1 10 0 7-3 13.5t-9 9.5l-101 51q-3 0-11 1-16 0-22-14l-33-72v394q0 11-7 18t-18 7h-160q-11 0-18-7t-7-18v-375l-96 196q-3 8-10.5 10.5t-12.5 2.5q-7 0-10-2l-135-66q-14-7-14-22 0-7 3-11l225-459h-154q-11 0-18-7t-7-18v-145q0-11 7-18.5t18-7.5h204v-72l-127 39q-3 2-8 2-17 0-24-17l-48-155q0-2-1-6 0-17 18-24l466-146q2 0 4-1t4-1q9 0 14.5 6t8.5 12l48 154 1 8q0 19-17 22l-129 41v138h142q11 0 18 7.5t7 18.5v145q0 11-7 18t-18 7h-118z m744 140q11 6 11 18l-2 6-3 15q-16 66-73.5 126.5t-146.5 68.5l-27 2q-13 0-26 1-74 0-129-31t-86-86q-42 45-97.5 90.5t-70.5 45.5q-9 0-19-8l-109-124q-6-6-6-16 0-17 26-31t88.5-71.5 122.5-142.5q-15-91-31-227t-32-330q0-10 5.5-17t16.5-9l162-13q26 0 27.5 24.5t10.5 94.5l10 85q11-53 22.5-122t22.5-160q0-10 8.5-16t16.5-6q4 0 6 1l157 44q9 3 13 10.5t4 15.5q-10 120-36.5 241.5t-50.5 191.5l-15 44q-21 57-45 105t-50 92q8 59 26.5 87t65.5 28q36 0 53-28t22.5-54.5 27.5-26.5q8 0 13 4z m-652-894q-5-4-9.5-9t-4.5-11q0-3 1-7t3-7l60-111q3-6 9.5-9.5t12.5-3.5q7 0 11 2l209 114q13 7 13 23 0 8-3 11l-60 111q-3 6-9.5 10t-12.5 4-12-3z m697 725v6q0 6-5 13t-14 9l-126 22q-10 0-18-5t-10-16l-39-234q0-11 4.5-19t15.5-10l125-21q25 0 29 21z m-814-256q0-11 7-18t18-7h127q10 0 17 7t7 18v190q0 11-7 18t-17 7h-127q-11 0-18-7t-7-18v-190z"/></svg>