<svg viewBox="0 0 2600 2760.837" xmlns="http://www.w3.org/2000/svg"><path d="M2503 1767q3 9 4 17.5t1 18.5q0 27-16 57.5t-161.5 152.5-328.5 189-417 67q-147 0-310.5-22t-253.5-22q-193 0-350.5 61t-224.5 115-112 54q-46 0-78-29t-36-73l-127-1272q0-12-1-17 3-31 12.5-49.5t43-63 99.5-101.5 157-101.5 209.5-73.5 270.5-29q135 0 250 8t218 8q231 0 350-57.5t182-120.5 86.5-67.5 33.5-4.5q41 0 69.5 22.5t38.5 57.5z m-130-40l-111-361v557q29-21 55-45.5t56-54.5v-96z m-189-618l-111-361v1301q14-9 26-15l23-13q14-7 29-16t33-23v-873z m-189-574q-22 20-46.5 45t-64.5 50v1491q28-8 55.5-17t55.5-20v-1549z m-189 144l-18 8q-14 6-31 14l-34 16q-18 8-28 12v816q24 117 51.5 236.5t59.5 237.5v-1340z m-187 1475l48-3q25 0 49-2.5t40-4.5q-79-288-162-688.5t-130-683.5q-28 0-55.5 1.5t-56.5 1.5q-48 0-106-3l-231-10q-55-2-97-2-30 0-64.5 1t-57.5 3q33 319 85.5 705t102.5 643l18-1h19q85 0 251 22t310 22q14 0 37-1z m-723-86h-591l13 111h312q68-23 134-39.5t141-21.5z m-563 274q5-3 40-30t86-54h-134z m-34-352h583l-19-111h-575z m-20-190h572l-18-111h-565z m543-189l-17-110h-556l11 110h562z m-581-189h553l-13-111h-551z m-19-189h548l-13-111h-546z m103-300q-26 21-41 36t-34 39l-30 36h527l-13-111h-409z m393-161q-43 2-138.5 30.5t-131.5 52.5h278z m897-21q-19 4-37 7l-36 6 32 178q18 100 41 218v-409z"/></svg>