<svg viewBox="0 0 2600 2760.837" xmlns="http://www.w3.org/2000/svg"><path d="M2503 1767q3 9 4 17.5t1 18.5q0 29-17 59t-161.5 151.5-327.5 188.5-417 67q-94 0-169-6.5t-147-15.5l-121-15q-58-7-127-7-138 0-262 32t-218.5 84-128 83-78.5 31q-48 0-78.5-29.5t-35.5-72.5l-127-1275-1-15q0-27 12-48l22-35q43-66 145.5-148.5t261-134 351.5-51.5q135 0 250 8t218 8q228 0 349-58t182.5-120.5 86-67 34.5-4.5q39 0 68.5 22.5t39.5 57.5z m-107 34l-56-179q-13-40-35-110.5t-29-93.5l-21-71q-2-7-3-13-113 142-287 224t-359 82q-168 0-332-16.5t-252-16.5q-205 0-397 78.5t-335 221.5l44 435 48-34q132-94 295-145.5t345-51.5q94 0 253 22t310 22q250 0 437.5-82.5t373.5-271.5z m-445-300q28-14 55.5-31.5t55.5-38.5v-501q-28 27-55.5 50.5t-55.5 44.5v476z m-189 63q28-5 55.5-12t55.5-18v-459q-27 17-55 30t-56 24v435z m-1326 151q24-16 51.5-30.5t58.5-29.5v-421q-31 14-58.5 29t-51.5 31v421z m189-93q52-21 111-36v-411q-29 5-57 12.5t-54 16.5v418z m948-41q28 0 56-2l53-4v-422q-26 8-53 13t-56 9v406z m-758-14l54-8q27-4 56-7v-395q-56 0-110 6v404z m567 7l111 5v-397q-26 2-53.5 3t-57.5 1v388z m-378-26q27 0 54.5 1t56.5 3v-381q-27-2-55-5.5t-56-3.5v386z m189 11q27 0 55.5 3.5t55.5 4.5v-384l-54-2q-28 0-57-3v381z m-911 272l33-28q19-16 42-33v-419q-43 34-70 63l-41 43v18l35 350z m1858-465q9-8 43.5-45t52.5-43l-96-310v398z"/></svg>