<svg viewBox="0 0 2600 2760.837" xmlns="http://www.w3.org/2000/svg"><path d="M2503 1768q5 18 5 34 0 33-17.5 62t-159.5 149.5-326.5 188-419.5 67.5q-147 0-315-22t-249-22q-132 0-255 32t-216.5 81.5-133 84-83.5 34.5-76.5-30.5-36.5-72.5l-127-1275q0-4-1-14 3-31 12.5-49.5t43-63 99.5-101.5 157-101.5 209.5-73.5 270.5-29q135 0 250 7.5t218 7.5q232 0 351.5-57.5t181-120 85.5-67 34-4.5q41 0 69 23t39 58z m-929-825q18 100 41 217v-409q-20 5-38 8.5t-35 5.5z m-856-171q-16 2-27.5 4t-22.5 6l57 56z m-252 74l293 294-21-179-157-159q-29 11-57.5 20.5t-52.5 20.5z m-72 38l-20 12q-17 10-40 28t-31 27l496 496-25-182z m450 877l-28-186-567-569q-12 13-24 29.5t-20 32.5l6 60z m-499 573q13-11 36.5-27.5t58.5-37.5l-126-126 17 176z m166-103q25-12 52.5-24.5t58.5-23.5l-339-338 18 176z m193-75l29-8 72-16 29-5-581-580 18 177z m195-73l-35-192-641-641 18 175z m857 62q-76-277-155-650.5t-137-722.5q-26 0-54.5 2t-57.5 2q-99 0-205.5-7.5t-228.5-7.5q-30 0-61.5 1.5t-60.5 1.5q0 11 15 142t18 159l20 173q27 227 63 461t72 414l18-1h19q84 0 255.5 22t305.5 22q44 0 85.5-2.5t81.5-7.5z m50-1465l-52 24q-16 8-31.5 14.5t-27.5 10.5v817q24 117 51.5 236t59.5 238v-1340z m189-144q-12 11-47.5 43.5t-63.5 49.5v1492q28-7 55.5-16.5t55.5-20.5v-1548z m189 574l-111-363v1302q22-12 50.5-27t60.5-39v-873z m189 618l-111-361v557q20-14 49-40.5t62-59.5v-96z"/></svg>