<svg viewBox="0 0 2600 2760.837" xmlns="http://www.w3.org/2000/svg"><path d="M2222 382q46 0 79 33t33 79v1845q0 45-33.5 78t-78.5 33h-1845q-45 0-78-33t-33-78v-1845q0-45 33-78.5t78-33.5h1845z m-1659 1764q0 7 7 7h1459q8 0 8-7v-1459q0-7-8-7h-1459q-7 0-7 7v1459z m612-55l-142-185q-4-3-4-9 0-13 9-15l39-21q38-19 126.5-90.5t154.5-164.5q-32 3-62 3-210 0-349-121t-139-306 138.5-306.5 349.5-121.5q214 0 351 126.5t137 324.5q0 165-43.5 304.5t-155 282.5-241.5 224.5-155 81.5q-10 0-14-7z m1057-1629q-3 0-10-1h-1845q-14 0-23.5 9.5t-9.5 23.5v1845q0 13 9 22l154-155q-11-11-18-26.5t-7-33.5v-1459q0-37 26-62.5t62-25.5h1459q29 0 51 16z m-1073.5 590.5q-54.5 51.5-54.5 129.5 0 77 54 129t138 52 138-52 54-129q0-78-54.5-129.5t-137.5-51.5-137.5 51.5z"/></svg>