<svg viewBox="0 0 2600 2760.837" xmlns="http://www.w3.org/2000/svg"><path d="M2222 383q47 0 79.5 33t32.5 78v1845q0 45-32.5 78t-79.5 33h-1845q-47 0-79-33t-32-78v-1845q0-45 32-78t79-33h1845z m-1659 1763q0 7 7 7h1459q8 0 8-7v-1459q0-7-8-7h-1459q-7 0-7 7v1459z m1669-1684q-3 0-10-1h-1845q-14 0-23.5 9.5t-9.5 23.5v1845q0 13 9 22l154-155q-11-11-18-27t-7-33v-1459q0-37 26-62.5t62-25.5h1459q29 0 51 17z m-639 895q72 55 111.5 132.5t39.5 172.5q0 172-129 287.5t-330 115.5q-200 0-330-115.5t-130-287.5q0-95 40-172.5t112-132.5q-51-48-78.5-111t-27.5-138q0-157 117.5-259.5t296.5-102.5 296.5 102.5 117.5 259.5q0 75-28 138t-78 111z m-192.5-359q-46.5-43-115.5-43-70 0-116.5 43.5t-46.5 109.5q0 62 43.5 107.5t107.5 45.5q76 0 125-42t49-111q0-67-46.5-110z m-245.5 786.5q51 49.5 130 49.5 78 0 128.5-49.5t50.5-122.5q0-72-50-120.5t-129-48.5-130 48-51 121 51 122.5z"/></svg>