<svg viewBox="0 0 2600 2760.837" xmlns="http://www.w3.org/2000/svg"><path d="M2222 383q47 0 79.5 33t32.5 78v1845q0 45-32.5 78t-79.5 33h-1845q-47 0-79-33t-32-78v-1845q0-45 32-78t79-33h1845z m-1659 1763q0 7 7 7h1459q8 0 8-7v-1459q0-8-8-8h-1459q-7 0-7 8v1459z m667-922q215 5 355 118.5t140 302.5q0 175-146.5 287.5t-314.5 112.5q-98 0-204-34t-172-72l-39-22q-7-5-7-16l68-213q0-4 5-7.5t10-3.5q6 0 34 16.5t106 38.5 156 22q91 0 138.5-34.5t47.5-96.5-75.5-95.5-219.5-33.5q-33 0-63 2l-55 4q-25 2-43 4l-30 5q-21 0-21-19l62-698q0-6 4.5-11t12.5-5h691q7 0 12.5 5t5.5 13v218q0 6-5.5 11t-12.5 5h-422z m1002-762l-10-1h-1845q-14 0-23.5 9.5t-9.5 23.5v1845q0 12 9 23l154-154q-11-13-18-29t-7-33v-1459q0-36 26-62t62-26h1459q29 0 51 17z"/></svg>