<svg viewBox="0 0 2600 2760.837" xmlns="http://www.w3.org/2000/svg"><path d="M2222 383q47 0 79.5 33t32.5 78v1845q0 45-32.5 78t-79.5 33h-1845q-47 0-79-33t-32-78v-1845q0-45 32-78t79-33h1845z m-1659 1763q0 7 7 7h1459q8 0 8-7v-1459q0-7-8-7h-1459q-7 0-7 7v1459z m1669-1684l-10-1h-1845q-14 0-23.5 9.5t-9.5 23.5v1845q0 13 9 22l154-155q-11-11-18-27t-7-33v-1459q0-37 26-62.5t62-25.5h1459q29 0 51 17z m-690 1300q8 0 13 5.5t5 12.5v229q0 8-5 13t-13 5h-484q-8 0-13-5t-5-13v-229q0-7 5-12.5t13-5.5h93v-667l-125 37q-19 0-19-19v-240q0-6 4.5-11t9.5-7l406-86q11 0 16 5t5 12v976h94z"/></svg>