<svg viewBox="0 0 2600 2760.837" xmlns="http://www.w3.org/2000/svg"><path d="M2222 382q45 0 78.5 33t33.5 78v1845q0 46-33 79t-79 33h-1845q-45 0-78-33.5t-33-78.5v-1845q0-45 33-78t78-33h1845z m-1659 1763q0 2 2.5 5t4.5 3h1459q8 0 8-8v-1459q0-7-8-7h-1459q-7 0-7 7v1459z m1669-1683q-6-2-10-2h-1845q-14 0-23.5 9.5t-9.5 23.5v1845q0 14 9 23l154-156q-11-11-18-27t-7-33v-1459q0-36 26-62t62-26h1459q14 0 27 4.5t24 12.5z m-560.5 1398q-146.5 173-385.5 173-240 0-385-173.5t-145-464.5 144.5-464.5 385.5-173.5 386.5 172.5 145.5 465.5q0 292-146.5 465z m-231-706.5q-55.5-95.5-154.5-95.5t-153.5 95.5-54.5 241.5 55 241 153 95q99 0 154.5-94.5t55.5-241.5q0-146-55.5-241.5z"/></svg>