<svg viewBox="0 0 2600 2760.837" xmlns="http://www.w3.org/2000/svg"><path d="M2222 382q46 0 79 33t33 79v1845q0 45-33.5 78t-78.5 33h-1845q-45 0-78-33t-33-78v-1845q0-45 33-78.5t78-33.5h1845z m-1659 1764l1 3q0 4 6 4h1459q8 0 8-7v-1459q0-8-8-8h-1459q-7 0-7 8v1459z m1669-1684q-2 0-5-1t-5-1h-1845q-14 0-23.5 10t-9.5 24v1845q0 7 2.5 13t6.5 11l154-157q-11-11-18-26.5t-7-33.5v-1459q0-35 25.5-62t62.5-27h1459q28 0 51 18z m-442 1117q8 0 13 5t5 11v214q0 8-5 13t-13 5h-208v214q0 16-18 16h-264q-16 0-16-16v-214h-488q-8 0-13-5t-5-13v-214l1-4q0-2 2-4l505-779v-1q0-2 4-4.5t10-2.5h264q8 0 13 5.5t5 11.5v762h208z m-697 0h191v-293z"/></svg>