<svg viewBox="0 0 2600 2760.837" xmlns="http://www.w3.org/2000/svg"><path d="M2222 381q45 0 78.5 33t33.5 78v1845q0 46-33 79t-79 33h-1845q-45 0-78-33.5t-33-78.5v-1845q0-45 33-78t78-33h1845z m-1659 1763q0 7 7 7h1459q8 0 8-7v-1459q0-7-8-7h-1459q-7 0-7 7v1459z m1221-1303l-459 1201q-5 11-15 11h-306q-16 0-16-16 0-4 1-7l369-970h-551q-17 0-17-16v-210q0-16 17-16h960q7 0 12 4.5t5 18.5z m448-380q-6-2-10-2h-1845q-14 0-23.5 9.5t-9.5 23.5v1845q0 8 2.5 13t6.5 10l154-156q-11-11-18-27t-7-33v-1459q0-36 26-62t62-26h1459q29 0 51 17z"/></svg>