<svg viewBox="0 0 2600 2760.837" xmlns="http://www.w3.org/2000/svg"><path d="M2222 382q47 0 79.5 33t32.5 78v1845q0 45-32.5 78t-79.5 33h-1845q-47 0-79-33t-32-78v-1845q0-45 32-78t79-33h1845z m-1659 1763q0 7 7 7h1459q8 0 8-7v-1459q0-8-8-8h-1459q-7 0-7 8v1459z m1669-1684q-3 0-10-1h-1845q-14 0-23.5 9.5t-9.5 23.5v1845q0 12 9 23l154-156q-11-11-18-27t-7-33v-1459q0-35 25.5-62t62.5-27h1459q28 0 51 18z m-681 931q90 50 136.5 125.5t46.5 165.5q0 162-130 265.5t-314 103.5q-101 0-203.5-42.5t-181-107.5-78.5-84q0-9 3-11l114-166q5-7 12-7 13 0 40 24.5t107 65 149 40.5q58 0 101-41t43-94q0-37-30.5-69t-78-53-66-24-18.5-19v-145q0-15 22.5-20.5t72-31 79.5-59.5 30-71q0-51-38.5-90.5t-90.5-39.5q-55 0-119.5 33t-88 53-36.5 20q-4 0-7-2t-5-4l-114-166q-3-3-3-10 0-19 58.5-64t155.5-79.5 193-34.5q161 0 282 110t121 245q0 78-42.5 151t-121.5 133z"/></svg>