<svg viewBox="0 0 2600 2760.837" xmlns="http://www.w3.org/2000/svg"><path d="M2222 382q47 0 79.5 33t32.5 78v1845q0 45-32.5 78t-79.5 33h-1845q-47 0-79-33t-32-78v-1845q0-45 32-78t79-33h1845z m-1659 1763q0 7 7 7h1459q8 0 8-7v-1459q0-7-8-7h-1459q-7 0-7 7v1459z m1669-1684l-10-1h-1845q-14 0-23.5 9.5t-9.5 23.5v1845q0 14 9 23l154-154q-11-13-18-29t-7-33v-1459q0-36 26-62t62-26h1459q29 0 51 17z m-528 1247q8 0 13 5t5 13v226q0 7-5 13t-13 6h-767q-8 0-13-6t-5-13v-236q0-15 29.5-28t150-101 198.5-179.5 78-169.5q0-58-42.5-97.5t-95.5-39.5q-59 0-128 38.5t-96.5 64.5-41.5 26q-9-3-12-8l-111-181-2-4q0-2-1-4 0-8 6-14l20-20q80-80 199.5-143t237.5-63q148 0 273.5 107.5t125.5 266.5q0 82-36 165.5t-166 196-241 179.5h440z"/></svg>