<svg viewBox="0 0 2600 2760.837" xmlns="http://www.w3.org/2000/svg"><path d="M2222 382q45 0 78.5 33t33.5 78v1845q0 46-33 79t-79 33h-1845q-45 0-78-33.5t-33-78.5v-1845q0-45 33-78t78-33h1845z m-1659 1763q0 7 7 7h1459q8 0 8-7v-1459q0-7-8-7h-1459q-7 0-7 7v1459z m1669-1683q-6-2-10-2h-1845q-14 0-23.5 9.5t-9.5 23.5v1845q0 6 2.5 12t6.5 11l154-156q-11-11-18-27t-7-33v-1459q0-36 26-62t62-26h1459q29 0 51 17z m-604 1483.5q-138 122.5-350 122.5-233 0-364.5-137t-131.5-381q0-113 28.5-222.5t94.5-229.5 160.5-213 166.5-136l39-23q3-2 7-2 8 0 14 6l163 165q4 7 4 11 0 12-7 15 0 2-31.5 23.5t-110.5 99-136 176.5q25-4 50.5-6t53.5-2q210 0 349 121t139 306q0 184-138 306.5z m-488-435.5q-54 52-54 129 0 76 54 128.5t138 52.5 138-52.5 54-128.5q0-77-54-129t-138-52-138 52z"/></svg>